<?xml version="1.0" encoding="utf-8"?>
<!-- Generator: Adobe Illustrator 24.0.2, SVG Export Plug-In . SVG Version: 6.00 Build 0)  -->
<svg version="1.1" id="Layer_1" xmlns="http://www.w3.org/2000/svg" xmlns:xlink="http://www.w3.org/1999/xlink" x="0px" y="0px"
	 width="55px" height="55px" viewBox="0 0 55 55" style="enable-background:new 0 0 55 55;" xml:space="preserve">
<style type="text/css">
	.st0{fill:#FFFFFF;}
	.st1{fill-rule:evenodd;clip-rule:evenodd;fill:url(#SVGID_1_);}
</style>
<circle class="st0" cx="27.5" cy="27.5" r="27"/>
<g>
	<linearGradient id="SVGID_1_" gradientUnits="userSpaceOnUse" x1="27.5" y1="42.6429" x2="27.5" y2="12.3571">
		<stop  offset="0" style="stop-color:#27AAE1"/>
		<stop  offset="0.1683" style="stop-color:#2298D5"/>
		<stop  offset="0.3667" style="stop-color:#1F88C9"/>
		<stop  offset="0.5697" style="stop-color:#1E7DC2"/>
		<stop  offset="0.778" style="stop-color:#1C77BD"/>
		<stop  offset="1" style="stop-color:#1B75BC"/>
	</linearGradient>
	<path class="st1" d="M28.9,12.4c4.9,0,8.9,4,8.9,8.9c0,0.7-0.1,1.3-0.2,1.9c1.1,0.4,2,1.4,2.2,2.5c1.4-0.3,2.8,0.7,2.8,2.2
		c0,1.2-1,2.2-2.2,2.2c-8.2,0-16.4,0-24.5,0c-1.9,0-3.5-1.6-3.5-3.5c0-1.9,1.6-3.5,3.5-3.5c0,0,0.1,0,0.1,0c0.7-1.6,2.3-2.7,4.1-2.9
		C20.6,15.8,24.4,12.4,28.9,12.4z M38.1,40.8h-4c-0.5,0-0.8-0.4-0.8-0.8v-8.9h2.2v7.3h2.7v-1.8l4.5,3.1l-4.5,3.1V40.8z M24.6,38
		l3.3,4.6l3.3-4.6h-2v-7h-2.6v7H24.6z M16.9,40.8h4c0.5,0,0.8-0.4,0.8-0.8v-8.9h-2.2v7.3h-2.7v-1.8l-4.5,3.1l4.5,3.1V40.8z"/>
</g>
</svg>
