<svg xmlns="http://www.w3.org/2000/svg" width="49" height="49" shape-rendering="geometricPrecision" image-rendering="optimizeQuality" fill-rule="evenodd" viewBox="0 0 1.67 1.67" xmlns:v="https://vecta.io/nano"><defs><linearGradient id="A" gradientUnits="userSpaceOnUse" x1=".44" y1="1.24" x2="1.23" y2=".57"><stop offset="0" stop-color="#3e4095"/><stop offset="1" stop-color="red"/></linearGradient></defs><circle fill="#fefefe" cx=".83" cy=".83" r=".83"/><path fill="url(#A)" d="M1.33.77V.69H.87V.6h.46V.52H.92C.91.55.88.57.84.57a.09.09 0 0 1 0-.18C.87.39.9.41.92.44h.41V.36h-1l.01.6c.02.17.08.25.17.3l.32.19.17-.09H.87v-.09h.28c.04-.02.07-.05.09-.08H.92c-.01.03-.04.05-.08.05a.09.09 0 1 1 0-.18c.03 0 .06.02.08.05h.38c.01-.03.02-.06.02-.09H.87V.94h.46c0-.03.01-.06.01-.08H.92C.91.88.88.9.84.9.79.9.75.86.75.82A.09.09 0 0 1 .84.73C.87.73.9.74.92.77h.41zm-.49.36c.01 0 .02.01.02.02 0 .02-.01.03-.02.03s-.02-.01-.02-.03c0-.01.01-.02.02-.02zm0-.34C.85.79.86.8.86.81.86.83.85.84.84.84S.82.83.82.81C.82.8.83.79.84.79zm0-.33c.01 0 .02.01.02.02S.85.5.84.5.82.49.82.48.83.46.84.46z"/></svg>