<?xml version="1.0" encoding="utf-8"?>
<!-- Generator: Adobe Illustrator 24.0.2, SVG Export Plug-In . SVG Version: 6.00 Build 0)  -->
<svg version="1.1" id="Layer_1" xmlns="http://www.w3.org/2000/svg" xmlns:xlink="http://www.w3.org/1999/xlink" x="0px" y="0px"
	 width="55px" height="55px" viewBox="0 0 55 55" style="enable-background:new 0 0 55 55;" xml:space="preserve">
<style type="text/css">
	.st0{fill:#FFFFFF;}
	.st1{fill:url(#SVGID_1_);}
	.st2{fill:url(#SVGID_2_);}
</style>
<circle class="st0" cx="27.5" cy="27.5" r="27"/>
<g>
	<linearGradient id="SVGID_1_" gradientUnits="userSpaceOnUse" x1="7.1509" y1="27.5" x2="47.8483" y2="27.5">
		<stop  offset="0" style="stop-color:#A83279"/>
		<stop  offset="1" style="stop-color:#D38312"/>
	</linearGradient>
	<path class="st1" d="M36.6,16c-0.2-0.9,0.7-5.2-1.5-3.8c-0.3,0.8-7.1,5.9-5.7,6.9c0,0,5.7,5.7,5.7,5.7c2.1,1.4,1.3-2.9,1.5-3.8
		c8.5,0,8.4,13.3-0.1,13.2C25.3,33.3,34.5,16.6,18.4,16C3.5,16,3.3,38.8,18.3,39c0.2,0.9-0.7,5.2,1.5,3.8c0.3-0.8,7.1-5.9,5.7-6.9
		c0,0-5.7-5.7-5.7-5.7c-2.1-1.4-1.3,2.9-1.5,3.8c-8.4,0-8.3-13.3,0.1-13.2c11.3,0.8,2.1,17.5,18.1,18.1C51.6,38.9,51.6,16.2,36.6,16
		z"/>
	<linearGradient id="SVGID_2_" gradientUnits="userSpaceOnUse" x1="7.1509" y1="27.5" x2="47.8483" y2="27.5">
		<stop  offset="0" style="stop-color:#A83279"/>
		<stop  offset="1" style="stop-color:#D38312"/>
	</linearGradient>
	<path class="st2" d="M36.6,16c-0.2-0.9,0.7-5.2-1.5-3.8c-0.3,0.8-7.1,5.9-5.7,6.9c0,0,5.7,5.7,5.7,5.7c2.1,1.4,1.3-2.9,1.5-3.8
		c8.5,0,8.4,13.3-0.1,13.2C25.3,33.3,34.5,16.6,18.4,16C3.5,16,3.3,38.8,18.3,39c0.2,0.9-0.7,5.2,1.5,3.8c0.3-0.8,7.1-5.9,5.7-6.9
		c0,0-5.7-5.7-5.7-5.7c-2.1-1.4-1.3,2.9-1.5,3.8c-8.4,0-8.3-13.3,0.1-13.2c11.3,0.8,2.1,17.5,18.1,18.1C51.6,38.9,51.6,16.2,36.6,16
		z"/>
</g>
</svg>
