<?xml version="1.0" encoding="utf-8"?>
<!-- Generator: Adobe Illustrator 24.0.2, SVG Export Plug-In . SVG Version: 6.00 Build 0)  -->
<svg version="1.1" id="Layer_1" xmlns="http://www.w3.org/2000/svg" xmlns:xlink="http://www.w3.org/1999/xlink" x="0px" y="0px"
	 width="55px" height="55px" viewBox="0 0 55 55" style="enable-background:new 0 0 55 55;" xml:space="preserve">
<style type="text/css">
	.st0{fill:#FFFFFF;}
	.st1{fill:url(#SVGID_1_);}
</style>
<circle class="st0" cx="27.5" cy="27.5" r="27"/>
<linearGradient id="SVGID_1_" gradientUnits="userSpaceOnUse" x1="16.1645" y1="27.5" x2="38.8355" y2="27.5">
	<stop  offset="0" style="stop-color:#573345"/>
	<stop  offset="1" style="stop-color:#D80000"/>
</linearGradient>
<path class="st1" d="M16.3,45.8c0-8.3,0-16.5,0-24.7c0.5,0.3,0.9,0.5,1.3,0.8c1.8,1.2,3.7,2.4,5.5,3.5c0.3,0.2,0.4,0.4,0.3,0.7
	c-0.9,2.6-1.8,5.2-2.6,7.8c-0.7,2-1.3,4-2,6c-0.5,1.5-1,2.9-1.5,4.4c0,0.1-0.1,0.2,0,0.4c0.2-0.1,0.4-0.3,0.6-0.4
	c1.1-1.2,2.2-2.4,3.3-3.5c1.7-1.8,3.4-3.6,5.2-5.3c1.4-1.5,2.8-2.9,4.2-4.4c1.7-1.7,3.3-3.4,5-5.2c0.8-0.8,1.6-1.6,2.4-2.5
	c0.3-0.3,0.6-0.7,1-1c0,0.2,0,0.4,0,0.6c0,3.4,0,6.8,0,10.2c0,0.4-0.1,0.6-0.5,0.8c-1.8,0.9-3.5,1.9-5.2,2.8c-2.4,1.3-4.8,2.7-7.2,4
	c-2,1.1-4,2.2-6,3.3c-1,0.6-2.1,1.1-3.1,1.7C16.6,45.6,16.5,45.7,16.3,45.8z M16.2,18.3c0,0.8,0.2,1.2,0.9,1.5
	c2.9,1.3,5.8,2.8,8.7,4.2c1.5,0.7,3,1.5,4.5,2.2c0.3,0.1,0.5,0.1,0.7-0.1c1.7-1.2,3.3-2.4,5-3.6c0.6-0.5,1.3-0.9,2-1.5
	c-7.3-4-14.5-7.9-21.8-11.9C16.2,12.3,16.2,15.3,16.2,18.3z"/>
</svg>
