<?xml version="1.0" encoding="UTF-8"?>
<!DOCTYPE svg PUBLIC "-//W3C//DTD SVG 1.0//EN" "http://www.w3.org/TR/2001/REC-SVG-20010904/DTD/svg10.dtd">
<!-- Creator: CorelDRAW 2021 (64-Bit) -->
<svg xmlns="http://www.w3.org/2000/svg" xml:space="preserve" width="49px" height="49px" version="1.0" shape-rendering="geometricPrecision" text-rendering="geometricPrecision" image-rendering="optimizeQuality" fill-rule="evenodd" clip-rule="evenodd"
viewBox="0 0 2.53 2.53"
 xmlns:xlink="http://www.w3.org/1999/xlink"
 xmlns:xodm="http://www.corel.com/coreldraw/odm/2003">
 <g id="Layer_x0020_1">
  <metadata id="CorelCorpID_0Corel-Layer"/>
  <g id="_1684704069776">
   <path fill="#FEFEFE" d="M1.26 0c0.7,0 1.27,0.56 1.27,1.26 0,0.7 -0.57,1.27 -1.27,1.27 -0.7,0 -1.26,-0.57 -1.26,-1.27 0,-0.7 0.56,-1.26 1.26,-1.26z"/>
   <g>
    <g>
     <path fill="none" stroke="#ED3237" stroke-width="0.43" stroke-linecap="round" stroke-linejoin="round" stroke-miterlimit="2.61313" d="M0.77 1.9l0.99 0c0.08,-0.02 0.12,-0.07 0.14,-0.14l-0.01 -0.99m-1.26 0.49l0.64 0m0.62 -0.49c-0.01,-0.08 -0.05,-0.14 -0.13,-0.14l-1 0c-0.07,0 -0.13,0.07 -0.13,0.14l0.01 0.99c0,0.1 0.07,0.13 0.13,0.14"/>
    </g>
   </g>
  </g>
 </g>
</svg>
