<?xml version="1.0" encoding="utf-8"?>
<!-- Generator: Adobe Illustrator 24.0.2, SVG Export Plug-In . SVG Version: 6.00 Build 0)  -->
<svg version="1.1" id="Layer_1" xmlns="http://www.w3.org/2000/svg" xmlns:xlink="http://www.w3.org/1999/xlink" x="0px" y="0px"
	 width="55px" height="55px" viewBox="0 0 55 55" style="enable-background:new 0 0 55 55;" xml:space="preserve">
<style type="text/css">
	.st0{fill:#FFFFFF;}
	.st1{fill:url(#SVGID_1_);}
</style>
<circle class="st0" cx="27.5" cy="27.5" r="27"/>
<linearGradient id="SVGID_1_" gradientUnits="userSpaceOnUse" x1="16.6746" y1="27.5001" x2="38.3251" y2="27.5001">
	<stop  offset="0" style="stop-color:#FF8A15"/>
	<stop  offset="1" style="stop-color:#FF5B65"/>
</linearGradient>
<path class="st1" d="M27.5,35.7c10.6,0.2,10.6-16.5,0-16.3C16.9,19.2,16.9,35.8,27.5,35.7z M29.1,24.9c-1.1-2.8,4.2,2.1,4.5,2.2
	c1.1,0.8-3.7,3.3-3.9,3.8c-0.5,0.4-1.1-0.4-0.6-0.8c0,0,3.4-2.6,3.4-2.6L29.1,24.9z M26.3,31.9l1.3-8.9c2.3-2.8-0.6,9-0.4,9
	C27.2,32.7,26.2,32.5,26.3,31.9L26.3,31.9z M21.2,27.5c0-0.2,0.1-0.3,0.2-0.4l3.9-3c2.8-0.3-2.6,3.1-2.8,3.4l3.4,2.6
	c0.5,0.4-0.1,1.2-0.6,0.8C25.2,30.7,20.8,27.7,21.2,27.5L21.2,27.5z M16.7,43.7c0,1.6,1.3,2.8,2.8,2.8h15.9c3.5,0.1,2.8-4.6,2.8-6.9
	H16.7V43.7z M27.5,40.9c2.9,0,2.9,4.5,0,4.5C24.6,45.4,24.6,40.9,27.5,40.9z M27.5,41.9c1.6,0,1.6,2.5,0,2.5
	C25.9,44.4,25.9,41.9,27.5,41.9z M35.5,8.4H19.5c-3,0-2.9,3.4-2.8,5.6h21.6C38.4,11.8,38.4,8.4,35.5,8.4z M30.3,11.5
	C29.9,11.3,24,12,24.2,11c-0.2-1,5.8-0.3,6.1-0.5C31,10.5,31,11.5,30.3,11.5z M16.7,38.7h21.6V15H16.7V38.7z M27.5,18.3
	c11.9-0.2,11.9,18.5,0,18.3c-5.1,0-9.2-4.1-9.2-9.2l0,0C18.4,22.4,22.4,18.4,27.5,18.3z"/>
</svg>
