<?xml version="1.0" encoding="utf-8"?>
<!-- Generator: Adobe Illustrator 24.0.2, SVG Export Plug-In . SVG Version: 6.00 Build 0)  -->
<svg version="1.1" id="Layer_1" xmlns="http://www.w3.org/2000/svg" xmlns:xlink="http://www.w3.org/1999/xlink" x="0px" y="0px"
	 width="55px" height="55px" viewBox="0 0 55 55" style="enable-background:new 0 0 55 55;" xml:space="preserve">
<style type="text/css">
	.st0{fill:#FFFFFF;}
	.st1{fill:url(#SVGID_1_);}
</style>
<circle class="st0" cx="27.5" cy="27.5" r="27"/>
<linearGradient id="SVGID_1_" gradientUnits="userSpaceOnUse" x1="16.0714" y1="27.5" x2="38.9286" y2="27.5">
	<stop  offset="0" style="stop-color:#44A08D"/>
	<stop  offset="1" style="stop-color:#093637"/>
</linearGradient>
<path class="st1" d="M27.5,33.2c0.6,0,1.3-0.2,1.8-0.4l-2.9-2.9c-0.3-0.3-0.4-0.6-0.4-1v-4c-2.2,0.8-3.4,3.3-2.6,5.5
	C24.1,32.1,25.7,33.2,27.5,33.2z M31.8,28.9c0-1.8-1.1-3.4-2.9-4v3.4l2.4,2.4C31.6,30.2,31.8,29.6,31.8,28.9z M17.5,41.8h20
	c0.8,0,1.4-0.6,1.4-1.4v-20c0-0.4-0.1-0.7-0.4-1l-5.7-5.7c-0.3-0.3-0.6-0.4-1-0.4H17.5c-0.8,0-1.4,0.6-1.4,1.4v25.7
	C16.1,41.1,16.7,41.8,17.5,41.8z M27.5,21.8c3.9,0,7.1,3.2,7.1,7.1s-3.2,7.1-7.1,7.1s-7.1-3.2-7.1-7.1S23.6,21.8,27.5,21.8z"/>
</svg>
