<svg xmlns="http://www.w3.org/2000/svg" width="49" height="49" shape-rendering="geometricPrecision" image-rendering="optimizeQuality" fill-rule="evenodd" viewBox="0 0 1.38 1.38" xmlns:v="https://vecta.io/nano"><path fill="#ED3237" d="M.78.48C.75.47.73.46.69.45v.03L.61.4.69.32v.04C.81.38.9.44.96.55 1.02.73.96.9.8.99c-.11.06-.35.02-.52.03L.32.98C.31.96.29.95.27.93.63.93.68.94.75.91.84.86.89.79.89.7S.86.54.78.48z"/><path d="M.62.45L.57.4.61.36C.35.4.24.68.38.89h.13C.34.76.39.49.62.45zm.4.48H.94a.47.47 0 0 1-.12.09h.2v.04L1.1.98C1.08.95 1.05.92 1.02.9v.03z" fill="#3346ff"/><g fill="#008000"><rect x=".58" y=".56" width=".15" height=".04" rx=".01"/><rect x=".66" y=".71" width=".15" height=".04" rx=".01"/><rect x=".5" y=".71" width=".15" height=".04" rx=".01"/><path d="M.59.61h.13v.07L.6.69.59.61zm.04.02h.05v.02H.63V.63zm.05.12H.8v.07C.8.83.8.84.79.84h-.1C.68.84.68.83.68.82V.75zm.03.03h.05l.01.01H.71V.78zM.51.75h.12v.07c0 .01 0 .02-.01.02h-.1C.51.84.51.83.51.82V.75zm.04.03H.6v.01H.55L.54.78z"/></g></svg>