<?xml version="1.0" encoding="utf-8"?>
<!-- Generator: Adobe Illustrator 24.0.2, SVG Export Plug-In . SVG Version: 6.00 Build 0)  -->
<svg version="1.1" id="Layer_1" xmlns="http://www.w3.org/2000/svg" xmlns:xlink="http://www.w3.org/1999/xlink" x="0px" y="0px"
	 width="290px" height="196px" viewBox="0 0 290 196" style="enable-background:new 0 0 290 196;" xml:space="preserve">
<style type="text/css">
	.st0{fill:#3346ff;}
	.st1{fill:#ED3237;}
	.st2{fill-rule:evenodd;clip-rule:evenodd;fill:#FFFFFF;}
</style>
<rect class="st0" width="290" height="196"/>
<g>
	<path class="st1" d="M106.6,83.6c0,2.2,0.2,3.9,0.6,5.2c0.5,1.3,1.1,2.7,1.9,4.2c0.3,0.5,0.4,0.9,0.4,1.3c0,0.6-0.4,1.2-1.1,1.8
		l-3.7,2.5c-0.5,0.4-1.1,0.5-1.5,0.5c-0.6,0-1.2-0.3-1.8-0.8c-0.8-0.9-1.5-1.8-2.1-2.7c-0.6-1-1.2-2.1-1.8-3.5
		c-4.6,5.4-10.3,8.1-17.2,8.1c-4.9,0-8.8-1.4-11.7-4.2c-2.9-2.8-4.3-6.5-4.3-11.2c0-5,1.8-9,5.3-12S78,68.1,84,68.1
		c2,0,4,0.2,6.2,0.5s4.4,0.8,6.7,1.3v-4.3c0-4.4-0.9-7.5-2.7-9.4c-1.9-1.8-5-2.7-9.5-2.7c-2,0-4.2,0.2-6.3,0.8s-4.3,1.2-6.3,2
		c-0.9,0.4-1.6,0.6-2,0.8c-0.4,0.1-0.7,0.2-0.9,0.2c-0.8,0-1.2-0.6-1.2-1.8v-2.9c0-0.9,0.1-1.6,0.4-2s0.8-0.8,1.6-1.2
		c2-1.1,4.5-1.9,7.4-2.6c2.9-0.8,5.9-1.1,9.1-1.1c7,0,12,1.6,15.3,4.7c3.2,3.2,4.9,8,4.9,14.4v18.9H106.6z M82.9,92.5
		c1.9,0,3.9-0.4,6-1.1c2.1-0.7,4-2,5.6-3.7c0.9-1.1,1.6-2.3,2-3.7c0.4-1.4,0.6-3.1,0.6-5.1v-2.5c-1.7-0.4-3.5-0.8-5.4-1
		c-1.9-0.2-3.7-0.4-5.5-0.4c-3.9,0-6.8,0.8-8.7,2.3c-1.9,1.6-2.9,3.8-2.9,6.7c0,2.7,0.7,4.8,2.2,6.2C78.2,91.8,80.2,92.5,82.9,92.5
		L82.9,92.5z M129.9,98.8c-1.1,0-1.8-0.2-2.2-0.6c-0.5-0.4-0.9-1.2-1.2-2.3l-13.7-45.2c-0.4-1.2-0.5-1.9-0.5-2.3
		c0-0.9,0.5-1.5,1.4-1.5h5.7c1.1,0,1.9,0.2,2.3,0.6c0.5,0.4,0.8,1.2,1.2,2.3l9.8,38.7l9.1-38.7c0.3-1.2,0.6-1.9,1.1-2.3
		c0.5-0.4,1.3-0.6,2.3-0.6h4.7c1.1,0,1.9,0.2,2.3,0.6c0.5,0.4,0.9,1.2,1.1,2.3l9.2,39.2l10.1-39.2c0.4-1.2,0.8-1.9,1.2-2.3
		c0.5-0.4,1.2-0.6,2.3-0.6h5.4c0.9,0,1.5,0.5,1.5,1.5c0,0.3-0.1,0.6-0.1,0.9c-0.1,0.4-0.2,0.8-0.4,1.5L168.3,96
		c-0.4,1.2-0.8,1.9-1.2,2.3c-0.5,0.4-1.2,0.6-2.2,0.6h-5c-1.1,0-1.9-0.2-2.3-0.6c-0.5-0.4-0.9-1.2-1.1-2.3l-9.1-37.7l-9,37.7
		c-0.3,1.2-0.6,1.9-1.1,2.3c-0.5,0.4-1.3,0.6-2.3,0.6H129.9z M205,100.4c-3,0-6.1-0.4-9-1.1c-2.9-0.7-5.2-1.5-6.7-2.3
		c-0.9-0.5-1.6-1.1-1.8-1.6s-0.4-1.1-0.4-1.6v-3c0-1.2,0.5-1.8,1.3-1.8c0.4,0,0.7,0.1,1.1,0.2c0.4,0.1,0.9,0.4,1.5,0.6
		c2,0.9,4.2,1.6,6.4,2c2.3,0.5,4.6,0.7,7,0.7c3.7,0,6.5-0.6,8.5-1.9c2-1.3,3-3.2,3-5.6c0-1.6-0.5-3-1.6-4.1s-3-2.1-5.9-3l-8.5-2.6
		c-4.3-1.3-7.4-3.3-9.4-6c-1.9-2.6-2.9-5.4-2.9-8.5c0-2.5,0.5-4.6,1.6-6.5c1.1-1.9,2.5-3.5,4.2-4.8c1.8-1.3,3.7-2.3,6.1-3
		s4.8-1,7.4-1c1.3,0,2.6,0.1,3.9,0.2c1.3,0.2,2.6,0.4,3.8,0.6c1.2,0.3,2.3,0.6,3.3,0.9c1.1,0.4,1.9,0.7,2.5,1.1
		c0.8,0.5,1.4,0.9,1.8,1.5c0.4,0.5,0.5,1.1,0.5,1.9v2.7c0,1.2-0.5,1.9-1.3,1.9c-0.5,0-1.2-0.2-2.2-0.7c-3.3-1.5-7.1-2.3-11.2-2.3
		c-3.3,0-6,0.5-7.8,1.6c-1.8,1.1-2.7,2.8-2.7,5.2c0,1.6,0.6,3,1.8,4.2c1.2,1.1,3.3,2.2,6.4,3.2l8.3,2.6c4.2,1.3,7.3,3.2,9.1,5.6
		c1.8,2.4,2.7,5.1,2.7,8.2c0,2.5-0.5,4.8-1.5,6.8c-1.1,2-2.5,3.7-4.3,5.1c-1.8,1.5-4,2.5-6.5,3.3C210.7,100,208,100.4,205,100.4
		L205,100.4z"/>
	<g>
		<path class="st2" d="M216,128.8c-19.2,14.2-47.2,21.8-71.2,21.8c-33.7,0-64-12.5-87-33.2c-1.8-1.6-0.2-3.9,2-2.6
			c24.8,14.4,55.4,23.1,87,23.1c21.3,0,44.8-4.4,66.4-13.6C216.5,122.9,219.2,126.5,216,128.8z"/>
		<path class="st2" d="M224.1,119.7c-2.5-3.2-16.3-1.5-22.5-0.8c-1.9,0.2-2.2-1.4-0.5-2.6c11-7.7,29.1-5.5,31.2-2.9
			c2.1,2.6-0.6,20.7-10.9,29.4c-1.6,1.3-3.1,0.6-2.4-1.1C221.3,135.8,226.5,122.8,224.1,119.7z"/>
	</g>
</g>
</svg>
