<?xml version="1.0" encoding="utf-8"?>
<!-- Generator: Adobe Illustrator 24.0.2, SVG Export Plug-In . SVG Version: 6.00 Build 0)  -->
<svg version="1.1" id="Layer_1" xmlns="http://www.w3.org/2000/svg" xmlns:xlink="http://www.w3.org/1999/xlink" x="0px" y="0px"
	 width="55px" height="55px" viewBox="0 0 55 55" style="enable-background:new 0 0 55 55;" xml:space="preserve">
<style type="text/css">
	.st0{fill:#FFFFFF;}
	.st1{fill:url(#SVGID_1_);}
</style>
<circle class="st0" cx="27.5" cy="27.5" r="27"/>
<linearGradient id="SVGID_1_" gradientUnits="userSpaceOnUse" x1="13.373" y1="27.5455" x2="41.7429" y2="27.5455">
	<stop  offset="0" style="stop-color:#3346ff"/>
	<stop  offset="1" style="stop-color:#FFD200"/>
</linearGradient>
<path class="st1" d="M41.7,27.3c0-2.5-1.7-4.6-4.2-5.2c0.1-7.3-11-9.6-14.2-3.2c-2.4-1.3-5.6,0.5-5.7,3.1
	c-6.5,1.2-5.4,10.8,1.2,10.7c1.4,0.5,19.3-1.1,19.2,0.9c-0.2,0.7,0.6,2.6-0.8,2.6c-2.3-0.1-0.8,1.5-0.6,2.9c0,1.6,0.8,0,0.8,0
	c1-0.9,4-0.1,4.2-4c0-5.9,0-7.3,0-7.3l0,0C41.7,27.7,41.7,27.5,41.7,27.3z M33.5,26.4c-2,0.1-3.2-2.4-2.1-3.9
	c0.5,0.3,1.1,0.6,1.8,0.8c-1.6,2.1,2.6,3.2,2.2,0.6c0.2,0,0.4,0.1,0.6,0.1C36,25.3,34.9,26.4,33.5,26.4z"/>
</svg>
