<?xml version="1.0" encoding="utf-8"?>
<!-- Generator: Adobe Illustrator 24.0.2, SVG Export Plug-In . SVG Version: 6.00 Build 0)  -->
<svg version="1.1" id="Layer_1" xmlns="http://www.w3.org/2000/svg" xmlns:xlink="http://www.w3.org/1999/xlink" x="0px" y="0px"
	 width="290px" height="196px" viewBox="0 0 290 196" style="enable-background:new 0 0 290 196;" xml:space="preserve">
<style type="text/css">
	.st0{fill:url(#SVGID_1_);}
	.st1{fill:#3346ff;}
</style>
<radialGradient id="SVGID_1_" cx="145" cy="98" r="217.1656" gradientUnits="userSpaceOnUse">
	<stop  offset="0" style="stop-color:#FF5576"/>
	<stop  offset="0.1276" style="stop-color:#F84767"/>
	<stop  offset="0.511" style="stop-color:#E4203F"/>
	<stop  offset="0.815" style="stop-color:#D80926"/>
	<stop  offset="1" style="stop-color:#D4001D"/>
</radialGradient>
<rect class="st0" width="290" height="196"/>
<g>
	<path class="st1" d="M133.7,113.6c0,0.4,0.1,0.8,0.1,1.1c0,5,0.1,10,0,15c0,0.7-0.4,1.5-0.9,2c-5.9,5.9-13.1,8.6-21.3,9.5
		c-7.6,0.8-14.8-0.4-21.6-3.9c-4.5-2.4-8.5-5.5-11.9-9.3c-0.3-0.3-0.5-0.6-0.9-1.2c5.4,0,10.5,0,15.9,0c0-5.7,0-11.2,0-16.7
		c0.1,0,0.3-0.1,0.4-0.1c0.6,0.7,1.2,1.4,1.7,2.1c4.2,6.2,15.8,7.9,22.5,2.2c0.9-0.7,1.7-1.1,2.9-1c4,0.1,7.9,0.1,11.9,0.2
		C132.9,113.5,133.3,113.6,133.7,113.6z"/>
	<path class="st1" d="M196.7,126.7c5.4,0,10.6,0,16.1,0c-2.7,3.4-5.6,5.9-8.8,8.1c-14,9.9-32.1,7.7-42.5,0.5
		c-1.7-1.1-3.2-2.5-4.7-3.9c-0.3-0.3-0.6-0.8-0.6-1.1c0-5.5,0-11,0.1-16.5c0-0.1,0.1-0.2,0.2-0.3c0.5,0,1-0.1,1.5-0.1
		c4,0,7.9-0.1,11.9-0.1c0.8,0,1.7,0.3,2.3,0.8c5.7,4.7,14.9,4.8,20.5,0.1c1.5-1.2,2.6-2.8,4.1-4.5
		C196.7,115.5,196.7,121,196.7,126.7z"/>
	<path class="st1" d="M139.9,72.1c-5.5,0-10.6,0-15.9,0c0,4.6,0,9.2,0,14.1c-1.9-1.5-3.5-2.8-5.2-4.2c-2.9-2.3-5.9-4.3-9.7-4.4
		c-2.5-0.1-5.2,0.2-7.6,1.1c-2.1,0.8-4.1,0.9-6.2,0.8c-3.8-0.2-7.6-0.4-11.3-0.5c-1.2,0-1.6-0.2-1.5-1.6c0.2-4,0.3-8.1,0.3-12.2
		c0-0.9,0.3-1.5,1-2.1c7.9-6.3,16.9-9.1,26.9-8.7c7.4,0.3,13.8,3.5,19.7,8C134,65.2,136.8,68.6,139.9,72.1z"/>
	<path class="st1" d="M166,86.2c0-3.2,0-6.2,0-9.2c0-1.2,0-2.5,0.1-3.7c0.1-1-0.3-1.3-1.3-1.3c-4.4,0.1-8.8,0.1-13.1,0.2
		c-0.4,0-0.9,0-1.7,0c1.8-2,3.3-3.8,4.9-5.4c5.9-6,12.7-10.3,21.1-11.8c7.9-1.4,15.4,0.2,22.6,3.6c2.7,1.3,5.2,3.2,7.7,4.9
		c0.4,0.3,0.8,1,0.8,1.6c0.2,4.4,0.3,8.8,0.4,13.1c0,0.3-0.5,0.9-0.8,0.9c-5.2,0.3-10.3,0.4-15.5,0.6c-0.3,0-0.6-0.1-0.9-0.2
		c-6.9-3.3-13.2-2.2-19,2.6C169.5,83.4,167.9,84.7,166,86.2z"/>
	<path class="st1" d="M201.1,121.9c0-1.8,0-3.6,0-5.4c0-3.6-0.2-7.2,0-10.8c0.1-1.6,0.8-3.2,1-4.8c0.9-5.9-0.3-11.1-5.3-15
		c-0.2-0.2-0.4-0.3-0.6-0.8c5.3-0.2,10.6-0.5,15.9-0.7c0-4.9,0-9.8,0-14.7c4.2,3.5,7.6,7.5,9.7,12.4c5.9,13.8,4.9,26.9-4.2,39
		c-0.6,0.7-1.1,1-2.1,1c-4.4-0.1-8.8-0.1-13.2-0.1C202,122,201.7,121.9,201.1,121.9z"/>
	<path class="st1" d="M88.6,122c-1.1,0-2.3,0-3.4,0c-3.7,0-7.4,0.1-11.1,0c-0.5,0-1.2-0.3-1.5-0.7c-5.4-6.6-8.2-14.2-8.1-22.7
		c0.1-11.4,4.2-21.2,13-28.8c0.1-0.1,0.2-0.1,0.4-0.2c0,4.9,0,9.7,0,14.7c5.3,0.2,10.5,0.4,16.2,0.7c-0.6,0.6-1,1-1.4,1.3
		c-4.4,3.7-5.9,8.7-4.7,14c1.6,7.1,0.7,14.1,0.9,21.2C88.7,121.6,88.7,121.7,88.6,122z"/>
	<path class="st1" d="M145.3,78.6c0.5-0.3,1-0.8,1.5-0.8c4.7-0.3,9.4-0.4,14.1-0.6c0.1,0,0.3,0,0.6,0.1c0,0.5,0.1,0.9,0.1,1.4
		c0,4.1-0.1,8.2,0,12.3c0,1.7-0.3,3.1-1.4,4.3c-0.3,0.4-0.6,0.8-0.8,1.3c-1.4,1.9-2.9,3.7-4.2,5.6c-3.3,4.5-6.5,8.9-9.8,13.4
		c-2.5,3.3-5,6.6-7.4,10c-0.1,0.2-0.3,0.3-0.7,0.8c0-5.6,0-10.9,0-16.2c-5.6,0-11,0-16.6,0c3.7-4.7,7.2-9.2,10.8-13.7
		c1.2-1.5,2.4-3,3.6-4.5C138.5,87.5,141.9,83.1,145.3,78.6z"/>
	<path class="st1" d="M145.3,78.6c-3.4,4.4-6.8,8.9-10.3,13.3c-1.2,1.5-2.4,3-3.6,4.5c-1.1-1.4-2.2-2.8-3.2-4.3
		c-0.2-0.3-0.3-0.9-0.3-1.3c0-4.8,0-9.5,0-14.3c0-0.9,0.1-1.3,1.2-1.2c4.1,0.3,8.3,0.5,12.4,0.6c1.4,0,2.4,0.4,3.1,1.6
		C144.7,78,145,78.3,145.3,78.6z"/>
	<path class="st1" d="M145.3,115.6c3.3-4.5,6.5-9,9.8-13.4c1.4-1.9,2.8-3.7,4.2-5.6c3.1,3.8,6.1,7.7,9.3,11.7c-5.5,0-10.9,0-16.4,0
		c0,5.4,0,10.7,0,16c-0.1,0-0.2,0.1-0.3,0.1C149.7,121.5,147.5,118.6,145.3,115.6z"/>
</g>
</svg>
