<svg xmlns="http://www.w3.org/2000/svg" width="55" height="55" viewBox="0 0 1.39 1.39" shape-rendering="geometricPrecision" image-rendering="optimizeQuality" fill-rule="evenodd" xmlns:v="https://vecta.io/nano"><circle cx=".7" cy=".7" r=".7" fill="#fefefe"/><g fill="#ED3237"><path d="M.84.99h0zM1.06.9C1.05.91.78.9.75.9.64.91.53.9.43.9H.35C.32.9.33.91.33.85V.53.45.39.37h.18.46.09c.01.01 0 .05 0 .07v.4c0 .01.01.06 0 .06zM.29.93C.28.93.27.93.26.95.25.96.25.97.24.97L.22 1c-.02.03-.02.02-.02.03.01.01.01.02.04.03.01.01.17 0 .19 0h.26.27.13.05.03c0-.01.01-.01.01-.02h.01c0-.03 0-.01-.01-.02 0-.01-.05-.07-.05-.07-.01-.01-.01-.01-.01-.02-.01 0-.01 0-.02-.01 0 0 .01-.01.01-.02V.8.68.42c0-.02 0-.05-.01-.07-.03-.03-.06-.02-.09-.02H.35.32C.3.33.29.35.29.36.28.38.28.4.28.42V.8.9c0 .01.01.02.01.03zm.55.06z"/><path d="M.63.68v.06L.43.65V.61l.2-.09v.06L.49.63.63.68zM.97.65l-.2.09V.68L.91.63.77.58V.52l.2.09v.04zM.75.52L.69.74v.02L.67.78C.66.78.65.77.65.76V.74L.71.51C.71.5.71.49.72.49.74.48.74.48.75.49v.03z" fill-rule="nonzero"/></g></svg>