<?xml version="1.0" encoding="utf-8"?>
<!-- Generator: Adobe Illustrator 24.0.2, SVG Export Plug-In . SVG Version: 6.00 Build 0)  -->
<svg version="1.1" id="Layer_1" xmlns="http://www.w3.org/2000/svg" xmlns:xlink="http://www.w3.org/1999/xlink" x="0px" y="0px"
	 width="290px" height="196px" viewBox="0 0 290 196" style="enable-background:new 0 0 290 196;" xml:space="preserve">
<style type="text/css">
	.st0{fill:#008EE5;}
	.st1{fill:#FFFFFF;}
</style>
<rect class="st0" width="290" height="196"/>
<g>
	<path class="st1" d="M63.8,82.6c-17.4-41.4,38.8-72.3,64.9-38c15.4-16.7,44.1-12.7,54.8,7.2c39.8-17.6,76.7,31.1,50.1,64.9
		c-9.6,13.3-26.3,17.8-41.6,15.9c-7.7,13.7-25.7,19.2-39.8,12.3c-12,28.2-54.1,28.7-65.3-1.6C51.4,150.9,32,101.3,63.8,82.6z
		 M153.3,88.2c-1.8,4.4-0.7,21.2-7.6,19.2c-1.1-0.3-0.9,1.5-1.4,2.2c11,6.9,10.8-14.7,12.7-21.4c2.4-0.1,4.5,0.8,4.5-2.3
		c0.1-1.6-2.8-0.4-4-0.7c1.3-5.6,1.8-3.7,5.7-4.6c0-0.8,1.5-2.4,0.3-2.7c-5.4-1.4-9.2,2-9.7,7.3c-2.3-0.2-3.2,0-3.3,2.5
		C150.5,88.8,152.5,87.9,153.3,88.2z M102.2,91.6c-17.8-2-12.4,16.5,3.3,10.3c0.2-4.6,2.5-15.6-3.9-16.9c-2.8-0.8-12.8-0.2-8,3.9
		C96.5,87.5,103.3,86.7,102.2,91.6z M210.9,94.8c2.9-0.6,10,1.2,11.6-0.7c0.7-5-2.4-9.9-7.8-9.3c-8-0.6-10.8,13.1-4,17
		c2.4,1.6,13.2,2.6,10.5-2.2c-0.1-0.5-0.4-0.6-0.9-0.4C216.6,100.8,210.3,99.9,210.9,94.8z M120.4,94.8c3.5-0.5,9,1.1,11.6-0.6
		c0.6-5-2.3-10.1-7.9-9.4c-8.3-0.2-10.4,12.8-4,16.8c2.3,1.7,13.5,2.7,10.7-2.1c-0.1-0.5-0.4-0.6-0.9-0.4
		C126.1,100.7,119.9,100,120.4,94.8z M178.1,93.9c0,0-0.1,0-0.1,0c0.7-13.3-18.9-11.2-16.1,1.9C162.5,106,179.1,105,178.1,93.9z
		 M141.2,84.7c-5.4-0.9-9.3,7.2-3.6,9.7c1.8,0.8,3.8,1.3,5.6,2.1c2.8,1.7-0.5,4.4-2.8,3.6c-1.7,0.3-4.5-2.5-5.4-1.5
		c-0.1,0.9-1.4,2.1-0.2,2.7c5.5,4.5,17.7,0,11.3-7.3c-2.1-1.2-4.5-2-6.7-2.9c-3.8-4,4.4-3.7,6.5-2.1c1,0.5,0.9-1.2,1.3-1.7
		C147.7,85,142.9,84.8,141.2,84.7z M82.6,84.6c-5.4-0.8-9.2,7.1-3.6,9.6c2.1,1.2,9.4,1.9,5.7,5.4c-2.4,1.2-5.3,0-7.4-1.4
		c-6.6,4.1,12.1,8.4,12-0.4c0.9-6.1-8.5-4.3-9.5-8.6c1.3-2.8,5.4-1.3,7.6-0.3c0.4,0.2,0.6,0.1,0.7-0.3
		C90.4,85.1,85.3,84.8,82.6,84.6z M201,84.8c-14.8-0.1-9.7,23.7,4.4,17.5c1.1-0.4-0.2-1.8-0.3-2.6c-0.9-1.1-3,0.5-4.3,0.1
		c-6.4,0.3-6.6-11.9-0.3-11.9c1.3-0.3,3.5,1,4.4,0C206.9,84.6,203.5,84.8,201,84.8z M109.6,90.2C109.6,90.2,109.6,90.2,109.6,90.2
		c0,3.9,0,7.8,0,11.7c0,1.4,2,0.5,2.9,0.7c0.8,0,0.8,0,0.8-0.9c-0.6-7.7,1.1-17-0.6-23.9c-0.9,0.3-3.1-0.7-3.1,0.8
		C109.6,82.4,109.6,86.3,109.6,90.2z M184.6,86.8C184.5,86,185,85,184,85c-0.9,0.3-2.7-0.6-2.9,0.6c0,5.5,0,10.9,0,16.4
		c-0.3,0.9,4.1,0.9,3.7-0.1c0.7-4.3-2.4-13.1,4.1-13.6c1.8,0.5,2.2-0.9,2.6-2.3C191.3,83.7,185.9,85.1,184.6,86.8z"/>
	<path class="st1" d="M102.3,94.4c-0.2,3.6,1.3,6-3.4,5.7C92,99.5,94.4,92.9,102.3,94.4z"/>
	<path class="st1" d="M210.9,91.9c0-5.6,8.2-5.5,7.9,0C216.2,91.9,213.6,91.9,210.9,91.9z"/>
	<path class="st1" d="M120.5,91.9c-0.4-5.2,8.2-5.8,7.9,0C125.7,91.9,123.1,91.9,120.5,91.9z"/>
	<path class="st1" d="M174.3,93.9c-0.6,11.7-12.2,4.7-7.9-4C169.1,85.2,175.2,89.1,174.3,93.9z"/>
</g>
</svg>
