<?xml version="1.0" encoding="UTF-8"?>
<svg xmlns="http://www.w3.org/2000/svg" xmlns:xlink="http://www.w3.org/1999/xlink" width="15pt" height="15pt" viewBox="0 0 15 15" version="1.1">
<g id="surface1">
<path style=" stroke:none;fill-rule:nonzero;fill:rgb(25.882353%,52.156863%,95.686275%);fill-opacity:1;" d="M 14.992188 7.640625 C 14.992188 7.027344 14.941406 6.578125 14.832031 6.113281 L 7.648438 6.113281 L 7.648438 8.886719 L 11.863281 8.886719 C 11.78125 9.574219 11.320312 10.613281 10.300781 11.3125 L 10.285156 11.402344 L 12.558594 13.121094 L 12.714844 13.136719 C 14.160156 11.835938 14.992188 9.914062 14.992188 7.640625 "/>
<path style=" stroke:none;fill-rule:nonzero;fill:rgb(20.392157%,65.882353%,32.54902%);fill-opacity:1;" d="M 7.648438 14.949219 C 9.714844 14.949219 11.449219 14.285156 12.714844 13.136719 L 10.300781 11.3125 C 9.65625 11.75 8.789062 12.058594 7.648438 12.058594 C 5.625 12.058594 3.910156 10.753906 3.296875 8.953125 L 3.207031 8.960938 L 0.847656 10.746094 L 0.816406 10.828125 C 2.074219 13.269531 4.65625 14.949219 7.648438 14.949219 "/>
<path style=" stroke:none;fill-rule:nonzero;fill:rgb(98.431373%,73.72549%,1.960784%);fill-opacity:1;" d="M 3.296875 8.953125 C 3.136719 8.488281 3.042969 7.988281 3.042969 7.472656 C 3.042969 6.960938 3.136719 6.460938 3.289062 5.996094 L 3.285156 5.898438 L 0.894531 4.082031 L 0.816406 4.117188 C 0.296875 5.132812 0 6.269531 0 7.472656 C 0 8.679688 0.296875 9.816406 0.816406 10.828125 L 3.296875 8.953125 "/>
<path style=" stroke:none;fill-rule:nonzero;fill:rgb(92.156863%,26.27451%,20.784314%);fill-opacity:1;" d="M 7.648438 2.890625 C 9.085938 2.890625 10.054688 3.496094 10.605469 4.003906 L 12.765625 1.941406 C 11.441406 0.738281 9.714844 0 7.648438 0 C 4.65625 0 2.074219 1.675781 0.816406 4.117188 L 3.289062 5.996094 C 3.910156 4.195312 5.625 2.890625 7.648438 2.890625 "/>
</g>
</svg>
