<?xml version="1.0" encoding="utf-8"?>
<!-- Generator: Adobe Illustrator 24.0.2, SVG Export Plug-In . SVG Version: 6.00 Build 0)  -->
<svg version="1.1" id="Layer_1" xmlns="http://www.w3.org/2000/svg" xmlns:xlink="http://www.w3.org/1999/xlink" x="0px" y="0px"
	 width="55px" height="55px" viewBox="0 0 55 55" style="enable-background:new 0 0 55 55;" xml:space="preserve">
<style type="text/css">
	.st0{fill:#FFFFFF;}
	.st1{fill:url(#SVGID_1_);}
</style>
<circle class="st0" cx="27.5" cy="27.5" r="27"/>
<linearGradient id="SVGID_1_" gradientUnits="userSpaceOnUse" x1="14.2143" y1="27.5" x2="40.7857" y2="27.5">
	<stop  offset="0" style="stop-color:#ADE900"/>
	<stop  offset="1" style="stop-color:#0093EF"/>
</linearGradient>
<path transform="translate(0,-952.36218)" class="st1" d="M26,964.4c-6.5,0-11.7,1.8-11.8,4c0,0,0,0,0,0.1c0,0.3,0.2,0.6,0.7,1
	s1.4,0.8,2.5,1.2c2.2,0.7,5.2,1.2,8.6,1.2s6.5-0.5,8.6-1.2c1.1-0.3,1.9-0.8,2.5-1.2s0.7-0.7,0.7-1c0,0,0,0,0,0
	C37.8,966.1,32.5,964.4,26,964.4z M14.2,970.7v5.4c0,0,0,0,0,0.1c0,0.3,0.2,0.6,0.7,1s1.4,0.8,2.5,1.2c2.2,0.7,5.2,1.2,8.6,1.2
	s6.5-0.5,8.6-1.2c1.1-0.3,1.9-0.8,2.5-1.2s0.7-0.7,0.7-1v0v-5.4c-0.7,0.5-1.6,0.9-2.7,1.3c-2.4,0.8-5.6,1.2-9.1,1.2
	s-6.7-0.5-9.1-1.2C15.8,971.6,14.9,971.2,14.2,970.7z M14.2,978.5v5c0,0,0,0,0,0.1c0,0.3,0.2,0.6,0.7,1c0.5,0.4,1.4,0.8,2.5,1.2
	c2.2,0.7,5.2,1.2,8.6,1.2c0.8,0,1.5,0,2.2-0.1v-2.1c0-0.4,0.3-0.7,0.6-0.7l9-1.3v-4.1c-0.7,0.5-1.6,0.9-2.7,1.3
	c-2.4,0.8-5.6,1.2-9.1,1.2s-6.7-0.5-9.1-1.2C15.8,979.4,14.9,979,14.2,978.5z M40.8,983.7l-5.5,0.8v3.9h5.5V983.7z M33.8,984.7
	l-4.1,0.6v3.1h4.1V984.7z M14.2,985.9v5.4c0,2.2,5.3,4.1,11.8,4.1c2.3,0,4.4-0.2,6.3-0.6l-3.4-0.5c-0.4-0.1-0.6-0.4-0.6-0.7v-5.2
	c-0.7,0-1.5,0.1-2.2,0.1c-3.5,0-6.7-0.5-9.1-1.2C15.8,986.8,14.9,986.4,14.2,985.9z M29.7,989.8v3l4.1,0.6v-3.6H29.7z M35.3,989.8
	v3.9l5.5,0.8v-4.7H35.3z"/>
</svg>
