<?xml version="1.0" encoding="utf-8"?>
<!-- Generator: Adobe Illustrator 24.0.2, SVG Export Plug-In . SVG Version: 6.00 Build 0)  -->
<svg version="1.1" id="Layer_1" xmlns="http://www.w3.org/2000/svg" xmlns:xlink="http://www.w3.org/1999/xlink" x="0px" y="0px"
	 width="55px" height="55px" viewBox="0 0 55 55" style="enable-background:new 0 0 55 55;" xml:space="preserve">
<style type="text/css">
	.st0{fill:#FFFFFF;}
	.st1{fill:url(#SVGID_1_);}
</style>
<circle class="st0" cx="27.5" cy="27.5" r="27"/>
<linearGradient id="SVGID_1_" gradientUnits="userSpaceOnUse" x1="8.75" y1="27.5" x2="46.25" y2="27.5">
	<stop  offset="0" style="stop-color:#3F34FF"/>
	<stop  offset="1" style="stop-color:#00E97E"/>
</linearGradient>
<path class="st1" d="M14.8,36.2h-1.3c0,1.5,1.2,2.7,2.7,2.7h4v-1.3h-4C15.4,37.5,14.8,36.9,14.8,36.2z M38.2,14.1H8.8v18.8h29.5
	V14.1z M19.3,27.7l-1,0.9l-4-4.7c-0.2-0.3-0.2-0.6,0-0.9l4-4.7l1,0.9l-3.6,4.3L19.3,27.7z M22.1,29.1l-1.3-0.5l4-10.7l1.3,0.5
	L22.1,29.1z M32.7,24L28,28.6L27,27.7l4.2-4.2L27,19.3l0.9-0.9l4.7,4.7C32.9,23.3,32.9,23.7,32.7,24L32.7,24z M24.2,38.9
	c0,0.4-0.3,0.7-0.7,0.7s-0.7-0.3-0.7-0.7v-4.7h-1.3v6.7h4v-6.7h-1.3V38.9z M13.4,34.2h1.3v0.7h-1.3V34.2z M37.1,38.9l-2.2,1.7v0.3
	h6.7v-0.3l-2.2-1.7H37.1z M39.6,28.2v5.4c0,0.4-0.3,0.7-0.7,0.7h-8.7v4.7h4.7l1.6-1.2c0.1-0.1,0.3-0.1,0.4-0.1h2.7
	c0.1,0,0.3,0,0.4,0.1l1.6,1.2h4.7V28.2H39.6z M26.8,37.5h2v1.3h-2V37.5z"/>
</svg>
