<?xml version="1.0" encoding="utf-8"?>
<!-- Generator: Adobe Illustrator 24.0.2, SVG Export Plug-In . SVG Version: 6.00 Build 0)  -->
<svg version="1.1" id="Layer_1" xmlns="http://www.w3.org/2000/svg" xmlns:xlink="http://www.w3.org/1999/xlink" x="0px" y="0px"
	 viewBox="0 0 46 46" style="enable-background:new 0 0 46 46;" xml:space="preserve">
<style type="text/css">
	.st0{fill:url(#SVGID_1_);}
</style>
<linearGradient id="SVGID_1_" gradientUnits="userSpaceOnUse" x1="0.5" y1="23" x2="45.5" y2="23">
	<stop  offset="0" style="stop-color:#599491"/>
	<stop  offset="1" style="stop-color:#264749"/>
</linearGradient>
<path class="st0" d="M17.7,26.4c0,0.2,0,0.4,0,0.5c0,4.8,0,9.7,0,14.5c0,0.9-0.2,1.1-1.1,1.1c-2.1,0-4.1,0-6.2,0c-0.8,0-1-0.3-1-1
	c0-5.9,0-11.7,0-17.6c0-0.3-0.1-0.5-0.3-0.7C8.4,22.5,8,21.6,8,20.5c0-3,0-6.1,0-9.1c0-0.4-0.1-0.5-0.5-0.6
	c-2.1-0.4-4.1-0.8-6.1-1.3C0.6,9.4,0.5,9.2,0.5,8.4c0-0.4,0-0.7,0-1.1c0-0.5,0.2-0.7,0.7-0.9c2-0.6,4-1.1,6-1.7
	C12.2,3.4,17.3,2,22.4,0.6c0.4-0.1,0.8-0.1,1.2,0c7,1.9,14,3.9,21.1,5.8c0.8,0.2,0.9,0.3,0.9,1.1c0,0.4,0,0.7,0,1.1
	c0,0.4-0.2,0.7-0.6,0.8c-0.8,0.2-1.5,0.3-2.3,0.5c0,0.9,0,1.7,0,2.6c0,0.2,0,0.4,0,0.6c-0.1,0.6,0,1,0.6,1.4c0.6,0.3,0.8,1,0.8,1.7
	c0,1,0,1.9,0,2.9c0,0.5-0.3,0.8-0.8,0.8c-0.9,0-1.9,0-2.8,0c-0.6,0-0.8-0.3-0.8-0.8c0-1,0-1.9,0-2.9c0-0.9,0.5-1.6,1.2-2
	c0.1-0.1,0.2-0.2,0.2-0.3c0-1.2,0-2.4,0-3.6c-1,0.2-1.9,0.4-2.8,0.6c-0.1,0-0.2,0.2-0.2,0.4c0,1.1,0,2.2,0,3.4c0,1.9,0,3.9,0,5.8
	c0,1.2-0.4,2.1-1.3,2.8c-0.6,0.5-1.4,0.9-2.1,1.4c-0.3,0.1-0.4,0.3-0.4,0.6c0,3.9,0,7.8,0,11.7c0,0.3-0.1,0.7-0.2,1
	c-0.7,1.4-1.3,2.7-2,4c-0.2,0.3-0.4,0.6-0.8,0.6c-0.4,0-0.6-0.3-0.7-0.6c-0.7-1.4-1.4-2.7-2-4c-0.1-0.3-0.2-0.6-0.2-1
	c0-3.3,0-6.7,0-10c0-0.1,0-0.3,0-0.5c-0.7,0.1-1.4,0.1-2.1,0.2c-0.1,0-0.1,0.1-0.2,0.2c0,0.1,0,0.2,0,0.4c0,4.7,0,9.5,0,14.2
	c0,0.4-0.1,0.7-0.4,1.1c-0.7,0.8-1.3,1.7-1.9,2.6c-0.5,0.6-1,0.6-1.4,0c-0.7-0.9-1.3-1.8-2-2.6c-0.2-0.3-0.3-0.6-0.3-1
	c0-4.8,0-9.5,0-14.3c0-0.4-0.1-0.6-0.5-0.6C18.9,26.5,18.4,26.4,17.7,26.4z M9.5,11.2c0,0.1,0,0.2,0,0.2c0,3.1,0,6.1,0,9.2
	c0,0.5,0.2,1,0.6,1.3c0.5,0.4,1.1,0.9,1.7,1.2c1.8,0.9,3.8,1.4,5.8,1.7c2.8,0.4,5.5,0.5,8.3,0.3c2.3-0.2,4.7-0.5,6.9-1.3
	c1.1-0.4,2.3-0.9,3.1-1.8c0.5-0.4,0.7-1,0.7-1.6c0-2.9,0-5.8,0-8.8c0-0.1,0-0.3,0-0.4c-0.1,0-0.2,0-0.2,0c-4,0.8-8.1,1.7-12.1,2.5
	c-0.5,0.1-1,0.2-1.5,0.2c-3.3-0.6-6.5-1.3-9.8-2C11.8,11.7,10.7,11.4,9.5,11.2z M42.5,8.4c0.4-0.1,0.7-0.1,1.1-0.2
	C43.8,8.1,43.9,8,44,8c-0.1-0.1-0.2-0.2-0.4-0.3C36.9,5.8,30.1,4,23.4,2.1c-0.2-0.1-0.5-0.1-0.8,0C15.9,4,9.1,5.8,2.4,7.7
	C2.2,7.7,2.1,7.9,2,8C2.1,8,2.2,8.1,2.4,8.2c6.5,1.4,13.1,2.7,19.6,4.1c0.5,0.1,1,0.2,1.4,0.1c5.1-1,10.2-2.1,15.3-3.2
	C39.5,9,40.2,8.9,41,8.7c0-0.3,0-0.5,0-0.7c0.5,0,1,0,1.5,0C42.5,8.1,42.5,8.2,42.5,8.4z M16.2,26.2c-1.8-0.6-3.5-1.1-5.2-1.7
	c0,0.4,0,0.9,0,1.4c1,0,2,0,3,0c0,0.5,0,1,0,1.5c-1,0-2,0-2.9,0c0,1.3,0,2.5,0,3.8c0.5,0,1,0,1.5,0c0,0.5,0,1,0,1.5
	c-0.5,0-1,0-1.4,0c0,1.3,0,2.5,0,3.8c1,0,2,0,2.9,0c0,0.5,0,1,0,1.5c-1,0-2,0-2.9,0c0,1,0,2,0,3c1.7,0,3.5,0,5.2,0
	C16.2,36,16.2,31.1,16.2,26.2z M24.5,39.1c0-2.4,0-4.7,0-7.1c-1,0-2,0-3,0c0,2.4,0,4.7,0,7.1c0.7-0.5,0.8-0.5,1.5,0
	C23.7,38.6,23.8,38.6,24.5,39.1z M32.7,36.5c0-3.7,0-7.4,0-11.1c-1,0.3-2,0.5-3,0.8c0,3.4,0,6.9,0,10.3
	C30.8,36.5,31.7,36.5,32.7,36.5z M23,43.5c0.5-0.7,1-1.3,1.4-1.9c0.1-0.1,0.1-0.3,0-0.4c-0.2-0.3-0.4-0.5-0.5-0.6
	C23.5,40.8,23.2,41,23,41c-0.3,0-0.5-0.2-0.8-0.4c-0.2,0.2-0.4,0.4-0.5,0.6c-0.1,0.1-0.1,0.3,0,0.4C22,42.2,22.5,42.8,23,43.5z
	 M24.5,26.7c-1,0-2,0-3,0c0,0.5,0,1,0,1.5c1,0,2,0,3,0C24.5,27.7,24.5,27.2,24.5,26.7z M42.5,18.5c0-0.8,0-1.6,0-2.3
	c0-0.4-0.4-0.7-0.7-0.7c-0.3,0-0.7,0.3-0.7,0.6c0,0.8,0,1.6,0,2.4C41.5,18.5,42,18.5,42.5,18.5z M21.5,30.5c1,0,2,0,3,0
	c0-0.2,0-0.5,0-0.7c-1,0-2,0-3,0C21.5,30,21.5,30.2,21.5,30.5z M31.3,40c0.4-0.7,0.7-1.4,1-2c-0.7,0-1.3,0-2,0
	C30.6,38.7,30.9,39.3,31.3,40z"/>
</svg>
