<?xml version="1.0" encoding="utf-8"?>
<!-- Generator: Adobe Illustrator 24.0.1, SVG Export Plug-In . SVG Version: 6.00 Build 0)  -->
<svg version="1.1" id="Layer_1" xmlns="http://www.w3.org/2000/svg" xmlns:xlink="http://www.w3.org/1999/xlink" x="0px" y="0px"
	 viewBox="0 0 46 46" style="enable-background:new 0 0 46 46;" xml:space="preserve">
<style type="text/css">
	.st0{fill:#FFFFFF;}
</style>
<g>
	<path class="st0" d="M45.2,38.7l-1.1-1c-0.2-0.2-0.4-0.6-0.4-1v-1.4c0-3.1-2-5.7-4.9-6.6c0.5-1.1,0.2-2.3-0.8-3l2.4-3
		c0.1-0.2,0.2-0.5,0.1-0.8s-0.4-0.5-0.7-0.5c-0.5,0-0.5-0.1-0.6-0.1c-0.5-0.5-1.1-0.7-1.7-0.6c-0.6-0.1-1.2,0.1-1.7,0.6
		c-0.1,0.1-0.1,0.1-0.6,0.1s-0.5-0.1-0.6-0.1c-0.5-0.5-1.1-0.7-1.7-0.6c-0.6-0.1-1.2,0.1-1.7,0.6c-0.1,0.1-0.1,0.1-0.6,0.1
		c-0.3,0-0.5,0.1-0.7,0.5c-0.1,0.2-0.1,0.6,0.1,0.8l2.4,3c-0.6,0.5-1,1.2-1,1.9c0,0.4,0.1,0.8,0.3,1.1c-1.4,0.5-2.7,1.4-3.6,2.6
		c-0.2-0.1-0.5-0.2-0.8-0.3c0.5-1.1,0.2-2.3-0.8-3l2.4-3c0.1-0.2,0.2-0.5,0.1-0.8c-0.2-0.2-0.4-0.5-0.7-0.5c-0.5,0-0.5-0.1-0.6-0.1
		c-0.5-0.5-1.1-0.7-1.7-0.6c-0.7,0-1.3,0.1-1.9,0.5c-0.1,0.1-0.3,0.1-0.4,0.1v-2.1l0.5,0.1c0.3,0.1,0.5,0.1,0.8,0.1
		c2.2,0,4.2-1.4,5-3.5l0.5-1.4c0.1-0.2,0.1-0.5-0.1-0.7c-0.1-0.2-0.3-0.3-0.5-0.4l-1.4-0.2c-1.8-0.3-3.7,0.4-4.9,1.8v-2.2
		c4.2-0.5,7.3-4.2,6.8-8.4c-0.5-4.2-4-7.2-8.2-6.8s-7.3,4.2-6.8,8.4c0.4,3.6,3.2,6.5,6.8,6.8v2.2c-1.2-1.4-3.1-2.1-4.9-1.8l-1.5,0.2
		c-0.2,0.1-0.5,0.1-0.5,0.4c-0.1,0.2-0.1,0.5-0.1,0.7l0.5,1.4c0.8,2.1,2.9,3.5,5.1,3.5c0.3,0,0.5,0,0.8-0.1l0.5-0.1v2.1
		c-0.1-0.1-0.3-0.1-0.4-0.1c-0.5-0.3-1.2-0.5-1.9-0.5c-0.6-0.1-1.2,0.1-1.7,0.6c-0.1,0.1-0.1,0.1-0.6,0.1c-0.3,0-0.5,0.1-0.7,0.5
		c-0.1,0.2-0.1,0.6,0.1,0.8l2.4,3c-1,0.6-1.3,1.9-0.8,3c-0.3,0.1-0.5,0.1-0.8,0.3c-0.8-1.2-2.2-2.2-3.6-2.6c0.1-0.3,0.3-0.7,0.3-1.1
		c0-0.8-0.4-1.4-1-1.9l2.4-3c0.1-0.2,0.2-0.5,0.1-0.8c-0.1-0.2-0.4-0.5-0.7-0.5c-0.5,0-0.5-0.1-0.6-0.1c-0.5-0.5-1.1-0.7-1.7-0.6
		c-0.6-0.1-1.2,0.1-1.7,0.6c0,0-0.1,0.1-0.6,0.1s-0.5-0.1-0.6-0.1c-0.5-0.5-1.1-0.7-1.7-0.6c-0.6-0.1-1.2,0.1-1.7,0.6
		c-0.1,0.1-0.1,0.1-0.6,0.1c-0.3,0-0.5,0.1-0.7,0.5c-0.2,0.2-0.1,0.6,0.1,0.8l2.4,3c-1,0.6-1.3,1.9-0.8,3c-2.9,0.9-4.9,3.5-4.9,6.6
		v1.4c0,0.4-0.1,0.7-0.4,1l-1,1C0.3,39.2,0,40,0,40.8c0,1.6,1.3,2.9,2.9,2.9h8.7C11.9,45,13,46,14.5,46h17.1c1.4,0,2.5-1,2.9-2.3
		h8.7c1.6,0,2.9-1.3,2.9-2.9C46,40,45.7,39.3,45.2,38.7z M24.2,19.7c0.7-1.7,2.4-2.7,4.2-2.4l0.5,0.1l-0.1,0.5
		c-0.7,1.7-2.4,2.7-4.2,2.4l-0.5-0.1L24.2,19.7z M21.5,20.2c-1.8,0.3-3.5-0.8-4.2-2.4l-0.1-0.5l0.5-0.1c1.8-0.3,3.5,0.8,4.2,2.4
		l0.1,0.5L21.5,20.2z M32,22.7c0.1-0.1,0.2-0.1,0.4-0.3c0.1-0.1,0.1-0.1,0.6-0.1c0.5,0,0.5,0.1,0.6,0.1c0.5,0.5,1.1,0.7,1.7,0.6
		c0.6,0.1,1.2-0.1,1.7-0.6c0.1-0.1,0.1-0.1,0.6-0.1s0.5,0.1,0.6,0.1c0.1,0.1,0.2,0.2,0.4,0.3l-2.2,2.7h-2.3L32,22.7z M37.6,27.7
		c0,0.5-0.3,0.8-0.8,0.8h-3.1c-0.5,0-0.8-0.3-0.8-0.8s0.3-0.8,0.8-0.8h3.1C37.2,26.9,37.6,27.2,37.6,27.7z M16.9,7.7
		c0-3.4,2.7-6.1,6.1-6.1s6.1,2.8,6.1,6.1s-2.7,6.1-6.1,6.1C19.6,13.8,16.9,11.1,16.9,7.7z M19,25c0.1-0.1,0.2-0.1,0.4-0.3
		c0.1-0.1,0.1-0.1,0.6-0.1c0.4,0,0.8,0.1,1.2,0.3c1.2,0.6,2.6,0.6,3.8,0c0.4-0.2,0.8-0.3,1.2-0.3c0.5,0,0.5,0.1,0.6,0.1
		c0.1,0.1,0.2,0.2,0.4,0.3L25,27.7h-3.9L19,25z M26.1,29.9c0,0.5-0.3,0.8-0.8,0.8h-4.6c-0.5,0-0.8-0.3-0.8-0.8
		c0-0.5,0.3-0.8,0.8-0.8h4.6C25.7,29.2,26.1,29.5,26.1,29.9z M7.4,22.7c0.1-0.1,0.2-0.1,0.4-0.3c0.1-0.1,0.1-0.1,0.6-0.1
		c0.5,0,0.5,0.1,0.6,0.1c0.5,0.5,1.1,0.7,1.7,0.6c0.6,0.1,1.2-0.1,1.7-0.6c0.1-0.1,0.1-0.1,0.6-0.1s0.5,0.1,0.6,0.1
		c0.1,0.1,0.2,0.2,0.4,0.3l-2.2,2.7H9.6L7.4,22.7z M13,27.7c0,0.5-0.3,0.8-0.8,0.8H9.2c-0.5,0-0.8-0.3-0.8-0.8s0.3-0.8,0.8-0.8h3.1
		C12.7,26.9,13,27.2,13,27.7z M11.7,42.2H2.9c-0.8,0-1.4-0.6-1.4-1.4c0-0.4,0.1-0.8,0.4-1l1-1c0.5-0.5,0.8-1.3,0.8-2.1v-1.4
		c0-3,2.4-5.4,5.4-5.4h3.1c1.7,0,3.3,0.8,4.3,2.2c-1.8,1.3-2.7,3.4-2.7,5.5v1.4c0,0.4-0.1,0.7-0.4,1l-1,1
		C12.1,41.3,11.8,41.8,11.7,42.2z M31.5,44.6H14.4c-0.8,0-1.4-0.6-1.4-1.4c0-0.4,0.1-0.8,0.4-1l1-1c0.5-0.5,0.8-1.3,0.8-2.1v-1.4
		c0-3,2.4-5.4,5.4-5.4h4.6c3,0,5.4,2.4,5.4,5.4v1.4c0,0.8,0.3,1.6,0.8,2.1l1,1c0.5,0.5,0.5,1.4,0,2C32.3,44.4,31.9,44.6,31.5,44.6z
		 M43,42.2h-8.7c-0.1-0.5-0.4-0.8-0.7-1.2L32.6,40c-0.2-0.2-0.4-0.6-0.4-1v-1.4c0-2.2-1-4.2-2.7-5.5c1-1.4,2.6-2.2,4.3-2.2h3.1
		c3,0,5.4,2.4,5.4,5.4v1.4c0,0.8,0.3,1.6,0.8,2.1l1,1c0.5,0.5,0.5,1.4,0,2C43.8,42.1,43.4,42.2,43,42.2z"/>
	<path class="st0" d="M23.8,12.3v-0.8c1.3,0,2.3-1,2.3-2.3s-1-2.3-2.3-2.3h-1.6c-0.5,0-0.8-0.3-0.8-0.8s0.3-0.8,0.8-0.8h1.6
		c0.5,0,0.8,0.3,0.8,0.8h1.5c0-1.3-1-2.3-2.3-2.3V3.1h-1.6v0.8c-1.3,0-2.3,1-2.3,2.3s1,2.3,2.3,2.3h1.6c0.5,0,0.8,0.3,0.8,0.8
		c0,0.5-0.3,0.8-0.8,0.8h-1.6c-0.5,0-0.8-0.3-0.8-0.8h-1.6c0,1.3,1,2.3,2.3,2.3v0.8H23.8z"/>
	<path class="st0" d="M7.7,12.3h0.8v5.4H10v-6.1c0-0.3-0.2-0.6-0.5-0.7l1.2-1.2l1.2,1.2c-0.3,0.1-0.5,0.4-0.5,0.7v6.1H13v-5.4h0.8
		c0.5,0,0.8-0.3,0.8-0.8c0-0.2-0.1-0.4-0.2-0.5l-3.1-3.1c-0.3-0.3-0.8-0.3-1.1,0L7.2,11c-0.3,0.3-0.3,0.8,0,1.1
		C7.3,12.2,7.4,12.3,7.7,12.3z"/>
	<path class="st0" d="M32.2,12.3H33v5.4h1.6v-6.1c0-0.3-0.2-0.6-0.5-0.7l1.2-1.2l1.2,1.2c-0.3,0.1-0.5,0.4-0.5,0.7v6.1h1.6v-5.4h0.8
		c0.5,0,0.8-0.3,0.8-0.8c0-0.2-0.1-0.4-0.2-0.5l-3.1-3.1c-0.3-0.3-0.8-0.3-1.1,0L31.8,11c-0.3,0.3-0.3,0.8,0,1.1
		C31.8,12.2,32,12.3,32.2,12.3z"/>
</g>
</svg>
