<?xml version="1.0" encoding="utf-8"?>
<!-- Generator: Adobe Illustrator 24.0.2, SVG Export Plug-In . SVG Version: 6.00 Build 0)  -->
<svg version="1.1" id="Capa_1" xmlns="http://www.w3.org/2000/svg" xmlns:xlink="http://www.w3.org/1999/xlink" x="0px" y="0px"
	 width="43px" height="43px" viewBox="0 0 43 43" style="enable-background:new 0 0 43 43;" xml:space="preserve">
<style type="text/css">
	.st0{fill:#36AFAD;}
	.st1{fill:#195C85;}
	.st2{fill:#CFDFE8;}
	.st3{fill:#FDBD40;}
</style>
<rect x="0.5" y="8.3" class="st0" width="7.1" height="19.9"/>
<path class="st1" d="M14.7,4.1H7.6v24.2H14c0-1.5,0.2-3,0.7-4.4L14.7,4.1L14.7,4.1z"/>
<path class="st0" d="M28.8,7.8c-0.3-0.3-0.7-0.3-1,0l-3.6,3.6l1,1l3.1-3.1l2.3,2.3c0.3,0.3,0.7,0.3,1,0l5.2-5.2v3.3h1.4v-5h0
	c0-0.4-0.3-0.7-0.7-0.7c0,0,0,0,0,0h-5v1.4h3.3l-4.7,4.7L28.8,7.8z"/>
<g>
	<rect x="1.2" y="31.8" class="st1" width="11.4" height="1.4"/>
	<rect x="1.2" y="34.7" class="st1" width="11.4" height="1.4"/>
	<rect x="1.2" y="37.5" class="st1" width="11.4" height="1.4"/>
</g>
<path class="st2" d="M21.9,15.6V0.5h-7.1v23.3C15.9,20.3,18.5,17.3,21.9,15.6z"/>
<path class="st1" d="M29,14c-0.2,0-0.5,0-0.7,0c-0.2,0-0.5,0-0.7,0v14.2c0,0.4,0.3,0.7,0.7,0.7h14.2c0-0.2,0-0.5,0-0.7s0-0.5,0-0.7
	C42.1,20.2,36.3,14.4,29,14z"/>
<path class="st3" d="M41.1,29H28.3c-0.4,0-0.7-0.3-0.7-0.7V14c-2,0.1-3.9,0.6-5.7,1.5c-7,3.5-9.8,12.1-6.3,19.1s12.1,9.8,19.1,6.3
	c4.6-2.3,7.5-6.9,7.8-12L41.1,29L41.1,29z"/>
</svg>
