<?xml version="1.0" encoding="utf-8"?>
<!-- Generator: Adobe Illustrator 24.0.2, SVG Export Plug-In . SVG Version: 6.00 Build 0)  -->
<svg version="1.1" id="Layer_1" xmlns="http://www.w3.org/2000/svg" xmlns:xlink="http://www.w3.org/1999/xlink" x="0px" y="0px"
	 viewBox="0 0 36 45" style="enable-background:new 0 0 36 45;" xml:space="preserve">
<style type="text/css">
	.st0{fill:url(#SVGID_1_);}
</style>
<linearGradient id="SVGID_1_" gradientUnits="userSpaceOnUse" x1="0.5" y1="22.5" x2="35.5" y2="22.5">
	<stop  offset="0" style="stop-color:#8360C3"/>
	<stop  offset="1" style="stop-color:#2EBF91"/>
</linearGradient>
<path class="st0" d="M19.1,0.4c0.7,0.1,1.3,0.2,2,0.3c4.3,0.8,7.7,2.9,10.5,6.2c2,2.4,3.3,5.2,3.7,8.3c0.9,6.9-1.4,12.6-7,16.8
	c-2.5,1.9-5.4,2.9-8.5,3.3c-0.3,0-0.7,0-0.8,0.1c-0.1,0.2-0.1,0.6-0.1,0.9c0,0.3,0,0.6,0,0.9c0.5,0.1,1.1-0.1,1.6,0.3
	c0.4,0.4,0.2,1,0.3,1.5c0.5,0.1,1.1-0.1,1.5,0.3c0.5,0.4,0.2,1,0.3,1.6c0.1,0,0.3,0,0.4,0c2.6,0,5.1,0,7.7,0c0.5,0,0.9,0.2,1,0.7
	c0.2,0.6-0.3,1.2-1,1.2c-2.6,0-5.2,0-7.7,0c-0.1,0-0.3,0-0.5,0c0,0.3,0,0.6,0,0.8c0,0.6-0.4,1-1,1c-2.4,0-4.8,0-7.2,0
	c-0.6,0-1-0.4-1-1c0-0.3,0-0.5,0-0.8c-0.2,0-0.3,0-0.5,0c-2.6,0-5.1,0-7.7,0c-0.4,0-0.7-0.1-0.9-0.5C4,41.7,4.4,41,5.1,40.9
	c0.5,0,1.1,0,1.6,0c2.1,0,4.2,0,6.2,0c0.1,0,0.3,0,0.4,0c0.1-0.5-0.1-1.1,0.3-1.6c0.4-0.5,1-0.2,1.6-0.3c0.1-0.5-0.1-1.1,0.3-1.5
	c0.4-0.4,1-0.2,1.6-0.3c0-0.6,0-1.1,0-1.7c0-0.1-0.2-0.2-0.4-0.2c-1.2-0.2-2.4-0.3-3.5-0.7C7,32.8,3,28.7,1.2,22.6
	c-0.5-1.5-0.7-3.1-0.7-4.7c0.1-8.5,5.8-15.1,13.2-17c1-0.2,2-0.3,2.9-0.5c0.1,0,0.2,0,0.3-0.1C17.7,0.4,18.4,0.4,19.1,0.4z
	 M17.1,9.6c-2,0-4,0-6.1,0C10.2,12,9.8,14.4,9.8,17c2.5,0,4.9,0,7.3,0C17.1,14.5,17.1,12.1,17.1,9.6z M26.3,17c0-0.1,0-0.2,0-0.2
	c-0.1-2.4-0.5-4.7-1.2-6.9c-0.1-0.2-0.2-0.2-0.4-0.2c-1.8,0-3.6,0-5.4,0c-0.1,0-0.2,0-0.3,0c0,2.5,0,4.9,0,7.3
	C21.4,17,23.8,17,26.3,17z M9.7,18.8c0.1,2.5,0.5,5,1.3,7.3c2,0,4,0,6.1,0c0-2.5,0-4.9,0-7.3C14.6,18.8,12.2,18.8,9.7,18.8z
	 M19,26.2c0.1,0,0.1,0,0.2,0c1.9,0,3.7,0,5.6,0c0.2,0,0.3-0.1,0.3-0.3c0.6-1.8,0.9-3.6,1.1-5.5c0-0.5,0.1-1.1,0.1-1.6
	c-2.5,0-4.9,0-7.3,0C19,21.3,19,23.7,19,26.2z M33.7,17c-0.2-2.7-1-5.2-2.4-7.3c-1.5,0-2.9,0-4.3,0c0.7,2.4,1.1,4.9,1.2,7.3
	C30,17,31.8,17,33.7,17z M9.1,9.6c-0.1,0-0.2,0-0.3,0c-1.2,0-2.4,0-3.6,0c-0.3,0-0.4,0.1-0.6,0.3c-0.9,1.6-1.6,3.2-1.9,5
	c-0.1,0.7-0.2,1.4-0.3,2.1c1.9,0,3.7,0,5.5,0C8,14.5,8.3,12,9.1,9.6z M7.9,18.8c-1.9,0-3.7,0-5.5,0c0.1,0.7,0.2,1.3,0.3,1.9
	c0.3,1.9,1,3.7,2,5.3c0.1,0.1,0.2,0.2,0.3,0.2c1.2,0,2.5,0,3.7,0c0.1,0,0.3,0,0.4,0C8.3,23.8,8,21.3,7.9,18.8z M28.1,18.8
	c-0.1,2.5-0.4,4.9-1.2,7.4c0.2,0,0.3,0,0.5,0c1.2,0,2.3,0,3.5,0c0.3,0,0.4-0.1,0.6-0.3c0.9-1.5,1.5-3,1.8-4.7
	c0.2-0.8,0.2-1.6,0.4-2.4C31.8,18.8,30,18.8,28.1,18.8z M17.1,2.4c-1.6,0-4.8,3.2-5.3,5.3c1.7,0,3.5,0,5.3,0
	C17.1,5.9,17.1,4.2,17.1,2.4z M19,7.7c1.8,0,3.5,0,5.3,0c-1.2-2.4-2.6-4.6-5.3-5.4C19,4.2,19,5.9,19,7.7z M17.1,33.5
	c0-1.9,0-3.6,0-5.4c-1.8,0-3.5,0-5.3,0C13,30.4,14.3,32.6,17.1,33.5z M19,33.4c1.9-0.3,4.2-2.7,5.3-5.3c-1.8,0-3.5,0-5.3,0
	C19,29.8,19,31.6,19,33.4z M15.3,42.7c1.9,0,3.7,0,5.5,0c0-0.6,0-1.2,0-1.8c-0.5-0.1-1.1,0.1-1.6-0.3c-0.4-0.4-0.2-1-0.3-1.5
	c-0.6,0-1.2,0-1.8,0c-0.1,0.5,0.1,1.1-0.3,1.6c-0.4,0.4-1,0.2-1.5,0.3C15.3,41.6,15.3,42.1,15.3,42.7z M12.1,3.4
	c-2.3,0.9-4.3,2.4-6,4.4c1.2,0,2.3,0,3.4,0c0.1,0,0.3-0.1,0.3-0.2c0.2-0.3,0.3-0.7,0.5-1C10.9,5.4,11.5,4.4,12.1,3.4z M29.9,7.8
	c-1.7-2-3.8-3.5-6.1-4.4c1,1.3,1.9,2.7,2.5,4.3c0,0.1,0.1,0.1,0.2,0.1C27.6,7.8,28.7,7.8,29.9,7.8z M12.2,32.4
	c-1-1.3-1.8-2.7-2.5-4.2c0-0.1-0.2-0.2-0.3-0.2c-0.6,0-1.1,0-1.7,0c-0.5,0-1.1,0-1.7,0C7.8,30,9.8,31.5,12.2,32.4z M30,28
	c-1.2,0-2.2,0-3.3,0c-0.3,0-0.4,0.1-0.5,0.3c-0.6,1.4-1.3,2.7-2.3,3.9c0,0-0.1,0.1-0.1,0.3C26.2,31.4,28.2,30,30,28z"/>
</svg>
