<?xml version="1.0" encoding="utf-8"?>
<!-- Generator: Adobe Illustrator 24.0.2, SVG Export Plug-In . SVG Version: 6.00 Build 0)  -->
<svg version="1.1" id="Layer_1" xmlns="http://www.w3.org/2000/svg" xmlns:xlink="http://www.w3.org/1999/xlink" x="0px" y="0px"
	 viewBox="0 0 21.5 17.5" style="enable-background:new 0 0 21.5 17.5;" xml:space="preserve">
<style type="text/css">
	.st0{fill:#FFFFFF;}
</style>
<g>
	<path class="st0" d="M10.5,2.2v-1c0-0.5-0.5-1-1.1-1H6.6c-0.6,0-1.1,0.4-1.1,1v1H0.3V6h2.5V5.4h1.4V6H12V5.4h1.4V6h2.5V2.2H10.5z
		 M6.3,1.2c0-0.2,0.1-0.3,0.4-0.3h2.8c0.2,0,0.4,0.1,0.4,0.3v1H6.3V1.2z"/>
	<polygon class="st0" points="20.7,6.6 19.8,7.5 18.3,6.1 19.3,5.2 	"/>
	<polygon class="st0" points="15.8,7.5 15.8,6.7 13.3,6.7 13.3,7.3 11.9,7.3 11.9,6.7 4.1,6.7 4.1,7.3 2.7,7.3 2.7,6.7 0.3,6.7 
		0.3,12.4 10.3,12.4 	"/>
	<polygon class="st0" points="20.8,7.5 19.8,8.4 17.3,6.1 16.8,6.6 17.3,7.1 9.3,14.3 10.8,15.6 18.7,8.4 19.2,8.8 16.8,11.1 
		17.3,11.6 21.3,7.9 	"/>
	<polygon class="st0" points="7.5,17.3 10.3,16.1 8.8,14.7 	"/>
</g>
</svg>
