<?xml version="1.0" encoding="utf-8"?>
<!-- Generator: Adobe Illustrator 24.0.2, SVG Export Plug-In . SVG Version: 6.00 Build 0)  -->
<svg version="1.1" id="Layer_1" xmlns="http://www.w3.org/2000/svg" xmlns:xlink="http://www.w3.org/1999/xlink" x="0px" y="0px"
	 viewBox="0 0 49 49" style="enable-background:new 0 0 49 49;" xml:space="preserve">
<style type="text/css">
	.st0{fill:#F5E7BA;}
	.st1{fill:#D3C7A1;}
	.st2{fill:#CDCDCD;}
	.st3{fill:#E06661;}
	.st4{fill:#C0F5F9;}
	.st5{fill:#85BC94;}
	.st6{fill:#FECE2F;}
	.st7{fill:#55785F;}
	.st8{fill:#6B9777;}
</style>
<g>
	<path class="st0" d="M30.7,0.4l17.8,6.1L36,40.9l-17.8-6.1L30.7,0.4z"/>
	<path class="st1" d="M28.1,7.5l0.6-1.6l0.8,0.3l-0.6,1.6L28.1,7.5z"/>
	<path class="st1" d="M43.7,12.8l-1.5-0.5l0.6-1.6l1.5,0.5L43.7,12.8z M40.7,11.8l-1.5-0.5l0.6-1.6l1.5,0.5L40.7,11.8z M37.8,10.7
		l-1.5-0.5l0.6-1.6l1.5,0.5L37.8,10.7z M34.9,9.8l-1.5-0.5L34,7.7l1.5,0.5L34.9,9.8z M31.9,8.8l-1.5-0.5l0.6-1.6l1.4,0.5L31.9,8.8z"
		/>
	<path class="st1" d="M45.1,13.2l0.6-1.6l0.8,0.3l-0.6,1.6L45.1,13.2z"/>
	<path class="st2" d="M32.5,32.7L29.9,30l-3.7,0.5l0.9-2.3l2.2-1l4.3-11.8l2.2-1l1,2.1l-4.3,11.8l1,2.1L32.5,32.7z"/>
	<path class="st3" d="M37.5,26.5l-3.5-2.9l1.5-3.9l2.9,4.5L37.5,26.5z"/>
	<path class="st3" d="M26.2,22.7l4.6-0.2l1.5-3.9l-5.2,1.7L26.2,22.7z"/>
	<path class="st4" d="M21.6,24.5c0,4.2-3.5,7.4-7.7,7.4s-7.7-3.4-7.7-7.4c0-4.2,3.5-7.4,7.7-7.4C18.1,17.1,21.6,20.3,21.6,24.5z"/>
	<path class="st5" d="M0.5,12h25.7c0.9,0,1.7,0.8,1.7,1.6v33.1c0,1-0.8,1.6-1.7,1.6h-24c-0.9,0-1.7-0.8-1.7-1.6V12z"/>
	<path class="st6" d="M13.8,16.2c-4.7,0-8.5,3.7-8.5,8.3s3.8,8.3,8.5,8.3s8.5-3.7,8.5-8.3C22.4,19.9,18.5,16.2,13.8,16.2z M7,24.5
		c0-0.3,0-0.7,0.1-1L9.2,23c0.3-0.1,0.7-0.1,0.9-0.2c-0.1,1.1-0.1,2.2,0,3.3C9.8,26,9.5,26,9.2,26l-2.2-0.4C7,25.2,7,24.8,7,24.5z
		 M11.9,22.6c1.3-0.1,2.6-0.1,3.9,0c0.1,1.2,0.1,2.5,0,3.7c-1.3,0.1-2.6,0.1-3.9,0C11.8,25.1,11.8,23.9,11.9,22.6z M17.5,22.8
		c0.3,0.1,0.7,0.1,0.9,0.2l2.2,0.4c0.1,0.7,0.1,1.4,0,2L18.5,26c-0.3,0.1-0.7,0.1-0.9,0.2C17.6,25,17.6,24,17.5,22.8z M20,21.6
		l-1.2-0.3c-0.5-0.1-1-0.2-1.6-0.3c-0.1-0.5-0.2-1-0.3-1.5l-0.3-1.1C18.2,19.1,19.3,20.3,20,21.6z M14.8,17.9l0.4,2.1
		c0.1,0.3,0.2,0.6,0.2,1c-1.1-0.1-2.2-0.1-3.5,0c0.1-0.3,0.1-0.6,0.2-1l0.4-2.1C13.4,17.8,14.1,17.8,14.8,17.9z M10.9,18.5l-0.3,1.1
		c-0.1,0.5-0.2,1-0.3,1.5c-0.5,0.1-1,0.2-1.6,0.3l-1.2,0.3C8.4,20.3,9.5,19.1,10.9,18.5L10.9,18.5z M7.7,27.3l1.2,0.3
		c0.5,0.1,1,0.2,1.6,0.3c0.1,0.5,0.2,1,0.3,1.5l0.3,1.1C9.5,29.9,8.4,28.7,7.7,27.3L7.7,27.3z M12.8,31.1L12.3,29
		c-0.1-0.3-0.2-0.6-0.2-1c0.6,0,1.1,0.1,1.7,0.1c0.6,0,1.1,0,1.7-0.1c-0.1,0.3-0.1,0.6-0.2,1L15,31.1C14.1,31.2,13.4,31.2,12.8,31.1
		z M16.7,30.5l0.3-1.1c0.1-0.5,0.2-1,0.3-1.5c0.5-0.1,1-0.2,1.6-0.3l1.2-0.3C19.3,28.7,18.2,29.9,16.7,30.5L16.7,30.5z"/>
	<g>
		<path class="st7" d="M7,39.4h13.7V41H7V39.4z"/>
		<path class="st7" d="M8.7,42.7H19v1.6H8.7V42.7z"/>
		<path class="st7" d="M12.9,36.1h1.7v1.6h-1.7V36.1z"/>
		<path class="st7" d="M9.6,36.1h1.7v1.6H9.6V36.1z"/>
		<path class="st7" d="M16.4,36.1h1.7v1.6h-1.7V36.1z"/>
	</g>
	<path class="st8" d="M23.2,12V8.4c0-0.5-0.3-1-0.7-1.3c-0.4-0.3-0.9-0.4-1.5-0.3L0.5,12H23.2z"/>
</g>
</svg>
