<?xml version="1.0" encoding="UTF-8"?>
<svg xmlns="http://www.w3.org/2000/svg" xmlns:xlink="http://www.w3.org/1999/xlink" width="17pt" height="16pt" viewBox="0 0 17 16" version="1.1">
<g id="surface1">
<path style=" stroke:none;fill-rule:nonzero;fill:rgb(10.196078%,11.372549%,16.078431%);fill-opacity:1;" d="M 8.300781 2.042969 L 8.300781 1.132812 C 8.300781 0.679688 7.90625 0.222656 7.433594 0.222656 L 5.21875 0.222656 C 4.746094 0.222656 4.347656 0.585938 4.347656 1.132812 L 4.347656 2.042969 L 0.238281 2.042969 L 0.238281 5.5 L 2.214844 5.5 L 2.214844 4.953125 L 3.320312 4.953125 L 3.320312 5.5 L 9.488281 5.5 L 9.488281 4.953125 L 10.59375 4.953125 L 10.59375 5.5 L 12.570312 5.5 L 12.570312 2.042969 Z M 4.980469 1.132812 C 4.980469 0.949219 5.058594 0.859375 5.296875 0.859375 L 7.511719 0.859375 C 7.667969 0.859375 7.828125 0.949219 7.828125 1.132812 L 7.828125 2.042969 L 4.980469 2.042969 Z M 4.980469 1.132812 "/>
<path style=" stroke:none;fill-rule:nonzero;fill:rgb(10.196078%,11.372549%,16.078431%);fill-opacity:1;" d="M 16.367188 6.042969 L 15.65625 6.863281 L 14.46875 5.589844 L 15.261719 4.769531 Z M 16.367188 6.042969 "/>
<path style=" stroke:none;fill-rule:nonzero;fill:rgb(10.196078%,11.372549%,16.078431%);fill-opacity:1;" d="M 12.492188 6.863281 L 12.492188 6.136719 L 10.515625 6.136719 L 10.515625 6.679688 L 9.410156 6.679688 L 9.410156 6.136719 L 3.242188 6.136719 L 3.242188 6.679688 L 2.136719 6.679688 L 2.136719 6.136719 L 0.238281 6.136719 L 0.238281 11.320312 L 8.144531 11.320312 Z M 12.492188 6.863281 "/>
<path style=" stroke:none;fill-rule:nonzero;fill:rgb(10.196078%,11.372549%,16.078431%);fill-opacity:1;" d="M 16.445312 6.863281 L 15.65625 7.683594 L 13.679688 5.589844 L 13.285156 6.042969 L 13.679688 6.5 L 7.351562 13.046875 L 8.539062 14.230469 L 14.785156 7.683594 L 15.179688 8.046875 L 13.285156 10.136719 L 13.679688 10.59375 L 16.84375 7.226562 Z M 16.445312 6.863281 "/>
<path style=" stroke:none;fill-rule:nonzero;fill:rgb(10.196078%,11.372549%,16.078431%);fill-opacity:1;" d="M 5.929688 15.777344 L 8.144531 14.683594 L 6.957031 13.410156 Z M 5.929688 15.777344 "/>
</g>
</svg>
