<?xml version="1.0" encoding="UTF-8"?>
<svg xmlns="http://www.w3.org/2000/svg" xmlns:xlink="http://www.w3.org/1999/xlink" width="47pt" height="47pt" viewBox="0 0 47 47" version="1.1">
<defs>
<clipPath id="clip1">
  <path d="M 2 29 L 46 29 L 46 46 L 2 46 Z M 2 29 "/>
</clipPath>
<clipPath id="clip2">
  <path d="M 46.5 23.5 C 46.5 35.925781 36.425781 46 24 46 C 11.574219 46 1.5 35.925781 1.5 23.5 C 1.5 11.074219 11.574219 1 24 1 C 36.425781 1 46.5 11.074219 46.5 23.5 Z M 46.5 23.5 "/>
</clipPath>
</defs>
<g id="surface1">
<path style=" stroke:none;fill-rule:nonzero;fill:rgb(2.745098%,66.27451%,94.117647%);fill-opacity:1;" d="M 46.5 23.5 C 46.5 35.925781 36.425781 46 24 46 C 11.574219 46 1.5 35.925781 1.5 23.5 C 1.5 11.074219 11.574219 1 24 1 C 36.425781 1 46.5 11.074219 46.5 23.5 Z M 46.5 23.5 "/>
<g clip-path="url(#clip1)" clip-rule="nonzero">
<g clip-path="url(#clip2)" clip-rule="nonzero">
<path style=" stroke:none;fill-rule:nonzero;fill:rgb(25.098039%,75.686275%,98.039216%);fill-opacity:1;" d="M 45.601562 29.898438 C 42.898438 39.199219 34.199219 46 24 46 C 13.800781 46 5.101562 39.199219 2.398438 29.898438 Z M 45.601562 29.898438 "/>
</g>
</g>
<path style=" stroke:none;fill-rule:nonzero;fill:rgb(70.196078%,70.588235%,71.372549%);fill-opacity:1;" d="M 13.699219 27.601562 L 9.101562 27.601562 L 9.101562 15.398438 L 13.800781 15.398438 Z M 13.699219 27.601562 "/>
<path style=" stroke:none;fill-rule:nonzero;fill:rgb(85.882353%,87.058824%,89.019608%);fill-opacity:1;" d="M 11.398438 27.601562 L 9.101562 27.601562 L 9.101562 15.398438 L 11.398438 15.398438 Z M 11.398438 27.601562 "/>
<path style=" stroke:none;fill-rule:nonzero;fill:rgb(70.196078%,70.588235%,71.372549%);fill-opacity:1;" d="M 11.398438 10.398438 C 10.800781 10.398438 10.199219 11 10.199219 11.601562 L 10.199219 12.800781 L 12.5 12.800781 L 12.5 11.601562 C 12.601562 11 12 10.398438 11.398438 10.398438 Z M 11.398438 10.398438 "/>
<path style=" stroke:none;fill-rule:nonzero;fill:rgb(85.882353%,87.058824%,89.019608%);fill-opacity:1;" d="M 11.398438 10.398438 C 10.800781 10.398438 10.199219 11 10.199219 11.601562 L 10.199219 12.800781 L 11.398438 12.800781 Z M 11.398438 10.398438 "/>
<path style=" stroke:none;fill-rule:nonzero;fill:rgb(70.196078%,70.588235%,71.372549%);fill-opacity:1;" d="M 9.101562 35 L 11.199219 38.398438 C 11.300781 38.601562 11.601562 38.601562 11.699219 38.398438 L 13.800781 35 Z M 9.101562 35 "/>
<path style=" stroke:none;fill-rule:nonzero;fill:rgb(33.333333%,32.156863%,35.686275%);fill-opacity:1;" d="M 10.800781 37.898438 L 11.101562 38.398438 C 11.199219 38.601562 11.5 38.601562 11.601562 38.398438 L 11.898438 37.898438 Z M 10.800781 37.898438 "/>
<path style=" stroke:none;fill-rule:nonzero;fill:rgb(20.784314%,21.568627%,26.666667%);fill-opacity:1;" d="M 9.101562 27.601562 L 13.800781 27.601562 L 13.800781 35 L 9.101562 35 Z M 9.101562 27.601562 "/>
<path style=" stroke:none;fill-rule:nonzero;fill:rgb(33.333333%,32.156863%,35.686275%);fill-opacity:1;" d="M 9.101562 27.601562 L 11.398438 27.601562 L 11.398438 35 L 9.101562 35 Z M 9.101562 27.601562 "/>
<path style=" stroke:none;fill-rule:nonzero;fill:rgb(20.784314%,21.568627%,26.666667%);fill-opacity:1;" d="M 12.898438 12.898438 L 9.898438 12.898438 C 9.398438 12.898438 9 13.300781 9 13.800781 L 9 15.398438 L 13.699219 15.398438 L 13.699219 13.800781 C 13.699219 13.300781 13.398438 12.898438 12.898438 12.898438 Z M 12.898438 12.898438 "/>
<path style=" stroke:none;fill-rule:nonzero;fill:rgb(33.333333%,32.156863%,35.686275%);fill-opacity:1;" d="M 11.398438 12.898438 L 9.898438 12.898438 C 9.398438 12.898438 9 13.300781 9 13.800781 L 9 15.398438 L 11.300781 15.398438 L 11.300781 12.898438 Z M 11.398438 12.898438 "/>
<path style=" stroke:none;fill-rule:nonzero;fill:rgb(33.333333%,32.156863%,35.686275%);fill-opacity:1;" d="M 9.101562 15.398438 L 9.101562 14.199219 L 7.898438 14.199219 C 7.300781 14.199219 6.699219 14.800781 6.699219 15.398438 L 6.699219 22.601562 C 6.699219 23.300781 7.199219 23.800781 7.898438 23.800781 C 8.601562 23.800781 9.101562 23.199219 9.101562 22.601562 C 9.101562 21.898438 8.601562 21.398438 7.898438 21.398438 L 7.898438 15.5 L 9.101562 15.5 Z M 9.101562 15.398438 "/>
<path style=" stroke:none;fill-rule:nonzero;fill:rgb(96.470588%,53.333333%,12.54902%);fill-opacity:1;" d="M 31.300781 39.101562 L 17.199219 39.101562 C 15.898438 39.101562 14.898438 38 14.898438 36.601562 L 14.898438 12.898438 C 14.898438 11.5 16 10.398438 17.199219 10.398438 L 31.300781 10.398438 C 32.601562 10.398438 33.601562 11.5 33.601562 12.898438 L 33.601562 36.601562 C 33.601562 38 32.601562 39.101562 31.300781 39.101562 Z M 31.300781 39.101562 "/>
<path style=" stroke:none;fill-rule:nonzero;fill:rgb(98.431373%,74.509804%,9.411765%);fill-opacity:1;" d="M 34.800781 36.601562 L 20.800781 36.601562 C 19.5 36.601562 18.5 35.5 18.5 34.101562 L 18.5 10.398438 C 18.5 9 19.601562 7.898438 20.800781 7.898438 L 32.5 7.898438 L 37.199219 12.898438 L 37.199219 34.101562 C 37.199219 35.5 36.101562 36.601562 34.800781 36.601562 Z M 34.800781 36.601562 "/>
<path style=" stroke:none;fill-rule:nonzero;fill:rgb(96.470588%,53.333333%,12.54902%);fill-opacity:1;" d="M 37.199219 12.898438 L 34.898438 12.898438 C 33.601562 12.898438 32.601562 11.800781 32.601562 10.398438 L 32.601562 7.898438 Z M 37.199219 12.898438 "/>
<path style=" stroke:none;fill-rule:nonzero;fill:rgb(96.470588%,53.333333%,12.54902%);fill-opacity:1;" d="M 26 16 L 33 16 C 33.300781 16 33.601562 15.699219 33.601562 15.398438 C 33.601562 15.101562 33.300781 14.800781 33 14.800781 L 26 14.800781 C 25.699219 14.800781 25.398438 15.101562 25.398438 15.398438 C 25.398438 15.699219 25.699219 16 26 16 Z M 26 16 "/>
<path style=" stroke:none;fill-rule:nonzero;fill:rgb(96.470588%,53.333333%,12.54902%);fill-opacity:1;" d="M 22.5 19.101562 L 33 19.101562 C 33.300781 19.101562 33.601562 18.800781 33.601562 18.5 C 33.601562 18.199219 33.300781 17.898438 33 17.898438 L 22.5 17.898438 C 22.199219 17.898438 21.898438 18.199219 21.898438 18.5 C 21.898438 18.800781 22.199219 19.101562 22.5 19.101562 Z M 22.5 19.101562 "/>
<path style=" stroke:none;fill-rule:nonzero;fill:rgb(96.470588%,53.333333%,12.54902%);fill-opacity:1;" d="M 22.5 22.300781 L 33 22.300781 C 33.300781 22.300781 33.601562 22 33.601562 21.699219 C 33.601562 21.398438 33.300781 21.101562 33 21.101562 L 22.5 21.101562 C 22.199219 21.101562 21.898438 21.398438 21.898438 21.699219 C 21.898438 22 22.199219 22.300781 22.5 22.300781 Z M 22.5 22.300781 "/>
<path style=" stroke:none;fill-rule:nonzero;fill:rgb(96.470588%,53.333333%,12.54902%);fill-opacity:1;" d="M 22.5 25.398438 L 33 25.398438 C 33.300781 25.398438 33.601562 25.101562 33.601562 24.800781 C 33.601562 24.5 33.300781 24.199219 33 24.199219 L 22.5 24.199219 C 22.199219 24.199219 21.898438 24.5 21.898438 24.800781 C 21.898438 25.101562 22.199219 25.398438 22.5 25.398438 Z M 22.5 25.398438 "/>
<path style=" stroke:none;fill-rule:nonzero;fill:rgb(96.470588%,53.333333%,12.54902%);fill-opacity:1;" d="M 22.5 28.5 L 33 28.5 C 33.300781 28.5 33.601562 28.199219 33.601562 27.898438 C 33.601562 27.601562 33.300781 27.300781 33 27.300781 L 22.5 27.300781 C 22.199219 27.300781 21.898438 27.601562 21.898438 27.898438 C 21.898438 28.199219 22.199219 28.5 22.5 28.5 Z M 22.5 28.5 "/>
<path style=" stroke:none;fill-rule:nonzero;fill:rgb(96.470588%,53.333333%,12.54902%);fill-opacity:1;" d="M 22.5 31.601562 L 27.5 31.601562 C 27.800781 31.601562 28.101562 31.300781 28.101562 31 C 28.101562 30.699219 27.800781 30.398438 27.5 30.398438 L 22.5 30.398438 C 22.199219 30.398438 21.898438 30.699219 21.898438 31 C 21.898438 31.300781 22.199219 31.601562 22.5 31.601562 Z M 22.5 31.601562 "/>
<path style=" stroke:none;fill-rule:nonzero;fill:rgb(33.333333%,32.156863%,35.686275%);fill-opacity:1;" d="M 41.300781 29.699219 C 41.300781 27.269531 39.464844 25.300781 37.199219 25.300781 C 34.9375 25.300781 33.101562 27.269531 33.101562 29.699219 C 33.101562 32.128906 34.9375 34.101562 37.199219 34.101562 C 39.464844 34.101562 41.300781 32.128906 41.300781 29.699219 Z M 41.300781 29.699219 "/>
<path style=" stroke:none;fill-rule:nonzero;fill:rgb(43.529412%,64.313725%,84.705882%);fill-opacity:1;" d="M 38.300781 27.898438 L 36.5 29.800781 L 36 29.101562 C 35.699219 28.800781 35.199219 28.800781 34.800781 29.101562 C 34.5 29.398438 34.5 30 34.800781 30.300781 L 36 31.5 C 36.300781 31.800781 36.800781 31.800781 37.199219 31.5 L 39.5 29 C 39.800781 28.699219 39.800781 28.101562 39.5 27.800781 C 39.199219 27.5 38.601562 27.5 38.300781 27.898438 Z M 38.300781 27.898438 "/>
</g>
</svg>
