<?xml version="1.0" encoding="utf-8"?>
<!-- Generator: Adobe Illustrator 24.0.2, SVG Export Plug-In . SVG Version: 6.00 Build 0)  -->
<svg version="1.1" id="Layer_1" xmlns="http://www.w3.org/2000/svg" xmlns:xlink="http://www.w3.org/1999/xlink" x="0px" y="0px"
	 viewBox="0 0 28 31" style="enable-background:new 0 0 28 31;" xml:space="preserve">
<style type="text/css">
	.st0{fill:url(#SVGID_1_);}
	.st1{fill:url(#SVGID_2_);}
	.st2{fill:url(#SVGID_3_);}
	.st3{fill:url(#SVGID_4_);}
	.st4{fill:url(#SVGID_5_);}
	.st5{fill:url(#SVGID_6_);}
	.st6{fill:url(#SVGID_7_);}
	.st7{fill:url(#SVGID_8_);}
</style>
<g>
	<linearGradient id="SVGID_1_" gradientUnits="userSpaceOnUse" x1="0.1736" y1="15.5" x2="27.8264" y2="15.5">
		<stop  offset="0" style="stop-color:#00ADEE"/>
		<stop  offset="1" style="stop-color:#1B75BB"/>
	</linearGradient>
	<path class="st0" d="M27,28.5V18.4l-3.1-3.1v-14V0.7V0.1l-20.3,0v15.6L1,18.4v10.1H0.2v2.3h1.2v-1.2h7.5c0,0,0.1,0,0.1,0
		s0.1,0,0.1,0h0.1v1.2h1.2v-2.3H9.5v-1.3c0.4-0.3,0.8-0.7,1.1-1.2c0.5-0.8,0.7-1.7,0.7-2.6h5.5c0,0.9,0.2,1.8,0.7,2.6
		c0.3,0.5,0.6,0.9,1.1,1.2v1.3h-0.8v2.3h1.2v-1.2H19c0,0,0.1,0,0.1,0c0,0,0.1,0,0.1,0h7.5v1.2h1.2v-2.3L27,28.5L27,28.5z M22.8,1.3
		v19.2l-2.6-2.7c-0.7-0.7-1.7-0.8-2.4-0.2l-0.2,0.2c-0.4,0.3-0.6,0.7-0.6,1.2c0,0.5,0.1,0.9,0.4,1.3l1.8,2H8.8l1.6-2
		c0.3-0.4,0.5-0.8,0.4-1.3c0-0.5-0.2-0.9-0.6-1.2L10,17.7c-0.7-0.6-1.8-0.5-2.5,0.2l-2.7,3V1.3L22.8,1.3z M9.6,25.4
		c-0.2,0.4-0.6,0.7-0.9,1c-0.1,0.1-0.1,0.1-0.2,0.2c-0.1,0.1-0.1,0.2-0.1,0.4v1.5H2.1v-9.6l1.6-1.6v4.8L3,22.9l0.9,0.8l4.5-5.1
		c0.2-0.2,0.6-0.3,0.8-0.1l0.2,0.2c0.1,0.1,0.2,0.2,0.2,0.4c0,0.2,0,0.3-0.2,0.4l-2.3,2.8l0,0v1c0,0.7-0.2,1.3-0.5,1.9
		c-0.3,0.5-0.7,0.9-1.2,1.2l0.6,1c0.6-0.4,1.2-0.9,1.6-1.6c0.4-0.7,0.7-1.5,0.7-2.4h0v0c0,0,0,0,0,0h1.8
		C10.1,24.2,9.9,24.8,9.6,25.4z M19.5,26.7c0-0.1-0.1-0.2-0.2-0.2c-0.4-0.3-0.7-0.6-0.9-1c-0.4-0.6-0.5-1.3-0.5-2h1.8c0,0,0,0,0,0v0
		h0c0,0.8,0.2,1.7,0.7,2.4c0.4,0.6,0.9,1.2,1.6,1.6l0.6-1c-0.5-0.3-0.9-0.7-1.2-1.2c-0.3-0.6-0.5-1.2-0.5-1.9v-1h0l0,0l-2.6-2.9
		c-0.1-0.1-0.2-0.3-0.1-0.4c0-0.2,0.1-0.3,0.2-0.4l0.2-0.2c0.2-0.2,0.6-0.2,0.8,0.1l4.8,5.1l0.8-0.8l-1.1-1.1v-4.8l1.9,2v9.6h-6.2
		V27C19.6,26.9,19.6,26.8,19.5,26.7z"/>
	<linearGradient id="SVGID_2_" gradientUnits="userSpaceOnUse" x1="6.0158" y1="15.8908" x2="9.9105" y2="15.8908">
		<stop  offset="0" style="stop-color:#00ADEE"/>
		<stop  offset="1" style="stop-color:#1B75BB"/>
	</linearGradient>
	<rect x="6" y="15.3" class="st1" width="3.9" height="1.2"/>
	<linearGradient id="SVGID_3_" gradientUnits="userSpaceOnUse" x1="15.7526" y1="15.8908" x2="21.5948" y2="15.8908">
		<stop  offset="0" style="stop-color:#00ADEE"/>
		<stop  offset="1" style="stop-color:#1B75BB"/>
	</linearGradient>
	<rect x="15.8" y="15.3" class="st2" width="5.8" height="1.2"/>
	<linearGradient id="SVGID_4_" gradientUnits="userSpaceOnUse" x1="7.1846" y1="3.4272" x2="20.4263" y2="3.4272">
		<stop  offset="0" style="stop-color:#00ADEE"/>
		<stop  offset="1" style="stop-color:#1B75BB"/>
	</linearGradient>
	<rect x="7.2" y="2.8" class="st3" width="13.2" height="1.2"/>
	<linearGradient id="SVGID_5_" gradientUnits="userSpaceOnUse" x1="9.132" y1="5.3746" x2="18.479" y2="5.3746">
		<stop  offset="0" style="stop-color:#00ADEE"/>
		<stop  offset="1" style="stop-color:#1B75BB"/>
	</linearGradient>
	<rect x="9.1" y="4.8" class="st4" width="9.3" height="1.2"/>
	<linearGradient id="SVGID_6_" gradientUnits="userSpaceOnUse" x1="6.0161" y1="8.1009" x2="21.5948" y2="8.1009">
		<stop  offset="0" style="stop-color:#00ADEE"/>
		<stop  offset="1" style="stop-color:#1B75BB"/>
	</linearGradient>
	<rect x="6" y="7.5" class="st5" width="15.6" height="1.2"/>
	<linearGradient id="SVGID_7_" gradientUnits="userSpaceOnUse" x1="6.0161" y1="10.0487" x2="14.5842" y2="10.0487">
		<stop  offset="0" style="stop-color:#00ADEE"/>
		<stop  offset="1" style="stop-color:#1B75BB"/>
	</linearGradient>
	<rect x="6" y="9.5" class="st6" width="8.6" height="1.2"/>
	<linearGradient id="SVGID_8_" gradientUnits="userSpaceOnUse" x1="6.0161" y1="11.9961" x2="18.0895" y2="11.9961">
		<stop  offset="0" style="stop-color:#00ADEE"/>
		<stop  offset="1" style="stop-color:#1B75BB"/>
	</linearGradient>
	<rect x="6" y="11.4" class="st7" width="12.1" height="1.2"/>
</g>
</svg>
