<?xml version="1.0" encoding="utf-8"?>
<!-- Generator: Adobe Illustrator 24.0.2, SVG Export Plug-In . SVG Version: 6.00 Build 0)  -->
<svg version="1.1" id="Layer_1" xmlns="http://www.w3.org/2000/svg" xmlns:xlink="http://www.w3.org/1999/xlink" x="0px" y="0px"
	 viewBox="0 0 65 65" style="enable-background:new 0 0 65 65;" xml:space="preserve">
<style type="text/css">
	.st0{fill:#FFFFFF;}
	.st1{fill:url(#SVGID_1_);}
	.st2{fill-rule:evenodd;clip-rule:evenodd;fill:url(#SVGID_2_);}
	.st3{fill-rule:evenodd;clip-rule:evenodd;fill:url(#SVGID_3_);}
</style>
<circle class="st0" cx="32.5" cy="32.5" r="32.5"/>
<g>
	<linearGradient id="SVGID_1_" gradientUnits="userSpaceOnUse" x1="13.2027" y1="26.4967" x2="51.7973" y2="26.4967">
		<stop  offset="0" style="stop-color:#FF7300"/>
		<stop  offset="0.1601" style="stop-color:#FF7C00"/>
		<stop  offset="0.4262" style="stop-color:#FF9600"/>
		<stop  offset="0.7634" style="stop-color:#FFBF00"/>
		<stop  offset="1" style="stop-color:#FFE000"/>
	</linearGradient>
	<path class="st1" d="M23.3,29.1c0,0.5,0.1,0.9,0.2,1.2c0.1,0.3,0.3,0.6,0.4,1c0.1,0.1,0.1,0.2,0.1,0.3c0,0.1-0.1,0.3-0.3,0.4
		l-0.9,0.6c-0.1,0.1-0.3,0.1-0.4,0.1c-0.1,0-0.3-0.1-0.4-0.2c-0.2-0.2-0.4-0.4-0.5-0.7c-0.1-0.2-0.3-0.5-0.4-0.8
		C20.1,32.4,18.7,33,17,33c-1.2,0-2.1-0.3-2.8-1c-0.7-0.7-1-1.6-1-2.7c0-1.2,0.4-2.2,1.3-2.9s2-1.1,3.4-1.1c0.5,0,1,0,1.5,0.1
		c0.5,0.1,1,0.2,1.6,0.3v-1c0-1.1-0.2-1.8-0.7-2.2c-0.4-0.4-1.2-0.6-2.3-0.6c-0.5,0-1,0.1-1.5,0.2c-0.5,0.1-1,0.3-1.5,0.5
		c-0.2,0.1-0.4,0.2-0.5,0.2c-0.1,0-0.2,0-0.2,0c-0.2,0-0.3-0.1-0.3-0.4v-0.7c0-0.2,0-0.4,0.1-0.5c0.1-0.1,0.2-0.2,0.4-0.3
		c0.5-0.3,1.1-0.5,1.8-0.6c0.7-0.2,1.4-0.3,2.2-0.3c1.7,0,2.9,0.4,3.7,1.1c0.8,0.8,1.2,1.9,1.2,3.4L23.3,29.1L23.3,29.1z M17.6,31.2
		c0.5,0,0.9-0.1,1.4-0.3s1-0.5,1.3-0.9c0.2-0.3,0.4-0.6,0.5-0.9c0.1-0.3,0.1-0.7,0.1-1.2v-0.6c-0.4-0.1-0.8-0.2-1.3-0.2
		C19.3,27,18.9,27,18.4,27c-0.9,0-1.6,0.2-2.1,0.6c-0.5,0.4-0.7,0.9-0.7,1.6c0,0.7,0.2,1.1,0.5,1.5C16.5,31,17,31.2,17.6,31.2
		L17.6,31.2z M28.9,32.7c-0.3,0-0.4,0-0.5-0.1c-0.1-0.1-0.2-0.3-0.3-0.5l-3.3-10.8c-0.1-0.3-0.1-0.5-0.1-0.6c0-0.2,0.1-0.3,0.3-0.3
		h1.4c0.3,0,0.4,0,0.5,0.1c0.1,0.1,0.2,0.3,0.3,0.5l2.4,9.3l2.2-9.3c0.1-0.3,0.2-0.5,0.3-0.5c0.1-0.1,0.3-0.1,0.6-0.1h1.1
		c0.3,0,0.4,0,0.6,0.1c0.1,0.1,0.2,0.3,0.3,0.5l2.2,9.4l2.4-9.4c0.1-0.3,0.2-0.5,0.3-0.5c0.1-0.1,0.3-0.1,0.5-0.1h1.3
		c0.2,0,0.3,0.1,0.3,0.3c0,0.1,0,0.1,0,0.2c0,0.1,0,0.2-0.1,0.3L38.1,32c-0.1,0.3-0.2,0.5-0.3,0.5s-0.3,0.1-0.5,0.1h-1.2
		c-0.3,0-0.4,0-0.6-0.1c-0.1-0.1-0.2-0.3-0.3-0.6l-2.2-9l-2.2,9c-0.1,0.3-0.2,0.5-0.3,0.6c-0.1,0.1-0.3,0.1-0.6,0.1H28.9z
		 M46.9,33.1c-0.7,0-1.5-0.1-2.2-0.3c-0.7-0.2-1.2-0.3-1.6-0.6c-0.2-0.1-0.4-0.3-0.4-0.4c-0.1-0.1-0.1-0.3-0.1-0.4v-0.7
		c0-0.3,0.1-0.4,0.3-0.4c0.1,0,0.2,0,0.3,0c0.1,0,0.2,0.1,0.3,0.1c0.5,0.2,1,0.4,1.5,0.5c0.6,0.1,1.1,0.2,1.7,0.2
		c0.9,0,1.6-0.2,2-0.5c0.5-0.3,0.7-0.8,0.7-1.3c0-0.4-0.1-0.7-0.4-1c-0.3-0.3-0.7-0.5-1.4-0.7l-2-0.6c-1-0.3-1.8-0.8-2.2-1.4
		c-0.5-0.6-0.7-1.3-0.7-2c0-0.6,0.1-1.1,0.4-1.6c0.3-0.4,0.6-0.8,1-1.1c0.4-0.3,0.9-0.6,1.5-0.7c0.6-0.2,1.1-0.2,1.8-0.2
		c0.3,0,0.6,0,0.9,0.1c0.3,0,0.6,0.1,0.9,0.2c0.3,0.1,0.5,0.1,0.8,0.2c0.3,0.1,0.4,0.2,0.6,0.3c0.2,0.1,0.3,0.2,0.4,0.3
		c0.1,0.1,0.1,0.3,0.1,0.5v0.7c0,0.3-0.1,0.4-0.3,0.4c-0.1,0-0.3-0.1-0.5-0.2c-0.8-0.4-1.7-0.5-2.7-0.5c-0.8,0-1.4,0.1-1.9,0.4
		c-0.4,0.3-0.7,0.7-0.7,1.2c0,0.4,0.1,0.7,0.4,1c0.3,0.3,0.8,0.5,1.5,0.8l2,0.6c1,0.3,1.7,0.8,2.2,1.3c0.4,0.6,0.6,1.2,0.6,2
		c0,0.6-0.1,1.1-0.4,1.6c-0.3,0.5-0.6,0.9-1,1.2c-0.4,0.3-1,0.6-1.6,0.8C48.2,33,47.6,33.1,46.9,33.1L46.9,33.1z"/>
	<g>
		<linearGradient id="SVGID_2_" gradientUnits="userSpaceOnUse" x1="11.4625" y1="40.7593" x2="49.8359" y2="40.7593">
			<stop  offset="0" style="stop-color:#FF7300"/>
			<stop  offset="0.1601" style="stop-color:#FF7C00"/>
			<stop  offset="0.4262" style="stop-color:#FF9600"/>
			<stop  offset="0.7634" style="stop-color:#FFBF00"/>
			<stop  offset="1" style="stop-color:#FFE000"/>
		</linearGradient>
		<path class="st2" d="M49.5,39.9c-4.6,3.4-11.3,5.2-17,5.2c-8.1,0-15.3-3-20.8-7.9c-0.4-0.4,0-0.9,0.5-0.6
			c5.9,3.4,13.3,5.5,20.8,5.5c5.1,0,10.7-1.1,15.9-3.2C49.6,38.5,50.3,39.3,49.5,39.9z"/>
		<linearGradient id="SVGID_3_" gradientUnits="userSpaceOnUse" x1="45.6517" y1="39.4895" x2="53.5375" y2="39.4895">
			<stop  offset="0" style="stop-color:#FF7300"/>
			<stop  offset="0.1601" style="stop-color:#FF7C00"/>
			<stop  offset="0.4262" style="stop-color:#FF9600"/>
			<stop  offset="0.7634" style="stop-color:#FFBF00"/>
			<stop  offset="1" style="stop-color:#FFE000"/>
		</linearGradient>
		<path class="st3" d="M51.4,37.7c-0.6-0.8-3.9-0.4-5.4-0.2c-0.4,0.1-0.5-0.3-0.1-0.6c2.6-1.8,7-1.3,7.5-0.7c0.5,0.6-0.1,5-2.6,7
			c-0.4,0.3-0.7,0.2-0.6-0.3C50.8,41.6,52,38.4,51.4,37.7z"/>
	</g>
</g>
</svg>
