<?xml version="1.0" encoding="utf-8"?>
<!-- Generator: Adobe Illustrator 24.0.2, SVG Export Plug-In . SVG Version: 6.00 Build 0)  -->
<svg version="1.1" id="Layer_1" xmlns="http://www.w3.org/2000/svg" xmlns:xlink="http://www.w3.org/1999/xlink" x="0px" y="0px"
	 viewBox="0 0 198.4 235.8" style="enable-background:new 0 0 198.4 235.8;" xml:space="preserve">
<style type="text/css">
	.st0{fill:#FDBA12;}
	.st1{fill:#FFFFFF;}
	.st2{opacity:0.9;fill:#FFF8ED;}
	.st3{fill:#F5F5F5;}
	.st4{fill:#E6E6E6;}
	.st5{fill:#FFC015;}
	.st6{opacity:0.15;}
	.st7{opacity:0.1;}
	.st8{fill:#005372;}
	.st9{fill:#FAFBFB;}
	.st10{opacity:0.12;fill:#FFFFFF;}
	.st11{fill:#263238;}
	.st12{fill:#37474F;}
	.st13{opacity:0.3;}
	.st14{fill:#4164AD;}
	.st15{opacity:0.5;fill:#1653A4;}
	.st16{fill:#4266AF;}
	.st17{fill:#FFD115;}
	.st18{opacity:0.5;fill:#C6E9FA;}
	.st19{opacity:0.5;fill:#FFFFFF;}
	.st20{fill:#58C2B1;}
	.st21{fill:#455B64;}
	.st22{fill:#F89E1C;}
	.st23{opacity:5.000000e-02;fill:#FFFFFF;}
	.st24{opacity:0.5;fill:#58C2B1;}
	.st25{opacity:0.3;fill:#58C2B1;}
	.st26{opacity:0.86;fill:#F6EB1D;}
	.st27{fill:#F7A7A8;}
	.st28{fill:#FCB81F;}
	.st29{fill:#F3908F;}
	.st30{fill:#13254B;}
	.st31{opacity:0.2;fill:#1F3568;}
	.st32{fill:#406FB6;}
	.st33{opacity:0.2;}
	.st34{opacity:0.2;fill:#FFFFFF;}
</style>
<path class="st0" d="M174.6,78.3l0.3-0.6l0.3,0.5c0.1,0.1,0.2,0.3,0.4,0.3l0.6,0.3l-0.5,0.3c-0.1,0.1-0.3,0.2-0.3,0.4l-0.3,0.6
	l-0.3-0.5c-0.1-0.1-0.2-0.3-0.4-0.3l-0.6-0.3l0.5-0.3C174.4,78.6,174.6,78.5,174.6,78.3z"/>
<path class="st0" d="M164.9,23.6l0.3-0.6l0.3,0.5c0.1,0.1,0.2,0.3,0.4,0.3l0.6,0.3l-0.5,0.3c-0.1,0.1-0.3,0.2-0.3,0.4l-0.3,0.6
	l-0.3-0.5c-0.1-0.1-0.2-0.3-0.4-0.3l-0.6-0.3l0.5-0.3C164.7,23.9,164.9,23.8,164.9,23.6z"/>
<path class="st0" d="M142.4,11.7l0.3-0.6l0.3,0.5c0.1,0.1,0.2,0.3,0.4,0.3l0.6,0.3l-0.5,0.3c-0.1,0.1-0.3,0.2-0.3,0.4l-0.3,0.6
	l-0.3-0.5c-0.1-0.1-0.2-0.3-0.4-0.3l-0.6-0.3l0.5-0.3C142.2,12,142.3,11.8,142.4,11.7z"/>
<path class="st1" d="M26.6,34.7l0.3-0.6l0.3,0.5c0.1,0.1,0.2,0.3,0.4,0.3l0.6,0.3l-0.5,0.3c-0.1,0.1-0.3,0.2-0.3,0.4L27,36.5
	L26.7,36c-0.1-0.1-0.2-0.3-0.4-0.3l-0.6-0.3l0.5-0.3C26.4,35,26.5,34.8,26.6,34.7z"/>
<path class="st0" d="M55.8,4.9L56,4.4l0.3,0.5c0.1,0.1,0.2,0.3,0.4,0.3l0.6,0.3l-0.5,0.3c-0.1,0.1-0.3,0.2-0.3,0.4l-0.3,0.6
	l-0.3-0.5c-0.1-0.1-0.2-0.3-0.4-0.3l-0.6-0.3l0.5-0.3C55.6,5.2,55.7,5.1,55.8,4.9z"/>
<path class="st0" d="M185.9,43.6l0.4-0.9l0.6,0.9c0.2,0.2,0.4,0.4,0.6,0.6l0.9,0.4l-0.9,0.6c-0.2,0.2-0.4,0.4-0.6,0.6l-0.4,0.9
	l-0.6-0.9c-0.2-0.2-0.4-0.4-0.6-0.6l-0.9-0.4l0.9-0.6C185.5,44.1,185.7,43.8,185.9,43.6z"/>
<path class="st0" d="M13.7,66.1l0.4-0.9l0.6,0.9c0.2,0.2,0.4,0.4,0.6,0.6l0.9,0.4l-0.9,0.6c-0.2,0.2-0.4,0.4-0.6,0.6l-0.4,0.9
	l-0.6-0.9c-0.2-0.2-0.4-0.4-0.6-0.6l-0.9-0.4l0.9-0.6C13.4,66.6,13.6,66.4,13.7,66.1z"/>
<path class="st1" d="M184.4,104l0.4-0.9l0.6,0.9c0.2,0.2,0.4,0.4,0.6,0.6l0.9,0.4l-0.9,0.6c-0.2,0.2-0.4,0.4-0.6,0.6l-0.4,0.9
	l-0.6-0.9c-0.2-0.2-0.4-0.4-0.6-0.6l-0.9-0.4l0.9-0.6C184.1,104.4,184.3,104.2,184.4,104z"/>
<path class="st1" d="M182.5,12.5l0.4-0.9l0.6,0.9c0.2,0.2,0.4,0.4,0.6,0.6l0.9,0.4l-0.9,0.6c-0.2,0.2-0.4,0.4-0.6,0.6l-0.4,0.9
	l-0.6-0.9c-0.2-0.2-0.4-0.4-0.6-0.6l-0.9-0.4l0.9-0.6C182.1,13,182.3,12.7,182.5,12.5z"/>
<path class="st0" d="M15,14.5l0.4-0.9l0.6,0.9c0.2,0.2,0.4,0.4,0.6,0.6l0.9,0.4l-0.9,0.6c-0.2,0.2-0.4,0.4-0.6,0.6l-0.4,0.9
	l-0.6-0.9c-0.2-0.2-0.4-0.4-0.6-0.6l-0.9-0.4l0.9-0.6C14.7,15,14.9,14.7,15,14.5z"/>
<path class="st1" d="M89.4,3.2l0.3-0.6L90,3.2c0.1,0.1,0.2,0.3,0.4,0.3L91,3.8l-0.5,0.3c-0.1,0.1-0.3,0.2-0.3,0.4l-0.3,0.6l-0.3-0.5
	c-0.1-0.1-0.2-0.3-0.4-0.3l-0.6-0.3l0.5-0.3C89.3,3.5,89.4,3.4,89.4,3.2z"/>
<path class="st1" d="M58.5,22.2l0.3-0.7l0.4,0.7c0.1,0.2,0.3,0.3,0.5,0.4l0.7,0.3l-0.7,0.4c-0.2,0.1-0.3,0.3-0.4,0.5L59,24.6
	l-0.4-0.7c-0.1-0.2-0.3-0.3-0.5-0.4l-0.7-0.3l0.7-0.4C58.2,22.6,58.4,22.4,58.5,22.2z"/>
<path class="st1" d="M145,47.3l0.3-0.6l0.4,0.6c0.1,0.2,0.2,0.3,0.4,0.4l0.6,0.3l-0.6,0.4c-0.2,0.1-0.3,0.2-0.4,0.4l-0.3,0.6
	l-0.4-0.6c-0.1-0.2-0.2-0.3-0.4-0.4l-0.6-0.3l0.6-0.4C144.7,47.6,144.9,47.5,145,47.3z"/>
<path class="st1" d="M150.7,63.3l0.1-0.2l0.1,0.2c0,0.1,0.1,0.1,0.1,0.1l0.2,0.1l-0.2,0.1c-0.1,0-0.1,0.1-0.1,0.1l-0.1,0.2l-0.1-0.2
	c0-0.1-0.1-0.1-0.1-0.1l-0.2-0.1l0.2-0.1C150.6,63.4,150.7,63.4,150.7,63.3z"/>
<path class="st0" d="M106.2,45.2l0.3-0.6l0.3,0.5c0.1,0.1,0.2,0.3,0.4,0.3l0.6,0.3l-0.5,0.3c-0.1,0.1-0.3,0.2-0.3,0.4l-0.3,0.6
	l-0.3-0.5c-0.1-0.1-0.2-0.3-0.4-0.3l-0.6-0.3l0.5-0.3C106,45.5,106.1,45.4,106.2,45.2z"/>
<path class="st0" d="M113.7,20.4l0.4-0.9l0.5,0.9c0.2,0.2,0.4,0.4,0.6,0.5l0.9,0.4l-0.9,0.5c-0.2,0.2-0.4,0.4-0.5,0.6l-0.4,0.9
	l-0.5-0.9c-0.2-0.2-0.4-0.4-0.6-0.5l-0.9-0.4l0.9-0.5C113.4,20.9,113.6,20.7,113.7,20.4z"/>
<path class="st1" d="M137.5,1.4l0.2-0.4l0.3,0.4c0.1,0.1,0.2,0.2,0.3,0.2l0.4,0.2l-0.4,0.3c-0.1,0.1-0.2,0.2-0.2,0.3l-0.2,0.4
	l-0.3-0.4c-0.1-0.1-0.2-0.2-0.3-0.2L136.8,2l0.4-0.3C137.3,1.6,137.4,1.5,137.5,1.4z"/>
<path class="st0" d="M148.3,86.9l0.4-0.9l0.6,0.9c0.2,0.2,0.4,0.4,0.6,0.6l0.9,0.4l-0.9,0.6c-0.2,0.2-0.4,0.4-0.6,0.6l-0.4,0.9
	l-0.6-0.9c-0.2-0.2-0.4-0.4-0.6-0.6l-0.9-0.4l0.9-0.6C148,87.4,148.2,87.1,148.3,86.9z"/>
<path class="st2" d="M91.8,195c6.4-1,14.9-0.5,19.5-4.9c4.7-4.5,5.6-13.4,0.1-16.8c-3.7-2.3-8.5-1.3-12.6,0.2
	c-7.1,2.6-13.8,6.4-21.2,7.9c-7.4,1.5-16.1,0.2-20.7-5.8c-3-4-4.1-9.6-8.2-12.4c-5.5-3.8-14.5-1.3-18.2-6.8
	c-3.6-5.5,2.1-12.7,0.7-19.1c-1.9-8.9-15.5-10.4-18.8-18.9c-2.2-5.7,1.2-11.9,4.8-16.7c3.7-4.8,8-9.8,8.1-15.9
	c0.1-5.5-3.5-10.4-4.1-15.9c-1.2-9.4,6-17.6,13.5-23.4c7.3-5.7,15.8-10.5,25.1-10.9c9.3-0.3,19.2,5,21.7,13.9
	c1.2,4.4,0.6,9,1.2,13.5c0.6,4.5,3.1,9.3,7.6,10.2c5.5,1.1,9.9-4.2,13.2-8.7c3.3-4.5,8.5-9.4,13.7-7.4c5.9,2.3,6.1,11.6,11.8,14.3
	c2.2,1,4.9,0.8,7.2,1.9c4.9,2.3,5.4,9.3,3.6,14.4c-2.5,7-7.9,12.9-14.6,16c-4.5,2.1-9.7,3-13.6,6.1c-2.9,2.3-4.9,5.6-6.8,8.8
	c-1.6,2.6-3.1,5.4-3.7,8.4c-0.6,3,0,6.4,2.2,8.5c2.7,2.5,7,2.5,10.6,1.5c3.6-0.9,7.1-2.6,10.8-2.7c7.3-0.3,13.4,5.2,18.5,10.4
	c2.7,2.7,5.4,5.4,7.2,8.8c1.8,3.4,2.5,7.5,1.1,11c-1.6,3.7-5.2,6.1-7.2,9.6c-1.8,3.2-2,7-3.3,10.5c-2.6,7.2-9.8,12-17.3,13.6
	C116.2,199.7,97.9,201.1,91.8,195"/>
<ellipse id="Floor_9_" class="st3" cx="99.2" cy="180.3" rx="94.8" ry="54.7"/>
<ellipse id="Shadow_3_" class="st4" cx="133.9" cy="198.1" rx="25.7" ry="14.8"/>
<ellipse id="Shadow_27_" class="st4" cx="59.2" cy="188.3" rx="25.2" ry="14.5"/>
<path class="st5" d="M73.9,71.9c0,0,4.2-1.4,6.9-0.3c2.3,0.9,3.8,2.3,4.8,4.2c3.6,3.3,10.5,9.9,12.5,13.1c0.5,0.8,1.1,1.3,1,2.2
	c0,0.6-0.3,1-1,1.8L90.9,92c-2.4-1.9-7.6-5.7-10.8-9l-0.2,1.9c-2.4-1-4.6-3.4-5.2-6.4C73.4,72.7,73.9,71.9,73.9,71.9z"/>
<path class="st6" d="M90.2,91.5c0.8-1,2.9-1.7,4-1.6c0,0-2-0.9-4.9,0.9L90.2,91.5z"/>
<path class="st5" d="M79.2,136.5c-15.9-0.3-22.2,19.4-31.1,13.3c-8.2-5.7,1.1-15.4,14.9-22.2c12.9-6.3,16.5-16.7,17.4-22.2
	c1-6,1.3-15-0.5-25.8c-0.7-4-4.1-7.5-9.1-8L64,71.4c0,0-1.7,0.3-4.8,0.9c-3,0.6-4.6,2-4.9,4.4c-0.2,1.6-0.1,2.5,0.2,4.1l0.8,5.7
	c0,0,2.3,6.4,2.5,8.9c0.2,2.5,0,6-1.5,9.6c-2.6,6.1-12.7,12.2-21.9,23.2c-8.6,10.3-6.5,27.6,5.4,32.4c10.1,4.1,20.6,1.8,28.4-6.5
	c10.7-11.3,20.3-8.7,19.1-3.6c-1.7,7.5-12.9,5.6-20.8,11.6c-8.1,6.2-6,14.2-2.5,17.3c3.3,2.9,7.9,2.1,7.9,2.1s-8.4-1.2-7.6-8.5
	c0.7-6.8,6.6-8.6,20-11.8C99.4,158,98.7,136.8,79.2,136.5z"/>
<path class="st7" d="M72.9,100.5c0,0.1-0.1,0.3-0.1,0.4c-0.1,0.1-0.2,0.2-0.4,0.3c-0.7,0.4-1.6,0.2-2.4,0.4
	c-0.6,0.2,0.4,0.4,0.6,0.5c0.4,0,0.8,0,1.2,0c0.2,0,0.4,0,0.5,0c0.4-0.1,0.8-0.4,1.2-0.4c0.4-0.1,0.8,0.2,1.1,0.3
	c0.8,0.2,2.3,0.4,2.8-0.4c0-0.1,0.1-0.1,0-0.2c0-0.1-0.1-0.1-0.2-0.1c-0.1,0-0.2,0-0.3,0.1c-0.8,0.2-2.4,0.4-2.4-0.8
	c0-0.6,0-1.2,0.1-1.7c0-0.2,0.2-0.2,0.4-0.3c0.5-0.1,1.1-0.1,1.6-0.2c0.1,0,0.2,0,0.3-0.1c0.1-0.1,0.2-0.2,0.1-0.3c0,0,0,0,0-0.1
	c0,0-0.1,0-0.1,0c-0.5,0-1,0-1.5,0c-0.2,0-0.5,0-0.7-0.1c-0.4-0.2-0.6-0.6-0.6-1c-0.1-0.5-0.2-1.3,0.2-1.7c0.2-0.2,0.4-0.2,0.7-0.2
	c0.4,0,0.9,0,1.3-0.2c0.1,0,0.2-0.1,0.2-0.1c0.1-0.1,0.1-0.2,0.1-0.2c-0.6,0-1.1,0-1.7-0.1c-0.1,0-0.3,0-0.4-0.1
	c-0.4-0.2-0.5-1-0.5-1.4c-0.1-0.5,0-1.1-0.2-1.7c0-0.1-0.1-0.2-0.2-0.2c-0.2,0-0.2,0.2-0.2,0.3c0,0.5-0.1,1-0.1,1.5
	c0,0.3,0,0.6-0.1,0.9c-0.3,0.9-1.3,0.8-2.1,1c-0.3,0-0.6,0.3-0.4,0.5c0.1,0.1,0.2,0.1,0.3,0.1c0.5,0,1,0.1,1.6,0.1
	c0.1,0,0.2,0,0.3,0.1c0.1,0.1,0.1,0.2,0.1,0.2c0.1,0.4,0.2,0.9,0.2,1.3c0,0.6-0.4,1-0.9,1.2c-0.3,0.1-0.7,0.1-1,0.1
	c-0.3,0-0.5,0-0.8,0c-0.1,0-0.3,0-0.3,0.2c0,0.1,0,0.2,0.1,0.2c0.1,0,0.2,0,0.2,0c0.6,0,1.4,0,1.9,0.4C72.9,99,73,99.9,72.9,100.5z"
	/>
<path class="st7" d="M64.5,89.3C64.5,89.3,64.5,89.4,64.5,89.3c0,0.1,0.1,0.2,0.1,0.2c0.9,0.7,2.3,0.8,3.5,0.8c1.4,0,2.8-0.3,4-0.8
	c0.4-0.2,0.7-0.3,1.1-0.4c0.9-0.2,1.6,0.2,2.5,0.4c1.3,0.3,2.7,0.3,4,0c0.7-0.2,1.6-0.6,1.5-1.4c0,0.2-4.6,0.3-5,0.2
	c-0.4,0-0.9-0.1-1.3-0.3c-0.4-0.2-0.6-0.7-0.7-1.1c-0.1-0.4-0.2-0.9-0.2-1.3c0-0.3-0.9-3.1-1.3-2.6c0,0.1,0,0.1,0,0.2
	c0,1,0.6,2.9,0.3,4.1c-0.3,1.2-1.9,1.5-2.9,1.7c-1.3,0.2-2.7,0.3-4.1,0.1c-0.4,0-0.8-0.1-1.2,0C64.7,89.1,64.5,89.2,64.5,89.3z"/>
<path class="st8" d="M62.1,71.8c0.1,0.4,0.4,2.4,1.7,3.9c1.8,2,3,2.4,4.4,3.1c0.8,0.4,2.3,12.6,1.6,20.2c0,0-7,1.4-12.4-0.2
	c0,0-0.4-4.7-0.8-7.4c-0.3-2-3.1-11.5-3.1-14.3c0.1-2.4,1-3.8,3.8-4.4C60.1,72,62.1,71.8,62.1,71.8z"/>
<path class="st9" d="M67.5,79.8c0-0.1-0.1-0.1-0.1-0.2c-0.8-0.3-2.9-1.4-4-2.7c-1.1-1.3-2-2.4-2.3-5c-0.1,0-0.3,0-0.4,0.1
	c0.4,2.7,1.3,3.9,2.4,5.2c1.2,1.3,3.2,2.4,4.1,2.8c0.1,0.4,0.1,0.9,0.2,1.4c0.5,4.3,1.1,9.2,0.7,16c-0.9,0.2-5.7,0.9-10.8-0.3
	c0,0.2,0,0.3,0,0.4c2.2,0.5,4.3,0.7,6.1,0.7c2.9,0,4.9-0.4,5-0.4c0.1,0,0.2-0.1,0.2-0.2c0.4-6.9-0.2-11.9-0.7-16.2
	C67.7,80.8,67.6,80.3,67.5,79.8z"/>
<path class="st6" d="M62.9,146.9c3.7-5.2,8.6-8.8,8.6-8.8l0,0c-10.5,4.5-16.1,16.8-23.4,11.7c-7.3-5-0.8-13.2,10.3-19.7
	c-5.6,2.6-16.2,8.3-19,14.8c-1.8,4.4,1.1,10.6,8,11.1C54.5,156.4,59.2,152.1,62.9,146.9z"/>
<path class="st6" d="M83.8,136.4L83.8,136.4c2.6,0.4,4,2.1,3.5,4.3c-1.7,7.5-12.9,5.6-20.8,11.6c-4.4,3.4-5.8,7.4-5.6,10.7
	c1.3-8.1,9.5-11.5,16.6-12.8c7-1.3,11.4-4.1,12.2-8.2C90.6,137.9,86.8,136.8,83.8,136.4z"/>
<path class="st6" d="M80.9,102.3C80.9,102.3,80.9,102.3,80.9,102.3l-0.2,0.9c0,0-3,3.5-11.7,3.2c-10-0.4-11.8-3.4-11.8-3.4
	c0.1-0.2,0.1-0.5,0.2-0.8c0,0,0,0-0.1,0c-0.2,1-0.6,1.9-1,2.9c-0.1,0.2-0.2,0.5-0.3,0.7l0,0c-0.1,0.1-0.1,0.3-0.2,0.4c0,0,0,0,0,0
	c-0.1,0.1-0.2,0.3-0.2,0.4c0,0,0,0,0,0c-0.5,0.9-1.2,1.8-2,2.7c0,0,0,0,0,0c1.5,1.2,4.2,2.7,6.7,2.7c1.6,0,3-0.6,3.9-1.4
	c1.4,0.3,3,0.5,4.9,0.5c3,0.1,5.4-0.3,7.1-0.8c0.5,0.5,1.4,0.9,2.7,1.1c0.4-0.9,0.7-1.8,1-2.7c0,0,0,0,0,0c0-0.1,0-0.1,0.1-0.2
	c0.1-0.2,0.1-0.4,0.2-0.6c0-0.1,0.1-0.2,0.1-0.3c0.1-0.3,0.1-0.5,0.2-0.8c0-0.1,0-0.2,0.1-0.2c0-0.2,0.1-0.3,0.1-0.5
	c0-0.1,0-0.2,0.1-0.3c0-0.1,0-0.1,0-0.2c0,0,0,0,0,0c0-0.1,0.1-0.3,0.1-0.4C80.6,104.5,80.8,103.4,80.9,102.3z"/>
<path class="st8" d="M57.6,100.9c-0.7-0.2-0.7,0.6-1.3,2.3c-0.5,1.6-0.9,2.3-0.4,2.8c0.7,0.7,4.7,3.7,13.2,4
	c7.1,0.2,10.3-2.1,10.9-2.5c0.8-0.5,1.2-1,1.4-4c0.1-1.4,0.3-2.4-0.4-2.5l0,0.6c0,0-3,3.9-11.7,3.5c-10-0.4-11.8-3.4-11.8-3.4
	C57.5,101.5,57.6,101.2,57.6,100.9z"/>
<path class="st10" d="M57.6,100.9c-0.7-0.2-0.7,0.6-1.3,2.3c-0.5,1.6-0.9,2.3-0.4,2.8c0.7,0.7,4.7,3.7,13.2,4
	c7.1,0.2,10.3-2.1,10.9-2.5c0.8-0.5,1.2-1,1.4-4c0.1-1.4,0.3-2.4-0.4-2.5l0,0.6c0,0-3,3.9-11.7,3.5c-10-0.4-11.8-3.4-11.8-3.4
	C57.5,101.5,57.6,101.2,57.6,100.9z"/>
<circle class="st11" cx="66.6" cy="54.7" r="11.7"/>
<path class="st12" d="M77.9,50.1c0,0-1-5.4-8.4-5.2c-7.2,0.2-10.6,5.2-11.4,8.3c-0.6,2.4-1.2,8.6,3.3,9.6L77.9,50.1z"/>
<path id="XMLID_402_" class="st5" d="M63.4,60.5C63,61,62.5,59.9,62,59.4c-0.5-0.5-2.1-1-2.9,0.7c-0.8,1.7,0.5,3.4,1.6,3.9
	c2,1,2.6-0.4,2.6-0.4l0.2,8.2c2.8,4.3,9.6,5.2,7.3,0.2v-3c0,0,1.4,0.2,2.3,0.1c1.5-0.2,3-1.5,3.6-3.3c0.8-2.6,1.1-5.4,0.6-10.5
	c-0.7-6-8.2-6.1-11.8-3.6C62.3,53.7,63.4,60.5,63.4,60.5z"/>
<path class="st13" d="M70.5,68.8c0,0-2.4-0.5-4.2-1.3c0,0,0.7,0.9,2.1,1.4c1.3,0.4,2.1,0.6,2.1,0.6V68.8z"/>
<path id="XMLID_817_" class="st13" d="M71.2,64.8l1.7,0c0,0.5-0.4,0.9-0.9,0.9C71.5,65.7,71.2,65.3,71.2,64.8z"/>
<path class="st14" d="M75.3,66.1c0-0.2,0-0.4-0.1-0.6c-0.1-0.6-0.5-1.4-1.1-1.7c-0.6-0.3-1.4-0.2-2-0.2c-1.2,0.1-2.1,0.3-2.6,1.1
	c-0.7,1.1-0.9,2.7-0.1,4c0.9,1.7,2.7,2,4.4,2c0.6,0,1.5-0.2,2.1-0.4c0.6-0.2,1-0.8,0.9-1.5c0-0.1-0.1-0.2-0.1-0.1
	c0,0.1,0,0.3-0.1,0.4c-0.3,0.3-0.9,0.1-1.1-0.3c-0.2-0.3-0.2-0.7-0.2-1C75.2,67.2,75.3,66.6,75.3,66.1z M74.5,67
	c-0.2,0.6-1,0.7-1.4,0.5c-0.2-0.1-0.3-0.9,0-1.1c0.3-0.1,0.1-0.3-0.6-0.3c-0.8,0.1-0.8,0.3-0.5,0.3c0.3,0.1,0.4,0.8,0,1
	c-0.3,0.1-1.1,0.2-1.5,0c-0.6-0.4-0.7-2-0.2-2.6c0.5-0.7,1.5-0.7,2.2-0.7c0.7,0,1.4,0.1,1.9,0.6C74.9,65.4,74.7,66.4,74.5,67z"/>
<path class="st15" d="M75.3,66.1c0-0.2,0-0.4-0.1-0.6c-0.1-0.6-0.5-1.4-1.1-1.7c-0.6-0.3-1.4-0.2-2-0.2c-1.2,0.1-2.1,0.3-2.6,1.1
	c-0.7,1.1-0.9,2.7-0.1,4c0.9,1.7,2.7,2,4.4,2c0.6,0,1.5-0.2,2.1-0.4c0.6-0.2,1-0.8,0.9-1.5c0-0.1-0.1-0.2-0.1-0.1
	c0,0.1,0,0.3-0.1,0.4c-0.3,0.3-0.9,0.1-1.1-0.3c-0.2-0.3-0.2-0.7-0.2-1C75.2,67.2,75.3,66.6,75.3,66.1z M74.5,67
	c-0.2,0.6-1,0.7-1.4,0.5c-0.2-0.1-0.3-0.9,0-1.1c0.3-0.1,0.1-0.3-0.6-0.3c-0.8,0.1-0.8,0.3-0.5,0.3c0.3,0.1,0.4,0.8,0,1
	c-0.3,0.1-1.1,0.2-1.5,0c-0.6-0.4-0.7-2-0.2-2.6c0.5-0.7,1.5-0.7,2.2-0.7c0.7,0,1.4,0.1,1.9,0.6C74.9,65.4,74.7,66.4,74.5,67z"/>
<path id="XMLID_348_" class="st11" d="M68.8,56.9l-1.5,0.8c-0.2-0.4-0.1-1,0.3-1.2C68.1,56.3,68.6,56.4,68.8,56.9z"/>
<path id="XMLID_331_" class="st11" d="M76.3,57.8l-1.3-1.1c0.3-0.4,0.8-0.5,1.2-0.2C76.4,56.8,76.5,57.4,76.3,57.8z"/>
<path id="XMLID_330_" class="st11" d="M75.6,59.6c0,0.4-0.3,0.7-0.7,0.7c-0.4,0-0.7-0.3-0.7-0.7s0.3-0.7,0.7-0.7
	C75.3,58.8,75.6,59.1,75.6,59.6z"/>
<path id="XMLID_352_" class="st11" d="M69.8,59.8c0,0.4-0.3,0.7-0.7,0.7c-0.4,0-0.7-0.3-0.7-0.7c0-0.4,0.3-0.7,0.7-0.7
	C69.5,59,69.8,59.4,69.8,59.8z"/>
<polygon id="XMLID_299_" class="st13" points="71.8,58.5 71.9,62.8 74.4,62.3 "/>
<path class="st8" d="M62,59.4c0,0,2.8-5.7,8.1-6.5c5.4-0.7,7.3,1.6,7.3,3.4c0,0,1.4-0.8,1.7-2.6c0.5-2.6-1.3-7.1-9-6.5
	c-5.7,0.4-8.9,3.9-10.1,7.2c-0.5,1.5-0.4,4,0,4.7C60.6,58.7,61.6,58.9,62,59.4z"/>
<path class="st12" d="M74.4,50.3c0,0.1,0,0.2-0.1,0.3l-0.6,1.2c-0.1,0.1-0.1,0.2-0.2,0.3c-0.1,0.1-0.2,0.1-0.3,0.1l0,0l-0.8,0
	l-0.3,0c-0.1,0-0.3,0-0.4-0.1c-0.1-0.1-0.2-0.2-0.3-0.3c0,0,0,0,0,0l-0.5-1c-0.1-0.1-0.1-0.2-0.1-0.3c0-0.1,0-0.2,0-0.3l0.6-1.2
	c0.1-0.1,0.1-0.2,0.2-0.3c0.1-0.1,0.2-0.1,0.4-0.1h0l0.3,0l0.7,0c0.1,0,0.3,0,0.4,0.1c0.1,0.1,0.2,0.2,0.3,0.3l0.5,1
	C74.3,50.1,74.4,50.2,74.4,50.3z"/>
<path class="st16" d="M74.4,50.3c0,0.1,0,0.2-0.1,0.3l-0.5,1c0,0.1-0.1,0.2-0.2,0.2c-0.1,0.1-0.2,0.1-0.3,0.1l0,0l-0.7,0l-0.2,0
	c-0.1,0-0.2,0-0.4-0.1c-0.1-0.1-0.2-0.1-0.2-0.2c0,0,0,0,0,0l-0.5-0.9c-0.1-0.1-0.1-0.2-0.1-0.3c0-0.1,0-0.2,0-0.2l0.6-1.1
	c0.1-0.1,0.1-0.2,0.2-0.2c0.1-0.1,0.2-0.1,0.3-0.1h0l0.3,0l0.6,0c0.1,0,0.2,0,0.4,0.1c0.1,0.1,0.2,0.1,0.2,0.3l0.5,0.9
	C74.3,50.1,74.4,50.2,74.4,50.3z"/>
<polygon class="st17" points="73.1,49.7 72.5,49.8 72.2,50.4 72.5,51 73.1,50.9 73.4,50.3 "/>
<path class="st18" d="M74.4,50.3l-1,0.1l-0.3-0.6l0.5-0.9c0.1,0.1,0.2,0.1,0.2,0.3l0.5,0.9C74.3,50.1,74.4,50.2,74.4,50.3z"/>
<path class="st19" d="M73.6,51.8c-0.1,0.1-0.2,0.1-0.3,0.1l0,0l-0.7,0l-0.2,0c-0.1,0-0.2,0-0.4-0.1l0.5-0.9l0.6,0L73.6,51.8z"/>
<path class="st19" d="M72.5,49.8l-0.3,0.6l-1,0.1c0-0.1,0-0.2,0-0.2l0.6-1.1c0.1-0.1,0.1-0.2,0.2-0.2L72.5,49.8z"/>
<path class="st5" d="M98.8,92c-0.7,0.9-1.6,3.5-3.7,6c-1.6,1.9-4.9,5.2-6.3,6.5c-1.8,1.7-2.6,2.2-4.1,3.5c-1.1,0.9-2.2,2.2-4.8,2.6
	c-1.5,0.2-4-0.2-4.7-2.4c-0.4-1.3,0.4-1.4,2.8-2.4c2.4-1,2.9-1.3,3.5-2.2c0,0,0.2-1.5,0.1-2c-0.1-0.4-0.3-0.5-0.5-0.5l0-0.5
	c0.2,0,0.8,0.3,1.2,0.5c0.9,0.5,1.7,1,3.5-1.6c1.6-2.3,2.2-5.5,4.6-8.2C92.7,88.6,98.8,92,98.8,92z"/>
<path class="st5" d="M58.9,72.3c0,0-3.6-0.7-6.1,0.8c-2.1,1.2-3.3,2.5-4.3,5.5c-3,3.8-9,11.3-10.5,14.7c-0.4,0.9-0.9,1.5-0.7,2.3
	c0.1,0.6,0.5,1,1.2,1.7l7.1-1.9c2.1-2.3,6.7-6.7,9.4-10.4l0.5,1.8c2.3-1.3,4.1-4,4.3-7.1C60.1,73.7,58.9,72.3,58.9,72.3z"/>
<path class="st5" d="M37.7,96.4c0.8,0.8,2,2.7,4.5,4.8c1.9,1.6,6,4.1,7.5,5c2.1,1.2,2.9,1.8,4.6,2.8c1.2,0.7,4,2.2,6.6,2.2
	c1.5,0,3.4-0.9,4.6-3.2c0.6-1.2-1.3-1.9-3.8-2.3c-3.2-0.5-3.8-1.2-4.5-1.6c-0.5-0.3-0.8-0.9-0.6-1.5l0.3-1c-0.1-0.1-0.4,0-1.1,0.6
	c-0.8,0.7-1.3,1-3.8-1.1c-2.2-2-3.1-4.1-5.8-6.4C43.5,92.3,37.7,96.4,37.7,96.4z"/>
<path class="st6" d="M54.9,84.8l0.5,1.8c0.4-0.2,0.8-0.5,1.1-0.8c-0.1-0.5-0.1-1.1,0.1-1.8c0.4-1.2,0.1-1.7,0.1-1.7
	C56,83.6,54.9,84.8,54.9,84.8z"/>
<path class="st6" d="M46.2,94.6c-1.5-0.9-3.2-0.7-4.1-0.4c0,0,1.7-1.8,5-0.5L46.2,94.6z"/>
<path class="st8" d="M71.4,71.7c0.9,0.7,3.1,2.2,3.7,3.7c0.4,1,0.3,2.2-0.4,2.8c-0.4,0.3,1.1,2.4,1.8,9.4c0.5,4.7,0.4,10.6,0.4,10.6
	s3.2-0.3,4.9-1.5c0-0.4,2.2-11.6,0.4-17.2c-1.4-4.5-5.2-7-7.4-7.7C74.8,71.7,72.7,71.6,71.4,71.7z"/>
<path class="st9" d="M82,95c-1.2,0.4-2.7,0.9-3.3,1c0.2-10.6-1.9-16.7-2.2-17.6c0.4-0.7,0.6-1.7,0.5-2.4c-0.2-1.6-1.4-3.1-3.4-4.4
	c-0.3,0-0.5,0-0.8,0c2.3,1.2,3.6,2.8,3.8,4.4c0.1,0.7-0.1,1.7-0.5,2.2c0,0.1,0,0.1,0,0.2c0,0.1,2.6,6.3,2.2,17.8
	c0,0.1,0,0.1,0.1,0.2c0,0,0.1,0,0.1,0c0,0,0,0,0,0c0.1,0,1.9-0.5,3.4-1C82,95.3,82,95.2,82,95z"/>
<path class="st5" d="M71.4,180.8c0.4-2,1.6-3.4,5.4-2.7c5.4,0.9,8.8,0,10.1-2.7c1.5-3.2-0.3-7.1-7.6-6.4c-6.7,0.7-11.1,0.3-12.7-2.4
	c0,0,0.2,2.7,5,4.1c6,1.7,9.7-0.2,11.6,2.3c0.5,0.6,0.4,2.5-1.2,3.1c-1,0.4-2.8,0.4-4.8,0.2C71.9,175.7,70.9,179.4,71.4,180.8z"/>
<path class="st20" d="M37.7,178.1c-0.2,0-0.6-0.1-0.8-0.2c-0.9-0.4-1.4-1.3-1.4-2.5c0-0.5,0.2-1,0.6-1.3c0.4-0.3,0.9-0.3,1.2-0.1
	c0.6,0.3,1,0.9,1,1.7c0,0.5-0.3,0.8-0.6,0.9c-0.3,0.1-0.6-0.1-0.7-0.4c-0.1-0.2-0.1-0.3,0.2-0.5c0.3-0.2,0.3,0,0.4,0.1
	c0,0,0-0.1,0-0.2c0-0.5-0.2-1-0.6-1.1c-0.1-0.1-0.2,0-0.2,0c-0.1,0.1-0.3,0.4-0.3,0.7c0,1,0.4,1.7,1,2c0.2,0.1,0.4,0.1,0.6,0
	c0.3-0.2,0.4-0.6,0.4-1.1c0-1.5-0.9-2.6-1.8-3.7l-0.1-0.2c-0.5-0.6-0.9-1.1-1.3-1.6c-0.4-0.5-0.9-1.1-1.4-1.8
	c-1.8-2.3-1.8-3.9-1.3-4.5c0.7-1,1.9-1.6,3.6-0.6c1.6,0.9,3.4,1.9,4.1,2.8c0.8,1,0.2,1.7-0.2,2.6c-0.2,0.4,0,0.6,0.3,0.9
	c0.3,0.3,0.3,0.6,0.3,0.6c0.2,0.1-0.1,0.3-0.2,0.5c-0.1,0.2-0.2,0.3-0.4,0.2c-0.1,0-0.6-0.2-0.9-0.8c-0.2-0.4-0.2-1,0.1-1.5
	c0.4-0.9,0.4-1.2-0.1-1.9c-0.6-0.8-2.1-1.6-3.6-2.4c-0.7-0.4-2-0.6-2.4-0.1c-0.3,0.4,0.3,1.5,1.8,3.4c0.5,0.7,0.9,1.2,1.4,1.7
	c0.4,0.5,0.9,1.1,1.3,1.7l0.1,0.2c0.9,1.2,1.8,2.6,1.8,4.3c0,0.8-0.6,1.4-1.1,1.8C38.2,178,38,178.1,37.7,178.1z"/>
<path class="st21" d="M37.7,178.1c-0.2,0-0.6-0.1-0.8-0.2c-0.9-0.4-1.4-1.3-1.4-2.5c0-0.5,0.2-1,0.6-1.3c0.4-0.3,0.9-0.3,1.2-0.1
	c0.6,0.3,1,0.9,1,1.7c0,0.5-0.3,0.8-0.6,0.9c-0.3,0.1-0.6-0.1-0.7-0.4c-0.1-0.2-0.1-0.3,0.2-0.5c0.3-0.2,0.3,0,0.4,0.1
	c0,0,0-0.1,0-0.2c0-0.5-0.2-1-0.6-1.1c-0.1-0.1-0.2,0-0.2,0c-0.1,0.1-0.3,0.4-0.3,0.7c0,1,0.4,1.7,1,2c0.2,0.1,0.4,0.1,0.6,0
	c0.3-0.2,0.4-0.6,0.4-1.1c0-1.5-0.9-2.6-1.8-3.7l-0.1-0.2c-0.5-0.6-0.9-1.1-1.3-1.6c-0.4-0.5-0.9-1.1-1.4-1.8
	c-1.8-2.3-1.8-3.9-1.3-4.5c0.7-1,1.9-1.6,3.6-0.6c1.6,0.9,3.4,1.9,4.1,2.8c0.8,1,0.2,1.7-0.2,2.6c-0.2,0.4,0,0.6,0.3,0.9
	c0.3,0.3,0.3,0.6,0.3,0.6c0.2,0.1-0.1,0.3-0.2,0.5c-0.1,0.2-0.2,0.3-0.4,0.2c-0.1,0-0.6-0.2-0.9-0.8c-0.2-0.4-0.2-1,0.1-1.5
	c0.4-0.9,0.4-1.2-0.1-1.9c-0.6-0.8-2.1-1.6-3.6-2.4c-0.7-0.4-2-0.6-2.4-0.1c-0.3,0.4,0.3,1.5,1.8,3.4c0.5,0.7,0.9,1.2,1.4,1.7
	c0.4,0.5,0.9,1.1,1.3,1.7l0.1,0.2c0.9,1.2,1.8,2.6,1.8,4.3c0,0.8-0.6,1.4-1.1,1.8C38.2,178,38,178.1,37.7,178.1z"/>
<path class="st11" d="M40.7,170.6c0,0-0.1-0.3-0.3-0.6c-0.3-0.3-0.5-0.5-0.3-0.9c0.3-0.6,0.6-1.1,0.6-1.7l-0.7,0.4
	c0,0.3-0.1,0.6-0.3,1.1c-0.2,0.4-0.2,0.7-0.2,1v0c0,0.2,0,0.4,0.1,0.5c0.3,0.6,0.9,0.8,0.9,0.8c0,0,0,0,0,0c0,0,0.1-0.1,0.1-0.1
	C40.6,171,40.9,170.7,40.7,170.6z"/>
<path class="st11" d="M38.7,177.7c0.4-0.4,0.8-0.9,0.8-1.6c0-1.7-0.9-3.2-1.8-4.3l-0.1-0.2c-0.5-0.6-0.9-1.2-1.3-1.7
	c-0.4-0.5-0.8-1-1.4-1.7c-1.5-2-2.1-3-1.8-3.4c-0.4,0.4-0.5,1.1-0.3,1.6c0.2,0.7,0.7,1.4,1.3,2.3c0.5,0.7,1,1.2,1.4,1.8
	c0.4,0.5,0.8,1,1.3,1.6l0.1,0.2c0.9,1.1,1.7,2.3,1.8,3.7c0,0.5,0,1.2-0.4,1.7c-0.2,0.3-0.5,0.5-1,0.5c0.2,0,0.5,0,0.7-0.1
	C38.3,178,38.5,177.8,38.7,177.7z"/>
<path class="st11" d="M38.5,176.2L38.5,176.2c0,0.5-0.2,0.9-0.4,1c-0.2,0.1-0.4,0.1-0.6,0c-0.6-0.3-1-1.1-1-2c0-0.3,0.1-0.6,0.3-0.7
	c0,0,0.1-0.1,0.2,0c-0.3-0.3-0.9,0-1.1,0.4c-0.1,0.4-0.1,0.8,0,1.3c0.1,0.5,0.8,1.6,1.7,1.4C38.4,177.6,38.5,176.7,38.5,176.2z"/>
<path class="st11" d="M37.5,175.9c-0.1-0.1-0.2-0.2-0.3-0.1c-0.1,0-0.2,0.1-0.2,0.1C36.9,176.1,37.3,176.4,37.5,175.9z"/>
<path class="st7" d="M33.4,164.5C33.4,164.5,33.5,164.5,33.4,164.5C33.5,164.5,33.4,164.5,33.4,164.5z"/>
<path class="st7" d="M33.2,164.6C33.2,164.6,33.2,164.6,33.2,164.6C33.2,164.7,33.2,164.7,33.2,164.6
	C33.2,164.7,33.2,164.7,33.2,164.6z"/>
<path class="st12" d="M52.7,186.7c0.1-0.1,0.1-0.2,0.2-0.3c0,0,0,0,0-0.1c0-0.1,0.1-0.1,0.1-0.2c0,0,0,0,0-0.1
	c0-0.1,0.1-0.2,0.1-0.3c0,0,0,0,0,0c0-0.1,0-0.2,0-0.3c0,0,0-0.1,0-0.1c0-0.1,0-0.1,0-0.2c0,0,0-0.1,0-0.1c0-0.1,0-0.1,0-0.2
	c0,0,0-0.1,0-0.1c0-0.1-0.1-0.2-0.1-0.3c0,0,0-0.1,0-0.1c0-0.1-0.1-0.1-0.1-0.2c0,0-0.1-0.1-0.1-0.1c0,0,0-0.1-0.1-0.1
	c0,0-0.1-0.1-0.1-0.1c0,0,0,0-0.1-0.1c-1.2-1.4-3-2.3-5.1-2.3c-2,0-3.8,0.9-5.1,2.3c0,0,0,0,0,0c0,0-0.1,0.1-0.1,0.1
	c0,0,0,0.1-0.1,0.1c0,0-0.1,0.1-0.1,0.1c0,0.1-0.1,0.1-0.1,0.2c0,0,0,0,0,0.1c0,0.1-0.1,0.2-0.1,0.3c0,0,0,0.1,0,0.1
	c0,0.1,0,0.1-0.1,0.2c0,0,0,0.1,0,0.1c0,0.1,0,0.1,0,0.2c0,0,0,0,0,0.1c0,0.2,0,0.4,0.1,0.6c0,0,0,0,0,0.1c0,0.1,0.1,0.2,0.1,0.2
	c0,0,0,0,0,0.1c0,0.1,0.1,0.2,0.2,0.3c0,0,0,0,0,0c0.1,0.1,0.1,0.2,0.2,0.3c0,0,0,0,0,0c0.1,0.1,0.2,0.2,0.3,0.2c0,0,0,0,0.1,0.1
	c0.1,0.1,0.2,0.1,0.3,0.2c0,0,0,0,0.1,0c0.1,0.1,0.2,0.2,0.4,0.2c2.2,1.3,5.9,1.3,8.1,0c0.1-0.1,0.3-0.2,0.4-0.2c0,0,0.1,0,0.1-0.1
	c0.1-0.1,0.2-0.1,0.3-0.2c0,0,0,0,0.1-0.1c0.1-0.1,0.2-0.2,0.2-0.2c0,0,0,0,0,0C52.5,186.9,52.6,186.8,52.7,186.7
	C52.7,186.7,52.7,186.7,52.7,186.7z"/>
<path class="st22" d="M48.2,183.5c-0.2,0.1,0.2,0.9,0.7,2.5c0.3,0.8,0.4,2,1.7,1.3c1.2-0.6,0.2-2-0.7-2.9
	C49,183.6,48.4,183.4,48.2,183.5z"/>
<path class="st22" d="M48.4,182.9c0.1,0.1,0.9,0.2,2.1,1.3c0.7,0.6,1.2,1.4,1.4,1.5c0.2,0.1,0.4-1,0-1.5c-0.4-0.5-1.2-1.2-2-1.4
	C49.1,182.5,48.2,182.8,48.4,182.9z"/>
<path class="st22" d="M47.3,188c-1.3,0-1.5-0.2-1-2.3c0.3-1.1,0.8-2.2,1-2.2c0.2,0,0.7,1.1,1,2.2C48.8,187.8,48.6,188,47.3,188z"/>
<path class="st22" d="M46.5,183.5c0.2,0.1-0.2,0.9-0.7,2.5c-0.3,0.8-0.4,2-1.7,1.3c-1.2-0.6-0.2-2,0.7-2.9
	C45.6,183.6,46.2,183.4,46.5,183.5z"/>
<path class="st22" d="M46.3,182.9c-0.1,0.1-0.9,0.2-2.1,1.3c-0.7,0.6-1.2,1.4-1.4,1.5c-0.2,0.1-0.4-1,0-1.5c0.4-0.5,1.2-1.2,2-1.4
	C45.6,182.5,46.5,182.8,46.3,182.9z"/>
<path class="st13" d="M46.6,184.3c2,0.4,3.9,0.2,6.1,0c0,0,0-0.1-0.1-0.1c0,0-0.1-0.1-0.1-0.1c0,0,0-0.1-0.1-0.1
	c0,0-0.1-0.1-0.1-0.1c0,0,0,0-0.1-0.1c-1.2-1.4-3-2.3-5.1-2.3c-1.6,0-3.1,0.6-4.3,1.5C44,183.6,45.2,184.1,46.6,184.3z"/>
<path class="st21" d="M43.4,168.1c-3.8,1.3-5,4.7-4.4,7.6c0.6,2.9,2.8,6.1,7.9,7.1c5.1,0.9,9.8-1.6,19.7,0.5
	c1.6,0.3,3.3,0.8,3.8,0.5c0.5-0.4,0.3-1.1-0.5-1.8c-0.5-0.4-1.3-0.7-2-0.9c-1.7-0.5-7.6-1.2-10.1-4.1c-1.6-1.9-1.7-5.5-4.5-7.3
	C50,167.4,46.6,167.1,43.4,168.1z"/>
<path class="st23" d="M53.8,174c-2.4,2.7-5.9,3.3-9.3,3.2c-0.3,0-0.7,0.1-0.7,0.4c0,0.2,0.1,0.3,0.2,0.4c1.7,1.6,4.1,2,6.4,2
	c2.3,0,4.2-0.4,6.8-0.3c0.6,0,1.3,0.1,1.9,0.2c0.6,0.1,1.5,0.3,1.9,0.1c0.3-0.2-0.8-0.5-1.2-0.6c-1.2-0.4-2.3-1.1-3.2-2
	c-0.4-0.5-0.8-0.9-1.1-1.4c-0.3-0.6-0.5-1.2-0.8-1.8c-0.1-0.2-0.3-0.5-0.6-0.4C54.1,173.6,54,173.8,53.8,174
	C53.9,173.9,53.9,173.9,53.8,174z"/>
<path class="st7" d="M67,182.3c-0.9-0.6-5.2-1.8-8.4-1.9c-3.9-0.1-9.5,1.3-13.5-0.1c-6.4-2.1-6.2-6.8-6-7.9
	c-0.3,1.1-0.4,2.3-0.1,3.4c0.6,2.9,2.8,6.1,7.9,7.1c5.1,0.9,9.8-1.6,19.7,0.5c1.2,0.3,2.4,0.6,3.1,0.6
	C67.9,183.8,67.4,182.9,67,182.3z"/>
<path class="st12" d="M47.3,175.2c3.7,0,6.7-1.7,6.7-3.9c0-0.5-0.1-0.9-0.4-1.3c-0.1-0.1-0.2-0.2-0.4-0.3c-3.1-2.1-6.2-2.6-9.2-1.8
	c-2,0.7-3.4,1.9-3.4,3.4C40.6,173.5,43.6,175.2,47.3,175.2z"/>
<path class="st21" d="M53.1,169.4c0,0-0.1-0.1-0.1-0.2c-1.4-1.6-3.4-2.6-5.6-2.6c-2.2,0-4.2,1-5.6,2.6c0,0.1-0.1,0.1-0.1,0.2
	c-1.1,1.4-0.7,3,1.3,4.1c2.5,1.4,6.5,1.4,8.9,0C53.7,172.4,54.1,170.7,53.1,169.4z"/>
<path class="st12" d="M48,166.3c0-0.1-0.1-0.2-0.2-0.3c-0.3-0.2-0.7-0.2-1,0c-0.1,0.1-0.2,0.2-0.2,0.3l0,0v1.8h0
	c0,0.1,0,0.2,0.2,0.3c0.3,0.2,0.7,0.2,1,0c0.2-0.1,0.2-0.2,0.2-0.3h0V166.3z"/>
<path class="st7" d="M48,166.4c0,0,0-0.1,0-0.1c-0.1-0.1-0.3-0.2-0.5-0.3c-0.1,0-0.1,0-0.2,0c0,0,0,0,0,0c0,0,0,0,0,0
	c-0.1,0-0.1,0-0.2,0c-0.2,0-0.3,0.1-0.5,0.3c0,0,0,0.1,0,0.1v1.1c0.2,0.2,0.4,0.3,0.7,0.3c0.3,0,0.5-0.1,0.7-0.3V166.4z"/>
<circle class="st21" cx="47.3" cy="166.2" r="1.2"/>
<path class="st24" d="M46.7,166c0,0.5,0.4,0.9,0.9,0.9s0.9-0.4,0.9-0.9c0,0,0,0,0,0c-0.1-0.4-0.4-0.8-0.9-0.9c0,0,0,0,0,0
	C47.1,165.1,46.7,165.5,46.7,166z"/>
<path class="st25" d="M48.5,166C48.5,166,48.5,166,48.5,166c0,0.5-0.4,0.9-0.9,0.9s-0.9-0.4-0.9-0.9c0-0.5,0.4-0.9,0.9-0.9
	c0,0,0,0,0,0c-0.1,0-0.2,0-0.3,0c-0.7,0-1.2,0.5-1.2,1.2c0,0.7,0.5,1.2,1.2,1.2c0.7,0,1.2-0.5,1.2-1.2
	C48.5,166.1,48.5,166.1,48.5,166z"/>
<path class="st20" d="M68.1,181.9c-0.4,0.1-0.3,0.6,0.2,1c0.5,0.4,1.2,0.6,1.5,0.4c0.4-0.1,0.3-0.6-0.2-1
	C69.1,181.9,68.4,181.7,68.1,181.9z"/>
<path class="st11" d="M68.1,181.9c-0.4,0.1-0.3,0.6,0.2,1c0.5,0.4,1.2,0.6,1.5,0.4c0.4-0.1,0.3-0.6-0.2-1
	C69.1,181.9,68.4,181.7,68.1,181.9z"/>
<path class="st26" d="M48.3,168.7c-0.3,0.1,0.3,1.1,0.9,2.9c0.3,1,0.5,2.3,2,1.6c1.4-0.7,0.2-2.4-0.9-3.4
	C49.4,168.8,48.6,168.7,48.3,168.7z"/>
<path class="st26" d="M48.6,168.1c0.1,0.1,1,0.2,2.5,1.5c0.8,0.7,1.4,1.6,1.7,1.8c0.3,0.1,0.5-1.2,0-1.8c-0.5-0.6-1.4-1.4-2.4-1.7
	C49.4,167.6,48.3,168,48.6,168.1z"/>
<path class="st26" d="M47.3,174.1c-1.5,0-1.8-0.3-1.2-2.7c0.3-1.3,0.9-2.6,1.2-2.6c0.3,0,0.9,1.3,1.2,2.6
	C49.1,173.8,48.8,174.1,47.3,174.1z"/>
<path class="st26" d="M46.3,168.7c0.3,0.1-0.3,1.1-0.9,2.9c-0.3,1-0.5,2.3-2,1.6c-1.4-0.7-0.2-2.4,0.9-3.4
	C45.3,168.8,46,168.7,46.3,168.7z"/>
<path class="st26" d="M46.1,168.1c-0.1,0.1-1,0.2-2.5,1.5c-0.8,0.7-1.4,1.6-1.7,1.8c-0.3,0.1-0.5-1.2,0-1.8c0.5-0.6,1.4-1.4,2.4-1.7
	C45.3,167.6,46.3,168,46.1,168.1z"/>
<g id="Character_7_">
	<g id="XMLID_1982_">
		<path id="XMLID_475_" class="st27" d="M145.3,119.7c2.3-0.5,4.8,1.1,6.6,4.7c1.7,3.5,6.5,12.2,6.6,14.7c0.1,2.5-10.2,10.5-10,10.3
			c0.1,0-2.3-4.9-2.3-4.9l5.7-5.7l-3.4-6.7L145.3,119.7z"/>
	</g>
	<path id="XMLID_2325_" class="st12" d="M144.1,119.2c1.9-0.2,5.4,0.5,6.7,2.8c1.9,3.3,3.5,6.4,6,11c0,0-1.7,3.6-6.5,3.9l-2.2-4.2
		L144.1,119.2z"/>
	<g id="XMLID_2272_">
		<g id="XMLID_460_">
			<g id="XMLID_2323_">
				<path id="XMLID_2324_" class="st11" d="M147.9,202.1c0.3,0.1,0.4,0.7,0.4,1.9c0,0.9,0.2,2.4-0.9,2.7c-1,0.3-2.5,0.1-3.1-0.7
					c-0.8-1-1.3-2-2.5-3.2c-1-1.1-2.1-2.1-2.4-3.7c-0.3-1.4,0-2,0.9-2.3c1.3-0.5,3.3,1.3,4.3,1.6
					C145.4,198.5,147.6,201.9,147.9,202.1z"/>
			</g>
			<g id="XMLID_2317_">
				<path id="XMLID_2322_" class="st27" d="M147.9,201l0,1.4c0,0-1.5,1.1-3.6,0c-0.1-0.1-0.3-2-0.3-2L147.9,201z"/>
			</g>
			<g id="XMLID_2315_">
				<path id="XMLID_2316_" class="st11" d="M136.3,209.9c0,0,0.4,1.2,0.6,2.3c0.2,0.9,0.4,2.3,0.1,2.9c-0.3,0.6-1.5,1-3.3,1
					c-1.2,0-3,0.7-4.3,1.4c-1.3,0.7-4,0.9-5.4,0.7c-1.6-0.2-3.2-1.2-3.5-1.9c-0.2-0.7,0.1-1.4,3.9-2.9c0,0,5.3-1.6,7.2-3.6
					L136.3,209.9z"/>
			</g>
			<g id="XMLID_2313_">
				<path id="XMLID_2314_" class="st27" d="M136.3,208.4c0,0,0,1,0,1.6c0,0.6-0.7,1.5-2.6,1.4c-1.3-0.1-2.2-0.4-2.1-1.5l0-1.5
					L136.3,208.4z"/>
			</g>
			<g id="XMLID_2311_">
				<path id="XMLID_2312_" class="st12" d="M149.2,182.3c-0.5-4.6-1.5-7.4-1.5-7.4s0.6-6.3,1-12.3c0.4-6.5,0.3-14.7,0.5-16.3
					c0,0-20.1-4.6-20.7,2.9c-0.6,8.4,0,27,0.2,29.4c0.2,3.3,0.2,6.7,0.7,12.1c0.6,5.3,2.2,17.8,2.2,17.8c2.4,1.3,4.7,0,4.7,0
					s1.8-15,1.7-18.8c-0.1-4.7-1.3-8.3-1.3-8.3l2.5-20.9c0,0,0.3,9.3,0.4,12.6c0.2,3.3,0.6,5.3,1.4,11.5c0.7,5.3,2.9,16.6,2.9,16.6
					c2.4,1.3,3.8-0.1,3.8-0.1S149.8,186.9,149.2,182.3z"/>
			</g>
			<g id="XMLID_2309_">
				<path id="XMLID_2310_" class="st11" d="M146.6,156c0,0-2.4,3.3-5.6,4.7c0,0-1.4,11.5-1.4,11.3l-0.4-11.6
					C139.3,160.4,144,158.2,146.6,156z"/>
			</g>
		</g>
		<g id="XMLID_450_">
			<g id="XMLID_453_">
				<polygon id="XMLID_454_" class="st27" points="135.3,116.6 136.3,123.5 143.1,123.1 142.2,115.1 				"/>
			</g>
		</g>
		<g id="XMLID_447_">
			<g id="XMLID_448_">
				<path id="XMLID_449_" class="st28" d="M148.6,123.2c-0.6-1.9-2.4-4.3-4.8-3.9c-0.5,0.1-0.6,0.1-1.1,0.2
					c-0.3,1.2-3.8,2.1-6.8,1.4c-0.9,0.2-1.7,0.5-2.5,0.7c-2.2,0.7-4.2,2.5-4.5,9.6c0,0-0.6,16.4-0.5,20.8c5.4,2.3,10.2,2.3,13.3,1.7
					c6.5-1.3,7.6-4.1,7.6-4.1s0.2-12.8,0.2-18C149.4,127.3,148.9,124.4,148.6,123.2z"/>
			</g>
		</g>
		<g id="XMLID_440_">
			<g id="XMLID_443_">
				<path id="XMLID_446_" class="st29" d="M130.7,108.2c0,0-1.6,2.5-1.4,2.7c0.2,0.2,1.4,0.5,1.4,0.5L130.7,108.2z"/>
			</g>
			<g id="XMLID_441_">
				<path id="XMLID_442_" class="st27" d="M135.2,101.4c-3.3,0.7-4.2,2.1-4.5,7.3c-0.3,5.4,0.2,7.2,0.9,7.9c0.5,0.5,3.2,0.6,4.5,0.2
					c1.7-0.5,5.5-1.8,7.3-4.6c2.1-3.2,2.7-7.6,0.4-9.4C140.7,100.4,136.5,101.1,135.2,101.4z"/>
			</g>
			<path class="st29" d="M135.3,117c0,0,0.9-0.2,1.7-0.4c0,0-0.5,0.6-1.6,0.9L135.3,117z"/>
		</g>
		<g id="XMLID_2286_">
			<g id="XMLID_424_">
				<g id="XMLID_425_">
					<path id="XMLID_426_" class="st11" d="M130,103.4c0.2,0.3,0.5,0.5,0.8,0.7c0.4,0.3,0.9,0.5,1.4,0.8c0.4,0.2,0.9,0.3,1.3,0.6
						c0.6,0.4,0.7,1,0.7,1.7c0,0.4,0,1,0,1.6c0,0.9,0.6,1.6,0.9,0.4c0,0,0.5-2,2.2-1.8c1.7,0.3,1.8,2.2,1,3.7
						c-0.5,0.9-1.8,0.7-1.8,0.7s-0.3,2.5,1.8,4.6c0,0,1.3,0.4,4-0.2c1.6-0.3,3.2-2.2,4.2-4.3c2.1-4.6,2.2-8.7-0.7-10
						c-0.3-2.1-2-3.1-3.9-3.5c-2.8-0.7-5.5,1-8.3,0.4c-0.5-0.1-0.9-0.2-1.4-0.4c-0.2-0.1-0.4-0.1-0.6,0c-0.2,0.1-0.3,0.4-0.3,0.6
						c0,0.5,0.4,1.1,0.8,1.3c-0.1,0-0.3,0-0.4,0c-0.2,0-0.3,0-0.5,0c-0.3,0-0.6,0-0.9-0.1c-0.2,0-0.4,0-0.6,0
						c-0.5,0.1-0.7,0.7-0.7,1.2c0,0.5,0.3,0.9,0.5,1.4c0.1,0.2,0.2,0.3,0.3,0.5C129.9,103.3,130,103.4,130,103.4z"/>
				</g>
			</g>
			<g id="XMLID_2291_">
				<g id="XMLID_2292_">
					<path id="XMLID_423_" class="st11" d="M145.8,102.5l2-1.2c-0.3-0.5-1-0.7-1.6-0.4C145.7,101.3,145.5,102,145.8,102.5z"/>
				</g>
			</g>
		</g>
	</g>
	<path id="XMLID_422_" class="st27" d="M107.1,133.3c1,0.5,13,9.9,14.9,8.9c1.9-1,11.7-12.1,11.7-12.1c2.9-4.5-0.1-8.5-0.1-8.5
		s-3.1,0.5-4.7,2.9c-1.7,2.4-8.8,10.9-8.8,10.9c-1.7-0.9-3.4-1.8-5.1-2.7c-1.4-0.8-2.8-1.5-4.1-2.3c-0.3-0.2-0.8-0.4-1.1-0.7
		c-0.7-0.7-0.5-2.3-0.5-3.2c0-0.4,0-0.8,0.1-1.2c0.1-0.5,0.2-1.7-0.7-1.4c-0.2,0.1-0.3,0.2-0.4,0.4c-0.1,0.2-0.3,0.4-0.3,0.6
		c-0.2,0.5-0.1,1.1-0.3,1.6c0,0.1-0.1,0.2-0.1,0.2c-0.1,0.1-0.2,0.1-0.3,0.1c-1.3-0.1-2.5-1.9-3.1-2.9c-0.3-0.4-0.5-0.9-1-1.2
		c-0.7-0.4-1.6,0.1-2.1,0.7c-0.6,0.8-0.8,1.9-0.7,2.9c0.1,1.4,0.6,2.7,1.6,3.7C103.5,131.5,105.2,132.4,107.1,133.3z"/>
	<path id="XMLID_393_" class="st12" d="M134.6,121.2c-1.3,0.1-3.5,0.2-5.7,2.6c-2.6,2.8-6.5,8.3-6.5,8.3s0.5,4.1,4.7,5.7
		c0,0,6.2-5.6,7.5-8.1C135.8,127.1,136.1,123,134.6,121.2z"/>
</g>
<g id="Speach_Bubble_2_">
	<g id="XMLID_732_">
		<path id="XMLID_799_" class="st30" d="M135.2,90.8l-1.2-2.2l0.9-2.7v-1.6l-2.8,1.6v1.6l1.2,2.1c0,0,0.1,0.1,0.1,0.1l0,0
			L135.2,90.8z"/>
		<path id="XMLID_1056_" class="st31" d="M135.2,90.8l-1.2-2.2l0.9-2.7v-1.6l-2.8,1.6v1.6l1.2,2.1c0,0,0.1,0.1,0.1,0.1l0,0
			L135.2,90.8z"/>
		<path id="XMLID_1057_" class="st32" d="M147.4,71.5c0-0.5-0.4-1.2-0.9-1.5l-0.7-0.4c-0.5-0.3-1.2-0.3-1.7,0l-16.1,9.3
			c-0.5,0.3-0.9,0.9-0.9,1.5v8.3c0,0.5,0.4,1.2,0.9,1.5l0.7,0.4c0.5,0.3,1.2,0.3,1.7,0l3.4-2l1.2,2.1c0.1,0.1,0.3,0.1,0.3,0l1.3-3.7
			l9.8-5.7c0.5-0.3,0.9-0.9,0.9-1.5L147.4,71.5z"/>
		<path id="XMLID_756_" class="st33" d="M127.2,88.7c0,0.5,0.4,1.2,0.9,1.5l0.7,0.4c0.4,0.2,1.1,0.3,1.6,0.1
			c-0.4,0.2-0.7-0.1-0.7-0.6l0-8.3c0-0.3,0.1-0.6,0.3-0.8l-2.4-1.4c-0.2,0.3-0.2,0.6-0.2,0.8V88.7z"/>
		<g id="XMLID_734_">
			<path id="XMLID_3382_" class="st34" d="M147.4,71.2c-0.1-0.4-0.4-0.5-0.8-0.3l-16.1,9.3c-0.2,0.1-0.5,0.4-0.6,0.6l-2.4-1.4
				c0.2-0.3,0.4-0.5,0.6-0.6l16.1-9.3c0.5-0.3,1.2-0.3,1.7,0l0.7,0.4C147,70.2,147.3,70.7,147.4,71.2z"/>
		</g>
	</g>
	<g id="XMLID_699_">
		<path id="XMLID_728_" class="st1" d="M134.3,81.9c-0.6,0.4-1.1,1.2-1.1,2c0,0.7,0.5,1,1.1,0.7c0.6-0.4,1.1-1.2,1.1-2
			C135.5,81.8,135,81.5,134.3,81.9z"/>
		<path id="XMLID_701_" class="st1" d="M138.5,79.5c-0.6,0.4-1.1,1.2-1.1,2c0,0.7,0.5,1,1.1,0.7c0.6-0.4,1.1-1.2,1.1-2
			C139.7,79.4,139.2,79.1,138.5,79.5z"/>
		<path id="XMLID_700_" class="st1" d="M142.7,77c-0.6,0.4-1.1,1.2-1.1,2c0,0.7,0.5,1,1.1,0.7c0.6-0.4,1.1-1.2,1.1-2
			C143.9,77,143.4,76.7,142.7,77z"/>
	</g>
</g>
</svg>
