<?xml version="1.0" encoding="utf-8"?>
<!-- Generator: Adobe Illustrator 24.0.2, SVG Export Plug-In . SVG Version: 6.00 Build 0)  -->
<svg version="1.1" id="Layer_1" xmlns="http://www.w3.org/2000/svg" xmlns:xlink="http://www.w3.org/1999/xlink" x="0px" y="0px"
	 viewBox="0 0 49 38" style="enable-background:new 0 0 49 38;" xml:space="preserve">
<style type="text/css">
	.st0{fill:url(#SVGID_1_);}
	.st1{fill:url(#SVGID_2_);}
	.st2{fill:url(#SVGID_3_);}
	.st3{fill:url(#SVGID_4_);}
</style>
<g>
	<linearGradient id="SVGID_1_" gradientUnits="userSpaceOnUse" x1="0.5" y1="28.4211" x2="27.7435" y2="28.4211">
		<stop  offset="0" style="stop-color:#5A9491"/>
		<stop  offset="1" style="stop-color:#264749"/>
	</linearGradient>
	<path class="st0" d="M9.6,19c1,2.8,2.1,5.5,3.1,8.3c0,0,0.1,0,0.1,0c0.1-0.8,0.2-1.7,0.3-2.5c0.1-0.9,0.2-1.8,0.3-2.6
		c0-0.2-0.1-0.4-0.2-0.5c-0.1-0.1-0.2-0.3-0.3-0.4c-0.3-0.2-0.4-0.5-0.3-0.9c0.2-0.4,0.4-0.6,0.9-0.6c0.5,0,0.9,0,1.4,0
		c0.4,0,0.7,0.3,0.8,0.6c0.1,0.3,0.1,0.6-0.2,0.9C15,21.6,14.9,22,15,22.5c0.2,1.5,0.3,3,0.5,4.6c0,0.1,0,0.2,0.1,0.3
		c1.1-2.8,2.1-5.6,3.2-8.4c1.7,0.5,3.4,1.1,5,1.6c0.4,0.1,0.9,0.4,1.3,0.6c1.3,0.7,2,1.8,2.1,3.3c0.2,2.2,0.3,4.3,0.4,6.5
		c0.1,1.6,0.2,3.2,0.2,4.8c0,1.3-0.6,2-1.9,2c-7.7,0-15.5,0-23.2,0c-0.1,0-0.3,0-0.4,0c-1.2-0.1-1.7-0.6-1.7-1.7
		c0-1.2,0.1-2.3,0.1-3.5c0.1-2,0.2-4,0.4-6c0.1-1,0.1-2,0.3-2.9c0.3-1.3,1.2-2.3,2.5-2.7c1.9-0.7,3.8-1.3,5.6-2
		C9.5,19,9.5,19,9.6,19z"/>
	<linearGradient id="SVGID_2_" gradientUnits="userSpaceOnUse" x1="19.2874" y1="12.0829" x2="45.0602" y2="12.0829">
		<stop  offset="0" style="stop-color:#5A9491"/>
		<stop  offset="1" style="stop-color:#264749"/>
	</linearGradient>
	<path class="st1" d="M45.1,18.8c-0.2,0-0.4,0-0.5,0c-6.8,0-13.6,0-20.3,0c-0.3,0-0.6-0.1-0.9-0.1c-1.2-0.3-2.4-0.7-3.7-1.1
		c-0.1,0-0.2-0.1-0.4-0.1c0.2-0.3,0.3-0.6,0.5-0.9c0.7-1.4,1.6-2.7,1.9-4.3c0.2-1.5,0.3-2.9,0.4-4.4c0.1-0.8,0-1.6,0-2.5
		c7.7,0,15.3,0,23,0C45.1,9.8,45.1,14.3,45.1,18.8z M33.8,14.9c2.3,0,4.6,0,6.9,0c0.1,0,0.3,0,0.4,0c0.4,0,0.7-0.4,0.7-0.8
		c0-0.4-0.2-0.8-0.6-0.9c-0.2,0-0.4-0.1-0.6-0.1c-4.6,0-9.1,0-13.7,0c-0.2,0-0.3,0-0.5,0c-0.5,0.1-0.8,0.4-0.7,0.9
		c0,0.5,0.4,0.8,1,0.8C29.1,14.9,31.4,14.9,33.8,14.9z M37.9,11.1c1,0,2,0,3,0c0.5,0,0.9-0.3,1-0.8c0-0.5-0.4-0.9-0.9-0.9
		c-2,0-3.9,0-5.9,0c-0.6,0-0.9,0.4-0.9,0.9c0,0.5,0.4,0.8,0.9,0.8C36,11.1,36.9,11.1,37.9,11.1z M28.7,11.1c0.7,0,1.4,0,2.1,0
		c0.5,0,0.9-0.4,0.9-0.9c0-0.5-0.4-0.9-0.9-0.9c-1.4,0-2.8,0-4.2,0c-0.6,0-0.9,0.4-0.9,0.9c0,0.5,0.4,0.8,0.9,0.8
		C27.3,11.1,28,11.1,28.7,11.1z"/>
	<linearGradient id="SVGID_3_" gradientUnits="userSpaceOnUse" x1="20.4426" y1="12.0728" x2="48.5" y2="12.0728">
		<stop  offset="0" style="stop-color:#5A9491"/>
		<stop  offset="1" style="stop-color:#264749"/>
	</linearGradient>
	<path class="st2" d="M46.2,19.9c0-5.3,0-10.5,0-15.7c-0.2,0-0.4,0-0.5,0c-7.7,0-15.3,0-23,0c-0.4,0-0.6-0.1-0.8-0.4
		c-0.4-0.6-0.9-1.2-1.4-1.9c9.4,0,18.7,0,28.1,0c0,6.8,0,13.5,0,20.3c-0.2,0-0.3,0-0.4,0c-6.5,0-13,0-19.5,0c-0.3,0-0.4-0.1-0.6-0.3
		c-0.4-0.8-1.1-1.4-2-2C32.8,19.9,39.5,19.9,46.2,19.9z"/>
	<linearGradient id="SVGID_4_" gradientUnits="userSpaceOnUse" x1="7.8865" y1="9.0977" x2="20.2468" y2="9.0977">
		<stop  offset="0" style="stop-color:#5A9491"/>
		<stop  offset="1" style="stop-color:#264749"/>
	</linearGradient>
	<path class="st3" d="M8.3,3.3c-0.1,0-0.1,0.1-0.2,0.1c0-0.1,0-0.1,0-0.1C8.2,3.2,8.2,3,8.4,2.9c1-0.5,1.5-1.4,2.4-2
		c0.7-0.5,1.5-0.5,2.2-0.7c0.3-0.1,0.6-0.1,0.9-0.1c-0.6,0.1-1.1,0.3-1.7,0.4c0,0,0,0.1,0,0.1c0.8-0.1,1.7-0.2,2.5-0.4
		c0,0,0,0.1,0,0.1c-0.2,0.1-0.4,0.1-0.7,0.2c0,0,0,0.1,0,0.1c0.8,0,1.6,0,2.4,0c0,0,0,0.1,0,0.1c-0.3,0-0.7,0-1,0
		C16.6,1.3,18,1.1,19,1.9c-0.5-0.1-1-0.3-1.5-0.4c0,0,0,0.1-0.1,0.1c0.9,0.2,1.4,0.9,1.9,1.5c0.4,0.4,0.7,0.9,0.7,1.5
		c0.1,1.2,0.1,2.4,0.2,3.5c0,1-0.1,1.9-0.1,2.9c0,1.1-0.4,2-1,2.9c-0.4,0.5-0.7,1.1-1,1.7c-1.5,2.8-5.3,3.4-7.3,1
		c-1.1-1.2-1.8-2.7-2.6-4.2c-0.2-0.3-0.2-0.8-0.2-1.2c0-0.5,0-1,0-1.5C8,9,7.9,8.2,7.9,7.4c0-1,0.1-1.9,0.2-2.9
		C8.1,4.1,8.2,3.7,8.3,3.3z M9.3,10.3c-0.1,1,0,1.8,0.6,2.6c0.4,0.6,0.8,1.2,1.2,1.9c0.7,1.3,1.7,2,3.1,2c1.4,0,2.4-0.7,3.1-2
		c0.3-0.6,0.7-1.3,1.1-1.9c0.6-0.8,0.7-1.7,0.6-2.6c-0.3,0-0.5,0-0.7,0c0,0.1,0,0.1-0.1,0.2c-0.2,1-1,1.7-1.9,1.7
		c-1,0-1.7-0.7-1.8-1.8c0-0.2-0.2-0.4-0.4-0.4c-0.3,0-0.3,0.2-0.4,0.4c-0.1,1-0.8,1.7-1.8,1.8c-0.9,0-1.7-0.6-1.9-1.6
		c0-0.2-0.1-0.3-0.4-0.3C9.6,10.3,9.4,10.3,9.3,10.3z M9.3,9.5c0.5,0.1,0.9,0.1,1.2-0.4c0.3-0.5,0.8-0.6,1.3-0.6
		c0.7,0,1.2,0.3,1.6,0.8c0.5,0,0.9,0,1.3,0c0.8-1.1,2.3-1,3-0.1c0.3,0.5,0.7,0.4,1.3,0.4c0-0.8,0-1.5-0.1-2.3c-0.2-1-1.2-1.4-2-0.9
		c-1,0.5-2,0.8-3.1,0.6c-0.9-0.2-1.8-0.5-2.8-0.8C10.6,6,10.1,6,9.8,6.3C9.6,6.6,9.4,7,9.3,7.4C9.3,8,9.3,8.7,9.3,9.5z M11.1,9.5
		c-0.5,0.6-0.4,1.3,0.1,1.6c0.5,0.4,1.2,0.3,1.5-0.2c0.4-0.5,0.3-1-0.2-1.5c-0.1,0.2-0.1,0.3-0.2,0.4c0,0.4-0.2,0.6-0.6,0.6
		c-0.3,0-0.6-0.2-0.6-0.6C11.3,9.8,11.2,9.6,11.1,9.5z M17.1,9.4c-0.1,0.2-0.1,0.3-0.1,0.4c0,0.4-0.3,0.6-0.6,0.6
		c-0.3,0-0.5-0.3-0.6-0.6c0-0.1-0.1-0.3-0.2-0.4c-0.5,0.6-0.5,1.2,0,1.6c0.4,0.4,1.1,0.4,1.5,0C17.5,10.6,17.6,10,17.1,9.4z"/>
</g>
</svg>
