<?xml version="1.0" encoding="UTF-8"?>
<svg xmlns="http://www.w3.org/2000/svg" xmlns:xlink="http://www.w3.org/1999/xlink" width="17pt" height="16pt" viewBox="0 0 17 16" version="1.1">
<g id="surface1">
<path style=" stroke:none;fill-rule:nonzero;fill:rgb(10.196078%,11.372549%,16.078431%);fill-opacity:1;" d="M 13.84375 0.34375 C 13.964844 0.34375 14.207031 0.457031 14.328125 0.457031 C 15.058594 0.6875 15.542969 1.371094 15.421875 2.058594 C 15.421875 3.769531 15.421875 5.601562 15.421875 7.3125 C 15.421875 7.3125 15.421875 7.429688 15.421875 7.429688 C 15.058594 7.3125 14.570312 7.429688 14.207031 7.542969 L 14.207031 2.742188 L 1.699219 2.742188 C 1.699219 2.742188 1.699219 2.855469 1.699219 2.855469 C 1.699219 6.058594 1.699219 9.371094 1.699219 12.570312 C 1.699219 13.027344 1.941406 13.257812 2.429688 13.257812 L 8.5 13.257812 C 8.378906 13.601562 8.257812 14.058594 8.136719 14.398438 C 8.136719 14.398438 8.015625 14.398438 8.015625 14.398438 C 7.894531 14.398438 7.648438 14.398438 7.527344 14.398438 C 5.828125 14.398438 4.007812 14.398438 2.308594 14.398438 C 1.457031 14.398438 0.730469 13.941406 0.363281 13.144531 C 0.363281 13.027344 0.363281 12.914062 0.242188 12.800781 C 0.242188 9.144531 0.242188 5.371094 0.242188 1.714844 C 0.242188 1.714844 0.242188 1.714844 0.242188 1.601562 C 0.363281 1.027344 0.730469 0.570312 1.335938 0.230469 C 1.457031 0.113281 1.699219 0.113281 1.820312 0.113281 L 13.84375 0.113281 Z M 13.84375 0.34375 "/>
<path style=" stroke:none;fill-rule:nonzero;fill:rgb(10.196078%,11.372549%,16.078431%);fill-opacity:1;" d="M 13.113281 10.171875 L 15.058594 12 C 15.058594 12 14.9375 12.113281 14.9375 12.113281 C 13.964844 13.027344 12.992188 13.941406 12.019531 14.855469 C 11.898438 14.972656 11.898438 14.972656 11.777344 14.972656 C 11.050781 15.199219 10.441406 15.3125 9.714844 15.542969 C 9.59375 15.542969 9.59375 15.542969 9.472656 15.542969 C 9.351562 15.542969 9.230469 15.3125 9.351562 15.199219 C 9.59375 14.515625 9.835938 13.828125 9.957031 13.027344 C 9.957031 13.027344 9.957031 12.914062 10.078125 12.914062 C 11.050781 12.113281 12.019531 11.199219 13.113281 10.171875 Z M 11.535156 14.515625 C 11.535156 14.171875 11.414062 13.941406 11.414062 13.714844 C 11.414062 13.714844 11.414062 13.601562 11.292969 13.601562 C 11.050781 13.484375 10.6875 13.484375 10.441406 13.371094 C 10.320312 13.714844 10.199219 14.058594 10.078125 14.398438 C 10.078125 14.515625 10.078125 14.628906 10.199219 14.742188 C 10.320312 14.855469 10.441406 14.855469 10.5625 14.855469 Z M 11.535156 14.515625 "/>
<path style=" stroke:none;fill-rule:nonzero;fill:rgb(10.196078%,11.372549%,16.078431%);fill-opacity:1;" d="M 12.265625 7.429688 L 12.265625 8.570312 L 3.519531 8.570312 L 3.519531 7.429688 Z M 12.265625 7.429688 "/>
<path style=" stroke:none;fill-rule:nonzero;fill:rgb(10.196078%,11.372549%,16.078431%);fill-opacity:1;" d="M 12.265625 5.144531 L 12.265625 6.285156 L 3.519531 6.285156 L 3.519531 5.144531 Z M 12.265625 5.144531 "/>
<path style=" stroke:none;fill-rule:nonzero;fill:rgb(10.196078%,11.372549%,16.078431%);fill-opacity:1;" d="M 11.65625 9.828125 C 11.050781 10.171875 10.5625 10.628906 9.957031 10.972656 C 9.835938 10.972656 9.835938 10.972656 9.714844 10.972656 C 7.648438 10.972656 5.707031 10.972656 3.644531 10.972656 C 3.644531 10.972656 3.519531 10.972656 3.519531 10.972656 L 3.519531 9.828125 Z M 11.65625 9.828125 "/>
<path style=" stroke:none;fill-rule:nonzero;fill:rgb(10.196078%,11.372549%,16.078431%);fill-opacity:1;" d="M 15.664062 11.3125 L 13.84375 9.601562 C 14.085938 9.371094 14.328125 9.027344 14.691406 8.800781 C 14.9375 8.570312 15.300781 8.6875 15.542969 8.800781 C 15.785156 9.144531 16.148438 9.484375 16.394531 9.828125 C 16.636719 10.058594 16.636719 10.398438 16.394531 10.628906 C 16.394531 10.628906 16.269531 10.742188 16.269531 10.742188 Z M 15.664062 11.3125 "/>
</g>
</svg>
