<?xml version="1.0" encoding="utf-8"?>
<!-- Generator: Adobe Illustrator 24.0.2, SVG Export Plug-In . SVG Version: 6.00 Build 0)  -->
<svg version="1.1" id="Layer_1" xmlns="http://www.w3.org/2000/svg" xmlns:xlink="http://www.w3.org/1999/xlink" x="0px" y="0px"
	 viewBox="0 0 14 14" style="enable-background:new 0 0 14 14;" xml:space="preserve">
<style type="text/css">
	.st0{fill:#1A1D29;}
</style>
<title>All2</title>
<g>
	<path class="st0" d="M11.4,0.3c0.1,0,0.3,0.1,0.4,0.1c0.6,0.2,1,0.8,0.9,1.4c0,1.5,0,3.1,0,4.6c0,0,0,0.1,0,0.1
		c-0.3-0.1-0.7,0-1,0.1V2.4H1.4c0,0,0,0.1,0,0.1c0,2.8,0,5.7,0,8.5c0,0.4,0.2,0.6,0.6,0.6H7c-0.1,0.3-0.2,0.7-0.3,1c0,0-0.1,0-0.1,0
		c-0.1,0-0.3,0-0.4,0c-1.4,0-2.9,0-4.3,0c-0.7,0-1.3-0.4-1.6-1.1c0-0.1,0-0.2-0.1-0.3c0-3.2,0-6.5,0-9.7c0,0,0,0,0-0.1
		c0.1-0.5,0.4-0.9,0.9-1.2c0.1-0.1,0.3-0.1,0.4-0.1H11.4z"/>
	<path class="st0" d="M10.8,8.9l1.6,1.6c0,0-0.1,0.1-0.1,0.1c-0.8,0.8-1.6,1.6-2.4,2.4c-0.1,0.1-0.1,0.1-0.2,0.1
		c-0.6,0.2-1.1,0.3-1.7,0.5c-0.1,0-0.1,0-0.2,0c-0.1,0-0.2-0.2-0.1-0.3c0,0,0,0,0,0c0.2-0.6,0.4-1.2,0.5-1.9c0,0,0-0.1,0.1-0.1
		C9.1,10.6,9.9,9.8,10.8,8.9C10.8,8.9,10.8,8.9,10.8,8.9z M9.5,12.7c0-0.3-0.1-0.5-0.1-0.7c0,0,0-0.1-0.1-0.1
		c-0.2-0.1-0.5-0.1-0.7-0.2c-0.1,0.3-0.2,0.6-0.3,0.9c0,0.1,0,0.2,0.1,0.3C8.5,13,8.6,13,8.7,13L9.5,12.7z"/>
	<path class="st0" d="M10.1,6.5v1H2.9v-1H10.1z"/>
	<path class="st0" d="M10.1,4.5v1H2.9v-1H10.1z"/>
	<path class="st0" d="M9.6,8.6c-0.5,0.3-0.9,0.7-1.4,1c-0.1,0-0.1,0-0.2,0c-1.7,0-3.3,0-5,0c0,0-0.1,0-0.1,0v-1H9.6z"/>
	<path class="st0" d="M12.9,9.9l-1.5-1.5c0.2-0.2,0.4-0.5,0.7-0.7c0.2-0.2,0.5-0.1,0.7,0C13,8,13.3,8.3,13.5,8.6
		c0.2,0.2,0.2,0.5,0,0.7c0,0-0.1,0.1-0.1,0.1L12.9,9.9z"/>
</g>
</svg>
