<?xml version="1.0" encoding="utf-8"?>
<!-- Generator: Adobe Illustrator 24.0.2, SVG Export Plug-In . SVG Version: 6.00 Build 0)  -->
<svg version="1.1" id="Layer_1" xmlns="http://www.w3.org/2000/svg" xmlns:xlink="http://www.w3.org/1999/xlink" x="0px" y="0px"
	 viewBox="0 0 153 150" style="enable-background:new 0 0 153 150;" xml:space="preserve">
<style type="text/css">
	.st0{fill:#FFFFFF;}
</style>
<g>
	<path class="st0" d="M37,51.3H20.6c-1.5,0-2.7,1.1-2.7,2.5v14.9c0,1.4,1.2,2.5,2.7,2.5H37c1.5,0,2.7-1.1,2.7-2.5V53.8
		C39.7,52.4,38.5,51.3,37,51.3z M34.2,66.3H23.3v-10h10.9V66.3z"/>
	<path class="st0" d="M64.2,51.3H47.9c-1.5,0-2.7,1.1-2.7,2.5v14.9c0,1.4,1.2,2.5,2.7,2.5h16.4c1.5,0,2.7-1.1,2.7-2.5V53.8
		C67,52.4,65.7,51.3,64.2,51.3z M61.5,66.3H50.6v-10h10.9V66.3z"/>
	<path class="st0" d="M91.5,51.3H75.1c-1.5,0-2.7,1.1-2.7,2.5v14.9c0,1.4,1.2,2.5,2.7,2.5h16.4c1.5,0,2.7-1.1,2.7-2.5V53.8
		C94.2,52.4,93,51.3,91.5,51.3z M88.8,66.3H77.9v-10h10.9V66.3z"/>
	<path class="st0" d="M102.4,71.3h16.4c1.5,0,2.7-1.1,2.7-2.5V53.8c0-1.4-1.2-2.5-2.7-2.5h-16.4c-1.5,0-2.7,1.1-2.7,2.5v14.9
		C99.7,70.1,100.9,71.3,102.4,71.3z M105.1,56.3H116v10h-10.9V56.3z"/>
	<path class="st0" d="M37,76.2H20.6c-1.5,0-2.7,1.1-2.7,2.5v14.9c0,1.4,1.2,2.5,2.7,2.5H37c1.5,0,2.7-1.1,2.7-2.5V78.7
		C39.7,77.4,38.5,76.2,37,76.2z M34.2,91.2H23.3v-10h10.9V91.2z"/>
	<path class="st0" d="M64.2,76.2H47.9c-1.5,0-2.7,1.1-2.7,2.5v14.9c0,1.4,1.2,2.5,2.7,2.5h16.4c1.5,0,2.7-1.1,2.7-2.5V78.7
		C67,77.4,65.7,76.2,64.2,76.2z M61.5,91.2H50.6v-10h10.9V91.2z"/>
	<path class="st0" d="M91.5,76.2H75.1c-1.5,0-2.7,1.1-2.7,2.5v14.9c0,1.4,1.2,2.5,2.7,2.5h16.4c1.5,0,2.7-1.1,2.7-2.5V78.7
		C94.2,77.4,93,76.2,91.5,76.2z M88.8,91.2H77.9v-10h10.9V91.2z"/>
	<path class="st0" d="M102.4,96.2h16.4c1.5,0,2.7-1.1,2.7-2.5V78.7c0-1.4-1.2-2.5-2.7-2.5h-16.4c-1.5,0-2.7,1.1-2.7,2.5v14.9
		C99.7,95.1,100.9,96.2,102.4,96.2z M105.1,81.2H116v10h-10.9V81.2z"/>
	<path class="st0" d="M37,101.2H20.6c-1.5,0-2.7,1.1-2.7,2.5v14.9c0,1.4,1.2,2.5,2.7,2.5H37c1.5,0,2.7-1.1,2.7-2.5v-14.9
		C39.7,102.3,38.5,101.2,37,101.2z M34.2,116.1H23.3v-10h10.9V116.1z"/>
	<path class="st0" d="M64.2,101.2H47.9c-1.5,0-2.7,1.1-2.7,2.5v14.9c0,1.4,1.2,2.5,2.7,2.5h16.4c1.5,0,2.7-1.1,2.7-2.5v-14.9
		C67,102.3,65.7,101.2,64.2,101.2z M61.5,116.1H50.6v-10h10.9V116.1z"/>
	<path class="st0" d="M91.5,101.2H75.1c-1.5,0-2.7,1.1-2.7,2.5v14.9c0,1.4,1.2,2.5,2.7,2.5h16.4c1.5,0,2.7-1.1,2.7-2.5v-14.9
		C94.2,102.3,93,101.2,91.5,101.2z M88.8,116.1H77.9v-10h10.9V116.1z"/>
	<path class="st0" d="M137.9,102V14c0-1.4-1.2-2.5-2.7-2.5h-13.6V9c0-4.1-3.7-7.5-8.2-7.5c-4.5,0-8.2,3.3-8.2,7.5v2.5h-5.5V9
		c0-4.1-3.7-7.5-8.2-7.5c-4.5,0-8.2,3.3-8.2,7.5v2.5h-5.5V9c0-4.1-3.7-7.5-8.2-7.5c-4.5,0-8.2,3.3-8.2,7.5v2.5H56V9
		c0-4.1-3.7-7.5-8.2-7.5S39.7,4.8,39.7,9v2.5h-5.5V9c0-4.1-3.7-7.5-8.2-7.5S17.9,4.8,17.9,9v2.5H4.2c-1.5,0-2.7,1.1-2.7,2.5v119.6
		c0,1.4,1.2,2.5,2.7,2.5h96.4c7.5,11.9,24.2,16,37.2,9.1c13-6.9,17.5-22.1,10-34C145.5,107.4,142,104.2,137.9,102z M110.6,9
		c0-1.4,1.2-2.5,2.7-2.5c1.5,0,2.7,1.1,2.7,2.5v10c0,1.4-1.2,2.5-2.7,2.5c-1.5,0-2.7-1.1-2.7-2.5V9z M88.8,9c0-1.4,1.2-2.5,2.7-2.5
		c1.5,0,2.7,1.1,2.7,2.5v10c0,1.4-1.2,2.5-2.7,2.5c-1.5,0-2.7-1.1-2.7-2.5V9z M67,9c0-1.4,1.2-2.5,2.7-2.5s2.7,1.1,2.7,2.5v10
		c0,1.4-1.2,2.5-2.7,2.5S67,20.3,67,18.9V9z M45.1,9c0-1.4,1.2-2.5,2.7-2.5s2.7,1.1,2.7,2.5v10c0,1.4-1.2,2.5-2.7,2.5
		s-2.7-1.1-2.7-2.5V9z M23.3,9c0-1.4,1.2-2.5,2.7-2.5s2.7,1.1,2.7,2.5v10c0,1.4-1.2,2.5-2.7,2.5s-2.7-1.1-2.7-2.5V9z M7,16.4h10.9
		v2.5c0,4.1,3.7,7.5,8.2,7.5s8.2-3.3,8.2-7.5v-2.5h5.5v2.5c0,4.1,3.7,7.5,8.2,7.5s8.2-3.3,8.2-7.5v-2.5h5.5v2.5
		c0,4.1,3.7,7.5,8.2,7.5c4.5,0,8.2-3.3,8.2-7.5v-2.5h5.5v2.5c0,4.1,3.7,7.5,8.2,7.5c4.5,0,8.2-3.3,8.2-7.5v-2.5h5.5v2.5
		c0,4.1,3.7,7.5,8.2,7.5c4.5,0,8.2-3.3,8.2-7.5v-2.5h10.9v19.9H7V16.4z M7,131.1V41.4h125.4v58.5c-14.4-4.1-29.7,3.2-34.2,16.3
		c-1.7,4.9-1.7,10.1,0,14.9H7z M124.2,143.5c-12,0-21.8-8.9-21.8-19.9c0-11,9.8-19.9,21.8-19.9s21.8,8.9,21.8,19.9
		C146,134.6,136.3,143.5,124.2,143.5z"/>
	<path class="st0" d="M133.4,114.2l-11.7,8.6l-6.5-5.9c-1.1-1-2.8-1-3.9,0s-1.1,2.6,0,3.5l8.2,7.5c1,0.9,2.5,1,3.6,0.2l13.6-10
		c1.2-0.9,1.4-2.4,0.4-3.5C136.3,113.5,134.6,113.3,133.4,114.2L133.4,114.2L133.4,114.2z"/>
</g>
</svg>
