<?xml version="1.0" encoding="UTF-8"?>
<svg xmlns="http://www.w3.org/2000/svg" xmlns:xlink="http://www.w3.org/1999/xlink" width="16pt" height="16pt" viewBox="0 0 16 16" version="1.1">
<g id="surface1">
<path style=" stroke:none;fill-rule:nonzero;fill:rgb(69.019608%,69.019608%,69.019608%);fill-opacity:1;" d="M 14.101562 0 L 1.898438 0 C 0.800781 0 0 0.898438 0 1.898438 L 0 14 C 0 15.101562 0.800781 16 1.898438 16 L 14.101562 16 C 15.101562 16 16 15.101562 16 14.101562 L 16 1.898438 C 16 0.898438 15.199219 0 14.101562 0 Z M 1.898438 1 L 3.601562 1 L 3.601562 2 C 3.300781 2.199219 3.101562 2.601562 3.101562 3 C 3.101562 3.601562 3.601562 4.101562 4.101562 4.101562 C 4.601562 4.101562 5.101562 3.601562 5.101562 3 C 5.101562 2.601562 4.898438 2.199219 4.5 2 L 4.5 1 L 7.398438 1 L 7.398438 2 C 7.199219 2.199219 7 2.601562 7 3 C 7 3.601562 7.398438 4 8 4 C 8.601562 4 9 3.601562 9 3 C 9 2.601562 8.800781 2.199219 8.398438 2 L 8.398438 1 L 11.300781 1 L 11.300781 2 C 11 2.199219 10.699219 2.5 10.699219 3 C 10.699219 3.601562 11.199219 4.101562 11.699219 4.101562 C 12.300781 4.101562 12.699219 3.601562 12.699219 3 C 12.699219 2.601562 12.5 2.199219 12.101562 2 L 12.101562 1 L 13.800781 1 C 14.601562 1 15 1.398438 15 1.898438 L 15 4.800781 L 1 4.800781 L 1 1.898438 C 1 1.398438 1.398438 1 1.898438 1 Z M 14.101562 15 L 1.898438 15 C 1.398438 15 1 14.601562 1 14.101562 L 1 5.800781 L 15 5.800781 L 15 14 C 15 14.601562 14.601562 15 14.101562 15 Z M 14.101562 15 "/>
<path style=" stroke:none;fill-rule:nonzero;fill:rgb(69.019608%,69.019608%,69.019608%);fill-opacity:1;" d="M 5 7.601562 L 3.199219 7.601562 C 3 7.601562 2.800781 7.800781 2.800781 8.101562 L 2.800781 9.199219 C 2.800781 9.398438 3 9.601562 3.199219 9.601562 L 5 9.601562 C 5.199219 9.601562 5.398438 9.398438 5.398438 9.199219 L 5.398438 8.101562 C 5.5 7.800781 5.300781 7.601562 5 7.601562 Z M 5 7.601562 "/>
<path style=" stroke:none;fill-rule:nonzero;fill:rgb(69.019608%,69.019608%,69.019608%);fill-opacity:1;" d="M 8.898438 7.601562 L 7.101562 7.601562 C 6.898438 7.601562 6.699219 7.800781 6.699219 8 L 6.699219 9.101562 C 6.699219 9.300781 6.898438 9.5 7.101562 9.5 L 8.898438 9.5 C 9.101562 9.5 9.300781 9.300781 9.300781 9.101562 L 9.300781 8.101562 C 9.300781 7.800781 9.101562 7.601562 8.898438 7.601562 Z M 8.898438 7.601562 "/>
<path style=" stroke:none;fill-rule:nonzero;fill:rgb(69.019608%,69.019608%,69.019608%);fill-opacity:1;" d="M 12.800781 7.601562 L 11 7.601562 C 10.800781 7.601562 10.601562 7.800781 10.601562 8 L 10.601562 9.101562 C 10.601562 9.300781 10.800781 9.5 11 9.5 L 12.800781 9.5 C 13 9.5 13.199219 9.300781 13.199219 9.101562 L 13.199219 8.101562 C 13.199219 7.800781 13 7.601562 12.800781 7.601562 Z M 12.800781 7.601562 "/>
<path style=" stroke:none;fill-rule:nonzero;fill:rgb(69.019608%,69.019608%,69.019608%);fill-opacity:1;" d="M 5 11.199219 L 3.199219 11.199219 C 3 11.199219 2.800781 11.398438 2.800781 11.601562 L 2.800781 12.699219 C 2.800781 12.898438 3 13.101562 3.199219 13.101562 L 5 13.101562 C 5.199219 13.101562 5.398438 12.898438 5.398438 12.699219 L 5.398438 11.601562 C 5.5 11.398438 5.300781 11.199219 5 11.199219 Z M 5 11.199219 "/>
<path style=" stroke:none;fill-rule:nonzero;fill:rgb(69.019608%,69.019608%,69.019608%);fill-opacity:1;" d="M 8.898438 11.199219 L 7.101562 11.199219 C 6.898438 11.199219 6.699219 11.398438 6.699219 11.601562 L 6.699219 12.699219 C 6.699219 12.898438 6.898438 13.101562 7.101562 13.101562 L 8.898438 13.101562 C 9.101562 13.101562 9.300781 12.898438 9.300781 12.699219 L 9.300781 11.601562 C 9.300781 11.398438 9.101562 11.199219 8.898438 11.199219 Z M 8.898438 11.199219 "/>
<path style=" stroke:none;fill-rule:nonzero;fill:rgb(69.019608%,69.019608%,69.019608%);fill-opacity:1;" d="M 12.800781 11.199219 L 11 11.199219 C 10.800781 11.199219 10.601562 11.398438 10.601562 11.601562 L 10.601562 12.699219 C 10.601562 12.898438 10.800781 13.101562 11 13.101562 L 12.800781 13.101562 C 13 13.101562 13.199219 12.898438 13.199219 12.699219 L 13.199219 11.601562 C 13.199219 11.398438 13 11.199219 12.800781 11.199219 Z M 12.800781 11.199219 "/>
</g>
</svg>
