<?xml version="1.0" encoding="UTF-8"?>
<svg xmlns="http://www.w3.org/2000/svg" xmlns:xlink="http://www.w3.org/1999/xlink" width="33pt" height="33pt" viewBox="0 0 33 33" version="1.1">
<defs>
<linearGradient id="linear0" gradientUnits="userSpaceOnUse" x1="16.6519" y1="819.4817" x2="32.5376" y2="819.4817" gradientTransform="matrix(1,0,0,1,0,-811)">
<stop offset="0" style="stop-color:rgb(100%,55.686275%,2.352941%);stop-opacity:1;"/>
<stop offset="1" style="stop-color:rgb(100%,87.058824%,22.352941%);stop-opacity:1;"/>
</linearGradient>
<linearGradient id="linear1" gradientUnits="userSpaceOnUse" x1="0.5213" y1="828.4437" x2="30.721" y2="828.4437" gradientTransform="matrix(1,0,0,1,0,-811)">
<stop offset="0" style="stop-color:rgb(100%,55.686275%,2.352941%);stop-opacity:1;"/>
<stop offset="1" style="stop-color:rgb(100%,87.058824%,22.352941%);stop-opacity:1;"/>
</linearGradient>
</defs>
<g id="surface1">
<path style=" stroke:none;fill-rule:nonzero;fill:url(#linear0);" d="M 21.101562 1.699219 C 21.199219 1.5 21.199219 1.398438 21.300781 1.199219 C 18.800781 2.300781 17 4.601562 16.601562 7.5 L 19.898438 7.5 C 20.101562 5.300781 20.5 3.300781 21.101562 1.699219 Z M 29.199219 7.5 L 32.5 7.5 C 32.199219 4.699219 30.398438 2.398438 27.800781 1.199219 C 27.898438 1.300781 27.898438 1.5 28 1.699219 C 28.699219 3.300781 29.101562 5.300781 29.199219 7.5 Z M 20 9.601562 L 16.699219 9.601562 C 17.101562 12.398438 18.800781 14.699219 21.300781 15.800781 C 21.199219 15.699219 21.199219 15.5 21.101562 15.300781 C 20.5 13.699219 20.101562 11.699219 20 9.601562 Z M 28.101562 15.300781 C 28 15.5 28 15.601562 27.898438 15.800781 C 30.398438 14.699219 32.199219 12.398438 32.5 9.601562 L 29.199219 9.601562 C 29.101562 11.699219 28.699219 13.699219 28.101562 15.300781 Z M 26.101562 2.5 C 25.601562 1.101562 24.898438 0.5 24.601562 0.5 C 24.300781 0.5 23.601562 1.101562 23.101562 2.5 C 22.601562 3.898438 22.199219 5.601562 22.101562 7.5 L 27 7.5 C 27 5.601562 26.601562 3.898438 26.101562 2.5 Z M 24.601562 16.5 C 24.898438 16.5 25.601562 15.898438 26.101562 14.5 C 26.601562 13.101562 27 11.398438 27.101562 9.601562 L 22.199219 9.601562 C 22.300781 11.5 22.601562 13.199219 23.199219 14.5 C 23.699219 15.898438 24.199219 16.5 24.601562 16.5 Z M 24.601562 16.5 "/>
<path style=" stroke:none;fill-rule:nonzero;fill:url(#linear1);" d="M 20.5 25.101562 C 19.898438 25.699219 18.699219 25.699219 18 25.101562 L 7.800781 15 C 7.199219 14.398438 7.199219 13.199219 7.800781 12.601562 C 8 12.398438 8.398438 12 8.800781 11.601562 L 2.898438 5.699219 C -2.5 11.898438 2.199219 19.199219 8 25 C 13.898438 30.800781 21.101562 35.5 27.300781 30 L 21.398438 24.199219 C 21.300781 24.300781 21 24.601562 20.5 25.101562 Z M 10.199219 10.199219 C 10.199219 10.199219 11.199219 9.199219 12 8.398438 C 12.199219 8.199219 12.199219 7.800781 12 7.601562 L 6.898438 2.601562 C 6.699219 2.398438 6.199219 2.398438 6 2.601562 C 5.199219 3.398438 4.300781 4.300781 4.199219 4.398438 Z M 25.5 21 C 25.300781 20.800781 24.898438 20.800781 24.601562 21 L 22.800781 22.800781 L 28.800781 28.699219 C 29.101562 28.398438 30 27.5 30.601562 26.898438 C 30.800781 26.699219 30.800781 26.300781 30.601562 26.101562 Z M 25.5 21 "/>
</g>
</svg>
