<?xml version="1.0" encoding="UTF-8"?>
<svg xmlns="http://www.w3.org/2000/svg" xmlns:xlink="http://www.w3.org/1999/xlink" width="33pt" height="32pt" viewBox="0 0 33 32" version="1.1">
<defs>
<linearGradient id="linear0" gradientUnits="userSpaceOnUse" x1="16.0108" y1="360.5" x2="16.0108" y2="331.5066" gradientTransform="matrix(1.03125,0,0,1.032258,0,-340.645161)">
<stop offset="0" style="stop-color:rgb(100%,55.686275%,2.352941%);stop-opacity:1;"/>
<stop offset="1" style="stop-color:rgb(100%,87.058824%,22.352941%);stop-opacity:1;"/>
</linearGradient>
<linearGradient id="linear1" gradientUnits="userSpaceOnUse" x1="13.1643" y1="23.3898" x2="25.8797" y2="23.3898" gradientTransform="matrix(1.03125,0,0,-1.032258,0,31.886245)">
<stop offset="0" style="stop-color:rgb(100%,63.921569%,0%);stop-opacity:1;"/>
<stop offset="0.9973" style="stop-color:rgb(94.117647%,100%,95.686275%);stop-opacity:1;"/>
</linearGradient>
</defs>
<g id="surface1">
<path style=" stroke:none;fill-rule:nonzero;fill:url(#linear0);" d="M 27.84375 25.289062 L 25.78125 25.289062 L 25.78125 20.335938 C 25.78125 19.820312 25.472656 19.40625 25.058594 19.304688 C 23.101562 18.785156 21.242188 17.960938 19.59375 16.824219 C 19.179688 16.621094 18.664062 16.621094 18.460938 17.03125 L 17.015625 18.785156 C 16.707031 19.199219 16.191406 19.304688 15.777344 18.992188 C 13.507812 17.238281 11.445312 14.96875 9.796875 12.492188 C 9.589844 12.078125 9.589844 11.457031 10.003906 11.148438 L 11.652344 9.601562 C 11.960938 9.289062 12.066406 8.773438 11.859375 8.257812 C 10.828125 6.398438 10.105469 4.335938 9.589844 2.269531 C 9.488281 1.859375 9.074219 1.546875 8.664062 1.546875 L 3.300781 1.546875 C 1.445312 1.546875 0.101562 3.507812 0.617188 5.472656 C 2.0625 11.148438 4.742188 16.308594 8.558594 20.4375 C 12.375 24.566406 17.015625 27.664062 22.171875 29.214844 C 23.617188 29.625 25.058594 28.800781 25.574219 27.355469 L 27.84375 27.355469 C 29.390625 27.355469 30.628906 28.695312 30.628906 30.453125 C 30.628906 31.070312 31.039062 31.484375 31.554688 31.484375 C 32.070312 31.484375 32.484375 31.070312 32.484375 30.453125 C 32.484375 27.5625 30.421875 25.289062 27.84375 25.289062 Z M 27.84375 25.289062 "/>
<path style=" stroke:none;fill-rule:nonzero;fill:url(#linear1);" d="M 14.539062 0.515625 C 14.023438 0.515625 13.613281 0.929688 13.613281 1.546875 C 13.613281 2.167969 14.023438 2.582031 14.539062 2.582031 C 20.210938 2.582031 24.851562 7.640625 24.851562 13.933594 C 24.851562 14.554688 25.265625 14.96875 25.78125 14.96875 C 26.296875 14.96875 26.710938 14.554688 26.710938 13.933594 C 26.710938 6.503906 21.242188 0.515625 14.539062 0.515625 Z M 14.539062 4.644531 C 14.023438 4.644531 13.613281 5.058594 13.613281 5.675781 C 13.613281 6.296875 14.023438 6.710938 14.539062 6.710938 C 18.148438 6.710938 21.140625 9.910156 21.140625 13.933594 C 21.140625 14.554688 21.554688 14.96875 22.070312 14.96875 C 22.585938 14.96875 22.996094 14.554688 22.996094 13.933594 C 22.894531 8.773438 19.179688 4.644531 14.539062 4.644531 Z M 14.539062 8.773438 C 14.023438 8.773438 13.613281 9.1875 13.613281 9.804688 C 13.613281 10.425781 14.023438 10.839844 14.539062 10.839844 C 16.085938 10.839844 17.324219 12.179688 17.324219 13.933594 C 17.324219 14.554688 17.738281 14.96875 18.253906 14.96875 C 18.769531 14.96875 19.179688 14.554688 19.179688 13.933594 C 19.179688 11.046875 17.117188 8.773438 14.539062 8.773438 Z M 14.539062 8.773438 "/>
</g>
</svg>
