<?xml version="1.0" encoding="utf-8"?>
<!-- Generator: Adobe Illustrator 24.0.2, SVG Export Plug-In . SVG Version: 6.00 Build 0)  -->
<svg version="1.1" id="Layer_1" xmlns="http://www.w3.org/2000/svg" xmlns:xlink="http://www.w3.org/1999/xlink" x="0px" y="0px"
	 viewBox="0 0 60 60" style="enable-background:new 0 0 60 60;" xml:space="preserve">
<style type="text/css">
	.st0{fill:url(#SVGID_1_);}
	.st1{fill:url(#SVGID_2_);}
	.st2{fill:url(#SVGID_3_);}
	.st3{fill:url(#SVGID_4_);}
</style>
<g>
	<linearGradient id="SVGID_1_" gradientUnits="userSpaceOnUse" x1="29.0663" y1="30" x2="30.9337" y2="30">
		<stop  offset="0" style="stop-color:#275B93"/>
		<stop  offset="1" style="stop-color:#5586C6"/>
	</linearGradient>
	<path class="st0" d="M29.1,29.1c0.6,0,1.2,0,1.9,0c0,0.6,0,1.3,0,1.9c-0.6,0-1.2,0-1.9,0C29.1,30.3,29.1,29.7,29.1,29.1z"/>
	<linearGradient id="SVGID_2_" gradientUnits="userSpaceOnUse" x1="29.0681" y1="30" x2="30.9319" y2="30">
		<stop  offset="0" style="stop-color:#275B93"/>
		<stop  offset="1" style="stop-color:#5586C6"/>
	</linearGradient>
	<path class="st1" d="M30.9,30.9c-0.6,0-1.2,0-1.9,0c0-0.6,0-1.2,0-1.9c0.6,0,1.2,0,1.9,0C30.9,29.7,30.9,30.3,30.9,30.9z"/>
	<g>
		<linearGradient id="SVGID_3_" gradientUnits="userSpaceOnUse" x1="1" y1="30" x2="59" y2="30">
			<stop  offset="0" style="stop-color:#275B93"/>
			<stop  offset="1" style="stop-color:#5586C6"/>
		</linearGradient>
		<path class="st2" d="M55.2,36.1c-3.3,0.8-6.5,1.7-9.7,2.5c0,0.2,0,0.4,0,0.6c0,4.2,0,8.5,0,12.7c0,0.8-0.2,1.1-0.9,1.3
			c-4.7,1.6-9.3,3.1-14,4.7c-0.3,0.1-0.8,0.1-1.1,0c-4.5-1.5-9.1-3-13.6-4.5c-0.3-0.1-0.6-0.2-1-0.2c-1.7,0-3.4,0-5.1,0
			c0-0.6,0-1.3,0-1.9c1.6,0,3.2,0,4.8,0c0-0.7,0-1.3,0-1.9c-2.6,0-5.1,0-7.7,0c0-0.7,0-1.3,0-1.9c2.6,0,5.1,0,7.7,0
			c0-0.7,0-1.3,0-1.9c-3.5,0-7,0-10.6,0c0-0.7,0-1.3,0-1.9c3.5,0,7,0,10.6,0c0-1.7,0-3.3,0-5c-2.3-0.6-4.6-1.2-6.9-1.8
			c-1.9-0.5-3.8-1-5.7-1.5c-0.7-0.2-0.9-0.5-0.9-1c0-0.5,0.3-0.8,0.9-1c3.3-0.8,6.5-1.7,9.8-2.5c0.1,0,0.1,0,0.2-0.1
			c-0.5-1.7-0.3-3.5-0.3-5.3c0-4.8,0-9.7,0-14.5c0-1,0.3-1.3,1.3-1.3c2.3,0,4.5,0,6.8,0c0.2,0,0.4,0,0.7,0c0-1-0.1-1.9,0-2.8
			c0.3-3.2,3.2-5.8,6.4-5.9c2,0,4.1,0,6.1,0c3.7,0,6.7,2.9,6.8,6.7c0,0.7,0,1.3,0,2c6.4,0,12.8,0,19.3,0c0,0.7,0,1.3,0,2
			c-3.5,0-7,0-10.6,0c0,0.7,0,1.3,0,1.9c2.5,0,5.1,0,7.7,0c0,0.7,0,1.3,0,1.9c-2.6,0-5.1,0-7.7,0c0,0.7,0,1.3,0,1.9
			c1.6,0,3.2,0,4.8,0c0,0.7,0,1.3,0,1.9c-1.6,0-3.2,0-4.8,0c0,0.2,0,0.4,0,0.6c0,2.8,0,5.5,0,8.3c0,0.8-0.1,1.7-0.2,2.6
			c1,0.3,2.1,0.6,3.3,0.8c2.2,0.6,4.4,1.1,6.5,1.7c0.2,0,0.4,0.1,0.5,0.2c0.2,0.3,0.5,0.6,0.5,0.9c0,0.3-0.3,0.6-0.5,0.9
			c0,0.1-0.2,0.1-0.2,0.1c-1.1,0.3-1.1,0.3-1.1,1.6c0,4.2,0,8.5,0,12.7c0,0.3,0.1,0.7,0.2,1c0.5,1,1,2,1.5,3c0.2,0.4,0.2,0.8,0,1.2
			c-0.6,1.2-1.2,2.3-1.8,3.5c-0.2,0.4-0.5,0.7-1,0.7c-0.5,0-0.7-0.3-0.9-0.7c-0.6-1.2-1.2-2.4-1.8-3.5c-0.2-0.4-0.2-0.8,0-1.2
			c0.5-1,1-2,1.5-3c0.1-0.3,0.2-0.7,0.2-1c0-4.3,0-8.5,0-12.8C55.2,36.6,55.2,36.4,55.2,36.1z M43.5,39.1c-0.2,0-0.4,0.1-0.5,0.1
			c-4.1,1.1-8.3,2.1-12.4,3.2c-0.3,0.1-0.8,0.1-1.1,0c-3.1-0.8-6.2-1.6-9.3-2.4c-1.2-0.3-2.4-0.6-3.7-0.9c0,0.1,0,0.2,0,0.3
			c0,3.9,0,7.8,0,11.8c0,0.3,0.2,0.4,0.4,0.5c4.2,1.4,8.5,2.8,12.7,4.2c0.3,0.1,0.6,0.1,0.8,0c2.5-0.8,4.9-1.6,7.4-2.4
			c1.9-0.6,3.8-1.3,5.7-1.9C43.5,47.4,43.5,43.3,43.5,39.1z M13.6,19.3c0,0.3,0,0.5,0,0.7c0,2.9,0,5.8,0,8.8c0,2,1.2,3.2,3.2,3.2
			c8.8,0,17.7,0,26.5,0c2,0,3.2-1.2,3.2-3.2c0-2.9,0-5.9,0-8.8c0-0.2,0-0.3,0-0.6c-1.2,0.9-2.4,1-3.8,1c0,1,0,1.9,0,2.8
			c0,0.6-0.4,1-1,1.1c-1.3,0-2.5,0-3.8,0c-0.6,0-1-0.4-1-1c0-0.8,0-1.5,0-2.3c0-0.2,0-0.4,0-0.5c-4.5,0-9,0-13.5,0
			c0,0.9,0,1.8,0,2.7c0,0.8-0.3,1.2-1.2,1.2c-1.1,0-2.3,0-3.4,0c-0.9,0-1.2-0.4-1.2-1.2c0-0.9,0-1.7,0-2.7
			C16,20.4,14.8,20.2,13.6,19.3z M46.4,11.7c-10.9,0-21.9,0-32.8,0c0,1.2,0,2.4,0,3.6c0,2,1.2,3.2,3.2,3.2c2.9,0,5.9,0,8.8,0
			c0.2,0,0.4,0,0.6,0c0-0.9,0-1.7,0-2.6c0-0.9,0.3-1.2,1.2-1.2c1.7,0,3.4,0,5.2,0c1.1,0,1.3,0.3,1.3,1.3c0,0.8,0,1.6,0,2.5
			c0.2,0,0.4,0,0.6,0c2.9,0,5.8,0,8.8,0c0.2,0,0.5,0,0.7,0c1.2-0.2,2.3-1.1,2.4-2.3C46.5,14.6,46.4,13.1,46.4,11.7z M54,34.4
			c-0.1-0.1-0.1-0.1-0.1-0.1c-2.2-0.6-4.5-1.2-6.7-1.7c-0.1,0-0.4,0-0.5,0.1c-0.9,0.8-2,1.2-3.2,1.2c-9,0-18,0-26.9,0
			c-1.2,0-2.3-0.4-3.2-1.2c-0.1-0.1-0.4-0.2-0.6-0.1C11.2,33,9.6,33.4,8,33.8c-0.7,0.2-1.3,0.3-2,0.5c0.2,0.1,0.4,0.2,0.5,0.2
			c7.6,2,15.3,3.9,22.9,5.9c0.3,0.1,0.7,0.1,1.1,0c4.9-1.2,9.7-2.5,14.6-3.8C48.1,35.9,51,35.2,54,34.4z M37.7,9.7
			c0-0.6,0-1.2,0-1.8c0-2.8-2-4.9-4.9-4.9c-1.9,0-3.8,0-5.8,0c-2.1,0-3.6,1-4.5,2.9c-0.6,1.2-0.4,2.5-0.4,3.8c0.7,0,1.3,0,1.9,0
			c0-0.6,0-1.1,0-1.7c0-1.9,1.2-3.1,3.1-3.1c1.8,0,3.6,0,5.4,0c1.9,0,3.1,1.2,3.1,3.1c0,0.6,0,1.1,0,1.7C36.5,9.7,37.1,9.7,37.7,9.7
			z M33.8,9.7c0-0.7,0-1.4,0-2.1c0-0.5-0.4-0.8-0.9-0.8c-1.9,0-3.9,0-5.8,0c-0.5,0-0.9,0.3-0.9,0.8c0,0.7,0,1.4,0,2.1
			C28.7,9.7,31.3,9.7,33.8,9.7z M31.9,18.4c0-0.6,0-1.2,0-1.9c-1.3,0-2.5,0-3.8,0c0,0.6,0,1.2,0,1.9C29.4,18.4,30.6,18.4,31.9,18.4z
			 M19.4,22.2c0.6,0,1.2,0,1.9,0c0-0.6,0-1.3,0-1.9c-0.6,0-1.2,0-1.9,0C19.4,21,19.4,21.6,19.4,22.2z M38.7,22.2c0.6,0,1.3,0,1.9,0
			c0-0.6,0-1.3,0-1.9c-0.6,0-1.2,0-1.9,0C38.7,21,38.7,21.6,38.7,22.2z M56.1,52.5c-0.3,0.6-0.5,1.1-0.8,1.6c0,0.1,0,0.2,0,0.2
			c0.2,0.5,0.5,1,0.8,1.6c0.3-0.6,0.5-1,0.8-1.5c0-0.1,0.1-0.2,0-0.3C56.7,53.6,56.4,53.1,56.1,52.5z"/>
		<linearGradient id="SVGID_4_" gradientUnits="userSpaceOnUse" x1="29.0608" y1="30" x2="30.9392" y2="30">
			<stop  offset="0" style="stop-color:#275B93"/>
			<stop  offset="1" style="stop-color:#5586C6"/>
		</linearGradient>
		<path class="st3" d="M30.9,29.1c0,0.6,0,1.3,0,1.9c-0.6,0-1.2,0-1.9,0c0-0.6,0-1.2,0-1.9C29.7,29.1,30.3,29.1,30.9,29.1z"/>
	</g>
</g>
</svg>
