<?xml version="1.0" encoding="utf-8"?>
<!-- Generator: Adobe Illustrator 24.0.2, SVG Export Plug-In . SVG Version: 6.00 Build 0)  -->
<svg version="1.1" id="Layer_1" xmlns="http://www.w3.org/2000/svg" xmlns:xlink="http://www.w3.org/1999/xlink" x="0px" y="0px"
	 viewBox="0 0 35 35" style="enable-background:new 0 0 35 35;" xml:space="preserve">
<style type="text/css">
	.st0{fill:url(#SVGID_1_);}
	.st1{fill:url(#SVGID_2_);}
	.st2{fill:url(#SVGID_3_);}
	.st3{fill:url(#SVGID_4_);}
	.st4{fill:url(#SVGID_5_);}
	.st5{fill:url(#SVGID_6_);}
	.st6{fill:url(#SVGID_7_);}
	.st7{fill:url(#SVGID_8_);}
	.st8{fill:url(#SVGID_9_);}
</style>
<g>
	<linearGradient id="SVGID_1_" gradientUnits="userSpaceOnUse" x1="16.9167" y1="24.3069" x2="18.0833" y2="24.3069">
		<stop  offset="0" style="stop-color:#FC4A1A"/>
		<stop  offset="1" style="stop-color:#F7B733"/>
	</linearGradient>
	<rect x="16.9" y="23.7" class="st0" width="1.2" height="1.2"/>
	<linearGradient id="SVGID_2_" gradientUnits="userSpaceOnUse" x1="14.5833" y1="24.3069" x2="20.4167" y2="24.3069">
		<stop  offset="0" style="stop-color:#FC4A1A"/>
		<stop  offset="1" style="stop-color:#F7B733"/>
	</linearGradient>
	<path class="st1" d="M17.5,21.4c-1.6,0-2.9,1.3-2.9,2.9c0,1.6,1.3,2.9,2.9,2.9c1.6,0,2.9-1.3,2.9-2.9
		C20.4,22.7,19.1,21.4,17.5,21.4z M17.5,26.1c-1,0-1.8-0.8-1.8-1.8s0.8-1.8,1.8-1.8c1,0,1.8,0.8,1.8,1.8S18.5,26.1,17.5,26.1z"/>
	<linearGradient id="SVGID_3_" gradientUnits="userSpaceOnUse" x1="0" y1="17.5" x2="35" y2="17.5">
		<stop  offset="0" style="stop-color:#FC4A1A"/>
		<stop  offset="1" style="stop-color:#F7B733"/>
	</linearGradient>
	<path class="st2" d="M34.4,0H0.6C0.3,0,0,0.3,0,0.6v26.8C0,27.7,0.3,28,0.6,28h12l-0.1,0.6c0,0.3,0.2,0.6,0.5,0.7
		c0.1,0,0.1,0,0.2,0l0.8-0.1v5.3c0,0.3,0.3,0.6,0.6,0.6c0.1,0,0.2,0,0.3-0.1l2.6-1.4l2.6,1.4c0.3,0.2,0.6,0,0.8-0.2
		c0-0.1,0.1-0.2,0.1-0.3v-5.3l0.8,0.1c0.3,0,0.6-0.2,0.7-0.5c0-0.1,0-0.1,0-0.2L22.4,28h12c0.3,0,0.6-0.3,0.6-0.6V0.6
		C35,0.3,34.7,0,34.4,0z M19.8,33.4l-2.1-1.1c-0.2-0.1-0.4-0.1-0.5,0l-2.1,1.1V29l0.4-0.1l1.4,2c0.2,0.3,0.6,0.3,0.8,0.1
		c0,0,0.1-0.1,0.1-0.1l1.4-2l0.4,0.1V33.4z M20.9,26l0.3,2l-2-0.3c-0.2,0-0.4,0.1-0.6,0.2l-1.2,1.6l-1.2-1.6
		c-0.1-0.1-0.3-0.2-0.5-0.2c0,0-0.1,0-0.1,0l-2,0.3l0.3-2c0-0.2-0.1-0.4-0.2-0.6l-1.6-1.2l1.6-1.2c0.2-0.1,0.3-0.3,0.2-0.6l-0.3-2
		l2,0.3c0.2,0,0.4-0.1,0.6-0.2l1.2-1.6l1.2,1.6c0.1,0.2,0.3,0.3,0.6,0.2l2-0.3l-0.3,2c0,0.2,0.1,0.4,0.2,0.6l1.6,1.2l-1.6,1.2
		C21,25.6,20.9,25.8,20.9,26z M10.7,24.5H5.8v-1.8c0-0.3-0.3-0.6-0.6-0.6H3.5V5.8h1.8c0.3,0,0.6-0.3,0.6-0.6V3.5h23.3v1.7
		c0,0.3,0.3,0.6,0.6,0.6h1.8v16.3h-1.8c-0.3,0-0.6,0.3-0.6,0.6v1.8h-4.9c0-0.1,0-0.1,0-0.2c0-0.2-0.1-0.4-0.2-0.5l-2-1.4l0.4-2.4
		c0-0.3-0.2-0.6-0.5-0.7c-0.1,0-0.1,0-0.2,0l-2.4,0.4l-1.4-2c-0.2-0.3-0.6-0.3-0.9-0.1c0,0-0.1,0.1-0.1,0.1l-1.4,2l-2.4-0.4
		c-0.3,0-0.6,0.2-0.7,0.5c0,0.1,0,0.1,0,0.2l0.4,2.4l-2,1.4c-0.1,0.1-0.2,0.3-0.2,0.5C10.7,24.4,10.7,24.4,10.7,24.5z M33.8,26.8
		H22.2l-0.1-0.6l0.7-0.6h6.9c0.3,0,0.6-0.3,0.6-0.6v-1.8h1.7c0.3,0,0.6-0.3,0.6-0.6V5.2c0-0.3-0.3-0.6-0.6-0.6h-1.7V2.9
		c0-0.3-0.3-0.6-0.6-0.6H5.3c-0.3,0-0.6,0.3-0.6,0.6v1.8H2.9c-0.3,0-0.6,0.3-0.6,0.6v17.5c0,0.3,0.3,0.6,0.6,0.6h1.7v1.8
		c0,0.3,0.3,0.6,0.6,0.6h6.9l0.7,0.6l-0.1,0.6H1.2V1.2h32.7V26.8z"/>
	<linearGradient id="SVGID_4_" gradientUnits="userSpaceOnUse" x1="15.1667" y1="7" x2="19.8333" y2="7">
		<stop  offset="0" style="stop-color:#FC4A1A"/>
		<stop  offset="1" style="stop-color:#F7B733"/>
	</linearGradient>
	<path class="st3" d="M17.5,9.3c1.3,0,2.3-1,2.3-2.3s-1-2.3-2.3-2.3c-1.3,0-2.3,1-2.3,2.3S16.2,9.3,17.5,9.3z M17.5,5.8
		c0.6,0,1.2,0.5,1.2,1.2s-0.5,1.2-1.2,1.2c-0.6,0-1.2-0.5-1.2-1.2S16.9,5.8,17.5,5.8z"/>
	<linearGradient id="SVGID_5_" gradientUnits="userSpaceOnUse" x1="14" y1="11.0833" x2="21" y2="11.0833">
		<stop  offset="0" style="stop-color:#FC4A1A"/>
		<stop  offset="1" style="stop-color:#F7B733"/>
	</linearGradient>
	<rect x="14" y="10.5" class="st4" width="7" height="1.2"/>
	<linearGradient id="SVGID_6_" gradientUnits="userSpaceOnUse" x1="7" y1="13.4166" x2="28" y2="13.4166">
		<stop  offset="0" style="stop-color:#FC4A1A"/>
		<stop  offset="1" style="stop-color:#F7B733"/>
	</linearGradient>
	<rect x="7" y="12.8" class="st5" width="21" height="1.2"/>
	<linearGradient id="SVGID_7_" gradientUnits="userSpaceOnUse" x1="7" y1="15.75" x2="28" y2="15.75">
		<stop  offset="0" style="stop-color:#FC4A1A"/>
		<stop  offset="1" style="stop-color:#F7B733"/>
	</linearGradient>
	<rect x="7" y="15.2" class="st6" width="21" height="1.2"/>
	<linearGradient id="SVGID_8_" gradientUnits="userSpaceOnUse" x1="7" y1="20.4166" x2="11.0833" y2="20.4166">
		<stop  offset="0" style="stop-color:#FC4A1A"/>
		<stop  offset="1" style="stop-color:#F7B733"/>
	</linearGradient>
	<rect x="7" y="19.8" class="st7" width="4.1" height="1.2"/>
	<linearGradient id="SVGID_9_" gradientUnits="userSpaceOnUse" x1="23.9167" y1="20.4166" x2="28" y2="20.4166">
		<stop  offset="0" style="stop-color:#FC4A1A"/>
		<stop  offset="1" style="stop-color:#F7B733"/>
	</linearGradient>
	<rect x="23.9" y="19.8" class="st8" width="4.1" height="1.2"/>
</g>
</svg>
