<?xml version="1.0" encoding="utf-8"?>
<!-- Generator: Adobe Illustrator 24.0.2, SVG Export Plug-In . SVG Version: 6.00 Build 0)  -->
<svg version="1.1" id="Layer_1" xmlns="http://www.w3.org/2000/svg" xmlns:xlink="http://www.w3.org/1999/xlink" x="0px" y="0px"
	 viewBox="0 0 36 45" style="enable-background:new 0 0 36 45;" xml:space="preserve">
<style type="text/css">
	.st0{fill:url(#SVGID_1_);}
	.st1{fill:url(#SVGID_2_);}
	.st2{fill:url(#SVGID_3_);}
	.st3{fill:url(#SVGID_4_);}
	.st4{fill:url(#SVGID_5_);}
	.st5{fill:url(#SVGID_6_);}
</style>
<g>
	<linearGradient id="SVGID_1_" gradientUnits="userSpaceOnUse" x1="0" y1="22.5" x2="36" y2="22.5">
		<stop  offset="0" style="stop-color:#00B09B"/>
		<stop  offset="1" style="stop-color:#96C93D"/>
	</linearGradient>
	<path class="st0" d="M5.8,5.6c0-1.3,0-2.6,0-3.9c0-1,0.4-1.4,1.4-1.4c7.2,0,14.4,0,21.5,0c1,0,1.4,0.4,1.4,1.4c0,1.3,0,2.6,0,3.9
		c0.4,0,0.7,0,1,0c0.7,0,1.3,0,2,0c1.7,0,2.8,1.1,2.8,2.9c0,8.4,0,16.7,0,25.1c0,2.8,0,5.7,0,8.5c0,1.4-1,2.5-2.3,2.7
		c-0.7,0.1-1.3-0.2-1.4-0.8c-0.1-0.6,0.3-1.2,0.9-1.3c0.5-0.1,0.6-0.2,0.6-0.7c0-11.2,0-22.3,0-33.5c0-0.5-0.1-0.7-0.6-0.7
		c-2.4,0-4.9,0-7.4,0c0,0.5,0,0.9,0,1.4c0,1.7-1.1,2.8-2.8,2.8c-3.4,0-6.9,0-10.3,0c-1.7,0-2.8-1.1-2.8-2.8c0-0.5,0-0.9,0-1.4
		c-0.1,0-0.3,0-0.4,0c-2.3,0-4.5,0-6.8,0c-0.6,0-0.8,0.1-0.8,0.8c0,11.1,0,22.3,0,33.4c0,0.6,0.1,0.8,0.8,0.8c8.7,0,17.4,0,26,0
		c0.8,0,1.2,0.4,1.2,1c0,0.6-0.4,1-0.9,1.1c-0.1,0-0.3,0-0.4,0c-8.6,0-17.2,0-25.9,0c-1.9,0-3-1.1-3-3C0,30.7,0,19.6,0,8.5
		c0-1.9,1.1-3,3-3C3.9,5.6,4.8,5.6,5.8,5.6z M28,2.4c-6.7,0-13.4,0-20.1,0c0,1.1,0,2.1,0,3.1c6.7,0,13.4,0,20.1,0
		C28,4.5,28,3.5,28,2.4z M12.2,7.7c0,0.1,0,0.1,0,0.1c0,0.4,0,0.8,0,1.2c0,0.7,0.1,0.8,0.8,0.8c2.4,0,4.7,0,7.1,0c1,0,2.1,0,3.1,0
		c0.3,0,0.6-0.1,0.6-0.5c0-0.5,0-1.1,0-1.6C19.9,7.7,16.1,7.7,12.2,7.7z"/>
	<linearGradient id="SVGID_2_" gradientUnits="userSpaceOnUse" x1="6.8325" y1="21.4403" x2="29.126" y2="21.4403">
		<stop  offset="0" style="stop-color:#00B09B"/>
		<stop  offset="1" style="stop-color:#96C93D"/>
	</linearGradient>
	<path class="st1" d="M18,22.5c-3.3,0-6.6,0-10,0c-0.8,0-1.3-0.6-1.1-1.3c0.1-0.4,0.4-0.7,0.9-0.8c0.1,0,0.2,0,0.4,0
		c6.6,0,13.2,0,19.8,0c0.7,0,1.2,0.3,1.3,0.9c0.1,0.7-0.4,1.2-1.1,1.2c-1.4,0-2.8,0-4.1,0C21.9,22.5,19.9,22.5,18,22.5z"/>
	<linearGradient id="SVGID_3_" gradientUnits="userSpaceOnUse" x1="6.8322" y1="26.7352" x2="29.1251" y2="26.7352">
		<stop  offset="0" style="stop-color:#00B09B"/>
		<stop  offset="1" style="stop-color:#96C93D"/>
	</linearGradient>
	<path class="st2" d="M18,27.8c-3.3,0-6.6,0-9.9,0c-0.6,0-1-0.2-1.1-0.7c-0.2-0.7,0.2-1.4,0.9-1.4c0.1,0,0.2,0,0.3,0
		c6.6,0,13.2,0,19.8,0c0.7,0,1.2,0.3,1.2,0.9c0.1,0.7-0.4,1.2-1.2,1.2c-2.3,0-4.6,0-6.9,0C20,27.8,19,27.8,18,27.8z"/>
	<linearGradient id="SVGID_4_" gradientUnits="userSpaceOnUse" x1="6.8293" y1="32.0293" x2="29.1295" y2="32.0293">
		<stop  offset="0" style="stop-color:#00B09B"/>
		<stop  offset="1" style="stop-color:#96C93D"/>
	</linearGradient>
	<path class="st3" d="M18,31c3.3,0,6.6,0,10,0c0.6,0,1,0.2,1.1,0.7c0.2,0.6-0.2,1.3-0.9,1.4c-0.1,0-0.2,0-0.3,0
		c-6.6,0-13.2,0-19.8,0c-0.6,0-1-0.2-1.2-0.7c-0.3-0.7,0.2-1.4,1-1.4c0.8,0,1.6,0,2.5,0C12.9,31,15.4,31,18,31z"/>
	<linearGradient id="SVGID_5_" gradientUnits="userSpaceOnUse" x1="6.831" y1="37.3249" x2="29.1308" y2="37.3249">
		<stop  offset="0" style="stop-color:#00B09B"/>
		<stop  offset="1" style="stop-color:#96C93D"/>
	</linearGradient>
	<path class="st4" d="M18,36.3c3.3,0,6.6,0,9.9,0c0.5,0,0.9,0.1,1.1,0.6c0.3,0.6-0.1,1.4-0.8,1.5c-0.1,0-0.2,0-0.3,0
		c-6.6,0-13.3,0-19.9,0c-0.7,0-1.2-0.5-1.2-1.1c0-0.6,0.5-1,1.2-1c2.3,0,4.6,0,6.9,0C15.9,36.3,17,36.3,18,36.3z"/>
	<linearGradient id="SVGID_6_" gradientUnits="userSpaceOnUse" x1="6.8325" y1="16.1445" x2="17.4762" y2="16.1445">
		<stop  offset="0" style="stop-color:#00B09B"/>
		<stop  offset="1" style="stop-color:#96C93D"/>
	</linearGradient>
	<path class="st5" d="M12.1,15.1c1.4,0,2.7,0,4.1,0c0.8,0,1.2,0.4,1.2,1.1c0,0.7-0.5,1.1-1.2,1.1c-2.7,0-5.4,0-8.2,0
		c-0.8,0-1.2-0.4-1.2-1.1c0-0.6,0.5-1.1,1.3-1.1C9.4,15.1,10.8,15.1,12.1,15.1z"/>
</g>
</svg>
