<?xml version="1.0" encoding="UTF-8"?>
<svg xmlns="http://www.w3.org/2000/svg" xmlns:xlink="http://www.w3.org/1999/xlink" width="17pt" height="16pt" viewBox="0 0 17 16" version="1.1">
<g id="surface1">
<path style=" stroke:none;fill-rule:nonzero;fill:rgb(10.196078%,11.372549%,16.078431%);fill-opacity:1;" d="M 15.785156 10.628906 C 16.027344 10.628906 16.148438 10.515625 16.148438 10.285156 L 16.148438 0.6875 C 16.148438 0.457031 16.027344 0.34375 15.785156 0.34375 L 1.214844 0.34375 C 0.972656 0.34375 0.851562 0.457031 0.851562 0.6875 L 0.851562 10.285156 C 0.851562 10.515625 0.972656 10.628906 1.214844 10.628906 L 8.378906 10.628906 C 8.378906 10.515625 8.378906 10.515625 8.378906 10.398438 C 8.378906 8.570312 9.957031 6.972656 12.019531 6.972656 C 13.964844 6.972656 15.664062 8.457031 15.664062 10.398438 C 15.664062 10.515625 15.664062 10.628906 15.785156 10.628906 Z M 6.3125 2.742188 C 6.921875 2.171875 7.648438 1.941406 8.5 1.941406 C 9.351562 1.941406 10.078125 2.285156 10.6875 2.742188 C 10.808594 2.855469 10.808594 3.085938 10.6875 3.199219 C 10.6875 3.3125 10.5625 3.3125 10.441406 3.3125 C 10.320312 3.3125 10.320312 3.3125 10.199219 3.199219 C 9.714844 2.742188 9.105469 2.515625 8.5 2.515625 C 7.894531 2.515625 7.285156 2.742188 6.800781 3.199219 C 6.679688 3.3125 6.4375 3.3125 6.3125 3.199219 C 6.191406 3.085938 6.191406 2.855469 6.3125 2.742188 Z M 7.285156 9.371094 L 3.277344 9.371094 C 3.035156 9.371094 2.914062 9.257812 2.914062 9.027344 C 2.914062 8.800781 3.035156 8.6875 3.277344 8.6875 L 7.285156 8.6875 C 7.527344 8.6875 7.648438 8.800781 7.648438 9.027344 C 7.648438 9.257812 7.40625 9.371094 7.285156 9.371094 Z M 8.863281 8 L 3.277344 8 C 3.15625 8 2.914062 7.886719 2.914062 7.65625 C 2.914062 7.429688 3.035156 7.3125 3.277344 7.3125 L 8.863281 7.3125 C 9.105469 7.3125 9.230469 7.429688 9.230469 7.65625 C 9.230469 7.886719 8.984375 8 8.863281 8 Z M 13.722656 6.515625 L 3.277344 6.515625 C 3.035156 6.515625 2.914062 6.398438 2.914062 6.171875 C 2.914062 5.941406 3.035156 5.828125 3.277344 5.828125 L 13.601562 5.828125 C 13.84375 5.828125 13.964844 5.941406 13.964844 6.171875 C 13.964844 6.285156 13.84375 6.515625 13.722656 6.515625 Z M 13.722656 4.914062 L 3.277344 4.914062 C 3.15625 4.914062 2.914062 4.800781 2.914062 4.570312 C 2.914062 4.34375 3.035156 4.230469 3.277344 4.230469 L 13.601562 4.230469 C 13.84375 4.230469 13.964844 4.34375 13.964844 4.570312 C 13.964844 4.800781 13.84375 4.914062 13.722656 4.914062 Z M 13.722656 4.914062 "/>
<path style=" stroke:none;fill-rule:nonzero;fill:rgb(10.196078%,11.372549%,16.078431%);fill-opacity:1;" d="M 12.019531 13.144531 C 13.601562 13.144531 14.9375 11.886719 14.9375 10.398438 C 14.9375 8.914062 13.601562 7.65625 12.019531 7.65625 C 10.441406 7.65625 9.105469 8.914062 9.105469 10.398438 C 9.105469 11.886719 10.441406 13.144531 12.019531 13.144531 Z M 10.5625 10.058594 C 10.5625 9.941406 10.6875 9.941406 10.808594 9.941406 L 11.535156 9.941406 L 11.777344 9.144531 C 11.777344 9.027344 11.898438 9.027344 12.019531 9.027344 C 12.144531 9.027344 12.265625 9.144531 12.265625 9.144531 L 12.507812 9.828125 L 13.355469 9.828125 C 13.480469 9.828125 13.601562 9.941406 13.601562 9.941406 C 13.601562 10.058594 13.601562 10.171875 13.480469 10.171875 L 12.871094 10.628906 L 13.113281 11.3125 C 13.113281 11.429688 13.113281 11.542969 12.992188 11.542969 C 12.992188 11.542969 12.871094 11.542969 12.871094 11.542969 C 12.871094 11.542969 12.75 11.542969 12.75 11.542969 L 12.019531 11.3125 L 11.414062 11.769531 C 11.292969 11.886719 11.171875 11.886719 11.050781 11.769531 C 11.050781 11.65625 10.929688 11.542969 11.050781 11.429688 L 11.292969 10.742188 L 10.5625 10.398438 C 10.5625 10.285156 10.441406 10.171875 10.5625 10.058594 Z M 10.5625 10.058594 "/>
<path style=" stroke:none;fill-rule:nonzero;fill:rgb(10.196078%,11.372549%,16.078431%);fill-opacity:1;" d="M 8.621094 14.742188 C 8.742188 14.855469 8.863281 14.855469 8.984375 14.855469 L 10.078125 14.515625 L 10.441406 15.542969 C 10.441406 15.65625 10.5625 15.769531 10.808594 15.769531 C 10.929688 15.769531 11.050781 15.65625 11.171875 15.542969 L 12.019531 13.941406 C 11.050781 13.828125 10.199219 13.484375 9.59375 12.800781 L 8.5 14.398438 C 8.5 14.515625 8.5 14.628906 8.621094 14.742188 Z M 8.621094 14.742188 "/>
<path style=" stroke:none;fill-rule:nonzero;fill:rgb(10.196078%,11.372549%,16.078431%);fill-opacity:1;" d="M 15.542969 14.742188 C 15.664062 14.628906 15.664062 14.515625 15.664062 14.398438 L 14.8125 12.6875 C 14.207031 13.371094 13.355469 13.714844 12.386719 13.828125 L 13.234375 15.429688 C 13.234375 15.542969 13.355469 15.65625 13.601562 15.65625 C 13.722656 15.65625 13.84375 15.542969 13.964844 15.429688 L 14.328125 14.398438 L 15.421875 14.742188 C 15.300781 14.855469 15.421875 14.855469 15.542969 14.742188 Z M 15.542969 14.742188 "/>
</g>
</svg>
