<?xml version="1.0" encoding="utf-8"?>
<!-- Generator: Adobe Illustrator 24.0.2, SVG Export Plug-In . SVG Version: 6.00 Build 0)  -->
<svg version="1.1" id="Layer_1" xmlns="http://www.w3.org/2000/svg" xmlns:xlink="http://www.w3.org/1999/xlink" x="0px" y="0px"
	 viewBox="0 0 14 14" style="enable-background:new 0 0 14 14;" xml:space="preserve">
<style type="text/css">
	.st0{fill:#1A1D29;}
</style>
<g>
	<path class="st0" d="M13,9.3c0.2,0,0.3-0.1,0.3-0.3V0.6c0-0.2-0.1-0.3-0.3-0.3H1c-0.2,0-0.3,0.1-0.3,0.3V9c0,0.2,0.1,0.3,0.3,0.3
		h5.9c0-0.1,0-0.1,0-0.2c0-1.6,1.3-3,3-3c1.6,0,3,1.3,3,3C12.9,9.2,12.9,9.3,13,9.3L13,9.3z M5.2,2.4C5.7,1.9,6.3,1.7,7,1.7
		c0.7,0,1.3,0.3,1.8,0.7c0.1,0.1,0.1,0.3,0,0.4C8.8,2.9,8.7,2.9,8.6,2.9c-0.1,0-0.1,0-0.2-0.1C8,2.4,7.5,2.2,7,2.2
		c-0.5,0-1,0.2-1.4,0.6c-0.1,0.1-0.3,0.1-0.4,0C5.1,2.7,5.1,2.5,5.2,2.4z M6,8.2H2.7c-0.2,0-0.3-0.1-0.3-0.3c0-0.2,0.1-0.3,0.3-0.3
		H6c0.2,0,0.3,0.1,0.3,0.3C6.3,8.1,6.1,8.2,6,8.2z M7.3,7H2.7C2.6,7,2.4,6.9,2.4,6.7c0-0.2,0.1-0.3,0.3-0.3h4.6
		c0.2,0,0.3,0.1,0.3,0.3C7.6,6.9,7.4,7,7.3,7z M11.3,5.7H2.7c-0.2,0-0.3-0.1-0.3-0.3c0-0.2,0.1-0.3,0.3-0.3h8.5
		c0.2,0,0.3,0.1,0.3,0.3C11.5,5.5,11.4,5.7,11.3,5.7z M11.3,4.3H2.7C2.6,4.3,2.4,4.2,2.4,4c0-0.2,0.1-0.3,0.3-0.3h8.5
		c0.2,0,0.3,0.1,0.3,0.3C11.5,4.2,11.4,4.3,11.3,4.3z"/>
	<path class="st0" d="M9.9,11.5c1.3,0,2.4-1.1,2.4-2.4c0-1.3-1.1-2.4-2.4-2.4c-1.3,0-2.4,1.1-2.4,2.4C7.5,10.4,8.6,11.5,9.9,11.5z
		 M8.7,8.8c0-0.1,0.1-0.1,0.2-0.1h0.6L9.7,8c0-0.1,0.1-0.1,0.2-0.1C10,7.9,10.1,8,10.1,8l0.2,0.6H11c0.1,0,0.2,0.1,0.2,0.1
		c0,0.1,0,0.2-0.1,0.2l-0.5,0.4l0.2,0.6c0,0.1,0,0.2-0.1,0.2c0,0-0.1,0-0.1,0c0,0-0.1,0-0.1,0L9.9,9.9l-0.5,0.4
		c-0.1,0.1-0.2,0.1-0.3,0C9.1,10.2,9,10.1,9.1,10l0.2-0.6L8.7,9.1C8.7,9,8.6,8.9,8.7,8.8z"/>
	<path class="st0" d="M7.1,12.9C7.2,13,7.3,13,7.4,13l0.9-0.3l0.3,0.9c0,0.1,0.1,0.2,0.3,0.2h0c0.1,0,0.2-0.1,0.3-0.2l0.7-1.4
		c-0.8-0.1-1.5-0.4-2-1L7,12.6C7,12.7,7,12.8,7.1,12.9z"/>
	<path class="st0" d="M12.8,12.9c0.1-0.1,0.1-0.2,0.1-0.3l-0.7-1.5c-0.5,0.6-1.2,0.9-2,1l0.7,1.4c0,0.1,0.1,0.2,0.3,0.2h0
		c0.1,0,0.2-0.1,0.3-0.2l0.3-0.9l0.9,0.3C12.6,13,12.7,13,12.8,12.9z"/>
</g>
</svg>
