<?xml version="1.0" encoding="utf-8"?>
<!-- Generator: Adobe Illustrator 24.0.2, SVG Export Plug-In . SVG Version: 6.00 Build 0)  -->
<svg version="1.1" id="Layer_1" xmlns="http://www.w3.org/2000/svg" xmlns:xlink="http://www.w3.org/1999/xlink" x="0px" y="0px"
	 viewBox="0 0 57 57" style="enable-background:new 0 0 57 57;" xml:space="preserve">
<style type="text/css">
	.st0{fill:url(#SVGID_1_);}
	.st1{fill:url(#SVGID_2_);}
	.st2{fill:url(#SVGID_3_);}
	.st3{fill:url(#SVGID_4_);}
	.st4{fill:url(#SVGID_5_);}
	.st5{fill:url(#SVGID_6_);}
	.st6{fill:url(#SVGID_7_);}
	.st7{fill:url(#SVGID_8_);}
	.st8{fill:url(#SVGID_9_);}
	.st9{fill:url(#SVGID_10_);}
	.st10{fill:url(#SVGID_11_);}
</style>
<title>Man Audience</title>
<g>
	<g>
		
			<linearGradient id="SVGID_1_" gradientUnits="userSpaceOnUse" x1="28.4858" y1="9.5031" x2="28.4858" y2="18.9324" gradientTransform="matrix(1 0 0 -1 0 56.1898)">
			<stop  offset="0" style="stop-color:#366E9D"/>
			<stop  offset="1" style="stop-color:#FFCC3B"/>
		</linearGradient>
		<path class="st0" d="M28.5,46.7c2.8,0,5.1-2.1,5.1-4.7c0-2.6-2.3-4.7-5.1-4.7s-5.1,2.1-5.1,4.7C23.4,44.6,25.7,46.7,28.5,46.7z
			 M28.5,39.1c1.8,0,3.2,1.3,3.2,2.9c0,1.6-1.4,2.9-3.2,2.9c-1.8,0-3.2-1.3-3.2-2.9C25.3,40.4,26.7,39.1,28.5,39.1z"/>
		
			<linearGradient id="SVGID_2_" gradientUnits="userSpaceOnUse" x1="28.45" y1="-0.274" x2="28.45" y2="9.2633" gradientTransform="matrix(1 0 0 -1 0 56.1898)">
			<stop  offset="0" style="stop-color:#366E9D"/>
			<stop  offset="1" style="stop-color:#FFCC3B"/>
		</linearGradient>
		<path class="st1" d="M21.3,56.5h14.3c0.5,0,0.9-0.4,0.9-0.9l0,0v-1.2c0-4.1-3.6-7.5-8.1-7.5s-8.1,3.3-8.1,7.5v1.2
			C20.4,56.1,20.8,56.5,21.3,56.5L21.3,56.5z M22.3,54.4c0-3.1,2.8-5.7,6.2-5.7s6.2,2.6,6.2,5.7v0.3H22.3V54.4z"/>
		
			<linearGradient id="SVGID_3_" gradientUnits="userSpaceOnUse" x1="48.3883" y1="9.5031" x2="48.3883" y2="18.9324" gradientTransform="matrix(1 0 0 -1 0 56.1898)">
			<stop  offset="0" style="stop-color:#366E9D"/>
			<stop  offset="1" style="stop-color:#FFCC3B"/>
		</linearGradient>
		<path class="st2" d="M43.3,42c0,2.6,2.3,4.7,5.1,4.7s5.1-2.1,5.1-4.7c0-2.6-2.3-4.7-5.1-4.7C45.6,37.3,43.3,39.4,43.3,42z
			 M51.6,42c0,1.6-1.4,2.9-3.2,2.9s-3.2-1.3-3.2-2.9c0-1.6,1.4-2.9,3.2-2.9C50.2,39.1,51.6,40.4,51.6,42z"/>
		
			<linearGradient id="SVGID_4_" gradientUnits="userSpaceOnUse" x1="48.4063" y1="-0.274" x2="48.4063" y2="9.2633" gradientTransform="matrix(1 0 0 -1 0 56.1898)">
			<stop  offset="0" style="stop-color:#366E9D"/>
			<stop  offset="1" style="stop-color:#FFCC3B"/>
		</linearGradient>
		<path class="st3" d="M40.4,54.4v1.2c0,0.5,0.4,0.9,0.9,0.9l0,0h14.3c0.5,0,0.9-0.4,0.9-0.9v-1.2c0-4.1-3.6-7.5-8.1-7.5
			S40.4,50.3,40.4,54.4z M54.6,54.4v0.3H42.2v-0.3c0-3.1,2.8-5.7,6.2-5.7C51.8,48.8,54.6,51.3,54.6,54.4z"/>
		
			<linearGradient id="SVGID_5_" gradientUnits="userSpaceOnUse" x1="8.5297" y1="9.5031" x2="8.5297" y2="18.9324" gradientTransform="matrix(1 0 0 -1 0 56.1898)">
			<stop  offset="0" style="stop-color:#366E9D"/>
			<stop  offset="1" style="stop-color:#FFCC3B"/>
		</linearGradient>
		<path class="st4" d="M8.5,46.7c2.8,0,5.1-2.1,5.1-4.7c0-2.6-2.3-4.7-5.1-4.7S3.4,39.4,3.4,42S5.7,46.7,8.5,46.7z M8.5,39.1
			c1.8,0,3.2,1.3,3.2,2.9c0,1.6-1.4,2.9-3.2,2.9S5.4,43.5,5.4,42C5.4,40.4,6.8,39.1,8.5,39.1z"/>
		
			<linearGradient id="SVGID_6_" gradientUnits="userSpaceOnUse" x1="8.5297" y1="-0.274" x2="8.5297" y2="9.2633" gradientTransform="matrix(1 0 0 -1 0 56.1898)">
			<stop  offset="0" style="stop-color:#366E9D"/>
			<stop  offset="1" style="stop-color:#FFCC3B"/>
		</linearGradient>
		<path class="st5" d="M1.4,56.5h14.3c0.5,0,0.9-0.4,0.9-0.9l0,0v-1.2c0-4.1-3.6-7.5-8.1-7.5s-8.1,3.3-8.1,7.5v1.2
			C0.5,56.1,0.9,56.5,1.4,56.5z M2.4,54.4c0-3.1,2.8-5.7,6.2-5.7s6.2,2.6,6.2,5.7v0.3H2.4V54.4z"/>
		
			<linearGradient id="SVGID_7_" gradientUnits="userSpaceOnUse" x1="38.4551" y1="11.772" x2="38.4551" y2="21.2013" gradientTransform="matrix(1 0 0 -1 0 56.1898)">
			<stop  offset="0" style="stop-color:#366E9D"/>
			<stop  offset="1" style="stop-color:#FFCC3B"/>
		</linearGradient>
		<path class="st6" d="M43.5,39.7c0-2.6-2.3-4.7-5.1-4.7c-2.8,0-5.1,2.1-5.1,4.7c0,2.6,2.3,4.7,5.1,4.7
			C41.3,44.4,43.5,42.3,43.5,39.7z M35.3,39.7c0-1.6,1.4-2.9,3.2-2.9c1.8,0,3.2,1.3,3.2,2.9c0,1.6-1.4,2.9-3.2,2.9
			S35.3,41.3,35.3,39.7L35.3,39.7z"/>
		
			<linearGradient id="SVGID_8_" gradientUnits="userSpaceOnUse" x1="18.5168" y1="11.772" x2="18.5168" y2="21.2013" gradientTransform="matrix(1 0 0 -1 0 56.1898)">
			<stop  offset="0" style="stop-color:#366E9D"/>
			<stop  offset="1" style="stop-color:#FFCC3B"/>
		</linearGradient>
		<path class="st7" d="M18.5,35c-2.8,0-5.1,2.1-5.1,4.7c0,2.6,2.3,4.7,5.1,4.7s5.1-2.1,5.1-4.7C23.6,37.1,21.3,35,18.5,35z
			 M18.5,42.6c-1.8,0-3.2-1.3-3.2-2.9c0-1.6,1.4-2.9,3.2-2.9s3.2,1.3,3.2,2.9C21.7,41.3,20.2,42.6,18.5,42.6z"/>
		
			<linearGradient id="SVGID_9_" gradientUnits="userSpaceOnUse" x1="28.432" y1="22.6252" x2="28.432" y2="55.7508" gradientTransform="matrix(1 0 0 -1 0 56.1898)">
			<stop  offset="0" style="stop-color:#366E9D"/>
			<stop  offset="1" style="stop-color:#FFCC3B"/>
		</linearGradient>
		<path class="st8" d="M7.6,33.6h41.7c0.5,0,0.9-0.4,0.9-0.9v-5.1c0-0.5-0.4-0.9-0.9-0.9h-4.6v-4.4c1.4-0.4,2.1-1.8,1.7-3.2
			c-0.5-1.3-1.9-2-3.3-1.6c-1.4,0.4-2.1,1.8-1.7,3.2c0.2,0.6,0.8,1.2,1.4,1.5v4.5h-2.1v-2.8c0-2.9-2.5-5.2-5.5-5.2H33v-0.9
			c0.3-0.2,0.5-0.4,0.7-0.6c1.4-1.4,2.2-3.2,2.2-5.1V6.5h0.7c0.5,0,0.9-0.4,0.9-0.9c0-2.9-2.4-5.2-5.4-5.2h-4.6
			c-0.6,0-1.3,0.2-1.8,0.5c-2.9,1.1-4.8,3.7-4.8,6.7v4.3c0,1.9,0.8,3.7,2.2,5.1c0.3,0.3,0.6,0.6,0.9,0.8v0.7h-2.2
			c-3,0-5.5,2.3-5.5,5.2v2.8H7.6c-0.5,0-1,0.4-1,0.9v5.2C6.6,33.1,7.1,33.6,7.6,33.6z M43.9,19.2c0.4,0,0.7,0.3,0.7,0.7
			c0,0.4-0.3,0.7-0.7,0.7s-0.7-0.3-0.7-0.7C43.2,19.5,43.5,19.2,43.9,19.2z M38.8,23.8v2.8h-9.5v-4.5l3-1.7h3
			C37.2,20.4,38.8,21.9,38.8,23.8z M27.4,2.3H32c1.6,0,3,1,3.4,2.5h-8c-0.7,0-1.3-0.6-1.3-1.3S26.7,2.3,27.4,2.3z M24.3,4
			c0.1,0.8,0.6,1.5,1.4,2.1c-0.8,0.7-1.8,1.2-2.9,1.3C22.8,6,23.4,4.9,24.3,4z M22.8,11.9V9.1C24,9,26,8.5,27.7,6.6h6.2V12
			c0,1.4-0.6,2.8-1.7,3.9c-1,1-2.4,1.6-4,1.6c-1.5,0-2.9-0.6-3.9-1.6C23.3,14.8,22.8,13.4,22.8,11.9z M28.3,19.2
			c0.9,0,1.9-0.2,2.7-0.5V19l-2.7,1.6L25.8,19v-0.1C26.7,19.1,27.5,19.2,28.3,19.2z M18.2,23.8c0-1.9,1.6-3.4,3.6-3.4h3l2.7,1.7v4.5
			h-9.3V23.8z M8.5,28.5H17c0.1,0,0.3,0,0.4,0h22.1c0.1,0,0.3,0,0.4,0h8.4v3.3H8.5V28.5z"/>
	</g>
	
		<linearGradient id="SVGID_10_" gradientUnits="userSpaceOnUse" x1="25.5348" y1="43.4993" x2="25.5348" y2="46.385" gradientTransform="matrix(1 0 0 -1 0 56.1898)">
		<stop  offset="0" style="stop-color:#366E9D"/>
		<stop  offset="1" style="stop-color:#FFCC3B"/>
	</linearGradient>
	<path class="st9" d="M27.6,10.7c0-0.5-0.4-0.9-0.9-0.9c-0.5,0-0.9,0.4-0.9,0.9c0,0.1-0.1,0.2-0.2,0.2c-0.1,0-0.2-0.1-0.2-0.2
		c0-0.5-0.4-0.9-0.9-0.9s-0.9,0.4-0.9,0.9c0,1.1,0.9,2,2.1,2C26.7,12.7,27.6,11.8,27.6,10.7z"/>
	
		<linearGradient id="SVGID_11_" gradientUnits="userSpaceOnUse" x1="31.1492" y1="43.4993" x2="31.1492" y2="46.3848" gradientTransform="matrix(1 0 0 -1 0 56.1898)">
		<stop  offset="0" style="stop-color:#366E9D"/>
		<stop  offset="1" style="stop-color:#FFCC3B"/>
	</linearGradient>
	<path class="st10" d="M31.1,12.7c1.2,0,2.1-0.9,2.1-2c0-0.5-0.4-0.9-0.9-0.9c-0.5,0-0.9,0.4-0.9,0.9c0,0.1-0.1,0.2-0.2,0.2
		c-0.1,0-0.2-0.1-0.2-0.2c0-0.5-0.4-0.9-0.9-0.9s-1,0.4-1,0.9C29.1,11.8,30,12.7,31.1,12.7z"/>
</g>
</svg>
