<?xml version="1.0" encoding="UTF-8"?>
<svg xmlns="http://www.w3.org/2000/svg" xmlns:xlink="http://www.w3.org/1999/xlink" width="16pt" height="16pt" viewBox="0 0 16 16" version="1.1">
<g id="surface1">
<path style=" stroke:none;fill-rule:nonzero;fill:rgb(69.019608%,69.019608%,69.019608%);fill-opacity:1;" d="M 8 0.421875 C 3.789062 0.421875 0.421875 3.789062 0.421875 8 C 0.421875 12.210938 3.789062 15.578125 8 15.578125 C 12.210938 15.578125 15.578125 12.210938 15.578125 8 C 15.578125 3.789062 12.210938 0.421875 8 0.421875 Z M 8 14.90625 C 4.210938 14.90625 1.09375 11.789062 1.09375 8 C 1.09375 4.210938 4.210938 1.09375 8 1.09375 C 11.789062 1.09375 14.90625 4.210938 14.90625 8 C 14.90625 11.789062 11.789062 14.90625 8 14.90625 Z M 8 14.90625 "/>
<path style=" stroke:none;fill-rule:nonzero;fill:rgb(69.019608%,69.019608%,69.019608%);fill-opacity:1;" d="M 8 3.535156 C 8.167969 3.535156 8.335938 3.367188 8.335938 3.199219 L 8.335938 2.359375 C 8.335938 2.191406 8.167969 2.019531 8 2.019531 C 7.832031 2.019531 7.664062 2.105469 7.664062 2.359375 L 7.664062 3.199219 C 7.664062 3.367188 7.832031 3.535156 8 3.535156 Z M 8 3.535156 "/>
<path style=" stroke:none;fill-rule:nonzero;fill:rgb(69.019608%,69.019608%,69.019608%);fill-opacity:1;" d="M 5.304688 3.957031 C 5.390625 4.125 5.472656 4.210938 5.558594 4.210938 C 5.640625 4.210938 5.640625 4.210938 5.726562 4.125 C 5.894531 4.042969 5.980469 3.789062 5.894531 3.621094 L 5.472656 2.949219 C 5.390625 2.777344 5.136719 2.695312 5.050781 2.777344 C 4.882812 2.863281 4.800781 3.117188 4.882812 3.285156 Z M 5.304688 3.957031 "/>
<path style=" stroke:none;fill-rule:nonzero;fill:rgb(69.019608%,69.019608%,69.019608%);fill-opacity:1;" d="M 3.957031 5.304688 L 3.285156 4.882812 C 3.117188 4.800781 2.949219 4.882812 2.863281 5.050781 C 2.777344 5.222656 2.863281 5.390625 3.03125 5.472656 L 3.621094 5.894531 C 3.707031 5.894531 3.789062 5.894531 3.875 5.894531 C 3.957031 5.894531 4.042969 5.894531 4.125 5.726562 C 4.210938 5.558594 4.125 5.390625 3.957031 5.304688 Z M 3.957031 5.304688 "/>
<path style=" stroke:none;fill-rule:nonzero;fill:rgb(69.019608%,69.019608%,69.019608%);fill-opacity:1;" d="M 3.535156 8 C 3.535156 7.832031 3.367188 7.664062 3.199219 7.664062 L 2.359375 7.664062 C 2.191406 7.664062 2.019531 7.832031 2.019531 8 C 2.019531 8.167969 2.191406 8.335938 2.359375 8.335938 L 3.199219 8.335938 C 3.367188 8.335938 3.535156 8.167969 3.535156 8 Z M 3.535156 8 "/>
<path style=" stroke:none;fill-rule:nonzero;fill:rgb(69.019608%,69.019608%,69.019608%);fill-opacity:1;" d="M 3.621094 10.105469 L 2.863281 10.527344 C 2.695312 10.609375 2.609375 10.863281 2.695312 10.949219 C 2.777344 11.03125 2.863281 11.117188 3.03125 11.117188 C 3.117188 11.117188 3.117188 11.117188 3.199219 11.03125 L 3.957031 10.609375 C 4.125 10.527344 4.210938 10.273438 4.125 10.191406 C 4.042969 10.105469 3.789062 10.019531 3.621094 10.105469 Z M 3.621094 10.105469 "/>
<path style=" stroke:none;fill-rule:nonzero;fill:rgb(69.019608%,69.019608%,69.019608%);fill-opacity:1;" d="M 5.726562 11.875 C 5.558594 11.789062 5.390625 11.875 5.304688 12.042969 L 4.882812 12.800781 C 4.800781 12.96875 4.882812 13.136719 5.050781 13.222656 C 5.136719 13.222656 5.136719 13.304688 5.222656 13.304688 C 5.304688 13.304688 5.472656 13.222656 5.558594 13.136719 L 5.894531 12.378906 C 5.980469 12.210938 5.894531 11.957031 5.726562 11.875 Z M 5.726562 11.875 "/>
<path style=" stroke:none;fill-rule:nonzero;fill:rgb(69.019608%,69.019608%,69.019608%);fill-opacity:1;" d="M 8 12.464844 C 7.832031 12.464844 7.664062 12.632812 7.664062 12.800781 L 7.664062 13.640625 C 7.664062 13.808594 7.832031 13.980469 8 13.980469 C 8.167969 13.980469 8.335938 13.808594 8.335938 13.640625 L 8.335938 12.800781 C 8.335938 12.632812 8.167969 12.464844 8 12.464844 Z M 8 12.464844 "/>
<path style=" stroke:none;fill-rule:nonzero;fill:rgb(69.019608%,69.019608%,69.019608%);fill-opacity:1;" d="M 10.695312 12.042969 C 10.609375 11.875 10.359375 11.789062 10.273438 11.875 C 10.105469 11.957031 10.019531 12.210938 10.105469 12.292969 L 10.527344 13.050781 C 10.609375 13.136719 10.695312 13.222656 10.863281 13.222656 C 10.949219 13.222656 10.949219 13.222656 11.03125 13.136719 C 11.199219 13.050781 11.285156 12.800781 11.199219 12.714844 Z M 10.695312 12.042969 "/>
<path style=" stroke:none;fill-rule:nonzero;fill:rgb(69.019608%,69.019608%,69.019608%);fill-opacity:1;" d="M 13.050781 10.527344 L 12.378906 10.105469 C 12.210938 10.019531 12.042969 10.105469 11.957031 10.273438 C 11.875 10.441406 11.957031 10.609375 12.125 10.695312 L 12.882812 11.117188 C 12.96875 11.117188 12.96875 11.199219 13.050781 11.199219 C 13.136719 11.199219 13.304688 11.117188 13.390625 11.03125 C 13.304688 10.863281 13.222656 10.609375 13.050781 10.527344 Z M 13.050781 10.527344 "/>
<path style=" stroke:none;fill-rule:nonzero;fill:rgb(69.019608%,69.019608%,69.019608%);fill-opacity:1;" d="M 13.640625 7.664062 L 12.800781 7.664062 C 12.632812 7.664062 12.464844 7.832031 12.464844 8 C 12.464844 8.167969 12.632812 8.335938 12.800781 8.335938 L 13.640625 8.335938 C 13.808594 8.335938 13.980469 8.167969 13.980469 8 C 13.980469 7.832031 13.894531 7.664062 13.640625 7.664062 Z M 13.640625 7.664062 "/>
<path style=" stroke:none;fill-rule:nonzero;fill:rgb(69.019608%,69.019608%,69.019608%);fill-opacity:1;" d="M 12.210938 5.894531 C 12.292969 5.894531 12.292969 5.894531 12.378906 5.808594 L 13.136719 5.390625 C 13.304688 5.304688 13.390625 5.050781 13.304688 4.96875 C 13.222656 4.800781 12.96875 4.714844 12.882812 4.800781 L 12.125 5.222656 C 11.957031 5.304688 11.875 5.558594 11.957031 5.640625 C 11.957031 5.894531 12.042969 5.894531 12.210938 5.894531 Z M 12.210938 5.894531 "/>
<path style=" stroke:none;fill-rule:nonzero;fill:rgb(69.019608%,69.019608%,69.019608%);fill-opacity:1;" d="M 11.03125 2.777344 C 10.863281 2.695312 10.695312 2.777344 10.609375 2.949219 L 10.105469 3.621094 C 10.019531 3.789062 10.105469 3.957031 10.273438 4.042969 C 10.359375 4.042969 10.359375 4.125 10.441406 4.125 C 10.527344 4.125 10.695312 4.042969 10.777344 3.957031 L 11.199219 3.199219 C 11.199219 3.117188 11.199219 2.863281 11.03125 2.777344 Z M 11.03125 2.777344 "/>
<path style=" stroke:none;fill-rule:nonzero;fill:rgb(69.019608%,69.019608%,69.019608%);fill-opacity:1;" d="M 8 8.335938 L 10.105469 8.335938 C 10.273438 8.335938 10.441406 8.167969 10.441406 8 C 10.441406 7.832031 10.273438 7.664062 10.105469 7.664062 L 8.335938 7.664062 L 8.335938 5.050781 C 8.335938 4.882812 8.167969 4.714844 8 4.714844 C 7.832031 4.714844 7.664062 4.800781 7.664062 5.050781 L 7.664062 8 C 7.664062 8.167969 7.832031 8.335938 8 8.335938 Z M 8 8.335938 "/>
</g>
</svg>
