<?xml version="1.0" encoding="UTF-8"?>
<svg xmlns="http://www.w3.org/2000/svg" xmlns:xlink="http://www.w3.org/1999/xlink" width="47pt" height="47pt" viewBox="0 0 47 47" version="1.1">
<defs>
<clipPath id="clip1">
  <path d="M 1 29 L 46 29 L 46 46 L 1 46 Z M 1 29 "/>
</clipPath>
<clipPath id="clip2">
  <path d="M 46 23.5 C 46 35.925781 35.925781 46 23.5 46 C 11.074219 46 1 35.925781 1 23.5 C 1 11.074219 11.074219 1 23.5 1 C 35.925781 1 46 11.074219 46 23.5 Z M 46 23.5 "/>
</clipPath>
<clipPath id="clip3">
  <path d="M 31 24 L 38 24 L 38 34 L 31 34 Z M 31 24 "/>
</clipPath>
<clipPath id="clip4">
  <path d="M 46 23.5 C 46 35.925781 35.925781 46 23.5 46 C 11.074219 46 1 35.925781 1 23.5 C 1 11.074219 11.074219 1 23.5 1 C 35.925781 1 46 11.074219 46 23.5 Z M 46 23.5 "/>
</clipPath>
<clipPath id="clip5">
  <path d="M 9 11 L 19 11 L 19 18 L 9 18 Z M 9 11 "/>
</clipPath>
<clipPath id="clip6">
  <path d="M 46 23.5 C 46 35.925781 35.925781 46 23.5 46 C 11.074219 46 1 35.925781 1 23.5 C 1 11.074219 11.074219 1 23.5 1 C 35.925781 1 46 11.074219 46 23.5 Z M 46 23.5 "/>
</clipPath>
<clipPath id="clip7">
  <path d="M 8 21 L 20 21 L 20 35 L 8 35 Z M 8 21 "/>
</clipPath>
<clipPath id="clip8">
  <path d="M 46 23.5 C 46 35.925781 35.925781 46 23.5 46 C 11.074219 46 1 35.925781 1 23.5 C 1 11.074219 11.074219 1 23.5 1 C 35.925781 1 46 11.074219 46 23.5 Z M 46 23.5 "/>
</clipPath>
<clipPath id="clip9">
  <path d="M 11 25 L 15 25 L 15 31 L 11 31 Z M 11 25 "/>
</clipPath>
<clipPath id="clip10">
  <path d="M 46 23.5 C 46 35.925781 35.925781 46 23.5 46 C 11.074219 46 1 35.925781 1 23.5 C 1 11.074219 11.074219 1 23.5 1 C 35.925781 1 46 11.074219 46 23.5 Z M 46 23.5 "/>
</clipPath>
<clipPath id="clip11">
  <path d="M 5 32 L 15 32 L 15 44 L 5 44 Z M 5 32 "/>
</clipPath>
<clipPath id="clip12">
  <path d="M 46 23.5 C 46 35.925781 35.925781 46 23.5 46 C 11.074219 46 1 35.925781 1 23.5 C 1 11.074219 11.074219 1 23.5 1 C 35.925781 1 46 11.074219 46 23.5 Z M 46 23.5 "/>
</clipPath>
<clipPath id="clip13">
  <path d="M 14 8 L 25 8 L 25 19 L 14 19 Z M 14 8 "/>
</clipPath>
<clipPath id="clip14">
  <path d="M 46 23.5 C 46 35.925781 35.925781 46 23.5 46 C 11.074219 46 1 35.925781 1 23.5 C 1 11.074219 11.074219 1 23.5 1 C 35.925781 1 46 11.074219 46 23.5 Z M 46 23.5 "/>
</clipPath>
<clipPath id="clip15">
  <path d="M 9 8 L 24 8 L 24 15 L 9 15 Z M 9 8 "/>
</clipPath>
<clipPath id="clip16">
  <path d="M 46 23.5 C 46 35.925781 35.925781 46 23.5 46 C 11.074219 46 1 35.925781 1 23.5 C 1 11.074219 11.074219 1 23.5 1 C 35.925781 1 46 11.074219 46 23.5 Z M 46 23.5 "/>
</clipPath>
<clipPath id="clip17">
  <path d="M 8 7 L 24 7 L 24 14 L 8 14 Z M 8 7 "/>
</clipPath>
<clipPath id="clip18">
  <path d="M 46 23.5 C 46 35.925781 35.925781 46 23.5 46 C 11.074219 46 1 35.925781 1 23.5 C 1 11.074219 11.074219 1 23.5 1 C 35.925781 1 46 11.074219 46 23.5 Z M 46 23.5 "/>
</clipPath>
<clipPath id="clip19">
  <path d="M 1 11 L 10 11 L 10 18 L 1 18 Z M 1 11 "/>
</clipPath>
<clipPath id="clip20">
  <path d="M 46 23.5 C 46 35.925781 35.925781 46 23.5 46 C 11.074219 46 1 35.925781 1 23.5 C 1 11.074219 11.074219 1 23.5 1 C 35.925781 1 46 11.074219 46 23.5 Z M 46 23.5 "/>
</clipPath>
<clipPath id="clip21">
  <path d="M 22 9 L 39 9 L 39 31 L 22 31 Z M 22 9 "/>
</clipPath>
<clipPath id="clip22">
  <path d="M 46 23.5 C 46 35.925781 35.925781 46 23.5 46 C 11.074219 46 1 35.925781 1 23.5 C 1 11.074219 11.074219 1 23.5 1 C 35.925781 1 46 11.074219 46 23.5 Z M 46 23.5 "/>
</clipPath>
<clipPath id="clip23">
  <path d="M 34 20 L 41 20 L 41 34 L 34 34 Z M 34 20 "/>
</clipPath>
<clipPath id="clip24">
  <path d="M 46 23.5 C 46 35.925781 35.925781 46 23.5 46 C 11.074219 46 1 35.925781 1 23.5 C 1 11.074219 11.074219 1 23.5 1 C 35.925781 1 46 11.074219 46 23.5 Z M 46 23.5 "/>
</clipPath>
<clipPath id="clip25">
  <path d="M 35 19 L 42 19 L 42 36 L 35 36 Z M 35 19 "/>
</clipPath>
<clipPath id="clip26">
  <path d="M 46 23.5 C 46 35.925781 35.925781 46 23.5 46 C 11.074219 46 1 35.925781 1 23.5 C 1 11.074219 11.074219 1 23.5 1 C 35.925781 1 46 11.074219 46 23.5 Z M 46 23.5 "/>
</clipPath>
<clipPath id="clip27">
  <path d="M 31 33 L 38 33 L 38 46 L 31 46 Z M 31 33 "/>
</clipPath>
<clipPath id="clip28">
  <path d="M 46 23.5 C 46 35.925781 35.925781 46 23.5 46 C 11.074219 46 1 35.925781 1 23.5 C 1 11.074219 11.074219 1 23.5 1 C 35.925781 1 46 11.074219 46 23.5 Z M 46 23.5 "/>
</clipPath>
<clipPath id="clip29">
  <path d="M 13 20 L 24 20 L 24 30 L 13 30 Z M 13 20 "/>
</clipPath>
<clipPath id="clip30">
  <path d="M 46 23.5 C 46 35.925781 35.925781 46 23.5 46 C 11.074219 46 1 35.925781 1 23.5 C 1 11.074219 11.074219 1 23.5 1 C 35.925781 1 46 11.074219 46 23.5 Z M 46 23.5 "/>
</clipPath>
</defs>
<g id="surface1">
<path style=" stroke:none;fill-rule:nonzero;fill:rgb(2.745098%,66.27451%,94.117647%);fill-opacity:1;" d="M 46 23.5 C 46 35.925781 35.925781 46 23.5 46 C 11.074219 46 1 35.925781 1 23.5 C 1 11.074219 11.074219 1 23.5 1 C 35.925781 1 46 11.074219 46 23.5 Z M 46 23.5 "/>
<g clip-path="url(#clip1)" clip-rule="nonzero">
<g clip-path="url(#clip2)" clip-rule="nonzero">
<path style=" stroke:none;fill-rule:nonzero;fill:rgb(25.098039%,75.686275%,98.039216%);fill-opacity:1;" d="M 45.101562 29.898438 C 42.398438 39.199219 33.699219 46 23.5 46 C 13.300781 46 4.601562 39.199219 1.898438 29.898438 Z M 45.101562 29.898438 "/>
</g>
</g>
<g clip-path="url(#clip3)" clip-rule="nonzero">
<g clip-path="url(#clip4)" clip-rule="nonzero">
<path style=" stroke:none;fill-rule:nonzero;fill:rgb(100%,74.901961%,63.137255%);fill-opacity:1;" d="M 31.199219 33.800781 L 31.199219 24.601562 L 37.300781 24.601562 L 37.300781 33.800781 Z M 31.199219 33.800781 "/>
</g>
</g>
<g clip-path="url(#clip5)" clip-rule="nonzero">
<g clip-path="url(#clip6)" clip-rule="nonzero">
<path style=" stroke:none;fill-rule:nonzero;fill:rgb(100%,74.901961%,63.137255%);fill-opacity:1;" d="M 9.699219 11.601562 L 18.898438 11.601562 L 18.898438 17.101562 L 9.699219 17.101562 Z M 9.699219 11.601562 "/>
</g>
</g>
<g clip-path="url(#clip7)" clip-rule="nonzero">
<g clip-path="url(#clip8)" clip-rule="nonzero">
<path style=" stroke:none;fill-rule:nonzero;fill:rgb(100%,80.784314%,71.372549%);fill-opacity:1;" d="M 19.5 23.898438 L 19.5 30 L 14.601562 35 L 8.5 32 L 8.5 22.898438 C 8.5 22.101562 9 21.601562 9.800781 21.601562 C 10.5 21.601562 11 22 11.101562 22.699219 L 11.5 25.898438 L 13.898438 24 L 19.5 24 Z M 19.5 23.898438 "/>
</g>
</g>
<g clip-path="url(#clip9)" clip-rule="nonzero">
<g clip-path="url(#clip10)" clip-rule="nonzero">
<path style=" stroke:none;fill-rule:nonzero;fill:rgb(100%,69.019608%,53.72549%);fill-opacity:1;" d="M 14 30.699219 C 13.699219 30.699219 13.5 30.5 13.300781 30.199219 C 13.199219 28.898438 12.5 27.601562 11.5 26.699219 C 11.300781 26.5 11.300781 26.199219 11.398438 25.898438 C 11.601562 25.699219 11.898438 25.601562 12.300781 25.800781 C 13.5 26.898438 14.300781 28.398438 14.5 30.101562 C 14.601562 30.398438 14.398438 30.601562 14 30.699219 Z M 14 30.699219 "/>
</g>
</g>
<g clip-path="url(#clip11)" clip-rule="nonzero">
<g clip-path="url(#clip12)" clip-rule="nonzero">
<path style=" stroke:none;fill-rule:nonzero;fill:rgb(5.098039%,24.705882%,60%);fill-opacity:1;" d="M 8.5 32 L 14.601562 35.101562 L 10.898438 43.101562 L 5.398438 43.101562 L 5.398438 36.300781 Z M 8.5 32 "/>
</g>
</g>
<g clip-path="url(#clip13)" clip-rule="nonzero">
<g clip-path="url(#clip14)" clip-rule="nonzero">
<path style=" stroke:none;fill-rule:nonzero;fill:rgb(93.72549%,36.862745%,23.137255%);fill-opacity:1;" d="M 25 18.5 L 14.601562 18.5 C 14.601562 14 17.5 10 21.699219 8.601562 Z M 25 18.5 "/>
</g>
</g>
<g clip-path="url(#clip15)" clip-rule="nonzero">
<g clip-path="url(#clip16)" clip-rule="nonzero">
<path style=" stroke:none;fill-rule:nonzero;fill:rgb(100%,80.784314%,71.372549%);fill-opacity:1;" d="M 9.699219 14.699219 L 12.398438 14.699219 C 13.800781 14.699219 15 14 15.800781 12.800781 L 18.199219 12.800781 C 18.898438 12.800781 19.398438 12.300781 19.398438 11.601562 C 19.398438 10.898438 18.898438 10.398438 18.199219 10.398438 L 22 10.398438 C 22.699219 10.398438 23.199219 9.898438 23.199219 9.199219 C 23.199219 8.601562 22.601562 8 22 8 L 15.699219 8 C 13.398438 8 11.300781 9.101562 10.101562 11 L 9.699219 11.699219 Z M 9.699219 14.699219 "/>
</g>
</g>
<g clip-path="url(#clip17)" clip-rule="nonzero">
<g clip-path="url(#clip18)" clip-rule="nonzero">
<path style=" stroke:none;fill-rule:nonzero;fill:rgb(100%,69.019608%,53.72549%);fill-opacity:1;" d="M 15.699219 7.398438 L 21.800781 7.398438 C 22.800781 7.398438 23.699219 8.300781 23.699219 9.300781 C 23.699219 10.300781 22.800781 11.101562 21.800781 11.199219 L 16.300781 11.199219 C 16 11.199219 15.601562 10.898438 15.601562 10.5 C 15.601562 10.101562 15.898438 9.800781 16.300781 9.800781 L 21.800781 9.800781 C 22.101562 9.800781 22.5 9.601562 22.5 9.300781 C 22.5 9 22.300781 8.601562 22 8.601562 L 15.699219 8.601562 C 13.601562 8.601562 11.699219 9.601562 10.5 11.300781 L 8.898438 13.699219 L 8 13.101562 L 9.601562 10.699219 C 11 8.601562 13.300781 7.398438 15.699219 7.398438 Z M 15.699219 7.398438 "/>
</g>
</g>
<g clip-path="url(#clip19)" clip-rule="nonzero">
<g clip-path="url(#clip20)" clip-rule="nonzero">
<path style=" stroke:none;fill-rule:nonzero;fill:rgb(5.098039%,24.705882%,60%);fill-opacity:1;" d="M -1.398438 11.601562 L 9.699219 11.601562 L 9.699219 17.101562 L -1.398438 17.101562 Z M -1.398438 11.601562 "/>
</g>
</g>
<g clip-path="url(#clip21)" clip-rule="nonzero">
<g clip-path="url(#clip22)" clip-rule="nonzero">
<path style=" stroke:none;fill-rule:nonzero;fill:rgb(100%,76.862745%,19.215686%);fill-opacity:1;" d="M 38.5 19.699219 C 38.5 25.5 33.800781 30.101562 28.101562 30.101562 C 25.898438 30.101562 23.800781 29.398438 22.101562 28.101562 L 28.101562 19.601562 L 24.800781 9.699219 C 30.300781 7.800781 36.199219 10.800781 38 16.300781 C 38.300781 17.5 38.5 18.601562 38.5 19.699219 Z M 38.5 19.699219 "/>
</g>
</g>
<g clip-path="url(#clip23)" clip-rule="nonzero">
<g clip-path="url(#clip24)" clip-rule="nonzero">
<path style=" stroke:none;fill-rule:nonzero;fill:rgb(100%,80.784314%,71.372549%);fill-opacity:1;" d="M 34.300781 33.800781 L 34.300781 31.101562 C 34.300781 29.699219 35 28.5 36.199219 27.699219 L 36.199219 25.300781 C 36.199219 24.601562 36.699219 24.101562 37.398438 24.101562 C 38.101562 24.101562 38.601562 24.601562 38.601562 25.300781 L 38.601562 21.601562 C 38.601562 20.898438 39.101562 20.398438 39.800781 20.398438 C 40.5 20.398438 41 20.898438 41 21.601562 L 41 27.898438 C 41 30.199219 39.898438 32.300781 38 33.5 L 37.300781 33.898438 Z M 34.300781 33.800781 "/>
</g>
</g>
<g clip-path="url(#clip25)" clip-rule="nonzero">
<g clip-path="url(#clip26)" clip-rule="nonzero">
<path style=" stroke:none;fill-rule:nonzero;fill:rgb(100%,69.019608%,53.72549%);fill-opacity:1;" d="M 41.601562 27.699219 L 41.601562 21.601562 C 41.601562 20.601562 40.699219 19.699219 39.699219 19.699219 C 38.699219 19.699219 37.898438 20.601562 37.800781 21.601562 L 37.800781 27 C 37.800781 27.300781 38.101562 27.699219 38.5 27.699219 C 38.800781 27.699219 39.199219 27.398438 39.199219 27 L 39.199219 21.5 C 39.199219 21.199219 39.398438 20.800781 39.699219 20.800781 C 40 20.800781 40.398438 21 40.398438 21.300781 L 40.398438 27.601562 C 40.398438 29.699219 39.398438 31.601562 37.699219 32.800781 L 35.300781 34.398438 L 36 35.398438 L 38.398438 33.800781 C 40.398438 32.5 41.601562 30.199219 41.601562 27.699219 Z M 41.601562 27.699219 "/>
</g>
</g>
<g clip-path="url(#clip27)" clip-rule="nonzero">
<g clip-path="url(#clip28)" clip-rule="nonzero">
<path style=" stroke:none;fill-rule:nonzero;fill:rgb(5.098039%,24.705882%,60%);fill-opacity:1;" d="M 31.199219 33.800781 L 38 33.800781 L 38 46 L 31.199219 46 Z M 31.199219 33.800781 "/>
</g>
</g>
<g clip-path="url(#clip29)" clip-rule="nonzero">
<g clip-path="url(#clip30)" clip-rule="nonzero">
<path style=" stroke:none;fill-rule:nonzero;fill:rgb(0.784314%,76.078431%,41.568627%);fill-opacity:1;" d="M 23.800781 20.898438 L 17.800781 29.398438 C 15.101562 27.398438 13.398438 24.199219 13.398438 20.898438 C 13.398438 20.898438 23.800781 20.898438 23.800781 20.898438 Z M 23.800781 20.898438 "/>
</g>
</g>
</g>
</svg>
