<?xml version="1.0" encoding="utf-8"?>
<!-- Generator: Adobe Illustrator 24.0.2, SVG Export Plug-In . SVG Version: 6.00 Build 0)  -->
<svg version="1.1" id="Layer_1" xmlns="http://www.w3.org/2000/svg" xmlns:xlink="http://www.w3.org/1999/xlink" x="0px" y="0px"
	 viewBox="0 0 52 52" style="enable-background:new 0 0 52 52;" xml:space="preserve">
<style type="text/css">
	.st0{fill:#F8981D;}
</style>
<title>hotel, office, school, university</title>
<g>
	<path class="st0" d="M12.7,51.5h10.2v-9.8h6.1v9.8h10.2V8.3H12.7V51.5z M31.1,12.5h4.1v3.9h-4.1V12.5z M31.1,19.3h4.1v3.9h-4.1
		V19.3z M31.1,26h4.1v3.9h-4.1V26z M31.1,32.7h4.1v3.9h-4.1V32.7z M24,12.5H28v3.9H24V12.5z M24,19.3H28v3.9H24V19.3z M24,26H28v3.9
		H24V26z M24,32.7H28v3.9H24V32.7z M16.8,12.5h4.1v3.9h-4.1V12.5z M16.8,19.3h4.1v3.9h-4.1V19.3z M16.8,26h4.1v3.9h-4.1V26z
		 M16.8,32.7h4.1v3.9h-4.1V32.7z"/>
	<rect x="16.8" y="0.5" class="st0" width="18.4" height="6.9"/>
	<path class="st0" d="M0.5,50h11.2V14.4L0.5,18.9V50z M4.9,25.6H9v14.2H4.9V25.6z"/>
	<polygon class="st0" points="40.3,28.6 40.3,50 51.5,50 51.5,31.3 	"/>
</g>
</svg>
