<?xml version="1.0" encoding="utf-8"?>
<!-- Generator: Adobe Illustrator 24.0.2, SVG Export Plug-In . SVG Version: 6.00 Build 0)  -->
<svg version="1.1" id="Layer_1" xmlns="http://www.w3.org/2000/svg" xmlns:xlink="http://www.w3.org/1999/xlink" x="0px" y="0px"
	 viewBox="0 0 60.2 59.9" style="enable-background:new 0 0 60.2 59.9;" xml:space="preserve">
<style type="text/css">
	.st0{fill:url(#SVGID_1_);}
	.st1{fill:url(#SVGID_2_);}
	.st2{fill:url(#SVGID_3_);}
	.st3{fill:url(#SVGID_4_);}
	.st4{fill:url(#SVGID_5_);}
	.st5{fill:url(#SVGID_6_);}
	.st6{fill:url(#SVGID_7_);}
	.st7{fill:url(#SVGID_8_);}
	.st8{fill:url(#SVGID_9_);}
	.st9{fill:url(#SVGID_10_);}
	.st10{fill:url(#SVGID_11_);}
	.st11{fill:url(#SVGID_12_);}
	.st12{fill:url(#SVGID_13_);}
	.st13{fill:url(#SVGID_14_);}
	.st14{fill:url(#SVGID_15_);}
</style>
<g>
	
		<linearGradient id="SVGID_1_" gradientUnits="userSpaceOnUse" x1="0.1" y1="31.0898" x2="60.1" y2="31.0898" gradientTransform="matrix(1 0 0 -1 0 61.0398)">
		<stop  offset="0" style="stop-color:#F12711"/>
		<stop  offset="1" style="stop-color:#F5AF19"/>
	</linearGradient>
	<path class="st0" d="M9.8,31c-1,0.1-1.7-0.3-2.2-1.1c-0.6-0.8-1.2-1.6-1.8-2.4c-0.1-0.2-0.4-0.3-0.6-0.3c-0.6,0-1.2,0-1.9,0
		c-1.8,0-3.1-1.2-3.1-3.1c0-3.8,0-7.5,0-11.3c0-1.3,0-2.6,0-3.9c0-1.9,1.2-3.1,3.1-3.1c7,0,14,0,21,0c1.8,0,3,1.2,3,3.1
		c0,3.3,0,6.5,0,9.8c0,0.2,0,0.4,0,0.7c2.9-0.2,5.1,0.8,6.8,3.2c0.1-0.1,0.2-0.3,0.3-0.4c1.4-1.9,3.2-2.9,5.5-2.9c0.9,0,1.9,0,2.9,0
		c0-1.3,0-2.6,0-3.8c-1.5-0.4-1.9-0.9-1.9-2.5c0-1,0-2.1,0-3.1V9.8c-0.1,0-0.1,0-0.2-0.1c-1-0.2-1.6-0.9-1.7-1.9c0-0.6,0-1.3,0-1.9
		c0-1.2,0.8-1.9,2-2c0.9,0,1.8,0,2.6,0c0,0,0.1,0,0.2,0c0-0.3,0-0.6,0-0.9c0-1.6,1.1-2.9,2.7-2.9C49,0,51.5,0,54,0.1
		c2.4,0.1,4.3,2.3,4.3,4.7c0,1.6,0,3.2,0,4.7c0,0.2,0.1,0.5,0.3,0.7c1.1,1.4,1.7,3,1.6,4.7c-0.1,1.6-1.7,2.7-3.3,2.4
		c-1.5-0.2-2.7-1.7-2.4-3.2c0.2-1.5,0.6-3,1.8-4.1c0.1-0.1,0.1-0.3,0.1-0.4c0-1.6,0-3.2,0-4.9c0-1.5-1.1-2.7-2.6-2.9
		c-0.2,0-0.3,0-0.5,0c-1.2,0-2.5,0-3.7,0c0,0.6,0.1,1.3,0.1,1.9c0.4,0,0.9,0,1.3,0c0.5,0,1.1,0,1.6,0c1,0,1.8,0.8,1.9,1.8
		c0,0.6,0,1.2,0,1.8c0,1.3-0.5,2-1.9,2.3c0,0.7,0,1.4,0,2c0,0.5,0,1,0,1.5c0,1.3-0.6,2-1.9,2.2c0,1.3,0,2.5,0,3.9c1.2,0,2.5,0,3.8,0
		c0,1.3,0,2.6,0,3.9c1.3,0,2.6,0,3.8,0c0,11,0,21.9,0,32.9c-6.5,0-12.9,0-19.4,0c-0.3,1.3-1,2.4-2.1,3.1c-0.8,0.5-1.7,0.8-2.7,0.8
		c-2.2-0.1-3.9-1.4-4.7-3.9c-0.1,0-0.3,0-0.5,0c-3.5,0-7.1,0-10.6,0c-0.3,0-0.6,0.1-0.8,0.3c-0.8,0.9-1.7,1.7-2.6,2.6
		c-0.4-0.2-0.8-0.4-1.2-0.6c-0.4-0.2-0.6-0.1-0.7,0.3c-0.1,0.4-0.2,1-0.5,1.2s-0.9,0.1-1.4,0.1c-1.1,0-2.2,0-3.4,0
		c-0.4,0-0.6-0.1-0.6-0.5c-0.1-0.3-0.2-0.6-0.3-0.9c-0.1-0.3-0.3-0.4-0.6-0.3c-0.4,0.2-0.8,0.4-1.2,0.6c-1.4-1-2.6-2.2-3.9-3.4
		c0.2-0.4,0.4-0.8,0.6-1.2c0.1-0.3,0.1-0.5-0.3-0.6H1.3C0,53.1,0,53.1,0,51.8c0-1.2,0-2.3,0-3.5c0-0.3,0.1-0.5,0.4-0.6
		s0.6-0.2,0.9-0.3s0.4-0.3,0.3-0.6C1.4,46.4,1.2,46,1,45.5c1.2-1.2,2.3-2.3,3.5-3.5c0.1-0.1,0.3-0.1,0.5-0.1c0.3,0.1,0.6,0.3,1,0.5
		c0.3,0.1,0.5,0.1,0.6-0.3l0,0c0.2-0.4,0.2-1,0.5-1.2c0.5-0.3,1.1-0.2,1.5-0.2s0.7,0,1.1,0C9.8,37.5,9.8,34.3,9.8,31z M9.8,25.2
		c0.3,0,0.5,0,0.7,0c4.5,0,9,0,13.5,0c1,0,1.3-0.3,1.3-1.3c0-4.9,0-9.9,0-14.8C25.3,8,25,7.8,24,7.8c-4.9,0-9.7,0-14.6,0
		c-2,0-4.1,0-6.1,0c-0.8,0-1.2,0.4-1.2,1.1c0,5.1,0,10.2,0,15.2c0,0.7,0.4,1.1,1.1,1.1c0.9,0,1.9,0,2.8,0c0.3,0,0.6,0.1,0.8,0.4
		c0.8,1,1.5,2.1,2.3,3.1c0.1,0.2,0.4,0.2,0.6,0.4c0.1-0.2,0.2-0.4,0.2-0.6C9.8,27.4,9.8,26.4,9.8,25.2z M50.5,21.4
		c0,0.3,0,0.5,0,0.7c0,3.9,0,7.7,0,11.6c0,0.3,0,0.5-0.1,0.8c-0.5,1.6-1,3.1-1.5,4.6c-0.4,1.1-1.2,1.7-2.2,1.7s-1.9-0.6-2.2-1.7
		c-0.5-1.5-1-3-1.5-4.4c-0.1-0.3-0.2-0.6-0.2-1c0-3.9,0-7.7,0-11.6c0-0.2,0-0.4,0-0.6c-1.3,0-2.6-0.1-3.8,0c-2.4,0.3-4,2.4-4,4.8
		c0,7.5,0,15,0,22.5c0,0.1,0,0.3,0,0.4c5.8-3.6,11.6-3.6,17.4,0c0-9.3,0-18.5,0-27.8C51.7,21.4,51.1,21.4,50.5,21.4z M33,49.3
		c0-0.1,0-0.2,0-0.3c0-7.7,0-15.3,0-23c0-0.6-0.2-1.2-0.4-1.8c-0.8-1.9-2.9-3.2-5.3-2.8c0,0.6,0,1.2,0,1.8c1.3,0,2.5,0,3.8,0
		c0,3.2,0,6.4,0,9.6c-4.5,0-9,0-13.5,0c0-1.9,0-3.8,0-5.7c-0.7,0-1.3,0-1.9,0c0,0.1,0,0.1,0,0.2c0,4.9,0,9.9,0,14.8
		c0,0.2,0.1,0.4,0.3,0.6c0.5,0.6,1.1,1.1,1.7,1.7c0.9,0.9,0.9,0.9,0.4,2.1c0,0.1-0.1,0.2-0.1,0.2c0,0.2,0.1,0.4,0.2,0.5
		c0.4,0.2,0.7,0.3,1.2,0.1c2.8-1,5.6-1.1,8.5-0.5C29.6,47.3,31.4,48.1,33,49.3z M19.4,52.4c0.3,0.7-0.2,0.8-0.7,0.9
		c-0.1,0-0.3,0.1-0.4,0.1c-0.3,0.1-0.6,0.1-0.5,0.5c0,0.4,0.4,0.3,0.6,0.3c4,0,8,0,12,0c0.2,0,0.4,0,0.7,0c0,0.3,0,0.6,0,0.8
		c0,1.7,1.3,3,2.9,3.1c1.7,0,2.9-1.3,2.9-3.1c0-0.3,0-0.5,0-0.8c6.5,0,12.9,0,19.3,0c0-9.7,0-19.3,0-29c-0.6,0-1.2,0-1.9,0
		c0,9,0,18,0,27.1C42.7,52.4,31.1,52.4,19.4,52.4z M16.1,45.9c-0.1-0.1-0.1-0.2-0.2-0.3c-0.3-0.3-0.5-0.5-0.8-0.8
		c-0.7-0.7-0.7-0.7-1.6-0.3c-0.3,0.1-2.1-0.6-2.2-0.9c-0.4-0.9-0.4-0.9-1.4-0.9c-0.1,0-0.2,0-0.3,0c-0.8-0.1-1.3,0-1.5,0.9
		c0,0.3-1.9,1-2.2,0.9C5,44.1,5,44.1,4.3,44.8c-0.1,0.1-0.2,0.2-0.4,0.4c-0.6,0.6-0.6,0.6-0.3,1.4c0.2,0.3-0.5,2.1-0.9,2.3l0,0
		c-0.9,0.3-0.9,0.3-0.9,1.3c0,0.1,0,0.3,0,0.4c0,1,0,1,0.9,1.4c0.3,0.1,1.1,1.9,0.9,2.1C3,54.8,3.3,55.3,4,55.8
		c0.1,0.1,0.2,0.2,0.3,0.3C5,56.8,5,56.8,5.9,56.4H6c0.7,0.3,1.4,0.6,2.1,0.9c0.1,1,0.7,1.1,1.5,1c0.3,0,0.6,0,0.9,0
		c0.3,0,0.5-0.1,0.5-0.4c0.1-0.6,0.4-0.9,1-1c0.1,0,0.3-0.1,0.4-0.2c0.5-0.4,1-0.3,1.5,0c0.2,0.2,0.4,0.1,0.6-0.1
		c0.4-0.4,0.8-0.8,1.2-1.2c0.2-0.2,0.3-0.4,0.1-0.6c-0.4-0.5-0.4-1,0-1.5c0.1-0.1,0.1-0.2,0.1-0.3c0.1-0.6,0.5-0.9,1.1-1.1
		c0.1,0,0.3-0.3,0.3-0.4c0-0.6,0-1.3,0-1.9c0-0.1-0.1-0.3-0.2-0.4c-0.7-0.1-1.1-0.6-1.2-1.3c0-0.2-0.2-0.4-0.3-0.6
		c0-0.2-0.1-0.5,0-0.7C15.9,46.3,16,46.1,16.1,45.9z M48.5,15.6c-1.3,0-2.5,0-3.8,0c0,5.8,0,11.6,0,17.4c1.3,0,2.5,0,3.8,0
		C48.5,27.2,48.5,21.4,48.5,15.6z M29.1,25.2c-0.6,0-1.2,0-1.7,0c-0.2,0-0.4,0.2-0.5,0.3c-0.6,1.1-1.5,1.6-2.7,1.6
		c-1.4,0-2.8,0-4.1,0c-0.2,0-0.4,0-0.5,0c0,1.3,0,2.6,0,3.8c3.2,0,6.4,0,9.6,0C29.1,29.1,29.1,27.2,29.1,25.2z M50.4,13.6
		c0-1.3,0-2.6,0-3.8c-2.6,0-5.1,0-7.7,0c0,1.3,0,2.5,0,3.8C45.3,13.6,47.9,13.6,50.4,13.6z M11.8,27.2c0,4.5,0,9,0,13.6
		c0.7-0.3,0.8,0.2,0.9,0.6c0.1,0.2,0.1,0.3,0.2,0.5c0.1,0.3,0.2,0.6,0.5,0.5c0.4-0.1,0.3-0.4,0.3-0.6c0-4.7,0-9.4,0-14
		c0-0.2,0-0.3,0-0.5C13,27.2,12.4,27.2,11.8,27.2z M52.4,5.9c-3.9,0-7.7,0-11.6,0c0,0.6,0,1.2,0,1.9c3.9,0,7.7,0,11.6,0
		C52.4,7.2,52.4,6.6,52.4,5.9z M50.5,50.4c-3-2.5-11.6-2.5-13.5,0C41.4,50.4,45.9,50.4,50.5,50.4z M19.5,50.4c3.9,0,7.7,0,11.7,0
		c-0.3-0.2-0.4-0.3-0.6-0.4c-3.3-1.8-6.7-2-10.2-1C19.4,49.3,19.4,49.4,19.5,50.4z M45,35c0.4,1.2,0.8,2.4,1.2,3.5
		c0,0.1,0.2,0.3,0.4,0.3c0.1,0,0.3-0.1,0.3-0.2c0.4-1.2,0.8-2.3,1.2-3.5C47.1,35,46.1,35,45,35z M57.3,11.8c-0.5,0.6-1.1,2.1-1,2.8
		c0,0.5,0.5,0.9,1,0.9s1-0.4,0.9-1C58.1,13.6,57.8,12.7,57.3,11.8z M47.6,3.9c0-0.7,0.2-1.3-0.5-1.8c-0.3-0.2-0.7-0.2-1.1,0
		c-0.6,0.5-0.4,1.1-0.4,1.7C46.3,3.9,46.9,3.9,47.6,3.9z"/>
	
		<linearGradient id="SVGID_2_" gradientUnits="userSpaceOnUse" x1="9.8175" y1="46.4926" x2="17.5332" y2="46.4926" gradientTransform="matrix(1 0 0 -1 0 61.0398)">
		<stop  offset="0" style="stop-color:#F12711"/>
		<stop  offset="1" style="stop-color:#F5AF19"/>
	</linearGradient>
	<path class="st1" d="M9.8,13.6c-0.2-1.8,1.2-3.5,3.1-3.8c2.5-0.4,4.7,1.4,4.5,3.9c0,0.9-0.4,1.7-1,2.3c-0.4,0.4-0.7,0.8-1.2,1.2
		c-0.6,0.5-0.8,1-0.7,1.7c0,0.1,0,0.3,0,0.5c-0.6,0-1.3,0-1.9,0c0-0.7,0-1.5,0-2.2c0-0.1,0.2-0.3,0.3-0.4c0.7-0.7,1.3-1.3,2-2
		s0.8-1.5,0.4-2.2c-0.4-0.7-1.3-1.1-2.2-0.9c-0.8,0.2-1.3,0.8-1.4,1.7c0,0.1,0,0.1,0,0.2C11.1,13.6,10.5,13.6,9.8,13.6z"/>
	
		<linearGradient id="SVGID_3_" gradientUnits="userSpaceOnUse" x1="12.697" y1="38.7148" x2="14.6368" y2="38.7148" gradientTransform="matrix(1 0 0 -1 0 61.0398)">
		<stop  offset="0" style="stop-color:#F12711"/>
		<stop  offset="1" style="stop-color:#F5AF19"/>
	</linearGradient>
	<path class="st2" d="M13.7,21.4c0.5,0,1,0.4,1,1c0,0.5-0.4,0.9-1,0.9c-0.5,0-1-0.4-1-1C12.7,21.8,13.1,21.4,13.7,21.4z"/>
	
		<linearGradient id="SVGID_4_" gradientUnits="userSpaceOnUse" x1="36.9379" y1="17.4148" x2="50.4242" y2="17.4148" gradientTransform="matrix(1 0 0 -1 0 61.0398)">
		<stop  offset="0" style="stop-color:#F12711"/>
		<stop  offset="1" style="stop-color:#F5AF19"/>
	</linearGradient>
	<path class="st3" d="M36.9,44.6c0-0.6,0-1.2,0-1.9c4.5,0,9,0,13.5,0c0,0.6,0,1.2,0,1.9C46,44.6,41.5,44.6,36.9,44.6z"/>
	
		<linearGradient id="SVGID_5_" gradientUnits="userSpaceOnUse" x1="36.9528" y1="36.8148" x2="40.7457" y2="36.8148" gradientTransform="matrix(1 0 0 -1 0 61.0398)">
		<stop  offset="0" style="stop-color:#F12711"/>
		<stop  offset="1" style="stop-color:#F5AF19"/>
	</linearGradient>
	<path class="st4" d="M37,23.3c1.3,0,2.5,0,3.8,0c0,0.6,0,1.2,0,1.9c-1.3,0-2.5,0-3.8,0C37,24.6,37,24,37,23.3z"/>
	
		<linearGradient id="SVGID_6_" gradientUnits="userSpaceOnUse" x1="36.9568" y1="32.9148" x2="40.7432" y2="32.9148" gradientTransform="matrix(1 0 0 -1 0 61.0398)">
		<stop  offset="0" style="stop-color:#F12711"/>
		<stop  offset="1" style="stop-color:#F5AF19"/>
	</linearGradient>
	<path class="st5" d="M40.7,29.1c-1.3,0-2.5,0-3.8,0c0-0.6,0-1.2,0-1.9c1.2,0,2.5,0,3.8,0C40.7,27.9,40.7,28.5,40.7,29.1z"/>
	
		<linearGradient id="SVGID_7_" gradientUnits="userSpaceOnUse" x1="36.9439" y1="25.1148" x2="40.7542" y2="25.1148" gradientTransform="matrix(1 0 0 -1 0 61.0398)">
		<stop  offset="0" style="stop-color:#F12711"/>
		<stop  offset="1" style="stop-color:#F5AF19"/>
	</linearGradient>
	<path class="st6" d="M40.8,35c0,0.6,0,1.2,0,1.9c-1.3,0-2.5,0-3.8,0c0-0.6,0-1.2,0-1.9C38.2,35,39.5,35,40.8,35z"/>
	
		<linearGradient id="SVGID_8_" gradientUnits="userSpaceOnUse" x1="36.9427" y1="21.3148" x2="40.7565" y2="21.3148" gradientTransform="matrix(1 0 0 -1 0 61.0398)">
		<stop  offset="0" style="stop-color:#F12711"/>
		<stop  offset="1" style="stop-color:#F5AF19"/>
	</linearGradient>
	<path class="st7" d="M40.8,38.8c0,0.7,0,1.2,0,1.9c-1.3,0-2.5,0-3.8,0c0-0.6,0-1.2,0-1.9C38.2,38.8,39.5,38.8,40.8,38.8z"/>
	
		<linearGradient id="SVGID_9_" gradientUnits="userSpaceOnUse" x1="36.9438" y1="29.0148" x2="40.738" y2="29.0148" gradientTransform="matrix(1 0 0 -1 0 61.0398)">
		<stop  offset="0" style="stop-color:#F12711"/>
		<stop  offset="1" style="stop-color:#F5AF19"/>
	</linearGradient>
	<path class="st8" d="M36.9,33c0-0.6,0-1.2,0-1.9c1.3,0,2.5,0,3.8,0c0,0.6,0,1.2,0,1.9C39.5,33,38.2,33,36.9,33z"/>
	
		<linearGradient id="SVGID_10_" gradientUnits="userSpaceOnUse" x1="17.5598" y1="21.3148" x2="31.0598" y2="21.3148" gradientTransform="matrix(1 0 0 -1 0 61.0398)">
		<stop  offset="0" style="stop-color:#F12711"/>
		<stop  offset="1" style="stop-color:#F5AF19"/>
	</linearGradient>
	<path class="st9" d="M17.6,40.7c0-0.6,0-1.2,0-1.9c4.5,0,9,0,13.5,0c0,0.6,0,1.2,0,1.9C26.6,40.7,22.1,40.7,17.6,40.7z"/>
	
		<linearGradient id="SVGID_11_" gradientUnits="userSpaceOnUse" x1="21.448" y1="25.2148" x2="31.048" y2="25.2148" gradientTransform="matrix(1 0 0 -1 0 61.0398)">
		<stop  offset="0" style="stop-color:#F12711"/>
		<stop  offset="1" style="stop-color:#F5AF19"/>
	</linearGradient>
	<path class="st10" d="M21.4,36.8c0-0.6,0-1.2,0-1.9c3.2,0,6.4,0,9.6,0c0,0.6,0,1.2,0,1.9C27.9,36.8,24.7,36.8,21.4,36.8z"/>
	
		<linearGradient id="SVGID_12_" gradientUnits="userSpaceOnUse" x1="23.3298" y1="17.4148" x2="31.0548" y2="17.4148" gradientTransform="matrix(1 0 0 -1 0 61.0398)">
		<stop  offset="0" style="stop-color:#F12711"/>
		<stop  offset="1" style="stop-color:#F5AF19"/>
	</linearGradient>
	<path class="st11" d="M31.1,42.7c0,0.6,0,1.2,0,1.9c-0.2,0-0.4,0-0.5,0c-2.2,0-4.4,0-6.6,0c-0.5,0-0.6-0.2-0.6-0.6
		c0-0.4,0-0.9,0-1.3C25.9,42.7,28.5,42.7,31.1,42.7z"/>
	
		<linearGradient id="SVGID_13_" gradientUnits="userSpaceOnUse" x1="17.5679" y1="25.1148" x2="19.4455" y2="25.1148" gradientTransform="matrix(1 0 0 -1 0 61.0398)">
		<stop  offset="0" style="stop-color:#F12711"/>
		<stop  offset="1" style="stop-color:#F5AF19"/>
	</linearGradient>
	<path class="st12" d="M19.4,36.9c-0.6,0-1.2,0-1.9,0c0-0.6,0-1.2,0-1.9c0.6,0,1.2,0,1.9,0C19.4,35.6,19.4,36.2,19.4,36.9z"/>
	
		<linearGradient id="SVGID_14_" gradientUnits="userSpaceOnUse" x1="19.5147" y1="17.4148" x2="21.4239" y2="17.4148" gradientTransform="matrix(1 0 0 -1 0 61.0398)">
		<stop  offset="0" style="stop-color:#F12711"/>
		<stop  offset="1" style="stop-color:#F5AF19"/>
	</linearGradient>
	<path class="st13" d="M19.5,44.6c0-0.7,0-1.3,0-1.9c0.6,0,1.2,0,1.9,0c0,0.6,0,1.1,0,1.6c0,0.1-0.2,0.2-0.3,0.3
		C20.6,44.6,20.1,44.6,19.5,44.6z"/>
	
		<linearGradient id="SVGID_15_" gradientUnits="userSpaceOnUse" x1="4.9498" y1="10.6148" x2="14.6377" y2="10.6148" gradientTransform="matrix(1 0 0 -1 0 61.0398)">
		<stop  offset="0" style="stop-color:#F12711"/>
		<stop  offset="1" style="stop-color:#F5AF19"/>
	</linearGradient>
	<path class="st14" d="M9.8,45.6c2.7,0,4.8,2.2,4.8,4.9c0,2.6-2.2,4.8-4.9,4.8c-2.6,0-4.8-2.2-4.8-4.8C4.9,47.8,7.1,45.6,9.8,45.6z
		 M9.8,47.5c-1.6,0-2.9,1.3-2.9,2.9c0,1.6,1.3,2.9,2.9,2.9s2.9-1.3,2.9-2.9S11.4,47.5,9.8,47.5z"/>
</g>
</svg>
