<?xml version="1.0" encoding="utf-8"?>
<!-- Generator: Adobe Illustrator 24.0.2, SVG Export Plug-In . SVG Version: 6.00 Build 0)  -->
<svg version="1.1" id="_x33_0" xmlns="http://www.w3.org/2000/svg" xmlns:xlink="http://www.w3.org/1999/xlink" x="0px" y="0px"
	 viewBox="0 0 50 50" style="enable-background:new 0 0 50 50;" xml:space="preserve">
<style type="text/css">
	.st0{fill:#E6E9ED;}
	.st1{fill:#B4DD7F;}
	.st2{fill:#69D6F4;}
	.st3{fill:#B27946;}
	.st4{fill:#FF826E;}
	.st5{fill:#FCD770;}
	.st6{fill:#838F9B;}
	.st7{fill:#CCD1D9;}
	.st8{fill:#F0D0B4;}
</style>
<g>
	<g>
		<g>
			<path class="st0" d="M19.5,17.1H2.1c-0.4,0-0.8-0.4-0.8-0.8V2.1c0-0.4,0.4-0.8,0.8-0.8h17.4c0.4,0,0.8,0.4,0.8,0.8v14.2
				C20.3,16.7,19.9,17.1,19.5,17.1z"/>
		</g>
		<g>
			<path class="st1" d="M6,10.8h3.2v3.2H6V10.8z"/>
		</g>
		<g>
			<path class="st1" d="M12.4,7.6v6.3H9.2v-3.2V7.6H12.4z"/>
		</g>
		<g>
			<path class="st1" d="M13.4,12.1L12.5,14l0,0h-0.1V7.6V4.5h3.2v5.8v0C14.6,10.7,13.9,11.3,13.4,12.1L13.4,12.1z"/>
		</g>
		<g>
			<circle class="st2" cx="41.6" cy="8.4" r="7.1"/>
		</g>
		<g>
			<path class="st3" d="M37.6,14.3c0,0.2,0,0.3,0,0.5c0,1.1-0.3,2.5-0.6,3.6c-0.3,1.1-0.6,1.8-0.6,1.8l-0.2,0.6l0,0
				c-0.6-0.8-1.5-1.3-2.5-1.3H33h-0.1v-1.3c0-1.9-1.5-3.4-3.4-3.4c-5.6,0-6.8,3.6-12.4,4.7h0h-0.8c-1.1,0-2.1,0.6-2.6,1.4l-0.2-0.7
				l-0.8-3.1l-0.2-0.5c-0.1-0.4-0.2-0.9-0.2-1.3c0-0.4,0-0.9,0.2-1.3l0.9-1.9c0.5-0.8,1.3-1.4,2.1-1.8c0.2-0.1,0.3-0.2,0.5-0.2
				l4.2-1.5l3.3-1.2c0.9-0.3,1.9-0.5,2.9-0.5c1.3,0,2.6,0.3,3.8,0.9c1.2,0.6,2.2,1.4,3,2.5l0.9,1.2c0.3,0,0.7,0,1,0.1
				c0.1,0,0.1,0,0.2,0.1c0.5,0.2,0.9,0.4,1.3,0.8C37.2,12.9,37.5,13.5,37.6,14.3L37.6,14.3z"/>
		</g>
		<g>
			<path class="st4" d="M10,31.3c0.5,0.5,0.8,1.2,0.8,1.9c0,0.8-0.4,1.5-1,2.1L6,38.4l-3.8-3.1c-0.6-0.5-1-1.3-1-2.1
				c0-0.7,0.3-1.4,0.8-1.9s1.2-0.8,1.9-0.8h0.1c0.7,0,1.4,0.3,1.9,0.8c0.5-0.5,1.2-0.8,1.9-0.8h0.1C8.8,30.5,9.5,30.8,10,31.3z"/>
		</g>
		<g>
			<path class="st5" d="M41.1,42.4c-1.4-2.7-3.9-4.9-6.9-5.8c-0.3-0.1-0.6-0.2-0.9-0.3l-0.2,0c-0.1-0.6-0.2-1.2-0.2-1.8
				c0-4.4,3.5-7.9,7.9-7.9s7.9,3.5,7.9,7.9C48.7,38.8,45.3,42.2,41.1,42.4L41.1,42.4z"/>
		</g>
		<g>
			<path class="st6" d="M22.3,46l1.9,2.7H7.6v-0.9c0-5.2,3.4-9.7,8.2-11.3l3.1,4.6L22.3,46z"/>
		</g>
		<g>
			<path class="st6" d="M31,41.1l3.1-4.6c3,1,5.5,3.1,6.9,5.8c0.8,1.6,1.3,3.5,1.3,5.4v0.9H25.8l1.9-2.7L31,41.1z"/>
		</g>
		<g>
			<path class="st5" d="M28.2,39.4l-1.6,2.9h-3.2l-1.6-2.9l3.2-1.8L28.2,39.4z"/>
		</g>
		<g>
			<path class="st5" d="M26.6,42.4l1.1,3.6l-1.9,2.7h-1.6L22.3,46l1.1-3.6H26.6z"/>
		</g>
		<g>
			<path class="st7" d="M21.8,39.4l1.6,2.9L22.3,46L19,41.1L21.8,39.4z"/>
		</g>
		<g>
			<path class="st7" d="M31,41.1L27.7,46l-1.1-3.6l1.6-2.9L31,41.1z"/>
		</g>
		<g>
			<path class="st0" d="M33.1,36.3l0.2,0c0.3,0.1,0.6,0.2,0.9,0.3L31,41.1l-2.9-1.6L25,37.6l4-2.4L33.1,36.3z"/>
		</g>
		<g>
			<path class="st0" d="M25,37.6l-3.2,1.8L19,41.1l-3.1-4.6c0.3-0.1,0.6-0.2,0.9-0.3l4.3-1L25,37.6z"/>
		</g>
		<g>
			<path class="st8" d="M28.3,32.2l0.6,3.1l-4,2.4l-4-2.4l0.6-3.1c1,0.5,2.1,0.7,3.3,0.7C26.2,32.9,27.3,32.6,28.3,32.2z"/>
		</g>
		<g>
			<path class="st8" d="M33.7,19.5c1.1,0,2,0.5,2.5,1.3c0.4,0.5,0.6,1.2,0.6,1.9c0,0.9-0.4,1.7-0.9,2.2c-0.6,0.6-1.4,0.9-2.2,0.9
				h-0.8l0,0c0-0.3,0-0.6,0-0.8v-5.5H33L33.7,19.5z"/>
		</g>
		<g>
			<path class="st8" d="M17.1,19.5V25c0,0.3,0,0.6,0,0.8h-0.8c-0.9,0-1.7-0.4-2.2-0.9c-0.6-0.6-0.9-1.4-0.9-2.2
				c0-0.6,0.2-1.3,0.5-1.8c0.6-0.8,1.5-1.4,2.6-1.4H17.1L17.1,19.5z"/>
		</g>
		<g>
			<path class="st8" d="M17.1,25.8c0-0.3,0-0.6,0-0.8v-5.5c5.6-1.1,6.8-4.7,12.4-4.7c1.9,0,3.4,1.5,3.4,3.4v1.3V25
				c0,0.3,0,0.6,0,0.8c-0.2,1.9-1,3.5-2.3,4.8c-0.6,0.7-1.4,1.2-2.3,1.6c-1,0.5-2.1,0.7-3.3,0.7c-1.2,0-2.3-0.3-3.3-0.7
				C19.2,31,17.4,28.6,17.1,25.8L17.1,25.8z"/>
		</g>
	</g>
	<g>
		<path d="M11.6,33.2c0-0.9-0.4-1.8-1-2.5c-0.7-0.7-1.5-1-2.5-1H7.9c-0.7,0-1.3,0.2-1.9,0.6c-0.6-0.4-1.2-0.6-1.9-0.6H4
			c-0.9,0-1.8,0.4-2.5,1c-0.6,0.6-1,1.5-1,2.5c0,1,0.5,2,1.3,2.7L6,39.5l4.3-3.6C11.1,35.2,11.6,34.3,11.6,33.2L11.6,33.2z
			 M9.3,34.7L6,37.4l-3.3-2.7c-0.4-0.4-0.7-0.9-0.7-1.5c0-0.5,0.2-1,0.6-1.3C3,31.5,3.5,31.3,4,31.3h0.1c0.5,0,1,0.2,1.3,0.5L6,32.5
			l0.6-0.6c0.4-0.4,0.8-0.6,1.3-0.6h0.1c0.5,0,1,0.2,1.3,0.6c0.4,0.4,0.6,0.8,0.6,1.3C10,33.8,9.7,34.3,9.3,34.7L9.3,34.7z"/>
		<circle cx="29" cy="22.6" r="0.8"/>
		<circle cx="21" cy="22.6" r="0.8"/>
		<path d="M29,26.4l0.1-0.2l-1.4-0.7l-0.1,0.2c-0.5,1-1.5,1.6-2.6,1.6c-1.1,0-2.1-0.6-2.6-1.6l-0.1-0.2l-1.4,0.7l0.1,0.2
			c0.8,1.5,2.3,2.5,4,2.5C26.7,28.9,28.3,27.9,29,26.4L29,26.4z"/>
		<path d="M40.8,25.8c-4.8,0-8.7,3.9-8.7,8.7c0,0.2,0,0.5,0,0.7l-2.5-0.6l-0.4-2c2.2-1.2,3.8-3.4,4.3-6h0.2c2.2,0,4-1.8,4-4
			c0-0.7-0.2-1.4-0.5-2l0.1-0.2c0-0.1,0.9-2.6,1.2-4.8c1,0.4,2.1,0.7,3.2,0.7c4.4,0,7.9-3.5,7.9-7.9S46,0.5,41.6,0.5
			S33.7,4,33.7,8.4c0,0.4,0,0.8,0.1,1.1C32,7.3,29.3,6,26.5,6c-1.1,0-2.2,0.2-3.2,0.6L21,7.4V2.1c0-0.9-0.7-1.6-1.6-1.6H2.1
			c-0.9,0-1.6,0.7-1.6,1.6v14.2c0,0.9,0.7,1.6,1.6,1.6h10l0.7,2.5l0.1,0.4c-0.3,0.6-0.5,1.2-0.5,1.9c0,2.2,1.8,4,4,4h0.2
			c0.5,2.6,2.1,4.8,4.3,6l-0.4,2l-3.8,0.9c-5.7,1.4-9.7,6.4-9.7,12.3v1.7h36.4v-1.7c0-1.7-0.3-3.3-0.9-4.8c4.1-0.7,7.3-4.3,7.3-8.6
			C49.5,29.7,45.6,25.8,40.8,25.8L40.8,25.8z M32.9,37l-2.1,3l-4.2-2.4l2.5-1.5L32.9,37z M25,38.6L25,38.6l2.1,1.2l-1,1.8h-2.2
			l-1-1.8L25,38.6L25,38.6z M21.5,40.5l1,1.9l-0.5,1.7l-1.9-2.8L21.5,40.5z M23.2,45.9l0.8-2.7h2l0.8,2.7l-1.4,2.1h-0.7L23.2,45.9z
			 M27.9,44.2l-0.5-1.7l1-1.9l1.4,0.8L27.9,44.2z M33.7,25L33.7,25C33.7,25,33.7,25,33.7,25l0-4.7h0c1.3,0,2.4,1.1,2.4,2.4
			S35,25,33.7,25L33.7,25z M39.2,8.4c0-0.8,0.2-1.6,0.4-2.4h4C43.8,6.8,44,7.6,44,8.4c0,0.8-0.2,1.6-0.4,2.4h-4
			C39.4,10,39.2,9.2,39.2,8.4z M40.3,4.5c0.4-0.8,0.9-1.5,1.3-2c0.4,0.4,0.9,1.1,1.3,2H40.3z M42.9,12.4c-0.4,0.8-0.9,1.5-1.3,2
			c-0.4-0.4-0.9-1.1-1.3-2H42.9z M39.7,14.4c-0.5-0.2-0.9-0.4-1.4-0.6c-0.1-0.5-0.4-1-0.7-1.4h0.9C38.9,13.2,39.3,13.9,39.7,14.4
			L39.7,14.4z M43.5,14.4c0.4-0.6,0.8-1.3,1.2-2.1h1.9C45.8,13.3,44.7,14.1,43.5,14.4L43.5,14.4z M47.5,10.8h-2.2
			c0.2-0.7,0.3-1.5,0.3-2.4S45.4,6.8,45.2,6h2.2c0.3,0.7,0.5,1.5,0.5,2.4S47.8,10,47.5,10.8z M46.5,4.5h-1.9
			c-0.4-0.8-0.8-1.5-1.2-2.1C44.7,2.8,45.8,3.5,46.5,4.5L46.5,4.5z M39.7,2.4c-0.4,0.6-0.8,1.3-1.2,2.1h-1.9
			C37.4,3.5,38.5,2.8,39.7,2.4L39.7,2.4z M35.7,6H38c-0.2,0.7-0.3,1.5-0.3,2.4s0.1,1.6,0.3,2.4h-2.2c-0.3-0.8-0.5-1.6-0.5-2.4
			C35.3,7.6,35.4,6.8,35.7,6z M23.9,8.1c0.8-0.3,1.7-0.5,2.6-0.5c2.4,0,4.7,1.1,6.2,3l1.1,1.5h0.4c1.5,0,2.7,1.2,2.7,2.6
			c0,1.6-0.6,3.6-0.9,4.6c-0.6-0.4-1.4-0.7-2.2-0.7h0v-0.5c0-2.3-1.9-4.2-4.2-4.2c-3.3,0-5.3,1.2-7.1,2.4c-1.5,0.9-3,1.9-5.4,2.4
			h-0.7c-0.8,0-1.6,0.3-2.2,0.7l-0.8-3c-0.1-0.4-0.1-0.8-0.1-1.1c0-2,1.3-3.8,3.2-4.4L23.9,8.1z M8.4,13.1H6.8v-1.6h1.6V13.1z
			 M14.7,9.8c-0.6,0.3-1.1,0.8-1.6,1.3V5.2h1.6V9.8z M11.6,13.1H10V8.4h1.6V13.1z M2.1,2.1h17.4V8l-3.2,1.1V3.7h-4.7v3.2H8.4V10H5.2
			v4.7h6.4c0,0.2,0,0.3,0,0.5c0,0.4,0,0.7,0.1,1.1H2.1V2.1z M16.3,25c-1.3,0-2.4-1.1-2.4-2.4c0-1.3,1.1-2.4,2.4-2.4V25
			C16.3,25,16.3,25,16.3,25L16.3,25L16.3,25z M17.9,25v-4.9c2.3-0.6,3.9-1.6,5.3-2.5c1.8-1.1,3.4-2.1,6.3-2.1c1.4,0,2.6,1.2,2.6,2.6
			V25c0,3.9-3.2,7.2-7.1,7.2S17.9,28.9,17.9,25L17.9,25z M25,33.7c1,0,1.9-0.2,2.7-0.5l0.3,1.6L25,36.7l-3.1-1.8l0.3-1.6
			C23.1,33.5,24,33.7,25,33.7z M20.9,36.1l2.5,1.5L19.2,40l-2.1-3L20.9,36.1z M8.4,47.8c0-4.7,2.9-8.7,7.1-10.3l7.2,10.4L8.4,47.8
			L8.4,47.8z M41.6,47.9H27.3l7.2-10.4C38.7,39.1,41.6,43.2,41.6,47.9L41.6,47.9z M41.5,41.6c-0.3-0.5-0.6-1.1-1-1.5h1.1v-1.6h1.6
			v-2.4c0-1.3-1.1-2.4-2.4-2.4c-0.4,0-0.8-0.4-0.8-0.8v-0.8h0.8c0.4,0,0.8,0.4,0.8,0.8v0.8h1.6v-0.8c0-1-0.7-1.9-1.6-2.2V29H40v1.6
			h-1.6v2.4c0,1.3,1.1,2.4,2.4,2.4c0.4,0,0.8,0.4,0.8,0.8v0.8h-0.8c-0.4,0-0.8-0.4-0.8-0.8v-0.8h-1.6v0.8c0,1,0.7,1.9,1.6,2.2v1.2
			c-1.6-1.8-3.7-3.2-6.2-3.8c-0.1-0.4-0.1-0.8-0.1-1.1c0-3.9,3.2-7.1,7.1-7.1s7.1,3.2,7.1,7.1C47.9,38.1,45.1,41.2,41.5,41.6
			L41.5,41.6z"/>
	</g>
</g>
</svg>
