<?xml version="1.0" encoding="utf-8"?>
<!-- Generator: Adobe Illustrator 24.0.2, SVG Export Plug-In . SVG Version: 6.00 Build 0)  -->
<svg version="1.1" id="Layer_1" xmlns="http://www.w3.org/2000/svg" xmlns:xlink="http://www.w3.org/1999/xlink" x="0px" y="0px"
	 viewBox="0 0 49 49" style="enable-background:new 0 0 49 49;" xml:space="preserve">
<style type="text/css">
	.st0{fill:url(#SVGID_1_);}
	.st1{fill:url(#SVGID_2_);}
	.st2{fill:url(#SVGID_3_);}
</style>
<g>
	<linearGradient id="SVGID_1_" gradientUnits="userSpaceOnUse" x1="0.5182" y1="22.1791" x2="48.4783" y2="22.1791">
		<stop  offset="0" style="stop-color:#599491"/>
		<stop  offset="1" style="stop-color:#264749"/>
	</linearGradient>
	<path class="st0" d="M0.5,8.2c0-0.1,0-0.3,0-0.4c0-2.3,0-4.6,0-6.9c0-0.3,0.1-0.4,0.4-0.4c1.3,0,2.4,0.4,3.3,1.4
		C4.3,2,4.5,2.1,4.6,2.1c5.5,0,11,0,16.5,0c0.1,0,0.3-0.1,0.4-0.2c1.7-1.8,4.1-1.8,5.8,0c0.1,0.1,0.3,0.2,0.4,0.2c5.5,0,11,0,16.5,0
		c0.2,0,0.4-0.1,0.5-0.2c0.9-1,2.1-1.4,3.4-1.3c0.1,0,0.2,0.1,0.2,0.2c0,2.5,0,4.9,0,7.4c0,0,0,0,0,0.1C47,8.4,45.8,8,44.8,7
		c-0.1-0.1-0.3-0.2-0.5-0.2c-4.1,0-8.3,0-12.4,0c-0.1,0-0.2,0-0.3,0c0,0.1,0,0.2,0.1,0.3c1.2,3.2,0.3,6.5-2.3,8.7
		c-0.2,0.2-0.3,0.4-0.3,0.6c-0.1,1.2-0.6,2.2-1.5,3c-0.1,0.1-0.2,0.2-0.3,0.3c0.9,0.4,1.8,1,2.4,1.8c1.1,1.3,1.7,2.8,1.7,4.5
		c0,1.2,0,2.4,0,3.7c0,1.9-1.1,3.1-3.1,3.3c0,0.2,0,0.3,0,0.5c0,2.6,0,5.2,0,7.8c0,1-0.3,1.8-1.2,2.3c-0.9,0.5-1.7,0.4-2.5-0.2
		c-0.1-0.1-0.3,0-0.3,0c-0.8,0.5-1.6,0.6-2.5,0.2c-0.9-0.5-1.2-1.2-1.2-2.2c0-2.6,0-5.3,0-7.9c0-0.1,0-0.3,0-0.4
		c-0.4-0.1-0.7-0.1-1-0.2c-1.1-0.4-1.9-1.2-2-2.4c-0.1-1.8-0.2-3.6,0-5.4c0.3-2.4,1.6-4.1,3.8-5.2c0.1,0,0.1-0.1,0.2-0.1
		c-0.8-0.7-1.4-1.5-1.6-2.5c0-0.2-0.1-0.4-0.1-0.6c0-0.5-0.3-0.8-0.6-1.2c-2.3-2.1-3.1-5.4-2-8.4c0-0.1,0.1-0.2,0.1-0.4
		c-0.2,0-0.3,0-0.4,0c-4.1,0-8.1,0-12.2,0c-0.2,0-0.4,0.1-0.5,0.2C3.2,8,2.2,8.4,0.5,8.2z M28.4,31.4c0.9,0,1.5-0.6,1.5-1.4
		c0-1.5,0.1-3,0-4.5c-0.2-2.7-2.6-4.9-5.4-4.9c-2.7,0-5.1,2.1-5.3,4.8c-0.1,1.5,0,3-0.1,4.5c0,0.1,0,0.2,0.1,0.4
		c0.2,0.7,0.8,1.1,1.5,1.1c0-2.5,0-5.1,0-7.6c0.5,0,1,0,1.5,0c0,0.2,0,0.3,0,0.5c0,2.5,0,5.1,0,7.6c0,3.2,0,6.4,0,9.6
		c0,0.5,0.3,0.8,0.8,0.9c0.4,0,0.8-0.3,0.8-0.8c0-0.1,0-0.2,0-0.4c0-3.5,0-7.1,0-10.6c0-0.2,0-0.3,0-0.5c0.5,0,1,0,1.5,0
		c0,0.6,0,1.2,0,1.8c0,3.2,0,6.4,0,9.6c0,0.6,0.3,0.9,0.8,0.9c0.5,0,0.8-0.4,0.8-0.9c0-0.1,0-0.2,0-0.3c0-5.6,0-11.2,0-16.8
		c0-0.2,0-0.3,0-0.5c0.5,0,1,0,1.5,0C28.4,26.3,28.4,28.9,28.4,31.4z M43.9,3.7c-4.9,0-9.8,0-14.6,0c0.4,0.4,0.8,0.8,1.2,1.3
		c0.2,0.2,0.3,0.3,0.6,0.3c4.1,0,8.3,0,12.4,0c0.1,0,0.3,0,0.4,0C43.9,4.6,43.9,4.2,43.9,3.7z M5.1,5.1c0.1,0,0.1,0,0.1,0
		c4.3,0,8.6,0,12.9,0c0.1,0,0.2,0,0.3-0.1c0.5-0.5,0.9-0.9,1.4-1.4c-4.9,0-9.8,0-14.6,0C5.1,4.2,5.1,4.6,5.1,5.1z M25.1,13
		c-1.5-0.5-3.2,0.6-3.6,2.2c-0.5,1.7,0.5,3.4,2.2,3.8c1.6,0.4,3.3-0.5,3.7-2C24.7,16.9,23.9,15.4,25.1,13z M22.3,7.6
		c-1.1,1-1.2,2.9-0.3,4.1c0.1,0.2,0.3,0.2,0.5,0.1c1.3-0.6,2.6-0.6,3.9,0c0.2,0.1,0.3,0.1,0.5-0.1c1-1.2,0.9-3-0.3-4.1
		C25.1,8.5,23.9,8.5,22.3,7.6z M27.8,6.5c0.8,0.8,1.3,1.7,1.3,2.9c0.1,2-0.8,3.5-2.5,4.6c-0.2,0.1-0.5,0.4-0.5,0.6
		c0,0.2,0.1,0.5,0.3,0.7c0.3,0.3,0.6,0.2,1,0c3.9-2,4.5-7.3,1.2-10.2c-0.1,0-0.1-0.1-0.2-0.1C28.2,5.5,28,6,27.8,6.5z M24.5,6.7
		c1.3,0,2.3-1,2.3-2.3c0-1.3-1-2.3-2.3-2.3c-1.3,0-2.3,1-2.3,2.3C22.2,5.7,23.2,6.7,24.5,6.7z M21,12.9c-1.5-1.9-1.6-4.5,0.2-6.4
		c-0.2-0.5-0.4-1-0.6-1.5c-2.8,2.1-3.2,6.6-0.5,9.1C20.5,13.7,20.7,13.3,21,12.9z M46.9,6.5c0-1.4,0-2.9,0-4.3
		c-1,0.3-1.6,1.3-1.5,2.2C45.4,5.4,46.1,6.3,46.9,6.5z M2.1,2.3c0,1.4,0,2.9,0,4.3C3,6.3,3.6,5.4,3.6,4.4C3.6,3.4,3,2.5,2.1,2.3z"/>
	<linearGradient id="SVGID_2_" gradientUnits="userSpaceOnUse" x1="34.5531" y1="32.2455" x2="48.5" y2="32.2455">
		<stop  offset="0" style="stop-color:#599491"/>
		<stop  offset="1" style="stop-color:#264749"/>
	</linearGradient>
	<path class="st1" d="M38.7,24.3c-2.5-2.2-2.1-5.3-0.4-7c1.8-1.8,4.7-1.8,6.5,0c1.7,1.7,2.1,4.9-0.4,7c0.1,0.1,0.2,0.1,0.3,0.2
		c2.5,1.3,3.8,3.4,3.8,6.2c0,1.2,0,2.5,0,3.7c0,1.8-1.1,3-2.9,3.2c-0.1,0-0.1,0-0.2,0c0,0.2,0,0.3,0,0.4c0,2.6,0,5.2,0,7.8
		c0,1-0.3,1.8-1.2,2.2c-0.9,0.5-1.7,0.4-2.5-0.1c-0.1-0.1-0.3,0-0.3,0c-0.8,0.5-1.6,0.6-2.5,0.1c-0.8-0.5-1.2-1.2-1.2-2.2
		c0-2.6,0-5.2,0-7.8c0-0.2,0-0.3,0-0.5c-0.3,0-0.5-0.1-0.8-0.1c-1.4-0.3-2.3-1.5-2.3-2.9c0-1.3,0-2.6,0-4c0.1-2.8,1.4-4.8,3.7-6.1
		C38.4,24.5,38.5,24.4,38.7,24.3z M45.4,36.1c0.8,0,1.5-0.6,1.5-1.4c0-1.6,0.1-3.2-0.1-4.7c-0.3-2.6-2.5-4.6-5.2-4.7
		c-2.6-0.1-5,1.8-5.4,4.4c-0.2,1.7-0.1,3.5-0.1,5.2c0,0.7,0.7,1.2,1.5,1.2c0-2.5,0-5.1,0-7.7c0.5,0,1,0,1.5,0c0,0.2,0,0.3,0,0.5
		c0,5.6,0,11.3,0,16.9c0,0.1,0,0.2,0,0.4c0,0.4,0.4,0.8,0.8,0.8c0.4,0,0.7-0.3,0.8-0.8c0-0.1,0-0.2,0-0.4c0-3.6,0-7.1,0-10.7
		c0-0.2,0-0.3,0-0.5c0.5,0,1,0,1.5,0c0,0.2,0,0.4,0,0.5c0,3.6,0,7.1,0,10.7c0,0.7,0.2,1.1,0.7,1.1c0.5,0,0.8-0.4,0.8-1.1
		c0-5.6,0-11.2,0-16.9c0-0.2,0-0.4,0-0.5c0.5,0,1,0,1.6,0C45.4,31,45.4,33.5,45.4,36.1z M41.5,17.6c-1.7,0-3.1,1.4-3.1,3.1
		c0,1.7,1.4,3.1,3.1,3.1c1.7,0,3.1-1.4,3.1-3.1C44.6,18.9,43.2,17.6,41.5,17.6z"/>
	<linearGradient id="SVGID_3_" gradientUnits="userSpaceOnUse" x1="0.5" y1="32.2383" x2="14.4542" y2="32.2383">
		<stop  offset="0" style="stop-color:#599491"/>
		<stop  offset="1" style="stop-color:#264749"/>
	</linearGradient>
	<path class="st2" d="M10.3,24.3c0.4,0.3,0.8,0.5,1.2,0.7c1.9,1.4,2.9,3.3,2.9,5.6c0,1.2,0,2.5,0,3.7c0,1.8-1.1,3-2.9,3.3
		c0,0-0.1,0-0.2,0.1c0,0.1,0,0.3,0,0.5c0,2.6,0,5.3,0,7.9c0,1.4-0.9,2.3-2.2,2.4c-0.6,0-1.2-0.2-1.7-0.6c-0.6,0.4-1.2,0.7-1.9,0.6
		c-1.2-0.2-2-1.1-2-2.3c0-2.7,0-5.3,0-8c0-0.1,0-0.3,0-0.5c-0.2,0-0.4,0-0.6-0.1c-1.4-0.3-2.4-1.4-2.5-2.9c-0.1-1.5-0.1-3,0-4.5
		c0.2-2.6,1.5-4.5,3.8-5.7c0.1,0,0.1-0.1,0.3-0.1c-1.3-1.1-2-2.6-1.8-4.3c0.2-1.2,0.7-2.2,1.6-3c1.9-1.6,4.8-1.4,6.4,0.5
		C12.6,19.4,12.7,22.4,10.3,24.3z M11.4,28.4c0,2.6,0,5.1,0,7.7c0.9-0.1,1.5-0.6,1.5-1.5c0-1.4,0-2.7,0-4.1c-0.1-2.8-2.2-4.9-5-5.2
		c-2.6-0.2-5.2,1.6-5.6,4.2C2,31.2,2.1,33,2.1,34.8c0,0.8,0.8,1.3,1.5,1.3c0-2.5,0-5.1,0-7.6c0.5,0,1,0,1.5,0c0,0.2,0,0.4,0,0.6
		c0,5.7,0,11.4,0,17c0,0.6,0.3,0.9,0.8,0.9c0.5,0,0.8-0.3,0.8-0.9c0-0.1,0-0.2,0-0.3c0-3.5,0-7.1,0-10.6c0-0.2,0-0.3,0-0.5
		c0.5,0,1,0,1.5,0c0,0.2,0,0.3,0,0.5c0,3.6,0,7.2,0,10.8c0,0.7,0.3,1.1,0.8,1.1c0.5,0,0.8-0.4,0.8-1.1c0-5.7,0-11.3,0-17
		c0-0.2,0-0.3,0-0.5C10.3,28.4,10.8,28.4,11.4,28.4z M7.5,17.6c-1.7,0-3.1,1.4-3.1,3.1c0,1.7,1.4,3.1,3.1,3.1c1.7,0,3.1-1.4,3.1-3.1
		C10.6,18.9,9.2,17.6,7.5,17.6z"/>
</g>
</svg>
