<?xml version="1.0" encoding="utf-8"?>
<!-- Generator: Adobe Illustrator 24.0.2, SVG Export Plug-In . SVG Version: 6.00 Build 0)  -->
<svg version="1.1" id="Layer_1" xmlns="http://www.w3.org/2000/svg" xmlns:xlink="http://www.w3.org/1999/xlink" x="0px" y="0px"
	 viewBox="0 0 36 36" style="enable-background:new 0 0 36 36;" xml:space="preserve">
<style type="text/css">
	.st0{fill:#FFFFFF;}
</style>
<g>
	<path class="st0" d="M13.5,24c-4,0-8,0-12,0c0,0.1,0,0.3,0,0.4c0,3.6,0,7.1,0,10.7c0,0.5-0.3,0.9-0.8,0.9C0.3,36,0,35.7,0,35.3
		c0-0.1,0-0.2,0-0.3C0,23.7,0,12.3,0,1c0-0.1,0-0.2,0-0.3C0,0.3,0.3,0,0.7,0s0.7,0.3,0.7,0.7c0,0.6,0,1.3,0,1.9c0,0.1,0,0.2,0,0.4
		c0.2,0,0.3,0,0.4,0c5.5,0,10.9,0,16.4,0c0.1,0,0.2,0,0.3,0c0.6,0,0.8,0.3,0.8,0.8c0,1.6,0,3.2,0,4.7c0,0.1,0,0.3,0,0.4
		c0.2,0,0.3,0,0.4,0c5,0,10,0,15,0c0.1,0,0.2,0,0.3,0c0.3,0,0.6,0.2,0.7,0.5c0.1,0.3,0.1,0.6-0.1,0.8c-0.6,0.7-1.1,1.3-1.7,2
		c-1.7,2.1-3.5,4.2-5.2,6.3c-0.1,0.1-0.1,0.2-0.2,0.2c0.1,0.1,0.1,0.2,0.2,0.3c2.3,3.2,4.6,6.4,6.9,9.6c0.4,0.5,0.3,1-0.2,1.2
		c0,0.2-0.2,0.2-0.4,0.2c-2.3,0-4.7,0-7,0c-4.4,0-8.9,0-13.3,0c-1.1,0-1.2-0.1-1.2-1.2c0-1.5,0-2.9,0-4.4
		C13.5,24.3,13.5,24.2,13.5,24z M1.5,4.5c0,6,0,12,0,18c5.5,0,11,0,16.5,0c0-6,0-12,0-18C12.5,4.5,7,4.5,1.5,4.5z M19.5,10.5
		c0,0.2,0,0.3,0,0.4c0,3.9,0,7.9,0,11.8c0,0.5-0.1,0.9-0.4,1.3c-1,1.3-2.1,2.7-3.1,4.1c-0.1,0.1-0.1,0.2-0.2,0.3c6,0,12,0,18,0
		c-0.1-0.1-0.2-0.3-0.3-0.4c-2.1-2.9-4.2-5.8-6.2-8.7c-0.4-0.5-0.4-0.8,0-1.2c2-2.4,4-4.8,6-7.2c0.1-0.1,0.2-0.2,0.3-0.4
		C28.9,10.5,24.2,10.5,19.5,10.5z M15,24c0,1,0,1.9,0,2.9c0.8-1,1.5-2,2.2-2.9C16.4,24,15.7,24,15,24z"/>
	<path class="st0" d="M9.7,7.5c-1.7,0-3.4,0-5.1,0c-0.6,0-1-0.4-0.8-0.9C3.9,6.2,4.1,6.1,4.4,6c0.1,0,0.2,0,0.4,0c3.3,0,6.7,0,10,0
		c0.7,0,1,0.3,1,0.8s-0.4,0.7-1,0.7C13.1,7.5,11.4,7.5,9.7,7.5z"/>
</g>
</svg>
