<?xml version="1.0" encoding="utf-8"?>
<!-- Generator: Adobe Illustrator 24.0.2, SVG Export Plug-In . SVG Version: 6.00 Build 0)  -->
<svg version="1.1" id="Layer_1" xmlns="http://www.w3.org/2000/svg" xmlns:xlink="http://www.w3.org/1999/xlink" x="0px" y="0px"
	 viewBox="0 0 53 44" style="enable-background:new 0 0 53 44;" xml:space="preserve">
<style type="text/css">
	.st0{fill:#F8981D;}
</style>
<g>
	<path class="st0" d="M16.8,29.4l-1.9,4.7c-0.1,0.5,0.1,0.8,0.6,0.9h11.8c0.6-0.1,0.8-0.4,0.6-0.9l-1.9-4.7H16.8z"/>
	<g>
		<path class="st0" d="M32.4,42.5H51v-2.8c0-4.8-4.2-8.6-9.3-8.6s-9.3,3.9-9.3,8.6V42.5z"/>
		<path class="st0" d="M41.7,18.3c-3.4,0-6.1,2.5-6.1,5.6s2.7,5.6,6.1,5.6c3.4,0,6.1-2.5,6.1-5.6S45.1,18.3,41.7,18.3z"/>
	</g>
	<g>
		<path class="st0" d="M15,8.2v8.1h12.8l0-8.1H15z M24.2,12.8l-3.8,2.7c-0.5,0.4-1.4,0.1-1.4-0.6V9.4c0.2-0.7,0.6-0.9,1.4-0.6
			l3.8,2.7C24.7,12,24.7,12.4,24.2,12.8z"/>
		<polygon class="st0" points="20.8,13.3 22.3,12.2 20.8,11.1 		"/>
		<path class="st0" d="M37.2,18.1h-0.1v-13H5.8v19.1H34C33.8,22,35.3,19.4,37.2,18.1z M28.7,21.4H27v0.5c0,0.4-0.4,0.8-0.8,0.8
			c-0.5,0-0.8-0.3-0.8-0.8v-0.5H14.2c-0.5,0-0.8-0.3-0.8-0.8c0-0.4,0.4-0.8,0.8-0.8h11.1v-0.5c0-0.4,0.4-0.8,0.8-0.8
			c0.5,0,0.8,0.3,0.8,0.8v0.5h1.7c0.5,0,0.8,0.3,0.8,0.8C29.5,21.1,29.2,21.4,28.7,21.4z M29.5,16.2c0,0.9-0.8,1.6-1.7,1.6H15
			c-0.9,0-1.7-0.7-1.7-1.6V8.2c0-0.9,0.8-1.6,1.7-1.6h12.8c0.9,0,1.7,0.7,1.7,1.6V16.2z"/>
		<path class="st0" d="M40,1.5H2.8C2.4,1.5,2,1.8,2,2.3V27c0,0.4,0.4,0.8,0.8,0.8h32.4c-0.4-0.6-0.8-1.3-1-2H5
			c-0.5,0-0.8-0.3-0.8-0.8V4.3c0-0.4,0.4-0.8,0.8-0.8h32.9c0.5,0,0.8,0.3,0.8,0.8v13c0.7-0.3,1.4-0.4,2.1-0.5V2.3
			C40.9,1.8,40.5,1.5,40,1.5z"/>
	</g>
</g>
</svg>
