<?xml version="1.0" encoding="utf-8"?>
<!-- Generator: Adobe Illustrator 24.0.2, SVG Export Plug-In . SVG Version: 6.00 Build 0)  -->
<svg version="1.1" id="Layer_1" xmlns="http://www.w3.org/2000/svg" xmlns:xlink="http://www.w3.org/1999/xlink" x="0px" y="0px"
	 viewBox="0 0 120 54" style="enable-background:new 0 0 120 54;" xml:space="preserve">
<style type="text/css">
	.st0{fill:#FFFFFF;}
</style>
<g>
	<path class="st0" d="M83.6,38.5c-1.5,0-2.9,0-4.4,0c-0.1-0.1-0.1-0.2-0.2-0.3c-1.8-3.4-3.6-6.7-5.4-10.1c-0.1-0.2-0.2-0.3-0.3-0.5
		c-0.1-0.2-0.3-0.4-0.5-0.5c-0.2-0.1-0.4-0.1-0.5,0.1c-0.1,0.2-0.1,0.4-0.2,0.5c0,0.1,0,0.2,0,0.3c0,3.3,0,6.6,0,9.9
		c0,0.1,0,0.3,0,0.4c-0.3,0.1-4.2,0.1-4.6,0c0-0.1,0-0.2,0-0.3c0-4.2,0-8.5,0-12.7c0-1.3,0.6-2.3,1.6-3.1c0.3-0.2,0.6-0.5,1-0.6
		c1.7-0.9,3.7-0.4,4.8,0.9c0.7,0.8,1.3,1.6,1.7,2.5c1.4,2.7,2.8,5.4,4.2,8c0.1,0.2,0.2,0.3,0.3,0.5c0.1-0.1,0.1-0.2,0.2-0.3
		c1.6-2.9,3.1-5.8,4.7-8.7c0.4-0.7,0.8-1.4,1.3-2c1.7-2,4.8-1.9,6.5,0.1c0.7,0.9,1.1,1.8,1.1,3c0,5.6,0,6.8,0,12.4
		c0,0.1,0,0.2,0,0.4c-1.5,0-3.1,0-4.6,0c0-0.1,0-0.3,0-0.4c0-4.7,0-4.9,0-9.6c0-0.1,0-0.3,0-0.4c0-0.4-0.2-0.7-0.5-0.7
		c-0.3-0.1-0.6,0.1-0.8,0.5c-0.4,0.7-0.7,1.4-1.1,2.1c-1.4,2.8-2.9,5.5-4.3,8.3C83.7,38.3,83.6,38.4,83.6,38.5z"/>
	<path class="st0" d="M97.2,25.7c0-1.4,0-2.7,0-4.1c0.1,0,0.2,0,0.2,0c0.1,0,0.2,0,0.3,0c5.2,0,10.4,0,15.5,0c1.7,0,3,0.6,4.1,1.9
		c0.8,0.9,1.3,1.9,1.5,3c0,0.2,0.1,0.4,0.1,0.5c0,3.8,0,7.5,0,11.3c0,0.1,0,0.2,0,0.3c-1.6,0-3.2,0-4.8,0c0-0.4,0-0.7,0-1.1
		c-0.1,0.1-0.2,0.2-0.2,0.2c-0.5,0.5-1.1,0.8-1.9,0.8c-4.2,0-8.4,0-12.6,0c-0.9,0-1.6-0.4-2.1-1.2c-0.2-0.3-0.3-0.6-0.3-0.9
		c0-0.2,0-0.4,0-0.6c0-1.6,0-3.2,0-4.8c0-0.5,0.1-1,0.3-1.5c0.4-1,1.2-1.6,2.4-1.6c3.9,0,7.9,0,11.8,0c1,0,1.8,0.3,2.5,1.1
		c0,0,0.1,0.1,0.1,0.1c0,0,0,0,0.1,0c0-0.4,0-0.9,0-1.3c0-0.2,0-0.5-0.1-0.7c-0.4-0.9-1-1.4-2-1.4c-0.2,0-0.3,0-0.5,0
		c-4.6,0-9.2,0-13.9,0C97.5,25.7,97.4,25.7,97.2,25.7z M107.5,34.4c1.5,0,3,0,4.6,0c0.5,0,0.8-0.2,1-0.6c0.3-0.4,0.2-0.8-0.1-1.2
		c-0.3-0.3-0.7-0.5-1.2-0.5c-2.9,0-5.9,0-8.8,0c-0.1,0-0.2,0-0.3,0c-0.2,0.1-0.4,0.1-0.5,0.2c-0.4,0.3-0.5,0.9-0.3,1.4
		c0.2,0.4,0.5,0.7,1.1,0.7C104.5,34.4,106,34.4,107.5,34.4z"/>
	<path class="st0" d="M26,38.5c-1.6,0-3.1,0-4.6,0c-0.1-0.2-0.1-9.9,0-10.5c0.1,0,0.3,0,0.4,0c4.6,0,9.2,0,13.8,0
		c0.4,0,0.7-0.1,1-0.3c0.4-0.3,0.5-0.7,0.4-1.2c-0.1-0.5-0.3-0.7-0.8-0.8c-0.3-0.1-0.5-0.1-0.8-0.1c-4.6,0-9.1,0-13.7,0
		c-0.1,0-0.3,0-0.5,0c0-1.3,0-2.6,0-4c0.1,0,0.3,0,0.4,0c4.4,0,8.8,0,13.2,0c1.2,0,2.5,0,3.7,0c1.8-0.1,3.1,1.5,3.1,3.1
		c0,1.5,0,3,0,4.5c0,0.6-0.1,1.3-0.6,1.8c-0.3,0.3-0.6,0.6-1,0.7c-0.5,0.1-1,0.2-1.4,0.3c-0.2,0-0.4,0.1-0.7,0.1
		c0.1,0.1,0.1,0.2,0.2,0.3c1.7,1.9,3.4,3.9,5.1,5.8c1.6,1.9,3.2,3.7,4.9,5.6c0.1,0.1,0.1,0.2,0.3,0.3c-0.2,0-0.3,0-0.4,0
		c-1.7,0-3.5,0-5.2,0c-0.3,0-0.4-0.1-0.6-0.3c-1.3-1.5-2.5-2.9-3.8-4.3c-2.1-2.3-4.1-4.7-6.2-7c-0.2-0.2-0.4-0.3-0.7-0.3
		c-1.7,0-3.4,0-5.1,0c-0.1,0-0.2,0-0.4,0C26,34.3,26,36.4,26,38.5z"/>
	<path class="st0" d="M52.1,21.6c0.1,1.4-0.1,2.8-0.6,4.1c-0.2,0-0.4,0-0.6,0c-0.3,0-0.5,0.1-0.8,0.2c-0.6,0.2-1,0.6-1.4,1
		c-0.3,0.3-0.4,0.7-0.4,1.2c0,1.1,0,2.2,0,3.3c0,0.7,0.2,1.3,0.6,1.9c0.3,0.5,0.8,0.8,1.4,0.8c0.2,0,0.3,0,0.5,0c2.6,0,5.1,0,7.7,0
		c0.4,0,0.7,0,1.1-0.2c0.8-0.3,1.2-0.8,1.3-1.6c0-0.2,0-0.4,0-0.6c0-1.2,0-2.3,0-3.5c0-0.6-0.2-1.2-0.6-1.7c-0.5-0.6-1.2-0.8-2-0.9
		c-0.3,0-0.5,0-0.8,0c-0.1,0-0.2,0-0.4,0c0.9-1.3,1.7-2.6,2.2-4.1c0.6,0,1.2-0.1,1.8,0.1c1.6,0.4,2.8,1.3,3.7,2.7
		c0.4,0.7,0.6,1.4,0.6,2.1c0,0.4,0,0.8,0,1.2c0,1.8,0,3.6,0,5.4c0,2.3-1.1,3.9-3.1,5c-0.5,0.3-1,0.4-1.6,0.4c-4,0-7.9,0-11.9,0
		c-2.1,0-3.6-1-4.7-2.8c-0.5-0.9-0.7-1.8-0.7-2.8c0-1.9,0-3.9,0-5.8c0-1.9,0.8-3.4,2.2-4.5c0.5-0.4,1.1-0.8,1.8-0.9
		c0.2,0,0.4-0.1,0.6-0.1c1.2,0,2.4,0,3.5,0C51.9,21.6,52,21.6,52.1,21.6z"/>
	<path class="st0" d="M18.9,25.6c-0.2,0-0.3,0-0.4,0c-3.3,0-6.7,0-10,0c-1.2,0-2.3,0.7-2.7,1.8c-0.1,0.2-0.1,0.4-0.1,0.6
		c0,1.3,0,2.7,0,4c0,0.9,0.7,2,2,2.3c0.2,0,0.3,0,0.5,0c3.5,0,6.9,0,10.4,0c0.1,0,0.3,0,0.4,0c0,1.4,0,2.8,0,4.2c-0.1,0-0.2,0-0.3,0
		c-4.1,0-8.3,0-12.4,0c-2.6,0-4.7-1.8-5.2-4.2C1,34,1,33.6,1,33.3c0-2.2,0-4.4,0-6.6c0-1.1,0.3-2.1,1-3c0.6-0.8,1.3-1.4,2.2-1.8
		c0.4-0.2,0.8-0.3,1.2-0.3c4.4,0,8.7,0,13.1,0c0.1,0,0.2,0,0.4,0C18.9,22.9,18.9,24.2,18.9,25.6z"/>
	<path class="st0" d="M54.2,1.3c0.1,0.1,0.2,0.2,0.3,0.4c2,2.4,3.5,5.1,4.4,8.1c0.6,2.1,0.8,4.2,0.7,6.4c-0.1,2-0.5,3.9-1.2,5.7
		c-1.1,2.7-2.8,4.8-5.2,6.4c-0.6,0.4-1.3,0.8-2,1c-0.1,0-0.2,0.1-0.4,0.1c0.1-0.2,0.1-0.3,0.2-0.4c0.7-1.2,1.2-2.5,1.5-3.8
		c0.5-2,0.5-4.1,0-6.1c-0.7-2.5-2.3-4-4.8-4.7c-0.1,0-0.2-0.1-0.4-0.1c0.2-0.1,0.2-0.2,0.3-0.2c0.6-0.3,1.2-0.4,1.9-0.3
		c0.9,0.1,1.7,0.4,2.5,0.7c0.6,0.2,1.2,0.4,1.8,0.6c0.4,0.1,0.8,0.2,1.2,0.1c0.5-0.1,0.8-0.3,1.1-0.7c0.2-0.3,0.4-0.7,0.4-1.1
		c0.2-0.7,0.2-1.4,0.2-2.1c-0.1-1.7-0.4-3.4-0.8-5c-0.4-1.6-1-3.2-1.6-4.7C54.2,1.5,54.2,1.4,54.2,1.3C54.2,1.3,54.2,1.3,54.2,1.3z"
		/>
	<path class="st0" d="M47.4,8.7c0-1.1,0.4-2.1,1.1-2.9c1.5-1.7,4-1.7,5.6,0c1.6,1.7,1.4,4.5-0.3,6c-1.9,1.7-4.7,1.1-5.9-1.2
		C47.5,10.1,47.4,9.4,47.4,8.7z"/>
	<path class="st0" d="M93,43.5h-1.2v2.5H93c1,0,1.5-0.4,1.5-1.2C94.5,44,94,43.5,93,43.5z"/>
	<polygon class="st0" points="66.5,47.8 69,47.8 67.8,44.2 	"/>
	<path class="st0" d="M49.3,40.2v12.5H119V40.2H49.3z M54.2,48.5c0.4,0.5,1,0.7,1.7,0.7c0.5,0,1-0.1,1.4-0.4c0.4-0.3,0.7-0.6,0.9-1
		h2.6c-0.2,1.1-0.8,2-1.6,2.6c-0.8,0.7-1.9,1-3.2,1c-1,0-1.8-0.2-2.6-0.6c-0.7-0.4-1.3-1-1.7-1.7c-0.4-0.7-0.6-1.6-0.6-2.6
		s0.2-1.8,0.6-2.6c0.4-0.7,1-1.3,1.7-1.7c0.7-0.4,1.6-0.6,2.6-0.6c1.3,0,2.3,0.3,3.2,1c0.8,0.6,1.4,1.5,1.6,2.6h-2.6
		c-0.2-0.4-0.5-0.8-0.9-1.1c-0.4-0.3-0.9-0.4-1.4-0.4c-0.7,0-1.3,0.3-1.7,0.8c-0.4,0.5-0.7,1.2-0.7,2C53.5,47.3,53.8,48,54.2,48.5z
		 M70.3,51.3l-0.6-1.8h-3.7l-0.6,1.8h-2.5l3.7-9.6h2.8l3.7,9.6H70.3z M86.4,51.3h-2.4v-6l-2.2,6h-2.1l-2.2-6v6h-2.4v-9.6h3l2.7,6.7
		l2.6-6.7h2.9V51.3z M96.5,46.4c-0.3,0.5-0.7,0.8-1.2,1.1c-0.5,0.3-1.2,0.4-2,0.4h-1.5v3.4h-2.4v-9.7h3.9c1.2,0,2.1,0.3,2.7,0.9
		c0.6,0.6,0.9,1.3,0.9,2.3C96.9,45.4,96.8,45.9,96.5,46.4z M107.7,47.2c0,0.9-0.2,1.7-0.6,2.3c-0.4,0.6-0.9,1.1-1.5,1.4
		c-0.6,0.3-1.4,0.5-2.2,0.5c-0.8,0-1.5-0.2-2.1-0.5c-0.6-0.3-1.1-0.8-1.4-1.4c-0.3-0.6-0.5-1.4-0.5-2.3v-5.6h2.4v5.6
		c0,0.6,0.1,1.1,0.4,1.5c0.3,0.3,0.7,0.5,1.3,0.5c0.6,0,1-0.2,1.3-0.5c0.3-0.3,0.4-0.8,0.4-1.5v-5.6h2.4V47.2z M117.5,50
		c-0.3,0.4-0.7,0.8-1.2,1c-0.5,0.3-1.2,0.4-1.9,0.4c-1.1,0-2-0.3-2.8-0.8c-0.7-0.5-1.1-1.3-1.2-2.2h2.6c0,0.4,0.2,0.7,0.4,0.9
		c0.2,0.2,0.5,0.3,0.9,0.3c0.3,0,0.6-0.1,0.7-0.2c0.2-0.2,0.3-0.4,0.3-0.7c0-0.2-0.1-0.5-0.2-0.6c-0.2-0.2-0.4-0.3-0.6-0.4
		c-0.2-0.1-0.6-0.2-1-0.4c-0.6-0.2-1.1-0.4-1.5-0.6c-0.4-0.2-0.7-0.5-1-0.9c-0.3-0.4-0.4-0.9-0.4-1.5c0-0.6,0.2-1.1,0.5-1.5
		c0.3-0.4,0.7-0.7,1.3-1c0.5-0.2,1.1-0.3,1.8-0.3c1.1,0,2,0.3,2.7,0.8c0.7,0.5,1,1.2,1.1,2.1h-2.6c0-0.3-0.2-0.6-0.4-0.8
		c-0.2-0.2-0.5-0.3-0.8-0.3c-0.3,0-0.5,0.1-0.7,0.2c-0.2,0.1-0.3,0.4-0.3,0.6c0,0.2,0.1,0.4,0.2,0.6c0.2,0.2,0.4,0.3,0.6,0.4
		c0.2,0.1,0.6,0.2,1,0.4c0.6,0.2,1.2,0.4,1.6,0.6c0.4,0.2,0.8,0.5,1,0.9c0.3,0.4,0.4,0.9,0.4,1.5C117.9,49.1,117.7,49.6,117.5,50z"
		/>
	<path class="st0" d="M1.3,40.2h32.4c0.2,0,0.3-0.1,0.3-0.3v-2.8c0-0.3,0.4-0.4,0.6-0.2l7,7.6c0.1,0.1,0.1,0.3,0,0.4l-7.1,7.4
		C34.3,52.5,34,52.3,34,52v-2.8c0-0.2-0.1-0.3-0.3-0.3H1.3c-0.2,0-0.3-0.1-0.3-0.3v-8C1,40.4,1.1,40.2,1.3,40.2z"/>
</g>
</svg>
