<?xml version="1.0" encoding="utf-8"?>
<!-- Generator: Adobe Illustrator 24.0.2, SVG Export Plug-In . SVG Version: 6.00 Build 0)  -->
<svg version="1.1" id="Capa_1" xmlns="http://www.w3.org/2000/svg" xmlns:xlink="http://www.w3.org/1999/xlink" x="0px" y="0px"
	 width="40px" height="40px" viewBox="0 0 40 40" style="enable-background:new 0 0 40 40;" xml:space="preserve">
<style type="text/css">
	.st0{fill:#D3DCFB;}
	.st1{fill:#EBF5FC;}
	.st2{fill:#3C58A0;}
	.st3{fill:#2A428C;}
	.st4{fill:#FF4155;}
	.st5{fill:#E80054;}
	.st6{fill:#4FABF7;}
	.st7{fill:#1886EA;}
	.st8{fill:#FFDD40;}
</style>
<g>
	<g>
		<path class="st0" d="M19.2,33H3.3c-1.5,0-2.8-1.2-2.8-2.6v-2.6h21.4L19.2,33z"/>
		<path class="st1" d="M36.7,12.2v10.9v7.3H3.3c-1.5,0-2.8-1.2-2.8-2.6V12.2L20,5.7L36.7,12.2z"/>
		<g>
			<path class="st2" d="M5.4,17.4H3.9c-0.4,0-0.7-0.3-0.7-0.6v-1.4c0-0.3,0.3-0.6,0.7-0.6h1.5c0.4,0,0.7,0.3,0.7,0.6v1.4
				C6.1,17.1,5.8,17.4,5.4,17.4z"/>
			<path class="st2" d="M11,17.4H9.5c-0.4,0-0.7-0.3-0.7-0.6v-1.4c0-0.3,0.3-0.6,0.7-0.6H11c0.4,0,0.7,0.3,0.7,0.6v1.4
				C11.6,17.1,11.4,17.4,11,17.4z"/>
			<path class="st2" d="M16.6,17.4h-1.5c-0.4,0-0.7-0.3-0.7-0.6v-1.4c0-0.3,0.3-0.6,0.7-0.6h1.5c0.4,0,0.7,0.3,0.7,0.6v1.4
				C17.2,17.1,16.9,17.4,16.6,17.4z"/>
			<path class="st2" d="M22.1,17.4h-1.5c-0.4,0-0.7-0.3-0.7-0.6v-1.4c0-0.3,0.3-0.6,0.7-0.6h1.5c0.4,0,0.7,0.3,0.7,0.6v1.4
				C22.8,17.1,22.5,17.4,22.1,17.4z"/>
			<path class="st2" d="M27.7,17.4h-1.5c-0.4,0-0.7-0.3-0.7-0.6v-1.4c0-0.3,0.3-0.6,0.7-0.6h1.5c0.4,0,0.7,0.3,0.7,0.6v1.4
				C28.4,17.1,28.1,17.4,27.7,17.4z"/>
			<path class="st2" d="M33.3,17.4h-1.5c-0.4,0-0.7-0.3-0.7-0.6v-1.4c0-0.3,0.3-0.6,0.7-0.6h1.5c0.4,0,0.7,0.3,0.7,0.6v1.4
				C33.9,17.1,33.6,17.4,33.3,17.4z"/>
			<path class="st2" d="M5.4,22.6H3.9c-0.4,0-0.7-0.3-0.7-0.6v-1.4c0-0.3,0.3-0.6,0.7-0.6h1.5c0.4,0,0.7,0.3,0.7,0.6V22
				C6.1,22.3,5.8,22.6,5.4,22.6z"/>
			<path class="st2" d="M11,22.6H9.5c-0.4,0-0.7-0.3-0.7-0.6v-1.4c0-0.3,0.3-0.6,0.7-0.6H11c0.4,0,0.7,0.3,0.7,0.6V22
				C11.6,22.3,11.4,22.6,11,22.6z"/>
			<path class="st2" d="M16.6,22.6h-1.5c-0.4,0-0.7-0.3-0.7-0.6v-1.4c0-0.3,0.3-0.6,0.7-0.6h1.5c0.4,0,0.7,0.3,0.7,0.6V22
				C17.2,22.3,16.9,22.6,16.6,22.6z"/>
			<path class="st2" d="M22.8,22.6v-2c0-0.4-0.3-0.6-0.7-0.6h-1.4c-0.4,0-0.7,0.3-0.7,0.6v1.3c0,0.4,0.3,0.6,0.7,0.6L22.8,22.6z"/>
			<path class="st2" d="M5.4,27.8H3.9c-0.4,0-0.7-0.3-0.7-0.6v-1.4c0-0.3,0.3-0.6,0.7-0.6h1.5c0.4,0,0.7,0.3,0.7,0.6v1.4
				C6.1,27.5,5.8,27.8,5.4,27.8z"/>
			<path class="st2" d="M11,27.8H9.5c-0.4,0-0.7-0.3-0.7-0.6v-1.4c0-0.3,0.3-0.6,0.7-0.6H11c0.4,0,0.7,0.3,0.7,0.6v1.4
				C11.6,27.5,11.4,27.8,11,27.8z"/>
			<path class="st2" d="M16.6,27.8h-1.5c-0.4,0-0.7-0.3-0.7-0.6v-1.4c0-0.3,0.3-0.6,0.7-0.6h1.5c0.4,0,0.7,0.3,0.7,0.6v1.4
				C17.2,27.5,16.9,27.8,16.6,27.8z"/>
		</g>
		<path class="st3" d="M33.3,14.8h-1.4c-0.1,0-0.2,0-0.2,0c0.2,0.1,0.4,0.3,0.4,0.6v1.3c0,0.3-0.2,0.5-0.4,0.6c0.1,0,0.2,0,0.2,0
			h1.4c0.4,0,0.7-0.3,0.7-0.6v-1.3C33.9,15.1,33.6,14.8,33.3,14.8z"/>
		<path class="st3" d="M27.7,14.8h-1.4c-0.1,0-0.2,0-0.2,0c0.2,0.1,0.4,0.3,0.4,0.6v1.3c0,0.3-0.2,0.5-0.4,0.6c0.1,0,0.2,0,0.2,0
			h1.4c0.4,0,0.7-0.3,0.7-0.6v-1.3C28.4,15.1,28.1,14.8,27.7,14.8z"/>
		<path class="st3" d="M22.1,14.8h-1.4c-0.1,0-0.2,0-0.2,0c0.2,0.1,0.4,0.3,0.4,0.6v1.3c0,0.3-0.2,0.5-0.4,0.6c0.1,0,0.2,0,0.2,0
			h1.4c0.4,0,0.7-0.3,0.7-0.6v-1.3C22.8,15.1,22.5,14.8,22.1,14.8z"/>
		<path class="st3" d="M16.5,14.8h-1.4c-0.1,0-0.2,0-0.2,0c0.2,0.1,0.4,0.3,0.4,0.6v1.3c0,0.3-0.2,0.5-0.4,0.6c0.1,0,0.2,0,0.2,0
			h1.4c0.4,0,0.7-0.3,0.7-0.6v-1.3C17.2,15.1,16.9,14.8,16.5,14.8z"/>
		<path class="st3" d="M11,14.8H9.5c-0.1,0-0.2,0-0.2,0c0.2,0.1,0.4,0.3,0.4,0.6v1.3c0,0.3-0.2,0.5-0.4,0.6c0.1,0,0.2,0,0.2,0H11
			c0.4,0,0.7-0.3,0.7-0.6v-1.3C11.6,15.1,11.3,14.8,11,14.8z"/>
		<path class="st3" d="M5.4,14.8H4c-0.1,0-0.2,0-0.2,0c0.2,0.1,0.4,0.3,0.4,0.6v1.3c0,0.3-0.2,0.5-0.4,0.6c0.1,0,0.2,0,0.2,0h1.4
			c0.4,0,0.7-0.3,0.7-0.6v-1.3C6.1,15.1,5.8,14.8,5.4,14.8z"/>
		<path class="st3" d="M5.4,20H4c-0.1,0-0.2,0-0.2,0c0.2,0.1,0.4,0.3,0.4,0.6V22c0,0.3-0.2,0.5-0.4,0.6c0.1,0,0.2,0,0.2,0h1.4
			c0.4,0,0.7-0.3,0.7-0.6v-1.3C6.1,20.3,5.8,20,5.4,20L5.4,20z"/>
		<path class="st3" d="M5.4,25.2H4c-0.1,0-0.2,0-0.2,0c0.2,0.1,0.4,0.3,0.4,0.6v1.3c0,0.3-0.2,0.5-0.4,0.6c0.1,0,0.2,0,0.2,0h1.4
			c0.4,0,0.7-0.3,0.7-0.6v-1.3C6.1,25.5,5.8,25.2,5.4,25.2L5.4,25.2z"/>
		<path class="st3" d="M11,20H9.5c-0.1,0-0.2,0-0.2,0c0.2,0.1,0.4,0.3,0.4,0.6V22c0,0.3-0.2,0.5-0.4,0.6c0.1,0,0.2,0,0.2,0H11
			c0.4,0,0.7-0.3,0.7-0.6v-1.3C11.6,20.3,11.3,20,11,20L11,20z"/>
		<path class="st3" d="M11,25.2H9.5c-0.1,0-0.2,0-0.2,0c0.2,0.1,0.4,0.3,0.4,0.6v1.3c0,0.3-0.2,0.5-0.4,0.6c0.1,0,0.2,0,0.2,0H11
			c0.4,0,0.7-0.3,0.7-0.6v-1.3C11.6,25.5,11.3,25.2,11,25.2L11,25.2z"/>
		<path class="st3" d="M16.5,20h-1.4c-0.1,0-0.2,0-0.2,0c0.2,0.1,0.4,0.3,0.4,0.6V22c0,0.3-0.2,0.5-0.4,0.6c0.1,0,0.2,0,0.2,0h1.4
			c0.4,0,0.7-0.3,0.7-0.6v-1.3C17.2,20.3,16.9,20,16.5,20L16.5,20z"/>
		<path class="st3" d="M22.8,22.6v-2c0-0.3-0.3-0.6-0.7-0.6h-1.4c-0.1,0-0.2,0-0.2,0c0.2,0.1,0.4,0.3,0.4,0.6V22
			c0,0.3-0.2,0.5-0.4,0.6c0.1,0,0.2,0,0.2,0L22.8,22.6L22.8,22.6z"/>
		<path class="st3" d="M16.5,25.2h-1.4c-0.1,0-0.2,0-0.2,0c0.2,0.1,0.4,0.3,0.4,0.6v1.3c0,0.3-0.2,0.5-0.4,0.6c0.1,0,0.2,0,0.2,0
			h1.4c0.4,0,0.7-0.3,0.7-0.6v-1.3C17.2,25.5,16.9,25.2,16.5,25.2L16.5,25.2z"/>
		<path class="st0" d="M34.8,11.4v11.7v7.3h1.9v-7.3V12.2L34.8,11.4z"/>
		<path class="st4" d="M36.7,12.2V5.7c0-1.4-1.2-2.6-2.8-2.6H3.3c-1.5,0-2.8,1.2-2.8,2.6v6.5H36.7z"/>
		<g>
			<g>
				<g>
					<path class="st5" d="M9.3,6.3H7.5C7.1,6.3,6.8,6,6.8,5.7c0-0.3,0.3-0.6,0.6-0.6h1.8c0.3,0,0.6,0.3,0.6,0.6
						C9.9,6,9.6,6.3,9.3,6.3z"/>
				</g>
				<g>
					<path class="st5" d="M13.7,6.3h-1.8c-0.3,0-0.6-0.3-0.6-0.6c0-0.3,0.3-0.6,0.6-0.6h1.8c0.3,0,0.6,0.3,0.6,0.6
						C14.4,6,14.1,6.3,13.7,6.3z"/>
				</g>
				<g>
					<path class="st5" d="M25.3,6.3h-1.8c-0.3,0-0.6-0.3-0.6-0.6c0-0.3,0.3-0.6,0.6-0.6h1.8c0.3,0,0.6,0.3,0.6,0.6
						C25.9,6,25.6,6.3,25.3,6.3z"/>
				</g>
				<g>
					<path class="st5" d="M29.7,6.3h-1.8c-0.3,0-0.6-0.3-0.6-0.6c0-0.3,0.3-0.6,0.6-0.6h1.8c0.3,0,0.6,0.3,0.6,0.6
						C30.4,6,30.1,6.3,29.7,6.3z"/>
				</g>
			</g>
		</g>
		<path class="st1" d="M12.3,5.4c0,0.9-0.8,1.6-1.7,1.6S8.9,6.3,8.9,5.4V2.1c0-0.9,0.8-1.6,1.7-1.6s1.7,0.7,1.7,1.6L12.3,5.4
			L12.3,5.4z"/>
		<path class="st1" d="M28.4,5.4c0,0.9-0.8,1.6-1.7,1.6c-1,0-1.7-0.7-1.7-1.6V2.1c0-0.9,0.8-1.6,1.7-1.6c1,0,1.7,0.7,1.7,1.6
			L28.4,5.4L28.4,5.4z"/>
		<path class="st0" d="M26.6,0.5c-0.4,0-0.7,0.1-1,0.3c0.5,0.3,0.8,0.8,0.8,1.4v3.2c0,0.6-0.3,1.1-0.8,1.4c0.3,0.2,0.6,0.3,1,0.3
			c1,0,1.7-0.7,1.7-1.6V2.1C28.4,1.2,27.6,0.5,26.6,0.5z"/>
		<path class="st0" d="M10.6,0.5c-0.4,0-0.7,0.1-1,0.3c0.5,0.3,0.8,0.8,0.8,1.4v3.2c0,0.6-0.3,1.1-0.8,1.4c0.3,0.2,0.6,0.3,1,0.3
			c1,0,1.7-0.7,1.7-1.6V2.1C12.3,1.2,11.6,0.5,10.6,0.5L10.6,0.5z"/>
		<path class="st5" d="M33.9,3.1H32c1.5,0,2.8,1.2,2.8,2.6v6.5h1.9V5.7C36.7,4.3,35.5,3.1,33.9,3.1L33.9,3.1z"/>
		<path class="st5" d="M0.5,9h36.2v1.2H0.5L0.5,9z"/>
	</g>
	<ellipse class="st6" cx="29.1" cy="29.8" rx="10.4" ry="9.8"/>
	<ellipse class="st1" cx="29.1" cy="29.8" rx="7.7" ry="7.2"/>
	<g>
		<g>
			<path class="st2" d="M29.1,29c-0.3,0-0.6-0.3-0.6-0.6v-3.3c0-0.3,0.3-0.6,0.6-0.6c0.3,0,0.6,0.3,0.6,0.6v3.3
				C29.7,28.8,29.4,29,29.1,29z"/>
		</g>
	</g>
	<g>
		<g>
			<path class="st2" d="M32.5,30.3h-2.1c-0.3,0-0.6-0.3-0.6-0.6s0.3-0.6,0.6-0.6h2.1c0.3,0,0.6,0.3,0.6,0.6S32.9,30.3,32.5,30.3z"/>
		</g>
	</g>
	<path class="st7" d="M29.1,20c-0.3,0-0.6,0-1,0c5.3,0.5,9.5,4.6,9.5,9.7s-4.2,9.3-9.5,9.7c0.3,0,0.6,0,1,0c5.8,0,10.4-4.4,10.4-9.8
		S34.8,20,29.1,20z"/>
	<path class="st0" d="M29.1,22.6c-0.3,0-0.6,0-1,0.1c3.8,0.4,6.7,3.5,6.7,7.1s-2.9,6.7-6.7,7.1c0.3,0,0.6,0.1,1,0.1
		c4.2,0,7.7-3.2,7.7-7.2S33.3,22.6,29.1,22.6L29.1,22.6z"/>
	<ellipse class="st8" cx="29.1" cy="29.8" rx="1.4" ry="1.3"/>
</g>
</svg>
