<?xml version="1.0" encoding="utf-8"?>
<!-- Generator: Adobe Illustrator 24.0.2, SVG Export Plug-In . SVG Version: 6.00 Build 0)  -->
<svg version="1.1" id="Layer_1" xmlns="http://www.w3.org/2000/svg" xmlns:xlink="http://www.w3.org/1999/xlink" x="0px" y="0px"
	 viewBox="0 0 42 41" style="enable-background:new 0 0 42 41;" xml:space="preserve">
<style type="text/css">
	.st0{fill:#FFFFFF;}
</style>
<g>
	<path class="st0" d="M18.1,11.9c2.4,0,4.3-1.9,4.3-4.3s-1.9-4.3-4.3-4.3s-4.3,1.9-4.3,4.3S15.7,11.9,18.1,11.9z M18.1,4.7
		C19.7,4.7,21,6,21,7.6s-1.3,2.9-2.9,2.9c-1.6,0-2.9-1.3-2.9-2.9S16.5,4.7,18.1,4.7z"/>
	<path class="st0" d="M6.3,10.4L9,13.1c0.1,0.1,0.3,0.2,0.5,0.2c0.1,0,0.2,0,0.3-0.1c0.3-0.1,0.4-0.4,0.4-0.7v-2.2
		c1.2,0,2.2-1,2.2-2.2V5.4c0-1.2-1-2.2-2.2-2.2H3c-1.2,0-2.2,1-2.2,2.2v2.9c0,1.2,1,2.2,2.2,2.2H6.3z M2.3,8.3V5.4
		C2.3,5,2.6,4.7,3,4.7h7.2c0.4,0,0.7,0.3,0.7,0.7v2.9c0,0.4-0.3,0.7-0.7,0.7H9.5C9.1,9,8.8,9.3,8.8,9.7v1.1L7.1,9.2
		C7,9.1,6.8,9,6.6,9H3C2.6,9,2.3,8.7,2.3,8.3z"/>
	<rect x="3.7" y="6.1" class="st0" width="5.8" height="1.4"/>
	<path class="st0" d="M37.5,0.4h-9.4c-2,0-3.6,1.6-3.6,3.6v8.3l-3.7,1.1h-7.1c-2,0-3.6,1.6-3.6,3.6v5.8H7.3v1.4h20.9v-1.4h-5v-4.6
		l1.5-0.6c0.3,1.7,1.7,3,3.5,3h9.4c2,0,3.6-1.6,3.6-3.6V4C41.1,2,39.5,0.4,37.5,0.4z M22.2,17c-0.3,0.1-0.4,0.4-0.4,0.7v5h-2.9v-5
		h0.7v-1.4h-2.9v1.4h0.7v5h-2.9v-5h-1.4v5h-1.4v-5.8c0-1.2,1-2.2,2.2-2.2H21c0.1,0,0.1,0,0.2,0l5-1.4c0.2,0,0.3-0.2,0.4-0.3L29,9.4
		l1.1,1.1L27,14.9L22.2,17z M39.7,16.9c0,1.2-1,2.2-2.2,2.2h-9.4c-1.2,0-2.2-1-2.2-2.2h-0.1l1.8-0.8c0.1-0.1,0.2-0.1,0.3-0.2l3.6-5
		c0.2-0.3,0.2-0.7-0.1-0.9l-2.2-2.2c-0.2-0.2-0.4-0.2-0.6-0.2c-0.2,0-0.4,0.1-0.5,0.3L26,11.3V4c0-1.2,1-2.2,2.2-2.2h9.4
		c1.2,0,2.2,1,2.2,2.2V16.9z"/>
	<rect x="28.2" y="4" class="st0" width="9.4" height="1.4"/>
	<rect x="31.8" y="6.8" class="st0" width="5.8" height="1.4"/>
	<rect x="33.2" y="9.7" class="st0" width="4.3" height="1.4"/>
	<rect x="31.8" y="12.6" class="st0" width="5.8" height="1.4"/>
	<rect x="29.6" y="15.5" class="st0" width="7.9" height="1.4"/>
	<path class="st0" d="M23.2,35.6h-4.3c-2,0-3.6,1.6-3.6,3.6v1.4h1.4v-1.4c0-1.2,1-2.2,2.2-2.2h4.3c1.2,0,2.2,1,2.2,2.2v1.4h1.4v-1.4
		C26.8,37.2,25.1,35.6,23.2,35.6z"/>
	<path class="st0" d="M36.1,35.6h-4.3c-2,0-3.6,1.6-3.6,3.6v1.4h1.4v-1.4c0-1.2,1-2.2,2.2-2.2h4.3c1.2,0,2.2,1,2.2,2.2v1.4h1.4v-1.4
		C39.7,37.2,38.1,35.6,36.1,35.6z"/>
	<path class="st0" d="M10.2,35.6H5.9c-2,0-3.6,1.6-3.6,3.6v1.4h1.4v-1.4c0-1.2,1-2.2,2.2-2.2h4.3c1.2,0,2.2,1,2.2,2.2v1.4h1.4v-1.4
		C13.8,37.2,12.2,35.6,10.2,35.6z"/>
	<rect x="29.6" y="22.7" class="st0" width="1.4" height="1.4"/>
	<path class="st0" d="M5.2,31.3c0,1.6,1.3,2.9,2.9,2.9s2.9-1.3,2.9-2.9v-0.7h1.4v-1.4h-1.5C10.5,27.9,9.4,27,8.1,27
		c-1.6,0-2.9,1.3-2.9,2.9V31.3z M9.5,31.3c0,0.8-0.6,1.4-1.4,1.4s-1.4-0.6-1.4-1.4v-0.7h2.9V31.3z M8.1,28.4c0.5,0,1,0.3,1.2,0.7
		H6.8C7.1,28.7,7.5,28.4,8.1,28.4z"/>
	<path class="st0" d="M21,34.2c1.6,0,2.9-1.3,2.9-2.9v-0.7h1.4v-1.4h-1.5C23.5,27.9,22.3,27,21,27c-1.6,0-2.9,1.3-2.9,2.9v1.4
		C18.1,32.9,19.4,34.2,21,34.2z M22.4,31.3c0,0.8-0.6,1.4-1.4,1.4s-1.4-0.6-1.4-1.4v-0.7h2.9V31.3z M21,28.4c0.5,0,1,0.3,1.2,0.7
		h-2.5C20,28.7,20.5,28.4,21,28.4z"/>
	<path class="st0" d="M31.1,31.3c0,1.6,1.3,2.9,2.9,2.9c1.6,0,2.9-1.3,2.9-2.9v-0.7h1.4v-1.4h-1.5c-0.3-1.2-1.4-2.2-2.8-2.2
		c-1.6,0-2.9,1.3-2.9,2.9V31.3z M35.4,31.3c0,0.8-0.6,1.4-1.4,1.4c-0.8,0-1.4-0.6-1.4-1.4v-0.7h2.9V31.3z M33.9,28.4
		c0.5,0,1,0.3,1.2,0.7h-2.5C33,28.7,33.4,28.4,33.9,28.4z"/>
</g>
</svg>
