<?xml version="1.0" encoding="utf-8"?>
<!-- Generator: Adobe Illustrator 24.0.2, SVG Export Plug-In . SVG Version: 6.00 Build 0)  -->
<svg version="1.1" id="Layer_1" xmlns="http://www.w3.org/2000/svg" xmlns:xlink="http://www.w3.org/1999/xlink" x="0px" y="0px"
	 viewBox="0 0 54 41" style="enable-background:new 0 0 54 41;" xml:space="preserve">
<style type="text/css">
	.st0{fill:url(#SVGID_1_);}
	.st1{fill:url(#SVGID_2_);}
	.st2{fill:url(#SVGID_3_);}
	.st3{fill:url(#SVGID_4_);}
	.st4{fill:url(#SVGID_5_);}
	.st5{fill:url(#SVGID_6_);}
	.st6{fill:url(#SVGID_7_);}
	.st7{fill:url(#SVGID_8_);}
	.st8{fill:url(#SVGID_9_);}
	.st9{fill:url(#SVGID_10_);}
	.st10{fill:url(#SVGID_11_);}
</style>
<g>
	<linearGradient id="SVGID_1_" gradientUnits="userSpaceOnUse" x1="28.9202" y1="17.1514" x2="53.7679" y2="17.1514">
		<stop  offset="0" style="stop-color:#8E2DE2"/>
		<stop  offset="1" style="stop-color:#4A00E0"/>
	</linearGradient>
	<path class="st0" d="M37.3,33.9c0.5-2.9-0.1-5.5-1.7-7.9c-1.6-2.4-3.9-3.8-6.7-4.4c0-0.2,0-0.4,0-0.6c0-6.1,0-12.3,0-18.4
		c0-1.5,0.7-2.2,2.3-2.2c6.8,0,13.6,0,20.3,0c1.5,0,2.3,0.7,2.3,2.2c0,9.7,0,19.3,0,29c0,1.5-0.7,2.2-2.2,2.2c-4.5,0-9.1,0-13.6,0
		C37.8,33.9,37.6,33.9,37.3,33.9z M51.8,10c-7,0-14,0-21,0c0,0.1,0,0.2,0,0.3c0,3.1,0,6.3,0,9.4c0,0.4,0.2,0.4,0.5,0.6
		c4.1,1.6,6.7,4.5,7.8,8.8c0.2,0.9,0.3,1.9,0.4,2.8c4.1,0,8.2,0,12.3,0C51.8,24.6,51.8,17.3,51.8,10z M30.9,8c7,0,14,0,21,0
		c0-1.9,0-3.8,0-5.7c-7,0-14,0-21,0C30.9,4.3,30.9,6.1,30.9,8z"/>
	<linearGradient id="SVGID_2_" gradientUnits="userSpaceOnUse" x1="0.2321" y1="17.1479" x2="25.089" y2="17.1479">
		<stop  offset="0" style="stop-color:#8E2DE2"/>
		<stop  offset="1" style="stop-color:#4A00E0"/>
	</linearGradient>
	<path class="st1" d="M16.6,33.9c-0.2,0-0.4,0-0.6,0c-4.5,0-9.1,0-13.6,0c-1.5,0-2.2-0.7-2.2-2.2c0-9.7,0-19.3,0-29
		c0-1.5,0.7-2.2,2.3-2.2c2.6,0,5.2,0,7.8,0c0.3,0,0.6,0.1,0.8,0.3c4.6,4.6,9.1,9.1,13.7,13.7c0.2,0.2,0.3,0.5,0.3,0.7c0,2,0,4,0,6
		c0,0.4-0.1,0.5-0.5,0.6c-5.2,1.2-8.7,6.2-8,11.5C16.6,33.4,16.6,33.6,16.6,33.9z M14.5,31.9c0-0.2,0-0.4,0-0.5
		c0.4-4.9,2.8-8.5,7.2-10.7c0.4-0.2,1.1-0.3,1.3-0.7c0.2-0.4,0.1-1,0.1-1.5c0-0.6,0-1.2,0-1.9c-4.8,0-9.6,0-14.4,0
		c0-4.8,0-9.5,0-14.3c-2.3,0-4.5,0-6.7,0c0,9.9,0,19.7,0,29.6C6.3,31.9,10.4,31.9,14.5,31.9z M22.2,14.7C18.4,11,14.6,7.2,10.8,3.4
		c0,3.7,0,7.5,0,11.3C14.7,14.7,18.5,14.7,22.2,14.7z"/>
	<linearGradient id="SVGID_3_" gradientUnits="userSpaceOnUse" x1="18.4066" y1="31.9756" x2="35.5933" y2="31.9756">
		<stop  offset="0" style="stop-color:#8E2DE2"/>
		<stop  offset="1" style="stop-color:#4A00E0"/>
	</linearGradient>
	<path class="st2" d="M18.4,32c0-4.8,3.9-8.6,8.6-8.6c4.7,0,8.6,3.9,8.6,8.6c0,4.8-3.9,8.6-8.6,8.6C22.2,40.6,18.4,36.7,18.4,32z
		 M27,38.7c3.7,0,6.7-3,6.7-6.7c0-3.7-3-6.7-6.7-6.7c-3.7,0-6.7,3-6.7,6.7C20.3,35.7,23.3,38.7,27,38.7z"/>
	<linearGradient id="SVGID_4_" gradientUnits="userSpaceOnUse" x1="32.7559" y1="16.6807" x2="43.2151" y2="16.6807">
		<stop  offset="0" style="stop-color:#8E2DE2"/>
		<stop  offset="1" style="stop-color:#4A00E0"/>
	</linearGradient>
	<path class="st3" d="M32.8,17.6c0-0.6,0-1.2,0-1.9c3.5,0,7,0,10.5,0c0,0.6,0,1.2,0,1.9C39.7,17.6,36.3,17.6,32.8,17.6z"/>
	<linearGradient id="SVGID_5_" gradientUnits="userSpaceOnUse" x1="32.7479" y1="12.8623" x2="38.4443" y2="12.8623">
		<stop  offset="0" style="stop-color:#8E2DE2"/>
		<stop  offset="1" style="stop-color:#4A00E0"/>
	</linearGradient>
	<path class="st4" d="M32.7,13.8c0-0.6,0-1.2,0-1.8c1.9,0,3.8,0,5.7,0c0,0.6,0,1.2,0,1.8C36.5,13.8,34.7,13.8,32.7,13.8z"/>
	<linearGradient id="SVGID_6_" gradientUnits="userSpaceOnUse" x1="40.4059" y1="5.2173" x2="42.2664" y2="5.2173">
		<stop  offset="0" style="stop-color:#8E2DE2"/>
		<stop  offset="1" style="stop-color:#4A00E0"/>
	</linearGradient>
	<path class="st5" d="M42.3,6.1c-0.6,0-1.2,0-1.9,0c0-0.6,0-1.2,0-1.8c0.6,0,1.2,0,1.9,0C42.3,4.9,42.3,5.5,42.3,6.1z"/>
	<linearGradient id="SVGID_7_" gradientUnits="userSpaceOnUse" x1="44.2557" y1="5.2194" x2="46.0862" y2="5.2194">
		<stop  offset="0" style="stop-color:#8E2DE2"/>
		<stop  offset="1" style="stop-color:#4A00E0"/>
	</linearGradient>
	<path class="st6" d="M46.1,6.1c-0.6,0-1.2,0-1.8,0c0-0.6,0-1.2,0-1.8c0.6,0,1.2,0,1.8,0C46.1,4.9,46.1,5.5,46.1,6.1z"/>
	<linearGradient id="SVGID_8_" gradientUnits="userSpaceOnUse" x1="48.0547" y1="5.2187" x2="49.9152" y2="5.2187">
		<stop  offset="0" style="stop-color:#8E2DE2"/>
		<stop  offset="1" style="stop-color:#4A00E0"/>
	</linearGradient>
	<path class="st7" d="M49.9,6.1c-0.6,0-1.2,0-1.9,0c0-0.6,0-1.2,0-1.8c0.6,0,1.2,0,1.9,0C49.9,4.9,49.9,5.5,49.9,6.1z"/>
	<linearGradient id="SVGID_9_" gradientUnits="userSpaceOnUse" x1="4.0915" y1="23.3683" x2="14.5402" y2="23.3683">
		<stop  offset="0" style="stop-color:#8E2DE2"/>
		<stop  offset="1" style="stop-color:#4A00E0"/>
	</linearGradient>
	<path class="st8" d="M4.1,22.5c3.5,0,7,0,10.4,0c0,0.6,0,1.2,0,1.8c-3.5,0-6.9,0-10.4,0C4.1,23.7,4.1,23.1,4.1,22.5z"/>
	<linearGradient id="SVGID_10_" gradientUnits="userSpaceOnUse" x1="4.0793" y1="19.5383" x2="9.7558" y2="19.5383">
		<stop  offset="0" style="stop-color:#8E2DE2"/>
		<stop  offset="1" style="stop-color:#4A00E0"/>
	</linearGradient>
	<path class="st9" d="M4.1,20.5c0-0.6,0-1.2,0-1.8c1.9,0,3.8,0,5.7,0c0,0.6,0,1.2,0,1.8C7.8,20.5,6,20.5,4.1,20.5z"/>
	<linearGradient id="SVGID_11_" gradientUnits="userSpaceOnUse" x1="22.2416" y1="31.9703" x2="31.7775" y2="31.9703">
		<stop  offset="0" style="stop-color:#8E2DE2"/>
		<stop  offset="1" style="stop-color:#4A00E0"/>
	</linearGradient>
	<path class="st10" d="M27,34.7c0-0.6,0-1.2,0-1.8c-1.6,0-3.2,0-4.7,0c0-0.7,0-1.3,0-1.9c1.6,0,3.1,0,4.7,0c0-0.6,0-1.1,0-1.8
		c1.6,0.9,3.2,1.8,4.8,2.8C30.2,32.9,28.6,33.8,27,34.7z"/>
</g>
</svg>
