<?xml version="1.0" encoding="utf-8"?>
<!-- Generator: Adobe Illustrator 24.0.2, SVG Export Plug-In . SVG Version: 6.00 Build 0)  -->
<svg version="1.1" id="Layer_1" xmlns="http://www.w3.org/2000/svg" xmlns:xlink="http://www.w3.org/1999/xlink" x="0px" y="0px"
	 viewBox="0 0 43 43" style="enable-background:new 0 0 43 43;" xml:space="preserve">
<style type="text/css">
	.st0{fill:#0E5869;}
</style>
<g>
	<path class="st0" d="M26.1,35.8c0.2,0.8,0.5,1.6,0.7,2.3c0.3,1,0.6,2.1,0.9,3.1c0.1,0.2,0.2,0.3,0.4,0.3c0.4,0,0.8,0,1.3,0
		c0,0.5,0,0.9,0,1.4c-5.2,0-10.5,0-15.7,0c0-0.5,0-0.9,0-1.4c0.4,0,0.9,0,1.3,0c0.2,0,0.3,0,0.4-0.2c0.5-1.8,1.1-3.5,1.6-5.3
		c0,0,0-0.1,0-0.2c-0.2,0-0.3,0-0.5,0c-4.4,0-8.9,0-13.3,0c-0.8,0-1.4-0.2-2-0.6C0.3,34.6,0,33.8,0,32.9c0-4.6,0-9.2,0-13.8
		c0-3.5,0-6.9,0-10.4C0,7.2,1,6,2.4,5.8c0.6-0.1,1.2,0,1.9,0c0-0.2,0-0.3,0-0.4c0-0.8,0-1.6,0-2.4c0-1.8,1.2-3,3-3
		C12.9,0,18.4,0,24,0c3.9,0,7.7,0,11.6,0c1.9,0,3.1,1.2,3.1,3.1c0,0.9,0,1.7,0,2.6c0.4,0,0.8,0,1.2,0c1.9,0,3.1,1.2,3.1,3
		c0,8,0,16,0,24c0,1.8-1.2,3-3,3c-4.5,0-8.9,0-13.4,0C26.4,35.8,26.3,35.8,26.1,35.8z M1.4,30.1c13.4,0,26.8,0,40.1,0
		c0-0.2,0-0.3,0-0.4c0-6.9,0-13.9,0-20.8c0-0.2,0-0.3,0-0.5c-0.1-0.6-0.6-1.1-1.2-1.2c-0.5,0-1.1,0-1.7,0c0,7.2,0,14.3,0,21.5
		c-0.5,0-1,0-1.4,0c0-0.2,0-0.4,0-0.5c0-7.4,0-14.7,0-22.1c0-1.1,0-2.1,0-3.2c0-0.8-0.6-1.3-1.3-1.4c-0.1,0-0.3,0-0.4,0
		c-9.4,0-18.7,0-28.1,0c-0.2,0-0.4,0-0.6,0C6.3,1.6,5.8,2.1,5.7,2.7c0,0.2,0,0.4,0,0.5c0,8.3,0,16.6,0,24.9c0,0.2,0,0.3,0,0.5
		c-0.5,0-1,0-1.4,0c0-7.2,0-14.3,0-21.5c-0.6,0-1.2,0-1.7,0C2,7.3,1.6,7.8,1.5,8.3c0,0.2,0,0.4,0,0.5c0,6.9,0,13.9,0,20.8
		C1.4,29.8,1.4,29.9,1.4,30.1z M1.5,31.6c0,0.6-0.1,1.2,0,1.7c0.1,0.3,0.3,0.7,0.6,0.9c0.3,0.2,0.7,0.3,1.1,0.3
		c12.2,0,24.5,0,36.7,0c0.1,0,0.2,0,0.3,0c0.6-0.1,1.1-0.3,1.3-1c0.1-0.6,0.1-1.2,0.1-1.9C28.2,31.6,14.8,31.6,1.5,31.6z M16.7,41.6
		c3.2,0,6.3,0,9.5,0c0-0.1-0.1-0.2-0.1-0.4c-0.5-1.7-1-3.3-1.5-5c-0.1-0.3-0.2-0.4-0.5-0.4c-1.6,0-3.2,0-4.7,0c-1,0-1,0-1.3,0.9
		C17.7,38.4,17.2,39.9,16.7,41.6z"/>
	<path class="st0" d="M15.6,21.2c0.4,1.7,0.7,3.3,1.1,5c0.2,0.7,0,1-0.7,1.2c-0.8,0.2-1.7,0.4-2.5,0.6c-0.7,0.1-0.9,0-1.1-0.7
		c-0.4-1.6-0.7-3.3-1.1-4.9c0-0.1-0.2-0.3-0.3-0.3c-2.3-0.5-3.8-2.2-3.8-4.4c0-2.2,1.4-4,3.7-4.5c1-0.2,2-0.4,2.9-0.7
		c0.3-0.1,0.6-0.2,0.9-0.4c2.8-1.7,5.5-3.5,8.3-5.2c0.3-0.2,0.3-0.3,0.3-0.6c-0.1-0.5-0.2-1-0.1-1.4c0.1-1.1,1-1.8,2.1-1.9
		c1.1,0,2,0.7,2.3,1.7c0.6,2.6,1.2,5.2,1.8,7.8c0.7,3.3,1.5,6.6,2.2,9.8c0.3,1.2-0.3,2.3-1.4,2.7c-1,0.4-2.2,0-2.7-1
		c-0.2-0.4-0.3-0.8-0.4-1.2c-0.1-0.2-0.1-0.3-0.4-0.3c-3.4-0.4-6.7-0.8-10.1-1.2C16.2,21.1,15.9,21.2,15.6,21.2z M23.7,8.1
		c-0.1,0-0.1,0-0.1,0.1c-2.6,1.7-5.3,3.3-7.9,5c-0.2,0.1-0.2,0.3-0.1,0.5c0.4,1.9,0.9,3.8,1.3,5.7c0.1,0.4,0.2,0.5,0.6,0.5
		c2.2,0.3,4.4,0.5,6.6,0.8c0.9,0.1,1.7,0.2,2.7,0.3C25.6,16.6,24.6,12.4,23.7,8.1z M15.4,19.8c-0.5-2-0.9-4-1.3-6
		c-1.2,0.3-2.3,0.5-3.4,0.8c-1.5,0.5-2.3,2.1-1.9,3.7c0.4,1.5,1.9,2.5,3.5,2.2C13.3,20.3,14.3,20,15.4,19.8z M25.3,4.3
		c-0.5,0-0.9,0.5-0.8,1c1.3,5.9,2.6,11.7,3.9,17.6c0.1,0.6,0.5,0.8,1,0.7c0.5-0.1,0.7-0.5,0.6-1.1c-0.9-4-1.8-7.9-2.6-11.9
		c-0.4-1.9-0.8-3.8-1.3-5.7C26,4.5,25.7,4.3,25.3,4.3z M14.2,21.5c-0.5,0.1-1,0.2-1.6,0.4c0.3,1.5,0.7,3,1,4.5
		c0.5-0.1,1-0.2,1.6-0.4C14.9,24.5,14.6,23.1,14.2,21.5z"/>
	<path class="st0" d="M34.8,13c-1.2,0.3-2.4,0.5-3.7,0.8c-0.1-0.5-0.2-0.9-0.3-1.4c1.2-0.3,2.4-0.5,3.7-0.8
		C34.6,12.1,34.7,12.5,34.8,13z"/>
	<path class="st0" d="M31.9,20c0.2-0.4,0.4-0.8,0.6-1.3c1,0.5,1.9,0.9,2.9,1.4c-0.2,0.4-0.4,0.8-0.6,1.3C33.8,21,32.9,20.5,31.9,20z
		"/>
	<path class="st0" d="M29.9,6.9c-0.3-0.3-0.6-0.6-0.9-0.9c0.7-0.7,1.4-1.4,2.1-2.1c0.3,0.3,0.6,0.6,0.9,0.9
		C31.3,5.5,30.6,6.2,29.9,6.9z"/>
	<path class="st0" d="M11.4,4.3c-0.5,0-0.9,0-1.4,0c0-0.5,0-0.9,0-1.4c0.5,0,0.9,0,1.4,0C11.4,3.4,11.4,3.8,11.4,4.3z"/>
	<path class="st0" d="M7.2,4.3c0-0.5,0-0.9,0-1.4c0.5,0,0.9,0,1.4,0c0,0.5,0,0.9,0,1.4C8.1,4.3,7.7,4.3,7.2,4.3z"/>
	<path class="st0" d="M12.9,2.9c0.5,0,0.9,0,1.4,0c0,0.5,0,0.9,0,1.4c-0.5,0-0.9,0-1.4,0C12.9,3.8,12.9,3.4,12.9,2.9z"/>
</g>
</svg>
