<?xml version="1.0" encoding="utf-8"?>
<!-- Generator: Adobe Illustrator 24.0.2, SVG Export Plug-In . SVG Version: 6.00 Build 0)  -->
<svg version="1.1" id="Layer_1" xmlns="http://www.w3.org/2000/svg" xmlns:xlink="http://www.w3.org/1999/xlink" x="0px" y="0px"
	 viewBox="0 0 43 51" style="enable-background:new 0 0 43 51;" xml:space="preserve">
<style type="text/css">
	.st0{fill:#D9B32F;}
</style>
<g>
	<polygon class="st0" points="13.6,10.2 14,10.6 14.1,10.8 	"/>
	<path class="st0" d="M20.7,8.4V6.7c-2.1,0-4.1,0.5-5.9,1.6l0.8,1.4C17.2,8.8,18.9,8.4,20.7,8.4z"/>
	<path class="st0" d="M38,35.2l-11.6-2.3v-1.5c2.5-1.4,4.2-3.9,4.7-6.8c1.9-0.3,3.4-2,3.4-4v-8.8c0-2.2-1.4-4.1-3.5-4.8l0-0.1
		c-2-4-6-6.5-10.5-6.5c-6.5,0-11.8,5.3-11.8,11.8v8.4c0,2,1.5,3.6,3.4,4c0.5,2.9,2.2,5.4,4.7,6.8v1.5L5,35.2
		c-2.6,0.5-4.5,2.9-4.5,5.5v9.8h42v-9.8C42.5,38.1,40.6,35.8,38,35.2z M27,34.7l-1.2,4.8l-3.1-2l3-3L27,34.7z M19.8,46.8l3.8,1.3
		l0.2,0.9h-4.4L19.8,46.8z M20.1,45.2l0.4-1.9h1.9l0.6,2.9L20.1,45.2z M22.5,41.7h-2L20,39.6l1.5-1l1.5,1L22.5,41.7z M31.2,22.9
		v-4.5c0.9,0.3,1.6,1.2,1.6,2.3S32.1,22.6,31.2,22.9z M10.2,20.7c0-1.1,0.7-1.9,1.6-2.3l0,4.5C10.9,22.6,10.2,21.7,10.2,20.7z
		 M11.8,12.2v0.2c0,0.1,0,0.1,0,0.2l0,4.1c-0.6,0.1-1.1,0.4-1.6,0.7v-5.2c0-5.6,4.6-10.2,10.2-10.2c3.9,0,7.4,2.2,9.1,5.6l0.4,0.7
		l0.4,0.1c1.5,0.4,2.6,1.8,2.6,3.4v5.6c-0.5-0.4-1-0.6-1.6-0.7v-0.9c0-1.2-0.4-2.4-1.1-3.4c-1.1-1.4-2.8-2.3-4.5-2.3
		c-1.2,0-2.4,0.3-3.4,0.8L16,14c-0.2,0.1-0.5,0.2-0.8,0.2c-1,0-1.8-0.8-1.8-1.8v-0.2c0-0.6,0.2-1.1,0.7-1.4L14,10.6l-0.9-1
		C12.3,10.2,11.8,11.2,11.8,12.2z M13.4,23.1v-7.8c0.9,0.6,2.3,0.7,3.3,0.2l6.1-3c0.8-0.4,1.8-0.6,2.7-0.6c1.3,0,2.5,0.6,3.2,1.6
		c0.5,0.7,0.8,1.6,0.8,2.4v7.3c0,4.5-3.6,8.1-8.1,8.1S13.4,27.5,13.4,23.1z M21.5,32.8c1.1,0,2.2-0.2,3.2-0.6v1l-3.2,3.2l-3.2-3.2
		v-1C19.3,32.6,20.4,32.8,21.5,32.8z M17.2,34.5l3,3l-3.1,2l-1.2-4.8L17.2,34.5z M2.1,40.8c0-1.9,1.4-3.6,3.2-4l9-1.8l1.8,7.1
		l2.4-1.6l0.5,1.9l-1.4,6.5h-7.4v-8.1H8.6v8.1H2.1V40.8z M40.9,48.9h-6.5v-8.1h-1.6v8.1h-7.4l-1.4-6.5l0.5-1.9l2.4,1.6l1.8-7.1
		l9,1.8c1.9,0.4,3.2,2,3.2,4V48.9z"/>
	<circle class="st0" cx="26.3" cy="18.2" r="0.8"/>
	<circle class="st0" cx="16.7" cy="18.2" r="0.8"/>
	<path class="st0" d="M25.5,23.9h-1.6c0,1.3-1.1,2.4-2.4,2.4s-2.4-1.1-2.4-2.4h-1.6c0,2.2,1.8,4,4,4S25.5,26.1,25.5,23.9z"/>
	<rect x="7" y="25.5" class="st0" width="1.6" height="1.6"/>
	<rect x="5.3" y="27.1" class="st0" width="1.6" height="1.6"/>
	<rect x="7" y="28.7" class="st0" width="1.6" height="1.6"/>
	<rect x="8.6" y="27.1" class="st0" width="1.6" height="1.6"/>
	<rect x="38.5" y="26.3" class="st0" width="1.6" height="1.6"/>
	<rect x="36.8" y="27.9" class="st0" width="1.6" height="1.6"/>
	<rect x="38.5" y="29.5" class="st0" width="1.6" height="1.6"/>
	<rect x="40.1" y="27.9" class="st0" width="1.6" height="1.6"/>
	<rect x="37.7" y="0.5" class="st0" width="1.6" height="1.6"/>
	<rect x="36" y="2.1" class="st0" width="1.6" height="1.6"/>
	<rect x="37.7" y="3.7" class="st0" width="1.6" height="1.6"/>
	<rect x="39.3" y="2.1" class="st0" width="1.6" height="1.6"/>
	<rect x="2.9" y="3.7" class="st0" width="1.6" height="1.6"/>
	<rect x="1.3" y="5.3" class="st0" width="1.6" height="1.6"/>
	<rect x="2.9" y="6.9" class="st0" width="1.6" height="1.6"/>
	<rect x="4.5" y="5.3" class="st0" width="1.6" height="1.6"/>
</g>
</svg>
