<?xml version="1.0" encoding="utf-8"?>
<!-- Generator: Adobe Illustrator 24.0.2, SVG Export Plug-In . SVG Version: 6.00 Build 0)  -->
<svg version="1.1" id="Layer_1" xmlns="http://www.w3.org/2000/svg" xmlns:xlink="http://www.w3.org/1999/xlink" x="0px" y="0px"
	 viewBox="0 0 24.8 24.6" style="enable-background:new 0 0 24.8 24.6;" xml:space="preserve">
<style type="text/css">
	.st0{fill:#FFFFFF;}
</style>
<g>
	<title>read-mail-enter-email</title>
	<path class="st0" d="M22.5,21.1H10.1c-0.4,0-0.6,0.3-0.6,0.6s0.3,0.6,0.6,0.6h12.4c1,0,1.8-0.8,1.8-1.8V8c0-1-0.8-1.8-1.8-1.8
		c-0.3,0-0.6,0.1-0.9,0.2l-8,4.6c-0.2,0.1-0.4,0.1-0.5,0L5,6.4C4.2,5.9,3,6.2,2.5,7.1C2.4,7.4,2.3,7.7,2.3,8v6.5
		c0,0.4,0.3,0.6,0.6,0.6s0.6-0.3,0.6-0.6V8c0-0.2,0.1-0.4,0.3-0.5c0.2-0.1,0.4-0.1,0.5,0l8,4.6c0.6,0.3,1.3,0.3,1.8,0l8-4.6
		c0.3-0.1,0.6-0.1,0.7,0.2C23,7.9,23,7.9,23,8v12.5C23,20.8,22.8,21.1,22.5,21.1L22.5,21.1z"/>
	<path class="st0" d="M2.3,2.1v0.2c0,0.7,0.4,1.3,0.9,1.6l9.2,5.2c0.3,0.2,0.6,0.2,0.9,0.2c0.3,0,0.6-0.1,0.9-0.2l9.2-5.3
		C24,3.6,24.3,3,24.3,2.3V2.1c0-1-0.8-1.8-1.8-1.8c0,0,0,0,0,0H4.1C3.1,0.3,2.3,1.1,2.3,2.1z M22.9,1.8C23,1.9,23,2,23,2.1v0.2
		c0,0.2-0.1,0.4-0.3,0.5l-9.2,5.3c-0.2,0.1-0.4,0.1-0.5,0L3.9,2.8C3.7,2.7,3.6,2.5,3.6,2.3V2.1c0-0.3,0.2-0.5,0.5-0.5h18.4
		C22.6,1.6,22.8,1.7,22.9,1.8z"/>
	<path class="st0" d="M4.5,24.3c2.3,0,4.2-1.9,4.2-4.2c0-2.3-1.9-4.2-4.2-4.2c-2.3,0-4.2,1.9-4.2,4.2c0,0,0,0,0,0
		C0.3,22.4,2.2,24.3,4.5,24.3z M4.6,17.2c1.6,0,2.9,1.3,2.9,2.9S6.2,23,4.6,23s-2.9-1.3-2.9-2.9S2.9,17.2,4.6,17.2L4.6,17.2z"/>
	<path class="st0" d="M4.6,20.7l-0.5,0.5c-0.3,0.2-0.3,0.6-0.1,0.9c0.2,0.3,0.6,0.3,0.9,0.1c0,0,0,0,0.1-0.1l1.4-1.4
		c0.4-0.4,0.4-1,0-1.4L5,18c-0.3-0.2-0.7-0.2-0.9,0.1c-0.2,0.2-0.2,0.6,0,0.8l0.5,0.5H2.9c-0.4,0-0.6,0.3-0.6,0.6s0.3,0.6,0.6,0.6
		H4.6z"/>
</g>
</svg>
