<?xml version="1.0" encoding="utf-8"?>
<!-- Generator: Adobe Illustrator 24.0.2, SVG Export Plug-In . SVG Version: 6.00 Build 0)  -->
<svg version="1.1" id="Layer_1" xmlns="http://www.w3.org/2000/svg" xmlns:xlink="http://www.w3.org/1999/xlink" x="0px" y="0px"
	 viewBox="0 0 317 240" style="enable-background:new 0 0 317 240;" xml:space="preserve">
<style type="text/css">
	.st0{fill:#FFF0E6;}
	.st1{clip-path:url(#SVGID_2_);}
	.st2{fill:#4D4F4F;}
	.st3{fill:#1E8C9E;}
	.st4{fill:#26CCF9;}
	.st5{fill:#383838;}
	.st6{fill:#3F3F3F;}
	.st7{fill:#FFFFFF;}
	.st8{opacity:0.2;}
	.st9{opacity:0.2;clip-path:url(#SVGID_2_);}
	.st10{fill:#020202;}
	.st11{clip-path:url(#SVGID_4_);fill:#FFC09F;}
	.st12{clip-path:url(#SVGID_4_);fill:#FFBF9E;}
	.st13{clip-path:url(#SVGID_4_);fill:#FFBE9D;}
	.st14{clip-path:url(#SVGID_4_);fill:#FFBE9C;}
	.st15{clip-path:url(#SVGID_4_);fill:#FFBD9B;}
	.st16{clip-path:url(#SVGID_4_);fill:#FEBC9A;}
	.st17{clip-path:url(#SVGID_4_);fill:#FEBB99;}
	.st18{clip-path:url(#SVGID_4_);fill:#FEBA98;}
	.st19{clip-path:url(#SVGID_4_);fill:#FEBA97;}
	.st20{clip-path:url(#SVGID_4_);fill:#FEB996;}
	.st21{clip-path:url(#SVGID_4_);fill:#FEB895;}
	.st22{clip-path:url(#SVGID_4_);fill:#FEB794;}
	.st23{clip-path:url(#SVGID_4_);fill:#FEB693;}
	.st24{clip-path:url(#SVGID_4_);fill:#FEB592;}
	.st25{clip-path:url(#SVGID_4_);fill:#FDB591;}
	.st26{clip-path:url(#SVGID_4_);fill:#FDB490;}
	.st27{clip-path:url(#SVGID_4_);fill:#FDB38F;}
	.st28{clip-path:url(#SVGID_4_);fill:#FDB28E;}
	.st29{clip-path:url(#SVGID_4_);fill:#FDB18D;}
	.st30{clip-path:url(#SVGID_4_);fill:#FDB18C;}
	.st31{clip-path:url(#SVGID_4_);fill:#FDB08B;}
	.st32{clip-path:url(#SVGID_4_);fill:#FDAF8A;}
	.st33{clip-path:url(#SVGID_4_);fill:#FDAE89;}
	.st34{clip-path:url(#SVGID_4_);fill:#FCAD88;}
	.st35{clip-path:url(#SVGID_4_);fill:#FCAD87;}
	.st36{clip-path:url(#SVGID_4_);fill:#FCAC86;}
	.st37{clip-path:url(#SVGID_4_);fill:#FCAB85;}
	.st38{clip-path:url(#SVGID_4_);fill:#FCAA83;}
	.st39{clip-path:url(#SVGID_4_);fill:#FCA982;}
	.st40{clip-path:url(#SVGID_4_);fill:#FCA881;}
	.st41{clip-path:url(#SVGID_4_);fill:#FCA880;}
	.st42{clip-path:url(#SVGID_4_);fill:#FBA77F;}
	.st43{clip-path:url(#SVGID_4_);fill:#FBA67E;}
	.st44{clip-path:url(#SVGID_4_);fill:#FBA57D;}
	.st45{clip-path:url(#SVGID_4_);fill:#FBA47C;}
	.st46{clip-path:url(#SVGID_4_);fill:#FBA47B;}
	.st47{clip-path:url(#SVGID_4_);fill:#FBA37A;}
	.st48{clip-path:url(#SVGID_4_);fill:#FBA279;}
	.st49{clip-path:url(#SVGID_4_);fill:#FBA178;}
	.st50{clip-path:url(#SVGID_4_);fill:#FBA077;}
	.st51{clip-path:url(#SVGID_4_);fill:#FAA076;}
	.st52{clip-path:url(#SVGID_4_);fill:#FA9F75;}
	.st53{clip-path:url(#SVGID_4_);fill:#FA9E74;}
	.st54{clip-path:url(#SVGID_4_);fill:#FA9D73;}
	.st55{clip-path:url(#SVGID_4_);fill:#FA9C72;}
	.st56{clip-path:url(#SVGID_4_);fill:#FA9B71;}
	.st57{clip-path:url(#SVGID_4_);fill:#FA9B70;}
	.st58{clip-path:url(#SVGID_4_);fill:#FA9A6F;}
	.st59{clip-path:url(#SVGID_4_);fill:#FA996E;}
	.st60{clip-path:url(#SVGID_4_);fill:#F9986D;}
	.st61{clip-path:url(#SVGID_4_);fill:#F9976C;}
	.st62{clip-path:url(#SVGID_4_);fill:#F9976B;}
	.st63{clip-path:url(#SVGID_4_);fill:#F9966A;}
	.st64{clip-path:url(#SVGID_4_);fill:#F99569;}
	.st65{fill:#F99569;}
	.st66{fill:#FFA300;}
	.st67{fill:#EAEAEA;}
	.st68{fill:#F9E4DC;}
	.st69{fill:#FFDBC2;}
	.st70{fill:#E50000;}
	.st71{fill:#FFBC00;}
	.st72{fill:#007EFC;}
	.st73{fill:#FF9000;}
</style>
<g>
	<g>
		<circle class="st0" cx="143.5" cy="108.8" r="93.2"/>
	</g>
	<g>
		<defs>
			<rect id="SVGID_1_" x="52.3" y="15.6" width="212.4" height="215"/>
		</defs>
		<clipPath id="SVGID_2_">
			<use xlink:href="#SVGID_1_"  style="overflow:visible;"/>
		</clipPath>
		<g class="st1">
			<g>
				<path class="st2" d="M153.1,167.6h-24.3c-39.3,0-71.2-31.9-71.2-71.2v-1.2c0-39.3,31.9-71.2,71.2-71.2h24.3
					c39.3,0,71.2,31.9,71.2,71.2v1.2C224.3,135.7,192.4,167.6,153.1,167.6z"/>
			</g>
			<g>
				<rect x="73.3" y="37.8" class="st3" width="135.4" height="115.9"/>
			</g>
			<g>
				<rect x="77.7" y="41.4" class="st4" width="127" height="108.7"/>
			</g>
			<g>
				<g>
					<circle class="st5" cx="141" cy="161" r="4"/>
				</g>
				<g>
					<circle class="st6" cx="141" cy="161" r="2.8"/>
				</g>
			</g>
			<g>
				<g>
					<path class="st7" d="M99.9,65.2H96v2.5h4.3v1.9h-6.6V59.2h6.4v1.9H96v2.2h3.8V65.2z"/>
				</g>
				<g>
					<path class="st7" d="M101.8,64.5c0-0.9,0-1.7-0.1-2.4h2l0.1,1h0c0.3-0.5,1.1-1.2,2.3-1.2c1.5,0,2.7,1,2.7,3.3v4.5h-2.4v-4.2
						c0-1-0.3-1.6-1.2-1.6c-0.6,0-1,0.5-1.2,0.9c-0.1,0.1-0.1,0.4-0.1,0.6v4.4h-2.4V64.5z"/>
				</g>
				<g>
					<path class="st7" d="M113.4,59.9v2.2h1.7v1.7h-1.7v2.7c0,0.9,0.2,1.3,0.9,1.3c0.3,0,0.5,0,0.7-0.1l0,1.8
						c-0.3,0.1-0.9,0.2-1.5,0.2c-0.8,0-1.4-0.3-1.8-0.7c-0.4-0.4-0.6-1.2-0.6-2.2v-3.1h-1v-1.7h1v-1.6L113.4,59.9z"/>
				</g>
				<g>
					<path class="st7" d="M118.2,66.6c0.1,1,1,1.4,2.1,1.4c0.8,0,1.4-0.1,2.1-0.3l0.3,1.6c-0.8,0.3-1.7,0.5-2.7,0.5
						c-2.6,0-4-1.5-4-3.8c0-1.9,1.2-4,3.8-4c2.4,0,3.4,1.9,3.4,3.8c0,0.4,0,0.8-0.1,0.9H118.2z M121,65c0-0.6-0.2-1.5-1.3-1.5
						c-1,0-1.4,0.9-1.5,1.5H121z"/>
				</g>
				<g>
					<path class="st7" d="M124.5,64.6c0-1.1,0-1.8-0.1-2.5h2l0.1,1.4h0.1c0.4-1.1,1.3-1.6,2-1.6c0.2,0,0.3,0,0.5,0v2.2
						c-0.2,0-0.4-0.1-0.6-0.1c-0.9,0-1.5,0.5-1.6,1.2c0,0.1,0,0.3,0,0.5v3.8h-2.4V64.6z"/>
				</g>
				<g>
					<path class="st7" d="M135.4,69.6v-4.3l-3.3-6.1h2.7l1.1,2.5c0.3,0.7,0.5,1.3,0.8,2h0c0.2-0.6,0.5-1.3,0.8-2l1-2.5h2.7l-3.4,6.1
						v4.3H135.4z"/>
				</g>
				<g>
					<path class="st7" d="M148,65.8c0,2.8-2,4-4,4c-2.2,0-3.9-1.5-3.9-3.9c0-2.4,1.6-4,4-4C146.4,61.9,148,63.5,148,65.8z
						 M142.5,65.9c0,1.3,0.5,2.3,1.5,2.3c0.9,0,1.5-0.9,1.5-2.3c0-1.1-0.4-2.3-1.5-2.3C142.9,63.6,142.5,64.7,142.5,65.9z"/>
				</g>
				<g>
					<path class="st7" d="M156.5,67.2c0,1,0,1.8,0.1,2.4h-2l-0.1-1.1h0c-0.3,0.5-1,1.2-2.4,1.2c-1.5,0-2.7-1-2.7-3.3v-4.4h2.4v4.1
						c0,1.1,0.4,1.8,1.2,1.8c0.6,0,1-0.4,1.2-0.8c0.1-0.1,0.1-0.3,0.1-0.5v-4.5h2.4V67.2z"/>
				</g>
				<g>
					<path class="st7" d="M158.4,64.6c0-1.1,0-1.8-0.1-2.5h2l0.1,1.4h0.1c0.4-1.1,1.3-1.6,2-1.6c0.2,0,0.3,0,0.5,0v2.2
						c-0.2,0-0.4-0.1-0.6-0.1c-0.9,0-1.5,0.5-1.6,1.2c0,0.1,0,0.3,0,0.5v3.8h-2.4V64.6z"/>
				</g>
				<g>
					<path class="st7" d="M177,64.3c0,3.4-2.1,5.5-5.1,5.5c-3.1,0-4.9-2.3-4.9-5.3c0-3.1,2-5.4,5.1-5.4
						C175.3,59.1,177,61.4,177,64.3z M169.5,64.5c0,2,1,3.5,2.5,3.5c1.6,0,2.5-1.5,2.5-3.5c0-1.9-0.9-3.5-2.5-3.5
						C170.4,60.9,169.5,62.4,169.5,64.5z"/>
				</g>
				<g>
					<path class="st7" d="M180.1,61.2h-2.8v-2h8v2h-2.8v8.4h-2.4V61.2z"/>
				</g>
				<g>
					<path class="st7" d="M186.6,59.4c0.7-0.1,1.7-0.2,3.2-0.2c1.4,0,2.5,0.3,3.2,0.8c0.7,0.5,1.1,1.4,1.1,2.4c0,1-0.3,1.9-1,2.5
						c-0.8,0.8-2,1.1-3.4,1.1c-0.3,0-0.6,0-0.8-0.1v3.7h-2.3V59.4z M188.9,64.1c0.2,0,0.4,0.1,0.8,0.1c1.2,0,2-0.6,2-1.7
						c0-1-0.7-1.5-1.8-1.5c-0.5,0-0.8,0-1,0.1V64.1z"/>
				</g>
			</g>
			<g>
				<g>
					<g>
						<rect x="103.8" y="95.3" class="st7" width="15.2" height="2.7"/>
					</g>
				</g>
				<g>
					<g>
						<rect x="123.4" y="95.3" class="st7" width="15.2" height="2.7"/>
					</g>
				</g>
				<g>
					<g>
						<rect x="143.1" y="95.3" class="st7" width="15.2" height="2.7"/>
					</g>
				</g>
				<g>
					<g>
						<rect x="162.7" y="95.3" class="st7" width="15.2" height="2.7"/>
					</g>
				</g>
				<g>
					<g>
						<g>
							<path class="st7" d="M113,86.6l-1.5,1.9v0l2.3-0.3v1l-2.3-0.3v0l1.5,1.9l-1,0.6l-0.9-2.2h0l-1,2.2l-0.9-0.6l1.5-1.9v0
								l-2.3,0.3v-1l2.3,0.3v0l-1.5-1.9l0.9-0.5l1,2.1h0l0.9-2.2L113,86.6z"/>
						</g>
					</g>
				</g>
				<g>
					<g>
						<g>
							<path class="st7" d="M132.7,86.6l-1.5,1.9v0l2.3-0.3v1l-2.3-0.3v0l1.5,1.9l-1,0.6l-0.9-2.2h0l-1,2.2l-0.9-0.6l1.5-1.9v0
								l-2.3,0.3v-1l2.3,0.3v0l-1.5-1.9l0.9-0.5l1,2.1h0l0.9-2.2L132.7,86.6z"/>
						</g>
					</g>
				</g>
				<g>
					<g>
						<g>
							<path class="st7" d="M153.5,86.6l-1.5,1.9v0l2.3-0.3v1l-2.3-0.3v0l1.5,1.9l-1,0.6l-0.9-2.2h0l-1,2.2l-0.9-0.6l1.5-1.9v0
								l-2.3,0.3v-1l2.3,0.3v0l-1.5-1.9l0.9-0.5l1,2.1h0l0.9-2.2L153.5,86.6z"/>
						</g>
					</g>
				</g>
				<g>
					<g>
						<g>
							<path class="st7" d="M173.2,86.6l-1.5,1.9v0l2.3-0.3v1l-2.3-0.3v0l1.5,1.9l-1,0.6l-0.9-2.2h0l-1,2.2l-0.9-0.6l1.5-1.9v0
								l-2.3,0.3v-1l2.3,0.3v0l-1.5-1.9l0.9-0.5l1,2.1h0l0.9-2.2L173.2,86.6z"/>
						</g>
					</g>
				</g>
			</g>
			<g>
				<g>
					<path class="st7" d="M156.7,127.4l-31.6,0c-5.3,0-9.5-4.3-9.5-9.5v0c0-5.3,4.3-9.5,9.5-9.5h31.6c5.3,0,9.5,4.3,9.5,9.5v0
						C166.2,123.2,162,127.4,156.7,127.4z"/>
				</g>
				<g>
					<g>
						<path class="st4" d="M125,121c-0.2,0.1-0.8,0.2-1.4,0.2c-1.9,0-2.9-1.2-2.9-2.8c0-1.9,1.4-3,3.1-3c0.7,0,1.2,0.1,1.4,0.2
							l-0.3,1c-0.3-0.1-0.6-0.2-1.1-0.2c-1,0-1.8,0.6-1.8,1.9c0,1.1,0.7,1.8,1.8,1.8c0.4,0,0.8-0.1,1.1-0.2L125,121z"/>
					</g>
					<g>
						<path class="st4" d="M130.8,118.3c0,1.8-1.1,3-2.8,3c-1.7,0-2.6-1.3-2.6-2.9c0-1.7,1.1-2.9,2.7-2.9
							C129.8,115.5,130.8,116.8,130.8,118.3z M126.7,118.4c0,1.1,0.5,1.9,1.4,1.9c0.9,0,1.4-0.8,1.4-1.9c0-1-0.5-1.9-1.4-1.9
							C127.2,116.5,126.7,117.3,126.7,118.4z"/>
					</g>
					<g>
						<path class="st4" d="M131.6,121.2v-5.6h1.5l1.2,2.1c0.3,0.6,0.7,1.3,0.9,1.9l0,0c-0.1-0.7-0.1-1.5-0.1-2.3v-1.6h1.2v5.6h-1.3
							l-1.2-2.2c-0.3-0.6-0.7-1.3-1-2l0,0c0,0.7,0.1,1.5,0.1,2.5v1.7H131.6z"/>
					</g>
					<g>
						<path class="st4" d="M138.4,116.6h-1.5v-1.1h4.3v1.1h-1.5v4.6h-1.3V116.6z"/>
					</g>
					<g>
						<path class="st4" d="M143.2,115.6v5.6h-1.3v-5.6H143.2z"/>
					</g>
					<g>
						<path class="st4" d="M144.3,121.2v-5.6h1.5l1.2,2.1c0.3,0.6,0.7,1.3,0.9,1.9l0,0c-0.1-0.7-0.1-1.5-0.1-2.3v-1.6h1.2v5.6h-1.3
							l-1.2-2.2c-0.3-0.6-0.7-1.3-1-2l0,0c0,0.7,0.1,1.5,0.1,2.5v1.7H144.3z"/>
					</g>
					<g>
						<path class="st4" d="M151.3,115.6v3.2c0,1,0.4,1.5,1,1.5c0.7,0,1-0.5,1-1.5v-3.2h1.3v3.2c0,1.7-0.9,2.6-2.3,2.6
							c-1.4,0-2.2-0.8-2.2-2.6v-3.1H151.3z"/>
					</g>
					<g>
						<path class="st4" d="M159.1,118.8H157v1.3h2.3v1h-3.6v-5.6h3.5v1H157v1.2h2.1V118.8z"/>
					</g>
				</g>
			</g>
			<g class="st8">
				<path class="st7" d="M215.2,23.9H66.6c-5,0-9.1,4.1-9.1,9.1v79.6c37.6,2.9,66.1,2.8,85.2,2.1c7.6-0.3,16.1-0.7,18.4-0.8
					c26.3-1.3,48-3.3,63.1-4.8c0-25.4,0-50.8,0-76.1C224.3,28,220.2,23.9,215.2,23.9z"/>
			</g>
		</g>
		<g class="st9">
			<path class="st10" d="M247.6,214.2c-1.8,0.5-3.6,1-5.5,1.5c-1.6-3.8-3.2-7.7-4.8-11.5c-0.2,0-0.3,0.1-0.5,0.1
				c-0.1-0.2-0.2-0.4-0.2-0.6c-0.3-4.5-0.6-8.3-0.8-11.2c-0.4-5.3-0.6-8-1-11.6c-0.3-3.5-0.6-5.8-1.1-10.5c-1.6-14-1.2-7.3-1.5-10.7
				c-0.3-3.3-0.3-5-1.6-6.7c-0.3-0.5-2.2-2.7-5-2.9c-3.7-0.2-6.2,3.3-8.9,2.2c-1.6-0.6-1.2-1.9-3.4-3.8c-0.2-0.2-4-3.2-7.9-2.3
				c-3.6,0.9-3.7,4.3-6.8,4.7c-2.8,0.3-3.8-2.4-6.4-2.3c-1.8,0-4.3,1.4-7.2,7.2c-5.2-10.8-10.3-21.6-15.5-32.5
				c-0.8-2.5-3-4.2-5.3-4.3c-3-0.1-5.9,2.6-5.9,6.2c4.9,15.4,9.9,30.7,14.8,46.1c1.8,5.8,3.6,11.1,3.7,11.5c-1.2-1.3-2.4-2.7-3.5-4
				c-0.1-2.7-0.3-5.5-0.4-8.2c-1.1-3.2-2.1-6.3-3.2-9.5c-1.1,1.5-2.7,3.8-4.4,6.7c-3.9,6.4-5.8,9.6-6.1,12.9
				c-0.4,4.2,1.8,7.5,9.1,16.3c4.5,5.4,10.1,12,16.9,19.4c0.4,0.7,0.8,1.3,1.2,2c-0.3,0.1-0.5,0.1-0.8,0.2c1.9,3.6,3.7,7.2,5.6,10.9
				c-1.1,0.3-2.3,0.6-3.4,0.9c7.1,17.9,14.2,35.8,21.3,53.7c20.5-6.2,41-12.4,61.6-18.6C262.9,248.5,255.3,231.4,247.6,214.2z"/>
		</g>
		<g class="st1">
			<g>
				<g>
					<defs>
						<path id="SVGID_3_" d="M241,197.8c-0.3-4.5-0.6-8.3-0.8-11.2c-0.4-5.3-0.6-8-1-11.6c-0.3-3.5-0.6-5.8-1.1-10.5
							c-1.6-14-1.2-7.3-1.5-10.7c-0.3-3.3-0.3-5-1.6-6.7c-0.3-0.5-2.2-2.7-5-2.9c-3.7-0.2-6.2,3.3-8.9,2.2c-1.6-0.6-1.2-1.9-3.4-3.8
							c-0.2-0.2-4-3.2-7.9-2.3c-3.6,0.9-3.7,4.3-6.8,4.7c-2.8,0.3-3.8-2.4-6.4-2.3c-1.8,0-4.3,1.4-7.2,7.2
							c-5.2-10.8-10.3-21.6-15.5-32.5c-0.8-2.5-3-4.2-5.3-4.3c-3-0.1-5.9,2.6-5.9,6.2c4.9,15.4,9.9,30.7,14.8,46.1
							c1.8,5.8,3.6,11.1,3.7,11.5c-1.2-1.3-2.4-2.7-3.5-4c-0.1-2.7-0.3-5.5-0.4-8.2c-1.1-3.2-2.1-6.3-3.2-9.5
							c-1.1,1.5-2.7,3.8-4.4,6.7c-3.9,6.4-5.8,9.6-6.1,12.9c-0.4,4.2,1.8,7.5,9.1,16.3c4.5,5.4,10.1,12,16.9,19.4
							c2.1,3.6,4.3,7.2,6.4,10.9c5.1,12.4,10.2,24.9,15.3,37.3c16.7-4.9,33.4-9.9,50.1-14.8C254.6,228.6,247.8,213.2,241,197.8z"/>
					</defs>
					<clipPath id="SVGID_4_">
						<use xlink:href="#SVGID_3_"  style="overflow:visible;"/>
					</clipPath>
					<polygon class="st11" points="221.7,113.2 250.3,181.7 176.8,212.4 162.8,178.7 162.8,113.2 					"/>
					
						<rect x="173.8" y="197" transform="matrix(0.9229 -0.385 0.385 0.9229 -59.4899 97.4722)" class="st11" width="79.6" height="0.5"/>
					
						<rect x="174" y="197.5" transform="matrix(0.9229 -0.385 0.385 0.9229 -59.6466 97.5778)" class="st12" width="79.6" height="0.5"/>
					
						<rect x="174.2" y="197.9" transform="matrix(0.9229 -0.385 0.385 0.9229 -59.8034 97.6834)" class="st13" width="79.6" height="0.5"/>
					
						<rect x="174.4" y="198.4" transform="matrix(0.9229 -0.385 0.385 0.9229 -59.9601 97.789)" class="st14" width="79.6" height="0.5"/>
					
						<rect x="174.6" y="198.8" transform="matrix(0.9229 -0.385 0.385 0.9229 -60.1169 97.8946)" class="st15" width="79.6" height="0.5"/>
					
						<rect x="174.8" y="199.3" transform="matrix(0.9229 -0.385 0.385 0.9229 -60.2737 98.0002)" class="st16" width="79.6" height="0.5"/>
					
						<rect x="175" y="199.7" transform="matrix(0.9229 -0.385 0.385 0.9229 -60.4304 98.1058)" class="st17" width="79.6" height="0.5"/>
					
						<rect x="175.1" y="200.2" transform="matrix(0.9229 -0.385 0.385 0.9229 -60.5872 98.2114)" class="st18" width="79.6" height="0.5"/>
					
						<rect x="175.3" y="200.6" transform="matrix(0.9229 -0.385 0.385 0.9229 -60.7439 98.317)" class="st19" width="79.6" height="0.5"/>
					
						<rect x="175.5" y="201" transform="matrix(0.9229 -0.385 0.385 0.9229 -60.9007 98.4226)" class="st20" width="79.6" height="0.5"/>
					
						<rect x="175.7" y="201.5" transform="matrix(0.9229 -0.385 0.385 0.9229 -61.0575 98.5283)" class="st21" width="79.6" height="0.5"/>
					
						<rect x="175.9" y="201.9" transform="matrix(0.9229 -0.385 0.385 0.9229 -61.2142 98.6339)" class="st22" width="79.6" height="0.5"/>
					
						<rect x="176.1" y="202.4" transform="matrix(0.9229 -0.385 0.385 0.9229 -61.371 98.7395)" class="st23" width="79.6" height="0.5"/>
					
						<rect x="176.2" y="202.8" transform="matrix(0.9229 -0.385 0.385 0.9229 -61.5277 98.8451)" class="st24" width="79.6" height="0.5"/>
					
						<rect x="176.4" y="203.3" transform="matrix(0.9229 -0.385 0.385 0.9229 -61.6845 98.9507)" class="st25" width="79.6" height="0.5"/>
					
						<rect x="176.6" y="203.7" transform="matrix(0.9229 -0.385 0.385 0.9229 -61.8413 99.0563)" class="st26" width="79.6" height="0.5"/>
					
						<rect x="176.8" y="204.2" transform="matrix(0.9229 -0.385 0.385 0.9229 -61.998 99.1619)" class="st27" width="79.6" height="0.5"/>
					
						<rect x="177" y="204.6" transform="matrix(0.9229 -0.385 0.385 0.9229 -62.1548 99.2675)" class="st28" width="79.6" height="0.5"/>
					
						<rect x="177.2" y="205" transform="matrix(0.9229 -0.385 0.385 0.9229 -62.3115 99.3731)" class="st29" width="79.6" height="0.5"/>
					
						<rect x="177.4" y="205.5" transform="matrix(0.9229 -0.385 0.385 0.9229 -62.4683 99.4788)" class="st30" width="79.6" height="0.5"/>
					
						<rect x="177.5" y="205.9" transform="matrix(0.9229 -0.385 0.385 0.9229 -62.6251 99.5844)" class="st31" width="79.6" height="0.5"/>
					
						<rect x="177.7" y="206.4" transform="matrix(0.9229 -0.385 0.385 0.9229 -62.7818 99.69)" class="st32" width="79.6" height="0.5"/>
					
						<rect x="177.9" y="206.8" transform="matrix(0.9229 -0.385 0.385 0.9229 -62.9386 99.7956)" class="st33" width="79.6" height="0.5"/>
					
						<rect x="178.1" y="207.3" transform="matrix(0.9229 -0.385 0.385 0.9229 -63.0953 99.9012)" class="st34" width="79.6" height="0.5"/>
					
						<rect x="178.3" y="207.7" transform="matrix(0.9229 -0.385 0.385 0.9229 -63.2521 100.0068)" class="st35" width="79.6" height="0.5"/>
					
						<rect x="178.5" y="208.2" transform="matrix(0.9229 -0.385 0.385 0.9229 -63.4088 100.1124)" class="st36" width="79.6" height="0.5"/>
					
						<rect x="178.7" y="208.6" transform="matrix(0.9229 -0.385 0.385 0.9229 -63.5656 100.218)" class="st37" width="79.6" height="0.5"/>
					
						<rect x="178.8" y="209" transform="matrix(0.9229 -0.385 0.385 0.9229 -63.7224 100.3237)" class="st38" width="79.6" height="0.5"/>
					
						<rect x="179" y="209.5" transform="matrix(0.9229 -0.385 0.385 0.9229 -63.8791 100.4293)" class="st39" width="79.6" height="0.5"/>
					
						<rect x="179.2" y="209.9" transform="matrix(0.9229 -0.385 0.385 0.9229 -64.0359 100.5349)" class="st40" width="79.6" height="0.5"/>
					
						<rect x="179.4" y="210.4" transform="matrix(0.9229 -0.385 0.385 0.9229 -64.1927 100.6405)" class="st41" width="79.6" height="0.5"/>
					
						<rect x="179.6" y="210.8" transform="matrix(0.9229 -0.385 0.385 0.9229 -64.3494 100.7461)" class="st42" width="79.6" height="0.5"/>
					
						<rect x="179.8" y="211.3" transform="matrix(0.9229 -0.385 0.385 0.9229 -64.5062 100.8517)" class="st43" width="79.6" height="0.5"/>
					
						<rect x="180" y="211.7" transform="matrix(0.9229 -0.385 0.385 0.9229 -64.6629 100.9573)" class="st44" width="79.6" height="0.5"/>
					
						<rect x="180.1" y="212.1" transform="matrix(0.9229 -0.385 0.385 0.9229 -64.8197 101.063)" class="st45" width="79.6" height="0.5"/>
					
						<rect x="180.3" y="212.6" transform="matrix(0.9229 -0.385 0.385 0.9229 -64.9764 101.1685)" class="st46" width="79.6" height="0.5"/>
					
						<rect x="180.5" y="213" transform="matrix(0.9229 -0.385 0.385 0.9229 -65.1332 101.2742)" class="st47" width="79.6" height="0.5"/>
					
						<rect x="180.7" y="213.5" transform="matrix(0.9229 -0.385 0.385 0.9229 -65.29 101.3798)" class="st48" width="79.6" height="0.5"/>
					
						<rect x="180.9" y="213.9" transform="matrix(0.9229 -0.385 0.385 0.9229 -65.4467 101.4854)" class="st49" width="79.6" height="0.5"/>
					
						<rect x="181.1" y="214.4" transform="matrix(0.9229 -0.385 0.385 0.9229 -65.6035 101.591)" class="st50" width="79.6" height="0.5"/>
					
						<rect x="181.3" y="214.8" transform="matrix(0.9229 -0.385 0.385 0.9229 -65.7603 101.6966)" class="st51" width="79.6" height="0.5"/>
					
						<rect x="181.4" y="215.3" transform="matrix(0.9229 -0.385 0.385 0.9229 -65.917 101.8022)" class="st52" width="79.6" height="0.5"/>
					
						<rect x="181.6" y="215.7" transform="matrix(0.9229 -0.385 0.385 0.9229 -66.0738 101.9078)" class="st53" width="79.6" height="0.5"/>
					
						<rect x="181.8" y="216.1" transform="matrix(0.9229 -0.385 0.385 0.9229 -66.2306 102.0135)" class="st54" width="79.6" height="0.5"/>
					
						<rect x="182" y="216.6" transform="matrix(0.9229 -0.385 0.385 0.9229 -66.3873 102.119)" class="st55" width="79.6" height="0.5"/>
					
						<rect x="182.2" y="217" transform="matrix(0.9229 -0.385 0.385 0.9229 -66.5441 102.2247)" class="st56" width="79.6" height="0.5"/>
					
						<rect x="182.4" y="217.5" transform="matrix(0.9229 -0.385 0.385 0.9229 -66.7008 102.3303)" class="st57" width="79.6" height="0.5"/>
					
						<rect x="182.5" y="217.9" transform="matrix(0.9229 -0.385 0.385 0.9229 -66.8576 102.4359)" class="st58" width="79.6" height="0.5"/>
					
						<rect x="182.7" y="218.4" transform="matrix(0.9229 -0.385 0.385 0.9229 -67.0144 102.5415)" class="st59" width="79.6" height="0.5"/>
					
						<rect x="182.9" y="218.8" transform="matrix(0.9229 -0.385 0.385 0.9229 -67.1711 102.6471)" class="st60" width="79.6" height="0.5"/>
					
						<rect x="183.1" y="219.3" transform="matrix(0.9229 -0.385 0.385 0.9229 -67.3279 102.7527)" class="st61" width="79.6" height="0.5"/>
					
						<rect x="183.3" y="219.7" transform="matrix(0.9229 -0.385 0.385 0.9229 -67.4846 102.8583)" class="st62" width="79.6" height="0.5"/>
					
						<rect x="183.5" y="220.1" transform="matrix(0.9229 -0.385 0.385 0.9229 -67.6414 102.9639)" class="st63" width="79.6" height="0.5"/>
					
						<rect x="183.7" y="220.6" transform="matrix(0.9229 -0.385 0.385 0.9229 -67.7981 103.0696)" class="st64" width="79.6" height="0.5"/>
					<polygon class="st64" points="260.3,205.7 261.4,208.4 261.4,258.8 196.2,258.8 186.8,236.4 					"/>
				</g>
			</g>
			<g>
				<path class="st65" d="M183.2,177.5c0.5,2.5,1,5.1,1.6,7.6l-3.5-8l-7.1-21.7C177.2,162.7,180.2,170.1,183.2,177.5z"/>
			</g>
			<g>
				<path class="st66" d="M192.3,224.7c7.1,17.9,14.2,35.8,21.3,53.7c20.5-6.2,41-12.4,61.6-18.6c-7.7-17.2-15.4-34.3-23.1-51.5
					C232.1,213.7,212.2,219.2,192.3,224.7z"/>
			</g>
			<g>
				<path class="st67" d="M190.1,212.9c1.9,3.6,3.7,7.2,5.6,10.9c17-4.6,33.9-9.2,50.9-13.9c-1.6-3.9-3.2-7.7-4.8-11.6
					C224.6,203.1,207.3,208,190.1,212.9z"/>
			</g>
		</g>
		<g class="st1">
			<path class="st68" d="M167.5,115.1c-1.8,0.6-3,2.4-2.9,4.4c0.9,1.9,1.7,3.8,2.6,5.7c2.4-0.9,4.9-1.8,7.3-2.6
				c-0.6-1.8-1.3-3.6-1.9-5.4C171.6,115.3,169.5,114.5,167.5,115.1z"/>
		</g>
	</g>
	<g>
		<g>
			<path class="st4" d="M257.2,36.9c1.8,0,3.5-1.6,3.4-3.4c-0.1-1.9-1.5-3.4-3.4-3.4c-1.8,0-3.5,1.6-3.4,3.4
				C253.8,35.3,255.3,36.9,257.2,36.9L257.2,36.9z"/>
		</g>
	</g>
	<g>
		<g>
			<path class="st69" d="M184.2,9.9c2.2,0,2.2-3.4,0-3.4C182,6.4,182,9.9,184.2,9.9L184.2,9.9z"/>
		</g>
	</g>
	<g>
		<g>
			<path class="st70" d="M24.7,57.2c1.5,0,3-0.6,4.1-1.7c1-1,1.8-2.7,1.7-4.1c-0.1-1.5-0.6-3.1-1.7-4.1c-1.1-1-2.5-1.7-4.1-1.7
				c-1.5,0-3,0.6-4.1,1.7c-1,1-1.8,2.7-1.7,4.1c0.1,1.5,0.6,3.1,1.7,4.1C21.7,56.5,23.1,57.2,24.7,57.2L24.7,57.2z"/>
		</g>
	</g>
	<g>
		<g>
			<path class="st71" d="M249.3,95.2c1.3,0,2.5-1.1,2.5-2.5c-0.1-1.3-1.1-2.5-2.5-2.5c-1.3,0-2.5,1.1-2.5,2.5
				C246.9,94.1,247.9,95.2,249.3,95.2L249.3,95.2z"/>
		</g>
	</g>
	<g>
		<g>
			<path class="st71" d="M87.7,12.8c2.4,0,4.8-2.1,4.7-4.7c-0.1-2.5-2-4.7-4.7-4.7c-2.4,0-4.8,2.1-4.7,4.7
				C83.2,10.7,85.1,12.8,87.7,12.8L87.7,12.8z"/>
		</g>
	</g>
	<g>
		<g>
			<path class="st72" d="M30.4,127.8c2.4,0,4.8-2.1,4.7-4.7c-0.1-2.5-2-4.7-4.7-4.7c-2.4,0-4.8,2.1-4.7,4.7
				C25.8,125.6,27.8,127.8,30.4,127.8L30.4,127.8z"/>
		</g>
	</g>
	<rect x="2.6" y="230.6" class="st73" width="311.7" height="5.9"/>
</g>
</svg>
