<?xml version="1.0" encoding="utf-8"?>
<!-- Generator: Adobe Illustrator 24.0.2, SVG Export Plug-In . SVG Version: 6.00 Build 0)  -->
<svg version="1.1" id="Layer_1" xmlns="http://www.w3.org/2000/svg" xmlns:xlink="http://www.w3.org/1999/xlink" x="0px" y="0px"
	 viewBox="0 0 29 29" style="enable-background:new 0 0 29 29;" xml:space="preserve">
<style type="text/css">
	.st0{fill:#FFFFFF;}
</style>
<g>
	<path class="st0" d="M6.9,9.9H3.7c-0.3,0-0.5,0.2-0.5,0.5v2.9c0,0.3,0.2,0.5,0.5,0.5h3.2c0.3,0,0.5-0.2,0.5-0.5v-2.9
		C7.4,10.1,7.1,9.9,6.9,9.9z M6.3,12.8H4.2v-1.9h2.1V12.8z"/>
	<path class="st0" d="M12.1,9.9H9c-0.3,0-0.5,0.2-0.5,0.5v2.9c0,0.3,0.2,0.5,0.5,0.5h3.2c0.3,0,0.5-0.2,0.5-0.5v-2.9
		C12.7,10.1,12.4,9.9,12.1,9.9z M11.6,12.8H9.5v-1.9h2.1V12.8z"/>
	<path class="st0" d="M17.4,9.9h-3.2c-0.3,0-0.5,0.2-0.5,0.5v2.9c0,0.3,0.2,0.5,0.5,0.5h3.2c0.3,0,0.5-0.2,0.5-0.5v-2.9
		C17.9,10.1,17.7,9.9,17.4,9.9z M16.9,12.8h-2.1v-1.9h2.1V12.8z"/>
	<path class="st0" d="M19.5,13.8h3.2c0.3,0,0.5-0.2,0.5-0.5v-2.9c0-0.3-0.2-0.5-0.5-0.5h-3.2c-0.3,0-0.5,0.2-0.5,0.5v2.9
		C19,13.6,19.2,13.8,19.5,13.8z M20,10.9h2.1v1.9H20V10.9z"/>
	<path class="st0" d="M6.9,14.7H3.7c-0.3,0-0.5,0.2-0.5,0.5v2.9c0,0.3,0.2,0.5,0.5,0.5h3.2c0.3,0,0.5-0.2,0.5-0.5v-2.9
		C7.4,15,7.1,14.7,6.9,14.7z M6.3,17.6H4.2v-1.9h2.1V17.6z"/>
	<path class="st0" d="M12.1,14.7H9c-0.3,0-0.5,0.2-0.5,0.5v2.9c0,0.3,0.2,0.5,0.5,0.5h3.2c0.3,0,0.5-0.2,0.5-0.5v-2.9
		C12.7,15,12.4,14.7,12.1,14.7z M11.6,17.6H9.5v-1.9h2.1V17.6z"/>
	<path class="st0" d="M17.4,14.7h-3.2c-0.3,0-0.5,0.2-0.5,0.5v2.9c0,0.3,0.2,0.5,0.5,0.5h3.2c0.3,0,0.5-0.2,0.5-0.5v-2.9
		C17.9,15,17.7,14.7,17.4,14.7z M16.9,17.6h-2.1v-1.9h2.1V17.6z"/>
	<path class="st0" d="M19.5,18.6h3.2c0.3,0,0.5-0.2,0.5-0.5v-2.9c0-0.3-0.2-0.5-0.5-0.5h-3.2c-0.3,0-0.5,0.2-0.5,0.5v2.9
		C19,18.4,19.2,18.6,19.5,18.6z M20,15.7h2.1v1.9H20V15.7z"/>
	<path class="st0" d="M6.9,19.6H3.7c-0.3,0-0.5,0.2-0.5,0.5v2.9c0,0.3,0.2,0.5,0.5,0.5h3.2c0.3,0,0.5-0.2,0.5-0.5V20
		C7.4,19.8,7.1,19.6,6.9,19.6z M6.3,22.4H4.2v-1.9h2.1V22.4z"/>
	<path class="st0" d="M12.1,19.6H9c-0.3,0-0.5,0.2-0.5,0.5v2.9c0,0.3,0.2,0.5,0.5,0.5h3.2c0.3,0,0.5-0.2,0.5-0.5V20
		C12.7,19.8,12.4,19.6,12.1,19.6z M11.6,22.4H9.5v-1.9h2.1V22.4z"/>
	<path class="st0" d="M17.4,19.6h-3.2c-0.3,0-0.5,0.2-0.5,0.5v2.9c0,0.3,0.2,0.5,0.5,0.5h3.2c0.3,0,0.5-0.2,0.5-0.5V20
		C17.9,19.8,17.7,19.6,17.4,19.6z M16.9,22.4h-2.1v-1.9h2.1V22.4z"/>
	<path class="st0" d="M26.4,19.7v-17c0-0.3-0.2-0.5-0.5-0.5h-2.6V1.7c0-0.8-0.7-1.4-1.6-1.4c-0.9,0-1.6,0.6-1.6,1.4v0.5H19V1.7
		c0-0.8-0.7-1.4-1.6-1.4c-0.9,0-1.6,0.6-1.6,1.4v0.5h-1.1V1.7c0-0.8-0.7-1.4-1.6-1.4c-0.9,0-1.6,0.6-1.6,1.4v0.5h-1.1V1.7
		c0-0.8-0.7-1.4-1.6-1.4S7.4,0.9,7.4,1.7v0.5H6.3V1.7c0-0.8-0.7-1.4-1.6-1.4S3.2,0.9,3.2,1.7v0.5H0.5C0.2,2.2,0,2.4,0,2.7v23.1
		c0,0.3,0.2,0.5,0.5,0.5h18.6c1.5,2.3,4.7,3.1,7.2,1.8c2.5-1.3,3.4-4.3,1.9-6.6C27.8,20.8,27.2,20.1,26.4,19.7z M21.1,1.7
		c0-0.3,0.2-0.5,0.5-0.5c0.3,0,0.5,0.2,0.5,0.5v1.9c0,0.3-0.2,0.5-0.5,0.5c-0.3,0-0.5-0.2-0.5-0.5V1.7z M16.9,1.7
		c0-0.3,0.2-0.5,0.5-0.5s0.5,0.2,0.5,0.5v1.9c0,0.3-0.2,0.5-0.5,0.5s-0.5-0.2-0.5-0.5V1.7z M12.7,1.7c0-0.3,0.2-0.5,0.5-0.5
		s0.5,0.2,0.5,0.5v1.9c0,0.3-0.2,0.5-0.5,0.5s-0.5-0.2-0.5-0.5V1.7z M8.4,1.7c0-0.3,0.2-0.5,0.5-0.5s0.5,0.2,0.5,0.5v1.9
		c0,0.3-0.2,0.5-0.5,0.5S8.4,3.9,8.4,3.7V1.7z M4.2,1.7c0-0.3,0.2-0.5,0.5-0.5c0.3,0,0.5,0.2,0.5,0.5v1.9c0,0.3-0.2,0.5-0.5,0.5
		c-0.3,0-0.5-0.2-0.5-0.5V1.7z M1.1,3.2h2.1v0.5c0,0.8,0.7,1.4,1.6,1.4s1.6-0.6,1.6-1.4V3.2h1.1v0.5c0,0.8,0.7,1.4,1.6,1.4
		s1.6-0.6,1.6-1.4V3.2h1.1v0.5c0,0.8,0.7,1.4,1.6,1.4c0.9,0,1.6-0.6,1.6-1.4V3.2h1.1v0.5c0,0.8,0.7,1.4,1.6,1.4
		c0.9,0,1.6-0.6,1.6-1.4V3.2H20v0.5c0,0.8,0.7,1.4,1.6,1.4c0.9,0,1.6-0.6,1.6-1.4V3.2h2.1V7H1.1V3.2z M1.1,25.3V8h24.3v11.3
		c-2.8-0.8-5.7,0.6-6.6,3.2c-0.3,0.9-0.3,1.9,0,2.9H1.1z M23.7,27.7c-2.3,0-4.2-1.7-4.2-3.9s1.9-3.9,4.2-3.9s4.2,1.7,4.2,3.9
		C27.9,26,26.1,27.7,23.7,27.7z"/>
	<path class="st0" d="M25.5,22.1l-2.3,1.7L22,22.6c-0.2-0.2-0.5-0.2-0.7,0s-0.2,0.5,0,0.7l1.6,1.4c0.2,0.2,0.5,0.2,0.7,0l2.6-1.9
		c0.2-0.2,0.3-0.5,0.1-0.7S25.7,21.9,25.5,22.1L25.5,22.1L25.5,22.1z"/>
</g>
</svg>
