<?xml version="1.0" encoding="utf-8"?>
<!-- Generator: Adobe Illustrator 24.0.2, SVG Export Plug-In . SVG Version: 6.00 Build 0)  -->
<svg version="1.1" id="Layer_1" xmlns="http://www.w3.org/2000/svg" xmlns:xlink="http://www.w3.org/1999/xlink" x="0px" y="0px"
	 viewBox="0 0 16 23.5" style="enable-background:new 0 0 16 23.5;" xml:space="preserve">
<style type="text/css">
	.st0{fill:none;}
	.st1{fill:#FFFFFF;}
</style>
<path d="M556.3,610.7c-13.8,0-25,11.2-25,25s11.2,25,25,25c13.8,0,25-11.2,25-25S570.1,610.7,556.3,610.7z M556.3,655.2
	c-10.7,0-19.5-8.7-19.5-19.5s8.7-19.5,19.5-19.5s19.5,8.7,19.5,19.5S567.1,655.2,556.3,655.2z M553.8,646.7h4.3V643h-4.3V646.7z
	 M556.3,625c-2,0-3.7,0.5-5,1.5c-1.3,1-1.9,2.4-1.9,4.3l0,0.1h4.2c0-0.8,0.3-1.5,0.8-1.9c0.5-0.4,1.1-0.6,1.8-0.6
	c0.9,0,1.6,0.3,2,0.8c0.5,0.5,0.7,1.2,0.7,2.1c0,0.8-0.2,1.6-0.6,2.2c-0.4,0.7-1,1.3-1.7,1.8c-1.2,0.9-2,1.7-2.4,2.3
	c-0.4,0.6-0.6,1.6-0.6,3h4.3c0-0.8,0.1-1.5,0.3-1.9c0.2-0.5,0.6-0.9,1.2-1.4c1.1-0.7,2-1.6,2.7-2.7c0.7-1.1,1.1-2.2,1.1-3.5
	c0-1.9-0.6-3.4-1.9-4.5C560.2,625.5,558.5,625,556.3,625z"/>
<path class="st0" d="M12.1,1H3.9C3.5,1,3.2,1.3,3.2,1.7v17c0,0.4,0.3,0.7,0.7,0.7h5.4V18c0-0.7,0.3-1.6,0.9-2l0.8-0.7h-2
	c-1.1,0-1.9-0.9-1.9-1.9V13c0-1.1,0.9-1.9,1.9-1.9h3.9V1.7C12.8,1.3,12.5,1,12.1,1z"/>
<path class="st0" d="M12.1,1H3.9C3.5,1,3.2,1.3,3.2,1.7v17c0,0.4,0.3,0.7,0.7,0.7h5.4V18c0-0.7,0.3-1.6,0.9-2l0.8-0.7h-2
	c-1.1,0-1.9-0.9-1.9-1.9V13c0-1.1,0.9-1.9,1.9-1.9h3.9V1.7C12.8,1.3,12.5,1,12.1,1z"/>
<path class="st0" d="M12.1,1H3.9C3.5,1,3.2,1.3,3.2,1.7v17c0,0.4,0.3,0.7,0.7,0.7h5.4V18c0-0.7,0.3-1.6,0.9-2l0.8-0.7h-2
	c-1.1,0-1.9-0.9-1.9-1.9V13c0-1.1,0.9-1.9,1.9-1.9h3.9V1.7C12.8,1.3,12.5,1,12.1,1z"/>
<path class="st1" d="M5.6,23.4v-1.6c0-0.1,0-0.2-0.1-0.2l-0.9-1.3h5c0.2,0,0.4-0.2,0.4-0.4c0,0,0,0,0,0c0,0,0,0,0,0V18
	c0-0.5,0.3-1.2,0.6-1.4l1.6-1.5c0,0,0,0,0,0c0,0,0.1-0.1,0.1-0.1c0,0,0,0,0,0c0,0,0-0.1,0-0.1c0,0,0,0,0,0c0,0,0,0,0,0
	c0,0,0-0.1,0-0.1c0,0,0,0,0,0c0,0,0-0.1-0.1-0.1c0,0,0,0,0,0c0,0,0,0,0,0c0,0-0.1-0.1-0.1-0.1c0,0,0,0,0,0c0,0-0.1,0-0.1,0
	c0,0,0,0,0,0c0,0,0,0,0,0H8.8c-0.6,0-1.1-0.5-1.1-1.1V13c0-0.6,0.5-1.1,1.1-1.1h4.4h0.2h0c0.8,0.6,1.9,3.1,1,6.9c0,0,0,0,0,0
	c0,0,0,0,0,0c-0.1,0.3-0.2,0.4-0.6,0.6l0.4,0.7c0.4-0.2,0.8-0.5,1-1.1c0,0,0,0,0,0c1.3-4.5-0.4-7.5-1.8-8v-0.1V1.7
	c0-0.8-0.7-1.5-1.5-1.5H3.8C3,0.2,2.3,0.9,2.3,1.7v3.2H1.8c-0.9,0-1.6,0.7-1.6,1.6c0,0.8,0.6,1.5,1.4,1.5C0.8,8.1,0.2,8.8,0.2,9.6
	c0,0.9,0.7,1.6,1.6,1.6c-0.9,0-1.6,0.7-1.6,1.6c0,0.9,0.7,1.6,1.6,1.6c-0.9,0-1.6,0.7-1.6,1.6s0.7,1.6,1.6,1.6h0.5v1.4
	c0,0.8,0.6,1.4,1.4,1.5l1.1,1.7v1.5 M2.3,16.6H1.8c-0.5,0-0.8-0.4-0.8-0.8S1.3,15,1.8,15h0.5V16.6z M2.3,13.5H1.8
	c-0.5,0-0.8-0.4-0.8-0.8c0-0.5,0.4-0.8,0.8-0.8h0.5V13.5z M2.3,10.4H1.8c-0.5,0-0.8-0.4-0.8-0.8c0-0.5,0.4-0.8,0.8-0.8h0.5V10.4z
	 M2.3,7.3H1.8c-0.5,0-0.8-0.4-0.8-0.8c0-0.5,0.4-0.8,0.8-0.8h0.5V7.3z M12.7,11.1H8.8c-1.1,0-1.9,0.9-1.9,1.9v0.3
	c0,1.1,0.9,1.9,1.9,1.9h2l-0.8,0.7c-0.6,0.4-0.9,1.4-0.9,2v1.5H3.8c-0.4,0-0.7-0.3-0.7-0.7v-17C3.1,1.3,3.4,1,3.8,1h8.2
	c0.4,0,0.7,0.3,0.7,0.7V11.1z"/>
<path class="st1" d="M12.1,2.8c0-0.6-0.5-1-1-1H4.8c-0.6,0-1,0.5-1,1v14.7c0,0.6,0.5,1,1,1h3.5l0-0.6H4.8c-0.3,0-0.5-0.2-0.5-0.5
	V2.8c0-0.3,0.2-0.5,0.5-0.5h6.3c0.3,0,0.5,0.2,0.5,0.5v7.2h0.6V2.8z"/>
</svg>
