<?xml version="1.0" encoding="utf-8"?>
<!-- Generator: Adobe Illustrator 24.0.2, SVG Export Plug-In . SVG Version: 6.00 Build 0)  -->
<svg version="1.1" id="Layer_1" xmlns="http://www.w3.org/2000/svg" xmlns:xlink="http://www.w3.org/1999/xlink" x="0px" y="0px"
	 viewBox="0 0 39 39" style="enable-background:new 0 0 39 39;" xml:space="preserve">
<style type="text/css">
	.st0{fill:url(#SVGID_1_);}
	.st1{fill:url(#SVGID_2_);}
	.st2{fill:url(#SVGID_3_);}
	.st3{fill:url(#SVGID_4_);}
	.st4{fill:url(#SVGID_5_);}
	.st5{fill:url(#SVGID_6_);}
	.st6{fill:url(#SVGID_7_);}
	.st7{fill:url(#SVGID_8_);}
	.st8{fill:url(#SVGID_9_);}
	.st9{fill:url(#SVGID_10_);}
	.st10{fill:url(#SVGID_11_);}
	.st11{fill:url(#SVGID_12_);}
	.st12{fill:url(#SVGID_13_);}
</style>
<g>
	<g>
		<linearGradient id="SVGID_1_" gradientUnits="userSpaceOnUse" x1="11.6448" y1="23.7963" x2="39" y2="23.7963">
			<stop  offset="0" style="stop-color:#00B09B"/>
			<stop  offset="1" style="stop-color:#96C93D"/>
		</linearGradient>
		<path class="st0" d="M12.5,28.4c-0.6,0.6-0.9,1.4-0.9,2.3c0.1,0.8,0.5,1.6,1.1,2.2l1,0.8c-0.7,0.9-0.9,2.2-0.4,3.3
			c0.5,1.3,1.7,2.1,3.1,2.1h5.1c0.4,0,0.8-0.3,0.8-0.8s-0.3-0.8-0.8-0.8h-5.1c-0.9,0-1.5-0.6-1.7-1.1c-0.2-0.5-0.2-1.2,0.3-1.8
			c1.6,1,3.4,1.4,5.3,1.4c2.7,0,5.3-1,7.3-3l8.3-8.3c3.7-3.7,4.1-9.6,0.8-13.7l-0.9-1.2c-0.5-0.7-1.3-1.1-2.2-1.1
			c-0.8-0.1-1.7,0.3-2.3,0.9l-4.2,4.2c-1.2,1.2-1.2,3,0,4.2l1.3,1.3c0,0,0,0,0.1,0.1c0,0,0,0,0,0c0.1,0.2,0.2,0.4,0.2,0.6
			c0,0.2-0.1,0.5-0.3,0.6l-5,5c-0.2,0.2-0.4,0.3-0.6,0.3c-0.2,0-0.5-0.1-0.6-0.3l-1.4-1.4c-1.2-1.2-3-1.2-4.2,0L12.5,28.4z
			 M34.7,10.7l0.6,0.8l-6.2,6.2l-0.8-0.8c-0.3-0.3-0.4-0.6-0.4-1c0-0.4,0.2-0.7,0.4-1l4.2-4.2c0.3-0.3,0.7-0.4,1.1-0.4
			C34.1,10.1,34.4,10.3,34.7,10.7z M15.8,33.2l6.1-6.1c0.3,0.2,0.7,0.3,1.1,0.3c0.6,0,1.3-0.3,1.7-0.7l5-5c0.5-0.5,0.7-1.1,0.7-1.7
			c0-0.4-0.1-0.7-0.3-1.1l6.1-6.1c2.1,3.4,1.6,7.9-1.3,10.8l-8.3,8.3C23.7,34.7,19.2,35.2,15.8,33.2z M13.6,29.5l4.2-4.2
			c0.6-0.6,1.5-0.6,2,0l0.8,0.8l-6.2,6.2l-0.8-0.6c-0.3-0.3-0.5-0.6-0.6-1C13.1,30.2,13.3,29.8,13.6,29.5z"/>
		<g>
			<g>
				<linearGradient id="SVGID_2_" gradientUnits="userSpaceOnUse" x1="11.6448" y1="23.7963" x2="39" y2="23.7963">
					<stop  offset="0" style="stop-color:#00B09B"/>
					<stop  offset="1" style="stop-color:#96C93D"/>
				</linearGradient>
				<path class="st1" d="M12.5,28.4c-0.6,0.6-0.9,1.4-0.9,2.3c0.1,0.8,0.5,1.6,1.1,2.2l1,0.8c-0.7,0.9-0.9,2.2-0.4,3.3
					c0.5,1.3,1.7,2.1,3.1,2.1h5.1c0.4,0,0.8-0.3,0.8-0.8s-0.3-0.8-0.8-0.8h-5.1c-0.9,0-1.5-0.6-1.7-1.1c-0.2-0.5-0.2-1.2,0.3-1.8
					c1.6,1,3.4,1.4,5.3,1.4c2.7,0,5.3-1,7.3-3l8.3-8.3c3.7-3.7,4.1-9.6,0.8-13.7l-0.9-1.2c-0.5-0.7-1.3-1.1-2.2-1.1
					c-0.8-0.1-1.7,0.3-2.3,0.9l-4.2,4.2c-1.2,1.2-1.2,3,0,4.2l1.3,1.3c0,0,0,0,0.1,0.1c0,0,0,0,0,0c0.1,0.2,0.2,0.4,0.2,0.6
					c0,0.2-0.1,0.5-0.3,0.6l-5,5c-0.2,0.2-0.4,0.3-0.6,0.3c-0.2,0-0.5-0.1-0.6-0.3l-1.4-1.4c-1.2-1.2-3-1.2-4.2,0L12.5,28.4z
					 M34.7,10.7l0.6,0.8l-6.2,6.2l-0.8-0.8c-0.3-0.3-0.4-0.6-0.4-1c0-0.4,0.2-0.7,0.4-1l4.2-4.2c0.3-0.3,0.7-0.4,1.1-0.4
					C34.1,10.1,34.4,10.3,34.7,10.7z M15.8,33.2l6.1-6.1c0.3,0.2,0.7,0.3,1.1,0.3c0.6,0,1.3-0.3,1.7-0.7l5-5
					c0.5-0.5,0.7-1.1,0.7-1.7c0-0.4-0.1-0.7-0.3-1.1l6.1-6.1c2.1,3.4,1.6,7.9-1.3,10.8l-8.3,8.3C23.7,34.7,19.2,35.2,15.8,33.2z
					 M13.6,29.5l4.2-4.2c0.6-0.6,1.5-0.6,2,0l0.8,0.8l-6.2,6.2l-0.8-0.6c-0.3-0.3-0.5-0.6-0.6-1C13.1,30.2,13.3,29.8,13.6,29.5z"/>
			</g>
		</g>
		<linearGradient id="SVGID_3_" gradientUnits="userSpaceOnUse" x1="27.5907" y1="25.1653" x2="33.7111" y2="25.1653">
			<stop  offset="0" style="stop-color:#00B09B"/>
			<stop  offset="1" style="stop-color:#96C93D"/>
		</linearGradient>
		<path class="st2" d="M32.4,22.3c0.3-0.3,0.8-0.3,1.1,0c0.3,0.3,0.3,0.8,0,1.1L28.9,28c-0.1,0.1-0.3,0.2-0.5,0.2
			c-0.2,0-0.4-0.1-0.5-0.2c-0.3-0.3-0.3-0.8,0-1.1L32.4,22.3z"/>
		<linearGradient id="SVGID_4_" gradientUnits="userSpaceOnUse" x1="25.2002" y1="29.8539" x2="26.7237" y2="29.8539">
			<stop  offset="0" style="stop-color:#00B09B"/>
			<stop  offset="1" style="stop-color:#96C93D"/>
		</linearGradient>
		<path class="st3" d="M26,29.1c0.2,0,0.4,0.1,0.5,0.2c0.1,0.1,0.2,0.3,0.2,0.5s-0.1,0.4-0.2,0.5c-0.1,0.1-0.3,0.2-0.5,0.2
			c-0.2,0-0.4-0.1-0.5-0.2c-0.1-0.1-0.2-0.3-0.2-0.5s0.1-0.4,0.2-0.5C25.6,29.2,25.8,29.1,26,29.1z"/>
		<linearGradient id="SVGID_5_" gradientUnits="userSpaceOnUse" x1="0" y1="10.0964" x2="25.9002" y2="10.0964">
			<stop  offset="0" style="stop-color:#00B09B"/>
			<stop  offset="1" style="stop-color:#96C93D"/>
		</linearGradient>
		<path class="st4" d="M0,5.6v6c0,3.1,2.5,5.6,5.6,5.6h4.5l2.7,2.7c0.1,0.1,0.3,0.2,0.5,0.2c0.1,0,0.2,0,0.3-0.1
			c0.3-0.1,0.5-0.4,0.5-0.7v-2.1h6.1c3.1,0,5.6-2.5,5.6-5.6v-6c0-3.1-2.5-5.6-5.6-5.6H5.6C2.5,0,0,2.5,0,5.6z M1.5,11.7v-6
			c0-2.3,1.8-4.1,4.1-4.1h14.6c2.3,0,4.1,1.8,4.1,4.1v6c0,2.3-1.8,4.1-4.1,4.1h-6.9c-0.4,0-0.8,0.3-0.8,0.8v1.1L11,16
			c-0.1-0.1-0.3-0.2-0.5-0.2H5.6C3.4,15.8,1.5,13.9,1.5,11.7L1.5,11.7z"/>
		<g>
			<linearGradient id="SVGID_6_" gradientUnits="userSpaceOnUse" x1="0" y1="10.0964" x2="25.9002" y2="10.0964">
				<stop  offset="0" style="stop-color:#00B09B"/>
				<stop  offset="1" style="stop-color:#96C93D"/>
			</linearGradient>
			<path class="st5" d="M0,5.6v6c0,3.1,2.5,5.6,5.6,5.6h4.5l2.7,2.7c0.1,0.1,0.3,0.2,0.5,0.2c0.1,0,0.2,0,0.3-0.1
				c0.3-0.1,0.5-0.4,0.5-0.7v-2.1h6.1c3.1,0,5.6-2.5,5.6-5.6v-6c0-3.1-2.5-5.6-5.6-5.6H5.6C2.5,0,0,2.5,0,5.6z M1.5,11.7v-6
				c0-2.3,1.8-4.1,4.1-4.1h14.6c2.3,0,4.1,1.8,4.1,4.1v6c0,2.3-1.8,4.1-4.1,4.1h-6.9c-0.4,0-0.8,0.3-0.8,0.8v1.1L11,16
				c-0.1-0.1-0.3-0.2-0.5-0.2H5.6C3.4,15.8,1.5,13.9,1.5,11.7L1.5,11.7z"/>
		</g>
		<linearGradient id="SVGID_7_" gradientUnits="userSpaceOnUse" x1="23.5896" y1="37.2936" x2="27.0022" y2="37.2936">
			<stop  offset="0" style="stop-color:#00B09B"/>
			<stop  offset="1" style="stop-color:#96C93D"/>
		</linearGradient>
		<path class="st6" d="M25.7,35.8c0.3-0.3,0.8-0.3,1.1,0c0.3,0.3,0.3,0.8,0,1.1l-1.9,1.9c-0.1,0.1-0.3,0.2-0.5,0.2
			c-0.2,0-0.4-0.1-0.5-0.2c-0.3-0.3-0.3-0.8,0-1.1L25.7,35.8z"/>
		<linearGradient id="SVGID_8_" gradientUnits="userSpaceOnUse" x1="27.445" y1="37.2936" x2="30.8577" y2="37.2936">
			<stop  offset="0" style="stop-color:#00B09B"/>
			<stop  offset="1" style="stop-color:#96C93D"/>
		</linearGradient>
		<path class="st7" d="M29.6,35.8c0.3-0.3,0.8-0.3,1.1,0c0.3,0.3,0.3,0.8,0,1.1l-1.9,1.9c-0.1,0.1-0.3,0.2-0.5,0.2s-0.4-0.1-0.5-0.2
			c-0.3-0.3-0.3-0.8,0-1.1L29.6,35.8z"/>
		<linearGradient id="SVGID_9_" gradientUnits="userSpaceOnUse" x1="31.3006" y1="37.2936" x2="34.7132" y2="37.2936">
			<stop  offset="0" style="stop-color:#00B09B"/>
			<stop  offset="1" style="stop-color:#96C93D"/>
		</linearGradient>
		<path class="st8" d="M33.4,35.8c0.3-0.3,0.8-0.3,1.1,0c0.3,0.3,0.3,0.8,0,1.1l-1.9,1.9c-0.1,0.1-0.3,0.2-0.5,0.2
			c-0.2,0-0.4-0.1-0.5-0.2c-0.3-0.3-0.3-0.8,0-1.1L33.4,35.8z"/>
		<linearGradient id="SVGID_10_" gradientUnits="userSpaceOnUse" x1="8.5631" y1="5.3307" x2="10.3019" y2="5.3307">
			<stop  offset="0" style="stop-color:#00B09B"/>
			<stop  offset="1" style="stop-color:#96C93D"/>
		</linearGradient>
		<circle class="st9" cx="9.4" cy="5.3" r="0.9"/>
	</g>
	<linearGradient id="SVGID_11_" gradientUnits="userSpaceOnUse" x1="11.05" y1="5.2011" x2="22.1" y2="5.2011">
		<stop  offset="0" style="stop-color:#00B09B"/>
		<stop  offset="1" style="stop-color:#96C93D"/>
	</linearGradient>
	<path class="st10" d="M21.5,5.9h-9.8c-0.4,0-0.6-0.3-0.6-0.6v0c0-0.4,0.3-0.6,0.6-0.6h9.8c0.4,0,0.6,0.3,0.6,0.6v0
		C22.1,5.6,21.8,5.9,21.5,5.9z"/>
	<linearGradient id="SVGID_12_" gradientUnits="userSpaceOnUse" x1="14.3" y1="8.1259" x2="22.1" y2="8.1259">
		<stop  offset="0" style="stop-color:#00B09B"/>
		<stop  offset="1" style="stop-color:#96C93D"/>
	</linearGradient>
	<path class="st11" d="M21.5,8.8h-6.5c-0.4,0-0.6-0.3-0.6-0.6l0,0c0-0.4,0.3-0.6,0.6-0.6h6.5c0.4,0,0.6,0.3,0.6,0.6l0,0
		C22.1,8.5,21.8,8.8,21.5,8.8z"/>
	<linearGradient id="SVGID_13_" gradientUnits="userSpaceOnUse" x1="17.55" y1="11.0506" x2="22.1" y2="11.0506">
		<stop  offset="0" style="stop-color:#00B09B"/>
		<stop  offset="1" style="stop-color:#96C93D"/>
	</linearGradient>
	<path class="st12" d="M21.5,11.7h-3.3c-0.4,0-0.7-0.3-0.7-0.6l0,0c0-0.4,0.3-0.6,0.7-0.6h3.3c0.4,0,0.6,0.3,0.6,0.6l0,0
		C22.1,11.4,21.8,11.7,21.5,11.7z"/>
</g>
</svg>
