<?xml version="1.0" encoding="utf-8"?>
<!-- Generator: Adobe Illustrator 24.0.2, SVG Export Plug-In . SVG Version: 6.00 Build 0)  -->
<svg version="1.1" id="Layer_1" xmlns="http://www.w3.org/2000/svg" xmlns:xlink="http://www.w3.org/1999/xlink" x="0px" y="0px"
	 viewBox="0 0 36 36" style="enable-background:new 0 0 36 36;" xml:space="preserve">
<style type="text/css">
	.st0{fill:#FFFFFF;}
</style>
<g>
	<path class="st0" d="M18.2,0c0.6,0.1,1.2,0.2,1.7,0.3c1.1,0.3,2.2,0.7,3.2,1s2,0.6,3.1,0.5c0.3,0,0.5,0.2,0.6,0.5
		c0.1,0.4,0.3,0.8,0.3,1.2c0.2,1.4,0,2.7-0.7,3.9c0,0.1-0.1,0.2-0.1,0.3c0.1,2.3-0.6,4.4-1.6,6.4c-0.4,0.8-1,1.6-1.6,2.4
		C23,16.7,22.9,16.8,23,17c0.5,1.3,1.4,2,2.8,2.2c2.3,0.3,4.4,1,6.4,2.3c1.3,0.8,2.4,1.8,3,3.3c0.2,0.6,0.4,1.3,0.4,2
		c0.2,2.1,0.2,4.2,0,6.4c-0.1,1.4-1.4,2.7-2.9,2.7c-0.1,0-0.2,0-0.4,0c-9.7,0-19.5,0-29.2,0c-1.9,0-3.1-1.2-3.3-3.1
		c-0.2-2.2-0.1-4.4,0.2-6.6c0.2-1.7,1.2-3,2.5-4.1c1.6-1.2,3.4-1.9,5.3-2.4c0.8-0.2,1.6-0.3,2.4-0.5c1.1-0.2,1.8-0.9,2.3-1.9
		c0-0.1,0-0.2-0.1-0.3c-1.3-1.6-2.1-3.4-2.7-5.4C9.2,10,9,8.3,9,6.6C9.3,5.9,9.5,5,10,4.1c0.3-0.6,0.8-1,1.4-1.3
		c0.1,0,0.2-0.1,0.3-0.2c1.4-1.5,3.1-2.4,5.1-2.6h0.1C17.4,0,17.8,0,18.2,0z M16.3,34.9C16.3,34.8,16.3,34.8,16.3,34.9
		c0-0.2,0-0.2,0-0.3c-0.1-1.9-0.7-3.7-1.9-5.2c-2-2.7-4-5.3-6.1-8c-0.4-0.5-0.2-0.4-0.8-0.3c-1.6,0.5-3.2,1.2-4.5,2.3
		c-0.9,0.8-1.6,1.8-1.8,3c-0.3,2.2-0.4,4.4-0.1,6.5c0.1,1.3,0.9,2,2.2,2c4.2,0,8.4,0,12.5,0C16.1,34.9,16.2,34.9,16.3,34.9z
		 M20.2,34.8c0.1,0,0.1,0,0.1,0c4.2,0,8.4,0,12.6,0c1,0,1.7-0.8,1.8-1.7c0.2-2,0.1-4.1,0-6.1c-0.1-1.3-0.6-2.5-1.5-3.4
		c-1.3-1.3-3-2-4.7-2.6c-0.1,0-0.2,0.1-0.2,0.1c-2,2.7-4.1,5.4-6.1,8C21.5,30,21,31,20.7,32C20.3,33,20.2,33.9,20.2,34.8z M14.1,9.6
		c0.1-0.5,0.1-0.9,0.2-1.3c0-0.3,0.1-0.5,0.4-0.6c0.3-0.1,0.5,0,0.7,0.2c0.7,0.6,1.4,1,2.2,1.2c1.9,0.5,3.7,0.4,5.5-0.2
		c1.5-0.5,2.4-1.5,2.8-3c0.2-0.8,0.2-1.7,0.1-2.6C26,3.1,25.9,3,25.6,3c-0.1,0-0.2,0-0.3,0c-1.5-0.2-2.9-0.6-4.3-1.1
		c-0.8-0.3-1.7-0.6-2.5-0.7c-2-0.2-3.8,0.3-5.3,1.7c-0.5,0.4-0.8,1-1.4,1.1l0,0c-0.6,0.4-0.9,1.1-1,1.7c-0.2,1.1-0.2,2.2,0,3.3
		c0,0.4,0.1,0.8,0.2,1.1c0.1,0,0.1,0,0.1,0C11.6,9.7,12,9.3,12.5,9c0.3-0.3,0.5-0.3,0.9-0.1C13.4,9.2,13.7,9.4,14.1,9.6z M15.3,9.3
		c0,0.3-0.1,0.6-0.1,0.9c-0.1,0.8-0.7,1.1-1.3,0.6c-0.3-0.2-0.7-0.4-1-0.7c-0.1-0.1-0.2-0.1-0.3,0c-0.4,0.4-0.9,0.7-1.3,1.1
		c-0.1,0.1-0.1,0.2-0.1,0.3c0.5,1.9,1.4,3.7,2.8,5.2c1.3,1.4,3,2,5,1.7c1.2-0.2,2.1-0.9,2.9-1.8c1.6-1.8,2.7-3.8,3.3-6.1
		c0.1-0.5,0.2-0.9,0.3-1.5c-1.5,1.2-3.3,1.5-5,1.6C18.5,10.7,16.9,10.3,15.3,9.3z M27.2,20.7c-0.4-0.1-0.9-0.1-1.3-0.3
		c-0.3-0.1-0.5,0-0.7,0.3c-1.1,1.6-2.2,3.2-3.4,4.8c-0.5,0.8-1.5,0.8-2.1,0.1c0-0.1-0.1-0.1-0.1-0.2h-0.1c0,0.1,0,0.2,0,0.3
		c0.1,1,0.3,1.9,0.5,2.9c0.1,0.4,0.1,0.9,0.2,1.3C22.5,26.8,24.9,23.8,27.2,20.7z M22.6,18.8c-0.1,0.1-0.2,0.1-0.2,0.2
		c-1,0.8-2,1.6-2.9,2.5c-0.4,0.3-0.5,0.8-0.2,1.2c0.4,0.7,0.8,1.4,1.3,2.1c0.2,0.4,0.4,0.4,0.6,0c1-1.4,2-2.8,3-4.3
		c0.1-0.1,0.1-0.2,0.2-0.3C23.7,19.7,23.2,19.2,22.6,18.8z M15.4,25C15.4,25,15.5,25,15.4,25c0.6-0.9,1.2-1.7,1.7-2.5
		c0.2-0.4,0.1-0.8-0.2-1.1c-0.5-0.4-1.1-0.9-1.6-1.3c-0.5-0.5-1.1-0.9-1.6-1.4c-0.6,0.5-1.1,1-1.7,1.4C13.1,21.8,14.2,23.4,15.4,25z
		 M19,34.9c0.1-0.9,0.3-1.7,0.4-2.5c0-0.2,0.1-0.4,0-0.6c-0.2-1.5-0.5-2.9-0.7-4.4c-0.1-0.6-0.2-1.2-0.3-1.8
		c-0.6-0.1-0.6-0.1-0.6,0.4c-0.2,1.5-0.4,3.1-0.6,4.6c-0.1,0.7-0.2,1.4,0.1,2c0.1,0.2,0.1,0.3,0.1,0.5c0.1,0.5,0.1,1.1,0.2,1.6
		C18,34.9,18.5,34.9,19,34.9z M16.7,25.7C16.7,25.7,16.7,25.6,16.7,25.7c-0.2,0-0.3,0-0.4,0.1c-0.7,0.6-1.6,0.5-2.1-0.2
		c-1.2-1.7-2.3-3.4-3.5-5c0-0.1-0.1-0.1-0.2-0.1c-0.4,0.1-0.8,0.1-1.3,0.2c2.3,3.1,4.6,6.1,6.9,9.1C16.4,28.4,16.5,27,16.7,25.7z
		 M20.4,19.2c-0.6,0.1-1.3,0.4-2,0.4c-0.7,0.1-1.4,0-2.1-0.1l0,0c0.5,0.5,1,0.9,1.6,1.4c0.1,0.1,0.3,0,0.5,0
		c0.2-0.1,0.3-0.3,0.4-0.4C19.4,20,19.9,19.6,20.4,19.2z M18.1,22.9c-0.3,0.5-0.6,1.1-1,1.6c0.7,0,1.3,0,1.9,0
		C18.8,24,18.5,23.5,18.1,22.9z"/>
	<path class="st0" d="M28.1,28c0.5,0,1,0,1.5,0c0.7,0,1.1,0.4,1.1,1.1c0,0.8,0,1.5,0,2.3c0,0.6-0.3,1-0.9,1.2
		c-0.5,0.2-0.9,0.3-1.4,0.5c-0.2,0.1-0.5,0.1-0.7,0c-0.5-0.1-1-0.3-1.4-0.5c-0.5-0.2-0.8-0.6-0.8-1.1c0-0.8,0-1.6,0-2.5
		c0-0.6,0.4-1,1-1C27.1,28,27.6,28,28.1,28L28.1,28z M26.7,29.2c0,0.1,0,0.2,0,0.2c0,0.7,0,1.3,0,2c0,0.1,0.1,0.2,0.2,0.3
		c1.2,0.5,1.2,0.5,2.5,0c0,0,0,0,0.1,0c0.2,0,0.2-0.1,0.2-0.3c0-0.4,0-0.8,0-1.3c0-0.3,0-0.6,0-0.9C28.6,29.2,27.6,29.2,26.7,29.2z"
		/>
	<path class="st0" d="M17.6,1.9c0.5,0.1,1,0.2,1.5,0.3c0.4,0.1,0.5,0.4,0.4,0.7s-0.4,0.5-0.7,0.4C17.4,2.9,16.1,3.1,15,4
		c-0.1,0.1-0.2,0.2-0.4,0.3c-0.3,0.2-0.6,0.2-0.8,0s-0.2-0.5,0-0.8C14.7,2.6,16.2,2,17.6,1.9z"/>
</g>
<image style="overflow:visible;enable-background:new    ;" width="37" height="37" xlink:href="123FB6C4.jpg"  transform="matrix(0.973 0 0 0.973 362.2194 -72.4123)">
</image>
</svg>
