<?xml version="1.0" encoding="utf-8"?>
<!-- Generator: Adobe Illustrator 24.0.2, SVG Export Plug-In . SVG Version: 6.00 Build 0)  -->
<svg version="1.1" id="Layer_1" xmlns="http://www.w3.org/2000/svg" xmlns:xlink="http://www.w3.org/1999/xlink" x="0px" y="0px"
	 viewBox="0 0 20.5 15.5" style="enable-background:new 0 0 20.5 15.5;" xml:space="preserve">
<style type="text/css">
	.st0{fill:#1A1D29;}
</style>
<g>
	<path class="st0" d="M8.9,9.3V8.7c0.5,0,0.9-0.2,1.1-0.4s0.4-0.5,0.4-0.9c0-0.3,0-0.5-0.1-0.6C10.2,6.5,10,6.4,9.9,6.3
		C9.8,6.2,9.5,6.1,9.2,5.9C8.8,5.7,8.5,5.6,8.4,5.5c0-0.1-0.1-0.2-0.1-0.4c0-0.1,0-0.2,0.1-0.2c0-0.1,0.1-0.1,0.2-0.1
		c0.1,0,0.2,0,0.2,0.1s0,0.2,0,0.4v0.2h1.4c0-0.1,0-0.2,0-0.2c0-0.3-0.1-0.6-0.3-0.8c-0.2-0.2-0.5-0.3-1-0.4V3.6H8.3v0.6
		c-0.5,0-0.8,0.2-1.1,0.4C7,4.7,6.9,4.9,6.9,5.3c0,0.2,0.1,0.4,0.2,0.6s0.2,0.3,0.4,0.4c0.2,0.1,0.4,0.3,0.9,0.5
		C8.7,6.9,8.8,7,8.8,7.2c0,0.1,0.1,0.3,0.1,0.5c0,0.1,0,0.2-0.1,0.2C8.7,8,8.7,8,8.6,8C8.4,8,8.4,8,8.4,7.9s0-0.3,0-0.6V7.1H6.9v0.2
		c0,0.5,0.1,0.9,0.4,1.1s0.6,0.3,1,0.3v0.6H8.9L8.9,9.3z"/>
	<path class="st0" d="M11.4,10.5H1.7C1.3,10.5,1,10.3,1,9.9V3c0-0.3,0.3-0.6,0.6-0.6h13.9c0.4,0,0.6,0.3,0.6,0.6v4.8
		c0.2,0,0.5,0,0.8,0V3c0-0.6-0.5-1.2-1.1-1.3V1c0-0.4-0.4-0.8-0.8-0.8H2C1.7,0.3,1.4,0.6,1.4,1v0.6C0.7,1.8,0.3,2.3,0.3,3v7
		c0,0.8,0.6,1.4,1.4,1.4h8.6c0.2-0.2,0.6-0.5,1.1-0.6C11.4,10.8,11.4,10.5,11.4,10.5z"/>
	<path class="st0" d="M7.8,3.1H3.9c0,0-0.4,1.3-2.2,1.2v2.1v2.1c1.8-0.1,2.2,1.2,2.2,1.2h3.9c-1.2-0.4-2-1.8-2-3.3S6.6,3.6,7.8,3.1z
		"/>
	<path class="st0" d="M11.4,9.6c0-1.5,2.4-1.8,4.2-1.9V6.4V4.3c-1.8,0.1-2.2-1.2-2.2-1.2H9.5c1.2,0.4,2,1.8,2,3.3s-0.8,2.9-2,3.3
		L11.4,9.6L11.4,9.6z"/>
	<path class="st0" d="M16.1,8.3c-0.4,0-4.1,0-4.1,1.3c0,0.4,0,1,0,1.5c-0.8,0.2-1.5,0.5-1.5,1s0,1.4,0,1.8c0,1.3,3.7,1.3,4.1,1.3
		s4.1,0,4.1-1.3c0-0.4,0-1,0-1.5c0.8-0.2,1.5-0.5,1.5-1s0-1.4,0-1.8C20.3,8.3,16.5,8.3,16.1,8.3z M14.7,12.7c-1.8,0-3-0.3-3.3-0.5
		c0.1-0.1,0.4-0.2,0.8-0.3c0.5,0.6,2,0.8,3,0.8C15,12.7,14.8,12.7,14.7,12.7z M16.1,10.1c-1.8,0-3-0.3-3.3-0.5
		C13.1,9.4,14.3,9,16.1,9s3,0.3,3.3,0.5C19.1,9.8,17.9,10.1,16.1,10.1z"/>
</g>
</svg>
