<?xml version="1.0" encoding="UTF-8"?>
<svg xmlns="http://www.w3.org/2000/svg" xmlns:xlink="http://www.w3.org/1999/xlink" width="17pt" height="16pt" viewBox="0 0 17 16" version="1.1">
<g id="surface1">
<path style=" stroke:none;fill-rule:nonzero;fill:rgb(10.196078%,11.372549%,16.078431%);fill-opacity:1;" d="M 7.378906 9.585938 L 7.378906 8.972656 C 7.796875 8.972656 8.125 8.769531 8.292969 8.5625 C 8.457031 8.359375 8.625 8.050781 8.625 7.640625 C 8.625 7.335938 8.625 7.128906 8.542969 7.027344 C 8.457031 6.71875 8.292969 6.617188 8.210938 6.515625 C 8.125 6.414062 7.878906 6.308594 7.628906 6.105469 C 7.296875 5.898438 7.046875 5.796875 6.964844 5.695312 C 6.964844 5.59375 6.882812 5.492188 6.882812 5.285156 C 6.882812 5.183594 6.882812 5.082031 6.964844 5.082031 C 6.964844 4.976562 7.046875 4.976562 7.132812 4.976562 C 7.214844 4.976562 7.296875 4.976562 7.296875 5.082031 C 7.296875 5.183594 7.296875 5.285156 7.296875 5.492188 L 7.296875 5.695312 L 8.457031 5.695312 C 8.457031 5.59375 8.457031 5.492188 8.457031 5.492188 C 8.457031 5.183594 8.375 4.875 8.210938 4.671875 C 8.042969 4.464844 7.796875 4.363281 7.378906 4.261719 L 7.378906 3.75 L 6.882812 3.75 L 6.882812 4.363281 C 6.46875 4.363281 6.21875 4.566406 5.972656 4.773438 C 5.804688 4.875 5.722656 5.082031 5.722656 5.492188 C 5.722656 5.695312 5.804688 5.898438 5.886719 6.105469 C 5.972656 6.308594 6.054688 6.414062 6.21875 6.515625 C 6.386719 6.617188 6.550781 6.820312 6.964844 7.027344 C 7.214844 7.128906 7.296875 7.230469 7.296875 7.4375 C 7.296875 7.539062 7.378906 7.742188 7.378906 7.949219 C 7.378906 8.050781 7.378906 8.152344 7.296875 8.152344 C 7.214844 8.257812 7.214844 8.257812 7.132812 8.257812 C 6.964844 8.257812 6.964844 8.257812 6.964844 8.152344 C 6.964844 8.050781 6.964844 7.847656 6.964844 7.539062 L 6.964844 7.335938 L 5.722656 7.335938 L 5.722656 7.539062 C 5.722656 8.050781 5.804688 8.460938 6.054688 8.664062 C 6.300781 8.871094 6.550781 8.972656 6.882812 8.972656 L 6.882812 9.585938 Z M 7.378906 9.585938 "/>
<path style=" stroke:none;fill-rule:nonzero;fill:rgb(10.196078%,11.372549%,16.078431%);fill-opacity:1;" d="M 9.453125 10.816406 L 1.410156 10.816406 C 1.078125 10.816406 0.828125 10.613281 0.828125 10.203125 L 0.828125 3.132812 C 0.828125 2.828125 1.078125 2.519531 1.328125 2.519531 L 12.855469 2.519531 C 13.183594 2.519531 13.351562 2.828125 13.351562 3.132812 L 13.351562 8.050781 C 13.515625 8.050781 13.765625 8.050781 14.015625 8.050781 L 14.015625 3.132812 C 14.015625 2.519531 13.601562 1.90625 13.101562 1.800781 L 13.101562 1.085938 C 13.101562 0.675781 12.769531 0.265625 12.4375 0.265625 L 1.660156 0.265625 C 1.410156 0.367188 1.160156 0.675781 1.160156 1.085938 L 1.160156 1.699219 C 0.582031 1.90625 0.25 2.417969 0.25 3.132812 L 0.25 10.304688 C 0.25 11.125 0.746094 11.738281 1.410156 11.738281 L 8.542969 11.738281 C 8.707031 11.535156 9.039062 11.226562 9.453125 11.125 C 9.453125 11.125 9.453125 10.816406 9.453125 10.816406 Z M 9.453125 10.816406 "/>
<path style=" stroke:none;fill-rule:nonzero;fill:rgb(10.196078%,11.372549%,16.078431%);fill-opacity:1;" d="M 6.46875 3.238281 L 3.234375 3.238281 C 3.234375 3.238281 2.902344 4.566406 1.410156 4.464844 L 1.410156 8.769531 C 2.902344 8.664062 3.234375 9.996094 3.234375 9.996094 L 6.46875 9.996094 C 5.472656 9.585938 4.808594 8.152344 4.808594 6.617188 C 4.808594 5.082031 5.472656 3.75 6.46875 3.238281 Z M 6.46875 3.238281 "/>
<path style=" stroke:none;fill-rule:nonzero;fill:rgb(10.196078%,11.372549%,16.078431%);fill-opacity:1;" d="M 9.453125 9.894531 C 9.453125 8.359375 11.445312 8.050781 12.9375 7.949219 L 12.9375 4.464844 C 11.445312 4.566406 11.113281 3.238281 11.113281 3.238281 L 7.878906 3.238281 C 8.875 3.644531 9.535156 5.082031 9.535156 6.617188 C 9.535156 8.152344 8.875 9.585938 7.878906 9.996094 Z M 9.453125 9.894531 "/>
<path style=" stroke:none;fill-rule:nonzero;fill:rgb(10.196078%,11.372549%,16.078431%);fill-opacity:1;" d="M 13.351562 8.5625 C 13.019531 8.5625 9.953125 8.5625 9.953125 9.894531 C 9.953125 10.304688 9.953125 10.917969 9.953125 11.433594 C 9.289062 11.636719 8.707031 11.945312 8.707031 12.457031 C 8.707031 12.96875 8.707031 13.890625 8.707031 14.300781 C 8.707031 15.632812 11.777344 15.632812 12.105469 15.632812 C 12.4375 15.632812 15.507812 15.632812 15.507812 14.300781 C 15.507812 13.890625 15.507812 13.277344 15.507812 12.761719 C 16.171875 12.558594 16.75 12.25 16.75 11.738281 C 16.75 11.226562 16.75 10.304688 16.75 9.894531 C 16.835938 8.5625 13.683594 8.5625 13.351562 8.5625 Z M 12.191406 13.070312 C 10.699219 13.070312 9.703125 12.761719 9.453125 12.558594 C 9.535156 12.457031 9.785156 12.355469 10.117188 12.25 C 10.53125 12.867188 11.777344 13.070312 12.605469 13.070312 C 12.4375 13.070312 12.273438 13.070312 12.191406 13.070312 Z M 13.351562 10.40625 C 11.859375 10.40625 10.863281 10.101562 10.613281 9.894531 C 10.863281 9.691406 11.859375 9.28125 13.351562 9.28125 C 14.84375 9.28125 15.839844 9.585938 16.085938 9.792969 C 15.839844 10.101562 14.84375 10.40625 13.351562 10.40625 Z M 13.351562 10.40625 "/>
</g>
</svg>
