<?xml version="1.0" encoding="utf-8"?>
<!-- Generator: Adobe Illustrator 24.0.2, SVG Export Plug-In . SVG Version: 6.00 Build 0)  -->
<svg version="1.1" id="Layer_1" xmlns="http://www.w3.org/2000/svg" xmlns:xlink="http://www.w3.org/1999/xlink" x="0px" y="0px"
	 viewBox="0 0 46 46" style="enable-background:new 0 0 46 46;" xml:space="preserve">
<style type="text/css">
	.st0{fill:#6DCC6D;}
	.st1{fill:#FFCD29;}
	.st2{fill:#55ACD5;}
	.st3{fill:#6D6C6B;}
	.st4{fill:#898989;}
	.st5{fill:#E9E9EA;}
	.st6{fill:#F9D0B4;}
	.st7{fill:#B26E3B;}
	.st8{fill:#FC7783;}
	.st9{fill:#EA4647;}
	.st10{fill:#231F20;}
</style>
<g id="Layer_32">
	<path class="st0" d="M29.1,1H16.8c-1.7,0-3,1.3-3,2.9V9c0,1.6,1.4,2.9,3,2.9H20c0.4,0,0.7,0.2,0.9,0.5l1.8,2.6
		c0.1,0.1,0.3,0.2,0.4,0.1c0,0,0.1-0.1,0.1-0.1l1.8-2.6c0.2-0.3,0.5-0.5,0.9-0.5h3.2c1.7,0,3-1.3,3-2.9V3.9C32.2,2.3,30.8,1,29.1,1z
		"/>
	<path class="st1" d="M42.3,6.3h-9c-0.4,0-0.8,0.1-1.1,0.3V9c0,0.8-0.4,1.6-1,2.2v0.9c0,1.2,1,2.1,2.2,2.2h2.3
		c0.3,0,0.5,0.1,0.7,0.3l1.3,1.9c0.1,0.1,0.2,0.1,0.3,0.1c0,0,0.1,0,0.1-0.1l1.3-1.9c0.1-0.2,0.4-0.3,0.7-0.3h2.3
		c1.2,0,2.2-0.9,2.2-2.2V8.4C44.6,7.3,43.5,6.3,42.3,6.3z"/>
	<path class="st2" d="M13.8,9V6.6c-0.4-0.2-0.8-0.3-1.1-0.3h-9c-1.2,0-2.2,1-2.2,2.2v3.8c0,1.2,1,2.1,2.2,2.2h2.3
		c0.3,0,0.5,0.1,0.7,0.3L8,16.6c0.1,0.1,0.2,0.1,0.3,0.1c0,0,0.1,0,0.1-0.1l1.3-1.9c0.1-0.2,0.4-0.3,0.7-0.3h2.3
		c1.2,0,2.2-0.9,2.2-2.2v-0.9C14.2,10.7,13.8,9.9,13.8,9z"/>
	<path class="st3" d="M26.3,17.5c-0.5,0-0.9,0.1-1.3,0.3c-0.5-0.7-1.3-1.2-2.2-1.2h-1.3c-2.5,0-4.5,2-4.5,4.4v2
		c0.4-0.3,0.9-0.5,1.4-0.4v-0.2c0-0.1,0.1-0.2,0.3-0.2c0,0,0,0,0.1,0c0.8,0.2,3.2,0.5,4.7-1.5c0.1-0.1,0.3-0.1,0.3,0l0,0
		c0.4,0.3,1.3,1,3.2,1.1c0.1,0,0.2,0.1,0.2,0.2c0,0,0,0.1,0,0.1v0.6c0.6-0.1,1.1,0.1,1.5,0.5V20C28.8,18.6,27.7,17.5,26.3,17.5z"/>
	<path class="st4" d="M8,18.9c-2.7,0-4.8,2.1-4.8,4.7v3.2c0,0.7,0.1,1.4,0.4,1.9c0.2,0.5,0.6,0.7,1.1,0.7h1.9v-0.3
		c-1.1-0.6-1.9-1.7-1.9-3v-1.5c0-0.2,0.2-0.4,0.4-0.4h0c0,0,0.1,0,0.1,0c1,0,2-0.5,2.6-1.2C8,22.9,8.2,22.9,8.4,23c0,0,0,0,0.1,0.1
		c0.6,0.8,1.6,1.2,2.6,1.2l0,0c0.2,0,0.4,0.2,0.4,0.4l0,0v1.5c0,1.2-0.7,2.3-1.8,2.9v0.4h1.5c0.5,0,0.9-0.3,1.1-0.7
		c0.3-0.6,0.5-1.3,0.4-1.9v-3.3C12.8,21.1,10.6,18.9,8,18.9z"/>
	<path class="st5" d="M37.8,18.3c-2.6,0-4.7,1.9-4.7,4.3v1.5c0.3-0.1,0.5-0.2,0.8-0.2c0.1,0,0.2,0,0.3,0v-0.1c0,0,1-0.6,1-1.4v0
		c0-0.4,0.3-0.7,0.7-0.7c0.1,0,0.1,0,0.2,0c1.2,0.2,2.4,0.2,3.6,0c0.4-0.1,0.8,0.1,0.9,0.5c0,0.1,0,0.1,0,0.2v0c0,0.8,1,1.4,1,1.4
		v0.1c0.1,0,0.2,0,0.3,0c0.3,0,0.6,0.1,0.8,0.2v-1.5C42.5,20.3,40.4,18.3,37.8,18.3z"/>
	<path class="st6" d="M8.1,29.5L8.1,29.5c-0.5,0-1-0.1-1.5-0.3v1.2l0.5,1.5C7.1,32,7.2,32,7.3,32h1.6c0.1,0,0.2-0.1,0.2-0.1l0.5-1.5
		v-1.3C9.2,29.4,8.6,29.5,8.1,29.5z"/>
	<path class="st6" d="M41.7,23.9c-0.1,0-0.2,0-0.3,0c0,0.1,0,0.1,0,0.2v2.3c0,0.1,0,0.2,0,0.2c0.1,0,0.2,0,0.3,0
		c0.8,0.1,1.5-0.5,1.5-1.3c0.1-0.8-0.5-1.4-1.3-1.5C41.9,23.9,41.8,23.9,41.7,23.9L41.7,23.9z"/>
	<path class="st6" d="M34.1,24.1c0-0.1,0-0.2,0-0.2c-0.1,0-0.2,0-0.3,0c-0.8-0.1-1.5,0.5-1.5,1.3c-0.1,0.8,0.5,1.4,1.3,1.5
		c0.1,0,0.1,0,0.2,0c0.1,0,0.2,0,0.3,0c0-0.1,0-0.1,0-0.2C34.1,26.3,34.1,24.1,34.1,24.1z"/>
	<path class="st6" d="M40.5,22.4L40.5,22.4c0-0.4-0.3-0.7-0.7-0.7c-0.1,0-0.1,0-0.2,0c-1.2,0.2-2.4,0.2-3.6,0
		c-0.4-0.1-0.8,0.1-0.9,0.5c0,0.1,0,0.1,0,0.2v0c0,0.8-1,1.4-1,1.4v2.5c0,1.7,1.4,3.2,3.3,3.4c2.2,0.2,4.1-1.4,4.1-3.3v-2.6
		C41.5,23.8,40.5,23.3,40.5,22.4z"/>
	<path class="st6" d="M27.6,22.6c-0.1,0-0.2,0-0.3,0c0,0.1,0,0.2,0,0.3v2.9c0,0.1,0,0.2,0,0.3c1,0.2,1.9-0.5,2.1-1.5
		c0.2-1-0.5-1.9-1.5-2.1C27.8,22.6,27.7,22.6,27.6,22.6L27.6,22.6z"/>
	<path class="st6" d="M18.5,22.9c0-0.1,0-0.2,0-0.3c-1-0.2-1.9,0.5-2.1,1.5c-0.2,1,0.5,1.9,1.5,2.1c0.2,0,0.4,0,0.6,0
		c0-0.1,0-0.2,0-0.3V22.9z"/>
	<path class="st6" d="M27.3,22c0-0.1-0.1-0.2-0.2-0.2c-1.8-0.1-2.8-0.8-3.2-1.1c-0.1-0.1-0.3-0.1-0.3,0l0,0c-1.6,1.9-4,1.7-4.7,1.5
		c-0.1,0-0.3,0.1-0.3,0.2c0,0,0,0,0,0.1v3.4c0,2.4,2,4.2,4.4,4.2c2.4,0,4.3-1.9,4.3-4.2V22C27.3,22.1,27.3,22,27.3,22z"/>
	<path class="st6" d="M22.9,30.1L22.9,30.1c-0.7,0-1.3-0.2-2-0.5v1.6l0.7,1.9c0,0.1,0.1,0.2,0.3,0.2H24c0.1,0,0.3-0.1,0.3-0.2
		l0.7-1.9v-1.6C24.3,29.9,23.6,30.1,22.9,30.1z"/>
	<path class="st6" d="M11,24.4L11,24.4c-1,0-2-0.5-2.6-1.2C8.2,23,8,22.9,7.8,23.1c0,0,0,0-0.1,0.1c-0.6,0.8-1.6,1.2-2.6,1.2
		c0,0-0.1,0-0.1,0c-0.2,0-0.4,0.2-0.4,0.4v0v1.5c0,1.7,1.3,3.1,3.1,3.3c1.9,0.2,3.5-1.1,3.7-3c0-0.1,0-0.2,0-0.3v-1.5
		C11.4,24.5,11.3,24.4,11,24.4C11,24.4,11,24.4,11,24.4z"/>
	<path class="st6" d="M37.5,29.7c-0.4,0-0.8-0.1-1.2-0.3v1l0.5,1.5c0,0.1,0.1,0.1,0.2,0.1h1.6c0.1,0,0.2-0.1,0.2-0.1l0.5-1.5v-1
		C38.8,29.7,38.1,29.8,37.5,29.7z"/>
	<path class="st5" d="M32.3,43.9l-0.5-9.3c0-0.7-0.6-1.4-1.3-1.5L27,32.2l-2-1l-0.7,1.9c0,0.1-0.1,0.2-0.3,0.2h-2.1
		c-0.1,0-0.3-0.1-0.3-0.2l-0.7-1.9l-2,1L15.5,33c-0.8,0.2-1.3,0.8-1.3,1.5l-0.5,9.3c0,0.6,0.4,1.1,1.1,1.1c0,0,0,0,0.1,0h16.4
		C31.8,45,32.3,44.5,32.3,43.9C32.3,43.9,32.3,43.9,32.3,43.9z"/>
	<path class="st7" d="M45,40.1l-0.3-5.5c-0.1-1.5-1.1-2.7-2.6-3.1L41,31.2l-1.6-0.8l-0.5,1.5c0,0.1-0.1,0.1-0.2,0.1H37
		c-0.1,0-0.2-0.1-0.2-0.1l-0.5-1.5l-1.6,0.8l-1.1,0.3c-1.1,0.3-2,1-2.4,2c0.3,0.3,0.5,0.7,0.5,1.1l0.4,6.5H44
		C44.6,41.1,45.1,40.7,45,40.1C45,40.1,45,40.1,45,40.1z"/>
	<path class="st8" d="M12.3,31.4l-1.1-0.3l-1.6-0.8l-0.5,1.5C9.1,31.9,9,32,8.9,32H7.3c-0.1,0-0.2-0.1-0.2-0.1l-0.5-1.5l-1.6,0.8
		l-1.1,0.3c-1.5,0.3-2.5,1.6-2.6,3.1L0.9,40c0,0.5,0.4,1,0.9,1c0,0,0,0,0.1,0h11.9l0.4-6.5c0-0.4,0.2-0.8,0.5-1.1
		C14.3,32.5,13.4,31.7,12.3,31.4z"/>
	<path class="st1" d="M40.6,0.9c0,0,0-0.1,0-0.1c0,0,0-0.1,0-0.1c0,0,0-0.1-0.1-0.1c-0.2-0.2-0.5-0.2-0.6,0l0,0c0,0,0,0.1,0,0.1
		c0,0,0,0.1,0,0.1c0,0,0,0.1,0,0.1c0,0,0,0.1,0,0.1c0,0,0,0.1,0,0.1c0,0,0,0.1,0,0.1c0,0,0,0.1,0,0.1c0,0,0,0.1,0.1,0.1
		c0.2,0.2,0.5,0.2,0.6,0c0,0,0,0,0.1-0.1c0,0,0-0.1,0-0.1c0,0,0-0.1,0-0.1c0,0,0-0.1,0-0.1C40.6,1,40.6,0.9,40.6,0.9z"/>
	<path class="st2" d="M10.1,3.6c0-0.1,0-0.1-0.1-0.2c0,0,0-0.1-0.1-0.1c-0.2-0.2-0.5-0.2-0.6,0c0,0,0,0-0.1,0.1c0,0,0,0.1,0,0.1
		c0,0,0,0.1,0,0.1c0,0.1,0,0.1,0,0.2c0,0,0,0.1,0,0.1c0,0,0,0.1,0,0.1c0,0,0,0.1,0.1,0.1C9.5,4.2,9.8,4.2,10,4l0,0c0,0,0,0,0.1-0.1
		c0,0,0-0.1,0-0.1c0,0,0-0.1,0-0.1C10.1,3.7,10.1,3.6,10.1,3.6z"/>
	<path class="st9" d="M37.8,2.7c-0.7-0.1-1.2-0.7-1.4-1.3c0,0,0,0,0,0c0,0,0,0,0,0c-0.1,0.7-0.7,1.2-1.4,1.3c0,0,0,0,0,0
		c0,0,0.1,0,0.1,0c0.7,0.1,1.2,0.7,1.4,1.3c0,0,0,0,0,0c0,0,0,0,0,0C36.6,3.4,37.2,2.9,37.8,2.7C37.8,2.8,37.8,2.8,37.8,2.7
		L37.8,2.7z"/>
	<path class="st0" d="M15,17.5h-0.3v-0.3c0-0.2-0.2-0.5-0.5-0.5s-0.5,0.2-0.5,0.5v0.3h-0.3c-0.3,0-0.5,0.2-0.5,0.5s0.2,0.5,0.5,0.5
		h0.3v0.3c0,0.2,0.2,0.5,0.5,0.5s0.5-0.2,0.5-0.5v-0.3H15c0.3,0,0.5-0.2,0.5-0.5S15.3,17.5,15,17.5L15,17.5z"/>
	<path class="st10" d="M29.1,0.5H16.8c-1.9,0-3.4,1.5-3.4,3.3V9c0,1.8,1.5,3.3,3.4,3.3H20c0.2,0,0.4,0.1,0.5,0.3l1.8,2.6
		c0.3,0.3,0.7,0.5,1.1,0.2c0.1-0.1,0.2-0.1,0.2-0.2l1.8-2.6c0.1-0.2,0.3-0.3,0.5-0.3h3.2c1.9,0,3.4-1.5,3.4-3.3V3.9
		C32.6,2.1,31,0.5,29.1,0.5z M31.7,9c0,1.4-1.1,2.5-2.5,2.5h-3.2c-0.5,0-1,0.2-1.3,0.7L23,14.6l-1.7-2.5c-0.3-0.4-0.8-0.7-1.3-0.7
		h-3.2c-1.4,0-2.5-1.1-2.5-2.5V3.9c0-1.4,1.1-2.5,2.5-2.5h12.4c1.4,0,2.5,1.1,2.5,2.5V9L31.7,9z"/>
	<path class="st10" d="M42.3,5.9h-9c-0.5,0-1,0.1-1.4,0.4c-0.1,0.1-0.2,0.2-0.2,0.4V9c0,0.7-0.3,1.4-0.9,1.8
		c-0.1,0.1-0.2,0.2-0.2,0.3v0.9c0,1.4,1.2,2.6,2.7,2.6h2.4c0.1,0,0.3,0.1,0.3,0.2l1.3,1.9c0.2,0.3,0.6,0.4,0.9,0.2
		c0.1-0.1,0.1-0.1,0.2-0.2l1.3-1.9c0.1-0.1,0.2-0.2,0.3-0.2h2.3c1.5,0,2.7-1.1,2.7-2.6V8.4C45,7,43.8,5.9,42.3,5.9z M44.1,12.2
		c0,0.9-0.8,1.7-1.7,1.7H40c-0.4,0-0.8,0.2-1,0.6l-1.1,1.6l-1.1-1.6c-0.3-0.3-0.6-0.6-1-0.6h-2.4c-1,0-1.7-0.8-1.7-1.7v-0.8
		c0.6-0.6,1-1.5,1-2.4V6.9c0.2-0.1,0.5-0.2,0.7-0.2h9c1,0,1.7,0.8,1.7,1.7L44.1,12.2L44.1,12.2z"/>
	<path class="st10" d="M15.1,10.9c-0.5-0.5-0.9-1.1-0.9-1.8V6.6c0-0.2-0.1-0.3-0.2-0.4c-0.4-0.3-0.9-0.4-1.4-0.4h-9
		C2.1,5.9,1,7,1,8.4v3.7c0,1.4,1.2,2.6,2.7,2.6h2.3c0.1,0,0.3,0.1,0.3,0.2l1.3,1.9c0.2,0.3,0.6,0.4,0.9,0.2C8.6,17,8.6,17,8.7,16.9
		l1.3-1.9c0.1-0.1,0.2-0.2,0.3-0.2h2.3c1.5,0,2.7-1.1,2.7-2.6v-0.9C15.3,11.1,15.2,10.9,15.1,10.9z M14.3,12.2
		c0,0.9-0.8,1.7-1.8,1.7h-2.3c-0.4,0-0.8,0.2-1,0.6l-1.1,1.6L7,14.4c-0.3-0.3-0.6-0.6-1-0.6H3.6c-1,0-1.7-0.8-1.7-1.7V8.4
		c0-0.9,0.8-1.7,1.7-1.7h9c0.3,0,0.5,0.1,0.7,0.2V9c0,0.9,0.4,1.7,1,2.4L14.3,12.2L14.3,12.2z"/>
	<path class="st10" d="M27.8,3.7L27.8,3.7l-9.9,0c-0.3,0-0.5,0.2-0.5,0.5s0.2,0.5,0.5,0.5l0,0l9.9,0c0.3,0,0.5-0.2,0.5-0.5
		C28.3,3.9,28.1,3.7,27.8,3.7z"/>
	<path class="st10" d="M27.9,6L18,6c-0.3,0-0.5,0.2-0.5,0.5s0.2,0.5,0.5,0.5l0,0l9.9,0c0.3,0,0.5-0.2,0.5-0.5
		C28.3,6.2,28.1,6,27.9,6L27.9,6L27.9,6z"/>
	<path class="st10" d="M27.9,8.3l-9.9,0c-0.3,0-0.5,0.2-0.5,0.5c0,0.2,0.2,0.5,0.5,0.5l0,0l9.9,0c0.3,0,0.5-0.2,0.5-0.5l0,0
		C28.3,8.5,28.1,8.3,27.9,8.3z"/>
	<path class="st10" d="M12,35.7c-0.3,0-0.5,0.2-0.5,0.5v4.9c0,0.2,0.2,0.5,0.5,0.5s0.5-0.2,0.5-0.5v-4.9
		C12.5,35.9,12.3,35.7,12,35.7z"/>
	<path class="st10" d="M4,35.7c-0.3,0-0.5,0.2-0.5,0.5v4.9c0,0.2,0.2,0.5,0.5,0.5c0.3,0,0.5-0.2,0.5-0.5v-4.9
		C4.5,35.9,4.3,35.7,4,35.7z"/>
	<path class="st10" d="M9.9,28.8c-0.1-0.1-0.3-0.1-0.5,0C9,29,8.5,29.1,8,29.1c-0.5,0-0.9-0.1-1.3-0.3c-0.2-0.1-0.5,0-0.6,0.2
		c0,0.1-0.1,0.1-0.1,0.2v1.2c0,0.1,0,0.1,0,0.1l0.5,1.5c0.1,0.3,0.4,0.5,0.6,0.5h1.6c0.3,0,0.5-0.2,0.6-0.5l0.5-1.5
		c0-0.1,0-0.1,0-0.1v-1.3C10.1,29,10,28.9,9.9,28.8z M9.2,30.3l-0.5,1.3H7.5L7,30.3v-0.5c0.7,0.2,1.5,0.2,2.2,0
		C9.2,29.8,9.2,30.3,9.2,30.3z"/>
	<path class="st10" d="M41.7,23.5c-0.1,0-0.2,0-0.3,0c-0.3,0-0.4,0.2-0.4,0.5c0,0.1,0,0.1,0,0.2v2.3c0,0.1,0,0.1,0,0.2
		c0,0.2,0.1,0.5,0.4,0.5c0.1,0,0.2,0,0.3,0c1.1,0,2-0.8,2-1.8C43.7,24.3,42.9,23.5,41.7,23.5z M42,26.2v-1.9c0.5,0.1,0.9,0.5,0.9,1
		C42.8,25.8,42.4,26.1,42,26.2L42,26.2z"/>
	<path class="st10" d="M34.6,24.1c0-0.1,0-0.1,0-0.2c0-0.2-0.1-0.5-0.4-0.5c-0.1,0-0.2,0-0.3,0c-1.1,0-2,0.8-2,1.8
		c0,1,0.9,1.8,2,1.8c0.1,0,0.2,0,0.3,0c0.3,0,0.4-0.2,0.4-0.5c0-0.1,0-0.1,0-0.2V24.1z M33.7,26.2c-0.5-0.1-0.9-0.5-0.9-1
		c0.1-0.5,0.4-0.8,0.9-0.8V26.2z"/>
	<path class="st10" d="M41.7,23.4c-0.2-0.1-0.8-0.5-0.8-1v0c0-0.3-0.1-0.7-0.4-0.9c-0.3-0.2-0.6-0.3-1-0.2c-1.1,0.2-2.3,0.2-3.3,0
		c-0.4-0.1-0.7,0-1,0.2c-0.3,0.2-0.4,0.6-0.4,0.9c0,0.5-0.6,0.9-0.8,1c-0.1,0.1-0.3,0.2-0.3,0.4v2.5c0,2,1.6,3.6,3.7,3.8
		c0.1,0,0.3,0,0.4,0c1.1,0,2.1-0.4,2.9-1.1s1.3-1.7,1.3-2.7v-2.6C42,23.7,41.9,23.5,41.7,23.4z M41.1,26.4c0,0.8-0.4,1.5-1,2.1
		c-0.7,0.6-1.7,0.9-2.6,0.8c-1.6-0.1-2.9-1.4-2.9-3v-2.3c0.4-0.2,1-0.8,1-1.6v0c0-0.1,0-0.1,0.1-0.2c0.1-0.1,0.2-0.1,0.3-0.1
		c1.2,0.3,2.5,0.3,3.8,0c0.1,0,0.2,0,0.3,0.1c0.1,0,0.1,0.1,0.1,0.2v0c0,0.8,0.6,1.4,1,1.6L41.1,26.4z"/>
	<path class="st10" d="M41.8,35.7c-0.3,0-0.5,0.2-0.5,0.5v4.9c0,0.2,0.2,0.5,0.5,0.5c0.3,0,0.5-0.2,0.5-0.5v-4.9
		C42.2,35.9,42,35.7,41.8,35.7z"/>
	<path class="st10" d="M33.8,35.7c-0.3,0-0.5,0.2-0.5,0.5v4.9c0,0.2,0.2,0.5,0.5,0.5s0.5-0.2,0.5-0.5v-4.9
		C34.2,35.9,34,35.7,33.8,35.7z"/>
	<path class="st10" d="M32.7,43.9L32.7,43.9l-0.5-9.3c-0.1-0.9-0.7-1.7-1.7-1.9l-3.3-0.8l-2-0.9c-0.2-0.1-0.5,0-0.6,0.2
		c0,0,0,0,0,0.1l-0.6,1.8H22l-0.6-1.8c-0.1-0.2-0.4-0.3-0.6-0.3c0,0,0,0-0.1,0l-2,0.9l-3.3,0.8c-0.9,0.2-1.6,1-1.7,1.9l-0.5,9.3
		c-0.1,0.8,0.6,1.6,1.5,1.6c0,0,0.1,0,0.1,0h16.4c0.9,0,1.6-0.7,1.6-1.5C32.7,43.9,32.7,43.9,32.7,43.9L32.7,43.9z M31.7,44.4
		c-0.1,0.1-0.3,0.2-0.5,0.2H14.8c-0.4,0-0.7-0.3-0.7-0.7c0,0,0,0,0,0l0.5-9.3c0-0.6,0.4-1,1-1.1l3.4-0.8c0,0,0.1,0,0.1,0l1.6-0.8
		l0.5,1.5c0.1,0.3,0.4,0.5,0.7,0.5h2.1c0.3,0,0.6-0.2,0.7-0.5l0.5-1.5l1.6,0.8c0,0,0.1,0,0.1,0l3.4,0.8c0.5,0.1,0.9,0.6,1,1.1
		l0.5,9.3C31.8,44.1,31.8,44.3,31.7,44.4L31.7,44.4z"/>
	<path class="st10" d="M27.6,22.2c-0.1,0-0.3,0-0.4,0c-0.3,0-0.4,0.2-0.4,0.5c0,0.1,0,0.2,0,0.3v2.9c0,0.1,0,0.2,0,0.3
		c0,0.2,0.1,0.4,0.4,0.5c1.3,0.2,2.4-0.6,2.6-1.8c0.2-1.2-0.6-2.3-1.9-2.5C27.8,22.2,27.7,22.2,27.6,22.2L27.6,22.2z M27.7,25.7
		v-2.6c0.8,0.1,1.3,0.8,1.2,1.5C28.9,25.2,28.4,25.7,27.7,25.7z"/>
	<path class="st10" d="M19,22.9c0-0.1,0-0.2,0-0.3c0-0.2-0.1-0.4-0.4-0.5C17.4,22,16.2,22.8,16,24c-0.2,1.2,0.6,2.3,1.9,2.5
		c0.1,0,0.3,0,0.4,0c0.1,0,0.3,0,0.4,0c0.3,0,0.4-0.2,0.4-0.5c0-0.1,0-0.2,0-0.3L19,22.9L19,22.9z M18.1,25.7
		c-0.8-0.1-1.3-0.8-1.2-1.5c0.1-0.6,0.6-1.1,1.2-1.1V25.7z"/>
	<path class="st10" d="M27.7,22c0-0.3-0.3-0.7-0.7-0.7c-1.7-0.1-2.5-0.7-2.8-1c-0.3-0.3-0.7-0.2-1,0c0,0,0,0-0.1,0.1
		c-1.4,1.7-3.5,1.5-4.3,1.4c-0.4-0.1-0.8,0.2-0.8,0.5c0,0.1,0,0.1,0,0.1v3.4c0,2.6,2.2,4.7,4.8,4.7s4.8-2.1,4.8-4.7L27.7,22L27.7,22
		z M26.8,25.9c0,2.1-1.8,3.8-4,3.8s-4-1.7-4-3.8l0,0v-3.2c1,0.1,3.2,0.2,4.8-1.5c0.5,0.4,1.5,1,3.1,1.1L26.8,25.9L26.8,25.9z"/>
	<path class="st10" d="M26.3,17.1c-0.4,0-0.8,0.1-1.1,0.2c-0.6-0.7-1.4-1-2.3-1.1h-1.3c-2.8,0-5,2.2-5,4.8v2c0,0.2,0.2,0.5,0.5,0.5
		c0.1,0,0.2,0,0.3-0.1c0.3-0.2,0.7-0.3,1.1-0.3c0.3,0,0.5-0.1,0.5-0.4v0c1,0.1,3.2,0.2,4.8-1.5c0.5,0.4,1.5,1,3.1,1.1v0.4
		c0,0.2,0.2,0.5,0.5,0.5c0,0,0.1,0,0.1,0c0.1,0,0.1,0,0.2,0c0.4,0,0.7,0.1,1,0.4c0.2,0.2,0.5,0.2,0.6,0c0.1-0.1,0.1-0.2,0.1-0.3
		v-3.2C29.3,18.3,28,17.1,26.3,17.1z M28.4,22.3c-0.2-0.1-0.4-0.1-0.6-0.1V22c0-0.3-0.3-0.7-0.7-0.7c-1.7-0.1-2.5-0.7-2.8-1
		c-0.3-0.3-0.7-0.2-1,0c0,0,0,0-0.1,0.1c-1.4,1.7-3.5,1.5-4.3,1.4c-0.2,0-0.4,0-0.6,0.1c-0.1,0.1-0.2,0.2-0.2,0.3
		c-0.2,0-0.4,0.1-0.6,0.1v-1.3c0-2.2,1.8-3.9,4.1-4h1.3c0.7,0,1.4,0.4,1.8,1c0.1,0.2,0.4,0.3,0.6,0.2l0,0c1-0.6,2.2-0.3,2.8,0.7
		c0.2,0.3,0.3,0.7,0.3,1L28.4,22.3z"/>
	<path class="st10" d="M23.3,35.4c-0.1-0.1-0.3-0.1-0.4-0.1c0,0-0.1,0-0.1,0c0,0-0.1,0-0.1,0c0,0-0.1,0-0.1,0.1c0,0,0,0-0.1,0.1
		s0,0.1,0,0.1c0,0,0,0.1,0,0.1c0,0.1,0,0.1,0,0.2c0,0,0,0.1,0,0.1c0,0,0,0.1,0,0.1c0,0,0,0.1,0.1,0.1c0,0,0,0,0.1,0.1
		c0,0,0.1,0,0.1,0c0,0,0.1,0,0.1,0c0,0,0.1,0,0.1,0c0.3,0,0.5-0.2,0.5-0.5C23.4,35.6,23.4,35.4,23.3,35.4L23.3,35.4z"/>
	<path class="st10" d="M23.3,37.6c-0.1-0.1-0.3-0.1-0.4-0.1c0,0-0.1,0-0.1,0c0,0-0.1,0-0.1,0c0,0-0.1,0-0.1,0.1c0,0,0,0-0.1,0.1
		s0,0.1,0,0.1c0,0,0,0.1,0,0.1c0,0.1,0,0.1,0,0.2c0,0,0,0.1,0,0.1c0,0,0,0.1,0,0.1c0,0,0,0.1,0.1,0.1c0,0,0,0,0.1,0.1s0.1,0,0.1,0
		c0,0,0.1,0,0.1,0c0,0,0.1,0,0.1,0c0.1,0,0.3-0.1,0.3-0.1C23.5,38.1,23.5,37.8,23.3,37.6z"/>
	<path class="st10" d="M23.3,39.9c-0.1-0.1-0.3-0.1-0.4-0.1c0,0-0.1,0-0.1,0c0,0-0.1,0-0.1,0c0,0-0.1,0-0.1,0.1c0,0,0,0-0.1,0.1
		s0,0.1,0,0.1c0,0,0,0.1,0,0.1c0,0.1,0,0.1,0,0.2c0,0,0,0.1,0,0.1c0,0,0,0.1,0,0.1c0,0,0,0.1,0.1,0.1c0,0,0,0,0.1,0.1s0.1,0,0.1,0
		c0,0,0.1,0,0.1,0c0,0,0.1,0,0.1,0c0.1,0,0.3-0.1,0.3-0.1C23.5,40.4,23.5,40.1,23.3,39.9z"/>
	<path class="st10" d="M23.3,42.2C23.2,42.1,23,42,22.9,42c0,0-0.1,0-0.1,0c0,0-0.1,0-0.1,0c0,0-0.1,0-0.1,0.1c0,0,0,0-0.1,0.1
		s0,0.1,0,0.1c0,0,0,0.1,0,0.1c0,0.1,0,0.1,0,0.2c0,0,0,0.1,0,0.1c0,0,0,0.1,0,0.1c0,0,0,0.1,0.1,0.1c0,0,0,0,0.1,0.1s0.1,0,0.1,0
		c0,0,0.1,0,0.1,0c0,0,0.1,0,0.1,0c0.3,0,0.5-0.2,0.5-0.5C23.4,42.3,23.4,42.2,23.3,42.2L23.3,42.2z"/>
	<path class="st10" d="M28.1,38.2c-0.3,0-0.5,0.2-0.5,0.5v6.4c0,0.2,0.2,0.5,0.5,0.5s0.5-0.2,0.5-0.5v-6.4
		C28.5,38.4,28.4,38.2,28.1,38.2z"/>
	<path class="st10" d="M17.7,38.2c-0.3,0-0.5,0.2-0.5,0.5v6.4c0,0.2,0.2,0.5,0.5,0.5s0.5-0.2,0.5-0.5v-6.4
		C18.2,38.4,18,38.2,17.7,38.2z"/>
	<path class="st10" d="M25.2,29.2c-0.1-0.1-0.3-0.1-0.5,0c-0.6,0.3-1.2,0.5-1.9,0.5c-0.6,0-1.2-0.1-1.8-0.4c-0.2-0.1-0.5,0-0.6,0.2
		c0,0.1-0.1,0.1-0.1,0.2v1.6c0,0.1,0,0.1,0,0.1l0.7,1.9c0.1,0.3,0.4,0.5,0.7,0.5H24c0.3,0,0.6-0.2,0.7-0.5l0.7-1.9
		c0-0.1,0-0.1,0-0.2v-1.6C25.4,29.4,25.4,29.3,25.2,29.2z M24.5,31.1l-0.6,1.7H22l-0.6-1.7v-0.8c1,0.3,2.1,0.3,3.1,0L24.5,31.1z"/>
	<path class="st10" d="M11.7,24.2c-0.2-0.2-0.4-0.2-0.6-0.2l0,0v0.5v-0.5c-0.9,0-1.7-0.4-2.3-1c-0.3-0.3-0.8-0.4-1.2-0.1
		c-0.1,0-0.1,0.1-0.1,0.1c-0.6,0.7-1.4,1.1-2.4,1c-0.3,0-0.5,0.1-0.6,0.2c-0.2,0.2-0.3,0.4-0.3,0.6v1.5c0,1.9,1.5,3.6,3.4,3.8
		c0.1,0,0.3,0,0.4,0c2.1,0,3.8-1.7,3.8-3.7v-1.5C11.9,24.5,11.8,24.3,11.7,24.2z M11,26.3c0,0.8-0.4,1.6-1,2.1
		c-0.6,0.6-1.4,0.8-2.3,0.7c-1.5-0.2-2.7-1.4-2.7-2.9v-1.4c1.1,0,2.3-0.5,3-1.3c0.7,0.8,1.8,1.3,2.9,1.3L11,26.3L11,26.3z"/>
	<path class="st10" d="M8,18.5c-2.9,0-5.3,2.3-5.3,5.1v3.2c0,0.7,0.2,1.5,0.5,2.2c0.3,0.6,0.9,1,1.5,1h1.9C6.8,30,7,29.8,7,29.5
		v-0.3c0-0.2-0.1-0.3-0.3-0.4c-1-0.5-1.6-1.5-1.6-2.6v-1.4c1.1,0,2.3-0.5,3-1.3c0.7,0.8,1.8,1.3,2.9,1.3v1.5c0,1-0.6,2-1.5,2.5
		c-0.1,0.1-0.3,0.2-0.3,0.4v0.4c0,0.2,0.2,0.5,0.5,0.5h1.5c0.7,0,1.3-0.4,1.5-1c0.3-0.7,0.5-1.4,0.5-2.2v-3.2
		C13.2,20.8,10.9,18.5,8,18.5z M12.3,26.9c0,0.6-0.1,1.2-0.4,1.8c-0.1,0.3-0.4,0.5-0.8,0.5h-0.7c0.9-0.7,1.4-1.7,1.4-2.8v-1.5
		c0-0.2-0.1-0.4-0.3-0.6c-0.2-0.2-0.4-0.2-0.6-0.2c-0.9,0-1.7-0.4-2.3-1c-0.3-0.3-0.8-0.4-1.2-0.1c-0.1,0-0.1,0.1-0.1,0.1
		C6.8,23.6,6,24,5,23.9c-0.3,0-0.5,0.1-0.6,0.2c-0.2,0.2-0.3,0.4-0.3,0.6v1.5c0,1.1,0.5,2.2,1.4,2.9H4.7c-0.3,0-0.6-0.2-0.8-0.5
		c-0.3-0.6-0.4-1.1-0.4-1.8v-3.2c0-2.4,2-4.3,4.4-4.3s4.4,1.9,4.4,4.3L12.3,26.9L12.3,26.9z"/>
	<path class="st10" d="M8.1,31.6c-0.3,0-0.5,0.2-0.5,0.5v2c0,0.2,0.2,0.5,0.5,0.5c0.3,0,0.5-0.2,0.5-0.5v-2
		C8.6,31.8,8.4,31.6,8.1,31.6z"/>
	<path class="st10" d="M40.2,35.3h-1.4c-0.3,0-0.5,0.2-0.5,0.5s0.2,0.5,0.5,0.5h1.4c0.3,0,0.5-0.2,0.5-0.5S40.4,35.3,40.2,35.3z"/>
	<path class="st10" d="M37.8,17.9c-2.8,0-5.2,2.1-5.2,4.7v1.5c0,0.2,0.2,0.5,0.5,0.5c0.1,0,0.2,0,0.2-0.1c0.2-0.1,0.4-0.1,0.6-0.1
		c0.1,0,0.1,0,0.2,0c0.2,0,0.4-0.1,0.5-0.3c0.4-0.2,1-0.8,1-1.6v0c0-0.1,0-0.1,0.1-0.2c0.1-0.1,0.2-0.1,0.3-0.1
		c1.2,0.3,2.5,0.3,3.8,0c0.1,0,0.2,0,0.3,0.1c0.1,0,0.1,0.1,0.1,0.2v0c0,0.8,0.7,1.4,1,1.6c0.1,0.2,0.3,0.3,0.5,0.3
		c0.1,0,0.1,0,0.2,0c0.2,0,0.4,0.1,0.6,0.1c0.2,0.1,0.5,0.1,0.6-0.2c0-0.1,0.1-0.1,0.1-0.2v-1.5C43,20,40.7,17.9,37.8,17.9z
		 M42.1,23.5c-0.1,0-0.2,0-0.3,0l0,0c-0.2-0.1-0.8-0.5-0.8-1c0-0.3-0.1-0.7-0.4-0.9c-0.3-0.2-0.7-0.3-1-0.2c-1.1,0.2-2.3,0.2-3.3,0
		c-0.4-0.1-0.7,0-1,0.2c-0.3,0.2-0.4,0.6-0.4,0.9c0,0.5-0.6,0.9-0.8,1l0,0c-0.1,0-0.2,0-0.3,0v-0.8c0-2.1,1.9-3.8,4.3-3.8
		s4.3,1.7,4.3,3.8L42.1,23.5z"/>
	<path class="st10" d="M39.6,29.1c-0.1-0.1-0.3-0.1-0.4,0c-0.5,0.2-1.1,0.3-1.7,0.3c-0.4,0-0.7-0.1-1-0.3c-0.3-0.1-0.5,0-0.6,0.2
		c0,0.1,0,0.1,0,0.2v1c0,0.1,0,0.1,0,0.1l0.5,1.5c0.1,0.3,0.4,0.5,0.6,0.5h1.6c0.3,0,0.5-0.2,0.6-0.5l0.5-1.5c0-0.1,0-0.1,0-0.1v-1
		C39.8,29.3,39.8,29.1,39.6,29.1z M38.9,30.3l-0.5,1.3h-1.3l-0.5-1.3V30c0.3,0.1,0.5,0.1,0.7,0.1c0.5,0.1,1,0,1.5-0.1
		C38.9,30,38.9,30.3,38.9,30.3z"/>
	<path class="st10" d="M39.6,26.6l-0.7-0.3c-0.4-0.1-0.8-0.1-1,0.2c0,0-0.1,0-0.1,0c-0.3-0.2-0.7-0.3-1-0.2L36,26.6
		c-0.3,0.1-0.4,0.3-0.3,0.6c0.1,0.2,0.4,0.3,0.6,0.2l0,0l0.7-0.3c0,0,0.1,0,0.1,0c0.4,0.3,0.9,0.3,1.3,0c0,0,0.1,0,0.1,0l0.7,0.3
		c0.3,0.1,0.5,0,0.6-0.2C40,26.9,39.8,26.7,39.6,26.6L39.6,26.6z"/>
	<path class="st10" d="M45.4,40.1L45.4,40.1l-0.3-5.5c-0.1-1.6-1.3-3.1-2.9-3.4l-1.1-0.3l-1.5-0.7c-0.2-0.1-0.5,0-0.6,0.2
		c0,0,0,0,0,0.1l-0.5,1.3h-1.3l-0.5-1.3c-0.1-0.2-0.4-0.3-0.6-0.3c0,0,0,0-0.1,0l-1.5,0.7l-1.1,0.3c-1.2,0.3-2.2,1.1-2.7,2.3
		c-0.1,0.2,0,0.3,0.1,0.5c0.3,0.2,0.4,0.5,0.4,0.8l0.4,6.5c0,0.2,0.2,0.4,0.5,0.4H44c0.8,0,1.4-0.6,1.4-1.4
		C45.4,40.1,45.4,40.1,45.4,40.1L45.4,40.1z M44.4,40.5c-0.1,0.1-0.3,0.2-0.4,0.2H32.5l-0.4-6.1c0-0.4-0.2-0.8-0.5-1.1
		c0.4-0.8,1.1-1.3,2-1.5l1.1-0.3c0,0,0.1,0,0.1,0l1.1-0.5l0.4,1c0.1,0.3,0.4,0.5,0.6,0.5h1.6c0.3,0,0.5-0.2,0.6-0.5l0.4-1l1.1,0.5
		c0,0,0.1,0,0.1,0l1.1,0.3c1.3,0.3,2.2,1.4,2.3,2.6l0.3,5.5C44.6,40.2,44.5,40.4,44.4,40.5L44.4,40.5z"/>
	<path class="st10" d="M15.1,33.3c-0.5-1.1-1.5-2-2.7-2.3l-1.1-0.3L9.8,30c-0.2-0.1-0.5,0-0.6,0.2c0,0,0,0,0,0.1l-0.5,1.3H7.5
		L7,30.3C6.9,30,6.6,29.9,6.4,30c0,0,0,0-0.1,0l-1.5,0.7L3.7,31c-1.7,0.4-2.9,1.8-2.9,3.4l-0.3,5.6c0,0.8,0.6,1.4,1.4,1.5
		c0,0,0.1,0,0.1,0h11.9c0.3,0,0.4-0.2,0.5-0.4l0.4-6.5l0,0c0-0.3,0.2-0.6,0.4-0.8C15.2,33.7,15.2,33.5,15.1,33.3z M13.7,34.6
		l-0.4,6.1H1.9c-0.3,0-0.5-0.2-0.5-0.5c0,0,0,0,0,0l0.3-5.6c0.1-1.3,1-2.4,2.3-2.6l1.1-0.3c0,0,0.1,0,0.1,0L6.3,31l0.4,1
		c0.1,0.3,0.4,0.5,0.6,0.5h1.6c0.3,0,0.5-0.2,0.6-0.5l0.4-1l1.1,0.5c0,0,0.1,0,0.1,0l1.1,0.3c0.9,0.2,1.5,0.8,2,1.5
		C13.9,33.7,13.8,34.1,13.7,34.6L13.7,34.6z"/>
</g>
</svg>
