<?xml version="1.0" encoding="utf-8"?>
<!-- Generator: Adobe Illustrator 24.0.2, SVG Export Plug-In . SVG Version: 6.00 Build 0)  -->
<svg version="1.1" id="fees" xmlns="http://www.w3.org/2000/svg" xmlns:xlink="http://www.w3.org/1999/xlink" x="0px" y="0px"
	 viewBox="0 0 59 59" style="enable-background:new 0 0 59 59;" xml:space="preserve">
<style type="text/css">
	.st0{fill:#4C241D;}
	.st1{fill:#F7EFEB;}
	.st2{fill:#FFCE56;}
	.st3{fill:#02EAE6;}
	.st4{fill:#A9BA5A;}
</style>
<g>
	<ellipse class="st0" cx="1.9" cy="25.4" rx="1.5" ry="1.4"/>
	<ellipse class="st0" cx="4.3" cy="23.1" rx="1" ry="1"/>
	<ellipse class="st1" cx="39.1" cy="24" rx="18.4" ry="18.2"/>
	<g>
		<path class="st0" d="M55.6,33.6h-6.8c-0.5,0-1-0.4-1-1c0-0.5,0.4-1,1-1h6.8c0.5,0,1,0.4,1,1S56.1,33.6,55.6,33.6z"/>
		<path class="st0" d="M50.7,36.5c-0.2,0-0.5-0.1-0.7-0.3l-2.9-2.9c-0.4-0.4-0.4-1,0-1.3l2.9-2.9c0.4-0.4,1-0.4,1.4,0
			c0.4,0.4,0.4,1,0,1.3l-2.2,2.2l2.2,2.2c0.4,0.4,0.4,1,0,1.3C51.2,36.4,51,36.5,50.7,36.5z"/>
		<path class="st0" d="M44.9,49.9h-6.8c-0.5,0-1-0.4-1-1c0-0.5,0.4-1,1-1h6.8c0.5,0,1,0.4,1,1C45.9,49.5,45.5,49.9,44.9,49.9z"/>
		<path class="st0" d="M40.1,52.8c-0.2,0-0.5-0.1-0.7-0.3l-2.9-2.9c-0.4-0.4-0.4-1,0-1.3l2.9-2.9c0.4-0.4,1-0.4,1.4,0
			c0.4,0.4,0.4,1,0,1.3l-2.2,2.2l2.2,2.2c0.4,0.4,0.4,1,0,1.3C40.6,52.7,40.3,52.8,40.1,52.8z"/>
		<path class="st0" d="M12.1,11.5H5.3c-0.5,0-1-0.4-1-1c0-0.6,0.4-1,1-1h6.8c0.5,0,1,0.4,1,1C13,11.1,12.6,11.5,12.1,11.5z"/>
		<path class="st0" d="M7.2,14.4c-0.2,0-0.5-0.1-0.7-0.3l-2.9-2.9c-0.4-0.4-0.4-1,0-1.3L6.6,7c0.4-0.4,1-0.4,1.4,0
			c0.4,0.4,0.4,1,0,1.3l-2.2,2.2l2.2,2.2c0.4,0.4,0.4,1,0,1.3C7.7,14.3,7.5,14.4,7.2,14.4L7.2,14.4z"/>
		<path class="st0" d="M11.1,32.6H4.3c-0.5,0-1-0.4-1-1c0-0.6,0.4-1,1-1h6.8c0.5,0,1,0.4,1,1C12.1,32.2,11.6,32.6,11.1,32.6z"/>
		<path class="st0" d="M6.2,35.5c-0.2,0-0.5-0.1-0.7-0.3l-2.9-2.9c-0.4-0.4-0.4-1,0-1.3l2.9-2.9c0.4-0.4,1-0.4,1.4,0
			c0.4,0.4,0.4,1,0,1.3l-2.2,2.2l2.2,2.2c0.4,0.4,0.4,1,0,1.3C6.8,35.4,6.5,35.5,6.2,35.5z"/>
	</g>
	<g>
		<path class="st2" d="M14,25.9h30.9v12.4H14V25.9z"/>
		<path class="st0" d="M44.9,39.4H14c-0.5,0-1-0.4-1-1V25.9c0-0.5,0.4-1,1-1h30.9c0.5,0,1,0.4,1,1v12.4
			C45.9,38.9,45.5,39.4,44.9,39.4z M14.9,37.4h29V26.9h-29V37.4z"/>
	</g>
	<path class="st0" d="M27.5,35.5h-2.9c-0.5,0-1-0.4-1-1v-5.7c0-0.5,0.4-1,1-1h2.9c0.5,0,1,0.4,1,1s-0.4,1-1,1h-1.9v3.8h1.9
		c0.5,0,1,0.4,1,1S28.1,35.5,27.5,35.5z"/>
	<path class="st0" d="M26.6,32.7h-1.9c-0.5,0-1-0.4-1-1c0-0.5,0.4-1,1-1h1.9c0.5,0,1,0.4,1,1C27.5,32.3,27.1,32.7,26.6,32.7z"/>
	<path class="st0" d="M17.9,35.5c-0.5,0-1-0.4-1-1v-5.7c0-0.5,0.4-1,1-1h2.9c0.5,0,1,0.4,1,1s-0.4,1-1,1h-1.9v4.8
		C18.8,35.1,18.4,35.5,17.9,35.5z"/>
	<path class="st0" d="M19.8,32.7h-1.9c-0.5,0-1-0.4-1-1c0-0.5,0.4-1,1-1h1.9c0.5,0,1,0.4,1,1C20.8,32.3,20.3,32.7,19.8,32.7z"/>
	<path class="st0" d="M34.3,35.5h-2.9c-0.5,0-1-0.4-1-1v-5.7c0-0.5,0.4-1,1-1h2.9c0.5,0,1,0.4,1,1s-0.4,1-1,1h-1.9v3.8h1.9
		c0.5,0,1,0.4,1,1S34.8,35.5,34.3,35.5z"/>
	<path class="st0" d="M33.3,32.7h-1.9c-0.5,0-1-0.4-1-1c0-0.5,0.4-1,1-1h1.9c0.5,0,1,0.4,1,1C34.3,32.3,33.9,32.7,33.3,32.7z"/>
	<path class="st0" d="M41.1,35.5h-2.9c-0.5,0-1-0.4-1-1s0.4-1,1-1h1.9v-1h-1.9c-0.5,0-1-0.4-1-1v-2.9c0-0.5,0.4-1,1-1h2.9
		c0.5,0,1,0.4,1,1s-0.4,1-1,1h-1.9v1h1.9c0.5,0,1,0.4,1,1v2.9C42,35.1,41.6,35.5,41.1,35.5z"/>
	<g>
		<ellipse class="st3" cx="46.9" cy="17.3" rx="10.6" ry="10.6"/>
		<path class="st0" d="M46.9,28.8c-6.4,0-11.6-5.2-11.6-11.5S40.5,5.8,46.9,5.8S58.5,11,58.5,17.3S53.3,28.8,46.9,28.8z M46.9,7.7
			c-5.3,0-9.7,4.3-9.7,9.6s4.3,9.6,9.7,9.6s9.7-4.3,9.7-9.6S52.2,7.7,46.9,7.7z"/>
	</g>
	<path class="st0" d="M49.8,25h-3.2c-2.5,0-4.5-2.3-4.5-5.1v-5.1c0-2.8,2-5.1,4.5-5.1h3.2c0.5,0,1,0.4,1,1s-0.4,1-1,1h-3.2
		c-1.5,0-2.6,1.4-2.6,3.2v5.1c0,1.8,1.2,3.2,2.6,3.2h3.2c0.5,0,1,0.4,1,1C50.7,24.5,50.3,25,49.8,25z"/>
	<path class="st0" d="M46.9,17.3h-5.8c-0.5,0-1-0.4-1-1c0-0.5,0.4-1,1-1h5.8c0.5,0,1,0.4,1,1C47.8,16.9,47.4,17.3,46.9,17.3z"/>
	<path class="st0" d="M46.9,20.2H43c-0.5,0-1-0.4-1-1c0-0.5,0.4-1,1-1h3.9c0.5,0,1,0.4,1,1C47.8,19.8,47.4,20.2,46.9,20.2z"/>
	<g>
		<ellipse class="st4" cx="13" cy="47" rx="10.6" ry="10.6"/>
		<path class="st0" d="M13,58.5C6.7,58.5,1.5,53.3,1.5,47S6.7,35.5,13,35.5S24.6,40.7,24.6,47S19.4,58.5,13,58.5z M13,37.4
			c-5.3,0-9.7,4.3-9.7,9.6c0,5.3,4.3,9.6,9.7,9.6s9.7-4.3,9.7-9.6S18.3,37.4,13,37.4z"/>
	</g>
	<path class="st0" d="M14.4,53.7h-5c-0.5,0-1-0.4-1-1c0-0.5,0.4-1,1-1h5c0.9,0,1.6-0.7,1.6-1.5v-0.8c0-0.9-0.7-1.5-1.6-1.5h-2.7
		c-1.9,0-3.5-1.5-3.5-3.5v-0.8c0-1.9,1.6-3.5,3.5-3.5h4.2c0.5,0,1,0.4,1,1c0,0.6-0.4,1-1,1h-4.2c-0.9,0-1.6,0.7-1.6,1.5v0.8
		c0,0.9,0.7,1.5,1.6,1.5h2.7c1.9,0,3.5,1.5,3.5,3.5v0.8C17.9,52.2,16.3,53.7,14.4,53.7L14.4,53.7z"/>
	<path class="st0" d="M13,55.6c-0.5,0-1-0.4-1-1V39.3c0-0.5,0.4-1,1-1c0.6,0,1,0.4,1,1v15.3C14,55.2,13.6,55.6,13,55.6z"/>
	<path class="st0" d="M27.5,3.8c-0.5,0-1-0.4-1-1V1.5c0-0.5,0.4-1,1-1c0.5,0,1,0.4,1,1v1.3C28.5,3.3,28.1,3.8,27.5,3.8z"/>
	<path class="st0" d="M27.5,9.2c-0.5,0-1-0.4-1-1V6.9c0-0.5,0.4-1,1-1c0.5,0,1,0.4,1,1v1.3C28.5,8.8,28.1,9.2,27.5,9.2z"/>
	<path class="st0" d="M25.5,5.8h-1.4c-0.5,0-1-0.4-1-1s0.4-1,1-1h1.4c0.5,0,1,0.4,1,1S26,5.8,25.5,5.8z"/>
	<path class="st0" d="M30.9,5.8h-1.4c-0.5,0-1-0.4-1-1s0.4-1,1-1h1.4c0.5,0,1,0.4,1,1S31.5,5.8,30.9,5.8z"/>
</g>
</svg>
