<?xml version="1.0" encoding="utf-8"?>
<!-- Generator: Adobe Illustrator 24.0.2, SVG Export Plug-In . SVG Version: 6.00 Build 0)  -->
<svg version="1.1" id="Layer_1" xmlns="http://www.w3.org/2000/svg" xmlns:xlink="http://www.w3.org/1999/xlink" x="0px" y="0px"
	 viewBox="0 0 59 59" style="enable-background:new 0 0 59 59;" xml:space="preserve">
<style type="text/css">
	.st0{fill:url(#SVGID_1_);}
	.st1{fill:url(#SVGID_2_);}
	.st2{fill:url(#SVGID_3_);}
</style>
<title>fly-transport-people-worker-office-speed-future</title>
<g>
	<linearGradient id="SVGID_1_" gradientUnits="userSpaceOnUse" x1="5.9375" y1="53.3172" x2="29.5" y2="53.3172">
		<stop  offset="0" style="stop-color:#1D131A"/>
		<stop  offset="1" style="stop-color:#B91D73"/>
	</linearGradient>
	<path class="st0" d="M27.2,51.3c-1.3,0-2.3,1-2.3,2.3v0.9c0,0.3-0.2,0.5-0.5,0.5s-0.5-0.2-0.5-0.5v-3.6c0-1.5-1.2-2.7-2.7-2.7
		s-2.7,1.2-2.7,2.7v0.9c0,0.3-0.2,0.5-0.5,0.5s-0.5-0.2-0.5-0.5v-0.5c0-1.5-1.2-2.7-2.7-2.7s-2.7,1.2-2.7,2.7v3.2
		c0,0.3-0.2,0.5-0.5,0.5s-0.5-0.2-0.5-0.5V54c0-1.5-1.2-2.7-2.7-2.7S5.9,52.5,5.9,54v4.5h1.8V54c0-0.5,0.4-0.9,0.9-0.9
		s0.9,0.4,0.9,0.9v0.5c0,1.3,1,2.3,2.3,2.3s2.3-1,2.3-2.3v-3.2c0-0.5,0.4-0.9,0.9-0.9c0.5,0,0.9,0.4,0.9,0.9v0.5
		c0,1.3,1,2.3,2.3,2.3s2.3-1,2.3-2.3v-0.9c0-0.5,0.4-0.9,0.9-0.9s0.9,0.4,0.9,0.9v3.6c0,1.3,1,2.3,2.3,2.3s2.3-1,2.3-2.3v-0.9
		c0-0.3,0.2-0.5,0.5-0.5s0.5,0.2,0.5,0.5v5h1.8v-5C29.5,52.3,28.5,51.3,27.2,51.3z"/>
	<linearGradient id="SVGID_2_" gradientUnits="userSpaceOnUse" x1="20.4375" y1="29.5" x2="27.6875" y2="29.5">
		<stop  offset="0" style="stop-color:#1D131A"/>
		<stop  offset="1" style="stop-color:#B91D73"/>
	</linearGradient>
	<path class="st1" d="M24.1,20.4c-2,0-3.6,1.6-3.6,3.6v10.9c0,2,1.6,3.6,3.6,3.6s3.6-1.6,3.6-3.6V24.1
		C27.7,22.1,26.1,20.4,24.1,20.4z M25.9,34.9c0,1-0.8,1.8-1.8,1.8s-1.8-0.8-1.8-1.8V24.1c0-1,0.8-1.8,1.8-1.8s1.8,0.8,1.8,1.8V34.9z
		"/>
	<linearGradient id="SVGID_3_" gradientUnits="userSpaceOnUse" x1="0.5" y1="29.5" x2="58.5" y2="29.5">
		<stop  offset="0" style="stop-color:#1D131A"/>
		<stop  offset="1" style="stop-color:#B91D73"/>
	</linearGradient>
	<path class="st2" d="M57.6,25.9c-2.2,0-4,1.5-4.4,3.6h-1c-2.5,0-4.5,2-4.5,4.5v0.1c-1.8,0.2-3.4,1.1-4.5,2.4v-5.6
		c0-2.8-0.5-5.6-1.6-8.2L41.2,22l-0.2-0.8l2.3-0.8c2-0.7,3.6-2.1,4.5-3.9l0.5-1.1c0.1-0.3,0.1-0.6-0.1-0.9l-1.8-2.7
		c-0.2-0.2-0.4-0.4-0.7-0.4c-0.3,0-0.5,0.1-0.7,0.3l-1.8,1.8c-0.1,0.1-0.2,0.2-0.2,0.4c-0.5,1.5-1.6,2.8-3,3.5l-0.8,0.4
		c-0.5-0.4-1-0.8-1.7-1v-0.8c2.6-0.4,4.5-2.7,4.5-5.4V6.8h0.7c1.6,0,3-0.9,3.7-2.3c0.2-0.4,0-1-0.4-1.2c0,0-0.1,0-0.1,0l-1.3-0.4
		L45.6,2c0.4-0.4,0.4-0.9,0-1.3c-0.2-0.2-0.4-0.3-0.6-0.3H34c-0.2,0-0.5,0.1-0.6,0.3l-1.5,1.5h-2.3c-0.5,0-0.9,0.4-0.9,0.9
		c0,0.1,0,0.2,0.1,0.3l1.7,4.4v2.5c0,0.5,0.4,0.9,0.9,0.9h0.1c0.2,1.2,0.8,2.3,1.7,3.1v1.7c-0.5,0.3-1,0.6-1.4,1L27,4.7
		c-0.4-1.1-1.7-1.7-2.9-1.3c-0.6,0.2-1.1,0.7-1.3,1.3l-5.1,13.7c0,0.1,0,0.2-0.1,0.3c0,0,0,0,0,0v18.1h-1c-0.4-2.5-2.1-4.5-4.5-5.2
		c-0.3-2.9-2.6-5.2-5.5-5.6c-0.4-3.1-3.1-5.5-6.3-5.5v1.8c2.5,0,4.5,2,4.5,4.5c0,0.5,0.4,0.9,0.9,0.9c2.5,0,4.5,2,4.5,4.6
		c0,0,0,0,0,0c0,0.5,0.3,0.8,0.8,0.9c2.2,0.4,3.8,2.3,3.8,4.5c0,0.5,0.4,0.9,0.9,0.9h1.8v1.8c0,0.5,0.4,0.9,0.9,0.9h0.9v3.6
		c0,0.4,0.2,0.7,0.6,0.9l5.4,1.8c0.1,0,0.2,0,0.3,0c0.5,0,0.9-0.4,0.9-0.9v-5.4h3.6c0,0.5,0.4,0.9,0.9,0.9l-0.9,15.4
		c0,0.5,0.4,0.9,0.9,1c0,0,0,0,0.1,0h3.6c0.5,0,0.8-0.3,0.9-0.8l0.6-4.6l0.3,4.5c0,0.5,0.4,0.8,0.9,0.8h3.6c0.5,0,0.9-0.4,0.9-0.9
		V42.2c0.5,0,0.9-0.4,0.9-0.9c0-3,2.4-5.4,5.4-5.4c0.5,0,0.9-0.4,0.9-0.9V34c0-1.5,1.2-2.7,2.7-2.7H54c0.5,0,0.9-0.4,0.9-0.9
		c0-1.5,1.2-2.7,2.7-2.7h0.9v-1.8H57.6z M34.9,21.8c0-0.8,0.5-1.4,0.9-1.4s0.9,0.6,0.9,1.5l1.7,18.5h-1.8L34.9,21.8z M36.8,42.2h1.8
		c0,0.5-0.4,0.9-0.9,0.9S36.8,42.7,36.8,42.2z M44.8,14.6l0.9-0.9l0.9,1.4l-0.3,0.6c-0.7,1.4-2,2.5-3.5,3l-2.2,0.7
		c0-0.1-0.1-0.2-0.1-0.3l0.5-0.2C42.7,18,44.1,16.5,44.8,14.6z M32.2,4.1c0.2,0,0.5-0.1,0.6-0.3l1.5-1.5h8.3l-0.3,0.3
		c-0.4,0.4-0.4,0.9,0,1.3C42.6,4,42.7,4,42.8,4.1l1.5,0.5C43.9,4.9,43.4,5,42.9,5H34c-0.5,0-0.9,0.4-0.9,0.9v0.9h-1.2l-1.1-2.7H32.2
		z M32.2,9.6V8.7H34c0.5,0,0.9-0.4,0.9-0.9V6.8h5.4v3.6c0,1.9-1.5,3.5-3.5,3.6h0c0,0-0.1,0-0.1,0c-0.8,0-1.6-0.3-2.3-0.8l0,0
		c-0.8-0.7-1.3-1.7-1.3-2.8C33.1,10,32.7,9.6,32.2,9.6z M35.8,15.8v0.4L34.9,16v-0.5C35.2,15.7,35.5,15.8,35.8,15.8z M34.1,17.7
		l2.1,0.3c1.5,0.3,2.7,1.4,3,2.9l0.3,1.4c0,0.1,0,0.1,0,0.2l0.3,0.7c1,2.4,1.5,5,1.4,7.5v9.5h-1l-1.7-18.6c0.1-1.6-1.1-3.1-2.7-3.2
		c-1.5,0-2.7,1.4-2.7,3.3l1.7,18.5h-2.6V20.6C32.2,19.3,33,18.2,34.1,17.7z M24.6,5.3c0.1-0.2,0.4-0.3,0.6-0.2
		c0.1,0,0.1,0.1,0.2,0.2l3.3,8.8h-7.4L24.6,5.3z M20.6,15.9h8.7l0.7,1.8H19.9L20.6,15.9z M25,45.5l-3.6-1.2v-0.8l3.6,1.2V45.5z
		 M25,42.7l-3.6-1.2v-0.3H25V42.7z M25.9,39.5h-6.3V19.5h10.9v19.9H25.9z M34.1,56.7h-1.9l0.8-14.5h1.9c0,0.8,0.3,1.5,0.9,2
		L34.1,56.7z M40.4,56.7h-1.9l-0.8-11.8c1.5,0,2.7-1.2,2.7-2.7V56.7z"/>
</g>
</svg>
