<?xml version="1.0" encoding="utf-8"?>
<!-- Generator: Adobe Illustrator 24.0.2, SVG Export Plug-In . SVG Version: 6.00 Build 0)  -->
<svg version="1.1" id="Layer_1" xmlns="http://www.w3.org/2000/svg" xmlns:xlink="http://www.w3.org/1999/xlink" x="0px" y="0px"
	 viewBox="0 0 36 43" style="enable-background:new 0 0 36 43;" xml:space="preserve">
<style type="text/css">
	.st0{fill:#FFFFFF;}
</style>
<g>
	<path class="st0" d="M6.1,6.9c0,0-0.1,0-0.1,0c-0.9,0-1.9,0-2.8,0c-0.7,0-1.2,0.5-1.3,1.3c0,0.1,0,0.2,0,0.3c0,10.1,0,20.1,0,30.2
		c0,0.1,0,0.2,0,0.4c0,0.6,0.5,1.1,1.1,1.2c0.1,0,0.3,0,0.4,0c7.2,0,14.3,0,21.5,0c0.2,0,0.5,0,0.7-0.1c0.6-0.2,0.9-0.7,0.9-1.3
		c0-1.5,0-2.9,0-4.4c0-3.5,0-6.9,0-10.4c0-0.1,0-0.3,0-0.5c0.4,0,0.8,0,1.3,0c0,0.1,0,0.2,0,0.4c0,4.9,0,9.8,0,14.8
		c0,1.7-1.1,2.8-2.8,2.8c-7.2,0-14.5,0-21.7,0c-1.7,0-2.7-1.1-2.7-2.8c0-10.1,0-20.2,0-30.3c0-1.8,1.1-2.9,2.8-2.9
		c1.3,0,2.6,0,3.9,0c0.1,0,0.2,0,0.3,0c1-0.4,2.1-0.4,3.2-0.6c0,0,0.1,0,0.1,0c0.4-2.3,1.5-3.4,3.3-3.4c1.7,0,2.9,1.2,3.2,3.4
		c0.8,0.1,1.5,0.2,2.3,0.3c0.1,0,0.2,0,0.3,0c0.7,0.3,1.5,0.2,2.2,0.2c1,0,1.9,0,2.9,0c1.5,0,2.6,1.1,2.7,2.6c0,1.3,0,2.6,0,3.9
		c0,0,0,0.1,0,0.2c-0.4,0-0.8,0-1.2,0c0-0.1,0-0.2,0-0.4c0-1.2,0-2.3,0-3.5c0-0.9-0.5-1.5-1.4-1.5c-0.9,0-1.9,0-2.8,0
		c0.1,0.4,0.2,0.8,0.3,1.2c0,0.1,0.2,0.1,0.3,0.1c0.5,0,1.1,0,1.6,0c0.5,0,0.8,0.2,0.8,0.8c0,1.6,0,3.3,0,4.9c0,0.1,0,0.2,0,0.3
		c-0.4,0-0.8,0-1.3,0c0-1.5,0-3.1,0-4.6c-0.4,0-0.9,0-1.3,0c0,0.2,0,0.4,0,0.6c0,0.5-0.3,0.7-0.7,0.7c-5.1,0-10.3,0-15.4,0
		c-0.5,0-0.7-0.3-0.7-0.8c0-0.2,0-0.3,0-0.5c-0.4,0-0.9,0-1.3,0c0,6.7,0,13.3,0,20c0.1,0,0.3,0,0.4,0c1.3,0,2.5,0,3.8,0
		c0.8,0,0.9,0.2,0.9,1c0,1.3,0,2.6,0,3.9c0,0.1,0,0.3,0,0.4c4.8,0,9.5,0,14.3,0c0-3.1,0-6.2,0-9.3c0.4,0,0.8,0,1.3,0
		c0,0.1,0,0.2,0,0.4c0,4,0,8.1,0,12.1c0,0.6-0.2,0.9-0.9,0.9c-6.8,0-13.5,0-20.3,0c-0.6,0-0.9-0.2-0.9-0.9c0-9.6,0-19.3,0-28.9
		c0-0.7,0.2-0.9,0.9-0.9c0.5,0,1,0,1.5,0c0.1,0,0.2-0.1,0.3-0.2C5.8,7.6,5.9,7.2,6.1,6.9z M7,9.5c4.7,0,9.5,0,14.2,0
		c0-0.3,0-0.5,0-0.7c0-1.4-0.7-2.1-2-2.3c-0.8-0.1-1.6-0.2-2.5-0.3c-0.5-0.1-0.7-0.3-0.7-0.8c0-0.2,0-0.4,0-0.6
		c-0.1-1-0.8-1.8-1.7-1.9c-1-0.1-1.8,0.5-2.1,1.5c-0.1,0.3-0.1,0.5-0.1,0.8c0,0.8-0.2,1-1,1.1c-0.9,0.1-1.8,0.2-2.7,0.4
		C7.8,6.7,7.1,7.3,7,8.1C7,8.5,7,9,7,9.5z M23.8,36.2c-0.2,0-0.3,0-0.5,0c-4.7,0-9.5,0-14.2,0c-0.3,0-0.6-0.1-0.9-0.4
		c-1.2-1.2-2.4-2.5-3.6-3.7c-0.1-0.1-0.2-0.2-0.3-0.3c0,1.9,0,3.8,0,5.7c6.5,0,12.9,0,19.4,0C23.8,37,23.8,36.6,23.8,36.2z
		 M8.3,30.9c-1,0-1.9,0-2.8,0c0.9,0.9,1.9,1.9,2.8,2.9C8.3,32.8,8.3,31.8,8.3,30.9z"/>
	<path class="st0" d="M34.4,13.6c0.2,0.1,0.3,0.2,0.4,0.4c0.8,0.9,0.9,2.2,0,3.1c-1.1,1.2-2.3,2.4-3.5,3.6c-0.3-0.3-0.6-0.6-0.9-1
		c0.5-0.5,1.1-1.1,1.6-1.7c0.5-0.5,1-1.1,1.5-1.6c0.6-0.6,0.6-1.1,0-1.7c-0.1-0.1-0.1-0.1-0.2-0.2c-0.1,0.1-0.2,0.2-0.3,0.3
		c-3.4,3.5-6.7,6.9-10.1,10.4c-0.2,0.2-0.4,0.3-0.6,0.4c-1.2,0.4-2.4,0.8-3.5,1.2c-0.3,0.1-0.6,0.1-0.8-0.1
		c-0.2-0.2-0.2-0.5-0.1-0.8c0.4-1.2,0.8-2.4,1.2-3.7c0.1-0.2,0.2-0.4,0.3-0.6c3.8-4,7.7-7.9,11.6-11.9c1.1-1.1,2.6-1.1,3.6-0.1
		c1,1,1,2.6-0.1,3.7C34.6,13.3,34.6,13.4,34.4,13.6z M26.4,16.6c-1.8,1.9-3.7,3.8-5.5,5.6c0.5,0.5,1.1,1.1,1.6,1.6
		c1.8-1.9,3.6-3.8,5.5-5.6C27.5,17.6,26.9,17.1,26.4,16.6z M32.6,13.5c-0.5-0.5-1.1-1.1-1.6-1.6c-1.2,1.2-2.4,2.4-3.5,3.6
		c0.5,0.5,1.1,1.1,1.6,1.6C30.2,15.9,31.4,14.7,32.6,13.5z M33.6,12.5c0.4-0.3,0.7-0.8,0.6-1.4c-0.1-0.4-0.5-0.8-0.9-0.9
		c-0.6-0.1-1,0.2-1.3,0.6C32.5,11.4,33,11.9,33.6,12.5z M20.2,23.4c-0.2,0.6-0.3,1.1-0.5,1.7c0.6-0.2,1.1-0.4,1.6-0.6
		C20.9,24.2,20.6,23.8,20.2,23.4z"/>
	<path class="st0" d="M7,21.5c0-0.4,0-0.8,0-1.3c3.7,0,7.3,0,11,0c0,0.4,0,0.8,0,1.3C14.3,21.5,10.7,21.5,7,21.5z"/>
	<path class="st0" d="M17.3,22.9c0,0.4,0,0.8,0,1.3c-3.4,0-6.9,0-10.3,0c0-0.4,0-0.8,0-1.3C10.4,22.9,13.9,22.9,17.3,22.9z"/>
	<path class="st0" d="M21.2,28.2c0,0.4,0,0.8,0,1.3c-3.5,0-6.9,0-10.3,0c0-0.4,0-0.8,0-1.3C14.3,28.2,17.8,28.2,21.2,28.2z"/>
	<path class="st0" d="M10.9,17.5c3.2,0,6.5,0,9.7,0c0,0.4,0,0.8,0,1.3c-3.2,0-6.4,0-9.7,0C10.9,18.4,10.9,18,10.9,17.5z"/>
	<path class="st0" d="M7,26.8c0-0.4,0-0.9,0-1.3c3.2,0,6.4,0,9.7,0c0,0.4,0,0.9,0,1.3C13.4,26.8,10.2,26.8,7,26.8z"/>
	<path class="st0" d="M20.2,32.2c0.4,0,0.7,0,1,0c0,0.4,0,0.9,0,1.3c-0.7,0-1.3,0-2,0c-0.2,0-0.4-0.2-0.6-0.4
		c-0.1,0.2-0.4,0.5-0.7,0.4c-0.2-0.1-0.4-0.3-0.5-0.5c-0.1-0.2-0.1-0.5-0.2-0.7c-0.2,0.3-0.4,0.5-0.6,0.8c-0.2-0.1-0.4-0.2-0.5-0.3
		c-0.2-0.1-0.4-0.2-0.6-0.3c0.3-0.6,0.7-1.2,1.4-1.6c0.6-0.3,1-0.1,1.4,0.3c0.4-0.3,0.9-0.6,1.5-0.4C20.2,31.2,20.2,31.6,20.2,32.2z
		"/>
	<path class="st0" d="M12.2,14.1c0-1.1,0.9-2,2-1.9c1.1,0,1.9,1,1.9,2c0,1.1-0.9,2-2,1.9C13,16.1,12.1,15.2,12.2,14.1z M14.1,14.8
		c0.4,0,0.6-0.3,0.6-0.6c0-0.4-0.3-0.7-0.6-0.7c-0.3,0-0.6,0.3-0.6,0.7C13.4,14.5,13.7,14.8,14.1,14.8z"/>
	<path class="st0" d="M7,18.8c0-0.4,0-0.8,0-1.3c0.8,0,1.7,0,2.5,0c0,0.4,0,0.8,0,1.3C8.7,18.8,7.9,18.8,7,18.8z"/>
	<path class="st0" d="M14.7,4.2c0,0.4,0,0.9,0,1.3c-0.4,0-0.8,0-1.3,0c0-0.4,0-0.8,0-1.3C13.9,4.2,14.3,4.2,14.7,4.2z"/>
</g>
</svg>
