<?xml version="1.0" encoding="utf-8"?>
<!-- Generator: Adobe Illustrator 24.0.2, SVG Export Plug-In . SVG Version: 6.00 Build 0)  -->
<svg version="1.1"
	 id="Layer_1" xmlns:cc="http://creativecommons.org/ns#" xmlns:dc="http://purl.org/dc/elements/1.1/" xmlns:inkscape="http://www.inkscape.org/namespaces/inkscape" xmlns:rdf="http://www.w3.org/1999/02/22-rdf-syntax-ns#" xmlns:sodipodi="http://sodipodi.sourceforge.net/DTD/sodipodi-0.dtd" xmlns:svg="http://www.w3.org/2000/svg"
	 xmlns="http://www.w3.org/2000/svg" xmlns:xlink="http://www.w3.org/1999/xlink" x="0px" y="0px" viewBox="0 0 49 49"
	 style="enable-background:new 0 0 49 49;" xml:space="preserve">
<style type="text/css">
	.st0{fill:#F92F29;}
</style>
<g transform="translate(0,-952.36218)">
	<path class="st0" d="M24.5,952.9c-0.3,0-0.4,0.1-0.6,0.2L2.5,967.3c-0.4,0.2-0.6,0.7-0.4,1.2c0.1,0.4,0.6,0.7,1,0.7h4.6v21.5H3
		c-0.5,0-1,0.5-1,1v3.1c-0.5,0-1,0.5-1,1v4.1c0,0.5,0.5,1,1,1h45c0.5,0,1-0.5,1-1v-4.1c0-0.5-0.5-1-1-1v-3.1c0-0.5-0.5-1-1-1h-4.6
		v-21.5H46c0.4,0,0.9-0.3,1-0.7c0.1-0.4-0.1-0.9-0.4-1.2L25.1,953C24.9,952.9,24.7,952.9,24.5,952.9z M24.5,955.1l18.1,12.1H6.4
		L24.5,955.1z M24.5,958.5c-2,0-3.6,1.6-3.6,3.6s1.6,3.6,3.6,3.6s3.6-1.6,3.6-3.6S26.5,958.5,24.5,958.5z M24.5,960.5
		c0.9,0,1.5,0.7,1.5,1.5c0,0.9-0.7,1.5-1.5,1.5S23,962.9,23,962C23,961.2,23.6,960.5,24.5,960.5z M9.7,969.2h2v21.5h-2V969.2z
		 M13.8,969.2h3.1v21.5h-3.1V969.2z M18.9,969.2h2v21.5h-2V969.2z M23,969.2H26v21.5H23V969.2z M28.1,969.2h2v21.5h-2V969.2z
		 M32.2,969.2h3.1v21.5h-3.1V969.2z M37.3,969.2h2v21.5h-2V969.2z M4.1,992.7h40.9v2H4.1V992.7z M3,996.8H46v2H3V996.8z"/>
</g>
</svg>
