<?xml version="1.0" encoding="UTF-8"?>
<svg xmlns="http://www.w3.org/2000/svg" xmlns:xlink="http://www.w3.org/1999/xlink" width="18pt" height="16pt" viewBox="0 0 18 16" version="1.1">
<g id="surface1">
<path style=" stroke:none;fill-rule:nonzero;fill:rgb(10.196078%,11.372549%,16.078431%);fill-opacity:1;" d="M 15.835938 6.222656 L 14.851562 6.222656 L 12.335938 14.890625 L 9.820312 6.222656 L 8.179688 6.222656 L 5.664062 14.890625 L 3.257812 6.222656 L 2.273438 6.222656 C 1.398438 6.222656 0.742188 6.890625 0.742188 7.890625 L 0.742188 14.222656 C 0.742188 15.109375 1.398438 15.777344 2.273438 15.777344 L 15.726562 15.777344 C 16.601562 15.777344 17.257812 15.109375 17.257812 14.222656 L 17.257812 7.890625 C 17.257812 7 16.601562 6.222656 15.835938 6.222656 Z M 9.710938 12.777344 L 7.414062 12.777344 L 7.414062 12.332031 L 9.710938 12.332031 Z M 16.273438 12.777344 L 13.976562 12.777344 L 13.976562 12.332031 L 16.273438 12.332031 Z M 6.757812 6.667969 L 5.773438 10.554688 L 4.789062 6.667969 L 5.773438 6.109375 Z M 13.320312 6.667969 L 12.335938 10.667969 L 11.351562 6.667969 L 12.335938 6.109375 Z M 8.179688 2.777344 C 8.179688 4.222656 7.085938 5.332031 5.664062 5.332031 C 4.242188 5.332031 3.148438 4.222656 3.148438 2.777344 C 3.148438 1.332031 4.242188 0.222656 5.664062 0.222656 C 7.085938 0.222656 8.179688 1.332031 8.179688 2.777344 Z M 14.851562 2.777344 C 14.851562 4.222656 13.757812 5.332031 12.335938 5.332031 C 10.914062 5.332031 9.820312 4.222656 9.820312 2.777344 C 9.820312 1.332031 10.914062 0.222656 12.335938 0.222656 C 13.757812 0.222656 14.851562 1.332031 14.851562 2.777344 Z M 14.851562 2.777344 "/>
</g>
</svg>
