<?xml version="1.0" encoding="utf-8"?>
<!-- Generator: Adobe Illustrator 24.0.2, SVG Export Plug-In . SVG Version: 6.00 Build 0)  -->
<svg version="1.1" id="Layer_1" xmlns="http://www.w3.org/2000/svg" xmlns:xlink="http://www.w3.org/1999/xlink" x="0px" y="0px"
	 viewBox="0 0 15.5 14.4" style="enable-background:new 0 0 15.5 14.4;" xml:space="preserve">
<style type="text/css">
	.st0{fill:#1A1D29;}
</style>
<path class="st0" d="M14,5.6h-0.9l-2.3,7.8L8.5,5.6H7l-2.3,7.8L2.5,5.6H1.6c-0.8,0-1.4,0.6-1.4,1.5v5.7c0,0.8,0.6,1.4,1.4,1.4h12.3
	c0.8,0,1.4-0.6,1.4-1.4V7.1C15.3,6.3,14.7,5.6,14,5.6z M8.4,11.5H6.3v-0.4h2.1V11.5z M14.4,11.5h-2.1v-0.4h2.1V11.5z M5.7,6L4.8,9.5
	L3.9,6l0.9-0.5L5.7,6z M11.7,6l-0.9,3.6L9.9,6l0.9-0.5L11.7,6z M7,2.5c0,1.3-1,2.3-2.3,2.3s-2.3-1-2.3-2.3s1-2.3,2.3-2.3
	S7,1.2,7,2.5z M13.1,2.5c0,1.3-1,2.3-2.3,2.3s-2.3-1-2.3-2.3s1-2.3,2.3-2.3S13.1,1.2,13.1,2.5z"/>
</svg>
