<?xml version="1.0" encoding="utf-8"?>
<!-- Generator: Adobe Illustrator 24.0.2, SVG Export Plug-In . SVG Version: 6.00 Build 0)  -->
<svg version="1.1" id="Layer_1" xmlns="http://www.w3.org/2000/svg" xmlns:xlink="http://www.w3.org/1999/xlink" x="0px" y="0px"
	 viewBox="0 0 47 47" style="enable-background:new 0 0 47 47;" xml:space="preserve">
<style type="text/css">
	.st0{fill:url(#SVGID_1_);}
	.st1{fill:url(#SVGID_2_);}
	.st2{fill:url(#SVGID_3_);}
	.st3{fill:url(#SVGID_4_);}
	.st4{fill:url(#SVGID_5_);}
	.st5{fill:url(#SVGID_6_);}
	.st6{fill:url(#SVGID_7_);}
	.st7{fill:url(#SVGID_8_);}
	.st8{fill:url(#SVGID_9_);}
	.st9{fill:url(#SVGID_10_);}
	.st10{fill:url(#SVGID_11_);}
	.st11{fill:url(#SVGID_12_);}
	.st12{fill:url(#SVGID_13_);}
	.st13{fill:url(#SVGID_14_);}
	.st14{fill:url(#SVGID_15_);}
	.st15{fill:url(#SVGID_16_);}
	.st16{fill:url(#SVGID_17_);}
	.st17{fill:url(#SVGID_18_);}
	.st18{fill:url(#SVGID_19_);}
	.st19{fill:url(#SVGID_20_);}
	.st20{fill:url(#SVGID_21_);}
	.st21{fill:url(#SVGID_22_);}
</style>
<g>
	<linearGradient id="SVGID_1_" gradientUnits="userSpaceOnUse" x1="4.2236" y1="23.5" x2="42.8436" y2="23.5">
		<stop  offset="0" style="stop-color:#F953C6"/>
		<stop  offset="1" style="stop-color:#B91D73"/>
	</linearGradient>
	<path class="st0" d="M27.4,42.7c0,1,0,1.9,0,2.9c0,0.7-0.3,1-0.9,1c-1.9,0-3.9,0-5.8,0c-0.7,0-0.9-0.3-0.9-0.9c0-0.9,0-1.9,0-2.9
		c-0.2,0-0.4,0-0.7,0c-0.6,0-0.9-0.3-0.9-0.9c0-1.1,0-2.2,0-3.3c0-0.3-0.1-0.4-0.4-0.5c-6.9-2.3-11.3-7.1-13-14.1
		C2.5,14.6,7.9,4.8,16.9,1.6c9.3-3.3,19.4,0.6,23.7,9.4c3.6,7.3,2.8,14.3-2.1,20.7c-2.4,3.1-5.5,5.1-9.2,6.3
		c-0.3,0.1-0.4,0.2-0.4,0.5c0,1.1,0,2.1,0,3.2c0,0.8-0.2,1.1-1,1.1C27.7,42.7,27.6,42.7,27.4,42.7z M23.5,37.4
		c9.8,0,17.7-7.9,17.7-17.7c0-9.8-7.9-17.7-17.7-17.7c-9.7,0-17.7,8-17.7,17.7C5.8,29.4,13.7,37.4,23.5,37.4z M19.7,38.6
		c0,0.8,0,1.7,0,2.6c2.6,0,5.1,0,7.7,0c0-0.9,0-1.8,0-2.6c-1.3,0.1-2.5,0.3-3.8,0.3C22.3,38.9,21,38.7,19.7,38.6z M25.8,42.8
		c-1.5,0-3.1,0-4.6,0c0,0.8,0,1.5,0,2.3c1.5,0,3,0,4.6,0C25.8,44.3,25.8,43.5,25.8,42.8z"/>
	<linearGradient id="SVGID_2_" gradientUnits="userSpaceOnUse" x1="1.936" y1="1.216" x2="3.4669" y2="1.216">
		<stop  offset="0" style="stop-color:#F953C6"/>
		<stop  offset="1" style="stop-color:#B91D73"/>
	</linearGradient>
	<path class="st1" d="M2,2c0-0.5,0-1,0-1.6c0.5,0,1,0,1.5,0c0,0.5,0,1,0,1.6l0,0C3,2,2.4,2,2,2L2,2z"/>
	<linearGradient id="SVGID_3_" gradientUnits="userSpaceOnUse" x1="43.5367" y1="1.2181" x2="45.0677" y2="1.2181">
		<stop  offset="0" style="stop-color:#F953C6"/>
		<stop  offset="1" style="stop-color:#B91D73"/>
	</linearGradient>
	<path class="st2" d="M43.6,2c0-0.5,0-1,0-1.6c0.5,0,1,0,1.5,0c0,0.5,0,1,0,1.6c0,0,0,0,0,0C44.6,2,44,2,43.6,2L43.6,2z"/>
	<linearGradient id="SVGID_4_" gradientUnits="userSpaceOnUse" x1="0.4286" y1="44.3048" x2="1.9983" y2="44.3048">
		<stop  offset="0" style="stop-color:#F953C6"/>
		<stop  offset="1" style="stop-color:#B91D73"/>
	</linearGradient>
	<path class="st3" d="M2,45.1c-0.5,0-1,0-1.6,0c0-0.5,0-1,0-1.5c0.5,0,1,0,1.6,0c0,0,0,0,0,0C2,44,2,44.6,2,45.1
		C2,45.1,2,45.1,2,45.1z"/>
	<linearGradient id="SVGID_5_" gradientUnits="userSpaceOnUse" x1="45.0054" y1="44.3048" x2="46.5709" y2="44.3048">
		<stop  offset="0" style="stop-color:#F953C6"/>
		<stop  offset="1" style="stop-color:#B91D73"/>
	</linearGradient>
	<path class="st4" d="M45,43.6c0.5,0,1,0,1.6,0c0,0.5,0,1,0,1.5c-0.5,0-1,0-1.6,0c0,0,0,0,0,0C45,44.6,45,44,45,43.6L45,43.6z"/>
	<linearGradient id="SVGID_6_" gradientUnits="userSpaceOnUse" x1="0.4317" y1="2.6976" x2="1.9983" y2="2.6976">
		<stop  offset="0" style="stop-color:#F953C6"/>
		<stop  offset="1" style="stop-color:#B91D73"/>
	</linearGradient>
	<path class="st5" d="M2,2C2,2,1.9,2,2,2c0,0.5,0,1,0,1.5l0,0c-0.5,0-1,0-1.6,0c0-0.5,0-1,0-1.5C1,1.9,1.5,2,2,2z"/>
	<linearGradient id="SVGID_7_" gradientUnits="userSpaceOnUse" x1="3.451" y1="2.6959" x2="5.0015" y2="2.6959">
		<stop  offset="0" style="stop-color:#F953C6"/>
		<stop  offset="1" style="stop-color:#B91D73"/>
	</linearGradient>
	<path class="st6" d="M3.5,2C4,2,4.5,1.9,5,1.9c0,0.5,0,1,0,1.5c-0.5,0-1,0-1.6,0l0,0C3.5,3,3.5,2.5,3.5,2L3.5,2z"/>
	<linearGradient id="SVGID_8_" gradientUnits="userSpaceOnUse" x1="42.0152" y1="2.6962" x2="43.5526" y2="2.6962">
		<stop  offset="0" style="stop-color:#F953C6"/>
		<stop  offset="1" style="stop-color:#B91D73"/>
	</linearGradient>
	<path class="st7" d="M43.6,3.5c-0.5,0-1,0-1.5,0c0-0.5,0-1,0-1.5c0.5,0,1,0.1,1.5,0.1c0,0,0,0,0,0C43.5,2.5,43.5,3,43.6,3.5
		L43.6,3.5z"/>
	<linearGradient id="SVGID_9_" gradientUnits="userSpaceOnUse" x1="45.0054" y1="2.6968" x2="46.5714" y2="2.6968">
		<stop  offset="0" style="stop-color:#F953C6"/>
		<stop  offset="1" style="stop-color:#B91D73"/>
	</linearGradient>
	<path class="st8" d="M45.1,2C45.1,2,45,2,45.1,2c0.5,0,1,0,1.5-0.1c0,0.5,0,1,0,1.5c-0.5,0-1,0-1.6,0l0,0C45,3,45.1,2.5,45.1,2z"/>
	<linearGradient id="SVGID_10_" gradientUnits="userSpaceOnUse" x1="1.9206" y1="4.2225" x2="3.4666" y2="4.2225">
		<stop  offset="0" style="stop-color:#F953C6"/>
		<stop  offset="1" style="stop-color:#B91D73"/>
	</linearGradient>
	<path class="st9" d="M3.5,3.5c0,0.5,0,1,0,1.5C3,5,2.5,5,1.9,5C1.9,4.5,2,4,2,3.5c0,0,0,0,0,0C2.5,3.5,3,3.5,3.5,3.5L3.5,3.5z"/>
	<linearGradient id="SVGID_11_" gradientUnits="userSpaceOnUse" x1="43.5371" y1="4.229" x2="45.0837" y2="4.229">
		<stop  offset="0" style="stop-color:#F953C6"/>
		<stop  offset="1" style="stop-color:#B91D73"/>
	</linearGradient>
	<path class="st10" d="M45,3.5c0,0.5,0.1,1,0.1,1.5c-0.5,0-1,0-1.5,0c0-0.5,0-1,0-1.6c0,0,0,0,0,0C44,3.5,44.5,3.5,45,3.5
		C45,3.5,45,3.5,45,3.5z"/>
	<linearGradient id="SVGID_12_" gradientUnits="userSpaceOnUse" x1="1.92" y1="42.78" x2="3.4666" y2="42.78">
		<stop  offset="0" style="stop-color:#F953C6"/>
		<stop  offset="1" style="stop-color:#B91D73"/>
	</linearGradient>
	<path class="st11" d="M2,43.6c0-0.5-0.1-1-0.1-1.5c0.5,0,1,0,1.5,0c0,0.5,0,1,0,1.6l0,0C3,43.5,2.5,43.5,2,43.6L2,43.6z"/>
	<linearGradient id="SVGID_13_" gradientUnits="userSpaceOnUse" x1="43.5371" y1="42.7865" x2="45.083" y2="42.7865">
		<stop  offset="0" style="stop-color:#F953C6"/>
		<stop  offset="1" style="stop-color:#B91D73"/>
	</linearGradient>
	<path class="st12" d="M43.6,43.6c0-0.5,0-1,0-1.5c0.5,0,1,0,1.5,0c0,0.5-0.1,1-0.1,1.5c0,0,0,0,0,0C44.5,43.5,44,43.5,43.6,43.6
		L43.6,43.6z"/>
	<linearGradient id="SVGID_14_" gradientUnits="userSpaceOnUse" x1="3.4513" y1="44.312" x2="4.9885" y2="44.312">
		<stop  offset="0" style="stop-color:#F953C6"/>
		<stop  offset="1" style="stop-color:#B91D73"/>
	</linearGradient>
	<path class="st13" d="M3.5,43.6c0.5,0,1,0,1.5,0c0,0.5,0,1,0,1.5c-0.5,0-1,0-1.5-0.1c0,0,0,0,0,0C3.5,44.5,3.5,44,3.5,43.6
		L3.5,43.6z"/>
	<linearGradient id="SVGID_15_" gradientUnits="userSpaceOnUse" x1="42.0022" y1="44.3123" x2="43.5523" y2="44.3123">
		<stop  offset="0" style="stop-color:#F953C6"/>
		<stop  offset="1" style="stop-color:#B91D73"/>
	</linearGradient>
	<path class="st14" d="M43.6,45c-0.5,0-1,0-1.6,0.1c0-0.5,0-1,0-1.5c0.5,0,1,0,1.6,0l0,0C43.5,44,43.5,44.5,43.6,45L43.6,45z"/>
	<linearGradient id="SVGID_16_" gradientUnits="userSpaceOnUse" x1="1.923" y1="45.7928" x2="3.4669" y2="45.7928">
		<stop  offset="0" style="stop-color:#F953C6"/>
		<stop  offset="1" style="stop-color:#B91D73"/>
	</linearGradient>
	<path class="st15" d="M2,45.1L2,45.1c0.5,0,1,0,1.5,0c0,0,0,0,0,0c0,0.5,0,1,0,1.6c-0.5,0-1,0-1.5,0C1.9,46.1,2,45.6,2,45.1z"/>
	<linearGradient id="SVGID_17_" gradientUnits="userSpaceOnUse" x1="43.5367" y1="45.7925" x2="45.0823" y2="45.7925">
		<stop  offset="0" style="stop-color:#F953C6"/>
		<stop  offset="1" style="stop-color:#B91D73"/>
	</linearGradient>
	<path class="st16" d="M45,45.1C45,45.1,45,45.1,45,45.1c0,0.5,0,1,0.1,1.5c-0.5,0-1,0-1.5,0c0-0.5,0-1,0-1.6c0,0,0,0,0,0
		C44,45,44.5,45.1,45,45.1z"/>
	<linearGradient id="SVGID_18_" gradientUnits="userSpaceOnUse" x1="7.3282" y1="19.6514" x2="39.6753" y2="19.6514">
		<stop  offset="0" style="stop-color:#F953C6"/>
		<stop  offset="1" style="stop-color:#B91D73"/>
	</linearGradient>
	<path class="st17" d="M23.5,3.5c8.9,0,16.2,7.2,16.2,16.1c0,8.9-7.2,16.2-16.1,16.2c-8.9,0-16.2-7.2-16.2-16.2
		C7.3,10.8,14.6,3.5,23.5,3.5z M23.5,34.3c8.1,0,14.6-6.5,14.6-14.6c0-8.1-6.5-14.6-14.6-14.7C15.5,5,8.9,11.6,8.9,19.6
		C8.9,27.7,15.4,34.3,23.5,34.3z"/>
	<linearGradient id="SVGID_19_" gradientUnits="userSpaceOnUse" x1="11.1805" y1="19.6495" x2="35.8231" y2="19.6495">
		<stop  offset="0" style="stop-color:#F953C6"/>
		<stop  offset="1" style="stop-color:#B91D73"/>
	</linearGradient>
	<path class="st18" d="M16.8,29.9c-0.2-0.1-0.3-0.1-0.5-0.2c-1.1-0.8-2-1.7-2.8-2.8c-0.2-0.3-0.3-0.6-0.1-1c0.3-0.5,0.5-1,0.7-1.5
		c0.2-0.5-0.1-1.3-0.6-1.5c-0.6-0.2-1.1-0.4-1.7-0.6c-0.5-0.2-0.7-0.4-0.7-0.9c0-1.2,0-2.4,0-3.6c0-0.5,0.2-0.7,0.6-0.9
		c0.6-0.2,1.2-0.4,1.8-0.6c0.4-0.1,0.8-1,0.6-1.4c-0.2-0.5-0.5-1-0.7-1.6c-0.2-0.4-0.2-0.7,0.1-1c0.8-1.1,1.7-2,2.7-2.7
		c0.3-0.2,0.6-0.3,1-0.1c0.5,0.3,1,0.5,1.6,0.7c0.4,0.2,1.3-0.2,1.4-0.6c0.2-0.6,0.4-1.2,0.6-1.8c0.2-0.5,0.4-0.6,0.9-0.6
		c1.2,0,2.4,0,3.6,0c0.5,0,0.7,0.2,0.9,0.7c0.2,0.6,0.4,1.1,0.6,1.7c0.1,0.2,0.2,0.3,0.4,0.4c0.6,0.4,1.1,0.3,1.7,0
		c0.3-0.2,0.7-0.3,1-0.5c0.3-0.2,0.6-0.1,0.9,0.1c1.1,0.8,2,1.7,2.8,2.8c0.2,0.3,0.2,0.6,0.1,0.9c-0.3,0.5-0.5,1.1-0.8,1.6
		c-0.1,0.1,0,0.3,0,0.5c0.1,0.7,0.5,1,1.2,1.1c0.4,0.1,0.8,0.3,1.2,0.4c0.4,0.1,0.6,0.4,0.6,0.8c0,1.2,0,2.5,0,3.7
		c0,0.4-0.2,0.7-0.6,0.8c-0.6,0.2-1.2,0.4-1.7,0.6c-0.2,0.1-0.3,0.2-0.4,0.4c-0.4,0.5-0.3,1,0,1.6c0.2,0.3,0.3,0.7,0.5,1
		c0.2,0.3,0.1,0.6-0.1,0.9c-0.8,1.1-1.7,2-2.8,2.8c-0.3,0.2-0.6,0.2-0.9,0.1c-0.5-0.2-1-0.5-1.6-0.7c-0.2-0.1-0.4-0.1-0.5,0
		c-0.7,0.1-1,0.5-1.1,1.2c-0.1,0.4-0.3,0.8-0.4,1.2C26,31.8,25.8,32,25.4,32c-1.2,0-2.5,0-3.7,0c-0.4,0-0.7-0.2-0.8-0.6
		c-0.2-0.6-0.4-1.2-0.6-1.8c-0.1-0.4-1-0.8-1.4-0.6c-0.5,0.2-1,0.5-1.6,0.7C17.1,29.8,17,29.8,16.8,29.9z M22.1,8.9
		c-0.2,0.6-0.4,1.2-0.6,1.8c-0.1,0.3-0.3,0.6-0.6,0.7c-0.5,0.2-0.9,0.4-1.4,0.6c-0.3,0.1-0.6,0.1-0.9,0c-0.5-0.2-0.9-0.4-1.4-0.7
		c-0.2-0.1-0.4-0.1-0.5,0.1c-0.5,0.5-1,1-1.4,1.4C15,13,15,13.1,15.1,13.3c0.2,0.5,0.5,0.9,0.7,1.4c0.1,0.3,0.1,0.6,0,0.9
		c-0.1,0.5-0.4,1-0.6,1.4c-0.1,0.2-0.4,0.5-0.6,0.6c-0.5,0.2-1,0.4-1.6,0.5c-0.2,0.1-0.3,0.2-0.3,0.4c0,0.7,0,1.5,0,2.2
		c0,0.2,0.1,0.3,0.3,0.4c0.5,0.2,1.1,0.3,1.6,0.5c0.2,0.1,0.5,0.3,0.6,0.6c0.2,0.5,0.4,0.9,0.6,1.4c0.1,0.3,0.1,0.6,0,0.8
		c-0.2,0.5-0.4,1-0.7,1.5c-0.1,0.2-0.1,0.3,0.1,0.5c0.5,0.5,1,1,1.5,1.5c0.1,0.1,0.3,0.1,0.5,0.1c0.5-0.2,1-0.5,1.5-0.7
		c0.2-0.1,0.6-0.1,0.8,0c0.5,0.1,0.9,0.4,1.4,0.6c0.4,0.1,0.6,0.4,0.7,0.7c0.2,0.5,0.3,1,0.5,1.5c0.1,0.2,0.2,0.3,0.4,0.3
		c0.7,0,1.4,0,2.1,0c0.3,0,0.4-0.1,0.4-0.3c0.2-0.5,0.3-1.1,0.5-1.6c0.1-0.2,0.4-0.5,0.6-0.6c0.4-0.2,0.9-0.4,1.4-0.6
		c0.3-0.1,0.6-0.2,0.9,0c0.5,0.2,1,0.4,1.4,0.7c0.2,0.1,0.4,0.1,0.5-0.1c0.5-0.5,1-1,1.5-1.5c0.2-0.2,0.2-0.3,0.1-0.5
		c-0.2-0.5-0.5-1-0.7-1.4c-0.1-0.3-0.1-0.6,0-0.9c0.2-0.4,0.4-0.9,0.6-1.4c0.1-0.3,0.3-0.5,0.7-0.7c0.5-0.2,1-0.3,1.5-0.5
		c0.2-0.1,0.3-0.2,0.3-0.4c0-0.7,0-1.4,0-2.1c0-0.2-0.1-0.3-0.3-0.4c-0.5-0.2-1-0.3-1.6-0.5c-0.3-0.1-0.5-0.3-0.7-0.7
		c-0.2-0.5-0.3-0.9-0.6-1.3c-0.2-0.3-0.2-0.6,0-0.9c0.2-0.5,0.5-1,0.7-1.4c0.1-0.1,0-0.4-0.1-0.5c-0.5-0.5-1-1-1.5-1.5
		c-0.2-0.2-0.3-0.2-0.5-0.1c-0.5,0.2-1,0.5-1.4,0.7c-0.3,0.2-0.6,0.1-0.9,0c-0.4-0.2-0.9-0.4-1.4-0.6c-0.3-0.1-0.5-0.3-0.6-0.6
		c-0.2-0.5-0.3-1.1-0.5-1.6c0-0.1-0.2-0.3-0.3-0.3C23.8,8.9,23,8.9,22.1,8.9z"/>
	<linearGradient id="SVGID_20_" gradientUnits="userSpaceOnUse" x1="16.5798" y1="19.6566" x2="30.4236" y2="19.6566">
		<stop  offset="0" style="stop-color:#F953C6"/>
		<stop  offset="1" style="stop-color:#B91D73"/>
	</linearGradient>
	<path class="st19" d="M23.5,26.6c-3.8,0-6.9-3.1-6.9-7c0-3.8,3.1-6.9,6.9-6.9c3.8,0,6.9,3.1,6.9,7C30.4,23.5,27.3,26.6,23.5,26.6z
		 M23.5,14.3c-3,0-5.4,2.4-5.4,5.4c0,3,2.4,5.4,5.4,5.4c3,0,5.4-2.4,5.4-5.4C28.9,16.7,26.5,14.3,23.5,14.3z"/>
	<linearGradient id="SVGID_21_" gradientUnits="userSpaceOnUse" x1="22.7724" y1="18.1152" x2="24.2389" y2="18.1152">
		<stop  offset="0" style="stop-color:#F953C6"/>
		<stop  offset="1" style="stop-color:#B91D73"/>
	</linearGradient>
	<path class="st20" d="M24.2,20.4c-0.5,0-1,0-1.5,0c0-1.5,0-3,0-4.6c0.5,0,1,0,1.5,0C24.2,17.4,24.2,18.9,24.2,20.4z"/>
	<linearGradient id="SVGID_22_" gradientUnits="userSpaceOnUse" x1="22.7692" y1="22.7263" x2="24.2334" y2="22.7263">
		<stop  offset="0" style="stop-color:#F953C6"/>
		<stop  offset="1" style="stop-color:#B91D73"/>
	</linearGradient>
	<path class="st21" d="M22.8,22c0.5,0,1,0,1.5,0c0,0.5,0,1,0,1.5c-0.5,0-1,0-1.5,0C22.8,23,22.8,22.5,22.8,22z"/>
</g>
</svg>
