<?xml version="1.0" encoding="utf-8"?>
<!-- Generator: Adobe Illustrator 24.0.2, SVG Export Plug-In . SVG Version: 6.00 Build 0)  -->
<svg version="1.1" id="Layer_1" xmlns="http://www.w3.org/2000/svg" xmlns:xlink="http://www.w3.org/1999/xlink" x="0px" y="0px"
	 viewBox="0 0 65 65" style="enable-background:new 0 0 65 65;" xml:space="preserve">
<style type="text/css">
	.st0{fill:#FFFFFF;}
</style>
<path class="st0" d="M43.5,25.5c-0.3-0.1-0.7,0-1.1,0.1c-0.4,0.2-0.5,0.4-0.7,0.6c-0.1,0.4,0,0.5,0.1,0.7c0.1,0.3,0.4,0.4,0.6,0.5
	c0.3-0.2,0.4-0.3,0.8-0.5c0.2-0.1,0.6-0.1,0.8-0.2c0-0.1,0.2-0.5,0-0.9C43.8,25.6,43.6,25.6,43.5,25.5z"/>
<path class="st0" d="M32.5,0C14.6,0,0,14.6,0,32.5C0,50.4,14.6,65,32.5,65S65,50.4,65,32.5C65,14.6,50.4,0,32.5,0z M52.5,35.2
	c-2.4,1.1-4.5,0.5-7.4-0.8c-0.6-0.3-1.9-1.4-1.9-0.7c0.1,1.9-0.1,2.1,0.7,3c0.1,0.2-0.1,0.5-1.1,0.4c-1.1,0-2.5-1.4-2.5-1.4
	c-1.9,2.9-0.4,7.3-0.5,8.4c-0.3,2.2-1.7,3.4-2.1,3.8c-0.6,0.6-0.2,0.8-0.3,1.2c-0.2,0.5-0.7,1.2-1.4,1.3c-0.8,0.2-6.4-4.2-6.3-4.6
	c0.1-0.4,1-1.4,1.7-1.7c0.4-0.2,0.3-0.6,0.3-0.9c-0.1-0.7-4.6-1.5-5.2-1.2c-0.7,0.7-0.7,3.2-0.7,3.2s0.1,0.4,0.4,0.7
	c0.2,0.5,0.4,1.8,0,2c-1.7,0.8-9.2,0.1-9.7-0.3c-0.3-0.2,0-1.6,0.5-2c1.3-1.1,0.2-5.3,0.2-5.3c-7.4-7.1-4-13.4-4-13.4
	s-0.5,0.7-1.3,0.6c-0.9-0.2-1.4-1.2-1.7-2.2c-0.6-0.3-0.7-0.9-0.5-1.4c0.2-0.5,1.5-1.4,2-2.1c0,0.8-0.5,1.6-0.2,2.1
	c0.3,0.6-0.2,1.1-0.5,1.2c0,0.8,0.6,1.1,1.1,1.2c0.7,0,0.6-1,1.7-2.2c0.4-1.2,1.6-2.6,4.6-4c3-1.4,8.4-1,8.4-1
	c-0.3,0.8-0.4,1.3-1,2.3c-1.5,2.5-5.1,7.3-4.8,8.5c1.5,1.8,1.7,4.4,4.6,4.5c3.2,0.1,6.9-2,9.7-1.8c0.6-1,1.2-1.4,1.1-2.2
	c-0.2-3.7-1.6-6.2-1.1-7.5c-1.1,2.4,0.5,4.9,0.3,7.1c-0.1,0.7-0.2,1.1-0.6,1.6c-2.4-0.3-6.3,1.7-9.1,1.6c-2.5-0.1-2.4-1.9-3.7-3.4
	c-0.3-1.1,2.9-5.3,4-7.4c3.2-5.9,1.3-5.8,2.2-6.8c0.6-0.7,3.1-1.4,6.2-1.6c1.7-0.1,3,2.3,3,2.3s4.2-1.7,7.9,0.3
	c2.4,1.2,2.6,3.5,4.2,6.4c1.4,2.8-0.3,6.7-0.3,6.7s0,1.2,1.6,0.9c0.9-0.2,1.4-0.8,1.6-1.6c0.4-1.4-0.3-1.9-0.4-2.2
	c-0.2-0.9,1.5-0.4,1.7-1c0.3-0.6,0.5-1.1,1.1,0.7C56.3,31.1,54.6,34.3,52.5,35.2z"/>
</svg>
