<?xml version="1.0" encoding="utf-8"?>
<!-- Generator: Adobe Illustrator 24.0.2, SVG Export Plug-In . SVG Version: 6.00 Build 0)  -->
<svg version="1.1" id="Capa_1" xmlns="http://www.w3.org/2000/svg" xmlns:xlink="http://www.w3.org/1999/xlink" x="0px" y="0px"
	 viewBox="0 0 45 45" style="enable-background:new 0 0 45 45;" xml:space="preserve">
<style type="text/css">
	.st0{fill:#07A9F0;}
	.st1{fill:#40C1FA;}
	.st2{fill:#CECECE;}
	.st3{fill:#EBE1DC;}
	.st4{fill:#FF9100;}
	.st5{fill:#F77026;}
	.st6{fill:#FFB52D;}
	.st7{fill:#453D83;}
	.st8{fill:#51489A;}
	.st9{fill:#6A61B4;}
	.st10{fill:#5F55AF;}
</style>
<g>
	<path class="st0" d="M44.6,22.5c0,2.4-0.4,4.7-1.1,6.8h-38v-21c4.1-4.8,10.1-7.9,17-7.9C34.7,0.4,44.6,10.3,44.6,22.5z"/>
	<path class="st1" d="M43.7,28.7C41,37.9,32.5,44.6,22.5,44.6S4,37.9,1.3,28.7H43.7z"/>
	<path class="st2" d="M8.8,21.9l-3-12.8c0-0.2,0.1-0.4,0.2-0.4l23.7-5.6c0.2,0,0.4,0.1,0.4,0.2l3,12.8c0,0.2-0.1,0.4-0.2,0.4
		L9.2,22.1C9,22.1,8.9,22,8.8,21.9L8.8,21.9z"/>
	<path class="st3" d="M10.3,7.3h24.2c0.2,0,0.4,0.2,0.4,0.4v12.9c0,0.2-0.2,0.4-0.4,0.4H10.3c-0.2,0-0.4-0.2-0.4-0.4V7.7
		C9.9,7.5,10.1,7.3,10.3,7.3z"/>
	<path class="st4" d="M11.6,11H1.7C1,11,0.4,10.5,0.4,9.8V7.1c0-0.7,0.6-1.3,1.3-1.3h9.9c0.7,0,1.3,0.6,1.3,1.3v2.7
		C12.9,10.5,12.4,11,11.6,11z"/>
	<path class="st5" d="M4.7,11h-3C1,11,0.4,10.5,0.4,9.8V7.1c0-0.7,0.6-1.3,1.3-1.3h3C4,5.8,3.4,6.4,3.4,7.1v2.7
		C3.4,10.5,4,11,4.7,11z"/>
	<path class="st6" d="M35.4,35.6H1.7c-0.7,0-1.3-0.6-1.3-1.3V9.1h34.9c0.7,0,1.3,0.6,1.3,1.3v23.9C36.7,35,36.1,35.6,35.4,35.6z"/>
	<path class="st4" d="M4.7,35.6h-3c-0.7,0-1.3-0.6-1.3-1.3V9.1h3v25.2C3.4,35,4,35.6,4.7,35.6z"/>
	<path class="st7" d="M14.3,35.8h-0.9V23.7h0.9V35.8z"/>
	<path class="st8" d="M12.9,34.7c0.3-0.1,0.6-0.2,0.9-0.3c0.3,0.1,0.6,0.2,0.9,0.3l1.4,6.9c0.1,0.5-0.2,1-0.8,1
		c-0.5,0.1-1,0.1-1.6,0.1c-0.5,0-1,0-1.6-0.1c-0.5-0.1-0.9-0.5-0.8-1L12.9,34.7z"/>
	<path class="st7" d="M14.4,42.7c-0.2,0-0.4,0-0.6,0c-0.5,0-1,0-1.6-0.1c-0.5-0.1-0.9-0.5-0.8-1l1.4-6.9c0.3-0.1,0.6-0.2,0.9-0.3
		c0.2,0.1,0.4,0.1,0.6,0.2c-0.1,0-0.2,0.1-0.3,0.1l-1.4,6.9c-0.1,0.5,0.2,1,0.8,1C13.8,42.6,14.1,42.7,14.4,42.7L14.4,42.7z"/>
	<path class="st9" d="M13.8,36.3c-0.7,0-1.3-0.6-1.3-1.3V35c0-0.7,0.6-1.3,1.3-1.3c0.7,0,1.3,0.6,1.3,1.3V35
		C15.1,35.8,14.6,36.3,13.8,36.3z"/>
	<path class="st8" d="M36.6,38.5c-0.1,0.4-0.4,0.8-0.8,1c-2.4,0.9-5,1.4-7.8,1.4s-5.4-0.5-7.8-1.4c-0.4-0.2-0.7-0.5-0.8-1l-2.8-13.2
		h22.8L36.6,38.5z"/>
	<path class="st7" d="M26.4,40.8c-2.2-0.2-4.3-0.6-6.3-1.4c-0.4-0.2-0.7-0.5-0.8-1l-2.8-13.2h7.9c-0.1,1.1-0.1,2.1-0.1,3.2
		C24.4,32.8,25.1,37,26.4,40.8L26.4,40.8z"/>
	<path class="st10" d="M44.3,24l-14.8,6.1c-1,0.4-2,0.4-3,0L11.7,24c-0.4-0.2-0.4-0.7,0-0.8L26.5,17c1-0.4,2-0.4,3,0l14.8,6.1
		C44.7,23.3,44.7,23.8,44.3,24z"/>
	<path class="st9" d="M44.3,24l-8.8,3.7c-7.2-0.8-12.5-3.5-12.5-6.7c0-1.2,0.7-2.3,2-3.3l1.6-0.6c1-0.4,2-0.4,3,0l14.8,6.1
		C44.7,23.3,44.7,23.8,44.3,24z"/>
</g>
</svg>
