<?xml version="1.0" encoding="UTF-8"?>
<svg xmlns="http://www.w3.org/2000/svg" xmlns:xlink="http://www.w3.org/1999/xlink" width="47pt" height="47pt" viewBox="0 0 47 47" version="1.1">
<g id="surface1">
<path style=" stroke:none;fill-rule:nonzero;fill:rgb(2.745098%,66.27451%,94.117647%);fill-opacity:1;" d="M 46 23.5 C 46 35.925781 35.925781 46 23.5 46 C 11.074219 46 1 35.925781 1 23.5 C 1 11.074219 11.074219 1 23.5 1 C 35.925781 1 46 11.074219 46 23.5 Z M 46 23.5 "/>
<path style=" stroke:none;fill-rule:nonzero;fill:rgb(25.098039%,75.686275%,98.039216%);fill-opacity:1;" d="M 45 29.898438 C 42.300781 39.199219 33.601562 46 23.5 46 C 13.398438 46 4.601562 39.199219 2 29.898438 Z M 45 29.898438 "/>
<path style=" stroke:none;fill-rule:nonzero;fill:rgb(20.784314%,28.627451%,36.862745%);fill-opacity:1;" d="M 7.699219 35.300781 L 6.5 16.699219 C 6.5 16.5 6.5 16.300781 6.5 16.101562 C 6.699219 14 8.300781 12.300781 10.5 12.199219 L 16.800781 11.699219 L 14 35.699219 Z M 7.699219 35.300781 "/>
<path style=" stroke:none;fill-rule:nonzero;fill:rgb(17.254902%,24.313725%,31.372549%);fill-opacity:1;" d="M 31.699219 37 C 31.5 37.5 31.101562 37.699219 30.601562 37.699219 L 12.101562 39 C 10.898438 39.101562 9.800781 38.601562 8.898438 37.800781 C 8.101562 37 7.601562 35.800781 7.699219 34.601562 C 7.898438 32.601562 9.398438 31 11.398438 30.800781 L 16.398438 32.800781 L 11.699219 33.101562 C 11.199219 33.101562 10.800781 33.398438 10.300781 33.800781 C 10 34.199219 9.898438 34.699219 10 35.300781 C 10.300781 36 11.101562 36.699219 11.898438 36.601562 L 26.199219 35.699219 Z M 31.699219 37 "/>
<path style=" stroke:none;fill-rule:nonzero;fill:rgb(97.647059%,91.764706%,69.019608%);fill-opacity:1;" d="M 16.398438 32.898438 L 11.699219 33.199219 C 11.199219 33.199219 10.800781 33.5 10.300781 33.898438 C 10 34.300781 9.898438 34.800781 10 35.398438 C 10.300781 36.101562 11.101562 36.800781 11.898438 36.699219 L 26.199219 35.800781 Z M 16.398438 32.898438 "/>
<path style=" stroke:none;fill-rule:nonzero;fill:rgb(90.196078%,29.803922%,23.529412%);fill-opacity:1;" d="M 13 24.699219 L 18.199219 6.800781 C 18.300781 6.199219 19 5.800781 19.601562 6 L 37.398438 11.101562 C 39.398438 11.699219 40.699219 13.601562 40.398438 15.601562 C 40.398438 15.800781 40.300781 16 40.300781 16.101562 L 35.300781 34 Z M 13 24.699219 "/>
<path style=" stroke:none;fill-rule:nonzero;fill:rgb(24.705882%,36.078431%,42.352941%);fill-opacity:1;" d="M 33.300781 13.5 L 20.300781 9.699219 C 20 9.601562 19.800781 9.300781 19.898438 9.101562 C 20 8.800781 20.300781 8.601562 20.5 8.699219 L 33.398438 12.398438 C 33.699219 12.5 33.898438 12.800781 33.800781 13 C 33.800781 13.398438 33.601562 13.5 33.300781 13.5 Z M 33.300781 13.5 "/>
<path style=" stroke:none;fill-rule:nonzero;fill:rgb(24.705882%,36.078431%,42.352941%);fill-opacity:1;" d="M 30.199219 15.699219 L 21.699219 13.300781 C 21.398438 13.199219 21.199219 12.898438 21.300781 12.699219 C 21.398438 12.398438 21.699219 12.199219 21.898438 12.300781 L 30.300781 14.699219 C 30.601562 14.800781 30.800781 15.101562 30.699219 15.300781 C 30.699219 15.5 30.5 15.800781 30.199219 15.699219 Z M 30.199219 15.699219 "/>
<path style=" stroke:none;fill-rule:nonzero;fill:rgb(92.54902%,94.117647%,94.509804%);fill-opacity:1;" d="M 19.398438 14.898438 L 31.199219 18.300781 C 31.5 18.398438 31.699219 18.699219 31.601562 18.898438 L 29.898438 24.601562 C 29.800781 24.898438 29.5 25.101562 29.300781 25 L 17.5 21.601562 C 17.199219 21.5 17 21.199219 17.101562 21 L 18.800781 15.398438 C 18.800781 15 19.101562 14.800781 19.398438 14.898438 Z M 19.398438 14.898438 "/>
<path style=" stroke:none;fill-rule:nonzero;fill:rgb(75.294118%,22.745098%,16.862745%);fill-opacity:1;" d="M 40.398438 15.699219 C 40.398438 15.898438 40.300781 16.101562 40.300781 16.199219 L 35.101562 34.101562 L 30.800781 32.300781 L 35 17.800781 L 35.898438 14.398438 L 36.800781 10.898438 L 37.199219 11 C 39.398438 11.601562 40.699219 13.5 40.398438 15.699219 Z M 40.398438 15.699219 "/>
<path style=" stroke:none;fill-rule:nonzero;fill:rgb(50.196078%,18.431373%,20.392157%);fill-opacity:1;" d="M 32.199219 29 L 14.398438 23.898438 C 14.300781 23.898438 14.300781 23.898438 14.199219 23.898438 C 13.601562 23.800781 13 24.300781 12.898438 24.800781 C 12.800781 25.398438 13.199219 26 13.699219 26.199219 L 31.601562 31.300781 C 32.101562 31.5 32.5 31.800781 32.800781 32.199219 C 33 32.699219 33 33.300781 32.699219 33.800781 C 32.300781 34.5 31.398438 34.898438 30.601562 34.601562 L 12.699219 29.398438 C 12.601562 29.398438 12.601562 29.398438 12.5 29.398438 C 11.898438 29.300781 11.300781 29.800781 11.199219 30.300781 C 11.101562 30.800781 11.5 31.5 12 31.699219 L 29.898438 36.800781 C 31.101562 37.101562 32.199219 37 33.300781 36.300781 C 34.199219 35.699219 35 34.601562 35.101562 33.5 C 35.5 31.5 34.199219 29.5 32.199219 29 Z M 32.199219 29 "/>
<path style=" stroke:none;fill-rule:nonzero;fill:rgb(97.647059%,91.764706%,69.019608%);fill-opacity:1;" d="M 32.800781 33.699219 C 32.398438 34.398438 31.5 34.800781 30.699219 34.5 L 12.898438 29.398438 L 13.800781 26 L 31.699219 31.101562 C 32.199219 31.300781 32.601562 31.601562 32.898438 32 C 33 32.800781 33 33.199219 32.800781 33.699219 Z M 32.800781 33.699219 "/>
</g>
</svg>
