<?xml version="1.0" encoding="UTF-8"?>
<svg xmlns="http://www.w3.org/2000/svg" xmlns:xlink="http://www.w3.org/1999/xlink" width="47pt" height="47pt" viewBox="0 0 47 47" version="1.1">
<g id="surface1">
<path style=" stroke:none;fill-rule:nonzero;fill:rgb(2.745098%,66.27451%,94.117647%);fill-opacity:1;" d="M 46 23.5 C 46 25.898438 45.601562 28.300781 44.898438 30.398438 L 1.5 29.898438 C 0.5 22.300781 0.5 15 5.800781 9 C 10 4.101562 16.199219 1 23.300781 1 C 35.800781 1 46 11.101562 46 23.5 Z M 46 23.5 "/>
<path style=" stroke:none;fill-rule:nonzero;fill:rgb(25.098039%,75.686275%,98.039216%);fill-opacity:1;" d="M 45 29.898438 C 42.199219 39.199219 33.5 46 23.300781 46 C 13.101562 46 4.300781 39.199219 1.601562 29.898438 Z M 45 29.898438 "/>
<path style=" stroke:none;fill-rule:nonzero;fill:rgb(25.098039%,43.921569%,57.647059%);fill-opacity:1;" d="M 22.601562 42.300781 C 23.5 42.300781 24.398438 41.398438 24.398438 40.398438 L 24.398438 34.5 L 18.398438 34.5 L 18.398438 40.398438 C 18.398438 41.398438 19.199219 42.300781 20.199219 42.300781 Z M 22.601562 42.300781 "/>
<path style=" stroke:none;fill-rule:nonzero;fill:rgb(21.176471%,36.862745%,49.019608%);fill-opacity:1;" d="M 24.101562 34.5 L 24.101562 40.398438 C 24.101562 41.398438 23.300781 42.300781 22.300781 42.300781 L 26.699219 42.300781 C 27.601562 42.300781 28.5 41.398438 28.5 40.398438 L 28.5 34.5 Z M 24.101562 34.5 "/>
<path style=" stroke:none;fill-rule:nonzero;fill:rgb(100%,87.843137%,49.019608%);fill-opacity:1;" d="M 28.398438 26.398438 C 30.398438 24 31.601562 21 31.601562 17.601562 C 31.601562 11.601562 27.898438 6.699219 22.898438 5 L 21.300781 5 C 15.699219 6.101562 11.5 11.398438 11.5 17.699219 C 11.5 21.101562 12.699219 24 14.699219 26.398438 C 16.898438 29 18.300781 32.101562 18.699219 35.601562 L 24.5 35.601562 C 24.898438 32 26.199219 28.898438 28.398438 26.398438 Z M 28.398438 26.398438 "/>
<path style=" stroke:none;fill-rule:nonzero;fill:rgb(100%,81.568627%,39.215686%);fill-opacity:1;" d="M 31.101562 17.601562 C 31.101562 21 29.898438 24 27.898438 26.300781 C 25.699219 28.898438 24.300781 32 23.898438 35.5 L 28.300781 35.5 C 28.699219 32.101562 30.101562 28.898438 32.300781 26.300781 C 34.300781 24 35.5 21 35.5 17.601562 C 35.5 10.5 30 4.601562 23.398438 4.800781 C 22.699219 4.800781 21.898438 4.898438 21.300781 5 C 26.898438 6 31.101562 11.300781 31.101562 17.601562 Z M 31.101562 17.601562 "/>
<path style=" stroke:none;fill-rule:nonzero;fill:rgb(89.411765%,96.470588%,100%);fill-opacity:1;" d="M 26.300781 32.699219 C 26.300781 31.898438 25.699219 31.300781 25 31.300781 L 17.800781 31.300781 C 17.101562 31.300781 16.5 32 16.5 32.699219 C 16.5 33.398438 17.101562 34.101562 17.800781 34.101562 L 25 34.101562 C 25.699219 34 26.300781 33.398438 26.300781 32.699219 Z M 26.300781 32.699219 "/>
<path style=" stroke:none;fill-rule:nonzero;fill:rgb(84.705882%,88.627451%,94.509804%);fill-opacity:1;" d="M 26.300781 35.398438 C 26.300781 34.601562 25.699219 34 25 34 L 17.800781 34 C 17.101562 34 16.5 34.699219 16.5 35.398438 C 16.5 36.199219 17.101562 36.800781 17.800781 36.800781 L 25 36.800781 C 25.699219 36.898438 26.300781 36.199219 26.300781 35.398438 Z M 26.300781 35.398438 "/>
<path style=" stroke:none;fill-rule:nonzero;fill:rgb(89.411765%,96.470588%,100%);fill-opacity:1;" d="M 25.101562 39.601562 C 25.800781 39.601562 26.398438 38.898438 26.398438 38.199219 C 26.398438 37.5 25.800781 36.800781 25.101562 36.800781 L 17.898438 36.800781 C 17.199219 36.800781 16.601562 37.5 16.601562 38.199219 C 16.601562 39 17.199219 39.601562 17.898438 39.601562 Z M 25.101562 39.601562 "/>
<path style=" stroke:none;fill-rule:nonzero;fill:rgb(84.705882%,88.627451%,94.509804%);fill-opacity:1;" d="M 29.199219 31.199219 L 24.800781 31.199219 C 25.5 31.199219 26.101562 31.898438 26.101562 32.601562 C 26.101562 33.398438 25.5 34 24.800781 34 L 29.199219 34 C 29.898438 34 30.5 33.300781 30.5 32.601562 C 30.601562 31.898438 29.898438 31.199219 29.199219 31.199219 Z M 29.199219 31.199219 "/>
<path style=" stroke:none;fill-rule:nonzero;fill:rgb(72.54902%,79.607843%,91.764706%);fill-opacity:1;" d="M 29.199219 34 L 24.800781 34 C 25.5 34 26.101562 34.699219 26.101562 35.398438 C 26.101562 36.199219 25.5 36.800781 24.800781 36.800781 L 29.199219 36.800781 C 29.898438 36.800781 30.5 36.101562 30.5 35.398438 C 30.601562 34.699219 29.898438 34 29.199219 34 Z M 29.199219 34 "/>
<path style=" stroke:none;fill-rule:nonzero;fill:rgb(84.705882%,88.627451%,94.509804%);fill-opacity:1;" d="M 29.199219 36.898438 L 24.800781 36.898438 C 25.5 36.898438 26.101562 37.601562 26.101562 38.300781 C 26.101562 39 25.5 39.699219 24.800781 39.699219 L 29.199219 39.699219 C 29.898438 39.699219 30.5 39 30.5 38.300781 C 30.398438 37.5 29.898438 36.898438 29.199219 36.898438 Z M 29.199219 36.898438 "/>
<path style=" stroke:none;fill-rule:nonzero;fill:rgb(95.686275%,98.431373%,100%);fill-opacity:1;" d="M 32.199219 18.300781 L 32.199219 16.699219 C 32.199219 16.199219 31.898438 15.898438 31.5 15.898438 L 31.300781 15.898438 C 31 15.898438 30.699219 15.699219 30.601562 15.300781 C 30.5 14.699219 30.300781 14.300781 30 13.699219 C 29.800781 13.398438 29.898438 13 30.101562 12.699219 C 30.398438 12.398438 30.398438 11.800781 30.101562 11.601562 L 29 10.5 C 28.699219 10.199219 28.199219 10.199219 27.898438 10.5 C 27.699219 10.699219 27.300781 10.800781 27 10.601562 C 26.601562 10.398438 26.101562 10 25.5 9.898438 C 25.199219 9.800781 25 9.5 25 9.101562 C 25 8.601562 24.699219 8.300781 24.300781 8.300781 L 22.800781 8.300781 C 22.398438 8.300781 22.101562 8.601562 22.101562 9.101562 C 22.101562 9.398438 21.898438 9.800781 21.601562 9.898438 C 21 10 20.398438 10.300781 20 10.601562 C 19.699219 10.800781 19.300781 10.699219 19.101562 10.5 C 18.800781 10.199219 18.300781 10.199219 18 10.5 L 17 11.601562 C 16.699219 11.898438 16.699219 12.5 17 12.699219 C 17.199219 12.898438 17.300781 13.398438 17.101562 13.699219 C 16.898438 14.199219 16.699219 14.699219 16.5 15.300781 C 16.398438 15.601562 16.101562 15.898438 15.800781 15.898438 L 15.699219 15.898438 C 15.300781 15.898438 15 16.199219 15 16.699219 L 15 18.300781 C 15 18.800781 15.300781 19.101562 15.699219 19.101562 L 15.800781 19.101562 C 16.101562 19.101562 16.398438 19.300781 16.5 19.699219 C 16.601562 20.300781 16.800781 20.699219 17.101562 21.199219 C 17.300781 21.5 17.199219 21.898438 17 22.199219 L 16.898438 22.300781 C 16.601562 22.601562 16.601562 23.199219 16.898438 23.398438 L 18 24.5 C 18.300781 24.800781 18.800781 24.800781 19.101562 24.5 L 19.300781 24.300781 C 19.5 24.101562 19.898438 24 20.199219 24.199219 C 20.601562 24.398438 21.101562 24.699219 21.601562 24.800781 C 21.898438 24.898438 22.101562 25.300781 22.101562 25.601562 L 22.101562 25.800781 C 22.101562 26.300781 22.398438 26.601562 22.800781 26.601562 L 24.300781 26.601562 C 24.699219 26.601562 25 26.300781 25 25.800781 L 25 25.601562 C 25 25.300781 25.199219 24.898438 25.5 24.800781 C 26 24.699219 26.398438 24.5 26.898438 24.199219 C 27.199219 24 27.5 24.101562 27.800781 24.300781 L 28 24.5 C 28.300781 24.800781 28.800781 24.800781 29.101562 24.5 L 30.199219 23.398438 C 30.5 23.101562 30.5 22.5 30.199219 22.300781 L 30 22.101562 C 29.800781 21.898438 29.699219 21.398438 29.898438 21.101562 C 30.101562 20.601562 30.300781 20.101562 30.5 19.601562 C 30.601562 19.300781 30.898438 19 31.199219 19 L 31.300781 19 C 31.800781 19.101562 32.199219 18.699219 32.199219 18.300781 Z M 32.199219 18.300781 "/>
<path style=" stroke:none;fill-rule:nonzero;fill:rgb(79.607843%,88.627451%,100%);fill-opacity:1;" d="M 28.601562 17.199219 C 28.601562 14.21875 26.316406 11.800781 23.5 11.800781 C 20.683594 11.800781 18.398438 14.21875 18.398438 17.199219 C 18.398438 20.183594 20.683594 22.601562 23.5 22.601562 C 26.316406 22.601562 28.601562 20.183594 28.601562 17.199219 Z M 28.601562 17.199219 "/>
<path style=" stroke:none;fill-rule:nonzero;fill:rgb(25.098039%,43.921569%,57.647059%);fill-opacity:1;" d="M 23.5 22.699219 C 25.101562 22.699219 26.398438 21.898438 27.398438 20.800781 C 26.699219 19.300781 25.199219 18.300781 23.5 18.300781 C 21.800781 18.300781 20.300781 19.300781 19.601562 20.800781 C 20.601562 21.898438 21.898438 22.699219 23.5 22.699219 Z M 23.5 22.699219 "/>
<path style=" stroke:none;fill-rule:nonzero;fill:rgb(21.176471%,36.862745%,49.019608%);fill-opacity:1;" d="M 25.398438 16.699219 C 25.398438 15.59375 24.550781 14.699219 23.5 14.699219 C 22.449219 14.699219 21.601562 15.59375 21.601562 16.699219 C 21.601562 17.804688 22.449219 18.699219 23.5 18.699219 C 24.550781 18.699219 25.398438 17.804688 25.398438 16.699219 Z M 25.398438 16.699219 "/>
</g>
</svg>
