<?xml version="1.0" encoding="utf-8"?>
<!-- Generator: Adobe Illustrator 24.0.2, SVG Export Plug-In . SVG Version: 6.00 Build 0)  -->
<svg version="1.1" id="Layer_1" xmlns="http://www.w3.org/2000/svg" xmlns:xlink="http://www.w3.org/1999/xlink" x="0px" y="0px"
	 viewBox="0 0 37 35" style="enable-background:new 0 0 37 35;" xml:space="preserve">
<style type="text/css">
	.st0{fill:url(#SVGID_1_);}
	.st1{fill:url(#SVGID_2_);}
	.st2{fill:url(#SVGID_3_);}
	.st3{fill:url(#SVGID_4_);}
	.st4{fill:url(#SVGID_5_);}
	.st5{fill:url(#SVGID_6_);}
	.st6{fill:url(#SVGID_7_);}
	.st7{fill:url(#SVGID_8_);}
	.st8{fill:url(#SVGID_9_);}
	.st9{fill:url(#SVGID_10_);}
	.st10{fill:url(#SVGID_11_);}
	.st11{fill:url(#SVGID_12_);}
	.st12{fill:url(#SVGID_13_);}
	.st13{fill:url(#SVGID_14_);}
	.st14{fill:url(#SVGID_15_);}
	.st15{fill:url(#SVGID_16_);}
	.st16{fill:url(#SVGID_17_);}
</style>
<g>
	<linearGradient id="SVGID_1_" gradientUnits="userSpaceOnUse" x1="0.5" y1="12.9839" x2="36.5" y2="12.9839">
		<stop  offset="0" style="stop-color:#AD5388"/>
		<stop  offset="1" style="stop-color:#432F90"/>
	</linearGradient>
	<path class="st0" d="M35.9,0H1.1C0.8,0,0.5,0.3,0.5,0.6v20.3c0,0.3,0.3,0.6,0.6,0.6h1.7v3.4H4v-4.5c0-1.5,1.2-2.7,2.6-2.8l-0.8,2
		c-0.1,0.1-0.1,0.3,0,0.4l1.2,3.4c0.1,0.2,0.3,0.4,0.6,0.4c0.2,0,0.5-0.2,0.6-0.4l1.2-3.4c0-0.1,0-0.3,0-0.4l-0.8-2h1.9
		c0.2,0,0.5-0.1,0.6-0.2l4.6-3l0.5,0.8l-4.8,3.3c-0.5,0.3-0.7,0.8-0.7,1.4V26h1.2v-4.5h24.4c0.3,0,0.6-0.3,0.6-0.6V0.6
		C36.5,0.3,36.2,0,35.9,0z M7.5,21.4l-0.5-1.6l0.5-1.3L8,19.8L7.5,21.4z M7.5,16.4c-1.2,0-2.2-0.9-2.3-2.1c0.7-0.5,1.5-0.7,2.3-0.7
		c0.8,0,1.6,0.3,2.3,0.7C9.7,15.4,8.7,16.4,7.5,16.4z M5.6,12.7c0.4-0.5,1.1-0.9,1.8-0.9c0.7,0,1.4,0.4,1.8,0.9
		c-0.6-0.2-1.2-0.3-1.8-0.3C6.8,12.4,6.2,12.5,5.6,12.7z M35.3,20.3H11.5v-0.5c0-0.2,0.1-0.4,0.2-0.5l4.8-3.3c0.5-0.3,0.6-1,0.3-1.5
		l4.8-3.4l-0.7-0.9l-4.7,3.3c-0.4-0.4-1-0.5-1.5-0.2l-4.6,3h-0.1c0.6-0.6,0.9-1.4,0.9-2.3c0-1.9-1.6-3.4-3.5-3.4S4,12.2,4,14.1
		c0,1,0.5,2,1.3,2.6c-1.4,0.6-2.4,2-2.4,3.6H1.7V1.1h33.7V20.3z"/>
	<linearGradient id="SVGID_2_" gradientUnits="userSpaceOnUse" x1="0.5" y1="30.2016" x2="8.6291" y2="30.2016">
		<stop  offset="0" style="stop-color:#AD5388"/>
		<stop  offset="1" style="stop-color:#432F90"/>
	</linearGradient>
	<path class="st1" d="M6.2,30.5C7,30,7.5,29.2,7.5,28.2c0-1.6-1.3-2.8-2.9-2.8s-2.9,1.3-2.9,2.8c0,1,0.5,1.8,1.3,2.3
		c-1.4,0.5-2.4,1.8-2.4,3.3V35h1.2v-1.1c0-1.2,0.9-2.2,2.2-2.4h1.5c1.2,0.1,2.2,1.2,2.2,2.4V35h1.2v-1.1C8.6,32.3,7.6,31,6.2,30.5z
		 M4.6,29.9c-1,0-1.7-0.8-1.7-1.7c0-0.9,0.8-1.7,1.7-1.7s1.7,0.8,1.7,1.7C6.3,29.2,5.5,29.9,4.6,29.9z"/>
	<linearGradient id="SVGID_3_" gradientUnits="userSpaceOnUse" x1="9.7904" y1="30.2016" x2="17.9193" y2="30.2016">
		<stop  offset="0" style="stop-color:#AD5388"/>
		<stop  offset="1" style="stop-color:#432F90"/>
	</linearGradient>
	<path class="st2" d="M15.5,30.5c0.8-0.5,1.3-1.4,1.3-2.3c0-1.6-1.3-2.8-2.9-2.8c-1.6,0-2.9,1.3-2.9,2.8c0,1,0.5,1.8,1.3,2.3
		c-1.4,0.5-2.4,1.8-2.4,3.3V35H11v-1.1c0-1.2,0.9-2.2,2.2-2.4h1.5c1.2,0.1,2.2,1.2,2.2,2.4V35h1.2v-1.1C17.9,32.3,16.9,31,15.5,30.5
		z M13.9,29.9c-1,0-1.7-0.8-1.7-1.7c0-0.9,0.8-1.7,1.7-1.7s1.7,0.8,1.7,1.7C15.6,29.2,14.8,29.9,13.9,29.9z"/>
	<linearGradient id="SVGID_4_" gradientUnits="userSpaceOnUse" x1="19.0807" y1="30.2016" x2="27.2096" y2="30.2016">
		<stop  offset="0" style="stop-color:#AD5388"/>
		<stop  offset="1" style="stop-color:#432F90"/>
	</linearGradient>
	<path class="st3" d="M24.8,30.5c0.8-0.5,1.3-1.4,1.3-2.3c0-1.6-1.3-2.8-2.9-2.8c-1.6,0-2.9,1.3-2.9,2.8c0,1,0.5,1.8,1.3,2.3
		c-1.4,0.5-2.4,1.8-2.4,3.3V35h1.2v-1.1c0-1.2,0.9-2.2,2.2-2.4h1.5c1.2,0.1,2.2,1.2,2.2,2.4V35h1.2v-1.1
		C27.2,32.3,26.2,31,24.8,30.5z M23.1,29.9c-1,0-1.7-0.8-1.7-1.7c0-0.9,0.8-1.7,1.7-1.7c1,0,1.7,0.8,1.7,1.7
		C24.9,29.2,24.1,29.9,23.1,29.9z"/>
	<linearGradient id="SVGID_5_" gradientUnits="userSpaceOnUse" x1="28.3709" y1="30.2016" x2="36.5" y2="30.2016">
		<stop  offset="0" style="stop-color:#AD5388"/>
		<stop  offset="1" style="stop-color:#432F90"/>
	</linearGradient>
	<path class="st4" d="M34.1,30.5c0.8-0.5,1.3-1.4,1.3-2.3c0-1.6-1.3-2.8-2.9-2.8c-1.6,0-2.9,1.3-2.9,2.8c0,1,0.5,1.8,1.3,2.3
		c-1.4,0.5-2.4,1.8-2.4,3.3V35h1.2v-1.1c0-1.2,0.9-2.2,2.2-2.4h1.5c1.2,0.1,2.2,1.2,2.2,2.4V35h1.2v-1.1
		C36.5,32.3,35.5,31,34.1,30.5z M32.4,29.9c-1,0-1.7-0.8-1.7-1.7c0-0.9,0.8-1.7,1.7-1.7c1,0,1.7,0.8,1.7,1.7
		C34.2,29.2,33.4,29.9,32.4,29.9z"/>
	<linearGradient id="SVGID_6_" gradientUnits="userSpaceOnUse" x1="29.5323" y1="3.9518" x2="34.1775" y2="3.9518">
		<stop  offset="0" style="stop-color:#AD5388"/>
		<stop  offset="1" style="stop-color:#432F90"/>
	</linearGradient>
	<path class="st5" d="M30.4,4.6l-0.2,0.9c0,0.2,0.1,0.4,0.2,0.6s0.4,0.1,0.6,0l0.8-0.4l0.8,0.4c0.1,0,0.2,0.1,0.3,0.1
		c0.1,0,0.2,0,0.3-0.1c0.2-0.1,0.3-0.3,0.2-0.6l-0.2-0.9L34,3.9c0.2-0.2,0.2-0.4,0.1-0.6C34.1,3.2,33.9,3,33.7,3l-0.9-0.1L32.4,2
		c-0.1-0.2-0.3-0.3-0.5-0.3c-0.2,0-0.4,0.1-0.5,0.3l-0.4,0.8L30,3c-0.2,0-0.4,0.2-0.5,0.4c-0.1,0.2,0,0.4,0.1,0.6L30.4,4.6z
		 M31.4,3.9c0.2,0,0.4-0.1,0.4-0.3l0,0l0,0c0.1,0.2,0.2,0.3,0.4,0.3l0.1,0L32.3,4c-0.1,0.1-0.2,0.3-0.2,0.5l0,0.1l0,0
		c-0.1,0-0.2-0.1-0.3-0.1c-0.1,0-0.2,0-0.3,0.1l0,0l0-0.1C31.6,4.3,31.5,4.2,31.4,3.9L31.4,3.9L31.4,3.9z"/>
	<linearGradient id="SVGID_7_" gradientUnits="userSpaceOnUse" x1="21.9839" y1="9.5968" x2="25.4678" y2="9.5968">
		<stop  offset="0" style="stop-color:#AD5388"/>
		<stop  offset="1" style="stop-color:#432F90"/>
	</linearGradient>
	<path class="st6" d="M23.7,11.3c1,0,1.7-0.8,1.7-1.7s-0.8-1.7-1.7-1.7c-1,0-1.7,0.8-1.7,1.7S22.8,11.3,23.7,11.3z M23.7,9
		c0.3,0,0.6,0.3,0.6,0.6c0,0.3-0.3,0.6-0.6,0.6c-0.3,0-0.6-0.3-0.6-0.6C23.1,9.3,23.4,9,23.7,9z"/>
	<linearGradient id="SVGID_8_" gradientUnits="userSpaceOnUse" x1="3.4033" y1="2.8226" x2="7.4678" y2="2.8226">
		<stop  offset="0" style="stop-color:#AD5388"/>
		<stop  offset="1" style="stop-color:#432F90"/>
	</linearGradient>
	<rect x="3.4" y="2.3" class="st7" width="4.1" height="1.1"/>
	<linearGradient id="SVGID_9_" gradientUnits="userSpaceOnUse" x1="8.6291" y1="2.8226" x2="15.5967" y2="2.8226">
		<stop  offset="0" style="stop-color:#AD5388"/>
		<stop  offset="1" style="stop-color:#432F90"/>
	</linearGradient>
	<rect x="8.6" y="2.3" class="st8" width="7" height="1.1"/>
	<linearGradient id="SVGID_10_" gradientUnits="userSpaceOnUse" x1="3.4033" y1="5.0807" x2="4.5646" y2="5.0807">
		<stop  offset="0" style="stop-color:#AD5388"/>
		<stop  offset="1" style="stop-color:#432F90"/>
	</linearGradient>
	<rect x="3.4" y="4.5" class="st9" width="1.2" height="1.1"/>
	<linearGradient id="SVGID_11_" gradientUnits="userSpaceOnUse" x1="3.4033" y1="7.3387" x2="10.3709" y2="7.3387">
		<stop  offset="0" style="stop-color:#AD5388"/>
		<stop  offset="1" style="stop-color:#432F90"/>
	</linearGradient>
	<rect x="3.4" y="6.8" class="st10" width="7" height="1.1"/>
	<linearGradient id="SVGID_12_" gradientUnits="userSpaceOnUse" x1="5.7257" y1="5.0807" x2="15.5967" y2="5.0807">
		<stop  offset="0" style="stop-color:#AD5388"/>
		<stop  offset="1" style="stop-color:#432F90"/>
	</linearGradient>
	<rect x="5.7" y="4.5" class="st11" width="9.9" height="1.1"/>
	<linearGradient id="SVGID_13_" gradientUnits="userSpaceOnUse" x1="11.5322" y1="7.3387" x2="15.5967" y2="7.3387">
		<stop  offset="0" style="stop-color:#AD5388"/>
		<stop  offset="1" style="stop-color:#432F90"/>
	</linearGradient>
	<rect x="11.5" y="6.8" class="st12" width="4.1" height="1.1"/>
	<linearGradient id="SVGID_14_" gradientUnits="userSpaceOnUse" x1="31.2741" y1="7.3387" x2="32.4354" y2="7.3387">
		<stop  offset="0" style="stop-color:#AD5388"/>
		<stop  offset="1" style="stop-color:#432F90"/>
	</linearGradient>
	<rect x="31.3" y="6.8" class="st13" width="1.2" height="1.1"/>
	<linearGradient id="SVGID_15_" gradientUnits="userSpaceOnUse" x1="31.2741" y1="9.5968" x2="32.4354" y2="9.5968">
		<stop  offset="0" style="stop-color:#AD5388"/>
		<stop  offset="1" style="stop-color:#432F90"/>
	</linearGradient>
	<rect x="31.3" y="9" class="st14" width="1.2" height="1.1"/>
	<linearGradient id="SVGID_16_" gradientUnits="userSpaceOnUse" x1="28.9517" y1="9.5968" x2="30.1128" y2="9.5968">
		<stop  offset="0" style="stop-color:#AD5388"/>
		<stop  offset="1" style="stop-color:#432F90"/>
	</linearGradient>
	<rect x="29" y="9" class="st15" width="1.2" height="1.1"/>
	<linearGradient id="SVGID_17_" gradientUnits="userSpaceOnUse" x1="26.6291" y1="9.5968" x2="27.7904" y2="9.5968">
		<stop  offset="0" style="stop-color:#AD5388"/>
		<stop  offset="1" style="stop-color:#432F90"/>
	</linearGradient>
	<rect x="26.6" y="9" class="st16" width="1.2" height="1.1"/>
</g>
</svg>
