<?xml version="1.0" encoding="utf-8"?>
<!-- Generator: Adobe Illustrator 24.0.2, SVG Export Plug-In . SVG Version: 6.00 Build 0)  -->
<svg version="1.1" id="Layer_1" xmlns="http://www.w3.org/2000/svg" xmlns:xlink="http://www.w3.org/1999/xlink" x="0px" y="0px"
	 viewBox="0 0 62 44" style="enable-background:new 0 0 62 44;" xml:space="preserve">
<style type="text/css">
	.st0{fill:url(#SVGID_1_);}
	.st1{fill:url(#SVGID_2_);}
	.st2{fill:url(#SVGID_3_);}
	.st3{fill:url(#SVGID_4_);}
	.st4{fill:url(#SVGID_5_);}
	.st5{fill:url(#SVGID_6_);}
	.st6{fill:url(#SVGID_7_);}
</style>
<g>
	<g>
		<linearGradient id="SVGID_1_" gradientUnits="userSpaceOnUse" x1="7.9017" y1="28.5896" x2="51.7904" y2="28.5896">
			<stop  offset="0" style="stop-color:#8E2DE2"/>
			<stop  offset="1" style="stop-color:#4A00E0"/>
		</linearGradient>
		<path class="st0" d="M37.1,13.5c0.1,0.4,0.1,0.7,0.1,1.1v1h3.2v-2H37.1z M49.7,24.7v11.6c0,0.2-0.2,0.4-0.4,0.4H10.4
			c-0.2,0-0.4-0.2-0.4-0.4V18.9c-0.7,0-1.4,0-2.1-0.1v22.4c0,1.3,1.1,2.4,2.5,2.4h38.8c1.4,0,2.5-1.1,2.5-2.4V22.6L49.7,24.7z
			 M13.3,39.8l-1.8,1c-0.1,0.1-0.3,0-0.3-0.2v-2c0-0.2,0.2-0.3,0.3-0.2l1.8,1C13.5,39.5,13.5,39.7,13.3,39.8z M47.2,40.3H16.1
			c-0.4,0-0.7-0.3-0.7-0.7c0-0.4,0.3-0.7,0.7-0.7h31.1c0.4,0,0.7,0.3,0.7,0.7C47.9,40,47.6,40.3,47.2,40.3z M21.3,15.6v-1
			c0-0.4,0-0.7,0.1-1.1h-2.8c-0.2,0.3-0.3,0.6-0.5,0.8l0.2,1.2H21.3z"/>
		<g>
			<linearGradient id="SVGID_2_" gradientUnits="userSpaceOnUse" x1="19.5758" y1="21.8389" x2="38.8733" y2="21.8389">
				<stop  offset="0" style="stop-color:#8E2DE2"/>
				<stop  offset="1" style="stop-color:#4A00E0"/>
			</linearGradient>
			<path class="st1" d="M35.4,25.5V14.6c0-3.3-2.8-6-6.2-6c-3.4,0-6.2,2.7-6.2,6v10.9c-2,0.8-3.4,2.7-3.4,4.9V35h19.3v-4.6
				C38.9,28.2,37.4,26.3,35.4,25.5z M29.2,28.5c-1.9,0-3.4-1.4-3.6-3.1c0.7-0.1,1.4-0.5,1.8-1.2c0.6,0.2,1.2,0.3,1.8,0.3
				c0.6,0,1.2-0.1,1.8-0.3c0.4,0.6,1,1.1,1.8,1.2C32.6,27.2,31.1,28.5,29.2,28.5z M33.2,19.9c0,2.1-1.8,3.8-4,3.8
				c-2.2,0-4-1.7-4-3.8l0.1-2.8c0-0.1,0-0.2,0-0.2c0.5-1.4,2.1-2,3.3-1.4c1,0.4,2.4,2.1,4.7,1L33.2,19.9z"/>
			<g>
				<linearGradient id="SVGID_3_" gradientUnits="userSpaceOnUse" x1="30.4014" y1="18.9698" x2="32.1327" y2="18.9698">
					<stop  offset="0" style="stop-color:#8E2DE2"/>
					<stop  offset="1" style="stop-color:#4A00E0"/>
				</linearGradient>
				<path class="st2" d="M32.1,19c0,0.5-0.4,0.8-0.9,0.8c-0.5,0-0.9-0.4-0.9-0.8s0.4-0.8,0.9-0.8C31.7,18.1,32.1,18.5,32.1,19z"/>
				<linearGradient id="SVGID_4_" gradientUnits="userSpaceOnUse" x1="26.3099" y1="18.9698" x2="28.0412" y2="18.9698">
					<stop  offset="0" style="stop-color:#8E2DE2"/>
					<stop  offset="1" style="stop-color:#4A00E0"/>
				</linearGradient>
				<path class="st3" d="M28,19c0,0.5-0.4,0.8-0.9,0.8c-0.5,0-0.9-0.4-0.9-0.8s0.4-0.8,0.9-0.8C27.7,18.1,28,18.5,28,19z"/>
			</g>
			<linearGradient id="SVGID_5_" gradientUnits="userSpaceOnUse" x1="27.5983" y1="21.7463" x2="30.8443" y2="21.7463">
				<stop  offset="0" style="stop-color:#8E2DE2"/>
				<stop  offset="1" style="stop-color:#4A00E0"/>
			</linearGradient>
			<path class="st4" d="M27.6,21.2c0.2,0.7,0.9,1.1,1.6,1.1c0.8,0,1.4-0.5,1.6-1.1H27.6z"/>
		</g>
	</g>
	<linearGradient id="SVGID_6_" gradientUnits="userSpaceOnUse" x1="42.0809" y1="17.3805" x2="61.5" y2="17.3805">
		<stop  offset="0" style="stop-color:#8E2DE2"/>
		<stop  offset="1" style="stop-color:#4A00E0"/>
	</linearGradient>
	<path class="st5" d="M59.5,8.8H44.1c-1.1,0-2,0.9-2,1.9V19c0,1.1,0.9,1.9,2,1.9h1v4.4c0,0.5,0.7,0.8,1,0.4l5.1-4.9h8.4
		c1.1,0,2-0.9,2-1.9v-8.2C61.5,9.7,60.6,8.8,59.5,8.8z M57.5,18.3H46c-0.3,0-0.6-0.3-0.6-0.6c0-0.3,0.3-0.6,0.6-0.6h11.5
		c0.3,0,0.6,0.3,0.6,0.6C58.2,18.1,57.9,18.3,57.5,18.3z M57.5,15.4H46c-0.3,0-0.6-0.3-0.6-0.6c0-0.3,0.3-0.6,0.6-0.6h11.5
		c0.3,0,0.6,0.3,0.6,0.6C58.2,15.2,57.9,15.4,57.5,15.4z M57.5,12.6H46c-0.3,0-0.6-0.3-0.6-0.6c0-0.3,0.3-0.6,0.6-0.6h11.5
		c0.3,0,0.6,0.3,0.6,0.6C58.2,12.3,57.9,12.6,57.5,12.6z"/>
	<g>
		<linearGradient id="SVGID_7_" gradientUnits="userSpaceOnUse" x1="0.5" y1="10.4626" x2="18.0416" y2="10.4626">
			<stop  offset="0" style="stop-color:#8E2DE2"/>
			<stop  offset="1" style="stop-color:#4A00E0"/>
		</linearGradient>
		<path class="st6" d="M16.3,14.7l-0.1-0.8c1.1-1.4,1.8-3.2,1.8-5.1c0-4.7-3.9-8.4-8.8-8.4c-4.9,0-8.8,3.8-8.8,8.4
			c0,3,1.6,5.7,4.1,7.2c1.9,1.2,4.3,1.5,6.3,1.1l5.4,3.4c0.3,0.2,0.8-0.1,0.7-0.4l-0.5-3.3L16.3,14.7z M9.3,2.9
			c1.2,0,2.2,0.9,2.2,2.1c0,1.2-1,2.1-2.2,2.1S7.1,6.1,7.1,5C7.1,3.8,8.1,2.9,9.3,2.9z M4.3,12.4c0-2.6,2.2-4.8,5-4.8
			c2.7,0,5,2.1,5,4.8C14.2,12.4,4.3,12.4,4.3,12.4z"/>
	</g>
</g>
</svg>
