<?xml version="1.0" encoding="utf-8"?>
<!-- Generator: Adobe Illustrator 24.0.2, SVG Export Plug-In . SVG Version: 6.00 Build 0)  -->
<svg version="1.1" id="Layer_1" xmlns="http://www.w3.org/2000/svg" xmlns:xlink="http://www.w3.org/1999/xlink" x="0px" y="0px"
	 viewBox="0 0 153 118" style="enable-background:new 0 0 153 118;" xml:space="preserve">
<style type="text/css">
	.st0{fill:#FEAC0D;}
</style>
<g>
	<path class="st0" d="M61.5,96.1c-0.3-0.1-0.4-0.2-0.6-0.3c-2-0.8-4-1.5-5.9-2.4c-7.4-3.6-13.2-8.5-17.3-15.1
		c-3.9-6.4-5.4-13.3-5.4-20.5c0-1.1,0-1.1,1.3-1.1c12.2,0,24.4,0,36.5,0c1.1,0,1.1,0,1.1-1c0-17.8,0-35.5,0-53.3c0-1,0-1-1.1-1
		c-22.6,0-45.3,0-67.9,0C1,1.4,1,1.4,1,2.4C1,20.7,1,39,1,57.3c0,1.8,0.1,3.6,0.3,5.3c0.7,5.8,2.1,11.5,4.5,17
		c3.8,9,9.5,16.8,17.5,23.2c7.8,6.3,16.9,10.6,26.9,13.5c0.6,0.2,0.9,0.1,1.2-0.5c3-5.9,6-11.7,9-17.6
		C60.8,97.5,61.1,96.8,61.5,96.1z"/>
	<path class="st0" d="M61.5,96.1c-0.4,0.7-0.7,1.5-1.1,2.2c-3,5.9-6,11.7-9,17.6c-0.3,0.5-0.5,0.7-1.2,0.5
		c-10-2.9-19.1-7.2-26.9-13.5c-8-6.4-13.7-14.2-17.5-23.2c-2.3-5.5-3.8-11.1-4.5-17C1.1,60.8,1,59.1,1,57.3C1,39,1,20.7,1,2.4
		c0-1,0-1,1.1-1c22.6,0,45.3,0,67.9,0c1.1,0,1.1,0,1.1,1c0,17.8,0,35.5,0,53.3c0,1,0,1-1.1,1c-12.2,0-24.4,0-36.5,0
		c-1.2,0-1.3,0-1.3,1.1c0,7.2,1.5,14.1,5.4,20.5c4.1,6.6,9.9,11.6,17.3,15.1c1.9,0.9,3.9,1.6,5.9,2.4C61,95.9,61.2,96,61.5,96.1z"/>
	<path class="st0" d="M142.3,96.1c-0.4,0.7-0.7,1.5-1.1,2.2c-3,5.9-6,11.7-9,17.6c-0.3,0.5-0.5,0.7-1.2,0.5
		c-10-2.9-19.1-7.2-26.9-13.5c-8-6.4-13.7-14.2-17.5-23.2c-2.3-5.5-3.8-11.1-4.5-17c-0.2-1.8-0.3-3.6-0.3-5.3c0-18.3,0-36.6,0-54.9
		c0-1,0-1,1.1-1c22.6,0,45.3,0,67.9,0c1.1,0,1.1,0,1.1,1c0,17.8,0,35.5,0,53.3c0,1,0,1-1.1,1c-12.2,0-24.4,0-36.5,0
		c-1.2,0-1.3,0-1.3,1.1c0,7.2,1.5,14.1,5.4,20.5c4.1,6.6,9.9,11.6,17.3,15.1c1.9,0.9,3.9,1.6,5.9,2.4C141.9,95.9,142,96,142.3,96.1z
		"/>
</g>
</svg>
