<?xml version="1.0" encoding="utf-8"?>
<!-- Generator: Adobe Illustrator 24.0.2, SVG Export Plug-In . SVG Version: 6.00 Build 0)  -->
<svg version="1.1" id="Layer_3" xmlns="http://www.w3.org/2000/svg" xmlns:xlink="http://www.w3.org/1999/xlink" x="0px" y="0px"
	 viewBox="0 0 45 45" style="enable-background:new 0 0 45 45;" xml:space="preserve">
<style type="text/css">
	.st0{fill:#E39854;}
	.st1{fill:#606060;}
	.st2{fill:#8C8787;}
	.st3{fill:#D5CEC2;}
	.st4{fill:#E7E4DD;}
	.st5{fill:#FADFB2;}
	.st6{fill:#C18E59;}
	.st7{fill:#EFBE9A;}
	.st8{fill:#C16B3F;}
	.st9{fill:#F2C351;}
	.st10{fill:#F7D881;}
</style>
<g>
	<path class="st0" d="M14,23.3l2.8,2.8l2.8-2.8l9.2,1.5c2.1,0.3,3.6,2.1,3.6,4.2v14.8H1.2V29c0-2.1,1.5-3.9,3.6-4.2L14,23.3z"/>
	<path class="st1" d="M43.1,43.9H23.2c-0.4,0-0.7-0.3-0.7-0.7V29c0-0.4,0.3-0.7,0.7-0.7h19.9c0.4,0,0.7,0.3,0.7,0.7v14.2
		C43.8,43.6,43.5,43.9,43.1,43.9z"/>
	<path class="st2" d="M22.5,40.8c0,0,0.1,0,0.1,0c7.2,0,13.1-5.5,13.7-12.5H23.2c-0.4,0-0.7,0.3-0.7,0.7V40.8z"/>
	<path class="st3" d="M43.8,31.1c0,2.4-1.9,4.3-4.3,4.3H26.8c-2.4,0-4.3-1.9-4.3-4.3V29c0-0.4,0.3-0.7,0.7-0.7h19.9
		c0.4,0,0.7,0.3,0.7,0.7V31.1z"/>
	<path class="st4" d="M36.4,28.3H23.2c-0.4,0-0.7,0.3-0.7,0.7v2.1c0,2.4,1.9,4.3,4.3,4.3h6.8C35.1,33.3,36.1,30.9,36.4,28.3z"/>
	<path class="st3" d="M43.8,41v2.1c0,0.4-0.3,0.7-0.7,0.7H23.2c-0.4,0-0.7-0.3-0.7-0.7V41H43.8z"/>
	<path class="st3" d="M15.4,24.7l-0.7,2.1l1.4,2.1h1.4l1.4-2.1l-0.7-2.1"/>
	<path class="st5" d="M21.8,7.7l-1.1,0.9c-1.1,0.8-2.5,1.3-3.8,1.3S14.1,9.4,13,8.5l-1.1-0.9l-1.4,2.8v4.3c0,2.5,1.4,4.7,3.5,5.7
		v2.8l2.8,2.8l2.8-2.8v-2.8c2.1-1,3.5-3.2,3.5-5.7v-4.3L21.8,7.7z"/>
	<path class="st6" d="M23.2,11.2L24,9.3c0.6-1.5,0.5-3.2-0.3-4.6c-0.5-0.9-1.3-1.6-2.2-2l-2-0.9c-0.8-0.4-1.8-0.6-2.7-0.6
		c-1.4,0-2.8,0.5-3.9,1.3l-1.2,0.9c-1,0.2-1.9,0.8-2.4,1.7C8.7,6.3,8.6,7.7,9.2,8.8l1.2,2.4v-0.7l1.4-2.8L13,8.5
		c1.1,0.8,2.5,1.3,3.8,1.3c1.4,0,2.7-0.4,3.8-1.3l1.1-0.9l1.4,2.8V11.2z"/>
	<path class="st7" d="M10.4,11.2H9c-0.8,0-1.4,0.6-1.4,1.4c0,0.8,0.6,1.4,1.4,1.4h1.4"/>
	<path class="st7" d="M23.2,11.2h1.4c0.8,0,1.4,0.6,1.4,1.4c0,0.8-0.6,1.4-1.4,1.4h-1.4"/>
	<g>
		<path class="st8" d="M7.6,31.1H9v12.8H7.6V31.1z"/>
	</g>
	<path class="st4" d="M17.5,29l1.4,3.5l-2.1,9.2l-2.1-9.2l1.4-3.5"/>
	<path class="st9" d="M33.1,38.2c-0.8,0-1.4-0.6-1.4-1.4v-4.3h2.8v4.3C34.6,37.6,33.9,38.2,33.1,38.2z"/>
	<g>
		<path class="st2" d="M37.4,28.3l0-2.8c0-0.4-0.3-0.7-0.7-0.7h-7.1c-0.4,0-0.7,0.3-0.7,0.7v2.8l-1.4,0v-2.8c0-1.2,1-2.1,2.1-2.1
			h7.1c1.2,0,2.1,1,2.1,2.1l0,2.8L37.4,28.3z"/>
	</g>
	<path class="st10" d="M34.6,33.9v-1.4h-2.8v4.3c0,0.2,0,0.3,0.1,0.5C32.9,36.3,33.8,35.2,34.6,33.9L34.6,33.9z"/>
	<path d="M43.1,27.5h-4.3v-2.1c0-1.2-1-2.1-2.1-2.1h-7.1c-0.6,0-1.2,0.3-1.5,0.7l-7.7-1.3v-1.8c2.1-1.2,3.5-3.5,3.5-6.1h0.7
		c1.2,0,2.1-1,2.1-2.1c0-1.2-1-2.1-2.1-2.1h-0.3l0.4-0.9c0.7-1.7,0.6-3.6-0.3-5.2c-0.6-1-1.5-1.8-2.5-2.3l-2-0.9
		c-2.3-1.1-5.2-0.8-7.3,0.8l-1.1,0.8l0,0c-1.1,0.3-2.1,1-2.7,2C8,6.2,7.9,7.7,8.6,9.1l0.7,1.4H9c-1.2,0-2.1,1-2.1,2.1
		c0,1.2,1,2.1,2.1,2.1h0.7c0,2.6,1.4,4.9,3.5,6.1v1.8l-8.6,1.4c-2.4,0.4-4.2,2.5-4.2,4.9v14.8c0,0.4,0.3,0.7,0.7,0.7h22h0.7h19.2
		c0.8,0,1.4-0.6,1.4-1.4V29C44.5,28.2,43.9,27.5,43.1,27.5z M43.1,31.1c0,2-1.6,3.5-3.5,3.5h-4.3v-2.1c0-0.4-0.3-0.7-0.7-0.7h-2.8
		c-0.4,0-0.7,0.3-0.7,0.7v2.1h-4.3c-2,0-3.5-1.6-3.5-3.5V29h19.9L43.1,31.1z M23.2,34.6c0.9,0.9,2.2,1.5,3.5,1.5H31v0.7
		c0,1.2,1,2.1,2.1,2.1c1.2,0,2.1-1,2.1-2.1v-0.7h4.3c1.4,0,2.6-0.6,3.5-1.5l0,5.8H23.2V34.6z M32.4,36.8v-3.5h1.4v3.5
		c0,0.4-0.3,0.7-0.7,0.7h0C32.7,37.5,32.4,37.2,32.4,36.8z M28.9,25.6c1.1,0.2,2,1,2.5,2h-2.5V25.6z M37.4,25.4v2.1h-4.5
		c-0.4-1.2-1.2-2.2-2.3-2.8h6.1C37.1,24.7,37.4,25,37.4,25.4z M25.3,12.6c0,0.4-0.3,0.7-0.7,0.7h-0.7v-1.4h0.7
		C25,11.9,25.3,12.3,25.3,12.6z M10,5.6c0.5-0.9,1.5-1.5,2.6-1.5c1.1,0,2.1,0.6,2.8,1.5l0.2,0.3l1.2-0.8l-0.2-0.3
		c-0.6-1-1.6-1.6-2.7-1.9c1.6-1,3.7-1.2,5.4-0.4l2,0.9c0.8,0.4,1.5,1,1.9,1.7c0.7,1.2,0.8,2.7,0.3,3.9l0,0.1l-0.9-1.8
		C22.3,7.2,22.2,7,21.9,7c-0.2,0-0.4,0-0.6,0.1L20.2,8c-1,0.7-2.2,1.1-3.4,1.1S14.4,8.7,13.4,8l-1.1-0.9C12.1,7,11.9,6.9,11.7,7
		c-0.2,0-0.4,0.2-0.5,0.4l-1,1.9L9.8,8.5C9.4,7.5,9.4,6.5,10,5.6L10,5.6z M9,13.4c-0.4,0-0.7-0.3-0.7-0.7c0-0.4,0.3-0.7,0.7-0.7h0.7
		v1.4H9z M11.1,14.8v-4.1l1-1.9l0.5,0.3c1.2,0.9,2.7,1.4,4.3,1.4s3-0.5,4.3-1.4l0.5-0.3l1,1.9v4.1c0,3.1-2.5,5.7-5.7,5.7
		C13.7,20.5,11.1,17.9,11.1,14.8z M16.8,21.9c0.7,0,1.5-0.1,2.1-0.3V23l-2.1,2.1L14.7,23v-1.5C15.4,21.8,16.1,21.9,16.8,21.9
		L16.8,21.9z M16.6,29.7H17l1.2,2.9l-1.4,6l-1.4-6L16.6,29.7z M18.2,26.7l-1,1.5h-0.7l-1-1.5l0.2-0.7l0.6,0.6
		c0.1,0.1,0.3,0.2,0.5,0.2c0.2,0,0.4-0.1,0.5-0.2l0.6-0.6L18.2,26.7z M9,43.2V31.1H7.6v12.1H1.9V29c0-1.7,1.2-3.2,3-3.5l8.9-1.5
		l0.9,0.9L14,26.6c-0.1,0.2,0,0.4,0.1,0.6l1.2,1.8L14,32.3c-0.1,0.1-0.1,0.3,0,0.4l2.1,9.2c0.1,0.3,0.4,0.5,0.7,0.5
		c0.3,0,0.6-0.2,0.7-0.5l2.1-9.2c0-0.1,0-0.3,0-0.4L18.3,29l1.2-1.8c0.1-0.2,0.2-0.4,0.1-0.6l-0.6-1.7l0.9-0.9l7.6,1.3
		c0,0,0,0.1,0,0.1v2.1h-4.3c-0.8,0-1.4,0.6-1.4,1.4v2.1v0v12.1H9z M23.9,43.2h-0.7v-1.4h19.9v1.4H23.9z"/>
</g>
</svg>
