<?xml version="1.0" encoding="utf-8"?>
<!-- Generator: Adobe Illustrator 24.0.2, SVG Export Plug-In . SVG Version: 6.00 Build 0)  -->
<svg version="1.1" id="Layer_1" xmlns="http://www.w3.org/2000/svg" xmlns:xlink="http://www.w3.org/1999/xlink" x="0px" y="0px"
	 width="43px" height="43px" viewBox="0 0 43 43" style="enable-background:new 0 0 43 43;" xml:space="preserve">
<style type="text/css">
	.st0{fill:#E8834D;}
	.st1{fill:#D66E41;}
	.st2{fill:#365E7D;}
	.st3{fill:#2B4D66;}
	.st4{fill:#407093;}
	.st5{fill:#FFE27A;}
	.st6{fill:#F9CF58;}
</style>
<g>
	<g>
		<path class="st0" d="M28.1,2.6c-0.1-0.1-0.7-0.6-1.8-1.1c-1.4-0.7-3.1-1-4.8-1c-1.7,0-3.4,0.4-4.8,1c-1.1,0.5-1.8,1.1-1.8,1.1
			c-0.3,0.3-0.5,0.8-0.5,1.3v2.5l1.4,0.8l1.4-0.8V4.8c0.8-0.4,2.3-1.1,4.4-1.1c2.1,0,3.7,0.7,4.4,1.1v1.6l1.4,0.8l1.4-0.8V3.9
			C28.7,3.4,28.5,2.9,28.1,2.6L28.1,2.6z"/>
		<g>
			<path class="st1" d="M14.3,6.4v1.7l1.4,0.8l1.4-0.8V6.4H14.3z"/>
			<path class="st1" d="M28.7,6.4h-2.8v1.7l1.4,0.8l1.4-0.8V6.4z"/>
		</g>
		<path class="st2" d="M1.6,25.5v14c0,1.7,1.2,3,2.6,3h34.6c1.5,0,2.6-1.3,2.6-3v-14H1.6z"/>
		<path class="st3" d="M1.6,23.7v1.7c2.2,2,8,5.8,19.9,5.8s17.7-3.9,19.9-5.8v-1.7L1.6,23.7L1.6,23.7z"/>
		<path class="st4" d="M1.5,22.7c2.1,2,7.9,6,20,6s17.9-4,20-6c0.6-0.6,1-2.3,1-3.2v-8.4c0-1.7-1.2-3-2.6-3H3.1
			c-1.5,0-2.6,1.3-2.6,3v8.4C0.5,20.4,0.9,22.1,1.5,22.7z"/>
		<path class="st2" d="M41.5,21.9c-2.1,2-7.9,6-20,6s-17.9-4-20-6c-0.6-0.6-1-1.4-1-2.3v1.7c0,0.9,0.4,1.8,1,2.3c2.1,2,7.9,6,20,6
			s17.9-4,20-6c0.6-0.6,1-1.4,1-2.3v-1.7C42.5,20.4,42.1,21.3,41.5,21.9z"/>
		<path class="st5" d="M21.5,32.5c1.4,0,2.5-1.2,2.5-3.7v-1.7c0-0.6-0.4-1-0.9-1h-3.2c-0.5,0-0.9,0.4-0.9,1v1.7
			C19,31.3,20.1,32.5,21.5,32.5z"/>
		<path class="st6" d="M21.5,31.6c-1.4,0-2.5-1.3-2.5-2.8v1.7c0,1.6,1.1,2.8,2.5,2.8c1.4,0,2.5-1.3,2.5-2.8v-1.7
			C24,30.4,22.9,31.6,21.5,31.6L21.5,31.6z"/>
	</g>
</g>
</svg>
