<?xml version="1.0" encoding="utf-8"?>
<!-- Generator: Adobe Illustrator 24.0.2, SVG Export Plug-In . SVG Version: 6.00 Build 0)  -->
<svg version="1.1" id="Layer_1" xmlns="http://www.w3.org/2000/svg" xmlns:xlink="http://www.w3.org/1999/xlink" x="0px" y="0px"
	 viewBox="0 0 45 45" style="enable-background:new 0 0 45 45;" xml:space="preserve">
<style type="text/css">
	.st0{fill:#FFFFFF;}
</style>
<title>languages-flags-translation-english-japan-translat</title>
<g>
	<path class="st0" d="M13,22.5c-5.3,0-9.5,4.3-9.5,9.5s4.3,9.5,9.5,9.5s9.5-4.3,9.5-9.5C22.5,26.8,18.2,22.5,13,22.5z M13,40.1
		c-4.5,0-8.1-3.6-8.1-8.1S8.5,24,13,24S21,27.6,21,32C21,36.5,17.4,40.1,13,40.1z"/>
	<path class="st0" d="M13,28.4c-2,0-3.7,1.6-3.7,3.7s1.6,3.7,3.7,3.7s3.7-1.6,3.7-3.7C16.6,30,15,28.4,13,28.4z M13,34.2
		c-1.2,0-2.2-1-2.2-2.2s1-2.2,2.2-2.2s2.2,1,2.2,2.2S14.2,34.2,13,34.2z"/>
	<path class="st0" d="M13,19.6c-1.4,0.1-2.9,0.3-4.3,0.7l-4.1-2.8c-0.3-0.2-0.8-0.1-1,0.2c-0.1,0.1-0.1,0.3-0.1,0.4V24
		C-1,29.3-0.3,37.2,5,41.6s13.1,3.7,17.6-1.5s3.7-13.1-1.5-17.6C18.7,20.6,15.9,19.6,13,19.6z M13,43.1c-6.1,0-11-4.9-11-11
		c0-2.7,1-5.3,2.8-7.3c0.1-0.1,0.2-0.3,0.2-0.5v-4.8l3.3,2.2c0.2,0.1,0.4,0.2,0.6,0.1c1.4-0.4,2.8-0.6,4.2-0.7C19,21,24,26,24,32
		S19,43.1,13,43.1z"/>
	<path class="st0" d="M32,0.5c-6.9,0-12.5,5.6-12.5,12.5S25.1,25.4,32,25.4c1.4-0.1,2.9-0.3,4.3-0.7l4.1,2.8c0.3,0.2,0.8,0.1,1-0.2
		c0.1-0.1,0.1-0.3,0.1-0.4V21c4.4-5.3,3.8-13.1-1.5-17.6C37.8,1.5,35,0.5,32,0.5z M40.3,20.2c-0.1,0.1-0.2,0.3-0.2,0.5v4.8l-3.3-2.2
		c-0.1-0.1-0.3-0.1-0.4-0.1c-0.1,0-0.1,0-0.2,0c-1.4,0.4-2.8,0.6-4.2,0.7c-6.1,0-11-4.9-11.1-11s4.9-11,11-11.1
		c6.1,0,11,4.9,11.1,11C43,15.6,42.1,18.2,40.3,20.2z"/>
	<path class="st0" d="M39.5,7.1c-0.1-0.1-0.2-0.3-0.3-0.4c0,0,0-0.1-0.1-0.1S39.1,6.6,39,6.5c-0.2-0.2-0.4-0.4-0.6-0.6
		c-0.1,0-0.1-0.1-0.2-0.1c-0.2-0.2-0.4-0.3-0.6-0.5c0,0-0.1-0.1-0.1-0.1c-0.2-0.2-0.5-0.3-0.7-0.5c0,0-0.1,0-0.1-0.1
		c-0.3-0.2-0.5-0.3-0.8-0.4c0,0,0,0-0.1,0C35.6,4.1,35.3,4,35,3.9l0,0c-0.3-0.1-0.6-0.2-1-0.3h0c-0.3-0.1-0.6-0.1-0.9-0.2
		c0,0,0,0,0,0c-5.2-0.6-9.9,3.2-10.5,8.5c0,0.3-0.1,0.7-0.1,1c0,0.3,0,0.6,0,0.9c0,0.1,0,0.3,0.1,0.4c0,0.1,0,0.3,0.1,0.4
		c0,0.2,0.1,0.4,0.1,0.6c0,0.1,0,0.1,0.1,0.2c0.1,0.2,0.1,0.4,0.2,0.6c0,0,0,0,0,0s0,0,0,0c0.1,0.2,0.1,0.4,0.2,0.6v0
		c0.1,0.2,0.2,0.5,0.3,0.7c0.1,0.1,0.2,0.3,0.2,0.4c0.1,0.1,0.1,0.2,0.2,0.3c0,0,0,0,0,0.1c0,0.1,0.1,0.1,0.1,0.2
		c0.1,0.1,0.2,0.2,0.3,0.4c0,0,0,0,0.1,0.1c0.1,0.1,0.2,0.3,0.3,0.4c0,0,0.1,0.1,0.1,0.1c0,0,0,0,0,0c0.2,0.2,0.5,0.5,0.7,0.7
		c0,0,0,0,0,0c0,0,0.1,0,0.1,0.1c0.2,0.1,0.3,0.3,0.5,0.4c0.1,0.1,0.1,0.1,0.2,0.1c0.2,0.1,0.3,0.2,0.5,0.4c0.1,0,0.1,0.1,0.2,0.1
		c0.2,0.1,0.4,0.2,0.5,0.3c0.1,0,0.2,0.1,0.3,0.1c0.2,0.1,0.4,0.2,0.5,0.2c0.1,0,0.2,0.1,0.3,0.1c0.2,0.1,0.4,0.1,0.5,0.2
		c0.1,0,0.2,0.1,0.4,0.1c0.2,0,0.3,0.1,0.5,0.1c0.2,0,0.3,0.1,0.5,0.1c0.1,0,0.3,0,0.4,0.1c0.3,0,0.6,0,0.9,0c0.3,0,0.7,0,1-0.1
		c0,0,0,0,0,0c0.3,0,0.6-0.1,0.9-0.2h0c0.3-0.1,0.6-0.2,1-0.3l0,0c0.3-0.1,0.6-0.2,0.9-0.3c0,0,0,0,0.1,0c0.3-0.1,0.5-0.3,0.8-0.4
		c0,0,0.1,0,0.1-0.1c0.2-0.1,0.5-0.3,0.7-0.5c0,0,0.1-0.1,0.1-0.1c0.2-0.2,0.4-0.3,0.6-0.5c0.1,0,0.1-0.1,0.2-0.1
		c0.2-0.2,0.4-0.4,0.6-0.6c0,0,0.1-0.1,0.1-0.1l0,0c0,0,0.1-0.1,0.1-0.2c0.1-0.1,0.2-0.2,0.3-0.3c0,0,0.1-0.1,0.1-0.1
		c0.1-0.1,0.2-0.2,0.2-0.3c0-0.1,0.1-0.1,0.1-0.2c0,0,0-0.1,0.1-0.1c0.1-0.1,0.1-0.2,0.2-0.3c0.1-0.1,0.2-0.2,0.2-0.4
		c0.1-0.2,0.2-0.5,0.3-0.7v0c0.1-0.2,0.2-0.4,0.2-0.6c0,0,0,0,0,0c0,0,0,0,0,0c0.1-0.2,0.1-0.4,0.2-0.6c0-0.1,0-0.1,0.1-0.2
		c0-0.2,0.1-0.4,0.1-0.6c0-0.1,0-0.3,0.1-0.4c0-0.1,0-0.3,0.1-0.4c0-0.3,0-0.6,0-0.9c0-0.3,0-0.6,0-0.9c0-0.1,0-0.3-0.1-0.4
		c0-0.1,0-0.3-0.1-0.4c0-0.2-0.1-0.4-0.1-0.6c0-0.1,0-0.1-0.1-0.2c-0.1-0.2-0.1-0.4-0.2-0.6c0,0,0,0,0,0c0,0,0,0,0,0
		c-0.1-0.2-0.1-0.4-0.2-0.6v0c-0.1-0.2-0.2-0.5-0.3-0.7c-0.1-0.1-0.1-0.2-0.2-0.3C40.2,8,40.1,7.9,40,7.8c-0.1-0.1-0.2-0.3-0.3-0.4
		C39.7,7.3,39.6,7.2,39.5,7.1z M32.8,4.9L32.8,4.9c0.4,0,0.7,0.1,1,0.2c0,0,0.1,0,0.1,0c0.3,0.1,0.6,0.2,0.9,0.3l0.1,0
		c0.6,0.2,1.2,0.6,1.8,0.9h-3.9V4.9z M32.8,7.8h5.5c0.2,0.2,0.4,0.5,0.5,0.7c0,0,0,0,0,0c0.1,0.2,0.3,0.4,0.4,0.7c0,0,0,0,0,0.1
		h-6.4V7.8z M31.3,4.9v7.3H24C24.4,8.4,27.4,5.3,31.3,4.9z M36.2,19.9l-0.1,0.1c-0.1,0.1-0.3,0.2-0.4,0.2c0,0-0.1,0-0.1,0.1
		c-0.4,0.2-0.9,0.4-1.4,0.5c-0.1,0-0.2,0.1-0.3,0.1c-0.1,0-0.2,0-0.3,0.1c-0.1,0-0.3,0-0.4,0.1c-0.1,0-0.2,0-0.3,0
		c-0.2,0-0.5,0-0.7,0s-0.5,0-0.7,0c-0.1,0-0.2,0-0.3,0c-0.2,0-0.3,0-0.5-0.1c-0.1,0-0.2,0-0.3-0.1c-0.1,0-0.3-0.1-0.4-0.1
		c-0.2-0.1-0.4-0.1-0.6-0.2c-0.1,0-0.2-0.1-0.3-0.1c-0.1-0.1-0.3-0.1-0.4-0.2c-0.1,0-0.1-0.1-0.2-0.1c-0.1-0.1-0.3-0.1-0.4-0.2
		c-0.1,0-0.1-0.1-0.2-0.1c-0.1-0.1-0.3-0.2-0.4-0.3h9.2C36.5,19.7,36.4,19.8,36.2,19.9z M39.2,16.7c-0.1,0.2-0.2,0.3-0.3,0.5
		c0,0.1-0.1,0.1-0.1,0.2c0,0.1-0.1,0.1-0.1,0.2c-0.1,0.1-0.2,0.2-0.3,0.3c0,0.1-0.1,0.1-0.1,0.2H25.8c0-0.1-0.1-0.1-0.2-0.2
		c0-0.1-0.1-0.1-0.1-0.2c-0.1-0.1-0.2-0.3-0.3-0.4c0,0-0.1-0.1-0.1-0.1c-0.1-0.2-0.2-0.3-0.3-0.5c0,0,0,0,0-0.1L39.2,16.7
		C39.2,16.7,39.2,16.7,39.2,16.7L39.2,16.7z M40.1,13.7c0,0.2,0,0.4-0.1,0.6c0,0.1,0,0.1,0,0.2c0,0.2-0.1,0.5-0.2,0.7H24.3
		c-0.1-0.2-0.1-0.5-0.2-0.7c0-0.1,0-0.1,0-0.2c0-0.2-0.1-0.4-0.1-0.6c0,0,0,0,0,0L40.1,13.7C40.1,13.7,40.1,13.7,40.1,13.7
		L40.1,13.7z M40,11.5c0,0.1,0,0.1,0,0.2c0,0.2,0.1,0.4,0.1,0.6c0,0,0,0,0,0h-7.3v-1.5h7C39.9,11,39.9,11.2,40,11.5L40,11.5z"/>
	<rect x="28.4" y="6.4" class="st0" width="1.5" height="1.5"/>
	<rect x="28.4" y="9.3" class="st0" width="1.5" height="1.5"/>
	<rect x="25.4" y="9.3" class="st0" width="1.5" height="1.5"/>
	<path class="st0" d="M32.2,35.4l0.9,1.2c0.4-0.3,0.8-0.6,1.2-1l-1-1.1C33,34.8,32.6,35.1,32.2,35.4z"/>
	<path class="st0" d="M16.6,7.5C17,7.3,17.5,7.2,17.9,7l-0.4-1.4c-0.5,0.1-1,0.3-1.4,0.5L16.6,7.5z"/>
	<path class="st0" d="M8.3,14.8c0.2-0.4,0.5-0.8,0.7-1.2l-1.2-0.8c-0.3,0.4-0.5,0.9-0.8,1.3L8.3,14.8z"/>
	<path class="st0" d="M36,31.3l1.2,0.8c0.3-0.4,0.5-0.9,0.8-1.3l-1.3-0.7C36.5,30.5,36.3,30.9,36,31.3z"/>
	<path class="st0" d="M27.3,37.9l0.4,1.4c0.5-0.1,1-0.3,1.4-0.5l-0.6-1.4C28.1,37.6,27.7,37.8,27.3,37.9z"/>
	<path class="st0" d="M11.8,10.4c0.4-0.3,0.7-0.6,1.1-0.9L12,8.3c-0.4,0.3-0.8,0.6-1.2,1L11.8,10.4z"/>
</g>
</svg>
