<?xml version="1.0" encoding="utf-8"?>
<!-- Generator: Adobe Illustrator 24.0.2, SVG Export Plug-In . SVG Version: 6.00 Build 0)  -->
<svg version="1.1" id="Layer_1" xmlns="http://www.w3.org/2000/svg" xmlns:xlink="http://www.w3.org/1999/xlink" x="0px" y="0px"
	 viewBox="0 0 64 64" style="enable-background:new 0 0 64 64;" xml:space="preserve">
<style type="text/css">
	.st0{fill:url(#SVGID_1_);}
	.st1{fill:url(#SVGID_2_);}
	.st2{fill:url(#SVGID_3_);}
	.st3{fill:url(#SVGID_4_);}
	.st4{fill:url(#SVGID_5_);}
	.st5{fill:url(#SVGID_6_);}
	.st6{fill:url(#SVGID_7_);}
	.st7{fill:url(#SVGID_8_);}
	.st8{fill:url(#SVGID_9_);}
	.st9{fill:url(#SVGID_10_);}
	.st10{fill:url(#SVGID_11_);}
	.st11{fill:url(#SVGID_12_);}
	.st12{fill:url(#SVGID_13_);}
	.st13{fill:url(#SVGID_14_);}
	.st14{fill:url(#SVGID_15_);}
	.st15{fill:url(#SVGID_16_);}
	.st16{fill:url(#SVGID_17_);}
	.st17{fill:url(#SVGID_18_);}
	.st18{fill:url(#SVGID_19_);}
	.st19{fill:url(#SVGID_20_);}
	.st20{fill:url(#SVGID_21_);}
	.st21{fill:url(#SVGID_22_);}
	.st22{fill:url(#SVGID_23_);}
</style>
<g>
	<linearGradient id="SVGID_1_" gradientUnits="userSpaceOnUse" x1="0.2489" y1="39.7377" x2="62.5781" y2="39.7377">
		<stop  offset="0" style="stop-color:#736EFE"/>
		<stop  offset="0.2831" style="stop-color:#6D9AF7"/>
		<stop  offset="0.772" style="stop-color:#62E0EC"/>
		<stop  offset="1" style="stop-color:#5EFCE8"/>
	</linearGradient>
	<path class="st0" d="M0.2,24.9c3.1-2.5,6.1-4.9,9.2-7.4c1,3.8,2,7.5,3,11.4c-1.4-0.5-2.7-0.9-4-1.3c-2,9.2,2.4,23.1,16,28.5
		c14.4,5.7,30.1-2.5,34.5-16.8c1.2,0.4,2.5,0.7,3.7,1.1c-0.1,0.3-0.1,0.5-0.2,0.7c-4.1,11.5-12.2,18.5-24.3,20.5
		C22.2,64.1,7.1,53,4.4,37.1c-0.6-3.4-0.6-6.8,0-10.2c0.1-0.4,0-0.6-0.4-0.7C2.7,25.8,1.5,25.4,0.2,24.9z"/>
	<linearGradient id="SVGID_2_" gradientUnits="userSpaceOnUse" x1="14.6351" y1="31.525" x2="25.9779" y2="31.525">
		<stop  offset="0" style="stop-color:#736EFE"/>
		<stop  offset="0.2831" style="stop-color:#6D9AF7"/>
		<stop  offset="0.772" style="stop-color:#62E0EC"/>
		<stop  offset="1" style="stop-color:#5EFCE8"/>
	</linearGradient>
	<path class="st1" d="M18.5,36.9c1.9,0,3.7,0,5.6,0c0.4,0,0.8,0.1,1.1,0.2c0.5,0.2,0.8,0.7,0.7,1.2c-0.1,0.5-0.4,0.9-0.9,1
		c-0.2,0-0.5,0.1-0.8,0.1c-2.6,0-5.1,0-7.7,0c-0.2,0-0.4,0-0.7,0c-1-0.1-1.6-1-1.2-1.9c0.2-0.6,0.5-1.2,1-1.6
		c1.5-1.4,3.2-2.7,4.7-4.1c0.7-0.6,1.4-1.2,1.8-2c0.9-1.4,0.4-2.9-0.9-3.5c-1.4-0.7-3.1-0.1-3.8,1.4c-0.2,0.4-0.3,0.8-0.6,1.2
		c-0.3,0.6-0.9,0.8-1.5,0.6c-0.6-0.2-0.9-0.6-0.9-1.3c0.1-1.5,0.8-2.7,2.1-3.4c2.2-1.2,4.4-1.3,6.6-0.2c2.2,1,3,3.9,1.7,6
		c-0.5,0.8-1.2,1.5-1.9,2.1c-1.2,1-2.4,2-3.6,3c-0.4,0.3-0.7,0.8-1.1,1.2C18.5,36.8,18.5,36.8,18.5,36.9z"/>
	<linearGradient id="SVGID_3_" gradientUnits="userSpaceOnUse" x1="26.5945" y1="31.637" x2="39.3802" y2="31.637">
		<stop  offset="0" style="stop-color:#736EFE"/>
		<stop  offset="0.2831" style="stop-color:#6D9AF7"/>
		<stop  offset="0.772" style="stop-color:#62E0EC"/>
		<stop  offset="1" style="stop-color:#5EFCE8"/>
	</linearGradient>
	<path class="st2" d="M37,33.6c0.6,0.1,1.1,0.1,1.6,0.2c0.5,0.1,0.8,0.5,0.8,1c0,0.5-0.2,0.9-0.7,1C38.3,36,37.9,36,37.4,36
		c-0.3,0-0.5,0.1-0.4,0.4c0,0.6,0,1.1,0,1.7c0,0.9-0.5,1.5-1.3,1.5c-0.8,0-1.3-0.5-1.4-1.4c0-0.5,0-1.1,0-1.6c0-0.4-0.1-0.6-0.5-0.6
		c-1.7,0-3.3,0-5,0c-0.3,0-0.6,0-0.9-0.1c-1.2-0.3-1.7-1.4-0.9-2.4c0.7-1,1.5-1.9,2.2-2.9c1.5-1.9,2.9-3.7,4.4-5.6
		c0.2-0.3,0.5-0.6,0.8-0.9c0.5-0.5,1.1-0.6,1.7-0.4c0.6,0.2,0.8,0.6,0.9,1.2c0,0.2,0,0.5,0,0.7c0,2.4,0,4.8,0,7.3
		C37,33.2,37,33.4,37,33.6z M29.4,33.7c1.6,0,3.1,0,4.6,0c0.1,0,0.3-0.3,0.3-0.5c0-1.6,0-3.2,0-4.7c0-0.3,0-0.5,0-0.8
		c0,0-0.1,0-0.1,0C32.6,29.6,31.1,31.6,29.4,33.7z"/>
	<linearGradient id="SVGID_4_" gradientUnits="userSpaceOnUse" x1="45.5887" y1="31.8439" x2="55.4969" y2="31.8439">
		<stop  offset="0" style="stop-color:#736EFE"/>
		<stop  offset="0.2831" style="stop-color:#6D9AF7"/>
		<stop  offset="0.772" style="stop-color:#62E0EC"/>
		<stop  offset="1" style="stop-color:#5EFCE8"/>
	</linearGradient>
	<path class="st3" d="M52.4,26.6c-1.7,0-3.3,0-4.9,0c-0.3,0-0.5,0-0.8,0c-0.8-0.2-1.2-0.7-1-1.5c0.1-0.3,0.3-0.5,0.6-0.7
		c0.3-0.1,0.6-0.1,1-0.1c2.2,0,4.3,0,6.5,0c0.3,0,0.5,0,0.8,0.1c0.9,0.2,1.3,0.9,0.9,1.7c-0.2,0.4-0.4,0.8-0.7,1.2
		c-2.3,2.9-3.6,6.2-4,9.9c0,0.5-0.2,0.9-0.3,1.4c-0.2,0.7-0.8,1.1-1.5,1c-0.6-0.1-1.1-0.6-1.1-1.3c0-0.9,0.1-1.9,0.4-2.7
		c0.8-2.9,2.1-5.6,3.8-8c0.1-0.2,0.3-0.4,0.4-0.6C52.4,26.8,52.4,26.7,52.4,26.6z"/>
	<linearGradient id="SVGID_5_" gradientUnits="userSpaceOnUse" x1="39.4682" y1="31.6371" x2="44.5297" y2="31.6371">
		<stop  offset="0" style="stop-color:#736EFE"/>
		<stop  offset="0.2831" style="stop-color:#6D9AF7"/>
		<stop  offset="0.772" style="stop-color:#62E0EC"/>
		<stop  offset="1" style="stop-color:#5EFCE8"/>
	</linearGradient>
	<path class="st4" d="M44.5,23.2c-0.2,1-0.4,2.3-0.6,3.6c-0.8,4.5-1.7,9.1-2.5,13.6c-0.1,0.5-0.2,1-0.9,1.1c-0.7,0-1.1-0.4-1-1.3
		c0.1-0.8,0.3-1.7,0.4-2.5c0.9-4.8,1.7-9.5,2.6-14.3c0-0.2,0.1-0.5,0.2-0.7c0.2-0.7,0.5-1,1.1-0.9C44.3,21.9,44.5,22.3,44.5,23.2z"
		/>
	<linearGradient id="SVGID_6_" gradientUnits="userSpaceOnUse" x1="45.9051" y1="7.5782" x2="49.4637" y2="7.5782">
		<stop  offset="0" style="stop-color:#736EFE"/>
		<stop  offset="0.2831" style="stop-color:#6D9AF7"/>
		<stop  offset="0.772" style="stop-color:#62E0EC"/>
		<stop  offset="1" style="stop-color:#5EFCE8"/>
	</linearGradient>
	<path class="st5" d="M47.7,5.4c0.6,0.3,1.1,0.6,1.7,1c-0.7,1.1-1.4,2.2-2.1,3.4c-0.5-0.3-1-0.5-1.5-0.8C46.5,7.8,47.1,6.6,47.7,5.4
		z"/>
	<linearGradient id="SVGID_7_" gradientUnits="userSpaceOnUse" x1="10.3007" y1="13.968" x2="14.5099" y2="13.968">
		<stop  offset="0" style="stop-color:#736EFE"/>
		<stop  offset="0.2831" style="stop-color:#6D9AF7"/>
		<stop  offset="0.772" style="stop-color:#62E0EC"/>
		<stop  offset="1" style="stop-color:#5EFCE8"/>
	</linearGradient>
	<path class="st6" d="M13.4,15.9c-1.1-0.8-2.1-1.6-3.1-2.4c0.4-0.5,0.8-1,1.3-1.5c1,0.9,1.9,1.7,2.9,2.6
		C14.1,15.1,13.8,15.5,13.4,15.9z"/>
	<linearGradient id="SVGID_8_" gradientUnits="userSpaceOnUse" x1="21.0087" y1="6.3023" x2="24.2867" y2="6.3023">
		<stop  offset="0" style="stop-color:#736EFE"/>
		<stop  offset="0.2831" style="stop-color:#6D9AF7"/>
		<stop  offset="0.772" style="stop-color:#62E0EC"/>
		<stop  offset="1" style="stop-color:#5EFCE8"/>
	</linearGradient>
	<path class="st7" d="M22.7,8.5c-0.6-1.2-1.1-2.4-1.7-3.6c0.6-0.3,1.2-0.5,1.8-0.8c0.5,1.2,1,2.4,1.5,3.7C23.8,8,23.3,8.2,22.7,8.5z
		"/>
	<linearGradient id="SVGID_9_" gradientUnits="userSpaceOnUse" x1="54.9326" y1="16.2531" x2="59.2363" y2="16.2531">
		<stop  offset="0" style="stop-color:#736EFE"/>
		<stop  offset="0.2831" style="stop-color:#6D9AF7"/>
		<stop  offset="0.772" style="stop-color:#62E0EC"/>
		<stop  offset="1" style="stop-color:#5EFCE8"/>
	</linearGradient>
	<path class="st8" d="M55.9,18.1c-0.4-0.5-0.6-1-1-1.4c1-0.8,2.1-1.5,3.2-2.3c0.4,0.5,0.7,1.1,1.1,1.7C58.1,16.7,57,17.4,55.9,18.1z
		"/>
	<linearGradient id="SVGID_10_" gradientUnits="userSpaceOnUse" x1="59.8726" y1="32.667" x2="63.7511" y2="32.667">
		<stop  offset="0" style="stop-color:#736EFE"/>
		<stop  offset="0.2831" style="stop-color:#6D9AF7"/>
		<stop  offset="0.772" style="stop-color:#62E0EC"/>
		<stop  offset="1" style="stop-color:#5EFCE8"/>
	</linearGradient>
	<path class="st9" d="M59.9,33.4c0-0.6,0-1.1,0-1.7c1.3,0,2.6,0,3.9,0c0,0.6,0,1.2,0,1.9C62.4,33.6,61.2,33.5,59.9,33.4z"/>
	<linearGradient id="SVGID_11_" gradientUnits="userSpaceOnUse" x1="17.009" y1="8.3192" x2="20.6907" y2="8.3192">
		<stop  offset="0" style="stop-color:#736EFE"/>
		<stop  offset="0.2831" style="stop-color:#6D9AF7"/>
		<stop  offset="0.772" style="stop-color:#62E0EC"/>
		<stop  offset="1" style="stop-color:#5EFCE8"/>
	</linearGradient>
	<path class="st10" d="M19.2,10.5c-0.7-1.1-1.5-2.1-2.2-3.2c0.6-0.4,1.1-0.7,1.7-1.1c0.7,1.1,1.3,2.2,2,3.4
		C20.2,9.9,19.7,10.2,19.2,10.5z"/>
	<linearGradient id="SVGID_12_" gradientUnits="userSpaceOnUse" x1="49.3063" y1="9.9753" x2="53.2036" y2="9.9753">
		<stop  offset="0" style="stop-color:#736EFE"/>
		<stop  offset="0.2831" style="stop-color:#6D9AF7"/>
		<stop  offset="0.772" style="stop-color:#62E0EC"/>
		<stop  offset="1" style="stop-color:#5EFCE8"/>
	</linearGradient>
	<path class="st11" d="M50.7,12.1c-0.5-0.4-0.9-0.7-1.3-1.1c0.8-1.1,1.5-2.1,2.3-3.2c0.5,0.4,1,0.8,1.6,1.2
		C52.3,10.1,51.5,11.1,50.7,12.1z"/>
	<linearGradient id="SVGID_13_" gradientUnits="userSpaceOnUse" x1="13.4094" y1="10.8957" x2="17.4068" y2="10.8957">
		<stop  offset="0" style="stop-color:#736EFE"/>
		<stop  offset="0.2831" style="stop-color:#6D9AF7"/>
		<stop  offset="0.772" style="stop-color:#62E0EC"/>
		<stop  offset="1" style="stop-color:#5EFCE8"/>
	</linearGradient>
	<path class="st12" d="M13.4,10.1c0.5-0.5,1-0.9,1.5-1.3c0.8,1,1.7,2,2.5,3c-0.4,0.4-0.8,0.7-1.3,1.1C15.2,12,14.3,11.1,13.4,10.1z"
		/>
	<linearGradient id="SVGID_14_" gradientUnits="userSpaceOnUse" x1="57.024" y1="19.9912" x2="61.3868" y2="19.9912">
		<stop  offset="0" style="stop-color:#736EFE"/>
		<stop  offset="0.2831" style="stop-color:#6D9AF7"/>
		<stop  offset="0.772" style="stop-color:#62E0EC"/>
		<stop  offset="1" style="stop-color:#5EFCE8"/>
	</linearGradient>
	<path class="st13" d="M60.5,18.3c0.3,0.6,0.6,1.2,0.9,1.8c-1.2,0.5-2.4,1-3.6,1.6c-0.2-0.5-0.5-1-0.8-1.6
		C58.2,19.5,59.3,18.9,60.5,18.3z"/>
	<linearGradient id="SVGID_15_" gradientUnits="userSpaceOnUse" x1="52.3859" y1="12.9137" x2="56.4857" y2="12.9137">
		<stop  offset="0" style="stop-color:#736EFE"/>
		<stop  offset="0.2831" style="stop-color:#6D9AF7"/>
		<stop  offset="0.772" style="stop-color:#62E0EC"/>
		<stop  offset="1" style="stop-color:#5EFCE8"/>
	</linearGradient>
	<path class="st14" d="M55.2,10.9c0.4,0.5,0.8,0.9,1.3,1.4c-1,0.9-2,1.7-3,2.6c-0.4-0.4-0.8-0.8-1.1-1.2
		C53.3,12.8,54.2,11.9,55.2,10.9z"/>
	<linearGradient id="SVGID_16_" gradientUnits="userSpaceOnUse" x1="59.5261" y1="28.2277" x2="63.672" y2="28.2277">
		<stop  offset="0" style="stop-color:#736EFE"/>
		<stop  offset="0.2831" style="stop-color:#6D9AF7"/>
		<stop  offset="0.772" style="stop-color:#62E0EC"/>
		<stop  offset="1" style="stop-color:#5EFCE8"/>
	</linearGradient>
	<path class="st15" d="M59.5,27.7c1.3-0.2,2.6-0.4,3.9-0.6c0.1,0.7,0.2,1.3,0.3,2c-1.3,0.1-2.6,0.2-3.9,0.4
		C59.7,28.9,59.6,28.3,59.5,27.7z"/>
	<linearGradient id="SVGID_17_" gradientUnits="userSpaceOnUse" x1="29.8243" y1="4.1475" x2="32.0704" y2="4.1475">
		<stop  offset="0" style="stop-color:#736EFE"/>
		<stop  offset="0.2831" style="stop-color:#6D9AF7"/>
		<stop  offset="0.772" style="stop-color:#62E0EC"/>
		<stop  offset="1" style="stop-color:#5EFCE8"/>
	</linearGradient>
	<path class="st16" d="M29.8,2.3c0.7-0.1,1.3-0.1,2-0.2C31.9,3.4,32,4.7,32.1,6c-0.6,0.1-1.1,0.1-1.7,0.2C30.2,4.9,30,3.7,29.8,2.3z
		"/>
	<linearGradient id="SVGID_18_" gradientUnits="userSpaceOnUse" x1="59.3146" y1="36.9485" x2="63.5042" y2="36.9485">
		<stop  offset="0" style="stop-color:#736EFE"/>
		<stop  offset="0.2831" style="stop-color:#6D9AF7"/>
		<stop  offset="0.772" style="stop-color:#62E0EC"/>
		<stop  offset="1" style="stop-color:#5EFCE8"/>
	</linearGradient>
	<path class="st17" d="M63.2,38.2c-1.3-0.3-2.6-0.5-3.8-0.8c0.1-0.6,0.2-1.1,0.3-1.7c1.3,0.2,2.6,0.4,3.9,0.6
		C63.4,36.9,63.3,37.5,63.2,38.2z"/>
	<linearGradient id="SVGID_19_" gradientUnits="userSpaceOnUse" x1="38.3525" y1="4.5792" x2="40.9682" y2="4.5792">
		<stop  offset="0" style="stop-color:#736EFE"/>
		<stop  offset="0.2831" style="stop-color:#6D9AF7"/>
		<stop  offset="0.772" style="stop-color:#62E0EC"/>
		<stop  offset="1" style="stop-color:#5EFCE8"/>
	</linearGradient>
	<path class="st18" d="M40,6.7c-0.6-0.1-1.1-0.2-1.7-0.3c0.2-1.3,0.4-2.5,0.7-3.9c0.7,0.1,1.3,0.3,2,0.4C40.7,4.2,40.4,5.4,40,6.7z"
		/>
	<linearGradient id="SVGID_20_" gradientUnits="userSpaceOnUse" x1="25.3159" y1="4.9054" x2="28.1083" y2="4.9054">
		<stop  offset="0" style="stop-color:#736EFE"/>
		<stop  offset="0.2831" style="stop-color:#6D9AF7"/>
		<stop  offset="0.772" style="stop-color:#62E0EC"/>
		<stop  offset="1" style="stop-color:#5EFCE8"/>
	</linearGradient>
	<path class="st19" d="M26.4,7c-0.4-1.3-0.7-2.5-1.1-3.8c0.6-0.2,1.3-0.3,1.9-0.5c0.3,1.3,0.6,2.5,0.9,3.8C27.6,6.7,27,6.9,26.4,7z"
		/>
	<linearGradient id="SVGID_21_" gradientUnits="userSpaceOnUse" x1="42.2347" y1="5.7707" x2="45.3532" y2="5.7707">
		<stop  offset="0" style="stop-color:#736EFE"/>
		<stop  offset="0.2831" style="stop-color:#6D9AF7"/>
		<stop  offset="0.772" style="stop-color:#62E0EC"/>
		<stop  offset="1" style="stop-color:#5EFCE8"/>
	</linearGradient>
	<path class="st20" d="M43.8,7.9c-0.6-0.2-1.1-0.4-1.6-0.6c0.4-1.2,0.8-2.4,1.2-3.7c0.6,0.2,1.2,0.5,1.9,0.7
		C44.8,5.5,44.3,6.7,43.8,7.9z"/>
	<linearGradient id="SVGID_22_" gradientUnits="userSpaceOnUse" x1="58.5831" y1="24.0141" x2="62.8733" y2="24.0141">
		<stop  offset="0" style="stop-color:#736EFE"/>
		<stop  offset="0.2831" style="stop-color:#6D9AF7"/>
		<stop  offset="0.772" style="stop-color:#62E0EC"/>
		<stop  offset="1" style="stop-color:#5EFCE8"/>
	</linearGradient>
	<path class="st21" d="M59.1,25.5c-0.2-0.6-0.3-1.1-0.5-1.7c1.2-0.4,2.5-0.8,3.7-1.2c0.2,0.6,0.4,1.2,0.6,1.9
		C61.6,24.8,60.4,25.1,59.1,25.5z"/>
	<linearGradient id="SVGID_23_" gradientUnits="userSpaceOnUse" x1="34.3595" y1="4.0784" x2="36.4058" y2="4.0784">
		<stop  offset="0" style="stop-color:#736EFE"/>
		<stop  offset="0.2831" style="stop-color:#6D9AF7"/>
		<stop  offset="0.772" style="stop-color:#62E0EC"/>
		<stop  offset="1" style="stop-color:#5EFCE8"/>
	</linearGradient>
	<path class="st22" d="M34.4,6c0-0.1,0-0.2,0-0.3c0-1.2,0-2.4,0-3.6c0.7,0,1.3,0,2,0c-0.1,1.3-0.2,2.6-0.3,3.9C35.5,6,35,6,34.4,6z"
		/>
</g>
</svg>
