<?xml version="1.0" encoding="utf-8"?>
<!-- Generator: Adobe Illustrator 24.0.2, SVG Export Plug-In . SVG Version: 6.00 Build 0)  -->
<svg version="1.1" id="Layer_1" xmlns="http://www.w3.org/2000/svg" xmlns:xlink="http://www.w3.org/1999/xlink" x="0px" y="0px"
	 viewBox="0 0 39 39" style="enable-background:new 0 0 39 39;" xml:space="preserve">
<style type="text/css">
	.st0{fill:url(#SVGID_1_);}
</style>
<linearGradient id="SVGID_1_" gradientUnits="userSpaceOnUse" x1="0" y1="19.5" x2="39" y2="19.5">
	<stop  offset="0" style="stop-color:#108DC7"/>
	<stop  offset="1" style="stop-color:#EF8E38"/>
</linearGradient>
<path class="st0" d="M27.3,22.1c0,1.6,0.6,3.1,1.8,4.2c1.1,1.1,2.5,1.7,4.1,1.7c1.5,0,3-0.6,4.1-1.7c1.1-1.1,1.8-2.6,1.8-4.2
	c0-3-2.3-5.5-5.2-5.8V13h0.7c0.4,0,0.6-0.3,0.6-0.6V8.4c0-0.4-0.3-0.6-0.6-0.6H24.3C24.8,7,25,6.1,25,5.2C25,2.3,22.7,0,19.8,0
	s-5.2,2.3-5.2,5.2c0,0.9,0.3,1.8,0.7,2.6H4.6c-0.4,0-0.7,0.3-0.7,0.6v3.9c0,0.4,0.3,0.6,0.7,0.6h0.6v3.3C2.3,16.6,0,19.1,0,22.1
	c0,1.6,0.6,3.1,1.8,4.2C2.9,27.4,4.3,28,5.8,28s3-0.6,4.1-1.7c1.1-1.1,1.8-2.6,1.8-4.2c0-3-2.3-5.5-5.2-5.8V13h7.8v17.5H0v1.3h14.9
	h3.4L14.4,38c-0.1,0.2-0.1,0.5,0,0.7c0.1,0.2,0.3,0.3,0.6,0.3H24c0.2,0,0.5-0.1,0.6-0.3c0.1-0.2,0.1-0.5,0-0.7l-3.9-6.2H24h15v-1.3
	H24.7V13h7.8v3.3C29.6,16.6,27.3,19.1,27.3,22.1z M10.4,22.1c0,1.2-0.5,2.4-1.4,3.3c-0.9,0.8-2,1.3-3.2,1.3s-2.3-0.5-3.2-1.3
	c-0.9-0.8-1.4-2-1.4-3.2c0-2.5,2-4.6,4.6-4.6S10.4,19.6,10.4,22.1z M19.8,1.3c2.2,0,3.9,1.7,3.9,3.9c0,1-0.4,2.1-1.2,2.8
	c-0.7,0.7-1.7,1.1-2.7,1.1c-1,0-2-0.4-2.7-1.1c-0.7-0.7-1.2-1.7-1.2-2.8C15.9,3,17.7,1.3,19.8,1.3z M16.1,37.7l3.4-5.3l3.4,5.3H16.1
	z M24,11.7c-0.4,0-0.6,0.3-0.6,0.7v18.2h-3.3V18.9h-1.3v11.7h-3.3V12.4c0-0.4-0.3-0.7-0.7-0.7H5.2V9.1h11.2c0.9,0.8,2.1,1.3,3.4,1.3
	c1.3,0,2.5-0.5,3.4-1.3h10.5v2.6H24z M28.6,22.1c0-2.3,1.7-4.2,3.9-4.5v1.2c-1.1,0-2,0.9-2,1.9c0,1.1,0.9,2,2,2h1.3
	c0.4,0,0.7,0.3,0.7,0.6S34.2,24,33.8,24h-1.3c-0.4,0-0.6-0.3-0.6-0.6h-1.3c0,1.1,0.9,2,2,2v1.2c-1-0.1-1.8-0.6-2.5-1.3
	C29.1,24.5,28.6,23.3,28.6,22.1z M37.7,22.1c0,1.2-0.5,2.4-1.4,3.3c-0.7,0.7-1.6,1.1-2.5,1.2v-1.2c1.1,0,2-0.9,2-2s-0.9-1.9-2-1.9
	h-1.3c-0.4,0-0.6-0.3-0.6-0.7s0.3-0.6,0.6-0.6h1.3c0.4,0,0.7,0.3,0.7,0.6h1.3c0-1.1-0.9-1.9-2-1.9v-1.2C36,17.9,37.7,19.8,37.7,22.1
	z"/>
</svg>
