<?xml version="1.0" encoding="utf-8"?>
<!-- Generator: Adobe Illustrator 24.0.2, SVG Export Plug-In . SVG Version: 6.00 Build 0)  -->
<svg version="1.1" id="Layer_1" xmlns="http://www.w3.org/2000/svg" xmlns:xlink="http://www.w3.org/1999/xlink" x="0px" y="0px"
	 viewBox="0 0 40 52" style="enable-background:new 0 0 40 52;" xml:space="preserve">
<style type="text/css">
	.st0{fill:#F8981D;}
</style>
<g>
	<path class="st0" d="M21.1,0.3c0.9,0.1,1.7,0.2,2.6,0.4C30,2.2,35,7.5,36.1,13.8c0.5,3,0,5.8-1.3,8.6c-1.6,3.4-3.6,6.5-5.7,9.5
		c-2.6,3.7-5.3,7.4-7.9,11.1c-0.4,0.6-0.8,1.2-1.2,1.8c0,0-0.1,0-0.1-0.1c-2.8-3.9-5.6-7.8-8.3-11.7c-2.2-3.1-4.3-6.2-5.9-9.6
		c-0.8-1.6-1.5-3.2-1.8-4.9c-0.4-2.1-0.2-4.2,0.4-6.2C6.3,5.7,10.8,1.8,17.5,0.5c0.5-0.1,0.9-0.1,1.4-0.2
		C19.6,0.3,20.4,0.3,21.1,0.3z M20,24.9c3.6,0,6.6-2.9,6.6-6.6c0-3.7-3-6.6-6.6-6.6c-3.6,0-6.6,3-6.6,6.6C13.4,22,16.3,24.9,20,24.9
		z"/>
	<path class="st0" d="M39.5,51.7c-13,0-26,0-39,0c0.1-0.1,0.2-0.2,0.2-0.3C1.8,49.9,2.9,48.5,4,47c0.2-0.2,0.3-0.3,0.6-0.3
		c10.2,0,20.5,0,30.7,0c0.2,0,0.4,0,0.5,0.2C37,48.4,38.2,50,39.5,51.7z"/>
</g>
</svg>
