<?xml version="1.0" encoding="utf-8"?>
<!-- Generator: Adobe Illustrator 24.0.2, SVG Export Plug-In . SVG Version: 6.00 Build 0)  -->
<svg version="1.1" id="Layer_1" xmlns="http://www.w3.org/2000/svg" xmlns:xlink="http://www.w3.org/1999/xlink" x="0px" y="0px"
	 viewBox="0 0 43 43" style="enable-background:new 0 0 43 43;" xml:space="preserve">
<style type="text/css">
	.st0{fill:#57A4FF;}
	.st1{fill:#2488FF;}
	.st2{fill:#C0AB91;}
	.st3{fill:#FFEB99;}
	.st4{fill:#00D7DF;}
	.st5{fill:#00B6BD;}
	.st6{fill:#FFCD00;}
	.st7{fill:#FFDAAA;}
	.st8{fill:#CCA400;}
	.st9{fill:#FFC477;}
</style>
<g id="management">
	<path class="st0" d="M5.6,25.8c-2.8,0-5-2.2-5-5s2.2-5,5-5h0.6c-1.6-3.6,0.1-7.9,3.7-9.4C13,5,16.7,6,18.6,8.8
		c0.7-5.1,5.4-8.7,10.5-7.9s8.6,5.4,7.9,10.5c-0.2,1.6-0.9,3.2-1.9,4.5h2c2.8,0,5,2.2,5,5s-2.2,5-5,5l0,0L5.6,25.8L5.6,25.8z"/>
	<path class="st1" d="M37.2,10c0,2.1-0.7,4.1-2,5.7h-1.4c3.2-4,2.5-9.9-1.6-13.1c-1.4-1.1-3.2-1.8-5-1.9c0.2,0,0.5,0,0.7,0
		C33,0.7,37.2,4.9,37.2,10z"/>
	<path class="st1" d="M42.2,20.8c0,2.8-2.2,5-5,5h-1.4c2.8,0,5-2.2,5-5s-2.2-5-5-5h1.4C39.9,15.8,42.2,18,42.2,20.8z"/>
	<path class="st2" d="M30,25.1v0.7c0,0.8-0.7,1.4-1.4,1.4h-0.7v-3.6h0.7C29.3,23.7,30,24.3,30,25.1z"/>
	<path class="st2" d="M14.9,23.7v3.6h-0.7c-0.8,0-1.4-0.7-1.4-1.4v-0.7c0-0.8,0.7-1.4,1.4-1.4L14.9,23.7L14.9,23.7z"/>
	<ellipse class="st3" cx="40" cy="33" rx="2.1" ry="2.1"/>
	<path class="st4" d="M25.7,35.2h5c4,0,7.2,3.2,7.2,7.2H4.9c0-4,3.2-7.2,7.2-7.2H25.7z"/>
	<path class="st5" d="M37.8,42.3h-1.4c0-4-3.2-7.2-7.2-7.2h1.4C34.6,35.2,37.8,38.4,37.8,42.3z"/>
	<path class="st6" d="M30,20.1v1.4l-2.2,2.1v-2.1l-7.9-2.1l-5,2.1v2.1l-2.1-2.1v-1.4c0-3.2,2.5-5.7,5.7-5.7h5.7
		C27.4,14.4,30,16.9,30,20.1z"/>
	<path class="st7" d="M27.8,23.7v3.6c0,3.6-2.9,6.4-6.4,6.4s-6.4-2.9-6.4-6.4v-5.7l5-2.1l7.9,2.1V23.7z"/>
	<path class="st8" d="M30,20.1v1.4l-2.2,2.1v-1.4l0.7-0.7V20c0-3.2-2.5-5.7-5.7-5.7h1.4C27.4,14.4,30,16.9,30,20.1z"/>
	<path class="st9" d="M27.8,21.5v5.7c0,3.6-2.9,6.4-6.4,6.4c-0.2,0-0.5,0-0.7,0c3.3-0.4,5.7-3.1,5.7-6.4v-5.7l-7-1.9l0.6-0.2
		L27.8,21.5z"/>
	<path class="st3" d="M25.7,35.2l-1.4,4.3h-5.7l-1.4-4.3L25.7,35.2L25.7,35.2z"/>
	<ellipse class="st3" cx="2.8" cy="33" rx="2.1" ry="2.1"/>
	<path d="M33.6,10H35c0-4-3.2-7.2-7.2-7.2v1.4C31,4.3,33.6,6.9,33.6,10z"/>
	<path d="M12.8,7.9c-2.8,0-5,2.2-5,5h1.4c0-2,1.6-3.6,3.6-3.6L12.8,7.9L12.8,7.9z"/>
	<path d="M38.6,20.8H40c0-1.6-1.3-2.9-2.9-2.9v1.4C37.9,19.4,38.6,20,38.6,20.8z"/>
	<path d="M40,30.1c-1.3,0-2.4,0.9-2.8,2.1h-1.5V28h-1.4v5c0,0.4,0.3,0.7,0.7,0.7h2.2c0.4,1.5,2,2.4,3.5,2s2.4-2,2-3.5
		C42.5,31,41.3,30.1,40,30.1z M40,34.4c-0.8,0-1.4-0.7-1.4-1.4s0.7-1.4,1.4-1.4c0.8,0,1.4,0.7,1.4,1.4C41.4,33.8,40.8,34.4,40,34.4z
		"/>
	<path d="M5.5,33.7h2.2c0.4,0,0.7-0.3,0.7-0.7v-5H7.1v4.3H5.5c-0.4-1.5-2-2.4-3.5-2.1c-1.5,0.4-2.4,2-2.1,3.5c0.4,1.5,2,2.4,3.5,2.1
		C4.5,35.5,5.3,34.7,5.5,33.7z M2.8,34.4c-0.8,0-1.4-0.7-1.4-1.4s0.7-1.4,1.4-1.4s1.4,0.7,1.4,1.4C4.2,33.8,3.6,34.4,2.8,34.4z"/>
	<path d="M28.5,28L28.5,28c0.9,0,1.8-0.6,2.1-1.4h6.6c3.2,0,5.7-2.6,5.7-5.7s-2.5-5.7-5.7-5.7h-0.6c0.9-1.5,1.3-3.2,1.3-5
		c0-5.6-4.5-10-10-10c-4.4,0-8.4,2.9-9.6,7.2c-3.1-3-8.1-2.9-11.1,0.2C5.7,9,5,10.9,5,12.9c0,0.7,0.1,1.4,0.3,2.2
		c-3.2,0.2-5.5,3-5.3,6.1c0.2,3,2.7,5.3,5.7,5.3h6.6c0.3,0.9,1.1,1.4,2,1.4h0c0.4,3.9,3.9,6.8,7.9,6.4C25.5,34,28.2,31.4,28.5,28
		L28.5,28z M14.3,21.5v0.4l-0.7-0.7v-1.1c0-2.8,2.2-5,5-5h5.7c2.8,0,5,2.2,5,5v1.1l-0.7,0.7v-0.4c0-0.3-0.2-0.6-0.5-0.7l-7.9-2.1
		c-0.2,0-0.3,0-0.5,0l-5,2.1C14.4,21,14.3,21.3,14.3,21.5L14.3,21.5z M29.3,25.8c0,0.4-0.3,0.7-0.7,0.7v-2.1c0.4,0,0.7,0.3,0.7,0.7
		V25.8z M1.3,20.8c0-2.4,1.9-4.3,4.3-4.3h0.6c0.4,0,0.7-0.3,0.7-0.7c0-0.1,0-0.2-0.1-0.3c-0.3-0.8-0.6-1.7-0.6-2.6
		c0-3.6,2.9-6.4,6.4-6.4c2.1,0,4,1,5.2,2.7c0.2,0.3,0.7,0.4,1,0.2c0.2-0.1,0.3-0.3,0.3-0.5c0.7-4.7,5-8,9.7-7.3
		c4.3,0.6,7.4,4.2,7.4,8.6c0,1.9-0.7,3.8-1.8,5.3c-0.2,0.3-0.2,0.8,0.1,1c0.1,0.1,0.3,0.1,0.4,0.1h2c2.4,0,4.3,1.9,4.3,4.3
		s-1.9,4.3-4.3,4.3l0,0h-6.5c0-0.9-0.5-1.7-1.3-2l1.1-1.1c0.1-0.1,0.2-0.3,0.2-0.5v-1.4c0-3.6-2.9-6.4-6.4-6.4h-5.7
		c-3.5,0-6.4,2.9-6.4,6.4v1.4c0,0.2,0.1,0.4,0.2,0.5l1.1,1.1c-0.8,0.3-1.3,1.1-1.3,2H5.6C3.3,25.1,1.3,23.2,1.3,20.8z M13.5,25.8
		v-0.7c0-0.4,0.3-0.7,0.7-0.7v2.1C13.8,26.5,13.5,26.2,13.5,25.8z M21.4,33c-3.2,0-5.7-2.6-5.7-5.7V22l4.3-1.9l7.1,1.9v5.2
		C27.1,30.4,24.6,33,21.4,33z"/>
	<path d="M30.7,34.4H12.1c-4.3,0-7.9,3.5-7.9,7.9c0,0.4,0.3,0.7,0.7,0.7h32.9c0.4,0,0.7-0.3,0.7-0.7C38.6,37.9,35.1,34.4,30.7,34.4z
		 M24.7,35.9l-1,2.9h-4.6l-1-2.9H24.7z M5.7,41.6c0.4-3.3,3.1-5.7,6.4-5.7h4.5l1.3,3.8c0.1,0.3,0.4,0.5,0.7,0.5h5.7
		c0.3,0,0.6-0.2,0.7-0.5l1.3-3.8h4.5c3.3,0,6,2.5,6.4,5.7H5.7z"/>
</g>
</svg>
