<?xml version="1.0" encoding="utf-8"?>
<!-- Generator: Adobe Illustrator 24.0.2, SVG Export Plug-In . SVG Version: 6.00 Build 0)  -->
<svg version="1.1" id="Layer_1" xmlns="http://www.w3.org/2000/svg" xmlns:xlink="http://www.w3.org/1999/xlink" x="0px" y="0px"
	 viewBox="0 0 45 50" style="enable-background:new 0 0 45 50;" xml:space="preserve">
<style type="text/css">
	.st0{fill:url(#SVGID_1_);}
	.st1{fill:url(#SVGID_2_);}
	.st2{fill:url(#SVGID_3_);}
	.st3{fill:url(#SVGID_4_);}
	.st4{fill:url(#SVGID_5_);}
	.st5{fill:url(#SVGID_6_);}
	.st6{fill:url(#SVGID_7_);}
	.st7{fill:url(#SVGID_8_);}
</style>
<g>
	<g>
		<linearGradient id="SVGID_1_" gradientUnits="userSpaceOnUse" x1="0.5" y1="25" x2="36.0998" y2="25">
			<stop  offset="0" style="stop-color:#599491"/>
			<stop  offset="1" style="stop-color:#264749"/>
		</linearGradient>
		<path class="st0" d="M2.8,49.6h26.1c1.3,0,2.3-1.1,2.3-2.3V34.8c1.4,0.8,2.8,1.8,3.7,2.4c0.5,0.3,1.2-0.1,1.2-0.7V13.2
			c0-0.6-0.6-0.9-1.2-0.7c-0.9,0.5-2.1,1.4-3.7,2.4V2.7c0-1.3-1-2.3-2.3-2.3H2.8c-1.3,0-2.3,1.1-2.3,2.3c0,57.3,0,31.9,0,44.6
			C0.5,48.6,1.5,49.6,2.8,49.6z M2,2.7c0-0.4,0.3-0.8,0.8-0.8h26.1c0.5,0,0.8,0.3,0.8,0.8v5.4H2C2,8.1,2,2.7,2,2.7z M29.7,47.3
			c0,0.4-0.3,0.8-0.8,0.8H2.8c-0.5,0-0.8-0.4-0.8-0.8v-3.8h27.7V47.3z M34.5,14.5v20.5c-3.3-2.2-7-4.8-13.2-6.2v-8.2
			C26.9,19.5,30.3,17.4,34.5,14.5z M13.2,28.1H9.5v-6.6h3.7C13.2,21.5,13.2,28.1,13.2,28.1z M12.7,29.6c1.2,0,0.8,0,2.3,0v6.8
			c0,0.6-0.5,1.2-1.2,1.2s-1.2-0.5-1.2-1.2V29.6z M14.7,28.2v-6.6c1.8,0,3.5-0.2,5.1-0.5v7.6C18,28.3,15.6,28.2,14.7,28.2z
			 M9.5,19.9c-0.8,0-1.5,0.7-1.5,1.5v6.6c0,0.8,0.7,1.5,1.5,1.5h1.7v6.8c0,1.5,1.2,2.7,2.7,2.7s2.7-1.2,2.7-2.7v-6.8
			c5.8,0.5,10.1,2.3,13.1,4.1v8.2H2V9.6h27.7v6.2C20.2,21.3,12.1,19.6,9.5,19.9z"/>
	</g>
	<g>
		<linearGradient id="SVGID_2_" gradientUnits="userSpaceOnUse" x1="11.2645" y1="5.0087" x2="20.4913" y2="5.0087">
			<stop  offset="0" style="stop-color:#599491"/>
			<stop  offset="1" style="stop-color:#264749"/>
		</linearGradient>
		<path class="st1" d="M19.7,4.2H12c-0.5,0-0.8,0.3-0.8,0.8s0.3,0.8,0.8,0.8h7.7c0.5,0,0.8-0.3,0.8-0.8C20.5,4.6,20.1,4.2,19.7,4.2z
			"/>
	</g>
	<g>
		<linearGradient id="SVGID_3_" gradientUnits="userSpaceOnUse" x1="13.1868" y1="45.7602" x2="18.569" y2="45.7602">
			<stop  offset="0" style="stop-color:#599491"/>
			<stop  offset="1" style="stop-color:#264749"/>
		</linearGradient>
		<path class="st2" d="M14,46.5h3.8c0.5,0,0.8-0.3,0.8-0.8c0-0.5-0.3-0.8-0.8-0.8H14c-0.5,0-0.8,0.3-0.8,0.8
			C13.2,46.2,13.5,46.5,14,46.5z"/>
	</g>
	<g>
		<linearGradient id="SVGID_4_" gradientUnits="userSpaceOnUse" x1="40.9439" y1="24.8078" x2="44.5" y2="24.8078">
			<stop  offset="0" style="stop-color:#599491"/>
			<stop  offset="1" style="stop-color:#264749"/>
		</linearGradient>
		<path class="st3" d="M41.2,30.2c0.3,0.3,0.8,0.3,1.1,0c3-3,3-7.8,0-10.8c-0.3-0.3-0.8-0.3-1.1,0c-0.3,0.3-0.3,0.8,0,1.1
			c2.4,2.4,2.4,6.3,0,8.7C40.9,29.5,40.9,29.9,41.2,30.2z"/>
	</g>
	<g>
		<linearGradient id="SVGID_5_" gradientUnits="userSpaceOnUse" x1="38.2527" y1="24.8078" x2="40.7132" y2="24.8078">
			<stop  offset="0" style="stop-color:#599491"/>
			<stop  offset="1" style="stop-color:#264749"/>
		</linearGradient>
		<path class="st4" d="M38.5,27.5c0.3,0.3,0.8,0.3,1.1,0c1.5-1.5,1.5-3.9,0-5.5c-0.3-0.3-0.8-0.3-1.1,0c-0.3,0.3-0.3,0.8,0,1.1
			c0.9,0.9,0.9,2.4,0,3.2C38.2,26.7,38.2,27.2,38.5,27.5z"/>
	</g>
	<g>
		<linearGradient id="SVGID_6_" gradientUnits="userSpaceOnUse" x1="9.7267" y1="14.1586" x2="11.2645" y2="14.1586">
			<stop  offset="0" style="stop-color:#599491"/>
			<stop  offset="1" style="stop-color:#264749"/>
		</linearGradient>
		<rect x="9.7" y="13.4" class="st5" width="1.5" height="1.5"/>
	</g>
	<g>
		<linearGradient id="SVGID_7_" gradientUnits="userSpaceOnUse" x1="15.109" y1="14.1586" x2="16.6468" y2="14.1586">
			<stop  offset="0" style="stop-color:#599491"/>
			<stop  offset="1" style="stop-color:#264749"/>
		</linearGradient>
		<rect x="15.1" y="13.4" class="st6" width="1.5" height="1.5"/>
	</g>
	<g>
		<linearGradient id="SVGID_8_" gradientUnits="userSpaceOnUse" x1="20.4913" y1="14.1586" x2="22.0291" y2="14.1586">
			<stop  offset="0" style="stop-color:#599491"/>
			<stop  offset="1" style="stop-color:#264749"/>
		</linearGradient>
		<rect x="20.5" y="13.4" class="st7" width="1.5" height="1.5"/>
	</g>
</g>
</svg>
