<?xml version="1.0" encoding="utf-8"?>
<!-- Generator: Adobe Illustrator 24.0.2, SVG Export Plug-In . SVG Version: 6.00 Build 0)  -->
<svg version="1.1" id="Layer_1" xmlns="http://www.w3.org/2000/svg" xmlns:xlink="http://www.w3.org/1999/xlink" x="0px" y="0px"
	 viewBox="0 0 32 32" style="enable-background:new 0 0 32 32;" xml:space="preserve">
<style type="text/css">
	.st0{fill:#FFFFFF;}
</style>
<g>
	<path class="st0" d="M12.3,31.5c-2,0-4.1,0-6.1,0c0-0.1,0-0.1,0-0.2c0.7-2.3,1.3-4.5,2.2-6.7C9,23.3,10,22.4,11.4,22
		c1.3-0.4,2.6-0.8,3.9-1.2c0.2-0.1,0.5-0.1,0.7,0c0.4,0.1,0.7,0.5,0.8,0.9c0,0.4-0.2,0.8-0.6,1c-0.7,0.3-1.4,0.6-2.1,0.9
		c-0.3,0.2-0.5,0.5-0.4,0.8c0.1,0.4,0.4,0.6,0.8,0.6c0.2,0,0.3,0,0.5-0.1c1.3-0.5,2.6-0.9,3.8-1.4c0.4-0.1,0.8-0.3,1.2-0.4
		c0.9-0.3,1.5-0.8,1.9-1.6c0.3-0.6,0.7-1.2,1-1.8c0.3-0.5,0.7-0.7,1.2-0.6c0.6,0.1,1,0.7,0.7,1.3c-0.3,0.9-0.7,1.9-1.1,2.8
		c-0.3,0.7-0.8,1.2-1.5,1.6c-2.7,1.3-5.3,2.7-8,4C13,29.4,12.4,30.2,12.3,31.5z"/>
	<path class="st0" d="M17.5,16.7c0.2,0.1,0.3,0.1,0.5,0.2c1.1,0.6,1.6,1.5,1.6,2.7c0,0.9,0,1.8,0,2.8c0,0.2,0,0.2-0.2,0.3
		c-1.5,0.5-2.9,1.1-4.4,1.6c-0.3,0.1-0.6,0-0.9,0.1c-0.1-0.2,0.1-0.3,0.2-0.4c0.7-0.3,1.4-0.6,2-0.9c0.6-0.3,1-0.9,0.9-1.5
		c0-0.6-0.5-1.2-1.1-1.3c-0.3-0.1-0.6-0.1-0.9,0c-0.9,0.2-1.7,0.5-2.6,0.8c-0.1,0-0.2,0-0.3,0.1c0-0.8-0.1-1.6,0.2-2.4
		c0.3-0.9,0.9-1.5,1.7-1.9c0.1,0,0.2-0.1,0.2-0.1c0,0,0,0,0,0c-1-0.7-1.6-1.6-1.6-2.8c0-0.9,0.4-1.6,1-2.2c1.3-1.2,3.3-1.1,4.5,0.3
		C19.5,13.2,19.4,15.5,17.5,16.7z M16,12.9c-0.6,0-1.3,0.1-1.8,0.4c-0.1,0.1-0.2,0.2-0.2,0.3c-0.1,0.9,0.2,1.5,0.9,2
		c0.7,0.5,1.5,0.5,2.2,0c0.7-0.5,1.1-1.1,1-2c0-0.2-0.1-0.3-0.3-0.4C17.2,13.1,16.6,12.9,16,12.9z"/>
	<path class="st0" d="M31.5,6.7c-1,0.9-2,1.7-3.1,2.6c0-0.5,0-1,0-1.5c-0.1,0-0.2,0-0.3,0c-0.7,0-1.5,0-2.2,0
		c-0.7,0-1.1,0.4-1.1,1.1c0,1.4,0,2.8,0,4.1c0,0.1,0,0.2,0,0.3c0,0,0,0-0.1,0c-0.1-0.1-0.1-0.1-0.2-0.2c-0.6-0.9-1.1-1.7-1.7-2.6
		c-0.1-0.1-0.1-0.3-0.1-0.5c0-0.8,0-1.5,0-2.3c0-1.3,0.9-2.1,2.1-2.2c1.1,0,2.1,0,3.2,0c0.1,0,0.2,0,0.4,0c0-0.5,0-1,0-1.6
		C29.5,5,30.5,5.8,31.5,6.7z"/>
	<path class="st0" d="M3.6,7.7c0,0.5,0,1,0,1.5C2.5,8.4,1.5,7.6,0.5,6.7c1-0.9,2-1.7,3.1-2.6c0,0.5,0,1,0,1.5c0.3,0,0.7,0,1,0
		c0.8,0,1.7,0,2.5,0c1.4,0,2.2,0.9,2.2,2.2c0,0.7,0,1.5,0,2.2c0,0.1,0,0.2-0.1,0.3c-0.6,0.9-1.2,1.9-1.9,2.8c0,0,0,0-0.1,0.1
		c0-0.1,0-0.2,0-0.3c0-1.4,0-2.7,0-4.1c0-0.8-0.4-1.2-1.2-1.2C5.2,7.7,4.4,7.7,3.6,7.7z"/>
	<path class="st0" d="M13.4,3.6c0.9-1.1,1.7-2.1,2.6-3.1c0.9,1,1.7,2,2.6,3.1c-0.5,0-1,0-1.5,0c0,1.2,0,2.4,0,3.6
		c-0.7,0-1.4,0-2.1,0c0-1.2,0-2.4,0-3.6C14.5,3.6,14,3.6,13.4,3.6z"/>
	<path class="st0" d="M23.2,16.5c0.3,0,0.7,0,1,0c0,0.4,0,0.7-0.1,1.1c-0.4,0-0.7-0.1-1-0.1C23.2,17.1,23.2,16.8,23.2,16.5z"/>
	<path class="st0" d="M18.1,8.5c0.4,0.1,0.7,0.2,1,0.3c-0.1,0.3-0.3,0.6-0.4,1c-0.3-0.1-0.6-0.2-0.9-0.3C17.9,9.2,18,8.9,18.1,8.5z"
		/>
	<path class="st0" d="M22.5,11.5c-0.3,0.2-0.5,0.4-0.8,0.6c-0.2-0.2-0.4-0.5-0.6-0.7c0.2-0.2,0.5-0.5,0.7-0.7
		C22.1,10.9,22.3,11.2,22.5,11.5z"/>
	<path class="st0" d="M8,14.4c0.1-0.4,0.2-0.7,0.4-1c0.3,0.1,0.6,0.3,1,0.4c-0.1,0.3-0.2,0.6-0.3,0.9C8.7,14.6,8.3,14.5,8,14.4z"/>
	<path class="st0" d="M11.8,9.4c0.3-0.2,0.6-0.3,1-0.5c0.1,0.3,0.3,0.6,0.4,0.9c-0.3,0.1-0.5,0.3-0.8,0.4C12.2,10,12,9.7,11.8,9.4z"
		/>
	<path class="st0" d="M8.8,15.6c0,0.3,0,0.6-0.1,0.9c-0.3,0-0.7,0-1,0c0-0.3,0-0.7,0.1-1C8.1,15.5,8.5,15.6,8.8,15.6z"/>
	<path class="st0" d="M8.8,17.5c0.1,0.3,0.1,0.6,0.2,0.9c-0.3,0.1-0.6,0.2-1,0.3c-0.1-0.4-0.1-0.7-0.2-1.1
		C8.1,17.6,8.5,17.5,8.8,17.5z"/>
	<path class="st0" d="M21,9.9c-0.2,0.3-0.4,0.5-0.6,0.8c-0.3-0.2-0.5-0.3-0.8-0.5c0.2-0.3,0.3-0.6,0.5-0.9C20.4,9.5,20.7,9.7,21,9.9
		z"/>
	<path class="st0" d="M23.2,12.4c0.2,0.3,0.3,0.6,0.5,1c-0.3,0.1-0.6,0.3-0.9,0.4c-0.1-0.3-0.3-0.6-0.4-0.8
		C22.5,12.7,22.8,12.5,23.2,12.4z"/>
	<path class="st0" d="M24,14.3c0.1,0.4,0.1,0.7,0.2,1.1c-0.4,0-0.7,0.1-1,0.1c-0.1-0.3-0.1-0.6-0.2-0.9C23.3,14.5,23.6,14.4,24,14.3
		z"/>
	<path class="st0" d="M9.7,20.2c-0.3,0.2-0.6,0.3-0.9,0.5c-0.2-0.3-0.3-0.6-0.5-1c0.3-0.1,0.6-0.3,1-0.4C9.4,19.6,9.6,19.9,9.7,20.2
		z"/>
	<path class="st0" d="M15,9.3c-0.3,0.1-0.6,0.1-0.9,0.2c-0.1-0.3-0.2-0.6-0.3-1c0.3-0.1,0.7-0.1,1.1-0.2C14.9,8.7,15,9,15,9.3z"/>
	<path class="st0" d="M9.4,11.5c0.3,0.2,0.5,0.4,0.8,0.6c-0.2,0.3-0.3,0.5-0.5,0.8c-0.3-0.2-0.6-0.3-0.9-0.5
		C9,12.1,9.2,11.8,9.4,11.5z"/>
	<path class="st0" d="M10.2,10.6c0.2-0.2,0.5-0.4,0.8-0.7c0.2,0.3,0.4,0.5,0.6,0.8c-0.2,0.2-0.5,0.4-0.7,0.6
		C10.6,11.2,10.4,10.9,10.2,10.6z"/>
	<path class="st0" d="M16.9,9.3c-0.3,0-0.6,0-0.9-0.1c0-0.3,0-0.7,0-1c0.3,0,0.7,0,1,0.1C17,8.7,17,9,16.9,9.3z"/>
</g>
</svg>
