<?xml version="1.0" encoding="utf-8"?>
<!-- Generator: Adobe Illustrator 24.0.2, SVG Export Plug-In . SVG Version: 6.00 Build 0)  -->
<svg version="1.1" id="Layer_1" xmlns="http://www.w3.org/2000/svg" xmlns:xlink="http://www.w3.org/1999/xlink" x="0px" y="0px"
	 viewBox="0 0 24 24" style="enable-background:new 0 0 24 24;" xml:space="preserve">
<style type="text/css">
	.st0{fill:#FA872A;}
</style>
<g transform="scale(0.0234375 0.0234375)">
	<path class="st0" d="M768,342v-86H256v86H768z M768,470v-86H256v86H768z M768,598v-86H256v86H768z M854,86c22.7,0,42.3,8.3,59,25
		s25,36.3,25,59v512c0,22.7-8.3,42.7-25,60s-36.3,26-59,26H256L86,938V170c0-22.7,8.3-42.3,25-59s36.3-25,59-25H854z"/>
</g>
</svg>
