<?xml version="1.0" encoding="utf-8"?>
<!-- Generator: Adobe Illustrator 24.0.2, SVG Export Plug-In . SVG Version: 6.00 Build 0)  -->
<svg version="1.1" id="Layer_1" xmlns="http://www.w3.org/2000/svg" xmlns:xlink="http://www.w3.org/1999/xlink" x="0px" y="0px"
	 viewBox="0 0 52 52" style="enable-background:new 0 0 52 52;" xml:space="preserve">
<style type="text/css">
	.st0{fill:#E5E5E5;}
	.st1{fill:#E2E4ED;}
	.st2{fill:#FBB040;}
	.st3{fill:#EADF53;}
	.st4{fill:#FB6771;}
	.st5{fill:#C0FFFD;}
	.st6{fill:#B0B5CA;}
	.st7{fill:#E75163;}
	.st8{fill:#284268;}
</style>
<g>
	<path class="st0" d="M26.2,21.5c0,0-0.1,0.1-0.2,0.1L25.8,3.1l0,0c0-1.1,1-1.9,2.3-1.9l0,0h12.5c0.9,0,1.6,0.6,1.6,1.4v16
		c0,0.8-0.7,1.4-1.6,1.4H27.8c-0.1,0-0.1,0-0.2,0.1L26.2,21.5z"/>
	<path class="st1" d="M25.8,3.1L26,21.5c-0.1,0-0.1,0-0.2-0.1l-1.3-1.1c0,0-0.1-0.1-0.2-0.1H11.3c-0.9,0-1.6-0.6-1.6-1.4V2.6
		c0-0.8,0.7-1.4,1.6-1.4h12.2C24.9,1.2,25.8,2.1,25.8,3.1L25.8,3.1z"/>
	<path class="st2" d="M16.7,39.6l0.2,0.2c-0.6,0.9-1,1.9-1,3.1v5.5H1.3v-4.8c0-2.7,2.4-4.7,5.2-4.8c1.5,1.8,4.4,2.3,6.5,0.9
		c0.3-0.2,0.6-0.4,0.8-0.7c0-0.1,0.1-0.1,0.1-0.2C14.9,38.8,15.8,39.1,16.7,39.6L16.7,39.6z"/>
	<path class="st2" d="M14.8,30.6v2.2c0,2.4-2.2,4.3-4.7,4.3l0,0l0,0c-2.7,0-4.7-1.9-4.7-4.3l0,0v-2.2c0-2.4,2.2-4.3,4.7-4.3l0,0l0,0
		C12.7,26.4,14.8,28.3,14.8,30.6L14.8,30.6L14.8,30.6z"/>
	<path class="st3" d="M50.7,43.5v4.8H36.2v-5.5c0-1.1-0.3-2.2-1-3.1c0.9-0.7,2.1-1,3.2-1c1.5,1.8,4.4,2.3,6.5,0.9
		c0.3-0.2,0.6-0.4,0.8-0.7c0-0.1,0.1-0.1,0.1-0.2C48.6,38.9,50.7,41,50.7,43.5L50.7,43.5z"/>
	<path class="st3" d="M46.7,30.6v2.2c0,2.4-2.2,4.3-4.7,4.3l0,0l0,0c-2.7,0-4.7-1.9-4.7-4.3l0,0v-2.2c0-2.4,2.2-4.3,4.7-4.3l0,0l0,0
		C44.6,26.4,46.7,28.3,46.7,30.6L46.7,30.6L46.7,30.6z"/>
	<path class="st4" d="M26,23.2L26,23.2c3,0,5.4,2.2,5.4,4.9v2.5c0,2.7-2.5,4.9-5.4,4.9l0,0c-3,0-5.4-2.2-5.4-4.9v-2.5
		C20.6,25.4,23,23.2,26,23.2z"/>
	<path class="st4" d="M35,39.8c0.7,0.9,1,1.9,1,3.1v8H15.9v-8c0-3,2.7-5.4,6-5.5c1.7,2.2,5,2.6,7.4,1c0.3-0.2,0.7-0.5,0.9-0.8
		c0.1-0.1,0.1-0.1,0.2-0.2C32.3,37.5,34,38.3,35,39.8L35,39.8z"/>
	<path class="st5" d="M24.3,20.2c0.1,0,0.1,0,0.2,0.1l1.4,1.2c0,0,0.1,0.1,0.2,0.1v-1.3h-1.8V20.2z"/>
	<path class="st6" d="M13.2,18.7V2.6c0-0.8,0.7-1.4,1.6-1.4h-3.5c-0.9,0-1.6,0.6-1.6,1.4v16c0,0.8,0.7,1.4,1.6,1.4h3.5
		C13.9,20.2,13.2,19.5,13.2,18.7L13.2,18.7z"/>
	<path class="st7" d="M24,30.6v-2.5c0-2.2,1.5-4,3.7-4.6c-0.5-0.2-1.1-0.2-1.7-0.2l0,0c-3,0-5.4,2.2-5.4,4.9l0,0v2.4
		c0,2.7,2.5,4.9,5.4,4.9l0,0l0,0c0.6,0,1.1-0.1,1.7-0.2C25.5,34.6,24,32.8,24,30.6z"/>
	<path class="st7" d="M21.9,37.4c-3.3,0.1-6,2.6-6,5.5v8h3.4v-8c0-1.1,0.3-2.2,1-3.1c0.5-0.7,1.3-1.3,2.2-1.8
		C22.3,37.8,22.1,37.6,21.9,37.4L21.9,37.4z"/>
	<g>
		<path class="st8" d="M11.3,20.8H24l1.3,1.1c0.4,0.3,0.9,0.3,1.3,0l1.3-1.1h12.5c1.3,0,2.4-0.9,2.4-2.2v-16c0-1.1-1-2.2-2.4-2.2
			H28.1c-0.8,0-1.6,0.3-2.3,0.9c-0.5-0.5-1.3-0.8-2.2-0.8H11.3c-1.2,0-2.3,0.9-2.3,2.1v16C9.1,19.8,10.1,20.8,11.3,20.8L11.3,20.8z
			 M26.5,3.1c0-0.7,0.7-1.3,1.5-1.3h12.5c0.5,0,0.9,0.4,0.9,0.8v16c0,0.5-0.4,0.8-0.9,0.8H27.8c-0.2,0-0.5,0.1-0.6,0.2L26.8,20
			L26.5,3.1L26.5,3.1z M10.4,2.6c0-0.5,0.4-0.8,0.9-0.8h12.2c0.8,0,1.5,0.6,1.5,1.3l0,0l0.2,17l-0.4-0.4c-0.2-0.2-0.4-0.2-0.6-0.2
			H11.3c-0.5,0-0.9-0.4-0.9-0.8V2.6z"/>
		<path class="st8" d="M17.3,5.1h5.1c0.4,0,0.7-0.3,0.7-0.6c0-0.3-0.3-0.6-0.7-0.6h-5.1c-0.4,0-0.7,0.3-0.7,0.6S16.9,5.1,17.3,5.1z"
			/>
		<path class="st8" d="M12.8,5.1h1.9c0.4,0,0.7-0.3,0.7-0.6c0-0.3-0.3-0.6-0.7-0.6h-1.9c-0.4,0-0.7,0.3-0.7,0.6
			C12,4.8,12.4,5.1,12.8,5.1z"/>
		<path class="st8" d="M22.4,7.8h-1.2c-0.4,0-0.7,0.3-0.7,0.6c0,0.3,0.3,0.6,0.7,0.6h1.2c0.4,0,0.7-0.3,0.7-0.6
			C23.1,8.1,22.8,7.8,22.4,7.8z"/>
		<path class="st8" d="M12.8,9.1h6c0.4,0,0.7-0.3,0.7-0.6c0-0.3-0.3-0.6-0.7-0.6h-6c-0.4,0-0.7,0.3-0.7,0.6
			C12,8.8,12.4,9.1,12.8,9.1z"/>
		<path class="st8" d="M22.4,11.8h-7.2c-0.4,0-0.7,0.3-0.7,0.6c0,0.3,0.3,0.6,0.7,0.6h7.2c0.4,0,0.7-0.3,0.7-0.6
			C23.1,12.1,22.8,11.8,22.4,11.8z"/>
		<path class="st8" d="M12.8,13.1L12.8,13.1c0.4,0,0.7-0.3,0.7-0.6c0-0.3-0.3-0.6-0.7-0.6l0,0c-0.4,0-0.7,0.3-0.7,0.6
			C12,12.8,12.4,13.1,12.8,13.1L12.8,13.1z"/>
		<path class="st8" d="M22.4,15.9h-0.7c-0.4,0-0.7,0.3-0.7,0.6s0.3,0.6,0.7,0.6h0.7c0.4,0,0.7-0.3,0.7-0.6
			C23.1,16.2,22.8,15.9,22.4,15.9z"/>
		<path class="st8" d="M19.2,15.9h-6.5c-0.4,0-0.7,0.3-0.7,0.6s0.3,0.6,0.7,0.6h6.5c0.4,0,0.7-0.3,0.7-0.6
			C19.9,16.2,19.6,15.9,19.2,15.9z"/>
		<path class="st8" d="M37.9,5.1h1c0.4,0,0.7-0.3,0.7-0.6c0-0.3-0.3-0.6-0.7-0.6h-1c-0.4,0-0.7,0.3-0.7,0.6
			C37.2,4.8,37.5,5.1,37.9,5.1z"/>
		<path class="st8" d="M29.3,5.1h6.1c0.4,0,0.7-0.3,0.7-0.6c0-0.3-0.3-0.6-0.7-0.6h-6.1c-0.4,0-0.7,0.3-0.7,0.6
			C28.6,4.8,28.9,5.1,29.3,5.1z"/>
		<path class="st8" d="M38.9,7.8h-5.6c-0.4,0-0.7,0.3-0.7,0.6c0,0.3,0.3,0.6,0.7,0.6h5.6c0.4,0,0.7-0.3,0.7-0.6
			C39.6,8.1,39.3,7.8,38.9,7.8z"/>
		<path class="st8" d="M29.3,9.1h1.4c0.4,0,0.7-0.3,0.7-0.6c0-0.3-0.3-0.6-0.7-0.6h-1.4c-0.4,0-0.7,0.3-0.7,0.6
			C28.6,8.8,28.9,9.1,29.3,9.1z"/>
		<path class="st8" d="M38.9,11.8h-1.8c-0.4,0-0.7,0.3-0.7,0.6c0,0.3,0.3,0.6,0.7,0.6h1.8c0.4,0,0.7-0.3,0.7-0.6
			C39.6,12.1,39.3,11.8,38.9,11.8z"/>
		<path class="st8" d="M29.3,13.1h5.3c0.4,0,0.7-0.3,0.7-0.6c0-0.3-0.3-0.6-0.7-0.6h-5.3c-0.4,0-0.7,0.3-0.7,0.6
			C28.6,12.8,28.9,13.1,29.3,13.1z"/>
		<path class="st8" d="M38.9,15.9h-6.2c-0.4,0-0.7,0.3-0.7,0.6s0.3,0.6,0.7,0.6h6.2c0.4,0,0.7-0.3,0.7-0.6
			C39.6,16.2,39.3,15.9,38.9,15.9z"/>
		<path class="st8" d="M29.3,17.2h1c0.4,0,0.7-0.3,0.7-0.6s-0.3-0.6-0.7-0.6h-1c-0.4,0-0.7,0.3-0.7,0.6S28.9,17.2,29.3,17.2z"/>
		<path class="st8" d="M26,22.6c-3.4,0-6.2,2.5-6.2,5.5v2.5c0,3.1,2.8,5.5,6.2,5.5l0,0c3.4,0,6.2-2.5,6.2-5.5v-2.5
			C32.2,25.1,29.4,22.6,26,22.6L26,22.6z M30.7,28.2v2.5c0,2.4-2.2,4.3-4.7,4.3l0,0c-2.6,0-4.7-1.9-4.7-4.3v-2.5
			c0-2.4,2.2-4.3,4.7-4.3l0,0C28.7,23.8,30.7,25.8,30.7,28.2z"/>
		<path class="st8" d="M41.9,25.8c-3,0-5.4,2.2-5.4,4.9v2.2c0,2.7,2.5,4.9,5.4,4.9l0,0c3,0,5.4-2.2,5.4-4.9v-2.3
			C47.3,28,45,25.8,41.9,25.8L41.9,25.8z M46,30.6v2.2c0,2.1-1.8,3.7-4.1,3.7l0,0c-2.3,0-4.1-1.6-4.1-3.7v-2.2
			c0-2.1,1.8-3.7,4.1-3.7l0,0C44.2,27,46,28.7,46,30.6z"/>
		<path class="st8" d="M45.8,38.1c-0.4,0-0.5,0.2-0.7,0.4c-1.3,1.5-3.8,1.7-5.5,0.5c-0.2-0.2-0.5-0.4-0.7-0.6
			c-0.1-0.2-0.3-0.3-0.6-0.2c-1.1,0-2.2,0.3-3.1,0.8c-1.2-1.3-3-2.1-4.8-2.2c-0.4,0-0.5,0.2-0.7,0.4c-1.6,1.7-4.5,2.1-6.5,0.6
			c-0.3-0.2-0.5-0.5-0.8-0.7C22.2,37,22,36.9,21.7,37c-1.7,0-3.5,0.7-4.7,1.8c-0.1,0.1-0.2,0.2-0.4,0.4c-0.8-0.5-1.8-0.8-2.9-0.8
			c-0.4,0-0.5,0.2-0.7,0.4c-1.3,1.5-3.8,1.7-5.5,0.5c0-0.5-0.2-0.7-0.4-1c-0.1-0.2-0.3-0.3-0.6-0.2c-3.3,0.1-5.8,2.5-5.8,5.4v4.8
			c0,0.3,0.3,0.6,0.7,0.6h14v1.8c0,0.3,0.3,0.6,0.7,0.6l0,0h20.2c0.4,0,0.7-0.3,0.7-0.6l0,0V49h14c0.4,0,0.7-0.3,0.7-0.6v-4.8
			C51.4,40.7,49,38.3,45.8,38.1L45.8,38.1z M1.9,47.8v-4.2c0-2.2,1.8-4,4.2-4.2c1.9,2.1,5.2,2.3,7.5,0.5c0.2-0.2,0.4-0.3,0.5-0.5
			c0.6,0.1,1.3,0.3,1.8,0.6c-0.4,0.9-0.7,1.9-0.7,2.9v4.9H1.9z M35.4,50.2H16.6v-7.4c0-2.6,2.2-4.6,4.9-4.9c2.2,2.3,5.8,2.6,8.4,0.6
			c0.2-0.2,0.5-0.4,0.7-0.6c2.8,0.3,4.7,2.4,4.7,4.8v7.5H35.4z M50.1,47.8H36.8v-4.9c0-1-0.3-2.1-0.8-2.9c0.6-0.3,1.3-0.5,1.9-0.6
			c1.9,2.1,5.2,2.3,7.5,0.5c0.2-0.2,0.4-0.3,0.5-0.5c2.4,0.3,4,2.1,4,4.2v4.2H50.1z"/>
		<path class="st8" d="M10.1,37.7L10.1,37.7c3.1,0,5.4-2.2,5.4-4.9v-2.2c0-2.7-2.5-4.9-5.4-4.9l0,0c-3,0-5.4,2.2-5.4,4.9v2.2
			C4.7,35.5,7,37.7,10.1,37.7z M6,30.6c0-2.1,1.8-3.7,4.1-3.7l0,0c2.3,0,4.1,1.6,4.1,3.7v2.2c0,2.1-1.8,3.7-4.1,3.7l0,0
			c-2.3,0-4.1-1.6-4.1-3.7V30.6z"/>
	</g>
</g>
</svg>
