<?xml version="1.0" encoding="utf-8"?>
<!-- Generator: Adobe Illustrator 24.0.2, SVG Export Plug-In . SVG Version: 6.00 Build 0)  -->
<svg version="1.1" id="Layer_1" xmlns="http://www.w3.org/2000/svg" xmlns:xlink="http://www.w3.org/1999/xlink" x="0px" y="0px"
	 viewBox="0 0 25 25" style="enable-background:new 0 0 25 25;" xml:space="preserve">
<style type="text/css">
	.st0{fill:#FFFFFF;}
</style>
<g>
	<path class="st0" d="M12.5,0C5.6,0,0,5.6,0,12.5c0,3.2,1.2,6.2,3.4,8.5c2.3,2.5,5.7,4,9.1,4c0,0,0,0,0.1,0c0,0,0,0,0,0c0,0,0,0,0,0
		c3.4,0,6.8-1.4,9.1-4c2.2-2.3,3.4-5.4,3.4-8.5C25,5.6,19.4,0,12.5,0z M12.5,0.8C19,0.8,24.2,6,24.2,12.5c0,2.8-1,5.4-2.7,7.5
		c-1.1-2.6-3.2-4.6-5.8-5.5c-0.9,0.6-2,1-3.2,1c-1.2,0-2.3-0.4-3.2-1c-2.6,0.9-4.8,2.9-5.8,5.5c-1.8-2.1-2.7-4.8-2.7-7.5
		C0.8,6,6,0.8,12.5,0.8z"/>
	<circle class="st0" cx="12.5" cy="9.8" r="4.9"/>
</g>
</svg>
