<?xml version="1.0" encoding="utf-8"?>
<!-- Generator: Adobe Illustrator 24.0.2, SVG Export Plug-In . SVG Version: 6.00 Build 0)  -->
<svg version="1.1" id="Layer_1" xmlns="http://www.w3.org/2000/svg" xmlns:xlink="http://www.w3.org/1999/xlink" x="0px" y="0px"
	 viewBox="0 0 56 56" style="enable-background:new 0 0 56 56;" xml:space="preserve">
<style type="text/css">
	.st0{fill:#B0B0B0;}
</style>
<g>
	<g>
		<path class="st0" d="M28,56C12.6,56,0,43.4,0,28S12.6,0,28,0s28,12.6,28,28S43.4,56,28,56z M28,4.3C14.9,4.3,4.3,14.9,4.3,28
			S14.9,51.7,28,51.7S51.7,41.1,51.7,28S41.1,4.3,28,4.3z"/>
	</g>
	<g>
		<g>
			<path class="st0" d="M27.1,37.9c-0.6,0-1.1-0.2-1.5-0.6l-7.7-7.7c-0.8-0.8-0.8-2.2,0-3l7.7-7.7c0.8-0.8,2.2-0.8,3,0
				c0.8,0.8,0.8,2.2,0,3L22.4,28l6.2,6.2c0.8,0.8,0.8,2.2,0,3C28.2,37.7,27.7,37.9,27.1,37.9z"/>
		</g>
		<g>
			<path class="st0" d="M36.6,30.2H19.4c-1.2,0-2.2-1-2.2-2.2s1-2.2,2.2-2.2h17.2c1.2,0,2.2,1,2.2,2.2S37.8,30.2,36.6,30.2z"/>
		</g>
	</g>
</g>
</svg>
