<?xml version="1.0" encoding="utf-8"?>
<!-- Generator: Adobe Illustrator 24.0.2, SVG Export Plug-In . SVG Version: 6.00 Build 0)  -->
<svg version="1.1" id="Layer_1" xmlns="http://www.w3.org/2000/svg" xmlns:xlink="http://www.w3.org/1999/xlink" x="0px" y="0px"
	 viewBox="0 0 26 26" style="enable-background:new 0 0 26 26;" xml:space="preserve">
<style type="text/css">
	.st0{fill:url(#SVGID_1_);}
	.st1{fill:url(#SVGID_2_);}
	.st2{fill:url(#SVGID_3_);}
	.st3{fill:url(#SVGID_4_);}
	.st4{fill:url(#SVGID_5_);}
	.st5{fill:url(#SVGID_6_);}
	.st6{fill:url(#SVGID_7_);}
	.st7{fill:url(#SVGID_8_);}
	.st8{fill:url(#SVGID_9_);}
	.st9{fill:url(#SVGID_10_);}
	.st10{fill:url(#SVGID_11_);}
	.st11{fill:url(#SVGID_12_);}
	.st12{fill:url(#SVGID_13_);}
	.st13{fill:url(#SVGID_14_);}
	.st14{fill:url(#SVGID_15_);}
	.st15{fill:url(#SVGID_16_);}
	.st16{fill:url(#SVGID_17_);}
	.st17{fill:url(#SVGID_18_);}
	.st18{fill:url(#SVGID_19_);}
	.st19{fill:url(#SVGID_20_);}
</style>
<g>
	<g>
		<linearGradient id="SVGID_1_" gradientUnits="userSpaceOnUse" x1="7.4131" y1="9.4827" x2="7.43" y2="9.4827">
			<stop  offset="0" style="stop-color:#F37335"/>
			<stop  offset="1" style="stop-color:#FDC830"/>
		</linearGradient>
		<path class="st0" d="M7.4,9.5L7.4,9.5C7.4,9.5,7.4,9.5,7.4,9.5C7.4,9.4,7.4,9.4,7.4,9.5z"/>
		<linearGradient id="SVGID_2_" gradientUnits="userSpaceOnUse" x1="7.52" y1="9.0948" x2="7.54" y2="9.0948">
			<stop  offset="0" style="stop-color:#F37335"/>
			<stop  offset="1" style="stop-color:#FDC830"/>
		</linearGradient>
		<path class="st1" d="M7.5,9.1C7.5,9.1,7.5,9.1,7.5,9.1C7.5,9.1,7.5,9.1,7.5,9.1C7.5,9.1,7.5,9.1,7.5,9.1z"/>
		<linearGradient id="SVGID_3_" gradientUnits="userSpaceOnUse" x1="7.62" y1="8.8793" x2="7.6746" y2="8.8793">
			<stop  offset="0" style="stop-color:#F37335"/>
			<stop  offset="1" style="stop-color:#FDC830"/>
		</linearGradient>
		<path class="st2" d="M7.7,8.9C7.7,8.9,7.7,8.9,7.7,8.9C7.6,8.9,7.6,8.9,7.7,8.9C7.6,8.9,7.7,8.8,7.7,8.9z"/>
		<linearGradient id="SVGID_4_" gradientUnits="userSpaceOnUse" x1="8.95" y1="7.4548" x2="9.14" y2="7.4548">
			<stop  offset="0" style="stop-color:#F37335"/>
			<stop  offset="1" style="stop-color:#FDC830"/>
		</linearGradient>
		<path class="st3" d="M9.1,7.4c0,0-0.1,0.1-0.1,0.1c0,0,0,0-0.1-0.1c0,0,0,0,0,0c0,0,0,0,0,0h0c0,0,0,0,0,0c0,0,0,0,0,0L9.1,7.4
			C9.1,7.4,9.1,7.4,9.1,7.4C9.1,7.4,9.1,7.4,9.1,7.4z"/>
		<linearGradient id="SVGID_5_" gradientUnits="userSpaceOnUse" x1="10.22" y1="8.7048" x2="10.34" y2="8.7048">
			<stop  offset="0" style="stop-color:#F37335"/>
			<stop  offset="1" style="stop-color:#FDC830"/>
		</linearGradient>
		<path class="st4" d="M10.3,8.8C10.3,8.8,10.3,8.8,10.3,8.8C10.3,8.8,10.3,8.8,10.3,8.8c0,0-0.1,0-0.1,0c0,0,0.1-0.1,0.1-0.1
			c0,0,0,0,0,0c0,0,0,0,0,0l0,0v0C10.3,8.7,10.3,8.7,10.3,8.8L10.3,8.8C10.3,8.7,10.3,8.7,10.3,8.8C10.3,8.8,10.3,8.8,10.3,8.8z"/>
		<linearGradient id="SVGID_6_" gradientUnits="userSpaceOnUse" x1="16.85" y1="18.4848" x2="16.95" y2="18.4848">
			<stop  offset="0" style="stop-color:#F37335"/>
			<stop  offset="1" style="stop-color:#FDC830"/>
		</linearGradient>
		<path class="st5" d="M17,18.5c0,0,0,0-0.1,0C16.9,18.5,16.9,18.5,17,18.5C16.9,18.5,16.9,18.5,17,18.5z"/>
		<linearGradient id="SVGID_7_" gradientUnits="userSpaceOnUse" x1="17.11" y1="18.3647" x2="17.13" y2="18.3647">
			<stop  offset="0" style="stop-color:#F37335"/>
			<stop  offset="1" style="stop-color:#FDC830"/>
		</linearGradient>
		<path class="st6" d="M17.1,18.4C17.1,18.4,17.1,18.4,17.1,18.4C17.1,18.4,17.1,18.4,17.1,18.4C17.1,18.4,17.1,18.4,17.1,18.4z"/>
		<g>
			<linearGradient id="SVGID_8_" gradientUnits="userSpaceOnUse" x1="5.8122" y1="13.0252" x2="20.2106" y2="13.0252">
				<stop  offset="0" style="stop-color:#F37335"/>
				<stop  offset="1" style="stop-color:#FDC830"/>
			</linearGradient>
			<path class="st7" d="M19.8,15.9c-0.3-0.4-0.7-0.7-1.1-1.1c-0.1-0.1-0.2-0.3-0.4-0.4c-0.6-0.5-1.4-0.6-2,0c-0.4,0.3-0.7,0.7-1,1
				c0,0,0,0,0,0c0,0,0,0,0,0c0,0,0,0,0,0c0,0,0,0,0,0h0c0,0,0,0,0,0c0,0,0,0,0,0h0c0,0,0,0,0,0h0c-0.1,0-0.1,0-0.2,0
				c0,0-0.1,0-0.1,0c0,0,0,0,0,0c0,0,0,0,0,0c0,0,0,0,0,0s0,0,0,0c0,0,0,0,0,0c0,0-0.1,0-0.1,0c-0.1,0-0.2-0.1-0.3-0.1
				c0,0-0.1,0-0.1-0.1c0,0,0,0,0,0l0,0l0,0c0,0,0,0,0,0c-0.2-0.1-0.4-0.2-0.6-0.4c-0.2-0.1-0.5-0.3-0.6-0.4
				c-0.5-0.4-0.9-0.8-1.3-1.3c-0.1-0.1-0.3-0.3-0.4-0.5c-0.1-0.2-0.3-0.5-0.4-0.7c0,0,0-0.1,0-0.1c0,0,0-0.1,0-0.1
				c0-0.1-0.1-0.2-0.1-0.3c0-0.1,0-0.2-0.1-0.3c0-0.1,0-0.1,0-0.2c0-0.1,0-0.1,0-0.2c-0.1,0.1,0-0.1,0,0v0c0,0,0-0.1,0-0.1
				c0,0,0,0,0,0c0,0,0,0,0,0v0l0,0c0,0,0,0,0,0c0,0,0,0,0,0c0,0,0,0,0,0c0.2-0.2,0.3-0.3,0.5-0.5c0.2-0.2,0.3-0.3,0.5-0.5
				c0.5-0.6,0.6-1.4,0-2c-0.3-0.4-0.7-0.7-1.1-1.1c-0.1-0.1-0.3-0.3-0.4-0.4C9.6,5.8,8.8,5.7,8.3,6.1C7.8,6.4,7.4,6.8,7,7.2
				C6.6,7.7,6.2,8,6,8.6C5.7,9.4,5.8,10.2,6,11c0.2,1,0.7,1.9,1.2,2.7c1.3,2,3,3.8,5.1,5.1c0.8,0.5,1.8,1,2.7,1.2
				c0.8,0.2,1.7,0.3,2.4,0c0.4-0.1,0.7-0.3,1-0.6c0,0,0.1-0.1,0.1-0.2c0.3-0.3,0.6-0.6,0.9-0.9c0.1-0.1,0.3-0.3,0.4-0.4
				C20.4,17.4,20.3,16.5,19.8,15.9z M7.4,9.5C7.4,9.5,7.4,9.5,7.4,9.5C7.4,9.4,7.4,9.4,7.4,9.5L7.4,9.5z M7.7,8.9
				C7.6,8.9,7.6,8.9,7.7,8.9C7.6,8.9,7.7,8.8,7.7,8.9C7.7,8.9,7.7,8.9,7.7,8.9z M9,7.5C9,7.5,9,7.5,9,7.5C9,7.4,9,7.4,9,7.5
				C9,7.4,9,7.4,9,7.5L9,7.5C9,7.4,9,7.4,9,7.5C9,7.4,9,7.4,9,7.5L9,7.5C9.1,7.4,9.1,7.4,9,7.5c0.1-0.1,0.1-0.1,0.1-0.1
				C9.1,7.4,9.1,7.5,9,7.5z M10.3,8.8C10.3,8.8,10.3,8.8,10.3,8.8C10.3,8.8,10.3,8.8,10.3,8.8C10.3,8.8,10.3,8.8,10.3,8.8
				c0,0-0.1,0-0.1,0c0,0,0.1-0.1,0.1-0.1c0,0,0,0,0,0c0,0,0,0,0,0l0,0v0C10.3,8.7,10.3,8.7,10.3,8.8L10.3,8.8
				C10.3,8.7,10.3,8.7,10.3,8.8z M16.8,18.5C16.9,18.5,16.9,18.5,16.8,18.5c0.1,0,0.1,0,0.1,0C17,18.5,16.9,18.5,16.8,18.5z"/>
			<linearGradient id="SVGID_9_" gradientUnits="userSpaceOnUse" x1="7.4131" y1="9.4827" x2="7.43" y2="9.4827">
				<stop  offset="0" style="stop-color:#F37335"/>
				<stop  offset="1" style="stop-color:#FDC830"/>
			</linearGradient>
			<path class="st8" d="M7.4,9.5L7.4,9.5C7.4,9.5,7.4,9.5,7.4,9.5C7.4,9.4,7.4,9.4,7.4,9.5z"/>
			<linearGradient id="SVGID_10_" gradientUnits="userSpaceOnUse" x1="7.52" y1="9.0948" x2="7.54" y2="9.0948">
				<stop  offset="0" style="stop-color:#F37335"/>
				<stop  offset="1" style="stop-color:#FDC830"/>
			</linearGradient>
			<path class="st9" d="M7.5,9.1C7.5,9.1,7.5,9.1,7.5,9.1C7.5,9.1,7.5,9.1,7.5,9.1C7.5,9.1,7.5,9.1,7.5,9.1z"/>
			<linearGradient id="SVGID_11_" gradientUnits="userSpaceOnUse" x1="7.62" y1="8.8793" x2="7.6746" y2="8.8793">
				<stop  offset="0" style="stop-color:#F37335"/>
				<stop  offset="1" style="stop-color:#FDC830"/>
			</linearGradient>
			<path class="st10" d="M7.7,8.9C7.7,8.9,7.7,8.9,7.7,8.9C7.6,8.9,7.6,8.9,7.7,8.9C7.6,8.9,7.7,8.8,7.7,8.9z"/>
			<linearGradient id="SVGID_12_" gradientUnits="userSpaceOnUse" x1="8.95" y1="7.4548" x2="9.14" y2="7.4548">
				<stop  offset="0" style="stop-color:#F37335"/>
				<stop  offset="1" style="stop-color:#FDC830"/>
			</linearGradient>
			<path class="st11" d="M9.1,7.4c0,0-0.1,0.1-0.1,0.1c0,0,0,0-0.1-0.1c0,0,0,0,0,0c0,0,0,0,0,0h0c0,0,0,0,0,0c0,0,0,0,0,0L9.1,7.4
				C9.1,7.4,9.1,7.4,9.1,7.4C9.1,7.4,9.1,7.4,9.1,7.4z"/>
			<linearGradient id="SVGID_13_" gradientUnits="userSpaceOnUse" x1="10.22" y1="8.7048" x2="10.34" y2="8.7048">
				<stop  offset="0" style="stop-color:#F37335"/>
				<stop  offset="1" style="stop-color:#FDC830"/>
			</linearGradient>
			<path class="st12" d="M10.3,8.8C10.3,8.8,10.3,8.8,10.3,8.8C10.3,8.8,10.3,8.8,10.3,8.8c0,0-0.1,0-0.1,0c0,0,0.1-0.1,0.1-0.1
				c0,0,0,0,0,0c0,0,0,0,0,0l0,0v0C10.3,8.7,10.3,8.7,10.3,8.8L10.3,8.8C10.3,8.7,10.3,8.7,10.3,8.8C10.3,8.8,10.3,8.8,10.3,8.8z"/>
			<linearGradient id="SVGID_14_" gradientUnits="userSpaceOnUse" x1="10.4433" y1="10.891" x2="10.47" y2="10.891">
				<stop  offset="0" style="stop-color:#F37335"/>
				<stop  offset="1" style="stop-color:#FDC830"/>
			</linearGradient>
			<path class="st13" d="M10.5,10.9L10.5,10.9C10.4,11,10.5,10.8,10.5,10.9z"/>
			<linearGradient id="SVGID_15_" gradientUnits="userSpaceOnUse" x1="10.4925" y1="10.7697" x2="10.53" y2="10.7697">
				<stop  offset="0" style="stop-color:#F37335"/>
				<stop  offset="1" style="stop-color:#FDC830"/>
			</linearGradient>
			<path class="st14" d="M10.5,10.7C10.5,10.7,10.5,10.7,10.5,10.7L10.5,10.7C10.5,10.8,10.5,10.8,10.5,10.7
				C10.5,10.8,10.5,10.8,10.5,10.7L10.5,10.7L10.5,10.7C10.5,10.7,10.5,10.7,10.5,10.7z"/>
			<linearGradient id="SVGID_16_" gradientUnits="userSpaceOnUse" x1="14.75" y1="15.5485" x2="14.8397" y2="15.5485">
				<stop  offset="0" style="stop-color:#F37335"/>
				<stop  offset="1" style="stop-color:#FDC830"/>
			</linearGradient>
			<path class="st15" d="M14.8,15.5C14.8,15.5,14.8,15.5,14.8,15.5L14.8,15.5C14.8,15.5,14.8,15.5,14.8,15.5
				C14.8,15.6,14.8,15.6,14.8,15.5z"/>
			<linearGradient id="SVGID_17_" gradientUnits="userSpaceOnUse" x1="15.25" y1="15.5148" x2="15.31" y2="15.5148">
				<stop  offset="0" style="stop-color:#F37335"/>
				<stop  offset="1" style="stop-color:#FDC830"/>
			</linearGradient>
			<path class="st16" d="M15.3,15.5C15.3,15.5,15.3,15.5,15.3,15.5C15.3,15.5,15.3,15.5,15.3,15.5C15.3,15.5,15.3,15.5,15.3,15.5
				C15.3,15.5,15.3,15.5,15.3,15.5C15.3,15.5,15.3,15.5,15.3,15.5C15.3,15.5,15.3,15.5,15.3,15.5z"/>
			<linearGradient id="SVGID_18_" gradientUnits="userSpaceOnUse" x1="16.85" y1="18.4848" x2="16.95" y2="18.4848">
				<stop  offset="0" style="stop-color:#F37335"/>
				<stop  offset="1" style="stop-color:#FDC830"/>
			</linearGradient>
			<path class="st17" d="M17,18.5c0,0,0,0-0.1,0C16.9,18.5,16.9,18.5,17,18.5C16.9,18.5,16.9,18.5,17,18.5z"/>
			<linearGradient id="SVGID_19_" gradientUnits="userSpaceOnUse" x1="17.11" y1="18.3647" x2="17.13" y2="18.3647">
				<stop  offset="0" style="stop-color:#F37335"/>
				<stop  offset="1" style="stop-color:#FDC830"/>
			</linearGradient>
			<path class="st18" d="M17.1,18.4C17.1,18.4,17.1,18.4,17.1,18.4C17.1,18.4,17.1,18.4,17.1,18.4C17.1,18.4,17.1,18.4,17.1,18.4z"
				/>
		</g>
	</g>
	<g>
		<g>
			<linearGradient id="SVGID_20_" gradientUnits="userSpaceOnUse" x1="0" y1="13" x2="26" y2="13">
				<stop  offset="0" style="stop-color:#F37335"/>
				<stop  offset="1" style="stop-color:#FDC830"/>
			</linearGradient>
			<path class="st19" d="M5.1,22.1c2,1.9,4.6,3,7.4,3.3c2.4,0.2,4.8-0.3,6.9-1.4c4.1-2.2,6.7-6.6,6.6-11.3c-0.1-4.6-2.9-8.9-7-10.9
				c-2.1-1-4.5-1.4-6.8-1.1C9.8,1,7.6,1.9,5.8,3.4c-3.9,3.1-5.5,8.4-4.1,13.1c0.2,0.7,0.5,1.4,0.8,2c0-0.3,0-0.5,0-0.8
				c-0.7,1.3-1.4,2.7-2.1,4c-0.1,0.2-0.2,0.4-0.3,0.6C-0.2,23,0.3,23.7,1,23.5c1.4-0.4,2.9-0.7,4.3-1.1c0.2,0,0.4-0.1,0.6-0.2
				c0.4-0.1,0.7-0.6,0.6-1c-0.1-0.4-0.6-0.7-1-0.6c-1.4,0.4-2.9,0.7-4.3,1.1c-0.2,0-0.4,0.1-0.6,0.2c0.3,0.4,0.6,0.8,0.9,1.2
				c0.6-1.2,1.3-2.4,1.9-3.6c0.1-0.3,0.3-0.5,0.4-0.8c0-0.1,0.1-0.1,0.1-0.2c0,0,0-0.1,0.1-0.1c0.1-0.4,0-0.7-0.2-1
				c-0.6-1.4-1-2.9-1-4.5c0-0.3,0-0.6,0-1c0-0.2,0-0.3,0-0.5c0,0,0-0.1,0-0.1c0,0,0,0.1,0,0c0-0.1,0-0.2,0-0.3
				c0.1-0.6,0.3-1.2,0.5-1.8c0-0.1,0.1-0.3,0.1-0.4c0-0.1,0.1-0.1,0.1-0.2c0-0.1,0,0,0,0c0,0,0-0.1,0.1-0.1C3.8,8.5,4,8.2,4.1,7.9
				c0.3-0.5,0.6-1,1-1.5c0.1-0.1,0,0,0,0c0,0,0-0.1,0.1-0.1c0-0.1,0.1-0.1,0.1-0.2C5.3,6.1,5.4,6,5.6,5.8C5.7,5.6,6,5.4,6.2,5.2
				C6.4,5,6.6,4.8,6.9,4.6C6.9,4.5,7,4.5,7,4.5c0.1-0.1,0,0,0,0c0,0,0.1,0,0.1-0.1c0.1-0.1,0.2-0.2,0.4-0.3C8,3.8,8.5,3.5,9,3.2
				c0.1-0.1,0.3-0.1,0.4-0.2c0.1-0.1-0.1,0,0.1,0C9.6,3,9.6,3,9.7,2.9c0.3-0.1,0.6-0.2,0.9-0.3c0.3-0.1,0.6-0.2,0.9-0.2
				c0.2,0,0.3-0.1,0.5-0.1c0.1,0,0.1,0,0.2,0c-0.2,0,0.1,0,0.1,0c0.6-0.1,1.3-0.1,1.9-0.1c0.3,0,0.6,0,0.9,0.1c-0.1,0,0,0,0.1,0
				c0.1,0,0.1,0,0.2,0c0.2,0,0.3,0.1,0.5,0.1c0.6,0.1,1.2,0.3,1.7,0.5c0,0,0.2,0.1,0.1,0.1c-0.1,0,0.1,0,0.1,0.1
				c0.2,0.1,0.3,0.1,0.5,0.2c0.3,0.1,0.5,0.3,0.8,0.4c0.3,0.2,0.5,0.3,0.7,0.5c0.1,0,0.1,0.1,0.2,0.1c0,0,0.2,0.1,0.1,0.1
				c-0.1,0,0.1,0.1,0.1,0.1c0.1,0.1,0.1,0.1,0.2,0.2c0.5,0.4,0.9,0.8,1.3,1.2C21.9,6,21.9,6.2,22,6.3c0,0.1,0.1,0.1,0.1,0.2
				c-0.1-0.1,0,0.1,0.1,0.1c0.2,0.2,0.3,0.5,0.5,0.7c0.2,0.3,0.3,0.5,0.5,0.8c0.1,0.1,0.1,0.3,0.2,0.4c0,0.1,0.1,0.1,0.1,0.2
				c0,0,0,0.1,0,0.1c0,0,0.1,0.2,0,0.1c0-0.1,0,0.1,0.1,0.1c0,0.1,0.1,0.1,0.1,0.2c0.1,0.1,0.1,0.3,0.2,0.4c0.1,0.3,0.2,0.6,0.2,0.9
				c0.1,0.3,0.1,0.6,0.2,0.9c0,0,0,0.2,0,0.1c0,0.1,0,0.1,0,0.2c0,0.2,0,0.3,0,0.5c0,0.6,0,1.3,0,1.9c0,0.1,0,0.1,0,0.2
				c0,0.1,0,0.2,0,0.1c0,0.2,0,0.3-0.1,0.5c-0.1,0.3-0.1,0.6-0.2,0.9c-0.1,0.3-0.2,0.6-0.3,0.9c0,0.1-0.1,0.3-0.2,0.4
				c0,0,0,0.1,0,0.1c0,0,0-0.1,0,0c0,0.1-0.1,0.2-0.1,0.2c-0.2,0.5-0.5,1.1-0.9,1.6c-0.1,0.1-0.2,0.2-0.2,0.4c0,0.1-0.1,0.1-0.1,0.2
				c0,0,0,0.1-0.1,0.1c-0.1,0.1,0.1-0.1,0,0c-0.2,0.2-0.4,0.5-0.6,0.7c-0.4,0.4-0.8,0.8-1.3,1.2c0,0-0.1,0-0.1,0.1c0,0,0.1-0.1,0,0
				c-0.1,0-0.1,0.1-0.2,0.1c-0.1,0.1-0.2,0.2-0.4,0.3c-0.2,0.2-0.5,0.3-0.8,0.5c-0.3,0.1-0.5,0.3-0.8,0.4c-0.1,0-0.1,0.1-0.2,0.1
				c0,0-0.2,0.1-0.1,0c-0.1,0.1-0.3,0.1-0.4,0.2c-0.6,0.2-1.2,0.4-1.8,0.5c-0.1,0-0.3,0-0.4,0.1c-0.2,0,0.1,0-0.1,0
				c-0.1,0-0.2,0-0.3,0c-0.3,0-0.6,0-0.9,0.1c-0.4,0-0.7,0-1.1,0c-0.2,0-0.4,0-0.5,0c-0.1,0,0,0,0,0c0,0-0.1,0-0.1,0
				c-0.1,0-0.2,0-0.3,0c-1.5-0.3-2.7-0.7-3.9-1.5c-0.3-0.2-0.6-0.4-0.8-0.6c-0.1-0.1,0,0,0,0c0,0-0.1-0.1-0.1-0.1
				c-0.1-0.1-0.1-0.1-0.2-0.2c-0.1-0.1-0.3-0.2-0.4-0.4c-0.3-0.3-0.8-0.3-1.2,0C4.8,21.2,4.8,21.8,5.1,22.1z"/>
		</g>
	</g>
</g>
</svg>
