<?xml version="1.0" encoding="utf-8"?>
<!-- Generator: Adobe Illustrator 24.0.2, SVG Export Plug-In . SVG Version: 6.00 Build 0)  -->
<svg version="1.1" id="Layer_1" xmlns="http://www.w3.org/2000/svg" xmlns:xlink="http://www.w3.org/1999/xlink" x="0px" y="0px"
	 viewBox="0 0 43 43" style="enable-background:new 0 0 43 43;" xml:space="preserve">
<style type="text/css">
	.st0{fill:#0E5869;}
</style>
<g>
	<path class="st0" d="M2.8,22.9c-0.9-0.9-1.4-1.9-1.6-3.1C1,17.7,1.9,16,3.7,14.8C4,14.7,4,14.6,4,14.3c-0.8-4.7,3-8.8,7.8-8.1
		c0,0,0.1,0,0.1,0C12,5.8,12,5.3,12.1,4.9c0.5-2.2,2.5-3.7,4.8-3.7c2.2,0,4.1,1.6,4.6,3.8c0.1,0.3,0.2,0.4,0.4,0.4
		c0.8,0,1.5,0,2.3,0c0.2,0,0.4-0.1,0.5-0.3c0.6-1.4,2.1-2.2,3.6-1.8c1.5,0.3,2.5,1.6,2.5,3.1c0,1.5-1,2.8-2.5,3.1
		c-1.4,0.3-2.9-0.4-3.5-1.8c-0.1-0.2-0.2-0.3-0.5-0.3c-0.8,0-1.7,0-2.6,0c0,0.6,0,1.2,0,1.8c0,0.6,0,1.2,0,1.8c0.2,0,0.3,0,0.4,0
		c3.1,0,6.1,0,9.2,0c1.6,0,2.5-0.9,2.5-2.5c0-0.5,0-0.9,0-1.4c0-0.3-0.1-0.4-0.3-0.5c-1.2-0.6-2-1.8-1.9-3.2
		c0.1-1.3,1.1-2.5,2.3-2.8c1.6-0.4,3.3,0.4,3.8,2c0.6,1.5-0.2,3.3-1.7,3.9c-0.3,0.1-0.4,0.3-0.4,0.6c0,0.8,0.1,1.5-0.1,2.3
		c-0.3,2.1-2.1,3.6-4.3,3.6c-3.1,0-6.2,0-9.3,0c-0.1,0-0.3,0-0.5,0c0,1.2,0,2.3,0,3.6c0.1,0,0.3,0,0.4,0c4.6,0,9.2,0,13.8,0
		c0.3,0,0.4-0.1,0.6-0.3c0.6-1.4,2.1-2.1,3.6-1.8c1.5,0.3,2.5,1.7,2.4,3.3c0,1.4-1.2,2.7-2.6,3c-1.4,0.3-2.9-0.5-3.4-1.9
		c-0.1-0.2-0.2-0.3-0.5-0.3c-4.6,0-9.3,0-13.9,0c-0.1,0-0.2,0-0.3,0c0,2.1,0,4.1,0,6.1c0.2,0,0.3,0,0.4,0c4.6,0,9.2,0,13.9,0
		c0.3,0,0.4-0.1,0.5-0.3c0.6-1.4,2.1-2.1,3.6-1.8c1.4,0.3,2.5,1.6,2.5,3.1c0,1.5-1,2.8-2.6,3.1c-1.4,0.3-2.9-0.4-3.5-1.8
		c-0.1-0.2-0.2-0.3-0.5-0.3c-4.7,0-9.3,0-14,0c-0.1,0-0.2,0-0.3,0c0,1.2,0,2.3,0,3.6c0.2,0,0.3,0,0.5,0c3.1,0,6.2,0,9.3,0
		c2.1,0,3.8,1.3,4.3,3.3c0.2,0.8,0.1,1.6,0.1,2.5c0,0.3,0.1,0.4,0.4,0.6c1.4,0.6,2.1,2.1,1.7,3.6c-0.3,1.4-1.6,2.5-3.1,2.5
		c-1.5,0-2.8-1-3.1-2.5c-0.3-1.4,0.4-2.9,1.8-3.5c0.3-0.1,0.4-0.3,0.4-0.6c0-0.7,0-1.3-0.1-2c-0.1-1-1.1-1.9-2.1-1.9
		c-3.3,0-6.6,0-9.8,0c0,0-0.1,0-0.2,0c0,1.2,0,2.3,0,3.5c1,0,1.9,0,2.9,0c0-0.1,0.1-0.2,0.2-0.3c0.6-1.4,2.1-2.1,3.6-1.7
		c1.4,0.3,2.4,1.6,2.4,3.1c0,1.5-1,2.8-2.5,3.1c-1.4,0.3-2.9-0.4-3.5-1.7c-0.1-0.3-0.3-0.4-0.6-0.4c-0.8,0-1.6,0-2.4,0
		c-0.2,0-0.3,0.1-0.4,0.3c-0.8,2.3-2.4,3.7-4.8,3.9c-1.3,0.1-2.5-0.3-3.5-1c-0.2-0.1-0.4-0.2-0.6-0.1c-3.6,1.3-7.5-1.4-7.4-5.3
		c0-0.7-0.2-1-0.8-1.3c-4.2-2.1-5-7.6-1.7-10.9C2.6,23.1,2.7,23.1,2.8,22.9z M14.5,39.4c0.8,0.5,1.6,0.6,2.4,0.4
		c1.7-0.3,2.8-1.7,2.8-3.5c0-10,0-20.1,0-30.1c0-0.1,0-0.2,0-0.3c-0.1-1.2-0.7-2-1.7-2.5c-1.1-0.5-2.1-0.3-3,0.4
		C14,4.6,13.8,5.6,14,6.7c0,0.2,0.2,0.3,0.3,0.4c0.4,0.3,0.8,0.6,1.2,0.9c0.3,0.3,0.4,0.8,0.2,1.1c-0.2,0.4-0.6,0.6-1,0.5
		c-0.2,0-0.5-0.2-0.7-0.4c-1.4-1.2-3-1.6-4.7-1c-3.4,1-4.6,5.1-2.3,7.8c0.4,0.5,0.4,1.2,0,1.5c-0.5,0.4-1,0.3-1.5-0.3
		c-0.2-0.3-0.5-0.6-0.7-0.9c0,0-0.1,0-0.1,0.1c-1.8,1.1-1.9,3.8-0.3,5.1c0.1,0.1,0.4,0.1,0.5,0.1c0.8-0.3,1.6-0.4,2.4-0.4
		c0.5,0,0.9,0.4,1,0.8c0.1,0.5-0.2,0.9-0.6,1.1c-0.2,0.1-0.3,0.1-0.5,0.1c-3.4,0.2-5.6,3.6-4.3,6.7c0.9,2.1,3,3.3,5.3,2.9
		c0.7-0.1,1.2,0.2,1.3,0.8c0.1,0.6-0.3,1.1-1,1.2C8,34.8,7.5,34.9,7,34.9c0,0,0,0.1,0,0.1C6.7,37,8.2,38.8,10.1,39
		c2.1,0.2,3.9-1.3,4-3.4c0-0.7,0.4-1.1,1-1.1c0.6,0,1,0.5,0.9,1.2C16,37.1,15.5,38.3,14.5,39.4z M28.7,6.3c0-0.7-0.5-1.2-1.2-1.2
		c-0.7,0-1.2,0.5-1.2,1.2c0,0.7,0.6,1.2,1.2,1.2C28.2,7.5,28.7,7,28.7,6.3z M39.3,18.6c0.7,0,1.2-0.6,1.2-1.2c0-0.6-0.6-1.2-1.2-1.2
		c-0.7,0-1.2,0.6-1.2,1.2C38.1,18.1,38.6,18.6,39.3,18.6z M40.5,25.6c0-0.7-0.5-1.2-1.2-1.2c-0.7,0-1.2,0.5-1.2,1.2
		c0,0.7,0.5,1.2,1.2,1.2C40,26.8,40.5,26.2,40.5,25.6z M34.7,2.4c-0.7,0-1.2,0.5-1.2,1.2c0,0.7,0.6,1.2,1.2,1.2
		c0.7,0,1.2-0.5,1.2-1.2C35.9,2.9,35.4,2.4,34.7,2.4z M27.6,37.9c0.7,0,1.2-0.5,1.2-1.2c0-0.6-0.5-1.2-1.2-1.2
		c-0.7,0-1.2,0.5-1.2,1.2C26.4,37.3,26.9,37.9,27.6,37.9z M34.8,40.6c0.7,0,1.2-0.5,1.2-1.2c0-0.7-0.5-1.2-1.2-1.2
		c-0.7,0-1.2,0.5-1.2,1.2C33.6,40.1,34.1,40.6,34.8,40.6z"/>
	<path class="st0" d="M16.3,21.1c0.5,0.1,1,0.3,1.4,0.4c0.2,0,0.3,0.1,0.4,0.2c0.4,0.3,0.5,0.7,0.3,1c-0.2,0.3-0.6,0.4-1,0.2
		c-0.6-0.3-1.2-0.5-1.9-0.3c-1.1,0.3-1.9,1.2-2,2.3c0,0.2-0.1,0.5-0.3,0.7c-0.2,0.1-0.5,0.2-0.7,0.1c-0.3-0.1-0.4-0.4-0.4-0.7
		c0.1-1.6,0.8-2.8,2.3-3.5c0.4-0.2,0.4-0.3,0.4-0.7c-0.1-0.9-0.6-1.7-1.3-2.2c-0.4-0.3-0.5-0.6-0.3-0.9c0.2-0.4,0.7-0.6,1.1-0.2
		c1.1,0.8,1.8,1.9,1.9,3.3C16.3,20.9,16.3,21,16.3,21.1z"/>
	<path class="st0" d="M9.2,27.2c1.1,0,2.3,1,2.7,2.2c0.1,0.3,0.3,0.4,0.5,0.4c0.7-0.1,1.3-0.3,1.7-0.8c0.3-0.4,0.8-0.4,1.1,0
		c0.3,0.3,0.2,0.7-0.1,1c-0.8,0.8-1.7,1.2-2.8,1.2c-0.3,0-0.4,0.1-0.4,0.3c-0.2,0.4-0.3,0.8-0.6,1.1c-0.2,0.4-0.7,0.4-1,0.1
		c-0.3-0.2-0.4-0.6-0.1-1c0.9-1.3,0.4-2.8-1.2-3.1c-0.4-0.1-0.7-0.4-0.6-0.8C8.5,27.4,8.8,27.2,9.2,27.2z"/>
	<path class="st0" d="M15.3,13.5c-0.2,0.6-0.2,1.1-0.4,1.5c-0.2,0.4-0.6,0.6-1,0.4c-0.4-0.2-0.5-0.6-0.3-1c0.6-1.4-0.4-2.9-2-2.8
		c-0.4,0-0.7-0.2-0.8-0.6c0-0.4,0.2-0.7,0.7-0.7c1.3-0.1,2.4,0.4,3.1,1.5c0.1,0.2,0.3,0.3,0.5,0.2c0.7-0.2,1.2-0.6,1.5-1.2
		c0.3-0.5,0.6-0.6,1-0.4c0.4,0.2,0.5,0.6,0.2,1.1c-0.5,0.9-1.3,1.5-2.4,1.8C15.5,13.4,15.4,13.5,15.3,13.5
		C15.3,13.5,15.3,13.5,15.3,13.5z"/>
</g>
</svg>
