<?xml version="1.0" encoding="utf-8"?>
<!-- Generator: Adobe Illustrator 24.0.2, SVG Export Plug-In . SVG Version: 6.00 Build 0)  -->
<svg version="1.1" id="Layer_1" xmlns="http://www.w3.org/2000/svg" xmlns:xlink="http://www.w3.org/1999/xlink" x="0px" y="0px"
	 viewBox="0 0 32 32" style="enable-background:new 0 0 32 32;" xml:space="preserve">
<style type="text/css">
	.st0{fill:url(#SVGID_1_);}
</style>
<linearGradient id="SVGID_1_" gradientUnits="userSpaceOnUse" x1="0.8752" y1="15.514" x2="28.2853" y2="15.514">
	<stop  offset="0" style="stop-color:#F37335"/>
	<stop  offset="1" style="stop-color:#FDC830"/>
</linearGradient>
<path class="st0" d="M22.4,1.8c1.2-0.2,2.3,0.8,2.3,2l0,2.2c0,0.9-0.6,1.8-1.5,2l-4.4,1.2c0,0-0.1,0-0.1,0c-0.2,0.1-0.9,0.3-2.9-1.1
	c-0.7-0.4-1.5-0.5-2.2,0c-0.9,0.5-2.2,1.4-3.5,2.7c-1.3,1.3-2.2,2.6-2.7,3.5c-0.4,0.7-0.4,1.5,0,2.2c1.3,2,1.1,2.8,1.1,2.9
	c0,0,0,0.1,0,0.1l-1.2,4.4c-0.2,0.9-1.1,1.5-2,1.5l-2.2,0c-1.2,0-2.2-1.1-2-2.3c1-6.7,3.6-11.4,6.9-14.6C11,5.5,15.6,2.8,22.4,1.8z
	 M13.8,17.5l0.4,0.4c0.4,0.4,1.2,0.4,1.6,0l1.1-1.1c0.4-0.4,0.4-1.2,0-1.6l-0.4-0.4c-0.4-0.4-1.2-0.4-1.6,0l-1.1,1.1
	C13.4,16.3,13.4,17,13.8,17.5z M17.3,14l0.4,0.4c0.4,0.4,1.2,0.4,1.6,0l1.1-1.1c0.4-0.4,0.4-1.2,0-1.6L20,11.3
	c-0.4-0.4-1.2-0.4-1.6,0l-1.1,1.1C16.9,12.8,16.9,13.6,17.3,14z M10.4,20.9l0.4,0.4c0.4,0.4,1.2,0.4,1.6,0l1.1-1.1
	c0.4-0.4,0.4-1.2,0-1.6l-0.4-0.4c-0.4-0.4-1.2-0.4-1.6,0l-1.1,1.1C9.9,19.8,9.9,20.5,10.4,20.9z M16.4,20l0.4,0.4
	c0.4,0.4,1.2,0.4,1.6,0l1.1-1.1c0.4-0.4,0.4-1.2,0-1.6l-0.4-0.4c-0.4-0.4-1.2-0.4-1.6,0l-1.1,1.1C15.9,18.8,15.9,19.6,16.4,20z
	 M19.9,16.5l0.4,0.4c0.4,0.4,1.2,0.4,1.6,0l1.1-1.1c0.4-0.4,0.4-1.2,0-1.6l-0.4-0.4c-0.4-0.4-1.2-0.4-1.6,0l-1.1,1.1
	C19.4,15.4,19.4,16.1,19.9,16.5z M12.9,23.5l0.4,0.4c0.4,0.4,1.2,0.4,1.6,0l1.1-1.1c0.4-0.4,0.4-1.2,0-1.6l-0.4-0.4
	c-0.4-0.4-1.2-0.4-1.6,0l-1.1,1.1C12.5,22.3,12.5,23,12.9,23.5z M18.9,22.5l0.4,0.4c0.4,0.4,1.2,0.4,1.6,0l1.1-1.1
	c0.4-0.4,0.4-1.2,0-1.6l-0.4-0.4c-0.4-0.4-1.2-0.4-1.6,0l-1.1,1.1C18.5,21.4,18.5,22.1,18.9,22.5z M22.4,19.1l0.4,0.4
	c0.4,0.4,1.2,0.4,1.6,0l1.1-1.1c0.4-0.4,0.4-1.2,0-1.6l-0.4-0.4c-0.4-0.4-1.2-0.4-1.6,0l-1.1,1.1C21.9,17.9,21.9,18.6,22.4,19.1z
	 M15.4,26l0.4,0.4c0.4,0.4,1.2,0.4,1.6,0l1.1-1.1c0.4-0.4,0.4-1.2,0-1.6l-0.4-0.4c-0.4-0.4-1.2-0.4-1.6,0l-1.1,1.1
	C15,24.8,15,25.6,15.4,26z M24.9,21.6l0.4,0.4c0.4,0.4,1.2,0.4,1.6,0l1.1-1.1c0.4-0.4,0.4-1.2,0-1.6l-0.4-0.4
	c-0.4-0.4-1.2-0.4-1.6,0L24.9,20C24.5,20.4,24.5,21.2,24.9,21.6z M18,28.5l0.4,0.4c0.4,0.4,1.2,0.4,1.6,0l1.1-1.1
	c0.4-0.4,0.4-1.2,0-1.6l-0.4-0.4c-0.4-0.4-1.2-0.4-1.6,0L18,26.9C17.5,27.4,17.5,28.1,18,28.5z"/>
</svg>
