<?xml version="1.0" encoding="utf-8"?>
<!-- Generator: Adobe Illustrator 24.0.2, SVG Export Plug-In . SVG Version: 6.00 Build 0)  -->
<svg version="1.1" id="Layer_1" xmlns="http://www.w3.org/2000/svg" xmlns:xlink="http://www.w3.org/1999/xlink" x="0px" y="0px"
	 viewBox="0 0 60 59" style="enable-background:new 0 0 60 59;" xml:space="preserve">
<style type="text/css">
	.st0{fill:url(#SVGID_1_);}
	.st1{fill:url(#SVGID_2_);}
	.st2{fill:url(#SVGID_3_);}
	.st3{fill:url(#SVGID_4_);}
	.st4{fill:url(#SVGID_5_);}
	.st5{fill:url(#SVGID_6_);}
	.st6{fill:url(#SVGID_7_);}
	.st7{fill:url(#SVGID_8_);}
	.st8{fill:url(#SVGID_9_);}
	.st9{fill:url(#SVGID_10_);}
	.st10{fill:url(#SVGID_11_);}
</style>
<g>
	<linearGradient id="SVGID_1_" gradientUnits="userSpaceOnUse" x1="1" y1="29.5" x2="59" y2="29.5">
		<stop  offset="0" style="stop-color:#8360C3"/>
		<stop  offset="1" style="stop-color:#2EBF91"/>
	</linearGradient>
	<path class="st0" d="M27.1,2.4c0-0.4,0-0.8,0-1.2c0-0.6,0.4-1,1-1c0.1,0,0.3,0,0.4,0c9.7,0,19.4,0,29.1,0c1.1,0,1.4,0.3,1.4,1.4
		c0,14.2,0,28.4,0,42.6c0,1.1-0.3,1.4-1.4,1.4c-2.9,0-5.9,0-8.8,0c-0.2,0-0.4,0-0.5,0c0,1.1,0.1,2.1,0.1,3.1c0,2.9,0,5.8,0,8.7
		c0,0.2,0,0.4,0,0.7c-0.6,0-1.3,0-1.9,0c0-0.2,0-0.4,0-0.6c0-3.2,0-6.3,0-9.5c0-3.5-2.1-5.8-5.6-6.2c-2-0.2-3.9-0.5-5.9-0.8
		c-0.4-0.1-0.6,0-0.8,0.4c-2.6,5.5-5.3,11-7.9,16.5c-0.2,0.5-0.5,0.9-1.1,0.9c-0.6,0-0.9-0.4-1.2-0.9c-2.9-5.5-5.8-11-8.7-16.5
		C15,41,14.8,40.9,14.4,41c-2.2,0.3-4.4,0.6-6.6,0.9C5,42.4,3,44.8,2.9,47.8c0,3.3,0,6.5,0,9.8c0,0.2,0,0.4,0,0.6
		c-0.7,0-1.3,0-1.9,0c0-0.2,0-0.4,0-0.6c0-3.2,0-6.4,0-9.7c0-4.3,2.8-7.4,7-8c2.5-0.4,5-0.7,7.5-1.1c0.3,0,0.6-0.3,0.8-0.5
		c0.4-0.7,0.7-1.4,1-2.1c0-0.1,0-0.3-0.1-0.4c-1.5-1.6-2.5-3.5-3.1-5.6c0-0.1-0.3-0.3-0.4-0.4c-1.7-0.3-2.9-1.3-3.5-2.9
		c-0.6-1.6-0.2-3.1,0.9-4.5c0.1-0.1,0.2-0.4,0.2-0.5c-0.1-2.1-0.3-4.1-0.4-6.2c-0.2-3.7,1-6.9,3.5-9.5c3.3-3.5,7.5-4.6,12.2-4
		C26.7,2.4,26.9,2.4,27.1,2.4z M57,43.7c0-13.9,0-27.7,0-41.5c-9.4,0-18.7,0-28,0c-0.2,0.6,0,0.9,0.5,1c0.2,0.1,0.5,0.2,0.7,0.3
		c0.6,0.3,1.1,0.6,1.8,0.3c0.3-0.1,0.7-0.1,1,0c1.8,0.3,3.1,1.4,4.1,2.9c1,1.6,1.4,3.4,1.5,5.2c0.2,3.3,0,6.5-0.7,9.7
		c-0.1,0.3,0,0.5,0.2,0.8c1.3,1.3,1.5,2.8,1,4.5c-0.5,1.7-1.7,2.7-3.4,3c-0.4,0.1-0.6,0.2-0.7,0.6c-0.6,2-1.5,3.8-3,5.3
		c-0.1,0.1-0.2,0.3-0.1,0.4c0.4,0.8,0.7,1.5,1.2,2.2c0.1,0.2,0.5,0.4,0.7,0.5c2.3,0.3,4.6,0.7,6.9,1c2.6,0.3,4.8,1.4,6.3,3.6
		c0.1,0.1,0.4,0.2,0.6,0.2c2,0,3.9,0,5.9,0C54.7,43.7,55.9,43.7,57,43.7z M28.4,16.9c-1.3,0.6-2.6,1.2-3.9,1.7
		c-2.6,1-5.4,1.4-8.2,1.3c-0.4,0-0.5,0.1-0.6,0.5c-0.1,0.5-0.2,1.1-0.3,1.6c-0.1,0.9-0.3,1.1-1.2,1.1c-1.5,0-2.7,1.5-2.3,3
		c0.3,1.2,1.2,1.9,2.6,1.9c0.9,0,1.1,0.2,1.3,1.1c0.3,1.7,1,3.3,2.1,4.7c1.3,1.7,2.9,2.8,5.1,3.2c4.2,0.6,7.9-1.4,9.7-5.3
		c0.4-0.8,0.6-1.7,0.9-2.6c0.2-0.7,0.5-1,1.2-1c0.3,0,0.5,0,0.8-0.1c1.2-0.3,2.1-1.4,1.9-2.6c-0.1-1.3-1.2-2.2-2.5-2.2
		c-0.8,0-1.1-0.3-1.2-1c-0.1-0.4-0.2-0.7-0.2-1.1c0-0.4-0.2-0.5-0.6-0.5c-1.7,0-3-0.7-3.9-2.2C28.9,17.8,28.7,17.3,28.4,16.9z
		 M13.2,21.2c0.4,0,0.5-0.1,0.6-0.4c0.1-0.7,0.3-1.3,0.5-2c0.2-0.7,0.5-0.9,1.2-0.9c0.9,0,1.9,0,2.8,0c3.5-0.2,6.7-1.2,9.6-3.1
		c0.9-0.6,1.8-0.3,2.3,0.8c0.2,0.6,0.5,1.2,0.8,1.7c0.5,0.8,1.2,1.2,2.1,1.2c0.4,0,0.8,0,1.2,0c0.6,0,0.9,0.3,1.1,0.8
		c0.1,0.5,0.2,1,0.3,1.5c0,0.1,0.1,0.2,0.2,0.3c0.1-0.1,0.2-0.2,0.2-0.3c0.1-1,0.3-2,0.4-3c0.2-2.7,0.3-5.4-0.3-8.1
		c-0.2-1.2-0.7-2.2-1.6-3c-0.7-0.6-1.5-1-2.4-0.8c-0.8,0.2-1.5,0.1-2.3-0.3c-3-1.5-6.1-1.9-9.4-0.9C16,6,12.8,10.2,12.7,14.9
		C12.7,17,13,19.1,13.2,21.2z M25.1,55.8c0.1-0.3,0.2-0.4,0.3-0.6c0.8-1.7,1.6-3.3,2.4-5c0.3-0.6,0.8-1.2,0.7-1.7
		c-0.1-0.6-0.7-1-1.1-1.6c-0.7-0.9-1.5-1.8-2.3-2.7c-1.2,1.5-2.4,3-3.6,4.5c-0.1,0.1-0.1,0.3,0,0.4C22.7,51.3,23.9,53.5,25.1,55.8z
		 M16.9,40.5c1.1,2.1,2.3,4.3,3.5,6.5c1.1-1.3,2.1-2.6,3.2-3.9c-2-1.1-3.9-2.2-5.3-4.1C17.8,39.5,17.4,40,16.9,40.5z M31.2,39.1
		c-0.7,0.7-1.3,1.4-2,2.1c-0.7,0.7-1.6,1.2-2.4,1.8c0.9,1.1,1.9,2.3,2.8,3.5c1-2.1,2-4.1,2.9-6C32,40,31.6,39.5,31.2,39.1z M20,37.9
		c0.1,0.1,0.1,0.2,0.2,0.2c1.3,1.6,3.1,2.5,4.9,3.4c0.1,0.1,0.3,0,0.5-0.1c1-0.7,2-1.4,3-2.2c0.5-0.4,0.9-1,1.3-1.5
		c0,0-0.1-0.1-0.1-0.1C26.5,39.1,23.3,39.3,20,37.9z"/>
	<linearGradient id="SVGID_2_" gradientUnits="userSpaceOnUse" x1="41.569" y1="8.4477" x2="56.098" y2="8.4477">
		<stop  offset="0" style="stop-color:#8360C3"/>
		<stop  offset="1" style="stop-color:#2EBF91"/>
	</linearGradient>
	<path class="st1" d="M48.8,13.8c-2,0-4.1,0-6.1,0c-0.8,0-1.2-0.3-1.2-1.2c0-2.7,0-5.5,0-8.2c0-0.9,0.3-1.2,1.2-1.2
		c4.1,0,8.1,0,12.2,0c0.8,0,1.2,0.3,1.2,1.2c0,2.8,0,5.5,0,8.3c0,0.8-0.4,1.2-1.2,1.2C52.9,13.8,50.9,13.8,48.8,13.8z M54.1,11.8
		c0-2.3,0-4.5,0-6.7c-3.5,0-7,0-10.5,0c0,2.3,0,4.5,0,6.7C47.1,11.8,50.6,11.8,54.1,11.8z"/>
	<linearGradient id="SVGID_3_" gradientUnits="userSpaceOnUse" x1="39.649" y1="32.6217" x2="56.1891" y2="32.6217">
		<stop  offset="0" style="stop-color:#8360C3"/>
		<stop  offset="1" style="stop-color:#2EBF91"/>
	</linearGradient>
	<path class="st2" d="M56.2,36.9c0,0.7,0,1.3,0,2c-0.2,0-0.4,0-0.6,0c-4.9,0-9.7,0-14.6,0c-1.1,0-1.4-0.3-1.4-1.4
		c0-3.5,0-7.1,0-10.6c0-0.2,0-0.4,0-0.6c0.7,0,1.3,0,1.9,0c0,3.5,0,7,0,10.6C46.5,36.9,51.3,36.9,56.2,36.9z"/>
	<linearGradient id="SVGID_4_" gradientUnits="userSpaceOnUse" x1="42.4744" y1="31.5167" x2="55.9543" y2="31.5167">
		<stop  offset="0" style="stop-color:#8360C3"/>
		<stop  offset="1" style="stop-color:#2EBF91"/>
	</linearGradient>
	<path class="st3" d="M52,30c-0.2-0.2-0.3-0.3-0.4-0.4c-0.1-0.5-0.2-1-0.3-1.6c1-0.2,1.9-0.5,2.9-0.7c0.4-0.1,0.8,0.1,1,0.6
		c0.3,0.9,0.5,1.9,0.8,2.9c-0.6,0.2-1.2,0.3-1.8,0.5c-0.1-0.2-0.2-0.3-0.2-0.5c-0.7,1.1-1.3,2.1-1.9,3.1c-0.7,1.1-1.1,1.2-2.2,0.4
		c-0.9-0.6-1.9-1.3-2.8-1.9c-1,1.1-1.9,2.3-2.9,3.4c-0.5-0.4-1-0.8-1.5-1.2c1.2-1.4,2.3-2.8,3.5-4.2c0.4-0.4,0.9-0.4,1.4-0.1
		c0.9,0.6,1.8,1.2,2.7,1.9c0.1,0.1,0.3,0.2,0.5,0.3C51,31.6,51.5,30.7,52,30z"/>
	<linearGradient id="SVGID_5_" gradientUnits="userSpaceOnUse" x1="39.6913" y1="16.6442" x2="56.0565" y2="16.6442">
		<stop  offset="0" style="stop-color:#8360C3"/>
		<stop  offset="1" style="stop-color:#2EBF91"/>
	</linearGradient>
	<path class="st4" d="M39.7,17.6c0-0.6,0-1.2,0-1.9c5.4,0,10.9,0,16.4,0c0,0.6,0,1.2,0,1.9C50.6,17.6,45.2,17.6,39.7,17.6z"/>
	<linearGradient id="SVGID_6_" gradientUnits="userSpaceOnUse" x1="48.373" y1="19.5246" x2="56.0976" y2="19.5246">
		<stop  offset="0" style="stop-color:#8360C3"/>
		<stop  offset="1" style="stop-color:#2EBF91"/>
	</linearGradient>
	<path class="st5" d="M56.1,20.5c-2.6,0-5.1,0-7.7,0c0-0.6,0-1.2,0-1.9c0.2,0,0.3,0,0.5,0c2.2,0,4.5,0,6.7,0c0.4,0,0.5,0.1,0.5,0.5
		C56.1,19.5,56.1,20,56.1,20.5z"/>
	<linearGradient id="SVGID_7_" gradientUnits="userSpaceOnUse" x1="42.5932" y1="23.4199" x2="44.4477" y2="23.4199">
		<stop  offset="0" style="stop-color:#8360C3"/>
		<stop  offset="1" style="stop-color:#2EBF91"/>
	</linearGradient>
	<path class="st6" d="M44.4,22.5c0,0.6,0,1.2,0,1.9c-0.6,0-1.2,0-1.9,0c0-0.6,0-1.2,0-1.9C43.2,22.5,43.8,22.5,44.4,22.5z"/>
	<linearGradient id="SVGID_8_" gradientUnits="userSpaceOnUse" x1="45.4921" y1="23.4201" x2="47.3564" y2="23.4201">
		<stop  offset="0" style="stop-color:#8360C3"/>
		<stop  offset="1" style="stop-color:#2EBF91"/>
	</linearGradient>
	<path class="st7" d="M47.4,24.4c-0.6,0-1.2,0-1.9,0c0-0.6,0-1.2,0-1.9c0.6,0,1.2,0,1.9,0C47.4,23.1,47.4,23.7,47.4,24.4z"/>
	<linearGradient id="SVGID_9_" gradientUnits="userSpaceOnUse" x1="48.3809" y1="23.4201" x2="50.2574" y2="23.4201">
		<stop  offset="0" style="stop-color:#8360C3"/>
		<stop  offset="1" style="stop-color:#2EBF91"/>
	</linearGradient>
	<path class="st8" d="M50.3,24.4c-0.6,0-1.2,0-1.9,0c0-0.6,0-1.2,0-1.9c0.6,0,1.2,0,1.9,0C50.3,23.1,50.3,23.7,50.3,24.4z"/>
	<linearGradient id="SVGID_10_" gradientUnits="userSpaceOnUse" x1="51.2716" y1="23.4098" x2="53.1599" y2="23.4098">
		<stop  offset="0" style="stop-color:#8360C3"/>
		<stop  offset="1" style="stop-color:#2EBF91"/>
	</linearGradient>
	<path class="st9" d="M51.3,24.3c0-0.6,0-1.2,0-1.9c0.6,0,1.2,0,1.9,0c0,0.6,0,1.2,0,1.9C52.5,24.3,51.9,24.3,51.3,24.3z"/>
	<linearGradient id="SVGID_11_" gradientUnits="userSpaceOnUse" x1="54.1781" y1="23.4201" x2="56.0579" y2="23.4201">
		<stop  offset="0" style="stop-color:#8360C3"/>
		<stop  offset="1" style="stop-color:#2EBF91"/>
	</linearGradient>
	<path class="st10" d="M56.1,24.4c-0.7,0-1.2,0-1.9,0c0-0.6,0-1.2,0-1.9c0.6,0,1.2,0,1.9,0C56.1,23.1,56.1,23.7,56.1,24.4z"/>
</g>
</svg>
