<?xml version="1.0" encoding="utf-8"?>
<!-- Generator: Adobe Illustrator 24.0.2, SVG Export Plug-In . SVG Version: 6.00 Build 0)  -->
<svg version="1.1" id="Capa_1" xmlns="http://www.w3.org/2000/svg" xmlns:xlink="http://www.w3.org/1999/xlink" x="0px" y="0px"
	 viewBox="0 0 130.4 130.4" style="enable-background:new 0 0 130.4 130.4;" xml:space="preserve">
<style type="text/css">
	.st0{fill:url(#SVGID_1_);}
	.st1{fill:#C182F9;}
	.st2{fill:#FDD250;}
	.st3{fill:#FFA052;}
	.st4{opacity:0.1;fill:#590BB2;enable-background:new    ;}
	.st5{fill:#FFFFFF;}
	.st6{fill:#EFEBFF;}
	.st7{fill:#FFE783;}
	.st8{fill:#CCA1FF;}
	.st9{fill:#FF8736;}
	.st10{fill:#FFEADC;}
	.st11{fill:#FFBE92;}
	.st12{fill:#B557FF;}
	.st13{fill:#D6B0FF;}
	.st14{fill:#590BB2;}
</style>
<g>
	
		<linearGradient id="SVGID_1_" gradientUnits="userSpaceOnUse" x1="125.9602" y1="-4.7351" x2="7.3533" y2="131.5522" gradientTransform="matrix(1 0 0 -1 0 130.2835)">
		<stop  offset="2.300000e-03" style="stop-color:#E2CCFF"/>
		<stop  offset="1" style="stop-color:#FFFFFF;stop-opacity:0"/>
	</linearGradient>
	<path class="st0" d="M125.2,51.6c1.8-4,2.8-8.4,2.8-13c0.2-17.7-13.8-32.4-31.5-33.2c-5.8-0.2-11.3,1-16.1,3.4
		c-9.7,4.8-21,4.8-30.6,0c-4.8-2.4-10.3-3.6-16.1-3.4C16.1,6.2,2.2,20.9,2.3,38.6c0,4.6,1,9,2.8,13C9,60.3,9,70.1,5.1,78.8
		c-1.8,4-2.8,8.4-2.8,13c-0.2,17.7,13.8,32.4,31.5,33.2c5.8,0.2,11.3-1,16.1-3.4c9.7-4.8,21-4.8,30.6,0c4.8,2.4,10.3,3.6,16.1,3.4
		c17.7-0.8,31.6-15.5,31.5-33.2c0-4.6-1-9-2.8-13C121.4,70.1,121.4,60.3,125.2,51.6L125.2,51.6z"/>
	<g>
		<path class="st1" d="M113.2,22.9h-0.7v-0.7c0-0.7-0.5-1.2-1.2-1.2c-0.7,0-1.2,0.5-1.2,1.2v0.7h-0.7c-0.7,0-1.2,0.5-1.2,1.2
			c0,0.7,0.5,1.2,1.2,1.2h0.7v0.7c0,0.7,0.5,1.2,1.2,1.2c0.7,0,1.2-0.5,1.2-1.2v-0.7h0.7c0.7,0,1.2-0.5,1.2-1.2
			C114.5,23.5,113.9,22.9,113.2,22.9z"/>
		<path class="st2" d="M20.2,71.3h-0.7v-0.7c0-0.7-0.5-1.2-1.2-1.2c-0.7,0-1.2,0.5-1.2,1.2v0.7h-0.7c-0.7,0-1.2,0.5-1.2,1.2
			c0,0.7,0.5,1.2,1.2,1.2H17v0.7c0,0.7,0.5,1.2,1.2,1.2c0.7,0,1.2-0.5,1.2-1.2v-0.7h0.7c0.7,0,1.2-0.5,1.2-1.2
			C21.4,71.9,20.8,71.3,20.2,71.3z"/>
		<path class="st3" d="M105.3,16.3c-0.3,0-0.6-0.1-0.9-0.4l-1.1-1.1l-1.1,1.1c-0.5,0.5-1.3,0.5-1.7,0c-0.5-0.5-0.5-1.3,0-1.7l2-2
			c0.5-0.5,1.3-0.5,1.7,0l2,2c0.5,0.5,0.5,1.3,0,1.7C106,16.1,105.6,16.3,105.3,16.3z"/>
		<path class="st1" d="M25.3,85.6c-0.3,0-0.6-0.1-0.9-0.4l-1.1-1.1l-1.1,1.1c-0.5,0.5-1.3,0.5-1.7,0c-0.5-0.5-0.5-1.3,0-1.7l2-2
			c0.5-0.5,1.3-0.5,1.7,0l2,2c0.5,0.5,0.5,1.3,0,1.7C25.9,85.5,25.6,85.6,25.3,85.6z"/>
		<path class="st1" d="M22.1,16.3c-0.3,0-0.6-0.1-0.9-0.4l-1.1-1.1l-1.1,1.1c-0.5,0.5-1.3,0.5-1.7,0c-0.5-0.5-0.5-1.3,0-1.7l2-2
			c0.5-0.5,1.3-0.5,1.7,0l2,2c0.5,0.5,0.5,1.3,0,1.7C22.8,16.1,22.4,16.3,22.1,16.3z"/>
		<g>
			<path class="st4" d="M104.2,87.8h-0.8V35.1L84.4,16.2H33.7c-1.7,0-3,1.3-3,3v8.4c-8.8,1-15.6,8.4-15.6,17.5s6.8,16.5,15.6,17.5
				v52.9c0,1.7,1.3,3,3,3h60.3c2,3.2,5.5,5.2,9.4,5.2c5.9,0,10.7-4.6,11.1-10.4l0.8-13.8C115.7,93.2,110.6,87.8,104.2,87.8
				L104.2,87.8z"/>
			<g>
				<path class="st5" d="M103.4,28.5v80.4c0,1.7-1.3,3-3,3H33.7c-1.7,0-3-1.3-3-3V12.6c0-1.7,1.3-3,3-3h50.8L103.4,28.5z"/>
				<path class="st6" d="M50.3,43.2c0,9.7-7.9,17.6-17.6,17.6c-0.7,0-1.3,0-2-0.1v-35c0.7-0.1,1.3-0.1,2-0.1
					C42.4,25.5,50.3,33.4,50.3,43.2z"/>
				<g>
					<path class="st1" d="M70.5,26.1H44.4c-0.7,0-1.2-0.5-1.2-1.2s0.5-1.2,1.2-1.2h26.2c0.7,0,1.2,0.5,1.2,1.2S71.2,26.1,70.5,26.1z
						"/>
				</g>
				<path class="st7" d="M91.9,48.8H42.2c-0.7,0-1.2-0.5-1.2-1.2V32.6c0-0.7,0.5-1.2,1.2-1.2h49.7c0.7,0,1.2,0.5,1.2,1.2v14.9
					C93.1,48.2,92.6,48.8,91.9,48.8z"/>
				<path class="st8" d="M84.4,25.5V9.6l18.9,18.9H87.4C85.8,28.5,84.4,27.2,84.4,25.5z"/>
			</g>
			<g>
				<circle class="st9" cx="32.7" cy="38.5" r="17.6"/>
				<path class="st10" d="M22.1,32.9v11.3H16c-0.6-1.8-0.9-3.7-0.9-5.6s0.3-3.9,0.9-5.6H22.1z"/>
				<path class="st11" d="M29.7,49.8l-7.6-5.7V32.9l7.6-5.7c0.8-0.6,2,0,2,1v20.6C31.7,49.8,30.6,50.4,29.7,49.8z"/>
				<g>
					<path class="st10" d="M36,43.6c-0.4,0-0.7-0.1-0.9-0.4c-0.4-0.5-0.4-1.3,0.2-1.7c0.9-0.7,1.4-1.8,1.4-2.9
						c0-1.1-0.5-2.2-1.4-2.9c-0.5-0.4-0.6-1.2-0.2-1.7c0.4-0.5,1.2-0.6,1.7-0.2c1.4,1.2,2.2,2.9,2.2,4.8c0,1.9-0.8,3.6-2.2,4.8
						C36.6,43.5,36.3,43.6,36,43.6L36,43.6z"/>
				</g>
				<g>
					<path class="st10" d="M39.3,47.2c-0.4,0-0.7-0.1-0.9-0.4c-0.4-0.5-0.4-1.3,0.2-1.7c1.9-1.6,3-4,3-6.5c0-2.5-1.1-4.9-3-6.5
						c-0.5-0.4-0.6-1.2-0.2-1.7c0.4-0.5,1.2-0.6,1.7-0.2c2.5,2.1,3.9,5.1,3.9,8.4c0,3.2-1.4,6.3-3.9,8.4
						C39.9,47.1,39.6,47.2,39.3,47.2L39.3,47.2z"/>
				</g>
				<path class="st9" d="M24,38.5h-4.6c-0.7,0-1.2-0.5-1.2-1.2v-1.4c0-0.7,0.5-1.2,1.2-1.2H24c0.7,0,1.2,0.5,1.2,1.2v1.4
					C25.3,37.9,24.7,38.5,24,38.5z"/>
			</g>
			<g>
				<g>
					<g>
						<g>
							<path class="st1" d="M89.3,65.1h-46c-0.7,0-1.2-0.5-1.2-1.2s0.5-1.2,1.2-1.2h46c0.7,0,1.2,0.5,1.2,1.2S89.9,65.1,89.3,65.1z"
								/>
						</g>
						<g>
							<path class="st1" d="M61.3,61.1H43.2c-0.7,0-1.2-0.5-1.2-1.2c0-0.7,0.5-1.2,1.2-1.2h18.1c0.7,0,1.2,0.5,1.2,1.2
								C62.5,60.5,61.9,61.1,61.3,61.1z"/>
						</g>
						<g>
							<path class="st3" d="M64.6,75H53.9c-0.7,0-1.2-0.5-1.2-1.2c0-0.7,0.5-1.2,1.2-1.2h10.7c0.7,0,1.2,0.5,1.2,1.2
								C65.9,74.5,65.3,75,64.6,75L64.6,75z"/>
						</g>
					</g>
					<g>
						<g>
							<path class="st3" d="M90.4,75H79.7c-0.7,0-1.2-0.5-1.2-1.2c0-0.7,0.5-1.2,1.2-1.2h10.7c0.7,0,1.2,0.5,1.2,1.2
								C91.6,74.5,91.1,75,90.4,75z"/>
						</g>
					</g>
				</g>
				<path class="st3" d="M64.6,79.8H53.9c-0.7,0-1.2-0.5-1.2-1.2c0-0.7,0.5-1.2,1.2-1.2h10.7c0.7,0,1.2,0.5,1.2,1.2
					C65.9,79.3,65.3,79.8,64.6,79.8L64.6,79.8z"/>
				<path class="st2" d="M64.6,84.6H42.2c-0.7,0-1.2-0.5-1.2-1.2c0-0.7,0.5-1.2,1.2-1.2h22.5c0.7,0,1.2,0.5,1.2,1.2
					C65.9,84.1,65.3,84.6,64.6,84.6L64.6,84.6z"/>
				<path class="st2" d="M64.6,89.4H42.2c-0.7,0-1.2-0.5-1.2-1.2c0-0.7,0.5-1.2,1.2-1.2h22.5c0.7,0,1.2,0.5,1.2,1.2
					C65.9,88.8,65.3,89.4,64.6,89.4L64.6,89.4z"/>
				<path class="st2" d="M64.6,94.2H42.2c-0.7,0-1.2-0.5-1.2-1.2s0.5-1.2,1.2-1.2h22.5c0.7,0,1.2,0.5,1.2,1.2S65.3,94.2,64.6,94.2
					L64.6,94.2z"/>
				<path class="st3" d="M90.4,79.8H79.7c-0.7,0-1.2-0.5-1.2-1.2c0-0.7,0.5-1.2,1.2-1.2h10.7c0.7,0,1.2,0.5,1.2,1.2
					C91.6,79.3,91.1,79.8,90.4,79.8z"/>
				<g>
					<path class="st2" d="M90.4,84.6h-21c-0.7,0-1.2-0.5-1.2-1.2c0-0.7,0.5-1.2,1.2-1.2h21c0.7,0,1.2,0.5,1.2,1.2
						C91.6,84.1,91.1,84.6,90.4,84.6z"/>
					<path class="st2" d="M90.4,89.4h-21c-0.7,0-1.2-0.5-1.2-1.2c0-0.7,0.5-1.2,1.2-1.2h21c0.7,0,1.2,0.5,1.2,1.2
						C91.6,88.8,91.1,89.4,90.4,89.4z"/>
					<path class="st2" d="M90.4,94.2h-21c-0.7,0-1.2-0.5-1.2-1.2s0.5-1.2,1.2-1.2h21c0.7,0,1.2,0.5,1.2,1.2S91.1,94.2,90.4,94.2z"/>
					<path class="st2" d="M64.6,99H42.2c-0.7,0-1.2-0.5-1.2-1.2c0-0.7,0.5-1.2,1.2-1.2h22.5c0.7,0,1.2,0.5,1.2,1.2
						C65.9,98.4,65.3,99,64.6,99L64.6,99z"/>
					<path class="st2" d="M64.6,103.8H42.2c-0.7,0-1.2-0.5-1.2-1.2s0.5-1.2,1.2-1.2h22.5c0.7,0,1.2,0.5,1.2,1.2
						S65.3,103.8,64.6,103.8L64.6,103.8z"/>
					<path class="st2" d="M90.4,99h-21c-0.7,0-1.2-0.5-1.2-1.2c0-0.7,0.5-1.2,1.2-1.2h21c0.7,0,1.2,0.5,1.2,1.2
						C91.6,98.4,91.1,99,90.4,99z"/>
					<path class="st2" d="M90.4,103.8h-21c-0.7,0-1.2-0.5-1.2-1.2s0.5-1.2,1.2-1.2h21c0.7,0,1.2,0.5,1.2,1.2S91.1,103.8,90.4,103.8z
						"/>
				</g>
			</g>
			<g>
				<path class="st12" d="M46.3,79.9c-0.7,0-1.2-0.5-1.2-1.2v-6.2h-0.1c-0.7,0-1.2-0.5-1.2-1.2c0-0.7,0.5-1.2,1.2-1.2h1.3
					c0.7,0,1.2,0.5,1.2,1.2v7.4C47.5,79.4,47,79.9,46.3,79.9z"/>
				<path class="st12" d="M74,79.9h-4.4c-0.5,0-1-0.3-1.2-0.8c-0.2-0.5,0-1,0.4-1.4c1.2-1,3.2-2.8,3.5-3.7c0.1-0.4,0.1-0.7-0.1-1
					c-0.1-0.2-0.4-0.3-0.6-0.3c-0.5,0-0.8,0.4-0.8,0.8c0,0.7-0.5,1.2-1.2,1.2c-0.7,0-1.2-0.5-1.2-1.2c0-1.8,1.5-3.3,3.3-3.3
					c1.1,0,2.1,0.5,2.7,1.4c0.6,1,0.8,2.2,0.3,3.3c-0.3,0.8-1.1,1.7-1.9,2.5H74c0.7,0,1.2,0.5,1.2,1.2C75.2,79.4,74.7,79.9,74,79.9
					L74,79.9z"/>
			</g>
			<g>
				<path class="st1" d="M102.5,81.1h1.7c6.4,0,11.5,5.4,11.1,11.8l-0.8,13.8c-0.4,5.9-5.2,10.4-11.1,10.4
					c-5.9,0-10.7-4.6-11.1-10.4l-0.8-13.8C91,86.5,96.1,81.1,102.5,81.1z"/>
				<g>
					<path class="st13" d="M115.3,92.9c0.4-6.4-4.7-11.8-11.1-11.8h-1.7c-6.4,0-11.5,5.4-11.1,11.8H115.3z"/>
					<circle class="st13" cx="103.4" cy="110.1" r="1.7"/>
				</g>
			</g>
			<path class="st14" d="M113.2,83.8c-2.3-2.4-5.3-3.8-8.6-3.9v-0.5V60.3V28.5c0-0.3-0.1-0.6-0.4-0.9l-6.7-6.7
				c-0.5-0.5-1.3-0.5-1.7,0c-0.5,0.5-0.5,1.3,0,1.7l6.4,6.4v26.3c-1-0.8-2.3-1.2-3.7-1.2H88.4c-2,0-3.7-1.7-3.7-3.7v-7
				c0-3.4-2.8-6.1-6.1-6.1H51.5c-0.6-9.8-8.8-17.6-18.8-17.6c-0.3,0-0.5,0-0.8,0v-7.1c0-1,0.8-1.8,1.8-1.8h50.2l6.5,6.5
				c0.5,0.5,1.3,0.5,1.7,0c0.5-0.5,0.5-1.3,0-1.7l-6.9-6.9c-0.2-0.2-0.5-0.4-0.9-0.4H33.7c-2.3,0-4.2,1.9-4.2,4.2v7.4
				c-8.9,1.5-15.6,9.3-15.6,18.6s6.8,17,15.6,18.6v10.8c0,0.7,0.5,1.2,1.2,1.2c0.7,0,1.2-0.5,1.2-1.2V57.3c0.3,0,0.5,0,0.8,0
				c10,0,18.2-7.8,18.8-17.6h27.1c2,0,3.7,1.7,3.7,3.7v7c0,3.4,2.8,6.1,6.1,6.1h10.1c2,0,3.7,1.7,3.7,3.7v19.2v0.5
				c-3.3,0.1-6.3,1.5-8.6,3.9c-2.4,2.5-3.5,5.8-3.3,9.2l0.8,13.8c0.1,1.4,0.4,2.7,0.9,3.9H33.7c-1,0-1.8-0.8-1.8-1.8V75.4
				c0-0.7-0.5-1.2-1.2-1.2c-0.7,0-1.2,0.5-1.2,1.2v33.5c0,2.3,1.9,4.2,4.2,4.2h59.6c2.2,3.2,5.9,5.2,10.1,5.2
				c6.5,0,11.9-5.1,12.3-11.6l0.8-13.8C116.7,89.6,115.6,86.3,113.2,83.8L113.2,83.8z M32.7,54.9c-9,0-16.4-7.4-16.4-16.4
				s7.4-16.4,16.4-16.4s16.4,7.4,16.4,16.4S41.7,54.9,32.7,54.9z M111.4,85.5c1.6,1.7,2.5,3.9,2.7,6.2h-9.5v-9.1c0-0.1,0-0.2,0-0.2
				C107.2,82.5,109.6,83.5,111.4,85.5z M95.3,85.5c1.8-1.9,4.2-3,6.8-3.1c0,0.1,0,0.1,0,0.2v9.1h-9.5C92.8,89.4,93.7,87.2,95.3,85.5
				z M103.4,115.9c-5.2,0-9.6-4.1-9.9-9.3l-0.8-12.5H114l-0.8,12.5C112.9,111.8,108.6,115.9,103.4,115.9L103.4,115.9z"/>
		</g>
	</g>
</g>
</svg>
