<?xml version="1.0" encoding="utf-8"?>
<!-- Generator: Adobe Illustrator 23.0.5, SVG Export Plug-In . SVG Version: 6.00 Build 0)  -->
<svg version="1.1" id="Layer_1" xmlns="http://www.w3.org/2000/svg" xmlns:xlink="http://www.w3.org/1999/xlink" x="0px" y="0px"
	 viewBox="0 0 2500 1474.4" style="enable-background:new 0 0 2500 1474.4;" xml:space="preserve">
<style type="text/css">
	.st0{fill:#FFDC0B;}
	.st1{fill:#F8981D;}
	.st2{fill:#FF7900;}
	.st3{fill:#FF7900;stroke:#FFFFFF;stroke-miterlimit:10;}
	.st4{fill:none;stroke:#F8981D;stroke-width:3.9266;stroke-miterlimit:10;}
	.st5{fill:#B3D1FF;}
	.st6{fill:#599AFF;}
	.st7{fill:#FFBD73;}
	.st8{opacity:0.3;fill:#CC6805;enable-background:new    ;}
	.st9{fill:#FF9F34;}
	.st10{fill:#FFFFFF;}
	.st11{fill:#80B2FF;}
	.st12{fill:#4D4D4D;}
	.st13{fill:#CC6805;}
	.st14{font-family:'Poppins-Black';}
	.st15{font-size:22px;}
	.st16{letter-spacing:3;}
	.st17{fill:#F7A58E;}
	.st18{fill:#00050D;}
	.st19{fill:#FF7268;}
	.st20{fill:#E6856A;}
	.st21{fill:#50318F;}
	.st22{fill:#F7A28A;}
	.st23{fill:#F0896C;}
	.st24{fill:#3D3D3D;}
	.st25{fill:#F7B28A;}
	.st26{fill:#F2B231;}
	.st27{fill:#333333;}
	.st28{fill:#FFD834;}
	.st29{fill:#FFEAC2;}
	.st30{fill:#D9FFFF;}
</style>
<g id="BG">
</g>
<g id="elements">
</g>
<g id="shadow">
</g>
<g id="laptop">
</g>
<g id="people">
</g>
<g id="shield">
	<g>
		<g id="plants">
			<g>
				<path class="st0" d="M163,1140c4,36.9,53.4,28.8,86.1,56.3c32.7,27.5,0.3,65.1,75.3,73.2c46.2,5,43-14.4,88.9,33.1
					c40.5,41.8,48-27.2,93.2-16.2c58.4,14.1,62.8-100.9,9-123.2c-53.8-22.3-80.1,8.9-90-39.3c-9.9-48.3-46.1-66.4-92.1-55.6
					c-57,13.4-48.9,63.2-78.3,35.8C225.9,1076.6,157.7,1091.3,163,1140z"/>
				<path class="st1" d="M586.1,1290.5c-164.1-127.3-357-146.7-359-146.9c-7.4-0.7-6.5-9.6,0.9-8.8c2,0.2,198.8,20.4,364.8,149.2
					L586.1,1290.5z"/>
			</g>
			<g>
				<path class="st0" d="M351.2,1013.4c-9.5,23.5,22.9,34.7,33.7,61.9c10.8,27.2-18,50.4,24.7,79.6c26.3,18,37.3-16.3,62.3,14.8
					c25,31,12.8,39.9,35,48.1c38.6,14.3,79.1-45.7,54-76.6s-59.5-19.9-49.7-52.3c9.7-32.3,13-46-18.3-54.5
					c-38.7-10.4-65.4,13.2-74.2-12.9C409.7,995.6,363.8,982.3,351.2,1013.4z"/>
				<path class="st1" d="M586.1,1290.5l6.7-5.5c-58.3-131.6-199.6-252.8-200.8-253.6c-4.8-3.2-8.2,1.8-3.4,5.1
					C389.8,1037.2,528.6,1160.6,586.1,1290.5z"/>
			</g>
		</g>
		<g id="cloud">
			<g>
				<rect x="1807.6" y="175.2" class="st2" width="6.6" height="4.9"/>
				<path class="st2" d="M1814.1,364.8h-6.5v-10.3h6.5V364.8z M1814.1,344.3h-6.5V334h6.5V344.3z M1814.1,323.8h-6.5v-10.3h6.5
					V323.8z M1814.1,303.3h-6.5V293h6.5V303.3z M1814.1,282.7h-6.5v-10.3h6.5V282.7z M1814.1,262.2h-6.5v-10.3h6.5V262.2z
					 M1814.1,241.7h-6.5v-10.3h6.5V241.7z M1814.1,221.2h-6.5v-10.3h6.5V221.2z M1814.1,200.6h-6.5v-10.3h6.5V200.6z"/>
				<rect x="1807.6" y="375.1" class="st2" width="6.6" height="4.9"/>
			</g>
			<g>
				<rect x="1754.1" y="175.2" class="st2" width="6.5" height="4.9"/>
				<path class="st2" d="M382.3,613.9h-6.5v-9.8h6.5V613.9z M382.5,594.5l-6.5-0.5c0.3-3.5,0.9-7,1.8-10.3l6.3,1.8
					C383.2,588.4,382.7,591.4,382.5,594.5z M387.4,577l-5.8-3c1.6-3.1,3.5-6,5.7-8.8l5.1,4.1C390.5,571.7,388.8,574.2,387.4,577z
					 M398.8,562.7l-4.2-5c2.7-2.2,5.6-4.2,8.7-5.9l3.1,5.8C403.7,559.1,401.2,560.8,398.8,562.7z M414.9,554.1l-1.9-6.3
					c3.3-1,6.8-1.7,10.3-2l0.6,6.5C420.8,552.6,417.8,553.2,414.9,554.1z M1701.9,552.2h-9.8v-6.5h9.8V552.2z M1682.3,552.2h-9.8
					v-6.5h9.8V552.2z M1662.6,552.2h-9.8v-6.5h9.8V552.2z M1642.9,552.2h-9.8v-6.5h9.8V552.2z M1623.3,552.2h-9.8v-6.5h9.8V552.2z
					 M1603.6,552.2h-9.8v-6.5h9.8V552.2z M1583.9,552.2h-9.8v-6.5h9.8V552.2z M1564.3,552.2h-9.8v-6.5h9.8V552.2z M1544.6,552.2
					h-9.8v-6.5h9.8V552.2z M1524.9,552.2h-9.8v-6.5h9.8V552.2z M1505.3,552.2h-9.8v-6.5h9.8V552.2z M1485.6,552.2h-9.8v-6.5h9.8
					V552.2z M1465.9,552.2h-9.8v-6.5h9.8V552.2z M1446.3,552.2h-9.8v-6.5h9.8V552.2z M1426.6,552.2h-9.8v-6.5h9.8V552.2z
					 M1406.9,552.2h-9.8v-6.5h9.8V552.2z M1387.3,552.2h-9.8v-6.5h9.8V552.2z M1367.6,552.2h-9.8v-6.5h9.8V552.2z M1347.9,552.2
					h-9.8v-6.5h9.8V552.2z M1328.3,552.2h-9.8v-6.5h9.8V552.2z M1308.6,552.2h-9.8v-6.5h9.8V552.2z M1288.9,552.2h-9.8v-6.5h9.8
					V552.2z M1269.3,552.2h-9.8v-6.5h9.8V552.2z M1249.6,552.2h-9.8v-6.5h9.8V552.2z M1229.9,552.2h-9.8v-6.5h9.8V552.2z
					 M1210.3,552.2h-9.8v-6.5h9.8V552.2z M1190.6,552.2h-9.8v-6.5h9.8V552.2z M1170.9,552.2h-9.8v-6.5h9.8V552.2z M1151.3,552.2
					h-9.8v-6.5h9.8V552.2z M1131.6,552.2h-9.8v-6.5h9.8V552.2z M1111.9,552.2h-9.8v-6.5h9.8V552.2z M1092.3,552.2h-9.8v-6.5h9.8
					V552.2z M1072.6,552.2h-9.8v-6.5h9.8V552.2z M1052.9,552.2h-9.8v-6.5h9.8V552.2z M1033.2,552.2h-9.8v-6.5h9.8V552.2z
					 M1013.6,552.2h-9.8v-6.5h9.8V552.2z M993.9,552.2h-9.8v-6.5h9.8V552.2z M974.2,552.2h-9.8v-6.5h9.8V552.2z M954.6,552.2h-9.8
					v-6.5h9.8V552.2z M934.9,552.2h-9.8v-6.5h9.8V552.2z M915.2,552.2h-9.8v-6.5h9.8V552.2z M895.6,552.2h-9.8v-6.5h9.8V552.2z
					 M875.9,552.2h-9.8v-6.5h9.8V552.2z M856.2,552.2h-9.8v-6.5h9.8V552.2z M836.6,552.2h-9.8v-6.5h9.8V552.2z M816.9,552.2h-9.8
					v-6.5h9.8V552.2z M797.2,552.2h-9.8v-6.5h9.8V552.2z M777.6,552.2h-9.8v-6.5h9.8V552.2z M757.9,552.2h-9.8v-6.5h9.8V552.2z
					 M738.2,552.2h-9.8v-6.5h9.8V552.2z M718.6,552.2h-9.8v-6.5h9.8V552.2z M698.9,552.2h-9.8v-6.5h9.8V552.2z M679.2,552.2h-9.8
					v-6.5h9.8V552.2z M659.5,552.2h-9.8v-6.5h9.8V552.2z M639.9,552.2h-9.8v-6.5h9.8V552.2z M620.2,552.2h-9.8v-6.5h9.8V552.2z
					 M600.5,552.2h-9.8v-6.5h9.8V552.2z M580.9,552.2H571v-6.5h9.8V552.2z M561.2,552.2h-9.8v-6.5h9.8V552.2z M541.5,552.2h-9.8
					v-6.5h9.8V552.2z M521.9,552.2H512v-6.5h9.8V552.2z M502.2,552.2h-9.8v-6.5h9.8V552.2z M482.5,552.2h-9.8v-6.5h9.8V552.2z
					 M462.9,552.2h-9.8v-6.5h9.8V552.2z M443.2,552.2h-9.8v-6.5h9.8V552.2z M1712,552l-0.4-6.5c3.1-0.2,6.1-0.7,9-1.5l1.7,6.3
					C1719,551.2,1715.5,551.8,1712,552z M1732.1,546.5l-3-5.8c2.7-1.4,5.3-3,7.7-5l4.1,5.1C1738.2,543,1735.2,544.9,1732.1,546.5z
					 M1748.4,533.5l-5-4.2c2-2.3,3.7-4.9,5.2-7.6l5.8,3.1C1752.6,527.9,1750.7,530.8,1748.4,533.5z M1758.4,515.2l-6.3-1.9
					c0.9-2.9,1.5-5.9,1.8-9l6.5,0.6C1760.1,508.4,1759.4,511.9,1758.4,515.2z M1760.7,494.8h-6.5V485h6.5V494.8z M1760.7,475.1h-6.5
					v-9.8h6.5V475.1z M1760.7,455.5h-6.5v-9.8h6.5V455.5z M1760.7,435.8h-6.5V426h6.5V435.8z M1760.7,416.1h-6.5v-9.8h6.5V416.1z
					 M1760.7,396.5h-6.5v-9.8h6.5V396.5z M1760.7,376.8h-6.5V367h6.5V376.8z M1760.7,357.1h-6.5v-9.8h6.5V357.1z M1760.7,337.5h-6.5
					v-9.8h6.5V337.5z M1760.7,317.8h-6.5V308h6.5V317.8z M1760.7,298.1h-6.5v-9.8h6.5V298.1z M1760.7,278.5h-6.5v-9.8h6.5V278.5z
					 M1760.7,258.8h-6.5V249h6.5V258.8z M1760.7,239.1h-6.5v-9.8h6.5V239.1z M1760.7,219.5h-6.5v-9.8h6.5V219.5z M1760.7,199.8h-6.5
					V190h6.5V199.8z"/>
				<rect x="375.8" y="623.9" class="st2" width="6.5" height="4.9"/>
			</g>
			<g>
				<rect x="1846.9" y="175.2" class="st2" width="6.6" height="4.9"/>
				<path class="st2" d="M1853.5,282.2h-6.5V272h6.5V282.2z M1853.5,261.8h-6.5v-10.2h6.5V261.8z M1853.5,241.4h-6.5v-10.2h6.5
					V241.4z M1853.5,221h-6.5v-10.2h6.5V221z M1853.5,200.5h-6.5v-10.2h6.5V200.5z"/>
				<polygon class="st2" points="1855.1,300.6 1846.9,300.6 1846.9,292.5 1853.5,292.5 1853.5,294.1 1855.1,294.1 				"/>
				<path class="st2" d="M2091.1,589.3h-6.5v-9.8h6.5V589.3z M2091.1,569.8h-6.5V560h6.5V569.8z M2091.1,550.3h-6.5v-9.8h6.5V550.3z
					 M2091.1,530.7h-6.5V521h6.5V530.7z M2091.1,511.2h-6.5v-9.8h6.5V511.2z M2091.1,491.7h-6.5v-9.8h6.5V491.7z M2091.1,472.2h-6.5
					v-9.8h6.5V472.2z M2091.1,452.6h-6.5v-9.8h6.5V452.6z M2091.1,433.1h-6.5v-9.8h6.5V433.1z M2091.1,413.6h-6.5v-9.8h6.5V413.6z
					 M2091.1,394.1h-6.5v-9.8h6.5V394.1z M2091.1,374.5h-6.5v-9.8h6.5V374.5z M2091.1,355h-6.5v-9.8h6.5V355z M2084.6,335.6
					c-0.1-3-0.6-6-1.5-8.8l6.3-1.8c1,3.4,1.6,6.9,1.7,10.4L2084.6,335.6z M2079.5,318.6c-1.5-2.6-3.4-5-5.4-7.1l4.7-4.6
					c2.5,2.5,4.6,5.3,6.4,8.3L2079.5,318.6z M2067.1,306c-2.6-1.6-5.3-2.8-8.1-3.7l1.9-6.3c3.4,1,6.6,2.5,9.6,4.4L2067.1,306z
					 M2050.2,300.7c-0.7,0-1.4-0.1-2.1-0.1h-7.4v-6.5h7.4c0.8,0,1.7,0,2.5,0.1L2050.2,300.7z M2030.8,300.6h-9.8v-6.5h9.8V300.6z
					 M2011.3,300.6h-9.8v-6.5h9.8V300.6z M1991.8,300.6h-9.8v-6.5h9.8V300.6z M1972.3,300.6h-9.8v-6.5h9.8V300.6z M1952.7,300.6
					h-9.8v-6.5h9.8V300.6z M1933.2,300.6h-9.8v-6.5h9.8V300.6z M1913.7,300.6h-9.8v-6.5h9.8V300.6z M1894.2,300.6h-9.8v-6.5h9.8
					V300.6z M1874.6,300.6h-9.8v-6.5h9.8V300.6z"/>
				<rect x="2084.6" y="599.1" class="st2" width="6.5" height="4.9"/>
			</g>
			<g>
				<path class="st3" d="M1766.6,174.8c0.1-1.7,0.2-3.4,0.2-5.1c0-35.8-29-64.9-64.9-64.9s-64.9,29-64.9,64.9c0,1.7,0.1,3.4,0.2,5.1
					L1766.6,174.8L1766.6,174.8z"/>
				<path class="st3" d="M1979.7,174.8c0.1-1.7,0.2-3.4,0.2-5.1c0-35.8-29-64.9-64.9-64.9s-64.9,29-64.9,64.9c0,1.7,0.1,3.4,0.2,5.1
					L1979.7,174.8L1979.7,174.8z"/>
				<path class="st3" d="M1905.1,174.8c0.5-4,0.8-8,0.8-12.1c0-52.5-42.5-95-95-95s-95,42.5-95,95c0,4.1,0.3,8.1,0.8,12.1H1905.1z"
					/>
			</g>
		</g>
		<g id="Gear">
			<g>
				<path class="st4" d="M1085.5,298.1c6.7-26.6,7.8-53.4,4-79l8.1-1.2l16-2.4l0.2,0c-4.3-29.3-14.4-57.2-29.3-82.2l-21.1,12.6
					c-13.6-22.6-31.4-42.7-53.1-58.6l14.7-19.8c-22.9-17.1-49.5-30-78.9-37.5l-6.1,23.9c-26.7-6.8-53.4-7.8-79-4l-3.7-24.4
					c-29.3,4.4-57.2,14.5-82.2,29.3L787.9,76c-22.6,13.6-42.7,31.4-58.6,53.1l-19.8-14.7c-17.1,22.9-30,49.5-37.5,78.9l23.9,6.1
					c-6.8,26.7-7.8,53.4-4,79l-17.2,2.6l-7,1.1l-0.1,0c4.3,29.3,14.5,57.2,29.3,82.2l21.1-12.6c13.6,22.6,31.5,42.7,53.2,58.6
					L756.5,430c22.9,17.1,49.4,30,78.8,37.4l6.1-23.9c26.7,6.8,53.5,7.9,79,4l2.8,19l0.8,5.4c29.3-4.3,57.1-14.5,82.1-29.4
					l-12.6-21.1c22.6-13.6,42.7-31.5,58.7-53.1l19.8,14.7c17-22.9,29.9-49.4,37.3-78.8L1085.5,298.1z M863.9,354.5
					c-58.5-14.8-93.8-74.1-79-132.6c14.8-58.4,74.1-93.7,132.6-78.9c58.4,14.8,93.7,74.1,78.9,132.5
					C981.6,333.9,922.3,369.3,863.9,354.5z"/>
			</g>
			<g>
				<path class="st4" d="M600.5,329.2c-9-11.3-19.9-20.3-31.8-26.8l2.1-3.8l4.1-7.5l0-0.1c-13.7-7.5-28.5-12.2-43.8-13.9l-1.5,12.9
					c-13.8-1.5-27.9-0.4-41.5,3.6l-3.6-12.5c-14.5,4.1-28.4,11.2-40.8,21.1l8.1,10.2c-11.3,9-20.3,19.9-26.8,31.8l-11.4-6.2
					c-7.5,13.7-12.2,28.6-13.9,43.8l12.9,1.5c-1.5,13.8-0.4,27.9,3.6,41.5l-12.5,3.6c4.1,14.5,11.2,28.3,21.1,40.8L435,461
					c9,11.3,19.9,20.3,31.8,26.8l-4.4,8l-1.8,3.3l0,0c13.6,7.5,28.6,12.2,43.8,13.9l1.5-12.9c13.8,1.5,27.9,0.4,41.5-3.6l3.6,12.5
					c14.5-4.1,28.3-11.2,40.8-21.1l-8.1-10.2c11.3-9,20.3-19.9,26.9-31.8l8.8,4.9l2.5,1.4c7.5-13.7,12.1-28.5,13.9-43.8l-12.9-1.5
					c1.5-13.8,0.4-28-3.6-41.5l12.5-3.6c-4.2-14.4-11.2-28.3-21.1-40.8L600.5,329.2z M553.5,440c-24.8,19.8-61,15.7-80.7-9.2
					c-19.8-24.8-15.7-60.9,9.2-80.7c24.8-19.8,60.9-15.7,80.7,9.1C582.4,384.2,578.3,420.3,553.5,440z"/>
			</g>
			<g>
				<path class="st4" d="M2198.2,1124.7c-10.4-13-22.9-23.4-36.7-31l2.4-4.4l4.7-8.6l0.1-0.1c-15.8-8.7-32.9-14.1-50.5-16l-1.7,14.8
					c-15.9-1.8-32.2-0.5-47.9,4.1l-4.2-14.4c-16.7,4.8-32.7,12.9-47.1,24.4l9.3,11.7c-13.1,10.4-23.4,22.9-31,36.7l-13.1-7.2
					c-8.7,15.8-14.1,33-16,50.5l14.8,1.7c-1.8,15.9-0.5,32.2,4.1,47.8l-14.4,4.2c4.8,16.7,12.9,32.7,24.4,47.1l11.7-9.3
					c10.4,13.1,22.9,23.4,36.7,31l-5.1,9.3l-2.1,3.8l0,0c15.8,8.7,33,14.1,50.5,16l1.7-14.8c15.9,1.8,32.3,0.5,47.9-4.2l4.2,14.4
					c16.7-4.8,32.7-12.9,47.1-24.3l-9.3-11.7c13.1-10.4,23.5-23,31-36.8l10.2,5.6l2.9,1.6c8.7-15.8,14-32.9,16-50.5l-14.9-1.7
					c1.8-15.9,0.5-32.3-4.1-47.9l14.4-4.2c-4.8-16.6-12.9-32.6-24.4-47L2198.2,1124.7z M2144,1252.6c-28.7,22.8-70.3,18.1-93.2-10.6
					c-22.8-28.6-18.1-70.3,10.6-93.1c28.6-22.8,70.3-18.1,93.1,10.5C2177.3,1188.1,2172.6,1229.8,2144,1252.6z"/>
			</g>
		</g>
		<path class="st1" d="M2200.3,1449.1H353.7c-6,0-10.9-4.9-10.9-10.9l0,0c0-6,4.9-10.9,10.9-10.9h1846.7c6,0,10.9,4.9,10.9,10.9l0,0
			C2211.3,1444.2,2206.4,1449.1,2200.3,1449.1z"/>
		<g id="laptop_1_">
			<g>
				<path class="st5" d="M2023.6,1371.6H541.5c-19.9,0-36.1-16.2-36.1-36.1V415.7c0-19.9,16.2-36.1,36.1-36.1h1482.1
					c19.9,0,36.1,16.2,36.1,36.1v919.7C2059.7,1355.4,2043.6,1371.6,2023.6,1371.6z"/>
			</g>
			<path d="M541.5,1364.9c-16.2,0-29.4-13.2-29.4-29.4V415.7c0-16.2,13.2-29.4,29.4-29.4h1482.1c16.2,0,29.4,13.2,29.4,29.4v919.7
				c0,16.2-13.2,29.4-29.4,29.4H541.5z"/>
			<g>
				<rect x="557.9" y="419.7" class="st1" width="1450.9" height="907.2"/>
			</g>
			<path class="st6" d="M2166,1371.6v24.2c0,1.2-0.1,2.4-0.2,3.6c-1.8,15.7-15.1,27.8-31.2,27.8H410.5c-16.1,0-29.4-12.2-31.2-27.8
				c-0.1-1.2-0.2-2.4-0.2-3.6v-24.2H2166z"/>
			<path class="st7" d="M2165.8,1399.4c-1.8,15.7-15.1,27.8-31.2,27.8H410.5c-16.1,0-29.4-12.2-31.2-27.8H2165.8z"/>
		</g>
		<g id="login">
			<path class="st8" d="M1689.6,1157.1H886.3c-22,0-39.8-17.8-39.8-39.8V651.9c0-22,17.8-39.8,39.8-39.8h803.3
				c22,0,39.8,17.8,39.8,39.8v465.4C1729.3,1139.3,1711.5,1157.1,1689.6,1157.1z"/>
			<g>
				<path class="st9" d="M1421.7,1015.8H1292c-11,0-19.9-9-19.9-19.9l0,0c0-11,9-19.9,19.9-19.9h129.7c11,0,19.9,9,19.9,19.9l0,0
					C1441.7,1006.8,1432.7,1015.8,1421.7,1015.8z"/>
				<path class="st10" d="M1515.9,856.8h-283c-11,0-19.9-9-19.9-19.9l0,0c0-11,9-19.9,19.9-19.9h283c11,0,19.9,9,19.9,19.9l0,0
					C1535.8,847.8,1526.9,856.8,1515.9,856.8z"/>
				<path class="st10" d="M1515.9,931.9h-283c-11,0-19.9-9-19.9-19.9l0,0c0-11,9-19.9,19.9-19.9h283c11,0,19.9,9,19.9,19.9l0,0
					C1535.8,922.9,1526.9,931.9,1515.9,931.9z"/>
				<g>
					<path class="st11" d="M1280.8,913.7c0,3.9-3.2,7-7,7s-7-3.2-7-7c0-3.9,3.1-7,7-7S1280.8,909.8,1280.8,913.7z"/>
					<path class="st11" d="M1304.9,913.7c0,3.9-3.2,7-7,7c-3.9,0-7-3.2-7-7c0-3.9,3.2-7,7-7C1301.7,906.7,1304.9,909.8,1304.9,913.7
						z"/>
					<path class="st11" d="M1329,913.7c0,3.9-3.2,7-7,7s-7-3.2-7-7c0-3.9,3.2-7,7-7S1329,909.8,1329,913.7z"/>
					<path class="st11" d="M1353,913.7c0,3.9-3.2,7-7,7c-3.9,0-7-3.2-7-7c0-3.9,3.2-7,7-7C1349.9,906.7,1353,909.8,1353,913.7z"/>
					<path class="st11" d="M1377.1,913.7c0,3.9-3.2,7-7,7s-7-3.2-7-7c0-3.9,3.2-7,7-7S1377.1,909.8,1377.1,913.7z"/>
					<path class="st11" d="M1401.2,913.7c0,3.9-3.2,7-7,7c-3.9,0-7-3.2-7-7c0-3.9,3.2-7,7-7C1398.1,906.7,1401.2,909.8,1401.2,913.7
						z"/>
					<path class="st11" d="M1425.3,913.7c0,3.9-3.2,7-7,7c-3.9,0-7-3.2-7-7c0-3.9,3.2-7,7-7C1422.2,906.7,1425.3,909.8,1425.3,913.7
						z"/>
					<path class="st11" d="M1449.4,913.7c0,3.9-3.2,7-7,7c-3.9,0-7-3.2-7-7c0-3.9,3.2-7,7-7C1446.2,906.7,1449.4,909.8,1449.4,913.7
						z"/>
					<path class="st11" d="M1473.5,913.7c0,3.9-3.2,7-7,7c-3.9,0-7-3.2-7-7c0-3.9,3.2-7,7-7C1470.3,906.7,1473.5,909.8,1473.5,913.7
						z"/>
				</g>
				<g>
					<circle class="st10" cx="1365.7" cy="729.7" r="41.7"/>
					<g>
						<g>
							<path class="st1" d="M1365.7,728c4.1,0,7.8-2,10.2-5c1.8-2.2,2.8-5,2.8-8.1c0-7.2-5.8-13.2-13-13.2c-7.3,0-13.2,6-13.2,13.2
								c0,3.1,1,5.9,2.8,8.1C1357.8,726.1,1361.6,728,1365.7,728z"/>
						</g>
						<path class="st1" d="M1388.8,751.5c0,8.3-46.3,8.3-46.3,0l0-9.7c1.8-13.2,42.6-13.8,46.3,0V751.5z"/>
					</g>
				</g>
				<path class="st12" d="M1249.5,908.3v-1.1c0-4.3-3.5-7.8-7.8-7.8s-7.8,3.5-7.8,7.8v1.1h-1.2v14.2c0,2.4,18.1,2.4,18.1,0v-14.2
					H1249.5z M1236.6,907.2c0-2.7,1.7-5.2,5.1-5.2s5.1,2.3,5.1,5.2v1.1h-10.2V907.2z M1243,915.4v4.1c0,0.7-0.6,1.3-1.4,1.3
					s-1.3-0.5-1.3-1.3v-4.1c-0.7-0.4-1.3-1.2-1.3-2.1c0-1.4,1.2-2.5,2.5-2.5c1.4,0,2.5,1.2,2.5,2.5
					C1244.2,914.3,1243.6,915,1243,915.4z"/>
				<g>
					<g>
						<g>
							<path class="st12" d="M1241.7,835.4c1.6,0,3.1-0.8,4-1.9c0.7-0.8,1.1-1.9,1.1-3.2c0-2.8-2.3-5.1-5.1-5.1
								c-2.8,0-5.1,2.3-5.1,5.1c0,1.2,0.4,2.3,1.1,3.2C1238.6,834.6,1240.1,835.4,1241.7,835.4z"/>
						</g>
						<path class="st12" d="M1250.7,844.5c0,3.2-18.2,3.2-18.2,0l0.1-3.8c0.7-5.2,16.6-5.4,18.1,0L1250.7,844.5z"/>
					</g>
					<path class="st11" d="M1346.1,842.7h-73.5c-3.2,0-5.8-2.6-5.8-5.8l0,0c0-3.2,2.6-5.8,5.8-5.8h73.5c3.2,0,5.8,2.6,5.8,5.8l0,0
						C1351.9,840.1,1349.3,842.7,1346.1,842.7z"/>
					<path class="st11" d="M1300.5,800h-71c-3.2,0-5.8-2.6-5.8-5.8l0,0c0-3.2,2.6-5.8,5.8-5.8h71c3.2,0,5.8,2.6,5.8,5.8l0,0
						C1306.4,797.3,1303.8,800,1300.5,800z"/>
					<path class="st11" d="M1443,842.7h-73.5c-3.2,0-5.8-2.6-5.8-5.8l0,0c0-3.2,2.6-5.8,5.8-5.8h73.5c3.2,0,5.8,2.6,5.8,5.8l0,0
						C1448.9,840.1,1446.2,842.7,1443,842.7z"/>
				</g>
				<g>
					<path class="st10" d="M991.4,834.2v103.5c0,11.5,140.7,11.5,140.7,0V834.2H991.4z"/>
					<g>
						<circle class="st13" cx="1061.8" cy="873.3" r="17.4"/>
						<path class="st13" d="M1061.8,925.6L1061.8,925.6c-3.9,0-7.1-3.2-7.1-7.1v-39.8h14.2v39.8
							C1068.9,922.5,1065.7,925.6,1061.8,925.6z"/>
					</g>
					<path class="st10" d="M1119.8,826.9h-14.2v-7c0-24.2-19.6-43.8-43.8-43.8s-43.8,19.6-43.8,43.8v7h-14.2v-7c0-32,26-58,58-58
						s58,26,58,58V826.9z"/>
				</g>
				<text transform="matrix(1 0 0 1 1311.25 1001.9759)" class="st10 st14 st15 st16">Login</text>
			</g>
		</g>
		<g id="female_2_">
			<path class="st17" d="M1667.1,828.5l6.7,27l1.2,5c1.4,6.4,43.5,3.7,40.6-3.8l-2.5-5.5l-13-28.5L1667.1,828.5z"/>
			<g>
				<g>
					<path class="st17" d="M1642.4,788.4c-0.4,29.3,13.2,53.2,34.5,53.1c21.3-0.1,41.9-18.2,42.7-53.4c0.5-22.5-17.5-40.6-38.8-40.5
						C1659.4,747.7,1642.7,766,1642.4,788.4z"/>
				</g>
				<path d="M1680.1,739.5c0,0-42.4,2.1-46,34.2c-4.7,28.2,16.4,7.5,25.1,26.4c9.9,21.7-0.2,37.6-13.1,41.9
					c11.4,16,76.8,15.4,93.7-12.6C1751.3,794.3,1735.1,741.5,1680.1,739.5z"/>
				<ellipse class="st17" cx="1658.3" cy="799.7" rx="7.9" ry="7.9"/>
			</g>
			<path class="st10" d="M1656.8,1344.4c-2-2.1-11.4-2.1-12.2,1s0.8,5.3-3.2,10.3c2.3,0.7,10.4,0.7,12.8,0
				C1656.8,1354.9,1658.8,1346.5,1656.8,1344.4z"/>
			<path class="st18" d="M1672.4,1355h-22.9c-2.1-96.8-1.7-202.1-1-281.4c0.3-28.4,1.1-42.8,6.2-59.8c10.4-34.4,59.3-23.8,62.8,7.4
				c1.4,17.3,2.5,51.1-29.5,165.9C1701.9,1237.7,1677.7,1298.3,1672.4,1355z"/>
			<path class="st10" d="M1636.7,1356.5c3.4-0.2,11.2-3.4,12.7-5.7c2.2,2.4,6.7,3.1,12.2,2.3c6.5-1,7.3-4,12-3.6
				c2,5.5,6.7,17.7,2.1,20.5c0,0-27.3,0-48.1,0C1623.4,1366.2,1623.5,1357.8,1636.7,1356.5z"/>
			<g>
				<path class="st10" d="M1773.3,1346.8c-1.7-1.8-9.6-1.8-10.3,0.8s0.7,4.5-2.7,8.6c1.9,0.6,8.7,0.6,10.8,0
					S1774.9,1348.6,1773.3,1346.8z"/>
				<path class="st18" d="M1697.9,1020.3c4.7-35.7,68.1-32,72.4-0.9c1.5,16.8,6.2,42-5.8,166.5c25.2,47.5,18.1,115.7,25.6,165.8
					c0.8,7.6-20.8,9.5-22.5,2.7c-23.1-93.1-55.3-197.6-67.2-275C1696,1051.4,1695.6,1038,1697.9,1020.3z"/>
				<path class="st10" d="M1756.3,1355c3.4-0.2,8.3-4.6,9.8-6.8c2.2,2.4,6.4,5.7,11.8,4.9c6.5-1,7.3-4,12-3.6
					c2,5.5,6.7,17.7,2.1,20.5c0,0-26,0-46.8,0C1741,1366.2,1743.1,1356.4,1756.3,1355z"/>
			</g>
			<g>
				<path class="st17" d="M1495.7,969.9l-2.4-11.9c5.8-2.3,14.6-7,24.8-10.9l5.6,19.3C1512.5,968,1502.4,969.2,1495.7,969.9z"/>
				<path class="st19" d="M1518.2,947c19.7-9.2,53.6-29.1,61.3-32.8l83.4-51.2c18-5.5,39,30.2,16.2,46.2c0,0-129,53.1-155.4,57
					L1518.2,947z"/>
				<g>
					<path class="st17" d="M1487.3,979.4c-8.1-2.4-10.9-14.3-11.1-15.2l16.7-6.1c8.1-3.3,12.8,6.5,7.7,13.6
						C1500.6,971.8,1495,981.2,1487.3,979.4z"/>
					<path class="st17" d="M1480.1,968.9c-19.3,4.1-18.5-0.6-18.5-0.6s6.5-2.2,18.3-5.4C1486.6,961.4,1484.7,967.4,1480.1,968.9z"/>
				</g>
			</g>
			<path id="XMLID_1_" class="st19" d="M1649,914c-4-19.5-6.2-38.8,14-50.9c11.9-7.2,50.3-12.3,68.2-6.4
				c18.1,8.1,14.2,43.3,17.5,98.9c12.4,27.8,17.9,36.9,21.5,63.9c0,0-6.7,20.4-53.6,20.4c-21.3,0-52.7-1.9-66.9-12.8
				c1.4-18.4,9.1-36.2,12.3-62.3C1662.1,964.8,1649.3,916.2,1649,914z"/>
			<g>
				<g>
					<path class="st19" d="M1740.8,860.6c22,16.8,43.5,43.3,53.7,57.3s36.4,70.5,36.4,70.5l-16.7,12.3l-45.3-61.7l-55.3-45.3
						C1694.4,874.1,1719.4,844.2,1740.8,860.6z"/>
					<path class="st17" d="M1837.9,1002.7l-10.8-22.4c-2.6,6.7-15,12.9-18.5,12.8c0,0,11.7,16.8,14.5,19.6
						C1825.9,1015.5,1837.7,1010.7,1837.9,1002.7z"/>
				</g>
				<g>
					<path class="st17" d="M1820.3,1008.9c0,0.2,0,0.4,0,0.6c0.5,8.2,6.8,12,8.5,12.9c0.1,0.1,0.3,0.1,0.4,0.2
						c-5.9-1.2-7.7,6.7-4.7,8.5c8.7,5.9,21-2.2,22.1-7.1c1.1-5-8.8-21.4-8.8-21.4C1832.8,998.5,1819.9,999.1,1820.3,1008.9z"/>
					<path class="st20" d="M1820.3,1009.4c0.3,9.2,8.7,13,8.8,13c4.9-0.1,6.6-0.4,11.2-0.4c-3-1.5-9.2-5.4-6.8-13
						C1828.8,1005.4,1821.6,1008.6,1820.3,1009.4z"/>
					<path class="st17" d="M1820.2,1008.4c-1.3,7.6-0.7,18.4,1.1,23.2c0,0,4.7,0.2,4.2-8.6c-0.1-2.3,0.2-7.3,2.5-8.9
						c7-4.6,8.1-8.8,5.5-12.3C1830.1,997.2,1820.5,1001.9,1820.2,1008.4z"/>
					<path class="st17" d="M1841.8,1029.2c-3.8,2.6-13.8,7.7-15.4,6.5c-1.6-1.3,6.4-9.8,11.6-10.9
						C1843.2,1023.6,1843.8,1027.8,1841.8,1029.2z"/>
				</g>
			</g>
		</g>
		<g id="male_02_2_">
			<path class="st21" d="M1556.5,379.6c10.8-15.7,0.9-64.5-45.4-78.5c-39.1-10.1-59.4,2.3-112.3,16.7l7.9,61.9L1556.5,379.6
				L1556.5,379.6z"/>
			<path class="st21" d="M1462.2,303.6c0,0-94.7,19.5-129.6,32.4c-20,7.4-25,24-17.3,36.7c11.4,18.9,147.3,5.5,147.3,5.5
				C1509.4,365.1,1484.6,302.8,1462.2,303.6z"/>
			<path class="st21" d="M1506.3,298.3c0,0,60.5,20.5,94.5,35.7c33,2.6,30.8,43.6,15.2,46.2c-35.9,9.8-115.1-7.5-115.1-7.5
				C1455,356.4,1484,296,1506.3,298.3z"/>
			<path class="st21" d="M1410.4,340.4c0,0-19.1-29,28.3-51.5s79.1,0,71.3,27.2s-35.8,45.3-35.8,45.3S1427,361.7,1410.4,340.4z"/>
			<path class="st22" d="M1463.7,336.6c22.8-15.8,13.6-46.6,13.6-46.6l-8.6-16.5l-7.2-13.7l-38,14.6l6.9,28.1c0,0,1.9,6.6,6,14
				C1441.7,325.9,1450.5,336.5,1463.7,336.6z"/>
			<path class="st23" d="M1436.4,316.6c18.2-11.8,27.6-29.5,32.3-43l-7.2-13.7l-38,14.6l6.9,28.1
				C1430.4,302.6,1432.3,309.2,1436.4,316.6z"/>
			<g>
				<path class="st24" d="M1379.8,223.7c0,0-8.7,2.3-10,12.8s9.1,14.7,9.1,14.7s-6.8,13,7.6,18.3
					C1415.7,280.2,1412.8,217.2,1379.8,223.7z"/>
				<path class="st22" d="M1388.1,257.3c9,26.4,27.6,51.2,42.6,45c25.4-10.5,46.8-38.9,36.2-68.8c-10.6-29.9-33.3-43.7-57.3-35.2
					C1385.6,206.9,1377.9,227.3,1388.1,257.3z"/>
				<path class="st24" d="M1375.9,223.2c5.4,4.6,25.3,12.3,66.4-7.6c6.8,4.9,11.9,12.5,15.4,20.8c3.9-0.9,5.4-2.9,8.1,0.4
					c3.7,4.6,5.6,14.6,1.1,18.3c-1.2,0.9-2.5,1.6-3.8,2c-1.7,7-0.1,14.8,5.6,16.5c8.8-7,7.7-8.7,10.9-16.8
					c10.2-7.2,10.2-22.9,2-27.2c7.8-7.3-1.6-23.4-13.2-23.9c0.1-8.9-11.2-24.7-25.4-15.5c0.4-9.5-16.9-15.8-26.3-1.8
					c-7.6-10.3-30.5-4.1-29.6,9.6C1373.3,195.7,1365.7,214.3,1375.9,223.2z"/>
			</g>
			<g>
				<path class="st22" d="M1315.3,365.6c0,0-2.4,23,39.9,26.7c48.2,4.2,88.9,3,88.9,3l4.3-18.2c0,0-85.6-29-106.5-30.3
					C1317.1,345.2,1315.3,365.6,1315.3,365.6z"/>
				<path class="st22" d="M1447.5,376.7l27-5.6c0,0,17.4,8.3,22.8,19.2c-4,4.4-14.8-4.9-14.8-4.9s1.1,18.1-1.6,21.5
					s-15.9,5.7-20.3,2c-4.3-3.7,3.2-8.2,3.2-8.2l-19.8-5.4C1444.2,395.2,1435,381.4,1447.5,376.7z"/>
			</g>
			<path class="st22" d="M1462.2,222.5c0-0.4-0.3-0.7-0.7-0.7s-0.7,0.3-0.7,0.7s0.3,0.7,0.7,0.7S1462.2,222.9,1462.2,222.5z"/>
			<g>
				<path class="st22" d="M1617.8,352.4c0,0,14.3,18.2-19.6,43.8c-38.6,29.2-73.7,49.8-73.7,49.8l-13.4-13.1c0,0,57-70.1,74-82.3
					C1605.4,336.2,1617.8,352.4,1617.8,352.4z"/>
				<path class="st22" d="M1511.1,433l-15.1,23.1c0,0,1.4,19.2,9.6,28.2c5.6-2.1,0.8-15.5,0.8-15.5s16.5,7.6,20.6,6.4
					s11.1-12.8,9.2-18.2s-8.8,0-8.8,0l3.3-17.2C1533.3,430.2,1517.4,423.3,1511.1,433z"/>
			</g>
		</g>
		<g id="male_01_2_">
			<path class="st25" d="M765,778.8c2.6,24.7-9.8,51-25.5,50.8c-21.5-0.3-49.2-17.9-51.8-42.6s12.6-46.5,33.9-48.8
				C743,736,762.4,754.1,765,778.8z"/>
			<g>
				<path class="st10" d="M632,1346.9c0,0,22.5-2.5,40.1,0c14.6,9.6,20.9,9.1,20.9,9.1c6.2,1.6,9,10.2,3.6,10.2h-66.4L632,1346.9z"
					/>
				<path class="st10" d="M739.6,1346.9c0,0,22.2-2.5,40.1,0c16,9.6,22.3,9.1,22.3,9.1c6.5,1.6,10.6,10.2,5.2,10.2h-66.4
					L739.6,1346.9z"/>
				<polygon class="st25" points="718.9,858.8 677.2,844.7 707.4,781.8 736.8,795.9 				"/>
				<path class="st26" d="M760.3,903c0,0,32.4,23.7,16.6,48.9c-11.8,18.8-49.5-1.6-49.5-23.4C727.4,908.8,742.6,897.2,760.3,903z"/>
				<path class="st27" d="M660.3,1000.6c0,0-7.8,13.5-13,40.4c-1.8,9.6,0.3,52.8-0.3,125.5c-15.1,94.1-16.8,188.3-16.8,188.3
					l41.9-7.9l64.2-342.3L660.3,1000.6z"/>
				<path class="st27" d="M755.3,1009.3c8.2,64.6,14.2,122.6,14.7,164.9l9.7,172.7l-39.9,7.6c-8.2-53.6-21.8-120.5-23.9-182.6
					l-43.5-162.1L755.3,1009.3z"/>
				<path class="st28" d="M647.9,1006c2.8,16.7,4.3,17.8,4.3,17.8l106.2,2.3c0,0-3.2-16.9-0.5-25.6c0.5-1.6,0.6-6.7-0.1-14.2
					c-1-10.8-3.3-26.6-6.4-43.8c-6.6-37.1-16.9-81.1-25.9-97.7l-46.4-11.1c0,0-20.7,21-25.2,39.5
					C649.4,891.9,645.2,989.3,647.9,1006z"/>
				<path class="st26" d="M722.6,930.4l35.2,56.1c-1-10.8-3.3-26.6-6.4-43.8L722.6,930.4z"/>
				<path class="st25" d="M710,916.4c0,0-12.5,26.9,0.5,34.1c13,7.2,25.9-15.8,25.9-15.8L710,916.4z"/>
				<path class="st28" d="M761.3,844.8l-9,58l-27.9-32.9c0,0-25.1-25.5-45.3-2.5c-20.2,23,11.3,46,11.3,46s46,37.4,75.3,33.5
					s11-101,11-101L761.3,844.8z"/>
				<path class="st25" d="M761.3,844.8l-4.5-22.1l11.5-17.5c0,0,4.3-3.2,5.9,6.6c3.2,4.5,7,7.9,6.6,13c-0.5,5.1-4,21.2-4,21.2
					L761.3,844.8z"/>
				<polygon class="st29" points="679.2,833.8 682.5,825.3 731.6,844.8 735.4,866.1 				"/>
				<path d="M693,812.3c0,0-16-23.1-11-50.6c5-27.6,45.9-33.3,45.9-33.3s42.6-2.5,52.1,40.9c-4.5,5.8-23.1-3.8-23.1-3.8l-30.5,27.8
					c0,0,0.4-21.8-10.4-16.3c-10.8,5.5-7.5,23.1-7.5,23.1S698.5,810.5,693,812.3z"/>
			</g>
		</g>
		<g>
			<g>
				<g>
					<path class="st30" d="M1864.8,668.2L1864.8,668.2c0-0.8,0-1.1,0-1.2C1864.8,667.2,1864.8,668.2,1864.8,668.2z"/>
					<path class="st30" d="M1864.8,668.2L1864.8,668.2c0-0.8,0-1.1,0-1.2C1864.8,667.2,1864.8,668.2,1864.8,668.2z"/>
					<path class="st30" d="M2311.9,670.2c0,0,0-1,0-1.2C2311.9,669.1,2311.9,669.5,2311.9,670.2L2311.9,670.2z"/>
					<path class="st30" d="M2311.9,670.2c0,0,0-1,0-1.2C2311.9,669.1,2311.9,669.5,2311.9,670.2L2311.9,670.2z"/>
					<path class="st10" d="M2089.2,563.2c-49.5,53-128.5,96.5-213,115c0,5.6-0.2,36.9-0.8,181c-0.9,192.2,182.1,286.2,210.5,300.6
						c27.5-12.7,212.8-106.5,213.7-298.7c0.6-144.1,0.8-175.4,0.8-181C2216.1,660.8,2138.2,616.6,2089.2,563.2z"/>
				</g>
			</g>
			<g>
				<path class="st13" d="M2088.7,584c-51,46.8-121.7,83.6-199.4,103.6l-0.8,171.5c-0.3,78.5,30.8,149.4,92.7,211
					c40.6,40.4,83.3,65.5,105,76.8c0.9-0.5,1.9-1,3-1.5V584.4C2089,584.3,2088.9,584.1,2088.7,584z"/>
				<path class="st1" d="M2089.2,584.4v560.9c22.5-11.7,63.5-36,102.7-74.3c62.4-61,94.2-131.7,94.5-210.1l0.8-171.5
					C2209.9,668.7,2139.7,631.5,2089.2,584.4z"/>
			</g>
			<path class="st10" d="M2244.9,756.3c-59.2,9.1-139.7,63.1-190.6,128c-7.1-30.6-39.1-58.5-55.9-64.6l-50.7,51
				c31.7,14.3,66.3,54.7,70.9,96.1l50.7,7.8c21.4-42.2,76.6-143.2,186.3-197.4C2253.5,768.9,2245.8,757.5,2244.9,756.3z"/>
		</g>
	</g>
</g>
</svg>
