<?xml version="1.0" encoding="utf-8"?>
<!-- Generator: Adobe Illustrator 24.0.2, SVG Export Plug-In . SVG Version: 6.00 Build 0)  -->
<svg version="1.1" id="Layer_1" xmlns="http://www.w3.org/2000/svg" xmlns:xlink="http://www.w3.org/1999/xlink" x="0px" y="0px"
	 viewBox="0 0 47 54" style="enable-background:new 0 0 47 54;" xml:space="preserve">
<style type="text/css">
	.st0{fill:#020303;}
	.st1{fill:#030303;}
	.st2{fill:#307AC3;}
	.st3{fill:#71B931;}
	.st4{fill:#469AA4;}
	.st5{fill:#70B831;}
	.st6{fill:#EDA543;}
	.st7{fill:#E59F41;}
</style>
<g>
	<path class="st0" d="M5,34.2c1.3,0.5,1.9,1.5,2,2.8c0.2,2.1,0.4,4.3,0.7,6.4c0.1,1-0.2,1.3-1.2,1.3c-1.6,0-3.2,0-4.8,0
		c-0.9,0-1.2-0.4-1.1-1.2C0.7,41.3,1,39,1.2,36.8c0.1-1.2,0.7-1.9,2-2.6c0-0.7,0-1.4,0-2.1c-2.4-1.4-2.4-3.6,0-5c0-2.8,0-5.7,0-8.6
		c0-1.8,0-3.7,0-5.5c0-0.5,0.2-0.8,0.6-1.1C9.5,8.3,15.3,4.6,21,0.9c0.7-0.5,1.3-0.5,2.1-0.2c6.2,2.5,12.4,5,18.7,7.5
		c0.1,0,0.1,0,0.2,0.1c0.4,0.2,0.8,0.4,0.9,0.9c0,0.5-0.3,0.7-0.7,1c-1.6,0.9-3.1,1.8-4.7,2.6C37,13,37,13.2,37,13.6
		c0,1.3,0.6,2.2,1.5,3.1c2.4,2.6,3.8,5.7,4.2,9.3c0.6,5.7-1.3,10.5-5.6,14.3c-3.5,3.1-7.6,4.5-12.3,4.3c-7.5-0.3-14.1-5.8-15.8-13
		c-1-4.4-0.3-8.5,1.9-12.4c0.1-0.2,0.1-0.5,0.1-0.6c-0.3-0.8-0.6-1.6-1-2.5C10,16,9.8,15.8,9.7,15.7c-1.5-0.6-3-1.1-4.5-1.6
		c0,0-0.1,0-0.2,0c0,4.3,0,8.7,0,13c2.4,1.4,2.4,3.6,0,5C5,32.8,5,33.5,5,34.2z M40.3,23.2c-0.8-2.3-2-4.2-3.6-5.8
		c0,0-0.1-0.1-0.1-0.1c-0.8-0.3-1.5-0.6-2.3-0.9c-3.1-1.1-6.2-1.2-9.4-1c-0.7,0-1.5,0.2-2.2,0.2c0.1,0.2,0.1,0.3,0.1,0.5
		c0.3,0.7,0.6,0.8,1.4,0.5c0.3-0.1,0.6-0.3,0.8-0.5c1.7-0.9,2.9-0.2,3.1,1.7c0,0.4,0,0.8,0,1.2c0.1,0,0.1,0.1,0.2,0.1
		c0.2-0.2,0.3-0.4,0.5-0.6c0.6-0.5,1.3-1.1,2-1.5c1.1-0.6,2.1-0.4,2.9,0.6c1.5,1.9,1.8,4.3-0.2,6.2c-1.6,1.5-3.5,2.4-5.7,2.8
		c-1.5,0.3-2.9,0.7-4,1.8c-0.5,0.5-1.2,0.7-2,0.7c-1.1,0-1.9-0.6-2.8-1.2c-0.3-0.2-0.5-0.4-0.9-0.6c0,0.5,0,0.9,0,1.2
		c0,0.4,0,0.8-0.1,1.2c-0.3,1.2-1.1,1.6-2.1,1c-1.6-0.9-2.7-2.3-2.9-4.2c-0.2-2.5,0.9-4.7,2.5-6.6c0.6-0.7,0.6-1-0.2-1.7
		c-0.9,0.6-2,1-2.6,2c-2.9,5.1-2.9,10.2,0,15.3c1,1.8,2.5,3.3,4.2,4.6c0.3-0.2,0.6-0.5,0.9-0.7c0.3-0.2,0.6-0.4,0.9-0.6
		c1.2-0.8,1.2-1.1,0.1-2c-1.4-1.2-1.3-2.5,0.2-3.5c1.8-1.2,4-1.5,5.9,0.4c1,0.9,2.1,1.5,3.5,1.7c0.3,0,0.6,0.1,0.9,0.2
		c0.7,0.2,1.2,0.8,1.1,1.5c-0.1,0.6-0.3,1.2-0.6,1.6c-1.5,2.2-3.5,3.5-6.2,3.7c-0.4,0-0.7,0.1-1.1,0.1c3,1,8,0.4,10.3-1.1
		c-0.1-0.3-0.2-0.5-0.3-0.8c-0.5-1.4-0.4-2.7,0.6-3.8c1-1.2,2.2-2.2,3.2-3.3c0.2-0.2,0.4-0.4,0.5-0.7c0.1-0.7,0-1.4-0.6-1.9
		c-0.6-0.5-0.9-1.2-1.1-2c-0.3-1.8,0.2-3.4,1.3-4.8c1.2-1.7,2.5-1.9,4-0.9C40.1,23.2,40.2,23.2,40.3,23.2z M16.1,29.1
		c0.1-0.8,0.1-1.4,0.2-2c0.2-1.4,1.4-1.9,2.6-1.3c0.2,0.1,0.4,0.3,0.6,0.4c0.5,0.3,0.9,0.6,1.3,0.9c0.7,0.4,1.2,0.3,1.8-0.2
		c1.3-1.2,2.9-1.8,4.7-2.1c1.8-0.2,3.4-1,4.7-2.3c0.8-0.8,1-1.7,0.8-2.8c-0.4-1.4-1.1-1.7-2.2-0.7c-0.6,0.6-1.2,1.2-1.9,1.7
		c-1.2,0.8-2.3,0.3-2.4-1.1c-0.1-0.7-0.1-1.4-0.1-2.1c-1.1,0.5-2,1.2-3.3,1c-1.4-0.3-1.7-1.4-2.2-2.5c-1.3,0.5-2.5,0.9-3.8,1.3
		c1.1,1.6,0.8,3.1-0.5,4.3c-1.4,1.3-1.9,3-1.7,4.8C14.8,27.4,15.3,28.3,16.1,29.1z M39.8,9.4c-0.2-0.1-0.3-0.1-0.4-0.2
		C33.8,7,28.2,4.7,22.6,2.4c-0.3-0.1-0.5,0-0.8,0.1c-5,3.2-10.1,6.4-15.1,9.7c-0.2,0.1-0.3,0.2-0.6,0.4c1.2,0.4,2.4,0.9,3.5,1.2
		c0.1,0,0.4-0.1,0.5-0.2c0.9-0.6,1.8-1.2,2.7-1.7c2.6-1.5,5.3-2.7,8.3-3.3c2.9-0.5,5.8-0.6,8.7-0.5c1.8,0.1,3.6,0.3,5.3,0.9
		c1,0.3,1.6,0.8,1.5,1.9c0,0,0.1,0.1,0.1,0.2C37.8,10.6,38.8,10,39.8,9.4z M35.4,14.8c-0.2-1.1-0.4-2.2-0.5-3.3
		c-0.1-0.5-0.3-0.7-0.8-0.9c-1.8-0.5-3.6-0.7-5.4-0.7c-3.1,0-6.1,0.1-9.1,0.9c-3,0.9-5.6,2.3-8.2,4.1c0.4,0.9,0.7,1.8,1.1,2.7
		C19.8,13.2,27.4,12.6,35.4,14.8z M34.2,40.4c0.8-0.7,1.7-1.3,2.5-2.1c2.8-2.8,4.1-6.2,4.3-10.1c0.1-1.6-0.8-2.6-1.8-3.5
		c-0.5-0.5-1-0.4-1.6,0.1c-1.4,1.3-1.5,3.6-0.3,5.1c1.2,1.4,1.2,3.6,0,4.8c-1,1-2,1.9-2.9,2.9C33.7,38.4,33.6,39.4,34.2,40.4z
		 M28.6,37.3c-0.5-0.1-0.9-0.2-1.3-0.3c-1.6-0.4-2.9-1.3-4.2-2.3c-0.4-0.3-0.9-0.6-1.4-0.6c-0.9-0.1-1.8,0.1-2.4,1
		c0.3,0.3,0.6,0.5,0.9,0.7c1.3,1.1,1.3,2.6,0.2,3.7c-0.4,0.4-0.9,0.7-1.3,1.1c-0.2,0.2-0.4,0.3-0.7,0.5c0.5,0.2,0.9,0.5,1.4,0.6
		c0.2,0.1,0.4,0,0.6-0.1c0.9-0.8,1.9-1.2,3-1.2c1.7,0,3-0.7,4.2-1.8C27.9,38.2,28.2,37.8,28.6,37.3z M5.8,42.9c0-0.1,0-0.2,0-0.2
		c-0.2-2-0.4-3.9-0.6-5.9c0-0.2-0.1-0.4-0.2-0.6c-0.3-0.4-0.7-0.5-1.2-0.4c-0.5,0.1-0.7,0.5-0.7,1c-0.1,1.1-0.2,2.3-0.3,3.4
		c-0.1,0.9-0.2,1.8-0.2,2.7C3.6,42.9,4.6,42.9,5.8,42.9z M4.1,28.7c-0.6,0-0.9,0.3-0.9,0.9c0,0.6,0.3,0.9,0.9,0.9
		c0.6,0,0.9-0.3,0.9-0.9C5,29,4.7,28.7,4.1,28.7z"/>
	<path class="st1" d="M39.5,15.2c0.4-0.4,0.8-0.8,1.3-1.2c4.7,5.3,6.8,11.4,5.1,18.3c-2.5,9.7-9.2,14.9-19.2,16.1c0,1,0,2.2,0,3.3
		c2.4,0,4.7,0,7.1,0c0,0.6,0,1.2,0,1.8c-5.4,0-10.8,0-16.2,0c0-0.6,0-1.1,0-1.7c2.4,0,4.8,0,7.1,0c0-1.2,0-2.3,0-3.5
		c-5.1-0.3-9.5-2.1-13.3-5.5c0.4-0.4,0.8-0.9,1.2-1.3c7.9,7.5,20.4,6.1,26.9-0.8C45.9,34,46.7,22.8,39.5,15.2z"/>
	<path class="st2" d="M40.3,23.2c-0.1,0-0.1,0-0.1,0c-1.5-1-2.7-0.8-4,0.9c-1.1,1.4-1.7,3-1.3,4.8c0.1,0.8,0.5,1.5,1.1,2
		c0.6,0.5,0.7,1.2,0.6,1.9c0,0.2-0.3,0.5-0.5,0.7c-1.1,1.1-2.2,2.1-3.2,3.3c-0.9,1.1-1.1,2.4-0.6,3.8c0.1,0.3,0.2,0.5,0.3,0.8
		c-2.3,1.5-7.3,2.1-10.3,1.1c0.4-0.1,0.7-0.1,1.1-0.1c2.7-0.2,4.7-1.5,6.2-3.7c0.3-0.5,0.5-1.1,0.6-1.6c0.1-0.7-0.4-1.3-1.1-1.5
		c-0.3-0.1-0.6-0.1-0.9-0.2c-1.4-0.2-2.5-0.8-3.5-1.7c-1.9-1.9-4.1-1.6-5.9-0.4c-1.5,1-1.6,2.3-0.2,3.5c1.1,0.9,1.1,1.2-0.1,2
		c-0.3,0.2-0.6,0.4-0.9,0.6c-0.3,0.2-0.6,0.4-0.9,0.7c-1.7-1.2-3.2-2.7-4.2-4.6c-2.8-5.1-2.8-10.2,0-15.3c0.6-1,1.7-1.4,2.6-2
		c0.8,0.7,0.8,1,0.2,1.7c-1.6,1.9-2.7,4-2.5,6.6c0.2,1.9,1.2,3.3,2.8,4.2c1,0.6,1.9,0.2,2.1-1c0.1-0.4,0.1-0.8,0.1-1.2
		c0-0.4,0-0.7,0-1.2c0.3,0.2,0.6,0.4,0.9,0.6c0.8,0.6,1.7,1.2,2.8,1.2c0.7,0,1.5-0.1,2-0.7c1.1-1.1,2.5-1.6,4.1-1.8
		c2.2-0.4,4.1-1.3,5.7-2.8c2-2,1.7-4.4,0.2-6.2c-0.8-1-1.8-1.2-2.9-0.6c-0.7,0.4-1.3,1-2,1.5c-0.2,0.2-0.3,0.4-0.5,0.6
		C28.1,19.1,28,19,28,19c0-0.4,0-0.8,0-1.2c-0.1-1.9-1.4-2.6-3.1-1.7c-0.3,0.1-0.6,0.3-0.8,0.5c-0.7,0.4-1,0.3-1.4-0.5
		c0-0.1-0.1-0.2-0.1-0.5c0.8-0.1,1.5-0.2,2.2-0.2c3.2-0.2,6.4-0.1,9.4,1c0.8,0.3,1.5,0.6,2.3,0.9c0,0,0.1,0.1,0.1,0.1
		C38.3,19,39.5,20.9,40.3,23.2z"/>
	<path class="st3" d="M16.1,29.1c-0.8-0.8-1.3-1.6-1.4-2.6c-0.2-1.8,0.3-3.5,1.7-4.8c1.4-1.3,1.6-2.7,0.5-4.3
		c1.3-0.4,2.5-0.9,3.8-1.3c0.5,1.1,0.8,2.2,2.2,2.5c1.3,0.3,2.2-0.5,3.3-1c0,0.8,0.1,1.5,0.1,2.1c0.1,1.4,1.2,1.9,2.4,1.1
		c0.7-0.5,1.3-1.1,1.9-1.7c1.1-1,1.9-0.8,2.2,0.7c0.3,1.1,0,2-0.8,2.8c-1.3,1.3-2.9,2-4.7,2.3c-1.8,0.2-3.4,0.8-4.7,2.1
		c-0.6,0.5-1.1,0.6-1.8,0.2c-0.5-0.3-0.9-0.6-1.3-0.9c-0.2-0.1-0.4-0.3-0.6-0.4c-1.2-0.7-2.4-0.1-2.6,1.3
		C16.2,27.7,16.2,28.3,16.1,29.1z"/>
	<path class="st4" d="M39.8,9.4c-1.1,0.6-2.1,1.2-3.1,1.7c-0.1-0.1-0.1-0.1-0.1-0.2c0-1.1-0.6-1.6-1.5-1.9c-1.7-0.6-3.5-0.8-5.3-0.9
		c-2.9-0.1-5.8-0.1-8.7,0.5c-3,0.6-5.7,1.7-8.3,3.3c-0.9,0.6-1.8,1.2-2.7,1.7c-0.1,0.1-0.4,0.2-0.5,0.2c-1.1-0.4-2.3-0.8-3.5-1.2
		c0.3-0.2,0.4-0.3,0.6-0.4c5-3.2,10.1-6.4,15.1-9.7c0.2-0.2,0.4-0.3,0.8-0.1C28.2,4.7,33.8,7,39.5,9.2C39.6,9.3,39.7,9.3,39.8,9.4z"
		/>
	<path class="st4" d="M35.4,14.8c-8-2.2-15.6-1.6-22.8,2.8c-0.4-0.9-0.7-1.8-1.1-2.7c2.5-1.8,5.2-3.2,8.2-4.1c3-0.9,6-0.9,9.1-0.9
		c1.8,0,3.6,0.2,5.4,0.7c0.5,0.1,0.7,0.3,0.8,0.9C35,12.6,35.2,13.7,35.4,14.8z"/>
	<path class="st5" d="M34.2,40.4c-0.6-1-0.6-2,0.2-2.8c1-1,1.9-2,2.9-2.9c1.2-1.2,1.3-3.4,0-4.8c-1.3-1.4-1.1-3.8,0.3-5.1
		c0.5-0.5,1-0.6,1.6-0.1c1.1,0.9,1.9,1.9,1.8,3.5c-0.2,3.9-1.6,7.3-4.3,10.1C36,39,35.1,39.7,34.2,40.4z"/>
	<path class="st5" d="M28.6,37.3c-0.4,0.5-0.7,1-1.1,1.3c-1.2,1.1-2.5,1.8-4.2,1.8c-1.1,0-2.2,0.4-3,1.2c-0.1,0.1-0.4,0.2-0.6,0.1
		c-0.4-0.2-0.8-0.4-1.4-0.6c0.3-0.2,0.5-0.3,0.7-0.5c0.5-0.4,0.9-0.7,1.3-1.1c1.2-1.2,1.1-2.6-0.2-3.7c-0.3-0.2-0.6-0.5-0.9-0.7
		c0.6-0.9,1.5-1.1,2.4-1c0.5,0,1.1,0.3,1.4,0.6c1.2,1.1,2.6,1.9,4.2,2.3C27.7,37.1,28.1,37.2,28.6,37.3z"/>
	<path class="st6" d="M5.8,42.9c-1.1,0-2.2,0-3.4,0c0.1-0.9,0.2-1.8,0.2-2.7c0.1-1.1,0.2-2.3,0.3-3.4c0-0.4,0.2-0.8,0.7-1
		c0.5-0.1,0.9,0,1.2,0.4c0.1,0.2,0.2,0.4,0.2,0.6c0.2,2,0.4,3.9,0.6,5.9C5.8,42.8,5.8,42.8,5.8,42.9z"/>
	<path class="st7" d="M4.1,28.7C4.7,28.7,5,29,5,29.6c0,0.6-0.3,0.9-0.9,0.9c-0.6,0-0.9-0.3-0.9-0.9C3.2,29.1,3.5,28.8,4.1,28.7z"/>
</g>
</svg>
