<?xml version="1.0" encoding="utf-8"?>
<!-- Generator: Adobe Illustrator 24.0.2, SVG Export Plug-In . SVG Version: 6.00 Build 0)  -->
<svg version="1.1" id="Layer_1" xmlns="http://www.w3.org/2000/svg" xmlns:xlink="http://www.w3.org/1999/xlink" x="0px" y="0px"
	 viewBox="0 0 25 25" style="enable-background:new 0 0 25 25;" xml:space="preserve">
<style type="text/css">
	.st0{fill:url(#SVGID_1_);}
</style>
<linearGradient id="SVGID_1_" gradientUnits="userSpaceOnUse" x1="0" y1="12.5" x2="25" y2="12.5">
	<stop  offset="0" style="stop-color:#F37335"/>
	<stop  offset="1" style="stop-color:#FDC830"/>
</linearGradient>
<path class="st0" d="M2,1.6C1.8,1.8,1.5,2,1.3,2.3c-3.4,4.6,0.3,13,4.3,17s12.4,7.8,17,4.3c2.1-1.6,3.4-4.7,1.1-6.1l-4.3-1.9
	c-2.3-1-3-0.9-4.5,0.7c-0.8,0.8-2.5,0.7-3.3-0.1l-2.8-2.8c-0.8-0.8-0.9-2.5-0.1-3.3c1.5-1.5,1.7-2.2,0.7-4.5L7.4,1.3
	C6.2-0.8,3.7-0.1,2,1.6z"/>
</svg>
