<?xml version="1.0" encoding="utf-8"?>
<!-- Generator: Adobe Illustrator 24.0.2, SVG Export Plug-In . SVG Version: 6.00 Build 0)  -->
<svg version="1.1" id="Layer_35" xmlns="http://www.w3.org/2000/svg" xmlns:xlink="http://www.w3.org/1999/xlink" x="0px" y="0px"
	 viewBox="0 0 47 47" style="enable-background:new 0 0 47 47;" xml:space="preserve">
<style type="text/css">
	.st0{fill:#FCD770;}
	.st1{fill:#E6E9ED;}
	.st2{fill:#EF7385;}
	.st3{fill:#F0D0B4;}
	.st4{fill:#CF9E76;}
	.st5{fill:#AAB2BD;}
	.st6{fill:#FFEAA7;}
	.st7{fill:#69D6F4;}
</style>
<g>
	<path class="st0" d="M1.2,1.2h44.5v5.9H1.2V1.2z"/>
	<path class="st1" d="M1.2,7.2h44.5v26.7H1.2V7.2z"/>
	<path class="st2" d="M15.2,18.8c-1,1.4-1.7,3-2,4.7h-9c0-1.6,0.7-3.1,1.7-4.2c1.1-1.1,2.6-1.7,4.2-1.7h0.7h0.7
		C13,17.6,14.2,18,15.2,18.8z"/>
	<path class="st2" d="M42.8,23.5h-9c-0.3-1.8-0.9-3.4-2-4.7c1-0.7,2.2-1.2,3.6-1.2h0.7h0.7C40.1,17.6,42.8,20.2,42.8,23.5z"/>
	<circle class="st3" cx="36.1" cy="13.9" r="3.7"/>
	<circle class="st3" cx="10.9" cy="13.9" r="3.7"/>
	<path class="st4" d="M15,35.7l1.1,1.1l-8,8c-0.6,0.6-1.4,0.9-2.2,0.9c-0.9,0-1.7-0.4-2.2-0.9c-0.6-0.6-0.9-1.4-0.9-2.2
		c0-0.8,0.3-1.6,0.9-2.2l6.5-6.5l1.5-1.5l1.1,1.1L15,35.7z"/>
	<path class="st5" d="M17.4,33.4L15,35.7l-2.2-2.2l2.4-2.4C15.8,32,16.5,32.7,17.4,33.4z"/>
	<path class="st6" d="M17.4,33.4c-0.9-0.6-1.6-1.4-2.2-2.2c-1.3-1.7-2-3.9-2-6.1c0-0.5,0-1,0.1-1.5c0.3-1.8,0.9-3.4,2-4.7
		c1.9-2.5,4.9-4.2,8.3-4.2s6.4,1.6,8.3,4.2c1,1.4,1.7,3,2,4.7c0.1,0.5,0.1,1,0.1,1.5c0,3.8-2,7.1-5,8.9c-1.6,0.9-3.4,1.5-5.3,1.5
		C21.2,35.4,19.1,34.6,17.4,33.4L17.4,33.4z"/>
	<circle class="st7" cx="23.5" cy="25" r="7.4"/>
	<path d="M46.5,0.5h-46v34.1h7.9l-5.2,5.2C2.4,40.6,2,41.6,2,42.6c0,2.1,1.7,3.9,3.9,3.9c1,0,2-0.4,2.8-1.1l8.5-8.5L16,35.7l1.4-1.4
		c1.7,1.1,3.8,1.8,6.1,1.8c2,0,3.9-0.5,5.5-1.5h17.5V0.5z M45,2v4.5H2V2H45z M7.6,44.3C7.1,44.8,6.5,45,5.9,45
		c-1.3,0-2.4-1.1-2.4-2.4c0-0.6,0.3-1.2,0.7-1.7l7.5-7.5l3.4,3.4L7.6,44.3z M15,34.7l-1.2-1.2l1.3-1.3c0.4,0.4,0.8,0.8,1.2,1.2
		L15,34.7z M13.9,25c0-5.3,4.3-9.6,9.6-9.6s9.6,4.3,9.6,9.6s-4.3,9.6-9.6,9.6S13.9,30.3,13.9,25z M12.6,22.8H5
		c0.4-2.5,2.5-4.5,5.1-4.5h1.5c0.9,0,1.8,0.2,2.5,0.7C13.4,20.1,12.9,21.4,12.6,22.8z M10.9,16.8c-1.6,0-3-1.3-3-3s1.3-3,3-3
		c1.6,0,3,1.3,3,3S12.5,16.8,10.9,16.8z M36.1,16.8c-1.6,0-3-1.3-3-3s1.3-3,3-3s3,1.3,3,3S37.7,16.8,36.1,16.8z M36.9,18.3
		c2.6,0,4.8,1.9,5.1,4.5h-7.6c-0.3-1.4-0.8-2.7-1.6-3.8c0.8-0.4,1.6-0.7,2.5-0.7H36.9z M31,33.1c2.2-2,3.6-4.9,3.6-8.2
		c0-0.3,0-0.5,0-0.7h8.9v-0.7c0-2.9-1.9-5.4-4.5-6.3c0.9-0.8,1.5-2,1.5-3.3c0-2.5-2-4.5-4.5-4.5s-4.5,2-4.5,4.5
		c0,1.3,0.6,2.5,1.5,3.3c-0.4,0.1-0.8,0.3-1.2,0.6c-2-2.4-5.1-3.9-8.5-3.9c-3.4,0-6.4,1.5-8.5,3.9c-0.4-0.2-0.8-0.4-1.2-0.6
		c0.9-0.8,1.5-2,1.5-3.3c0-2.5-2-4.5-4.5-4.5s-4.5,2-4.5,4.5c0,1.3,0.6,2.5,1.5,3.3c-2.6,0.9-4.5,3.4-4.5,6.3v0.7h8.9
		c0,0.2,0,0.5,0,0.7c0,2.2,0.7,4.3,1.8,6.1l-1.4,1.4l-1.1-1.1l-1.8,1.8H2V7.9h43v25.2H31z"/>
	<path d="M3.5,3.5H5V5H3.5V3.5z"/>
	<path d="M6.4,3.5h1.5V5H6.4V3.5z"/>
	<path d="M9.4,3.5h1.5V5H9.4V3.5z"/>
	<path d="M23.5,16.8c-4.5,0-8.2,3.7-8.2,8.2s3.7,8.2,8.2,8.2s8.2-3.7,8.2-8.2S28,16.8,23.5,16.8z M23.5,31.7c-3.7,0-6.7-3-6.7-6.7
		s3-6.7,6.7-6.7s6.7,3,6.7,6.7S27.2,31.7,23.5,31.7z"/>
	<path d="M19.8,24.2h7.4v1.5h-7.4V24.2z"/>
	<path d="M19.8,21.3h7.4v1.5h-7.4V21.3z"/>
	<path d="M19.8,27.2h7.4v1.5h-7.4V27.2z"/>
	<path d="M36.1,25.7h7.4v1.5h-7.4V25.7z"/>
	<path d="M36.1,28.7h7.4v1.5h-7.4V28.7z"/>
	<path d="M3.5,25.7h7.4v1.5H3.5V25.7z"/>
	<path d="M3.5,28.7h7.4v1.5H3.5V28.7z"/>
	<path d="M19.8,9.4h1.5v1.5h-1.5V9.4z"/>
	<path d="M22.8,9.4h1.5v1.5h-1.5V9.4z"/>
	<path d="M25.7,9.4h1.5v1.5h-1.5V9.4z"/>
</g>
</svg>
