<?xml version="1.0" encoding="utf-8"?>
<!-- Generator: Adobe Illustrator 24.0.2, SVG Export Plug-In . SVG Version: 6.00 Build 0)  -->
<svg version="1.1" id="Layer_1" xmlns="http://www.w3.org/2000/svg" xmlns:xlink="http://www.w3.org/1999/xlink" x="0px" y="0px"
	 viewBox="0 0 49 42" style="enable-background:new 0 0 49 42;" xml:space="preserve">
<style type="text/css">
	.st0{fill:url(#SVGID_1_);}
	.st1{fill:url(#SVGID_2_);}
	.st2{fill:url(#SVGID_3_);}
	.st3{fill:url(#SVGID_4_);}
	.st4{fill:url(#SVGID_5_);}
	.st5{fill:url(#SVGID_6_);}
	.st6{fill:url(#SVGID_7_);}
	.st7{fill:url(#SVGID_8_);}
</style>
<g>
	<linearGradient id="SVGID_1_" gradientUnits="userSpaceOnUse" x1="29.6501" y1="10.8467" x2="48.5" y2="10.8467">
		<stop  offset="0" style="stop-color:#5A9491"/>
		<stop  offset="1" style="stop-color:#264749"/>
	</linearGradient>
	<path class="st0" d="M31.6,21.4c0.8-1.3,1.6-2.5,2.4-3.7c-0.1-0.1-0.3-0.2-0.4-0.3c-3.1-2.2-4.6-6.1-3.7-9.8c0.9-3.8,4-6.6,7.8-7.1
		C43-0.4,47.8,3.3,48.4,8.6c0.6,4.7-2.3,9-6.9,10.3c-3.2,0.9-6.5,1.7-9.7,2.6C31.8,21.4,31.7,21.4,31.6,21.4z M40.5,11.7
		c0.7,0.5,1.4,1.1,2.1,1.6c0.4,0.3,0.8,0.3,1.1-0.1c0.3-0.4,0.2-0.8-0.2-1.1c-0.5-0.4-1.1-0.8-1.6-1.2c-0.3-0.2-0.3-0.3-0.2-0.7
		c0.6-1.5,0.2-3.1-1-4.1c-1.2-1-2.9-1-4.2-0.1c-1.3,1-1.8,2.6-1.3,4.1C35.9,12.1,38.5,13,40.5,11.7z"/>
	<linearGradient id="SVGID_2_" gradientUnits="userSpaceOnUse" x1="8.3273" y1="15.3975" x2="27.9709" y2="15.3975">
		<stop  offset="0" style="stop-color:#5A9491"/>
		<stop  offset="1" style="stop-color:#264749"/>
	</linearGradient>
	<path class="st1" d="M18.1,5.6c5.4,0,9.8,4.4,9.8,9.8c0,5.4-4.4,9.9-9.8,9.8c-5.4,0-9.8-4.4-9.8-9.8C8.3,10,12.7,5.6,18.1,5.6z
		 M10.8,13.7c0,0.1-0.1,0.2-0.1,0.3c-0.9,4.5,2.5,8.8,7.1,9c4.7,0.2,8.4-3.6,8-8.3c-0.1-1.5-0.6-2-2-2.4c-0.3-0.1-0.6-0.1-0.9-0.1
		c-1.3,0-2.5,0.4-3.6,1.2c-1.6,1.1-3.4,1.5-5.4,1.1C12.8,14.3,11.8,14,10.8,13.7z"/>
	<linearGradient id="SVGID_3_" gradientUnits="userSpaceOnUse" x1="0.5" y1="35.129" x2="13.1654" y2="35.129">
		<stop  offset="0" style="stop-color:#5A9491"/>
		<stop  offset="1" style="stop-color:#264749"/>
	</linearGradient>
	<path class="st2" d="M13.2,41.6c-4.2,0-8.4,0-12.6,0c0,0,0,0,0-0.1c0-1.9-0.1-3.7,0.1-5.6c0.4-3.7,3.6-6.8,7.3-7.2
		c0.4,0,0.7,0,1.1-0.1c0.3,0,0.4,0.1,0.5,0.4c1.1,3.8,2.2,7.5,3.3,11.3C12.9,40.7,13,41.2,13.2,41.6z"/>
	<linearGradient id="SVGID_4_" gradientUnits="userSpaceOnUse" x1="23.0879" y1="35.134" x2="35.7941" y2="35.134">
		<stop  offset="0" style="stop-color:#5A9491"/>
		<stop  offset="1" style="stop-color:#264749"/>
	</linearGradient>
	<path class="st3" d="M35.7,41.6c-4.2,0-8.4,0-12.7,0c0-0.2,0.1-0.3,0.1-0.5c1.2-4,2.4-8,3.6-12.1c0.1-0.3,0.2-0.4,0.5-0.4
		c4.3,0.1,8,3.4,8.3,7.7C35.9,38.1,35.7,39.8,35.7,41.6z"/>
	<linearGradient id="SVGID_5_" gradientUnits="userSpaceOnUse" x1="15.76" y1="32.9717" x2="20.5236" y2="32.9717">
		<stop  offset="0" style="stop-color:#5A9491"/>
		<stop  offset="1" style="stop-color:#264749"/>
	</linearGradient>
	<path class="st4" d="M16.2,37.1c0.2-0.9,0.4-1.7,0.6-2.4c0.1-0.6,0.3-1.1,0.4-1.7c0-0.1,0-0.3-0.1-0.4c-0.4-0.4-0.7-0.8-1.1-1.2
		c-0.2-0.2-0.2-0.3-0.1-0.6c0.2-0.5,0.5-1.1,0.7-1.6c0.1-0.2,0.2-0.3,0.5-0.3c0.8,0,1.5,0,2.3,0c0.2,0,0.4,0.1,0.4,0.3
		c0.3,0.6,0.5,1.1,0.8,1.7c0.1,0.2,0,0.4-0.1,0.6c-0.3,0.4-0.7,0.8-1,1.2c-0.2,0.2-0.2,0.4-0.2,0.7c0.1,0.4,0.2,0.8,0.3,1.2
		c0,0.1,0,0.3-0.1,0.4C18.4,35.6,17.3,36.3,16.2,37.1z"/>
	<linearGradient id="SVGID_6_" gradientUnits="userSpaceOnUse" x1="15.0685" y1="38.832" x2="20.3868" y2="38.832">
		<stop  offset="0" style="stop-color:#5A9491"/>
		<stop  offset="1" style="stop-color:#264749"/>
	</linearGradient>
	<path class="st5" d="M19.9,36c0.2,0.8,0.4,1.5,0.5,2.1c0,0.1-0.1,0.3-0.1,0.3c-1.4,1-2.9,2.1-4.3,3.1c-0.2,0.1-0.5,0.1-0.8,0.2
		c0.2-1,0.4-1.8,0.6-2.7c0-0.1,0.1-0.2,0.1-0.2C17.2,37.9,18.5,36.9,19.9,36z"/>
	<linearGradient id="SVGID_7_" gradientUnits="userSpaceOnUse" x1="17.8374" y1="40.5846" x2="21.2052" y2="40.5846">
		<stop  offset="0" style="stop-color:#5A9491"/>
		<stop  offset="1" style="stop-color:#264749"/>
	</linearGradient>
	<path class="st6" d="M17.8,41.6c1-0.7,1.9-1.4,2.9-2.1c0.2,0.7,0.3,1.4,0.5,2.1C20.1,41.6,19,41.6,17.8,41.6z"/>
	<linearGradient id="SVGID_8_" gradientUnits="userSpaceOnUse" x1="36.4103" y1="8.8746" x2="40.4606" y2="8.8746">
		<stop  offset="0" style="stop-color:#5A9491"/>
		<stop  offset="1" style="stop-color:#264749"/>
	</linearGradient>
	<path class="st7" d="M36.4,8.8c0-1.1,0.9-2,2-2c1.2,0,2.1,0.9,2,2.1c0,1.1-0.9,2-2,2C37.3,10.9,36.4,10,36.4,8.8z"/>
</g>
</svg>
