<?xml version="1.0" encoding="UTF-8"?>
<svg xmlns="http://www.w3.org/2000/svg" xmlns:xlink="http://www.w3.org/1999/xlink" width="47pt" height="47pt" viewBox="0 0 47 47" version="1.1">
<g id="surface1">
<path style=" stroke:none;fill-rule:nonzero;fill:rgb(2.745098%,66.27451%,94.117647%);fill-opacity:1;" d="M 46 23.5 C 46 25.898438 45.601562 28.300781 44.898438 30.398438 L 1.5 29.898438 C 0.5 22.300781 0.5 15 5.800781 9 C 10 4.101562 16.199219 1 23.300781 1 C 35.800781 1 46 11.101562 46 23.5 Z M 46 23.5 "/>
<path style=" stroke:none;fill-rule:nonzero;fill:rgb(25.098039%,75.686275%,98.039216%);fill-opacity:1;" d="M 45 29.898438 C 42.199219 39.199219 33.5 46 23.300781 46 C 13.101562 46 4.300781 39.199219 1.601562 29.898438 Z M 45 29.898438 "/>
<path style=" stroke:none;fill-rule:nonzero;fill:rgb(48.235294%,67.45098%,31.764706%);fill-opacity:1;" d="M 29.101562 40.898438 L 31.699219 35.601562 L 37.199219 38.300781 L 31.898438 23.699219 L 23.898438 26.300781 Z M 29.101562 40.898438 "/>
<path style=" stroke:none;fill-rule:nonzero;fill:rgb(48.235294%,67.45098%,31.764706%);fill-opacity:1;" d="M 18 40.898438 L 15.398438 35.601562 L 9.898438 38.300781 L 15.101562 23.699219 L 23.101562 26.300781 Z M 18 40.898438 "/>
<path style=" stroke:none;fill-rule:nonzero;fill:rgb(36.470588%,55.686275%,20%);fill-opacity:1;" d="M 35.300781 37.5 L 37.101562 38.398438 L 31.898438 23.800781 L 30.601562 24.199219 Z M 35.300781 37.5 "/>
<path style=" stroke:none;fill-rule:nonzero;fill:rgb(60%,79.215686%,43.529412%);fill-opacity:1;" d="M 11.699219 37.5 L 9.898438 38.398438 L 15.101562 23.800781 L 16.398438 24.199219 Z M 11.699219 37.5 "/>
<path style=" stroke:none;fill-rule:nonzero;fill:rgb(41.176471%,1.960784%,53.72549%);fill-opacity:1;" d="M 18 41.199219 C 17.898438 41.199219 17.800781 41.101562 17.699219 41 L 15.199219 36 L 10.101562 38.601562 C 10 38.699219 9.800781 38.601562 9.699219 38.601562 C 9.601562 38.398438 9.601562 38.398438 9.601562 38.199219 L 14.800781 23.601562 C 14.898438 23.398438 15 23.300781 15.199219 23.398438 L 23.199219 26 C 23.300781 26 23.398438 26.101562 23.398438 26.199219 C 23.398438 26.300781 23.398438 26.398438 23.398438 26.5 L 18.199219 41.101562 C 18.101562 41.101562 18.101562 41.199219 18 41.199219 Z M 15.398438 35.300781 C 15.601562 35.300781 15.699219 35.398438 15.699219 35.5 L 18 40.101562 L 22.800781 26.5 L 15.398438 24.101562 L 10.5 37.800781 L 15.199219 35.398438 C 15.300781 35.300781 15.300781 35.300781 15.398438 35.300781 Z M 15.398438 35.300781 "/>
<path style=" stroke:none;fill-rule:nonzero;fill:rgb(41.176471%,1.960784%,53.72549%);fill-opacity:1;" d="M 29.101562 41.199219 C 28.898438 41.199219 28.800781 41.101562 28.800781 41 L 23.601562 26.398438 C 23.601562 26.300781 23.601562 26.199219 23.601562 26.101562 C 23.601562 26 23.699219 26 23.800781 25.898438 L 31.800781 23.300781 C 32 23.199219 32.199219 23.300781 32.199219 23.5 L 37.398438 38.101562 C 37.398438 38.199219 37.398438 38.398438 37.300781 38.5 C 37.199219 38.601562 37.101562 38.601562 36.898438 38.5 L 31.898438 36 L 29.398438 41 C 29.300781 41.101562 29.199219 41.199219 29.101562 41.199219 Z M 24.300781 26.5 L 29.101562 40.101562 L 31.398438 35.5 C 31.398438 35.398438 31.5 35.398438 31.601562 35.300781 C 31.699219 35.300781 31.800781 35.300781 31.898438 35.300781 L 36.601562 37.699219 L 31.800781 24.101562 Z M 24.300781 26.5 "/>
<path style=" stroke:none;fill-rule:nonzero;fill:rgb(98.823529%,76.078431%,29.803922%);fill-opacity:1;" d="M 11.898438 12.398438 L 11.898438 25.199219 L 23.5 31.5 L 35.101562 25.199219 L 35.101562 12.398438 L 23.5 5.898438 Z M 11.898438 12.398438 "/>
<path style=" stroke:none;fill-rule:nonzero;fill:rgb(41.176471%,1.960784%,53.72549%);fill-opacity:1;" d="M 13.898438 30.898438 C 13.601562 30.800781 13.5 30.699219 13.601562 30.5 L 14.199219 28.699219 C 14.300781 28.5 14.398438 28.398438 14.601562 28.5 C 14.800781 28.601562 14.898438 28.699219 14.800781 28.898438 L 14.199219 30.699219 C 14.199219 30.800781 14 30.898438 13.898438 30.898438 Z M 13.898438 30.898438 "/>
<path style=" stroke:none;fill-rule:nonzero;fill:rgb(87.058824%,64.313725%,18.039216%);fill-opacity:1;" d="M 33.5 11.398438 L 33.5 26 L 35.101562 25.101562 L 35.101562 12.300781 Z M 33.5 11.398438 "/>
<path style=" stroke:none;fill-rule:nonzero;fill:rgb(98.823529%,87.843137%,41.568627%);fill-opacity:1;" d="M 13.5 26 L 13.5 11.398438 L 11.898438 12.300781 L 11.898438 25.101562 Z M 13.5 26 "/>
<path style=" stroke:none;fill-rule:nonzero;fill:rgb(100%,26.27451%,59.215686%);fill-opacity:1;" d="M 16.699219 23.398438 L 18.5 23.398438 C 18.898438 23.398438 19.101562 23.101562 19.101562 22.800781 L 19.101562 17 C 19.101562 16.601562 18.800781 16.398438 18.5 16.398438 L 16.699219 16.398438 C 16.300781 16.398438 16.101562 16.699219 16.101562 17 L 16.101562 22.800781 C 16.101562 23.199219 16.398438 23.398438 16.699219 23.398438 Z M 16.699219 23.398438 "/>
<path style=" stroke:none;fill-rule:nonzero;fill:rgb(100%,38.039216%,70.980392%);fill-opacity:1;" d="M 17 22.898438 L 17 17.101562 C 17 16.699219 17.300781 16.5 17.601562 16.5 L 16.699219 16.5 C 16.300781 16.5 16.101562 16.800781 16.101562 17.101562 L 16.101562 22.898438 C 16.101562 23.300781 16.398438 23.5 16.699219 23.5 L 17.601562 23.5 C 17.300781 23.398438 17 23.199219 17 22.898438 Z M 17 22.898438 "/>
<path style=" stroke:none;fill-rule:nonzero;fill:rgb(41.176471%,1.960784%,53.72549%);fill-opacity:1;" d="M 18.5 23.800781 L 16.699219 23.800781 C 16.199219 23.800781 15.699219 23.398438 15.699219 22.898438 L 15.699219 17.101562 C 15.699219 16.601562 16.101562 16.199219 16.699219 16.199219 L 18.5 16.199219 C 19 16.199219 19.5 16.601562 19.5 17.101562 L 19.5 22.898438 C 19.398438 23.398438 19 23.800781 18.5 23.800781 Z M 16.699219 16.699219 C 16.5 16.699219 16.300781 16.898438 16.300781 17.101562 L 16.300781 22.898438 C 16.300781 23.101562 16.5 23.300781 16.699219 23.300781 L 18.5 23.300781 C 18.699219 23.300781 18.898438 23.101562 18.898438 22.898438 L 18.898438 17.101562 C 18.898438 16.898438 18.699219 16.699219 18.5 16.699219 Z M 16.699219 16.699219 "/>
<path style=" stroke:none;fill-rule:nonzero;fill:rgb(95.686275%,93.72549%,92.941176%);fill-opacity:1;" d="M 30.898438 18.898438 C 30.898438 18.398438 30.5 18 29.898438 18 L 29.601562 18 C 30.101562 18 30.601562 17.601562 30.601562 17.101562 C 30.601562 16.601562 30.199219 16.199219 29.601562 16.199219 L 24.601562 16.199219 L 24.601562 11.800781 C 24.601562 11.300781 24.199219 10.898438 23.601562 10.898438 C 23.199219 10.898438 22.699219 11.300781 22.699219 11.699219 L 22 16.199219 C 21.300781 16.199219 20.699219 16.699219 20.699219 17.398438 L 19.199219 17.398438 L 19.199219 22.5 L 20.699219 22.5 C 20.800781 23.101562 21.300781 23.5 22 23.5 L 28.898438 23.5 C 29.398438 23.5 29.898438 23.101562 29.898438 22.601562 C 29.898438 22.101562 29.5 21.699219 28.898438 21.699219 L 29.699219 21.699219 C 30.199219 21.699219 30.699219 21.300781 30.699219 20.800781 C 30.699219 20.300781 30.300781 19.898438 29.699219 19.898438 L 30.101562 19.898438 C 30.5 19.800781 30.898438 19.398438 30.898438 18.898438 Z M 30.898438 18.898438 "/>
<path style=" stroke:none;fill-rule:nonzero;fill:rgb(100%,100%,100%);fill-opacity:1;" d="M 30.699219 17.101562 C 30.699219 17 30.699219 17 30.699219 16.898438 C 30.601562 16.5 30.300781 16.101562 29.699219 16.101562 L 24.800781 16.101562 C 24.898438 16.5 25.199219 16.898438 25.800781 16.898438 L 30 16.898438 C 30.199219 16.898438 30.5 17 30.699219 17.101562 Z M 30.699219 17.101562 "/>
<path style=" stroke:none;fill-rule:nonzero;fill:rgb(100%,100%,100%);fill-opacity:1;" d="M 20.699219 17.800781 C 20.898438 17.300781 21.300781 16.898438 22 16.898438 L 22.199219 16.898438 L 22.199219 16.101562 L 22 16.101562 C 21.300781 16.101562 20.699219 16.601562 20.699219 17.300781 L 19.199219 17.300781 L 19.199219 18.101562 L 20.199219 18.101562 C 20.398438 18.101562 20.601562 17.898438 20.699219 17.800781 Z M 20.699219 17.800781 "/>
<path style=" stroke:none;fill-rule:nonzero;fill:rgb(83.921569%,81.960784%,81.176471%);fill-opacity:1;" d="M 21 23.101562 C 21 23.199219 21.101562 23.199219 21 23.101562 C 21.101562 23.199219 21.101562 23.199219 21.199219 23.199219 C 21.199219 23.199219 21.199219 23.199219 21.300781 23.199219 C 21.300781 23.199219 21.300781 23.199219 21.398438 23.199219 C 21.398438 23.199219 21.398438 23.199219 21.5 23.199219 C 21.5 23.199219 21.5 23.199219 21.601562 23.199219 C 21.601562 23.199219 21.601562 23.199219 21.699219 23.199219 C 21.699219 23.199219 21.699219 23.199219 21.800781 23.199219 C 21.800781 23.199219 21.800781 23.199219 21.898438 23.199219 L 22 23.199219 C 22 23.199219 22 23.199219 22.101562 23.199219 L 29.101562 23.199219 C 29.199219 23.199219 29.398438 23.199219 29.5 23.101562 C 29.800781 23 29.898438 22.699219 30 22.5 C 30 22.398438 30 22.300781 30 22.199219 C 30 22.101562 30 22 30 21.898438 C 30 21.800781 29.898438 21.800781 29.898438 21.699219 C 29.699219 22 29.5 22.199219 29.101562 22.199219 L 22.199219 22.199219 C 21.601562 22.199219 21 21.800781 20.898438 21.199219 C 20.898438 21.101562 20.800781 21 20.699219 21 L 19.398438 21 L 19.398438 22 L 20.898438 22 C 20.898438 22.300781 21 22.398438 21.199219 22.601562 C 20.898438 23 20.898438 23 21 23.101562 C 20.898438 23 20.898438 23.101562 21 23.101562 Z M 21 23.101562 "/>
<path style=" stroke:none;fill-rule:nonzero;fill:rgb(41.176471%,1.960784%,53.72549%);fill-opacity:1;" d="M 29.898438 20 L 27.300781 20 C 27.101562 20 27 19.898438 27 19.699219 C 27 19.5 27.101562 19.398438 27.300781 19.398438 L 29.898438 19.398438 C 30.300781 19.398438 30.601562 19.101562 30.601562 18.699219 C 30.601562 18.300781 30.300781 18 29.898438 18 L 27.300781 18 C 27.101562 18 27 17.898438 27 17.699219 C 27 17.5 27.101562 17.398438 27.300781 17.398438 L 29.898438 17.398438 C 30.601562 17.398438 31.199219 17.898438 31.199219 18.601562 C 31.300781 19.601562 30.699219 20 29.898438 20 Z M 29.898438 20 "/>
<path style=" stroke:none;fill-rule:nonzero;fill:rgb(41.176471%,1.960784%,53.72549%);fill-opacity:1;" d="M 29.5 21.898438 L 27.398438 21.898438 C 27.199219 21.898438 27.101562 21.800781 27.101562 21.601562 C 27.101562 21.398438 27.199219 21.300781 27.398438 21.300781 L 29.5 21.300781 C 29.898438 21.300781 30.199219 21 30.199219 20.601562 C 30.199219 20.199219 29.898438 19.898438 29.5 19.898438 L 27.398438 19.898438 C 27.199219 19.898438 27.101562 19.800781 27.101562 19.601562 C 27.101562 19.398438 27.199219 19.300781 27.398438 19.300781 L 29.5 19.300781 C 30.199219 19.300781 30.800781 19.800781 30.800781 20.5 C 30.800781 21.199219 30.199219 21.898438 29.5 21.898438 Z M 29.5 21.898438 "/>
<path style=" stroke:none;fill-rule:nonzero;fill:rgb(41.176471%,1.960784%,53.72549%);fill-opacity:1;" d="M 28.800781 23.800781 L 22 23.800781 C 21.300781 23.800781 20.699219 23.398438 20.5 22.800781 L 19.199219 22.800781 C 19 22.800781 18.898438 22.699219 18.898438 22.5 L 18.898438 17.398438 C 18.898438 17.199219 19 17.101562 19.199219 17.101562 L 20.5 17.101562 C 20.601562 16.398438 21.199219 15.898438 21.898438 15.898438 L 22.601562 11.699219 C 22.699219 11.101562 23.199219 10.699219 23.898438 10.699219 C 24.601562 10.699219 25.199219 11.199219 25.199219 11.898438 L 25.199219 15.898438 L 29.898438 15.898438 C 30.300781 15.898438 30.5 16.101562 30.800781 16.300781 C 31.101562 16.601562 31.199219 16.800781 31.199219 17.199219 C 31.199219 17.898438 30.601562 18.398438 29.898438 18.398438 L 27.601562 18.398438 C 27.398438 18.398438 27.300781 18.300781 27.300781 18.101562 C 27.300781 17.898438 27.398438 17.800781 27.601562 17.800781 L 29.898438 17.800781 C 30.300781 17.800781 30.601562 17.5 30.601562 17.199219 C 30.601562 17 30.5 16.800781 30.398438 16.800781 C 30.300781 16.699219 30.101562 16.601562 30 16.601562 L 25 16.601562 C 24.800781 16.601562 24.699219 16.5 24.699219 16.300781 L 24.699219 12 C 24.699219 11.601562 24.398438 11.398438 24.101562 11.398438 C 23.699219 11.398438 23.5 11.699219 23.5 11.898438 L 22.699219 16.300781 C 22.699219 16.5 22.5 16.601562 22.398438 16.601562 L 22.300781 16.601562 C 21.800781 16.601562 21.300781 17 21.300781 17.5 C 21.300781 17.699219 21.199219 17.800781 21 17.800781 L 19.5 17.800781 L 19.5 22.300781 L 20.800781 22.300781 C 21 22.300781 21.101562 22.398438 21.101562 22.601562 C 21.199219 23.101562 21.5 23.398438 22.101562 23.398438 L 28.898438 23.398438 C 29.101562 23.398438 29.300781 23.300781 29.300781 23.199219 C 29.398438 23.101562 29.5 22.898438 29.5 22.800781 C 29.5 22.398438 29.101562 22.199219 28.800781 22.199219 L 27.5 22.199219 C 27.300781 22.199219 27.199219 22.101562 27.199219 21.898438 C 27.199219 21.699219 27.300781 21.601562 27.5 21.601562 L 28.800781 21.601562 C 29.5 21.601562 30.101562 22.101562 30.101562 22.800781 C 30.101562 23.199219 30 23.5 29.699219 23.699219 C 29.398438 23.601562 29.101562 23.800781 28.800781 23.800781 Z M 28.800781 23.800781 "/>
<path style=" stroke:none;fill-rule:nonzero;fill:rgb(41.176471%,1.960784%,53.72549%);fill-opacity:1;" d="M 23.5 31.800781 C 23.398438 31.800781 23.398438 31.800781 23.300781 31.800781 L 11.699219 25.5 C 11.601562 25.398438 11.5 25.300781 11.5 25.199219 L 11.5 12.398438 C 11.5 12.300781 11.601562 12.199219 11.699219 12.101562 L 23.300781 5.800781 C 23.398438 5.699219 23.5 5.699219 23.601562 5.800781 L 35.199219 12.101562 C 35.300781 12.199219 35.398438 12.300781 35.398438 12.398438 L 35.398438 25.199219 C 35.398438 25.300781 35.300781 25.398438 35.199219 25.5 L 23.5 31.800781 C 23.601562 31.699219 23.601562 31.800781 23.5 31.800781 Z M 12.199219 24.898438 L 23.5 31 L 34.898438 24.800781 L 34.898438 12.5 L 23.5 6.300781 L 12.101562 12.5 L 12.101562 24.898438 Z M 12.199219 24.898438 "/>
<path style=" stroke:none;fill-rule:nonzero;fill:rgb(41.176471%,1.960784%,53.72549%);fill-opacity:1;" d="M 23.5 29.699219 C 23.398438 29.699219 23.398438 29.699219 23.300781 29.699219 L 13.601562 24.300781 C 13.5 24.199219 13.398438 24.101562 13.398438 24 L 13.398438 13.300781 C 13.398438 13.199219 13.5 13.101562 13.601562 13 L 23.300781 7.601562 C 23.398438 7.5 23.5 7.5 23.601562 7.601562 L 33.300781 13 C 33.398438 13.101562 33.5 13.199219 33.5 13.300781 L 33.5 24 C 33.5 24.101562 33.398438 24.199219 33.300781 24.300781 L 23.601562 29.699219 C 23.601562 29.699219 23.601562 29.699219 23.5 29.699219 Z M 14 23.898438 L 23.5 29.101562 L 33 23.898438 L 33 13.5 L 23.5 8.199219 L 14 13.5 Z M 14 23.898438 "/>
</g>
</svg>
