<?xml version="1.0" encoding="utf-8"?>
<!-- Generator: Adobe Illustrator 24.0.2, SVG Export Plug-In . SVG Version: 6.00 Build 0)  -->
<svg version="1.1" id="Layer_1" xmlns="http://www.w3.org/2000/svg" xmlns:xlink="http://www.w3.org/1999/xlink" x="0px" y="0px"
	 viewBox="0 0 65 65" style="enable-background:new 0 0 65 65;" xml:space="preserve">
<style type="text/css">
	.st0{fill:#FFFFFF;}
	.st1{clip-path:url(#SVGID_3_);fill:url(#SVGID_4_);}
	.st2{clip-path:url(#SVGID_3_);fill:url(#SVGID_5_);}
	.st3{clip-path:url(#SVGID_3_);fill:url(#SVGID_6_);}
	.st4{clip-path:url(#SVGID_3_);fill:url(#SVGID_7_);}
	.st5{clip-path:url(#SVGID_3_);fill:url(#SVGID_8_);}
	.st6{clip-path:url(#SVGID_3_);fill:url(#SVGID_9_);}
	.st7{clip-path:url(#SVGID_3_);fill:url(#SVGID_10_);}
	.st8{clip-path:url(#SVGID_3_);fill:url(#SVGID_11_);}
	.st9{clip-path:url(#SVGID_3_);fill:url(#SVGID_12_);}
	.st10{clip-path:url(#SVGID_3_);fill:url(#SVGID_13_);}
	.st11{clip-path:url(#SVGID_3_);fill:url(#SVGID_14_);}
	.st12{clip-path:url(#SVGID_3_);fill:url(#SVGID_15_);}
	.st13{clip-path:url(#SVGID_3_);fill:url(#SVGID_16_);}
	.st14{clip-path:url(#SVGID_3_);fill:url(#SVGID_17_);}
	.st15{clip-path:url(#SVGID_3_);fill:url(#SVGID_18_);}
	.st16{clip-path:url(#SVGID_3_);fill:url(#SVGID_19_);}
	.st17{clip-path:url(#SVGID_3_);fill:url(#SVGID_20_);}
	.st18{clip-path:url(#SVGID_3_);fill:url(#SVGID_21_);}
	.st19{clip-path:url(#SVGID_3_);fill:url(#SVGID_22_);}
	.st20{clip-path:url(#SVGID_3_);fill:url(#SVGID_23_);}
	.st21{clip-path:url(#SVGID_3_);fill:url(#SVGID_24_);}
	.st22{clip-path:url(#SVGID_3_);fill:url(#SVGID_25_);}
	.st23{clip-path:url(#SVGID_3_);fill:url(#SVGID_26_);}
	.st24{clip-path:url(#SVGID_3_);fill:url(#SVGID_27_);}
	.st25{clip-path:url(#SVGID_3_);fill:url(#SVGID_28_);}
	.st26{clip-path:url(#SVGID_3_);fill:url(#SVGID_29_);}
	.st27{clip-path:url(#SVGID_3_);fill:url(#SVGID_30_);}
	.st28{clip-path:url(#SVGID_3_);fill:url(#SVGID_31_);}
	.st29{clip-path:url(#SVGID_3_);fill:url(#SVGID_32_);}
	.st30{clip-path:url(#SVGID_3_);fill:url(#SVGID_33_);}
	.st31{clip-path:url(#SVGID_3_);fill:url(#SVGID_34_);}
	.st32{clip-path:url(#SVGID_3_);fill:url(#SVGID_35_);}
	.st33{clip-path:url(#SVGID_3_);fill:url(#SVGID_36_);}
	.st34{clip-path:url(#SVGID_3_);fill:url(#SVGID_37_);}
	.st35{clip-path:url(#SVGID_3_);fill:url(#SVGID_38_);}
	.st36{clip-path:url(#SVGID_3_);fill:url(#SVGID_39_);}
	.st37{clip-path:url(#SVGID_3_);fill:url(#SVGID_40_);}
	.st38{clip-path:url(#SVGID_3_);fill:url(#SVGID_41_);}
	.st39{clip-path:url(#SVGID_3_);fill:url(#SVGID_42_);}
	.st40{clip-path:url(#SVGID_3_);fill:url(#SVGID_43_);}
	.st41{clip-path:url(#SVGID_3_);fill:url(#SVGID_44_);}
	.st42{clip-path:url(#SVGID_3_);fill:url(#SVGID_45_);}
	.st43{clip-path:url(#SVGID_3_);fill:url(#SVGID_46_);}
	.st44{clip-path:url(#SVGID_3_);fill:url(#SVGID_47_);}
	.st45{clip-path:url(#SVGID_3_);fill:url(#SVGID_48_);}
	.st46{clip-path:url(#SVGID_3_);fill:url(#SVGID_49_);}
	.st47{clip-path:url(#SVGID_52_);fill:url(#SVGID_53_);}
	.st48{clip-path:url(#SVGID_52_);fill:url(#SVGID_54_);}
	.st49{clip-path:url(#SVGID_52_);fill:url(#SVGID_55_);}
	.st50{clip-path:url(#SVGID_52_);fill:url(#SVGID_56_);}
	.st51{clip-path:url(#SVGID_52_);fill:url(#SVGID_57_);}
	.st52{clip-path:url(#SVGID_52_);fill:url(#SVGID_58_);}
	.st53{clip-path:url(#SVGID_52_);fill:url(#SVGID_59_);}
	.st54{clip-path:url(#SVGID_52_);fill:url(#SVGID_60_);}
	.st55{clip-path:url(#SVGID_52_);fill:url(#SVGID_61_);}
	.st56{clip-path:url(#SVGID_52_);fill:url(#SVGID_62_);}
	.st57{clip-path:url(#SVGID_52_);fill:url(#SVGID_63_);}
	.st58{clip-path:url(#SVGID_52_);fill:url(#SVGID_64_);}
	.st59{clip-path:url(#SVGID_52_);fill:url(#SVGID_65_);}
	.st60{clip-path:url(#SVGID_52_);fill:url(#SVGID_66_);}
	.st61{clip-path:url(#SVGID_52_);fill:url(#SVGID_67_);}
	.st62{clip-path:url(#SVGID_52_);fill:url(#SVGID_68_);}
	.st63{clip-path:url(#SVGID_52_);fill:url(#SVGID_69_);}
	.st64{clip-path:url(#SVGID_52_);fill:url(#SVGID_70_);}
	.st65{clip-path:url(#SVGID_52_);fill:url(#SVGID_71_);}
	.st66{clip-path:url(#SVGID_52_);fill:url(#SVGID_72_);}
	.st67{clip-path:url(#SVGID_52_);fill:url(#SVGID_73_);}
	.st68{clip-path:url(#SVGID_52_);fill:url(#SVGID_74_);}
	.st69{clip-path:url(#SVGID_52_);fill:url(#SVGID_75_);}
	.st70{clip-path:url(#SVGID_52_);fill:url(#SVGID_76_);}
	.st71{clip-path:url(#SVGID_52_);fill:url(#SVGID_77_);}
	.st72{clip-path:url(#SVGID_52_);fill:url(#SVGID_78_);}
	.st73{clip-path:url(#SVGID_52_);fill:url(#SVGID_79_);}
	.st74{clip-path:url(#SVGID_52_);fill:url(#SVGID_80_);}
	.st75{clip-path:url(#SVGID_52_);fill:url(#SVGID_81_);}
	.st76{clip-path:url(#SVGID_52_);fill:url(#SVGID_82_);}
	.st77{clip-path:url(#SVGID_52_);fill:url(#SVGID_83_);}
	.st78{clip-path:url(#SVGID_52_);fill:url(#SVGID_84_);}
	.st79{clip-path:url(#SVGID_52_);fill:url(#SVGID_85_);}
	.st80{clip-path:url(#SVGID_52_);fill:url(#SVGID_86_);}
	.st81{clip-path:url(#SVGID_52_);fill:url(#SVGID_87_);}
	.st82{clip-path:url(#SVGID_52_);fill:url(#SVGID_88_);}
	.st83{clip-path:url(#SVGID_52_);fill:url(#SVGID_89_);}
	.st84{clip-path:url(#SVGID_52_);fill:url(#SVGID_90_);}
	.st85{clip-path:url(#SVGID_52_);fill:url(#SVGID_91_);}
	.st86{clip-path:url(#SVGID_52_);fill:url(#SVGID_92_);}
	.st87{clip-path:url(#SVGID_52_);fill:url(#SVGID_93_);}
	.st88{clip-path:url(#SVGID_52_);fill:url(#SVGID_94_);}
</style>
<circle class="st0" cx="32.5" cy="32.5" r="32.5"/>
<g>
	<g>
		<g>
			<defs>
				<path id="SVGID_1_" d="M32.4,15.9c-8.5,0-8,3.7-8,3.7l0,3.8h8.1v1.1H21.2c0,0-5.4-0.6-5.4,8c0,8.6,4.7,8.3,4.7,8.3h2.8v-4
					c0,0-0.2-4.7,4.7-4.7h8c0,0,4.5,0.1,4.5-4.4v-7.3C40.6,20.3,41.3,15.9,32.4,15.9z M27.9,18.4c0.8,0,1.5,0.7,1.5,1.5c0,0,0,0,0,0
					c0,0.8-0.7,1.5-1.5,1.5c0,0,0,0,0,0c-0.8,0-1.5-0.7-1.5-1.5c0,0,0,0,0,0C26.5,19.1,27.1,18.4,27.9,18.4
					C27.9,18.4,27.9,18.4,27.9,18.4z"/>
			</defs>
			<linearGradient id="SVGID_2_" gradientUnits="userSpaceOnUse" x1="15.7701" y1="28.2911" x2="40.5828" y2="28.2911">
				<stop  offset="0" style="stop-color:#04579B"/>
				<stop  offset="1" style="stop-color:#E0CA03"/>
			</linearGradient>
			<use xlink:href="#SVGID_1_"  style="overflow:visible;fill:url(#SVGID_2_);"/>
			<clipPath id="SVGID_3_">
				<use xlink:href="#SVGID_1_"  style="overflow:visible;"/>
			</clipPath>
			<linearGradient id="SVGID_4_" gradientUnits="userSpaceOnUse" x1="26.4509" y1="18.5516" x2="26.706" y2="18.5516">
				<stop  offset="0" style="stop-color:#04579B"/>
				<stop  offset="1" style="stop-color:#E0CA03"/>
			</linearGradient>
			<polygon class="st1" points="26.7,18.4 26.5,18.7 26.5,18.4 			"/>
			<linearGradient id="SVGID_5_" gradientUnits="userSpaceOnUse" x1="26.4509" y1="19.0122" x2="27.618" y2="19.0122">
				<stop  offset="0" style="stop-color:#04579B"/>
				<stop  offset="1" style="stop-color:#E0CA03"/>
			</linearGradient>
			<polygon class="st2" points="27.6,18.4 26.5,19.6 26.5,18.7 26.7,18.4 			"/>
			<linearGradient id="SVGID_6_" gradientUnits="userSpaceOnUse" x1="26.4509" y1="19.4729" x2="28.5301" y2="19.4729">
				<stop  offset="0" style="stop-color:#04579B"/>
				<stop  offset="1" style="stop-color:#E0CA03"/>
			</linearGradient>
			<polygon class="st3" points="28.5,18.4 26.5,20.5 26.5,19.6 27.6,18.4 			"/>
			<linearGradient id="SVGID_7_" gradientUnits="userSpaceOnUse" x1="26.4509" y1="19.8818" x2="29.3689" y2="19.8818">
				<stop  offset="0" style="stop-color:#04579B"/>
				<stop  offset="1" style="stop-color:#E0CA03"/>
			</linearGradient>
			<polygon class="st4" points="29.4,18.5 26.6,21.3 26.5,21.3 26.5,20.5 28.5,18.4 29.4,18.4 			"/>
			<linearGradient id="SVGID_8_" gradientUnits="userSpaceOnUse" x1="26.5533" y1="19.9188" x2="29.3689" y2="19.9188">
				<stop  offset="0" style="stop-color:#04579B"/>
				<stop  offset="1" style="stop-color:#E0CA03"/>
			</linearGradient>
			<polygon class="st5" points="29.4,19.4 27.5,21.3 26.6,21.3 29.4,18.5 			"/>
			<linearGradient id="SVGID_9_" gradientUnits="userSpaceOnUse" x1="27.4654" y1="20.3794" x2="29.3689" y2="20.3794">
				<stop  offset="0" style="stop-color:#04579B"/>
				<stop  offset="1" style="stop-color:#E0CA03"/>
			</linearGradient>
			<polygon class="st6" points="29.4,20.3 28.4,21.3 27.5,21.3 29.4,19.4 			"/>
			<linearGradient id="SVGID_10_" gradientUnits="userSpaceOnUse" x1="28.3775" y1="20.84" x2="29.3689" y2="20.84">
				<stop  offset="0" style="stop-color:#04579B"/>
				<stop  offset="1" style="stop-color:#E0CA03"/>
			</linearGradient>
			<polygon class="st7" points="29.4,21.3 29.3,21.3 28.4,21.3 29.4,20.3 			"/>
			<linearGradient id="SVGID_11_" gradientUnits="userSpaceOnUse" x1="29.2895" y1="21.3006" x2="29.3689" y2="21.3006">
				<stop  offset="0" style="stop-color:#04579B"/>
				<stop  offset="1" style="stop-color:#E0CA03"/>
			</linearGradient>
			<polygon class="st8" points="29.3,21.3 29.4,21.3 29.4,21.3 			"/>
			<linearGradient id="SVGID_12_" gradientUnits="userSpaceOnUse" x1="15.7701" y1="18.978" x2="21.9496" y2="18.978">
				<stop  offset="0" style="stop-color:#04579B"/>
				<stop  offset="1" style="stop-color:#E0CA03"/>
			</linearGradient>
			<polygon class="st9" points="21.9,15.9 15.8,22.1 15.8,15.9 			"/>
			<linearGradient id="SVGID_13_" gradientUnits="userSpaceOnUse" x1="15.7701" y1="19.4386" x2="22.8617" y2="19.4386">
				<stop  offset="0" style="stop-color:#04579B"/>
				<stop  offset="1" style="stop-color:#E0CA03"/>
			</linearGradient>
			<polygon class="st10" points="22.9,15.9 15.8,23 15.8,22.1 21.9,15.9 			"/>
			<linearGradient id="SVGID_14_" gradientUnits="userSpaceOnUse" x1="15.7701" y1="19.8993" x2="23.7737" y2="19.8993">
				<stop  offset="0" style="stop-color:#04579B"/>
				<stop  offset="1" style="stop-color:#E0CA03"/>
			</linearGradient>
			<polygon class="st11" points="23.8,15.9 15.8,23.9 15.8,23 22.9,15.9 			"/>
			<linearGradient id="SVGID_15_" gradientUnits="userSpaceOnUse" x1="15.7701" y1="20.3599" x2="24.6858" y2="20.3599">
				<stop  offset="0" style="stop-color:#04579B"/>
				<stop  offset="1" style="stop-color:#E0CA03"/>
			</linearGradient>
			<polygon class="st12" points="24.7,15.9 15.8,24.9 15.8,23.9 23.8,15.9 			"/>
			<linearGradient id="SVGID_16_" gradientUnits="userSpaceOnUse" x1="15.7701" y1="20.8205" x2="25.5978" y2="20.8205">
				<stop  offset="0" style="stop-color:#04579B"/>
				<stop  offset="1" style="stop-color:#E0CA03"/>
			</linearGradient>
			<polygon class="st13" points="25.6,15.9 15.8,25.8 15.8,24.9 24.7,15.9 			"/>
			<linearGradient id="SVGID_17_" gradientUnits="userSpaceOnUse" x1="15.7701" y1="21.2811" x2="26.5099" y2="21.2811">
				<stop  offset="0" style="stop-color:#04579B"/>
				<stop  offset="1" style="stop-color:#E0CA03"/>
			</linearGradient>
			<polygon class="st14" points="26.5,15.9 15.8,26.7 15.8,25.8 25.6,15.9 			"/>
			<linearGradient id="SVGID_18_" gradientUnits="userSpaceOnUse" x1="15.7701" y1="21.7417" x2="27.4219" y2="21.7417">
				<stop  offset="0" style="stop-color:#04579B"/>
				<stop  offset="1" style="stop-color:#E0CA03"/>
			</linearGradient>
			<polygon class="st15" points="27.4,15.9 15.8,27.6 15.8,26.7 26.5,15.9 			"/>
			<linearGradient id="SVGID_19_" gradientUnits="userSpaceOnUse" x1="15.7701" y1="22.2024" x2="28.334" y2="22.2024">
				<stop  offset="0" style="stop-color:#04579B"/>
				<stop  offset="1" style="stop-color:#E0CA03"/>
			</linearGradient>
			<polygon class="st16" points="28.3,15.9 15.8,28.5 15.8,27.6 27.4,15.9 			"/>
			<linearGradient id="SVGID_20_" gradientUnits="userSpaceOnUse" x1="15.7701" y1="22.663" x2="29.246" y2="22.663">
				<stop  offset="0" style="stop-color:#04579B"/>
				<stop  offset="1" style="stop-color:#E0CA03"/>
			</linearGradient>
			<polygon class="st17" points="29.2,15.9 15.8,29.5 15.8,28.5 28.3,15.9 			"/>
			<linearGradient id="SVGID_21_" gradientUnits="userSpaceOnUse" x1="15.7701" y1="23.1236" x2="30.1581" y2="23.1236">
				<stop  offset="0" style="stop-color:#04579B"/>
				<stop  offset="1" style="stop-color:#E0CA03"/>
			</linearGradient>
			<polygon class="st18" points="30.2,15.9 15.8,30.4 15.8,29.5 29.2,15.9 			"/>
			<linearGradient id="SVGID_22_" gradientUnits="userSpaceOnUse" x1="15.7701" y1="23.5842" x2="31.0702" y2="23.5842">
				<stop  offset="0" style="stop-color:#04579B"/>
				<stop  offset="1" style="stop-color:#E0CA03"/>
			</linearGradient>
			<polygon class="st19" points="31.1,15.9 15.8,31.3 15.8,30.4 30.2,15.9 			"/>
			<linearGradient id="SVGID_23_" gradientUnits="userSpaceOnUse" x1="15.7701" y1="24.0449" x2="31.9822" y2="24.0449">
				<stop  offset="0" style="stop-color:#04579B"/>
				<stop  offset="1" style="stop-color:#E0CA03"/>
			</linearGradient>
			<polygon class="st20" points="32,15.9 15.8,32.2 15.8,31.3 31.1,15.9 			"/>
			<linearGradient id="SVGID_24_" gradientUnits="userSpaceOnUse" x1="15.7701" y1="24.5055" x2="32.8943" y2="24.5055">
				<stop  offset="0" style="stop-color:#04579B"/>
				<stop  offset="1" style="stop-color:#E0CA03"/>
			</linearGradient>
			<polygon class="st21" points="32.9,15.9 15.8,33.2 15.8,32.2 32,15.9 			"/>
			<linearGradient id="SVGID_25_" gradientUnits="userSpaceOnUse" x1="15.7701" y1="24.9661" x2="33.8063" y2="24.9661">
				<stop  offset="0" style="stop-color:#04579B"/>
				<stop  offset="1" style="stop-color:#E0CA03"/>
			</linearGradient>
			<polygon class="st22" points="33.8,15.9 15.8,34.1 15.8,33.2 32.9,15.9 			"/>
			<linearGradient id="SVGID_26_" gradientUnits="userSpaceOnUse" x1="15.7701" y1="25.4267" x2="34.7184" y2="25.4267">
				<stop  offset="0" style="stop-color:#04579B"/>
				<stop  offset="1" style="stop-color:#E0CA03"/>
			</linearGradient>
			<polygon class="st23" points="34.7,15.9 15.8,35 15.8,34.1 33.8,15.9 			"/>
			<linearGradient id="SVGID_27_" gradientUnits="userSpaceOnUse" x1="15.7701" y1="25.8874" x2="35.6304" y2="25.8874">
				<stop  offset="0" style="stop-color:#04579B"/>
				<stop  offset="1" style="stop-color:#E0CA03"/>
			</linearGradient>
			<polygon class="st24" points="35.6,15.9 15.8,35.9 15.8,35 34.7,15.9 			"/>
			<linearGradient id="SVGID_28_" gradientUnits="userSpaceOnUse" x1="15.7701" y1="26.348" x2="36.5425" y2="26.348">
				<stop  offset="0" style="stop-color:#04579B"/>
				<stop  offset="1" style="stop-color:#E0CA03"/>
			</linearGradient>
			<polygon class="st25" points="36.5,15.9 15.8,36.8 15.8,35.9 35.6,15.9 			"/>
			<linearGradient id="SVGID_29_" gradientUnits="userSpaceOnUse" x1="15.7701" y1="26.8086" x2="37.4546" y2="26.8086">
				<stop  offset="0" style="stop-color:#04579B"/>
				<stop  offset="1" style="stop-color:#E0CA03"/>
			</linearGradient>
			<polygon class="st26" points="37.5,15.9 15.8,37.8 15.8,36.8 36.5,15.9 			"/>
			<linearGradient id="SVGID_30_" gradientUnits="userSpaceOnUse" x1="15.7701" y1="27.2692" x2="38.3666" y2="27.2692">
				<stop  offset="0" style="stop-color:#04579B"/>
				<stop  offset="1" style="stop-color:#E0CA03"/>
			</linearGradient>
			<polygon class="st27" points="38.4,15.9 15.8,38.7 15.8,37.8 37.5,15.9 			"/>
			<linearGradient id="SVGID_31_" gradientUnits="userSpaceOnUse" x1="15.7701" y1="27.7299" x2="39.2787" y2="27.7299">
				<stop  offset="0" style="stop-color:#04579B"/>
				<stop  offset="1" style="stop-color:#E0CA03"/>
			</linearGradient>
			<polygon class="st28" points="39.3,15.9 15.8,39.6 15.8,38.7 38.4,15.9 			"/>
			<linearGradient id="SVGID_32_" gradientUnits="userSpaceOnUse" x1="15.7701" y1="28.1905" x2="40.1907" y2="28.1905">
				<stop  offset="0" style="stop-color:#04579B"/>
				<stop  offset="1" style="stop-color:#E0CA03"/>
			</linearGradient>
			<polygon class="st29" points="40.2,15.9 15.8,40.5 15.8,39.6 39.3,15.9 			"/>
			<linearGradient id="SVGID_33_" gradientUnits="userSpaceOnUse" x1="15.7701" y1="28.4424" x2="41.1028" y2="28.4424">
				<stop  offset="0" style="stop-color:#04579B"/>
				<stop  offset="1" style="stop-color:#E0CA03"/>
			</linearGradient>
			<polygon class="st30" points="41.1,15.9 16.2,41 15.8,41 15.8,40.5 40.2,15.9 			"/>
			<linearGradient id="SVGID_34_" gradientUnits="userSpaceOnUse" x1="16.1833" y1="28.4424" x2="41.2565" y2="28.4424">
				<stop  offset="0" style="stop-color:#04579B"/>
				<stop  offset="1" style="stop-color:#E0CA03"/>
			</linearGradient>
			<polygon class="st31" points="41.3,16.6 17.1,41 16.2,41 41.1,15.9 41.3,15.9 			"/>
			<linearGradient id="SVGID_35_" gradientUnits="userSpaceOnUse" x1="17.0954" y1="28.8254" x2="41.2565" y2="28.8254">
				<stop  offset="0" style="stop-color:#04579B"/>
				<stop  offset="1" style="stop-color:#E0CA03"/>
			</linearGradient>
			<polygon class="st32" points="41.3,17.5 18,41 17.1,41 41.3,16.6 			"/>
			<linearGradient id="SVGID_36_" gradientUnits="userSpaceOnUse" x1="18.0074" y1="29.2861" x2="41.2565" y2="29.2861">
				<stop  offset="0" style="stop-color:#04579B"/>
				<stop  offset="1" style="stop-color:#E0CA03"/>
			</linearGradient>
			<polygon class="st33" points="41.3,18.5 18.9,41 18,41 41.3,17.5 			"/>
			<linearGradient id="SVGID_37_" gradientUnits="userSpaceOnUse" x1="18.9195" y1="29.7467" x2="41.2565" y2="29.7467">
				<stop  offset="0" style="stop-color:#04579B"/>
				<stop  offset="1" style="stop-color:#E0CA03"/>
			</linearGradient>
			<polygon class="st34" points="41.3,19.4 19.8,41 18.9,41 41.3,18.5 			"/>
			<linearGradient id="SVGID_38_" gradientUnits="userSpaceOnUse" x1="19.8315" y1="30.2073" x2="41.2565" y2="30.2073">
				<stop  offset="0" style="stop-color:#04579B"/>
				<stop  offset="1" style="stop-color:#E0CA03"/>
			</linearGradient>
			<polygon class="st35" points="41.3,20.3 20.7,41 19.8,41 41.3,19.4 			"/>
			<linearGradient id="SVGID_39_" gradientUnits="userSpaceOnUse" x1="20.7436" y1="30.6679" x2="41.2565" y2="30.6679">
				<stop  offset="0" style="stop-color:#04579B"/>
				<stop  offset="1" style="stop-color:#E0CA03"/>
			</linearGradient>
			<polygon class="st36" points="41.3,21.2 21.7,41 20.7,41 41.3,20.3 			"/>
			<linearGradient id="SVGID_40_" gradientUnits="userSpaceOnUse" x1="21.6557" y1="31.1285" x2="41.2565" y2="31.1285">
				<stop  offset="0" style="stop-color:#04579B"/>
				<stop  offset="1" style="stop-color:#E0CA03"/>
			</linearGradient>
			<polygon class="st37" points="41.3,22.2 22.6,41 21.7,41 41.3,21.2 			"/>
			<linearGradient id="SVGID_41_" gradientUnits="userSpaceOnUse" x1="22.5677" y1="31.5892" x2="41.2565" y2="31.5892">
				<stop  offset="0" style="stop-color:#04579B"/>
				<stop  offset="1" style="stop-color:#E0CA03"/>
			</linearGradient>
			<polygon class="st38" points="41.3,23.1 23.5,41 22.6,41 41.3,22.2 			"/>
			<linearGradient id="SVGID_42_" gradientUnits="userSpaceOnUse" x1="23.4798" y1="32.0498" x2="41.2565" y2="32.0498">
				<stop  offset="0" style="stop-color:#04579B"/>
				<stop  offset="1" style="stop-color:#E0CA03"/>
			</linearGradient>
			<polygon class="st39" points="41.3,24 24.4,41 23.5,41 41.3,23.1 			"/>
			<linearGradient id="SVGID_43_" gradientUnits="userSpaceOnUse" x1="24.3918" y1="32.5104" x2="41.2565" y2="32.5104">
				<stop  offset="0" style="stop-color:#04579B"/>
				<stop  offset="1" style="stop-color:#E0CA03"/>
			</linearGradient>
			<polygon class="st40" points="41.3,24.9 25.3,41 24.4,41 41.3,24 			"/>
			<linearGradient id="SVGID_44_" gradientUnits="userSpaceOnUse" x1="25.3039" y1="32.971" x2="41.2565" y2="32.971">
				<stop  offset="0" style="stop-color:#04579B"/>
				<stop  offset="1" style="stop-color:#E0CA03"/>
			</linearGradient>
			<polygon class="st41" points="41.3,25.8 26.2,41 25.3,41 41.3,24.9 			"/>
			<linearGradient id="SVGID_45_" gradientUnits="userSpaceOnUse" x1="26.2159" y1="33.4317" x2="41.2565" y2="33.4317">
				<stop  offset="0" style="stop-color:#04579B"/>
				<stop  offset="1" style="stop-color:#E0CA03"/>
			</linearGradient>
			<polygon class="st42" points="41.3,26.8 27.1,41 26.2,41 41.3,25.8 			"/>
			<linearGradient id="SVGID_46_" gradientUnits="userSpaceOnUse" x1="27.128" y1="33.8923" x2="41.2565" y2="33.8923">
				<stop  offset="0" style="stop-color:#04579B"/>
				<stop  offset="1" style="stop-color:#E0CA03"/>
			</linearGradient>
			<polygon class="st43" points="41.3,27.7 28,41 27.1,41 41.3,26.8 			"/>
			<linearGradient id="SVGID_47_" gradientUnits="userSpaceOnUse" x1="28.0401" y1="34.3529" x2="41.2565" y2="34.3529">
				<stop  offset="0" style="stop-color:#04579B"/>
				<stop  offset="1" style="stop-color:#E0CA03"/>
			</linearGradient>
			<polygon class="st44" points="41.3,28.6 29,41 28,41 41.3,27.7 			"/>
			<linearGradient id="SVGID_48_" gradientUnits="userSpaceOnUse" x1="28.9521" y1="34.8135" x2="41.2565" y2="34.8135">
				<stop  offset="0" style="stop-color:#04579B"/>
				<stop  offset="1" style="stop-color:#E0CA03"/>
			</linearGradient>
			<polygon class="st45" points="41.3,29.5 29.9,41 29,41 41.3,28.6 			"/>
			<linearGradient id="SVGID_49_" gradientUnits="userSpaceOnUse" x1="29.8642" y1="35.2742" x2="41.2565" y2="35.2742">
				<stop  offset="0" style="stop-color:#04579B"/>
				<stop  offset="1" style="stop-color:#E0CA03"/>
			</linearGradient>
			<polygon class="st46" points="29.9,41 41.3,29.5 41.3,41 			"/>
		</g>
	</g>
	<g>
		<g>
			<defs>
				<path id="SVGID_50_" d="M32.6,49.1c8.5,0,8-3.7,8-3.7l0-3.8h-8.1v-1.1h11.3c0,0,5.4,0.6,5.4-8c0-8.6-4.7-8.3-4.7-8.3h-2.8v4
					c0,0,0.2,4.7-4.7,4.7h-8c0,0-4.5-0.1-4.5,4.4v7.3C24.4,44.7,23.7,49.1,32.6,49.1L32.6,49.1z M37.1,46.6c-0.8,0-1.5-0.7-1.5-1.5
					c0,0,0,0,0,0c0-0.8,0.7-1.5,1.5-1.5c0,0,0,0,0,0c0.8,0,1.5,0.7,1.5,1.5c0,0,0,0,0,0C38.5,45.9,37.9,46.6,37.1,46.6
					C37.1,46.6,37.1,46.6,37.1,46.6L37.1,46.6z"/>
			</defs>
			<linearGradient id="SVGID_51_" gradientUnits="userSpaceOnUse" x1="24.4173" y1="36.7089" x2="49.2299" y2="36.7089">
				<stop  offset="0" style="stop-color:#04579B"/>
				<stop  offset="1" style="stop-color:#E0CA03"/>
			</linearGradient>
			<use xlink:href="#SVGID_50_"  style="overflow:visible;fill:url(#SVGID_51_);"/>
			<clipPath id="SVGID_52_">
				<use xlink:href="#SVGID_50_"  style="overflow:visible;"/>
			</clipPath>
			<linearGradient id="SVGID_53_" gradientUnits="userSpaceOnUse" x1="35.6312" y1="43.9141" x2="36.1127" y2="43.9141">
				<stop  offset="0" style="stop-color:#04579B"/>
				<stop  offset="1" style="stop-color:#E0CA03"/>
			</linearGradient>
			<polygon class="st47" points="36.1,43.7 35.6,44.2 35.6,43.7 			"/>
			<linearGradient id="SVGID_54_" gradientUnits="userSpaceOnUse" x1="35.6312" y1="44.4545" x2="37.1345" y2="44.4545">
				<stop  offset="0" style="stop-color:#04579B"/>
				<stop  offset="1" style="stop-color:#E0CA03"/>
			</linearGradient>
			<polygon class="st48" points="37.1,43.7 35.6,45.2 35.6,44.2 36.1,43.7 			"/>
			<linearGradient id="SVGID_55_" gradientUnits="userSpaceOnUse" x1="35.6312" y1="44.995" x2="38.1563" y2="44.995">
				<stop  offset="0" style="stop-color:#04579B"/>
				<stop  offset="1" style="stop-color:#E0CA03"/>
			</linearGradient>
			<polygon class="st49" points="38.2,43.7 35.6,46.3 35.6,45.2 37.1,43.7 			"/>
			<linearGradient id="SVGID_56_" gradientUnits="userSpaceOnUse" x1="35.6312" y1="45.1184" x2="38.5492" y2="45.1184">
				<stop  offset="0" style="stop-color:#04579B"/>
				<stop  offset="1" style="stop-color:#E0CA03"/>
			</linearGradient>
			<polygon class="st50" points="38.5,44.3 36.4,46.6 35.6,46.6 35.6,46.3 38.2,43.7 38.5,43.7 			"/>
			<linearGradient id="SVGID_57_" gradientUnits="userSpaceOnUse" x1="36.4196" y1="45.4511" x2="38.5492" y2="45.4511">
				<stop  offset="0" style="stop-color:#04579B"/>
				<stop  offset="1" style="stop-color:#E0CA03"/>
			</linearGradient>
			<polygon class="st51" points="38.5,45.4 37.4,46.6 36.4,46.6 38.5,44.3 			"/>
			<linearGradient id="SVGID_58_" gradientUnits="userSpaceOnUse" x1="37.4414" y1="45.9915" x2="38.5492" y2="45.9915">
				<stop  offset="0" style="stop-color:#04579B"/>
				<stop  offset="1" style="stop-color:#E0CA03"/>
			</linearGradient>
			<polygon class="st52" points="38.5,46.5 38.5,46.6 37.4,46.6 38.5,45.4 			"/>
			<linearGradient id="SVGID_59_" gradientUnits="userSpaceOnUse" x1="38.4632" y1="46.532" x2="38.5492" y2="46.532">
				<stop  offset="0" style="stop-color:#04579B"/>
				<stop  offset="1" style="stop-color:#E0CA03"/>
			</linearGradient>
			<polygon class="st53" points="38.5,46.6 38.5,46.5 38.5,46.6 			"/>
			<linearGradient id="SVGID_60_" gradientUnits="userSpaceOnUse" x1="23.7437" y1="29.549" x2="34.2873" y2="29.549">
				<stop  offset="0" style="stop-color:#04579B"/>
				<stop  offset="1" style="stop-color:#E0CA03"/>
			</linearGradient>
			<polygon class="st54" points="34.3,24 23.7,35.1 23.7,24 			"/>
			<linearGradient id="SVGID_61_" gradientUnits="userSpaceOnUse" x1="23.7437" y1="30.0894" x2="35.3091" y2="30.0894">
				<stop  offset="0" style="stop-color:#04579B"/>
				<stop  offset="1" style="stop-color:#E0CA03"/>
			</linearGradient>
			<polygon class="st55" points="35.3,24 23.7,36.2 23.7,35.1 34.3,24 			"/>
			<linearGradient id="SVGID_62_" gradientUnits="userSpaceOnUse" x1="23.7437" y1="30.6299" x2="36.3309" y2="30.6299">
				<stop  offset="0" style="stop-color:#04579B"/>
				<stop  offset="1" style="stop-color:#E0CA03"/>
			</linearGradient>
			<polygon class="st56" points="36.3,24 23.7,37.3 23.7,36.2 35.3,24 			"/>
			<linearGradient id="SVGID_63_" gradientUnits="userSpaceOnUse" x1="23.7437" y1="31.1703" x2="37.3527" y2="31.1703">
				<stop  offset="0" style="stop-color:#04579B"/>
				<stop  offset="1" style="stop-color:#E0CA03"/>
			</linearGradient>
			<polygon class="st57" points="37.4,24 23.7,38.4 23.7,37.3 36.3,24 			"/>
			<linearGradient id="SVGID_64_" gradientUnits="userSpaceOnUse" x1="23.7437" y1="31.7108" x2="38.3745" y2="31.7108">
				<stop  offset="0" style="stop-color:#04579B"/>
				<stop  offset="1" style="stop-color:#E0CA03"/>
			</linearGradient>
			<polygon class="st58" points="38.4,24 23.7,39.4 23.7,38.4 37.4,24 			"/>
			<linearGradient id="SVGID_65_" gradientUnits="userSpaceOnUse" x1="23.7437" y1="32.2512" x2="39.3964" y2="32.2512">
				<stop  offset="0" style="stop-color:#04579B"/>
				<stop  offset="1" style="stop-color:#E0CA03"/>
			</linearGradient>
			<polygon class="st59" points="39.4,24 23.7,40.5 23.7,39.4 38.4,24 			"/>
			<linearGradient id="SVGID_66_" gradientUnits="userSpaceOnUse" x1="23.7437" y1="32.7917" x2="40.4182" y2="32.7917">
				<stop  offset="0" style="stop-color:#04579B"/>
				<stop  offset="1" style="stop-color:#E0CA03"/>
			</linearGradient>
			<polygon class="st60" points="40.4,24 23.7,41.6 23.7,40.5 39.4,24 			"/>
			<linearGradient id="SVGID_67_" gradientUnits="userSpaceOnUse" x1="23.7437" y1="33.3321" x2="41.44" y2="33.3321">
				<stop  offset="0" style="stop-color:#04579B"/>
				<stop  offset="1" style="stop-color:#E0CA03"/>
			</linearGradient>
			<polygon class="st61" points="41.4,24 23.7,42.7 23.7,41.6 40.4,24 			"/>
			<linearGradient id="SVGID_68_" gradientUnits="userSpaceOnUse" x1="23.7437" y1="33.8726" x2="42.4618" y2="33.8726">
				<stop  offset="0" style="stop-color:#04579B"/>
				<stop  offset="1" style="stop-color:#E0CA03"/>
			</linearGradient>
			<polygon class="st62" points="42.5,24 23.7,43.8 23.7,42.7 41.4,24 			"/>
			<linearGradient id="SVGID_69_" gradientUnits="userSpaceOnUse" x1="23.7437" y1="34.413" x2="43.4836" y2="34.413">
				<stop  offset="0" style="stop-color:#04579B"/>
				<stop  offset="1" style="stop-color:#E0CA03"/>
			</linearGradient>
			<polygon class="st63" points="43.5,24 23.7,44.9 23.7,43.8 42.5,24 			"/>
			<linearGradient id="SVGID_70_" gradientUnits="userSpaceOnUse" x1="23.7437" y1="34.9535" x2="44.5054" y2="34.9535">
				<stop  offset="0" style="stop-color:#04579B"/>
				<stop  offset="1" style="stop-color:#E0CA03"/>
			</linearGradient>
			<polygon class="st64" points="44.5,24 23.7,45.9 23.7,44.9 43.5,24 			"/>
			<linearGradient id="SVGID_71_" gradientUnits="userSpaceOnUse" x1="23.7437" y1="35.4939" x2="45.5272" y2="35.4939">
				<stop  offset="0" style="stop-color:#04579B"/>
				<stop  offset="1" style="stop-color:#E0CA03"/>
			</linearGradient>
			<polygon class="st65" points="45.5,24 23.7,47 23.7,45.9 44.5,24 			"/>
			<linearGradient id="SVGID_72_" gradientUnits="userSpaceOnUse" x1="23.7437" y1="36.0344" x2="46.549" y2="36.0344">
				<stop  offset="0" style="stop-color:#04579B"/>
				<stop  offset="1" style="stop-color:#E0CA03"/>
			</linearGradient>
			<polygon class="st66" points="46.5,24 23.7,48.1 23.7,47 45.5,24 			"/>
			<linearGradient id="SVGID_73_" gradientUnits="userSpaceOnUse" x1="23.7437" y1="36.5576" x2="47.5709" y2="36.5576">
				<stop  offset="0" style="stop-color:#04579B"/>
				<stop  offset="1" style="stop-color:#E0CA03"/>
			</linearGradient>
			<polygon class="st67" points="47.6,24 23.8,49.1 23.7,49.1 23.7,48.1 46.5,24 			"/>
			<linearGradient id="SVGID_74_" gradientUnits="userSpaceOnUse" x1="23.7763" y1="36.5576" x2="48.5927" y2="36.5576">
				<stop  offset="0" style="stop-color:#04579B"/>
				<stop  offset="1" style="stop-color:#E0CA03"/>
			</linearGradient>
			<polygon class="st68" points="48.6,24 24.8,49.1 23.8,49.1 47.6,24 			"/>
			<linearGradient id="SVGID_75_" gradientUnits="userSpaceOnUse" x1="24.7981" y1="36.5576" x2="49.2299" y2="36.5576">
				<stop  offset="0" style="stop-color:#04579B"/>
				<stop  offset="1" style="stop-color:#E0CA03"/>
			</linearGradient>
			<polygon class="st69" points="49.2,24.4 25.8,49.1 24.8,49.1 48.6,24 49.2,24 			"/>
			<linearGradient id="SVGID_76_" gradientUnits="userSpaceOnUse" x1="25.8199" y1="36.761" x2="49.2299" y2="36.761">
				<stop  offset="0" style="stop-color:#04579B"/>
				<stop  offset="1" style="stop-color:#E0CA03"/>
			</linearGradient>
			<polygon class="st70" points="49.2,25.5 26.8,49.1 25.8,49.1 49.2,24.4 			"/>
			<linearGradient id="SVGID_77_" gradientUnits="userSpaceOnUse" x1="26.8417" y1="37.3015" x2="49.2299" y2="37.3015">
				<stop  offset="0" style="stop-color:#04579B"/>
				<stop  offset="1" style="stop-color:#E0CA03"/>
			</linearGradient>
			<polygon class="st71" points="49.2,26.5 27.9,49.1 26.8,49.1 49.2,25.5 			"/>
			<linearGradient id="SVGID_78_" gradientUnits="userSpaceOnUse" x1="27.8635" y1="37.8419" x2="49.2299" y2="37.8419">
				<stop  offset="0" style="stop-color:#04579B"/>
				<stop  offset="1" style="stop-color:#E0CA03"/>
			</linearGradient>
			<polygon class="st72" points="49.2,27.6 28.9,49.1 27.9,49.1 49.2,26.5 			"/>
			<linearGradient id="SVGID_79_" gradientUnits="userSpaceOnUse" x1="28.8854" y1="38.3824" x2="49.2299" y2="38.3824">
				<stop  offset="0" style="stop-color:#04579B"/>
				<stop  offset="1" style="stop-color:#E0CA03"/>
			</linearGradient>
			<polygon class="st73" points="49.2,28.7 29.9,49.1 28.9,49.1 49.2,27.6 			"/>
			<linearGradient id="SVGID_80_" gradientUnits="userSpaceOnUse" x1="29.9072" y1="38.9228" x2="49.2299" y2="38.9228">
				<stop  offset="0" style="stop-color:#04579B"/>
				<stop  offset="1" style="stop-color:#E0CA03"/>
			</linearGradient>
			<polygon class="st74" points="49.2,29.8 30.9,49.1 29.9,49.1 49.2,28.7 			"/>
			<linearGradient id="SVGID_81_" gradientUnits="userSpaceOnUse" x1="30.929" y1="39.4633" x2="49.2299" y2="39.4633">
				<stop  offset="0" style="stop-color:#04579B"/>
				<stop  offset="1" style="stop-color:#E0CA03"/>
			</linearGradient>
			<polygon class="st75" points="49.2,30.9 32,49.1 30.9,49.1 49.2,29.8 			"/>
			<linearGradient id="SVGID_82_" gradientUnits="userSpaceOnUse" x1="31.9508" y1="40.0037" x2="49.2299" y2="40.0037">
				<stop  offset="0" style="stop-color:#04579B"/>
				<stop  offset="1" style="stop-color:#E0CA03"/>
			</linearGradient>
			<polygon class="st76" points="49.2,31.9 33,49.1 32,49.1 49.2,30.9 			"/>
			<linearGradient id="SVGID_83_" gradientUnits="userSpaceOnUse" x1="32.9726" y1="40.5442" x2="49.2299" y2="40.5442">
				<stop  offset="0" style="stop-color:#04579B"/>
				<stop  offset="1" style="stop-color:#E0CA03"/>
			</linearGradient>
			<polygon class="st77" points="49.2,33 34,49.1 33,49.1 49.2,31.9 			"/>
			<linearGradient id="SVGID_84_" gradientUnits="userSpaceOnUse" x1="33.9944" y1="41.0846" x2="49.2299" y2="41.0846">
				<stop  offset="0" style="stop-color:#04579B"/>
				<stop  offset="1" style="stop-color:#E0CA03"/>
			</linearGradient>
			<polygon class="st78" points="49.2,34.1 35,49.1 34,49.1 49.2,33 			"/>
			<linearGradient id="SVGID_85_" gradientUnits="userSpaceOnUse" x1="35.0162" y1="41.6251" x2="49.2299" y2="41.6251">
				<stop  offset="0" style="stop-color:#04579B"/>
				<stop  offset="1" style="stop-color:#E0CA03"/>
			</linearGradient>
			<polygon class="st79" points="49.2,35.2 36,49.1 35,49.1 49.2,34.1 			"/>
			<linearGradient id="SVGID_86_" gradientUnits="userSpaceOnUse" x1="36.038" y1="42.1655" x2="49.2299" y2="42.1655">
				<stop  offset="0" style="stop-color:#04579B"/>
				<stop  offset="1" style="stop-color:#E0CA03"/>
			</linearGradient>
			<polygon class="st80" points="49.2,36.3 37.1,49.1 36,49.1 49.2,35.2 			"/>
			<linearGradient id="SVGID_87_" gradientUnits="userSpaceOnUse" x1="37.0599" y1="42.706" x2="49.2299" y2="42.706">
				<stop  offset="0" style="stop-color:#04579B"/>
				<stop  offset="1" style="stop-color:#E0CA03"/>
			</linearGradient>
			<polygon class="st81" points="49.2,37.3 38.1,49.1 37.1,49.1 49.2,36.3 			"/>
			<linearGradient id="SVGID_88_" gradientUnits="userSpaceOnUse" x1="38.0817" y1="43.2464" x2="49.2299" y2="43.2464">
				<stop  offset="0" style="stop-color:#04579B"/>
				<stop  offset="1" style="stop-color:#E0CA03"/>
			</linearGradient>
			<polygon class="st82" points="49.2,38.4 39.1,49.1 38.1,49.1 49.2,37.3 			"/>
			<linearGradient id="SVGID_89_" gradientUnits="userSpaceOnUse" x1="39.1035" y1="43.7869" x2="49.2299" y2="43.7869">
				<stop  offset="0" style="stop-color:#04579B"/>
				<stop  offset="1" style="stop-color:#E0CA03"/>
			</linearGradient>
			<polygon class="st83" points="49.2,39.5 40.1,49.1 39.1,49.1 49.2,38.4 			"/>
			<linearGradient id="SVGID_90_" gradientUnits="userSpaceOnUse" x1="40.1253" y1="44.3273" x2="49.2299" y2="44.3273">
				<stop  offset="0" style="stop-color:#04579B"/>
				<stop  offset="1" style="stop-color:#E0CA03"/>
			</linearGradient>
			<polygon class="st84" points="49.2,40.6 41.1,49.1 40.1,49.1 49.2,39.5 			"/>
			<linearGradient id="SVGID_91_" gradientUnits="userSpaceOnUse" x1="41.1471" y1="44.8678" x2="49.2299" y2="44.8678">
				<stop  offset="0" style="stop-color:#04579B"/>
				<stop  offset="1" style="stop-color:#E0CA03"/>
			</linearGradient>
			<polygon class="st85" points="49.2,41.7 42.2,49.1 41.1,49.1 49.2,40.6 			"/>
			<linearGradient id="SVGID_92_" gradientUnits="userSpaceOnUse" x1="42.1689" y1="45.4082" x2="49.2299" y2="45.4082">
				<stop  offset="0" style="stop-color:#04579B"/>
				<stop  offset="1" style="stop-color:#E0CA03"/>
			</linearGradient>
			<polygon class="st86" points="49.2,42.8 43.2,49.1 42.2,49.1 49.2,41.7 			"/>
			<linearGradient id="SVGID_93_" gradientUnits="userSpaceOnUse" x1="43.1907" y1="45.9487" x2="49.2299" y2="45.9487">
				<stop  offset="0" style="stop-color:#04579B"/>
				<stop  offset="1" style="stop-color:#E0CA03"/>
			</linearGradient>
			<polygon class="st87" points="49.2,43.8 44.2,49.1 43.2,49.1 49.2,42.8 			"/>
			<linearGradient id="SVGID_94_" gradientUnits="userSpaceOnUse" x1="44.2125" y1="46.4891" x2="49.2299" y2="46.4891">
				<stop  offset="0" style="stop-color:#04579B"/>
				<stop  offset="1" style="stop-color:#E0CA03"/>
			</linearGradient>
			<polygon class="st88" points="44.2,49.1 49.2,43.8 49.2,49.1 			"/>
		</g>
	</g>
</g>
</svg>
