<?xml version="1.0" encoding="utf-8"?>
<!-- Generator: Adobe Illustrator 24.0.2, SVG Export Plug-In . SVG Version: 6.00 Build 0)  -->
<svg version="1.1" id="Layer_1" xmlns="http://www.w3.org/2000/svg" xmlns:xlink="http://www.w3.org/1999/xlink" x="0px" y="0px"
	 viewBox="0 0 26 24" style="enable-background:new 0 0 26 24;" xml:space="preserve">
<style type="text/css">
	.st0{fill:#FFFFFF;}
</style>
<g>
	<path class="st0" d="M17.4,21.5c-2.9,0-5.9,0-8.8,0c0,0.3,0,0.7,0,1c0,0.1,0,0.3,0,0.4c-0.1,0.4-0.5,0.7-0.9,0.6
		c-0.4,0-0.8-0.4-0.8-0.8c0-0.7,0-1.5,0-2.2c0-0.5,0.4-0.8,0.8-0.8c0.2,0,0.3,0,0.5,0c0.4,0,0.7-0.1,0.9-0.3
		c0.8-0.6,1.2-1.4,1.4-2.4c0.1-0.3,0-0.4-0.3-0.6c-1.2-0.6-2.1-1.5-2.8-2.6c-1.2-1.7-2-3.7-2.5-5.8C4.8,7.4,4.7,6.6,4.5,5.9
		c0-0.1-0.1-0.2-0.2-0.2c-0.7,0-1.3,0-2,0c0.1,0.6,0.2,1.2,0.4,1.7c0.5,1.6,1.4,2.9,2.5,4c0.3,0.3,0.3,0.8,0.1,1.1
		c-0.2,0.3-0.7,0.5-1,0.3c-0.1,0-0.2-0.1-0.3-0.2c-1.4-1.5-2.5-3.1-3.1-5C0.7,6.8,0.5,5.9,0.5,4.9c0-0.6,0.4-0.9,1-0.9
		C2.3,4,3.2,4,4,4c0.1,0,0.2,0,0.3,0c0-0.1,0-0.2,0.1-0.3C4.5,3.3,4.8,3,5.2,3C5.6,3.1,6,3.3,6,3.8c0.1,0.7,0.1,1.4,0.2,2.1
		c0.4,2.4,1,4.6,2.3,6.7c0.5,0.8,1,1.5,1.8,2c1.7,1.4,3.6,1.4,5.3,0c1.1-0.9,1.9-2.1,2.5-3.4c0.8-1.8,1.3-3.7,1.6-5.6
		c0.1-0.6,0.1-1.2,0.2-1.7C20,3.3,20.3,3,20.7,3c0.4,0,0.8,0.2,0.9,0.6c0,0.1,0,0.2,0.1,0.4c0.1,0,0.2,0,0.3,0c0.8,0,1.7,0,2.5,0
		c0.7,0,1,0.3,1,1c0,2.3-0.8,4.3-2.2,6.1c-0.4,0.5-0.8,1-1.3,1.5c-0.3,0.4-0.9,0.4-1.3,0.1c-0.4-0.3-0.4-0.9,0-1.3
		c1-1.1,1.9-2.3,2.5-3.8c0.2-0.6,0.4-1.3,0.5-2c-0.7,0-1.4,0-2,0c-0.1,0-0.1,0.1-0.1,0.2c-0.2,1.6-0.6,3.2-1.2,4.7
		c-0.6,1.5-1.4,2.9-2.4,4.2c-0.6,0.7-1.4,1.3-2.3,1.8c-0.1,0-0.1,0.1-0.1,0.2c0.1,1,0.5,1.8,1.2,2.5c0.4,0.3,0.7,0.5,1.2,0.5
		c1-0.1,1.3,0.4,1.3,1.2c0,0.5,0,1.1,0,1.6c0,0.6-0.4,0.9-0.9,0.9c-0.5,0-0.9-0.4-0.9-0.9C17.4,22.3,17.4,21.9,17.4,21.5z
		 M11.2,19.8c1.2,0,2.3,0,3.5,0c-0.5-0.8-0.8-1.6-1-2.5c-0.5,0-1,0-1.5,0C12.1,18.1,11.8,19,11.2,19.8z"/>
	<path class="st0" d="M13,2.1c-2.6,0-5.2,0-7.8,0c-0.6,0-1-0.5-0.9-1.1C4.3,0.7,4.6,0.4,5,0.4c0.1,0,0.1,0,0.2,0
		c5.2,0,10.4,0,15.6,0c0.1,0,0.2,0,0.3,0c0.4,0.1,0.7,0.5,0.7,0.9c0,0.5-0.4,0.8-0.9,0.8c-1.3,0-2.6,0-3.9,0
		C15.6,2.1,14.3,2.1,13,2.1z"/>
	<path class="st0" d="M15.1,11.1c-0.7-0.3-1.3-0.6-1.9-0.9c-0.1-0.1-0.2-0.1-0.4,0c-0.5,0.3-1.1,0.5-1.6,0.8c-0.1,0-0.2,0.1-0.3,0.1
		C11,10.5,11,10,11.1,9.5c0.1-0.5,0-0.9-0.4-1.3C10.3,7.9,10,7.5,9.6,7.1c0.5-0.1,0.9-0.2,1.3-0.2c0.3,0,0.5-0.1,0.8-0.1
		c0.2,0,0.3-0.1,0.3-0.2c0.3-0.6,0.6-1.2,1-1.9c0.1,0.1,0.1,0.2,0.1,0.3C13.4,5.5,13.7,6,14,6.6c0.1,0.1,0.1,0.2,0.3,0.2
		C15,6.9,15.7,7,16.4,7.1c-0.1,0.1-0.1,0.1-0.2,0.2c-0.4,0.4-0.9,0.9-1.3,1.3c-0.1,0.1-0.1,0.2-0.1,0.3c0.1,0.6,0.2,1.2,0.3,1.8
		C15.1,10.9,15.1,11,15.1,11.1z"/>
</g>
</svg>
