<?xml version="1.0" encoding="utf-8"?>
<!-- Generator: Adobe Illustrator 24.0.2, SVG Export Plug-In . SVG Version: 6.00 Build 0)  -->
<svg version="1.1" id="Capa_1" xmlns="http://www.w3.org/2000/svg" xmlns:xlink="http://www.w3.org/1999/xlink" x="0px" y="0px"
	 viewBox="0 0 43 43" style="enable-background:new 0 0 43 43;" xml:space="preserve">
<style type="text/css">
	.st0{fill:#DE5974;}
	.st1{fill:#C7495D;}
	.st2{fill:#FFE07D;}
	.st3{fill:#F0C69E;}
	.st4{fill:#E6BA94;}
	.st5{fill:#E5ECF7;}
	.st6{fill:#B9CBEA;}
	.st7{fill:#FFD064;}
</style>
<g>
	<g>
		<path class="st0" d="M1.8,15h39.5c0.7,0,1.3-1,1.3-2V1.8c0-0.7-0.6-1.3-1.3-1.3H1.8c-0.7,0-1.3,0.6-1.3,1.3V13
			C0.5,14.3,1.1,15,1.8,15L1.8,15z"/>
		<path class="st1" d="M41.2,14.3H1.8c-0.7,0-1.3-0.6-1.3-1.3v1.5c0,0.7,0.6,1.3,1.3,1.3h39.5c0.7,0,1.3-0.6,1.3-1.3V13
			C42.5,13.7,41.9,14.3,41.2,14.3z"/>
		<path class="st2" d="M37.5,6L36,5.8c-0.2,0-0.4-0.2-0.5-0.4L34.8,4c-0.3-0.5-1-0.5-1.3,0l-0.7,1.3c-0.1,0.2-0.3,0.4-0.5,0.4
			L30.8,6c-0.6,0.1-0.8,0.8-0.4,1.2l1.1,1c0.2,0.2,0.2,0.4,0.2,0.6l-0.2,1.2h5.3l-0.2-1.2c0-0.2,0-0.5,0.2-0.6l1.1-1
			C38.3,6.8,38.1,6.1,37.5,6z"/>
		<path class="st3" d="M31.2,22.7c-0.9,0-1.6,0.7-1.6,1.6v-1.1c0-0.9-0.7-1.6-1.6-1.6c-0.9,0-1.6,0.7-1.6,1.6v-1.1
			c0-0.9-0.7-1.6-1.6-1.6c-0.9,0-1.6,0.7-1.6,1.6v-7.2c0-0.9-0.7-1.6-1.6-1.6s-1.6,0.7-1.6,1.6v14.4h0l-2.6-2.9
			c-0.8-0.9-2-1.4-3.2-1.4c-0.6,0-1,0.7-0.7,1.2l2.5,4.6c0.6,1.1,1.4,2.1,2.3,2.9l2.9,2.8v0.7l4.7,0.7l4.7-0.7v-0.7
			c0,0,2.4-2.5,2.4-8.3v-3.9C32.8,23.4,32.1,22.7,31.2,22.7L31.2,22.7z"/>
		<g>
			<path class="st4" d="M21,38.8l4.7,0.7l4.7-0.7v-1.5H21V38.8z"/>
		</g>
		<path class="st2" d="M24.8,6l-1.5-0.2c-0.2,0-0.4-0.2-0.5-0.4L22.1,4c-0.3-0.5-1-0.5-1.3,0l-0.7,1.3c-0.1,0.2-0.3,0.4-0.5,0.4
			L18.2,6c-0.6,0.1-0.8,0.8-0.4,1.2l1.1,1C19,8.4,19.1,8.7,19,8.9l-0.2,1.2h5.3L24,8.9c0-0.2,0-0.5,0.2-0.6l1.1-1
			C25.7,6.8,25.4,6.1,24.8,6L24.8,6z"/>
		<path class="st2" d="M12.2,6l-1.5-0.2c-0.2,0-0.4-0.2-0.5-0.4L9.5,4c-0.3-0.5-1-0.5-1.3,0L7.5,5.4C7.4,5.6,7.2,5.7,7,5.8L5.5,6
			C4.9,6.1,4.7,6.8,5.1,7.2l1.1,1c0.2,0.2,0.2,0.4,0.2,0.6l-0.2,1.2h5.3l-0.2-1.2c0-0.2,0-0.5,0.2-0.6l1.1-1C13,6.8,12.8,6.1,12.2,6
			L12.2,6z"/>
		<path class="st5" d="M20.7,41.7h10c0.5,0,0.8-0.6,0.8-1.6v-0.6c0-0.5-0.4-0.8-0.8-0.8h-10c-0.5,0-0.8,0.4-0.8,0.8v0.6
			C19.9,41.1,20.2,41.7,20.7,41.7L20.7,41.7z"/>
		<path class="st6" d="M30.7,41h-10c-0.5,0-0.8-0.4-0.8-0.8v1.5c0,0.5,0.4,0.8,0.8,0.8h10c0.5,0,0.8-0.4,0.8-0.8v-1.5
			C31.5,40.6,31.2,41,30.7,41L30.7,41z"/>
		<g>
			<g>
				<path class="st7" d="M11.5,10.2L9.2,8.9C9,8.8,8.7,8.8,8.5,8.9l-2.3,1.2l0,0.2c-0.1,0.6,0.5,1,1.1,0.8l1.3-0.7
					c0.2-0.1,0.5-0.1,0.7,0l1.3,0.7c0.5,0.3,1.2-0.2,1.1-0.8L11.5,10.2z"/>
			</g>
		</g>
		<g>
			<g>
				<path class="st7" d="M24.2,10.2l-2.3-1.2c-0.2-0.1-0.5-0.1-0.7,0l-2.3,1.2l0,0.2c-0.1,0.6,0.5,1,1.1,0.8l1.3-0.7
					c0.2-0.1,0.5-0.1,0.7,0l1.3,0.7c0.5,0.3,1.2-0.2,1.1-0.8L24.2,10.2z"/>
			</g>
		</g>
		<g>
			<g>
				<path class="st7" d="M36.8,10.2l-2.3-1.2c-0.2-0.1-0.5-0.1-0.7,0l-2.3,1.2l0,0.2c-0.1,0.6,0.5,1,1.1,0.8l1.3-0.7
					c0.2-0.1,0.5-0.1,0.7,0l1.3,0.7c0.5,0.3,1.2-0.2,1.1-0.8L36.8,10.2z"/>
			</g>
		</g>
	</g>
</g>
</svg>
