<?xml version="1.0" encoding="utf-8"?>
<!-- Generator: Adobe Illustrator 24.0.2, SVG Export Plug-In . SVG Version: 6.00 Build 0)  -->
<svg version="1.1" xmlns="http://www.w3.org/2000/svg" xmlns:xlink="http://www.w3.org/1999/xlink" x="0px" y="0px"
	 viewBox="0 0 55 55" style="enable-background:new 0 0 55 55;" xml:space="preserve">
<style type="text/css">
	.st0{fill:url(#SVGID_1_);}
	.st1{fill:url(#SVGID_2_);}
	.st2{fill:url(#SVGID_3_);}
	.st3{fill:url(#SVGID_4_);}
</style>
<g id="Layer_2">
</g>
<g id="Layer_1">
	<g>
		<linearGradient id="SVGID_1_" gradientUnits="userSpaceOnUse" x1="36.7937" y1="54.5" x2="36.7937" y2="29.0916">
			<stop  offset="0" style="stop-color:#D4145A"/>
			<stop  offset="1" style="stop-color:#FBB03B"/>
		</linearGradient>
		<path class="st0" d="M47.3,54.5c3.9,0,7.2-3.2,7.2-7.2V29.1h-7.7c0.1,0.4,0.2,0.8,0.4,1.1c0.4,0.7,0.6,1.6,0.7,2.4
			c0.1,1.6-0.5,3.2-1.7,4.5c-1.1,1.3-2.7,1.9-4.4,2h-0.1c-1.6,0-3.2-0.6-4.3-1.8c-1.2-1.1-1.8-2.7-1.8-4.3c0-0.9,0.2-1.8,0.6-2.6
			c0.2-0.5,0.4-0.9,0.5-1.3h-7.6v9.3c0,0.2,0,0.5-0.1,0.7c-0.2,0.6-0.8,1-1.5,1c-1.6,0-2.9-0.3-4.3-1c-1.1-0.5-2.4-0.3-3.3,0.6
			c-0.6,0.6-0.9,1.3-0.9,2.1c0,0.7,0.3,1.5,1,2s1.4,0.9,2.2,0.9c0.4,0,0.8-0.1,1.2-0.3c1.1-0.6,2.5-0.9,3.8-0.9h0.3
			c0.7,0,1.3,0.4,1.5,1c0.1,0.2,0.1,0.5,0.1,0.7v9.2L47.3,54.5L47.3,54.5z"/>
		<linearGradient id="SVGID_2_" gradientUnits="userSpaceOnUse" x1="41.7404" y1="35.9695" x2="41.7404" y2="0.5">
			<stop  offset="0" style="stop-color:#D4145A"/>
			<stop  offset="1" style="stop-color:#FBB03B"/>
		</linearGradient>
		<path class="st1" d="M47.3,0.5H29.1v7.7c0.4-0.1,0.8-0.2,1.1-0.4c0.7-0.4,1.6-0.6,2.4-0.7c1.6-0.1,3.2,0.5,4.5,1.7
			c1.3,1.2,1.9,2.8,2,4.4c0,1.6-0.6,3.2-1.8,4.4c-1.8,1.8-4.7,2.3-6.9,1.3c-0.5-0.2-0.9-0.4-1.4-0.5v7.6h9.4c0.3,0,0.6,0.1,0.9,0.2
			c0.5,0.3,0.7,0.8,0.7,1.4c0,1.6-0.3,2.9-1,4.3c-0.2,0.4-0.3,0.8-0.3,1.3c0,0.8,0.3,1.5,0.9,2.1s1.4,0.8,2.1,0.9c0.7,0,1.5-0.3,2-1
			s0.9-1.4,0.9-2.2c0-0.4-0.1-0.8-0.3-1.2c-0.6-1.1-0.9-2.5-0.9-3.8v-0.3c0-0.3,0.1-0.7,0.3-1c0.3-0.4,0.8-0.6,1.3-0.6h9.4V7.7
			C54.5,3.7,51.3,0.5,47.3,0.5z"/>
		<linearGradient id="SVGID_3_" gradientUnits="userSpaceOnUse" x1="18.2063" y1="25.9084" x2="18.2063" y2="0.5">
			<stop  offset="0" style="stop-color:#D4145A"/>
			<stop  offset="1" style="stop-color:#FBB03B"/>
		</linearGradient>
		<path class="st2" d="M7.7,0.5c-4,0-7.2,3.2-7.2,7.2v18.2h7.7c-0.1-0.4-0.2-0.7-0.4-1.1c-0.4-0.7-0.6-1.6-0.7-2.4
			c-0.1-1.6,0.5-3.2,1.7-4.5c1.1-1.3,2.7-1.9,4.4-2c1.5-0.1,3.2,0.6,4.4,1.8c1.2,1.1,1.8,2.7,1.8,4.3c0,0.9-0.2,1.8-0.6,2.6
			c-0.2,0.5-0.4,0.9-0.5,1.3h7.6v-9.3c0-0.6,0.3-1.1,0.9-1.4c0.3-0.2,0.6-0.2,0.9-0.2c1.5,0,2.8,0.3,4.1,1c1.1,0.5,2.4,0.3,3.3-0.6
			c0.6-0.6,0.9-1.3,0.9-2.1c0-0.7-0.3-1.5-1-2c-0.6-0.6-1.4-0.9-2.2-0.9c-0.4,0-0.8,0.1-1.2,0.3c-1.2,0.6-2.5,0.9-3.8,0.9h-0.3
			c-0.3,0-0.6-0.1-0.8-0.2c-0.5-0.3-0.9-0.8-0.9-1.4V0.5H7.7z"/>
		<linearGradient id="SVGID_4_" gradientUnits="userSpaceOnUse" x1="13.2042" y1="54.5" x2="13.2042" y2="19.1442">
			<stop  offset="0" style="stop-color:#D4145A"/>
			<stop  offset="1" style="stop-color:#FBB03B"/>
		</linearGradient>
		<path class="st3" d="M7.7,54.5h18.2v-7.7c-0.4,0.1-0.7,0.2-1.1,0.4c-0.7,0.4-1.6,0.6-2.4,0.7c-1.6,0.1-3.2-0.5-4.5-1.7
			c-1.3-1.1-1.9-2.7-2-4.4c0-1.6,0.6-3.2,1.8-4.4c1.8-1.8,4.7-2.3,6.9-1.3c0.5,0.2,0.9,0.4,1.3,0.5v-7.6L16.5,29
			c-0.3,0.1-0.6,0-0.9-0.2c-0.5-0.3-0.7-0.9-0.7-1.4c0-1.5,0.3-2.8,1-4.1c0.2-0.4,0.3-0.8,0.3-1.3c0-0.8-0.3-1.5-0.9-2.1
			s-1.3-0.9-2.1-0.9l0,0c-0.7,0-1.5,0.3-2,1c-0.6,0.6-0.9,1.4-0.9,2.2c0,0.4,0.1,0.8,0.3,1.2c0.6,1.2,0.9,2.5,0.9,3.8v0.2
			c0,0.3-0.1,0.7-0.2,1c-0.3,0.5-0.8,0.8-1.4,0.8c-0.1,0-0.1,0-0.1,0H0.5v18.2C0.5,51.3,3.7,54.5,7.7,54.5z"/>
	</g>
</g>
</svg>
