<?xml version="1.0" encoding="utf-8"?>
<!-- Generator: Adobe Illustrator 24.0.2, SVG Export Plug-In . SVG Version: 6.00 Build 0)  -->
<svg version="1.1" id="Layer_1" xmlns="http://www.w3.org/2000/svg" xmlns:xlink="http://www.w3.org/1999/xlink" x="0px" y="0px"
	 viewBox="0 0 44 44" style="enable-background:new 0 0 44 44;" xml:space="preserve">
<style type="text/css">
	.st0{fill:url(#SVGID_1_);}
	.st1{fill:url(#SVGID_2_);}
	.st2{fill:url(#SVGID_3_);}
	.st3{fill:url(#SVGID_4_);}
	.st4{fill:url(#SVGID_5_);}
	.st5{fill:url(#SVGID_6_);}
	.st6{fill:url(#SVGID_7_);}
	.st7{fill:url(#SVGID_8_);}
	.st8{fill:url(#SVGID_9_);}
	.st9{fill:url(#SVGID_10_);}
</style>
<g>
	<linearGradient id="SVGID_1_" gradientUnits="userSpaceOnUse" x1="29.9805" y1="17.9033" x2="34.9149" y2="17.9033">
		<stop  offset="0" style="stop-color:#BC4E9C"/>
		<stop  offset="1" style="stop-color:#F80759"/>
	</linearGradient>
	<path class="st0" d="M30.8,21.3c0.3-0.1,0.5-0.4,0.5-0.7c-0.5-2.2,0.9-4.3,3.1-4.8c0.3-0.1,0.5-0.4,0.5-0.7
		c-0.1-0.3-0.4-0.5-0.7-0.5l0,0c-2.8,0.6-4.7,3.4-4.1,6.3c0.1,0.3,0.3,0.5,0.6,0.5C30.7,21.3,30.8,21.3,30.8,21.3z"/>
	<linearGradient id="SVGID_2_" gradientUnits="userSpaceOnUse" x1="9.2561" y1="16.6755" x2="10.4902" y2="16.6755">
		<stop  offset="0" style="stop-color:#BC4E9C"/>
		<stop  offset="1" style="stop-color:#F80759"/>
	</linearGradient>
	<path class="st1" d="M9.9,18.3c0.3,0,0.6-0.3,0.6-0.6v-2c0-0.3-0.3-0.6-0.6-0.6s-0.6,0.3-0.6,0.6v2C9.3,18,9.5,18.3,9.9,18.3z"/>
	<linearGradient id="SVGID_3_" gradientUnits="userSpaceOnUse" x1="4.2223" y1="11.4951" x2="7.3076" y2="11.4951">
		<stop  offset="0" style="stop-color:#BC4E9C"/>
		<stop  offset="1" style="stop-color:#F80759"/>
	</linearGradient>
	<path class="st2" d="M7.3,13.7V9.3C7.3,9,7,8.7,6.7,8.7H4.8C4.5,8.7,4.2,9,4.2,9.3v4.3c0,0.3,0.3,0.6,0.6,0.6h1.9
		C7,14.3,7.3,14,7.3,13.7z M6.1,13H5.5V10h0.6V13z"/>
	<linearGradient id="SVGID_4_" gradientUnits="userSpaceOnUse" x1="13.4783" y1="6.2499" x2="16.5637" y2="6.2499">
		<stop  offset="0" style="stop-color:#BC4E9C"/>
		<stop  offset="1" style="stop-color:#F80759"/>
	</linearGradient>
	<path class="st3" d="M16.6,8.4V4.1c0-0.3-0.3-0.6-0.6-0.6h-1.9c-0.3,0-0.6,0.3-0.6,0.6v4.3c0,0.3,0.3,0.6,0.6,0.6h1.9
		C16.3,9,16.6,8.8,16.6,8.4z M15.3,7.8h-0.6V4.7h0.6V7.8z"/>
	<linearGradient id="SVGID_5_" gradientUnits="userSpaceOnUse" x1="21.3807" y1="11.4956" x2="25.0969" y2="11.4956">
		<stop  offset="0" style="stop-color:#BC4E9C"/>
		<stop  offset="1" style="stop-color:#F80759"/>
	</linearGradient>
	<path class="st4" d="M23.7,8.8l-1.8,0.3c-0.3,0.1-0.6,0.4-0.5,0.7l0.6,3.9c0.1,0.3,0.3,0.5,0.6,0.5h0.1l1.8-0.3
		c0.3-0.1,0.6-0.4,0.5-0.7l-0.7-3.9C24.4,9,24.1,8.7,23.7,8.8z M23.2,12.9l-0.4-2.6l0.6-0.1l0.4,2.6L23.2,12.9z"/>
	<g>
		<linearGradient id="SVGID_6_" gradientUnits="userSpaceOnUse" x1="3.7818" y1="22.5191" x2="5.1569" y2="22.5191">
			<stop  offset="0" style="stop-color:#BC4E9C"/>
			<stop  offset="1" style="stop-color:#F80759"/>
		</linearGradient>
		<path class="st5" d="M3.8,21v3.1c0,0.4,0.3,0.7,0.7,0.7c0.4,0,0.7-0.3,0.7-0.7V21c0-0.4-0.3-0.7-0.7-0.7C4.1,20.3,3.8,20.6,3.8,21
			z"/>
		<linearGradient id="SVGID_7_" gradientUnits="userSpaceOnUse" x1="14.0956" y1="22.5191" x2="15.4708" y2="22.5191">
			<stop  offset="0" style="stop-color:#BC4E9C"/>
			<stop  offset="1" style="stop-color:#F80759"/>
		</linearGradient>
		<path class="st6" d="M14.1,21v3.1c0,0.4,0.3,0.7,0.7,0.7s0.7-0.3,0.7-0.7V21c0-0.4-0.3-0.7-0.7-0.7S14.1,20.6,14.1,21z"/>
		<linearGradient id="SVGID_8_" gradientUnits="userSpaceOnUse" x1="9.094947e-13" y1="23.0933" x2="1.3752" y2="23.0933">
			<stop  offset="0" style="stop-color:#BC4E9C"/>
			<stop  offset="1" style="stop-color:#F80759"/>
		</linearGradient>
		<path class="st7" d="M0.7,24.9c0.4,0,0.7-0.3,0.7-0.7V22c0-0.4-0.3-0.7-0.7-0.7S0,21.6,0,22v2.2C0,24.6,0.3,24.9,0.7,24.9z"/>
		<linearGradient id="SVGID_9_" gradientUnits="userSpaceOnUse" x1="9.094947e-13" y1="16.5026" x2="34.3658" y2="16.5026">
			<stop  offset="0" style="stop-color:#BC4E9C"/>
			<stop  offset="1" style="stop-color:#F80759"/>
		</linearGradient>
		<path class="st8" d="M0.7,33h33.3l-0.3-1.4H1.4v-2.4h32.9c0,0,0.1-0.1,0.1-0.1c-1.1-0.2-2.2-0.5-3.3-1L31,28.1l-0.3-0.2
			c-0.2-0.1-0.3-0.2-0.4-0.3c-0.2-0.1-0.3-0.2-0.4-0.3l-3.6,0.6h-2.3L20.5,7.8l6.2-1l1.1,6.6c0.4-0.5,0.8-0.9,1.2-1.3l-0.9-5.5
			c-0.1-0.4-0.3-0.7-0.6-0.9c-0.3-0.2-0.7-0.3-1-0.2l-6.2,1c-0.3,0.1-0.6,0.2-0.9,0.5V1.4c0-0.8-0.6-1.4-1.4-1.4h-6.3
			c-0.8,0-1.4,0.6-1.4,1.4v9c0.4-0.2,0.9-0.2,1.4,0v-9h6.3v26.5h-6.3V16.4c-0.4,0.2-0.9,0.2-1.4,0v11.5H9.1V7.1
			c0-0.8-0.6-1.4-1.4-1.4H1.4C0.6,5.8,0,6.4,0,7.1v12.7c0.2-0.1,0.5-0.1,0.7-0.1c0.2,0,0.5,0,0.7,0.1V7.1h6.3v20.8H1.4v-2
			C1.2,26,0.9,26,0.7,26c-0.2,0-0.5,0-0.7-0.1v2c0,0.1,0,0.3,0.1,0.4C0,28.4,0,28.5,0,28.6v3.7C0,32.7,0.3,33,0.7,33z M19.4,9.7
			l3.1,18.2h-3.1V9.7z"/>
		<linearGradient id="SVGID_10_" gradientUnits="userSpaceOnUse" x1="26.8095" y1="27.4981" x2="44" y2="27.4981">
			<stop  offset="0" style="stop-color:#BC4E9C"/>
			<stop  offset="1" style="stop-color:#F80759"/>
		</linearGradient>
		<path class="st9" d="M27,21.3c0.9,4,4.4,6.8,8.4,6.9c0.3,0,0.7,0,1-0.1l0.4,2l-1.7,0.3c-0.4,0.1-0.6,0.4-0.5,0.8l2.1,10.2
			c0.2,0.8,0.6,1.5,1.3,2c0.5,0.3,1.1,0.5,1.7,0.5c0.2,0,0.4,0,0.6-0.1c1.7-0.4,2.8-2,2.4-3.7L40.7,30c-0.1-0.4-0.4-0.6-0.8-0.5
			c0,0,0,0,0,0l-1.7,0.3l-0.4-2c0,0.2,2.7-1.3,2.9-1.5c3.8-2.9,4.4-8.3,1.5-12.1c-2.9-3.8-8.3-4.4-12.1-1.5
			C27.6,14.8,26.3,18.1,27,21.3z M39.4,30.9l1.9,9.6c0.2,0.9-0.4,1.9-1.3,2.1c-0.4,0.1-0.9,0-1.3-0.2c-0.4-0.3-0.7-0.7-0.7-1.1
			l-1.9-9.6L39.4,30.9z M31.8,13.4c3.4-2,7.9-0.9,9.9,2.6c1.4,2.4,1.3,5.4-0.2,7.7c-2.2,3.3-6.7,4.2-10,2.1
			C27.1,22.7,27.2,16,31.8,13.4z"/>
	</g>
</g>
</svg>
