<?xml version="1.0" encoding="UTF-8"?>
<svg xmlns="http://www.w3.org/2000/svg" xmlns:xlink="http://www.w3.org/1999/xlink" width="47pt" height="47pt" viewBox="0 0 47 47" version="1.1">
<defs>
<clipPath id="clip1">
  <path d="M 1 29 L 46 29 L 46 46 L 1 46 Z M 1 29 "/>
</clipPath>
<clipPath id="clip2">
  <path d="M 46 23.5 C 46 35.925781 35.925781 46 23.5 46 C 11.074219 46 1 35.925781 1 23.5 C 1 11.074219 11.074219 1 23.5 1 C 35.925781 1 46 11.074219 46 23.5 Z M 46 23.5 "/>
</clipPath>
</defs>
<g id="surface1">
<path style=" stroke:none;fill-rule:nonzero;fill:rgb(2.745098%,66.27451%,94.117647%);fill-opacity:1;" d="M 46 23.5 C 46 35.925781 35.925781 46 23.5 46 C 11.074219 46 1 35.925781 1 23.5 C 1 11.074219 11.074219 1 23.5 1 C 35.925781 1 46 11.074219 46 23.5 Z M 46 23.5 "/>
<g clip-path="url(#clip1)" clip-rule="nonzero">
<g clip-path="url(#clip2)" clip-rule="nonzero">
<path style=" stroke:none;fill-rule:nonzero;fill:rgb(25.098039%,75.686275%,98.039216%);fill-opacity:1;" d="M 45.101562 29.898438 C 42.398438 39.199219 33.699219 46 23.5 46 C 13.300781 46 4.601562 39.199219 1.898438 29.898438 Z M 45.101562 29.898438 "/>
</g>
</g>
<path style=" stroke:none;fill-rule:nonzero;fill:rgb(80.784314%,80.784314%,80.784314%);fill-opacity:1;" d="M 14.601562 22.699219 L 12.199219 12.398438 C 12.199219 12.199219 12.300781 12.101562 12.398438 12.101562 L 31.5 7.601562 C 31.699219 7.601562 31.800781 7.699219 31.800781 7.800781 L 34.199219 18 C 34.199219 18.199219 34.101562 18.300781 34 18.300781 L 14.898438 22.800781 C 14.800781 22.898438 14.699219 22.800781 14.601562 22.699219 Z M 14.601562 22.699219 "/>
<path style=" stroke:none;fill-rule:nonzero;fill:rgb(92.156863%,88.235294%,86.27451%);fill-opacity:1;" d="M 15.800781 10.898438 L 35.300781 10.898438 C 35.5 10.898438 35.601562 11.101562 35.601562 11.199219 L 35.601562 21.601562 C 35.601562 21.800781 35.398438 21.898438 35.300781 21.898438 L 15.800781 21.898438 C 15.601562 21.898438 15.5 21.699219 15.5 21.601562 L 15.5 11.300781 C 15.5 11.101562 15.699219 10.898438 15.800781 10.898438 Z M 15.800781 10.898438 "/>
<path style=" stroke:none;fill-rule:nonzero;fill:rgb(100%,56.862745%,0%);fill-opacity:1;" d="M 16.898438 13.898438 L 8.898438 13.898438 C 8.300781 13.898438 7.898438 13.5 7.898438 12.898438 L 7.898438 10.699219 C 7.898438 10.101562 8.398438 9.699219 8.898438 9.699219 L 16.898438 9.699219 C 17.5 9.699219 17.898438 10.199219 17.898438 10.699219 L 17.898438 12.898438 C 17.898438 13.5 17.5 13.898438 16.898438 13.898438 Z M 16.898438 13.898438 "/>
<path style=" stroke:none;fill-rule:nonzero;fill:rgb(96.862745%,43.921569%,14.901961%);fill-opacity:1;" d="M 11.300781 13.898438 L 8.898438 13.898438 C 8.300781 13.898438 7.898438 13.5 7.898438 12.898438 L 7.898438 10.699219 C 7.898438 10.101562 8.398438 9.699219 8.898438 9.699219 L 11.300781 9.699219 C 10.699219 9.699219 10.300781 10.199219 10.300781 10.699219 L 10.300781 12.898438 C 10.300781 13.5 10.699219 13.898438 11.300781 13.898438 Z M 11.300781 13.898438 "/>
<path style=" stroke:none;fill-rule:nonzero;fill:rgb(100%,70.980392%,17.647059%);fill-opacity:1;" d="M 36 33.699219 L 8.898438 33.699219 C 8.300781 33.699219 7.898438 33.199219 7.898438 32.699219 L 7.898438 12.398438 L 36 12.398438 C 36.601562 12.398438 37 12.898438 37 13.398438 L 37 32.699219 C 37.101562 33.199219 36.601562 33.699219 36 33.699219 Z M 36 33.699219 "/>
<path style=" stroke:none;fill-rule:nonzero;fill:rgb(100%,56.862745%,0%);fill-opacity:1;" d="M 11.300781 33.699219 L 8.898438 33.699219 C 8.300781 33.699219 7.898438 33.199219 7.898438 32.699219 L 7.898438 12.398438 L 10.300781 12.398438 L 10.300781 32.699219 C 10.300781 33.199219 10.699219 33.699219 11.300781 33.699219 Z M 11.300781 33.699219 "/>
<path style=" stroke:none;fill-rule:nonzero;fill:rgb(27.058824%,23.921569%,51.372549%);fill-opacity:1;" d="M 19 33.898438 L 18.300781 33.898438 L 18.300781 24.199219 L 19 24.199219 Z M 19 33.898438 "/>
<path style=" stroke:none;fill-rule:nonzero;fill:rgb(31.764706%,28.235294%,60.392157%);fill-opacity:1;" d="M 17.898438 33 C 18.101562 32.898438 18.398438 32.800781 18.601562 32.800781 C 18.800781 32.898438 19.101562 33 19.300781 33 L 20.398438 38.601562 C 20.5 39 20.199219 39.398438 19.800781 39.398438 C 19.398438 39.5 19 39.5 18.5 39.5 C 18.101562 39.5 17.699219 39.5 17.199219 39.398438 C 16.800781 39.300781 16.5 39 16.601562 38.601562 Z M 17.898438 33 "/>
<path style=" stroke:none;fill-rule:nonzero;fill:rgb(27.058824%,23.921569%,51.372549%);fill-opacity:1;" d="M 19.101562 39.5 C 18.898438 39.5 18.800781 39.5 18.601562 39.5 C 18.199219 39.5 17.800781 39.5 17.300781 39.398438 C 16.898438 39.300781 16.601562 39 16.699219 38.601562 L 17.800781 33 C 18 32.898438 18.300781 32.800781 18.5 32.800781 C 18.699219 32.898438 18.800781 32.898438 19 33 C 18.898438 33 18.800781 33.101562 18.800781 33.101562 L 17.699219 38.699219 C 17.601562 39.101562 17.898438 39.5 18.300781 39.5 C 18.601562 39.398438 18.898438 39.5 19.101562 39.5 Z M 19.101562 39.5 "/>
<path style=" stroke:none;fill-rule:nonzero;fill:rgb(41.568627%,38.039216%,70.588235%);fill-opacity:1;" d="M 18.601562 34.300781 C 18 34.300781 17.601562 33.800781 17.601562 33.300781 C 17.601562 32.699219 18.101562 32.300781 18.601562 32.300781 C 19.101562 32.300781 19.601562 32.800781 19.601562 33.300781 C 19.699219 33.898438 19.300781 34.300781 18.601562 34.300781 Z M 18.601562 34.300781 "/>
<path style=" stroke:none;fill-rule:nonzero;fill:rgb(31.764706%,28.235294%,60.392157%);fill-opacity:1;" d="M 37 36.101562 C 36.898438 36.398438 36.699219 36.699219 36.398438 36.898438 C 34.5 37.601562 32.398438 38 30.101562 38 C 27.800781 38 25.699219 37.601562 23.800781 36.898438 C 23.5 36.699219 23.199219 36.5 23.199219 36.101562 L 20.898438 25.5 L 39.300781 25.5 Z M 37 36.101562 "/>
<path style=" stroke:none;fill-rule:nonzero;fill:rgb(27.058824%,23.921569%,51.372549%);fill-opacity:1;" d="M 28.800781 37.898438 C 27 37.699219 25.300781 37.398438 23.699219 36.800781 C 23.398438 36.601562 23.101562 36.398438 23.101562 36 L 20.800781 25.398438 L 27.199219 25.398438 C 27.101562 26.300781 27.101562 27.101562 27.101562 28 C 27.199219 31.5 27.699219 34.898438 28.800781 37.898438 Z M 28.800781 37.898438 "/>
<path style=" stroke:none;fill-rule:nonzero;fill:rgb(37.254902%,33.333333%,68.627451%);fill-opacity:1;" d="M 43.199219 24.398438 L 31.300781 29.300781 C 30.5 29.601562 29.699219 29.601562 28.898438 29.300781 L 17 24.398438 C 16.699219 24.199219 16.699219 23.800781 17 23.800781 L 28.898438 18.800781 C 29.699219 18.5 30.5 18.5 31.300781 18.800781 L 43.199219 23.699219 C 43.5 23.800781 43.5 24.199219 43.199219 24.398438 Z M 43.199219 24.398438 "/>
<path style=" stroke:none;fill-rule:nonzero;fill:rgb(41.568627%,38.039216%,70.588235%);fill-opacity:1;" d="M 43.199219 24.398438 L 36.101562 27.398438 C 30.300781 26.800781 26 24.601562 26 22 C 26 21 26.601562 20.101562 27.601562 19.300781 L 28.898438 18.800781 C 29.699219 18.5 30.5 18.5 31.300781 18.800781 L 43.199219 23.699219 C 43.5 23.800781 43.5 24.199219 43.199219 24.398438 Z M 43.199219 24.398438 "/>
</g>
</svg>
