<?xml version="1.0" encoding="utf-8"?>
<!-- Generator: Adobe Illustrator 24.0.2, SVG Export Plug-In . SVG Version: 6.00 Build 0)  -->
<svg version="1.1" id="Capa_1" xmlns="http://www.w3.org/2000/svg" xmlns:xlink="http://www.w3.org/1999/xlink" x="0px" y="0px"
	 viewBox="0 0 47 47" style="enable-background:new 0 0 47 47;" xml:space="preserve">
<style type="text/css">
	.st0{fill:#07A9F0;}
	.st1{clip-path:url(#SVGID_3_);fill:#40C1FA;}
	.st2{fill:#CECECE;}
	.st3{fill:#EBE1DC;}
	.st4{fill:#FF9100;}
	.st5{fill:#F77026;}
	.st6{fill:#FFB52D;}
	.st7{fill:#453D83;}
	.st8{fill:#51489A;}
	.st9{fill:#6A61B4;}
	.st10{fill:#5F55AF;}
</style>
<g>
	<circle id="SVGID_1_" class="st0" cx="23.5" cy="23.5" r="22.5"/>
	<g>
		<g>
			<defs>
				<circle id="SVGID_2_" cx="23.5" cy="23.5" r="22.5"/>
			</defs>
			<clipPath id="SVGID_3_">
				<use xlink:href="#SVGID_2_"  style="overflow:visible;"/>
			</clipPath>
			<path class="st1" d="M45.1,29.9C42.4,39.2,33.7,46,23.5,46S4.6,39.2,1.9,29.9H45.1z"/>
		</g>
	</g>
</g>
<g>
	<path class="st2" d="M14.6,22.7l-2.4-10.3c0-0.2,0.1-0.3,0.2-0.3l19.1-4.5c0.2,0,0.3,0.1,0.3,0.2L34.2,18c0,0.2-0.1,0.3-0.2,0.3
		l-19.1,4.5C14.8,22.9,14.7,22.8,14.6,22.7L14.6,22.7z"/>
	<path class="st3" d="M15.8,10.9h19.5c0.2,0,0.3,0.2,0.3,0.3v10.4c0,0.2-0.2,0.3-0.3,0.3H15.8c-0.2,0-0.3-0.2-0.3-0.3V11.3
		C15.5,11.1,15.7,10.9,15.8,10.9z"/>
	<path class="st4" d="M16.9,13.9h-8c-0.6,0-1-0.4-1-1v-2.2c0-0.6,0.5-1,1-1h8c0.6,0,1,0.5,1,1v2.2C17.9,13.5,17.5,13.9,16.9,13.9z"
		/>
	<path class="st5" d="M11.3,13.9H8.9c-0.6,0-1-0.4-1-1v-2.2c0-0.6,0.5-1,1-1h2.4c-0.6,0-1,0.5-1,1v2.2
		C10.3,13.5,10.7,13.9,11.3,13.9z"/>
	<path class="st6" d="M36,33.7H8.9c-0.6,0-1-0.5-1-1V12.4H36c0.6,0,1,0.5,1,1v19.3C37.1,33.2,36.6,33.7,36,33.7z"/>
	<path class="st4" d="M11.3,33.7H8.9c-0.6,0-1-0.5-1-1V12.4h2.4v20.3C10.3,33.2,10.7,33.7,11.3,33.7z"/>
	<path class="st7" d="M19,33.9h-0.7v-9.7H19V33.9z"/>
	<path class="st8" d="M17.9,33c0.2-0.1,0.5-0.2,0.7-0.2c0.2,0.1,0.5,0.2,0.7,0.2l1.1,5.6c0.1,0.4-0.2,0.8-0.6,0.8
		c-0.4,0.1-0.8,0.1-1.3,0.1c-0.4,0-0.8,0-1.3-0.1c-0.4-0.1-0.7-0.4-0.6-0.8L17.9,33z"/>
	<path class="st7" d="M19.1,39.5c-0.2,0-0.3,0-0.5,0c-0.4,0-0.8,0-1.3-0.1c-0.4-0.1-0.7-0.4-0.6-0.8l1.1-5.6
		c0.2-0.1,0.5-0.2,0.7-0.2c0.2,0.1,0.3,0.1,0.5,0.2c-0.1,0-0.2,0.1-0.2,0.1l-1.1,5.6c-0.1,0.4,0.2,0.8,0.6,0.8
		C18.6,39.4,18.9,39.5,19.1,39.5L19.1,39.5z"/>
	<path class="st9" d="M18.6,34.3c-0.6,0-1-0.5-1-1l0,0c0-0.6,0.5-1,1-1s1,0.5,1,1l0,0C19.7,33.9,19.3,34.3,18.6,34.3z"/>
	<path class="st8" d="M37,36.1c-0.1,0.3-0.3,0.6-0.6,0.8c-1.9,0.7-4,1.1-6.3,1.1c-2.3,0-4.4-0.4-6.3-1.1c-0.3-0.2-0.6-0.4-0.6-0.8
		l-2.3-10.6h18.4L37,36.1z"/>
	<path class="st7" d="M28.8,37.9c-1.8-0.2-3.5-0.5-5.1-1.1c-0.3-0.2-0.6-0.4-0.6-0.8l-2.3-10.6h6.4c-0.1,0.9-0.1,1.7-0.1,2.6
		C27.2,31.5,27.7,34.9,28.8,37.9L28.8,37.9z"/>
	<path class="st10" d="M43.2,24.4l-11.9,4.9c-0.8,0.3-1.6,0.3-2.4,0l-11.9-4.9c-0.3-0.2-0.3-0.6,0-0.6l11.9-5c0.8-0.3,1.6-0.3,2.4,0
		l11.9,4.9C43.5,23.8,43.5,24.2,43.2,24.4z"/>
	<path class="st9" d="M43.2,24.4l-7.1,3c-5.8-0.6-10.1-2.8-10.1-5.4c0-1,0.6-1.9,1.6-2.7l1.3-0.5c0.8-0.3,1.6-0.3,2.4,0l11.9,4.9
		C43.5,23.8,43.5,24.2,43.2,24.4z"/>
</g>
</svg>
