<?xml version="1.0" encoding="utf-8"?>
<!-- Generator: Adobe Illustrator 24.0.2, SVG Export Plug-In . SVG Version: 6.00 Build 0)  -->
<svg version="1.1" id="Layer_1" xmlns="http://www.w3.org/2000/svg" xmlns:xlink="http://www.w3.org/1999/xlink" x="0px" y="0px"
	 viewBox="0 0 49 49" style="enable-background:new 0 0 49 49;" xml:space="preserve">
<style type="text/css">
	.st0{fill:#72C1E8;}
	.st1{fill:#FFB69F;}
	.st2{fill:#FC5D3D;}
	.st3{fill:#13BF6D;}
	.st4{fill:#AFAFAF;}
	.st5{fill:#C5E5FF;}
	.st6{fill:#76FFBA;}
	.st7{fill:#FFCBC2;}
</style>
<path class="st0" d="M47.4,36.9c0,5.9-4.7,10.6-10.4,10.6s-10.4-4.8-10.4-10.6c0-5.9,4.7-10.6,10.4-10.6c3.6,0,7,2,8.9,5.1
	C46.9,33,47.4,35,47.4,36.9z"/>
<path class="st1" d="M43,37.1c0,0.8-0.7,1.5-1.5,1.5l0,0h-0.3c-0.2,2.4-2.2,4.1-4.6,3.9c-2-0.2-3.7-1.9-3.8-3.9h-0.3
	c-0.8,0-1.5-0.7-1.5-1.5s0.7-1.5,1.5-1.5l0,0h0.2v1.2c0-0.4,0.1-0.9,0.4-1.2c0.4-0.8,1.9-1.4,2.9-0.5c0.5,0.4,1.3,0.4,1.8,0
	c1-0.7,2.2-0.5,2.9,0.5l0,0c0.2,0.4,0.4,0.8,0.4,1.2v-1.2h0.4C42.4,35.7,43,36.4,43,37.1L43,37.1L43,37.1z"/>
<path class="st2" d="M47.4,12.1c0,5.9-4.7,10.6-10.4,10.6s-10.3-4.8-10.3-10.6S31.3,1.5,37.1,1.5c3.8,0,7.3,2.2,9.1,5.5
	C47,8.5,47.4,10.3,47.4,12.1z"/>
<ellipse class="st3" cx="11.9" cy="24.5" rx="10.4" ry="10.6"/>
<path class="st4" d="M16.8,22.1l-0.6,0.6H7.6v-1.3c0-1.1,0.9-2,2-2h4.7c0.7,0,1.4-0.5,1.5-1.3l0.8,0.6c1,0.7,1.3,2.1,0.6,3.1
	C17,22,16.9,22,16.8,22.1L16.8,22.1z"/>
<path class="st1" d="M16.7,24.6h-0.4v-2H7.6v2H7.1c-0.7,0-1.3,0.6-1.3,1.3c0,0.7,0.6,1.3,1.3,1.3h0.5c0.4,2.4,2.6,4,5,3.6
	c1.8-0.3,3.2-1.8,3.5-3.6h0.5c0.7,0,1.3-0.6,1.3-1.3C18,25.2,17.4,24.6,16.7,24.6L16.7,24.6L16.7,24.6z"/>
<path class="st4" d="M38,31.7c-0.5,0.4-1.3,0.4-1.8,0c-1-0.7-2.2-0.5-2.9,0.5c-0.3,0.4-0.4,0.9-0.4,1.3v3.4c0-0.4,0.1-0.9,0.4-1.2
	c0.4-0.8,1.9-1.4,2.9-0.5c0.5,0.4,1.3,0.4,1.8,0c1-0.7,2.2-0.5,2.9,0.5l0,0c0.2,0.4,0.4,0.8,0.4,1.2v-3.4
	C41.3,31.7,39.3,30.6,38,31.7z"/>
<path class="st4" d="M42.6,12v3.4h-2.3c0.1-0.3,0.1-0.6,0.1-0.9v-2.7L34.8,11c-0.7-0.1-1.3,0.4-1.3,1c0,0.1,0,0.1,0,0.2v2.4
	c0,0.3,0,0.6,0.1,0.9h-2.3v-3.2c0-3.1,2.4-5.8,5.6-5.9C40,6.2,42.6,8.7,42.6,12C42.6,11.9,42.6,12,42.6,12z"/>
<path class="st1" d="M34.9,10.9c-0.7-0.1-1.3,0.4-1.3,1c0,0.1,0,0.1,0,0.2v2.4c0,2,1.6,3.5,3.4,3.5c1.6,0,2.9-1.1,3.3-2.5
	c0.1-0.3,0.1-0.6,0.1-0.9v-2.7L34.9,10.9z"/>
<path class="st5" d="M37.1,45.7c-4.8,0-8.6-3.9-8.6-8.7c0-2.4,0.9-4.6,2.5-6.2c0.2-0.2,0.5-0.2,0.7,0s0.2,0.5,0,0.7l0,0
	c-3,3-3,8,0,11.1c2.3,2.4,5.9,2.9,8.8,1.5c0.2-0.1,0.5,0,0.6,0.2c0.1,0.2,0,0.5-0.2,0.6C39.7,45.4,38.4,45.7,37.1,45.7L37.1,45.7z
	 M41.9,43.6c-0.2-0.2-0.1-0.5,0.1-0.7c0.2-0.2,0.4-0.3,0.5-0.5c0.2-0.2,0.5-0.2,0.7,0c0.2,0.2,0.2,0.5,0,0.7l0,0
	c-0.2,0.2-0.4,0.4-0.6,0.6C42.4,43.8,42.1,43.8,41.9,43.6L41.9,43.6z"/>
<path class="st6" d="M11.9,33.3c-4.8,0-8.6-3.9-8.6-8.8c0-2.4,0.9-4.5,2.5-6.2c0.2-0.2,0.5-0.2,0.7,0s0.2,0.5,0,0.7l0,0
	c-3,3-3,7.9,0,11.1c1.5,1.5,3.4,2.3,5.4,2.3c1.2,0,2.3-0.3,3.4-0.8c0.2-0.1,0.5,0,0.6,0.2s0,0.5-0.2,0.7l0,0
	C14.6,32.9,13.3,33.3,11.9,33.3z M16.8,31.2c-0.2-0.2-0.1-0.5,0.1-0.7l0,0c0.2-0.2,0.4-0.3,0.5-0.5c0.2-0.2,0.5-0.2,0.7,0
	c0.2,0.2,0.2,0.5,0,0.7c-0.2,0.2-0.4,0.4-0.6,0.6C17.3,31.5,17,31.4,16.8,31.2L16.8,31.2z"/>
<path class="st7" d="M37.1,20.9c-4.8,0-8.6-3.9-8.6-8.8c0-2.4,0.9-4.5,2.5-6.2c0.2-0.2,0.5-0.2,0.7,0c0.1,0.2,0.1,0.5-0.1,0.7l0,0
	c-3,3-3,8,0,11.1c1.5,1.5,3.4,2.3,5.4,2.3c1.2,0,2.3-0.3,3.4-0.8c0.2-0.1,0.5,0,0.6,0.2c0.1,0.2,0,0.5-0.2,0.6
	C39.7,20.6,38.4,20.9,37.1,20.9L37.1,20.9z M41.9,18.8c-0.2-0.2-0.1-0.5,0.1-0.7c0.2-0.2,0.4-0.3,0.5-0.5c0.2-0.2,0.5-0.2,0.7,0
	s0.2,0.5,0,0.7l0,0c-0.2,0.2-0.4,0.4-0.6,0.6C42.4,19,42.1,19,41.9,18.8L41.9,18.8z"/>
<path d="M44.4,31.5c0.3,0,0.5-0.2,0.5-0.5v-1.1H46c0.3,0,0.5-0.2,0.5-0.5s-0.3-0.5-0.6-0.5h-1.1v-1.1c0-0.3-0.2-0.5-0.5-0.5
	c-0.3,0-0.5,0.2-0.5,0.5v1.1h-1.1c-0.3,0-0.5,0.2-0.5,0.5s0.2,0.5,0.5,0.5h1.1V31C43.9,31.3,44.1,31.5,44.4,31.5z"/>
<path d="M1.1,25.4c0,0.3,0.2,0.5,0.5,0.5s0.5-0.2,0.5-0.5l0,0c0-0.3,0-0.5,0-0.8c0-5.6,4.5-10.1,9.9-10.1S22,19,22,24.6
	S17.5,34.7,12,34.7c-3.8,0-7.3-2.3-9-5.9c-0.1-0.2-0.4-0.3-0.6-0.2c-0.2,0.1-0.3,0.4-0.2,0.6l0,0c2.5,5.6,9,7.9,14.4,5.3
	c2-0.9,3.5-2.4,4.6-4.2l5.8,2.5c-2.1,5.7,0.6,12.1,6.2,14.3c5.6,2.3,11.9-0.6,14-6.4c1.2-3.2,0.9-6.9-0.9-9.8
	c-0.1-0.2-0.4-0.3-0.7-0.2c-0.2,0.1-0.3,0.4-0.2,0.7c2.8,5,1.4,11.2-3.3,14.1c-4.7,2.9-10.8,1.4-13.7-3.3s-1.4-11,3.3-13.9
	c3.2-2,7.1-2,10.3,0c0.2,0.1,0.5,0.1,0.7-0.2c0.1-0.2,0.1-0.5-0.1-0.7l0,0c-5.1-3.2-11.8-1.6-14.9,3.7c-0.2,0.3-0.3,0.6-0.5,0.9
	l-5.7-2.5c1.4-2.7,1.6-5.9,0.5-8.8l5.6-3c3,5.3,9.8,7.1,14.9,3.9c5.1-3,6.8-9.6,4-14.9c-0.3-0.2-0.6-0.3-0.8-0.1
	c-0.2,0.1-0.3,0.4-0.2,0.7l0,0c2.6,4.9,0.9,11.1-3.9,13.8S31,22,28.4,17.1S27.5,6,32.3,3.2c3-1.8,6.8-1.7,9.9,0.2
	c0.2,0.1,0.5,0.1,0.7-0.2C43,3,43,2.7,42.8,2.6l0,0C37.7-0.7,31,1,27.9,6.3c-2,3.2-2.1,7.2-0.5,10.6L22,19.8
	c-2.5-5.6-9-7.9-14.4-5.4c-4,1.9-6.4,5.8-6.4,10.1C1.1,24.8,1.1,25.1,1.1,25.4L1.1,25.4z"/>
<path d="M2.4,27.1c-0.1-0.3-0.3-0.4-0.6-0.3c-0.3,0.1-0.4,0.3-0.3,0.6c0.1,0.3,0.3,0.4,0.6,0.3C2.3,27.6,2.5,27.3,2.4,27.1z"/>
<path d="M10.3,28c0.4,1,1.4,1.5,2.3,1.1c0.5-0.2,0.9-0.6,1.1-1.1c0.1-0.3,0-0.5-0.3-0.6l0,0c-0.2-0.1-0.5,0-0.6,0.3
	c-0.2,0.5-0.7,0.7-1.2,0.5c-0.2-0.1-0.4-0.3-0.5-0.5c-0.1-0.2-0.4-0.4-0.6-0.3C10.3,27.4,10.2,27.7,10.3,28z"/>
<path d="M17.2,22.4c1.1-1.1,1-2.7,0-3.8c-0.1-0.1-0.2-0.2-0.4-0.3L16,17.7c-0.2-0.2-0.5-0.1-0.7,0.1c0,0.1-0.1,0.1-0.1,0.2
	c-0.1,0.5-0.5,0.9-1,0.9H9.6c-1.4,0-2.4,1.1-2.4,2.4v2.7c-1,0.1-1.7,0.9-1.7,1.9c0,1,0.8,1.8,1.8,1.8h0.1c0.7,2.6,3.3,4.2,5.9,3.5
	c1.7-0.5,2.9-1.8,3.4-3.5h0.1c1,0,1.8-0.8,1.8-1.8c0-1-0.8-1.8-1.7-1.8v-1.3L17.2,22.4z M6.4,25.9c0-0.4,0.3-0.8,0.8-0.8v1.3
	c0,0.1,0,0.2,0,0.3C6.7,26.7,6.4,26.4,6.4,25.9z M15.8,26.4c0,2.2-1.8,3.9-3.9,3.9S8,28.5,8,26.4v-3.2h7.7L15.8,26.4L15.8,26.4z
	 M17.5,25.9c0,0.4-0.3,0.8-0.8,0.8c0-0.1,0-0.2,0-0.3v-1.3C17.2,25.1,17.5,25.5,17.5,25.9z M16.5,21.9l-0.4,0.4h-8v-0.8
	c0-0.9,0.7-1.6,1.5-1.6h4.7c0.7,0,1.4-0.4,1.7-1l0.3,0.2c0.8,0.6,1,1.7,0.5,2.4C16.6,21.7,16.6,21.8,16.5,21.9z"/>
<path d="M10,25.7c0.3,0,0.5-0.2,0.5-0.5V25c0-0.3-0.2-0.5-0.5-0.5c-0.3,0-0.5,0.2-0.5,0.5v0.3C9.5,25.5,9.7,25.7,10,25.7z"/>
<path d="M14,25.7c0.3,0,0.5-0.2,0.5-0.5V25c0-0.3-0.2-0.5-0.5-0.5c-0.3,0-0.5,0.2-0.5,0.5v0.3C13.5,25.5,13.7,25.7,14,25.7z"/>
<path d="M11.9,26.8c0.3,0,0.5-0.2,0.5-0.5v-1.2c0-0.3-0.2-0.5-0.5-0.5s-0.5,0.2-0.5,0.5v1.2C11.5,26.7,11.7,26.8,11.9,26.8z"/>
<path d="M38.5,39.3c-0.2-0.1-0.5,0-0.6,0.3c-0.1,0.4-0.5,0.6-0.8,0.6c-0.4,0-0.7-0.2-0.8-0.6c-0.1-0.2-0.4-0.4-0.6-0.3
	c-0.2,0.1-0.4,0.4-0.3,0.6c0.4,1,1.4,1.5,2.3,1.1c0.5-0.2,0.9-0.6,1.1-1.1C38.8,39.7,38.7,39.4,38.5,39.3L38.5,39.3L38.5,39.3z"/>
<path d="M35.5,37.4v-0.3c0-0.3-0.2-0.5-0.5-0.5c-0.3,0-0.5,0.2-0.5,0.5v0.3c0,0.3,0.2,0.5,0.5,0.5C35.3,37.9,35.5,37.7,35.5,37.4z"
	/>
<path d="M39,36.6c-0.3,0-0.5,0.2-0.5,0.5v0.3c0,0.3,0.2,0.5,0.5,0.5c0.3,0,0.5-0.2,0.5-0.5v-0.3C39.5,36.9,39.3,36.6,39,36.6z"/>
<path d="M37.1,39.1c0.3,0,0.5-0.2,0.5-0.5v-1.2c0-0.3-0.2-0.5-0.5-0.5c-0.3,0-0.5,0.2-0.5,0.5v1.2C36.6,38.9,36.8,39.1,37.1,39.1z"
	/>
<path d="M37.7,31.3c-0.4,0.3-0.9,0.3-1.3,0c-1.2-0.9-2.7-0.6-3.6,0.6c-0.3,0.5-0.5,1-0.5,1.6v1.8c-1.1,0.1-1.9,1.1-1.8,2.2
	c0.1,1,0.9,1.8,1.9,1.9c0.5,2.6,2.9,4.3,5.5,3.8c2-0.4,3.4-1.9,3.8-3.8c1.1,0,1.9-1,1.9-2.1c0-1-0.8-1.8-1.8-1.9v-1.8
	C41.8,31.4,39.4,30,37.7,31.3L37.7,31.3z M32.4,36.8v1.3c-0.6-0.1-0.9-0.6-0.9-1.2c0.1-0.4,0.4-0.8,0.9-0.9V36.8z M40.8,38.3
	c0,2.2-1.7,3.8-3.8,3.8c-2,0-3.7-1.7-3.7-3.8v-1.4l0,0c0-1.4,1.6-2.2,2.6-1.4c0.7,0.5,1.7,0.5,2.3,0c0.8-0.5,1.8-0.4,2.2,0.4
	c0.2,0.3,0.3,0.6,0.3,1V38.3z M40.8,34.9c-0.9-0.8-2.1-0.8-3.1-0.1l0,0c-0.4,0.3-0.9,0.3-1.2,0c-1-0.7-2.2-0.7-3.1,0.1v-1.4
	c0-1.5,1.5-2.3,2.5-1.5c0.7,0.5,1.7,0.5,2.3,0c1.2-0.8,2.6,0.1,2.6,1.5L40.8,34.9z M42.5,37.1c0,0.5-0.4,0.9-0.9,1v-1.3l0,0v-0.7
	C42.3,36.3,42.5,36.6,42.5,37.1L42.5,37.1z"/>
<path d="M37,5.8c-3.3,0.1-6,2.9-6,6.4v3.2c0,0.3,0.2,0.5,0.5,0.5h2c0.8,2.1,3,3.1,5,2.4c1.1-0.4,1.9-1.3,2.2-2.4h2
	c0.3,0,0.5-0.2,0.5-0.5V12C43.1,8.5,40.4,5.8,37,5.8C37,5.8,37,5.8,37,5.8z M40,14.4c0,1.7-1.4,3-3,3s-2.9-1.4-2.9-3v-2.4
	c0-0.4,0.3-0.7,0.7-0.7h0.1l0,0l5.2,0.7V14.4z M42.2,14.9h-1.3c0-0.1,0-0.3,0-0.4v-2.7c0-0.2-0.2-0.5-0.4-0.5l-5.6-0.8
	c-0.9-0.1-1.8,0.5-1.9,1.5c0,0.1,0,0.1,0,0.2v2.4c0,0.1,0,0.3,0,0.4h-1.3v-2.8c0-2.9,2.2-5.4,5.1-5.4s5.2,2.3,5.3,5.2V12V14.9z"/>
<path d="M35.4,15.7c0.3,0.9,1.4,1.4,2.2,1.1c0.5-0.2,0.9-0.6,1-1c0.1-0.3,0-0.5-0.3-0.6c-0.2-0.1-0.5,0-0.6,0.3l0,0
	c-0.2,0.4-0.6,0.6-1,0.5c-0.2-0.1-0.4-0.3-0.5-0.5c-0.1-0.3-0.4-0.4-0.6-0.3C35.4,15.2,35.3,15.5,35.4,15.7L35.4,15.7L35.4,15.7z"/>
<path d="M34.7,12.9v0.2c0,0.3,0.2,0.5,0.5,0.5c0.3,0,0.5-0.2,0.5-0.5v-0.2c0-0.3-0.2-0.5-0.5-0.5C34.9,12.4,34.7,12.6,34.7,12.9z"/>
<path d="M38.9,13.6c0.3,0,0.5-0.2,0.5-0.5v-0.2c0-0.3-0.2-0.5-0.5-0.5s-0.5,0.2-0.5,0.5v0.2C38.5,13.4,38.6,13.6,38.9,13.6z"/>
<path d="M37.1,14.7c0.3,0,0.5-0.2,0.5-0.5v-1.1c0-0.3-0.2-0.5-0.5-0.5c-0.3,0-0.5,0.2-0.5,0.5v1.1C36.6,14.5,36.8,14.7,37.1,14.7z"
	/>
<path d="M44.4,6.6c0.3,0,0.5-0.2,0.5-0.5v-1H46c0.3,0,0.5-0.2,0.5-0.5c0-0.3-0.2-0.5-0.5-0.5h-1.1V3c0-0.3-0.2-0.5-0.5-0.5
	S43.9,2.7,43.9,3v1.1h-1.1c-0.3,0-0.5,0.2-0.5,0.5c0,0.3,0.2,0.5,0.5,0.5h1.1v1.1C43.9,6.4,44.1,6.6,44.4,6.6L44.4,6.6z"/>
</svg>
