<?xml version="1.0" encoding="utf-8"?>
<!-- Generator: Adobe Illustrator 24.0.2, SVG Export Plug-In . SVG Version: 6.00 Build 0)  -->
<svg version="1.1" id="Layer_1" xmlns="http://www.w3.org/2000/svg" xmlns:xlink="http://www.w3.org/1999/xlink" x="0px" y="0px"
	 viewBox="0 0 21 14" style="enable-background:new 0 0 21 14;" xml:space="preserve">
<style type="text/css">
	.st0{fill:#1A1D29;}
</style>
<path class="st0" d="M20.8,2c0-1-0.8-1.8-1.8-1.8H9C8,0.2,7.2,1,7.2,2v7.5c0,1,0.8,1.8,1.8,1.8h1.9v2.1c0,0.3,0.4,0.5,0.6,0.3
	l2.4-2.3l0,0h5c1,0,1.8-0.8,1.8-1.8L20.8,2L20.8,2z M13.5,2.7h1c0.1,0,0.2,0.1,0.2,0.2l-0.1,4c0,0.1-0.1,0.2-0.2,0.2h-0.8
	c-0.1,0-0.2-0.1-0.2-0.2l-0.1-4C13.3,2.8,13.4,2.7,13.5,2.7z M14.7,8.5c0,0.2-0.1,0.3-0.3,0.3h-0.8c-0.2,0-0.3-0.1-0.3-0.3V8
	c0-0.2,0.1-0.3,0.3-0.3h0.8c0.2,0,0.3,0.1,0.3,0.3V8.5z M0.2,2.4c0-0.5,0.4-0.8,0.8-0.8h3.7c0.5,0,0.8,0.4,0.8,0.8l0,0
	c0,0.5-0.4,0.8-0.8,0.8H1.1C0.6,3.2,0.2,2.9,0.2,2.4z M5.6,5.8c0,0.5-0.4,0.8-0.8,0.8H2c-0.5,0-0.8-0.4-0.8-0.8S1.6,4.9,2,4.9h2.7
	C5.3,4.9,5.6,5.3,5.6,5.8L5.6,5.8z M5.6,9.1L5.6,9.1c0,0.5-0.4,0.8-0.8,0.8H3.1c-0.5,0-0.8-0.4-0.8-0.8l0,0c0-0.5,0.4-0.8,0.8-0.8
	h1.7C5.3,8.3,5.6,8.6,5.6,9.1z"/>
</svg>
