<?xml version="1.0" encoding="utf-8"?>
<!-- Generator: Adobe Illustrator 24.0.2, SVG Export Plug-In . SVG Version: 6.00 Build 0)  -->
<svg version="1.1" id="Layer_1" xmlns="http://www.w3.org/2000/svg" xmlns:xlink="http://www.w3.org/1999/xlink" x="0px" y="0px"
	 viewBox="0 0 20 17" style="enable-background:new 0 0 20 17;" xml:space="preserve">
<style type="text/css">
	.st0{fill:#1A1D29;}
</style>
<g>
	<path class="st0" d="M9.8,2.1V1.1c0-0.5-0.4-0.9-0.9-0.9H6.3c-0.5,0-0.9,0.4-0.9,0.9v0.9H0.6v3.8h2.2V5.2h1.3v0.6H11V5.2h1.3v0.6
		h2.2V2.1H9.8z M6,1.1c0-0.2,0.1-0.3,0.3-0.3h2.5c0.2,0,0.3,0.1,0.3,0.3v0.9H6V1.1z"/>
	<rect x="17.2" y="5.2" transform="matrix(0.7071 -0.7071 0.7071 0.7071 0.8529 14.3921)" class="st0" width="1.3" height="1.9"/>
	<polygon class="st0" points="14.5,7.2 14.5,6.5 12.3,6.5 12.3,7.1 11,7.1 11,6.5 4.1,6.5 4.1,7.1 2.8,7.1 2.8,6.5 0.6,6.5 
		0.6,12.1 9.6,12.1 	"/>
	<polygon class="st0" points="18.9,7.3 18,8.2 15.8,5.9 15.4,6.4 15.8,6.8 8.7,13.9 10,15.3 17.1,8.2 17.6,8.6 15.4,10.8 15.8,11.3 
		19.4,7.7 	"/>
	<polygon class="st0" points="7.1,16.8 9.6,15.7 8.3,14.4 	"/>
</g>
</svg>
