<?xml version="1.0" encoding="UTF-8"?>
<svg xmlns="http://www.w3.org/2000/svg" xmlns:xlink="http://www.w3.org/1999/xlink" width="17pt" height="16pt" viewBox="0 0 17 16" version="1.1">
<g id="surface1">
<path style=" stroke:none;fill-rule:nonzero;fill:rgb(10.196078%,11.372549%,16.078431%);fill-opacity:1;" d="M 8.328125 1.976562 L 8.328125 1.035156 C 8.328125 0.566406 7.988281 0.1875 7.566406 0.1875 L 5.355469 0.1875 C 4.929688 0.1875 4.589844 0.566406 4.589844 1.035156 L 4.589844 1.882812 L 0.511719 1.882812 L 0.511719 5.457031 L 2.378906 5.457031 L 2.378906 4.894531 L 3.484375 4.894531 L 3.484375 5.457031 L 9.351562 5.457031 L 9.351562 4.894531 L 10.453125 4.894531 L 10.453125 5.457031 L 12.324219 5.457031 L 12.324219 1.976562 Z M 5.101562 1.035156 C 5.101562 0.847656 5.183594 0.753906 5.355469 0.753906 L 7.480469 0.753906 C 7.648438 0.753906 7.734375 0.847656 7.734375 1.035156 L 7.734375 1.882812 L 5.101562 1.882812 Z M 5.101562 1.035156 "/>
<path style=" stroke:none;fill-rule:nonzero;fill:rgb(10.196078%,11.372549%,16.078431%);fill-opacity:1;" d="M 14.1875 5.558594 L 14.96875 4.695312 L 16.113281 5.957031 L 15.332031 6.824219 Z M 14.1875 5.558594 "/>
<path style=" stroke:none;fill-rule:nonzero;fill:rgb(10.196078%,11.372549%,16.078431%);fill-opacity:1;" d="M 12.324219 6.777344 L 12.324219 6.117188 L 10.453125 6.117188 L 10.453125 6.683594 L 9.351562 6.683594 L 9.351562 6.117188 L 3.484375 6.117188 L 3.484375 6.683594 L 2.378906 6.683594 L 2.378906 6.117188 L 0.511719 6.117188 L 0.511719 11.386719 L 8.160156 11.386719 Z M 12.324219 6.777344 "/>
<path style=" stroke:none;fill-rule:nonzero;fill:rgb(10.196078%,11.372549%,16.078431%);fill-opacity:1;" d="M 16.066406 6.871094 L 15.300781 7.71875 L 13.429688 5.554688 L 13.089844 6.023438 L 13.429688 6.398438 L 7.394531 13.082031 L 8.5 14.398438 L 14.535156 7.71875 L 14.960938 8.09375 L 13.089844 10.164062 L 13.429688 10.636719 L 16.488281 7.246094 Z M 16.066406 6.871094 "/>
<path style=" stroke:none;fill-rule:nonzero;fill:rgb(10.196078%,11.372549%,16.078431%);fill-opacity:1;" d="M 6.035156 15.8125 L 8.160156 14.777344 L 7.054688 13.554688 Z M 6.035156 15.8125 "/>
</g>
</svg>
