<?xml version="1.0" encoding="utf-8"?>
<!-- Generator: Adobe Illustrator 24.0.2, SVG Export Plug-In . SVG Version: 6.00 Build 0)  -->
<svg version="1.1" id="Capa_1" xmlns="http://www.w3.org/2000/svg" xmlns:xlink="http://www.w3.org/1999/xlink" x="0px" y="0px"
	 width="43px" height="43px" viewBox="0 0 43 43" style="enable-background:new 0 0 43 43;" xml:space="preserve">
<style type="text/css">
	.st0{fill:#EABC6B;}
	.st1{fill:#E8AE4D;}
	.st2{fill:#FFE07D;}
	.st3{fill:#FFDDCE;}
	.st4{fill:#FFCBBE;}
	.st5{fill:#F5DBCC;}
	.st6{fill:#407093;}
</style>
<g>
	<g>
		<g>
			<g>
				<g>
					<g>
						<g>
							<path class="st0" d="M26.4,8.3c0,0,4.2-5.2,3-6.7c-0.4-0.5-0.8,0.2-1.6,0.2c-1,0-1-0.6-2-0.6c-1,0-1,0.6-2,0.6
								c-1,0-1-0.6-2-0.6s-1,0.6-2,0.6c-0.8,0-1.2-0.7-1.6-0.2c-1.2,1.5,2.9,6.7,2.9,6.7C3.1,19.8,8.9,35.5,19.6,35.5H28
								C38.7,35.5,44.5,19.8,26.4,8.3L26.4,8.3z"/>
						</g>
					</g>
					<g>
						<path class="st1" d="M26.4,8.3c0,0,4.2-5.2,3-6.7c-0.4-0.5-0.8,0.2-1.6,0.2c-1,0-1-0.6-2-0.6c-1,0-1,0.6-2,0.6
							c0,0-0.1,0-0.1,0c-0.4,1.7-2.2,4.2-3.2,5.6c0.4,0.6,0.7,0.9,0.7,0.9c-0.2,0.2-0.5,0.3-0.7,0.5c17.3,11.5,11.5,26.7,0.9,26.7
							H28C38.7,35.5,44.5,19.8,26.4,8.3L26.4,8.3z"/>
					</g>
					<g>
						<path class="st2" d="M27.2,10.1c-2.4,0.6-4.8,0.6-7.2,0c-0.8-0.2-1.3-1.1-1-2c0,0,0,0,0,0c0.3-0.7,1-1.1,1.7-0.9
							c2,0.5,3.9,0.5,5.9,0c0.7-0.2,1.4,0.2,1.7,0.9c0,0,0,0,0,0C28.5,9,28,9.9,27.2,10.1z"/>
					</g>
				</g>
			</g>
		</g>
		<g>
			<g>
				<g>
					<g>
						<g>
							<g>
								<g>
									<g>
										<g>
											<g>
												<g>
													<g>
														<g>
															<path class="st3" d="M4.5,38.1l9.2,3.3c0.8,0.3,1.6,0.4,2.4,0.4h9.5c1.3,0,2.6-0.4,3.7-1.1l11.9-7.3
																c0.8-0.7,0.9-1.8,0.3-2.6c-0.6-0.9-1.7-1.1-2.9-0.5l-11.5,4.9l0-1.8c-0.2-1.5-1.3-2.7-2.9-2.9l-7-0.8
																c-1.6-0.2-2.4-0.7-3.8-1.6c-1.9-1.1-4.1-1.7-6.4-1.7H4.5L4.5,38.1L4.5,38.1z"/>
														</g>
														<g>
															<path class="st3" d="M4.5,38.1l9.2,3.3c0.8,0.3,1.6,0.4,2.4,0.4h9.5c1.3,0,2.6-0.4,3.7-1.1l11.9-7.3
																c0.8-0.7,0.9-1.8,0.3-2.6c-0.6-0.9-1.7-1.1-2.9-0.5l-11.5,4.9l0-1.8c-0.2-1.5-1.3-2.7-2.9-2.9l-7-0.8
																c-1.6-0.2-2.4-0.7-3.8-1.6c-1.9-1.1-4.1-1.7-6.4-1.7H4.5L4.5,38.1L4.5,38.1z"/>
														</g>
														<path class="st4" d="M41.5,30.9c-0.6-0.9-1.7-1.1-2.9-0.5l-3.2,1.4c0.2,0.2,0.3,0.4,0.3,0.4c0.6,0.8,0.4,2-0.3,2.6
															L28.5,39c-0.9,0.4-1.9,0.6-2.9,0.6h-9.5c-0.8,0-1.7-0.1-2.4-0.4l-9.2-3.3v2.2l9.2,3.3c0.8,0.3,1.6,0.4,2.4,0.4h7.7
															h1.7c1.3,0,2.6-0.4,3.7-1.1l11.9-7.3C42,32.9,42.1,31.7,41.5,30.9L41.5,30.9z"/>
														<g>
															<path class="st5" d="M26.2,31.6L26.2,31.6L26.2,31.6C26.3,31.6,26.2,31.6,26.2,31.6z"/>
														</g>
													</g>
												</g>
												<path class="st6" d="M6.5,39.9c0,0.6-0.5,1.2-1.2,1.2H2.3c-0.7,0-1.2-0.5-1.2-1.2V25.6c0-0.6,0.5-1.2,1.2-1.2h2.9
													c0.7,0,1.2,0.5,1.2,1.2V39.9z"/>
											</g>
										</g>
									</g>
								</g>
							</g>
						</g>
					</g>
				</g>
			</g>
		</g>
	</g>
	<g>
		<path d="M42,30.6c-0.8-1.2-2.2-1.4-3.7-0.8l-0.8,0.3c1.2-2.6,1.4-5.4,0.8-8.1c-0.7-3.1-2.4-6.1-5.1-9c-0.2-0.3-0.6-0.3-0.9,0
			c-0.3,0.2-0.3,0.6,0,0.9c2.5,2.7,4.1,5.5,4.8,8.4c0.7,3.1,0.3,6.2-1.5,8.7l-7.9,3.4l0-0.9c0,0,0,0,0-0.1c-0.2-1.8-1.6-3.2-3.4-3.4
			c0,0,0,0,0,0l-7-0.8c-2.7-0.4-3.4-1.9-7-2.8c-0.3-2.1,0.1-4.3,1-6.5c1.4-3.3,4.1-6.6,7.9-9.4c1.4,1,7.7,1.1,9.1-0.2
			c0.7,0.5,1.4,1.1,2,1.6c0.1,0.1,0.3,0.2,0.4,0.2c0.2,0,0.3-0.1,0.5-0.2c0.2-0.3,0.2-0.6-0.1-0.9c-0.7-0.6-1.5-1.2-2.2-1.8
			C29,8.4,28.8,7.6,28.1,7c2-2.9,2.6-4.8,1.8-5.8c-0.5-0.7-1.2-0.4-1.5-0.2c-0.5,0.2-0.8,0.2-1.2,0c-0.9-0.5-1.8-0.6-2.7,0
			c-0.5,0.3-0.8,0.3-1.3,0c-0.9-0.5-1.8-0.6-2.7,0c-0.5,0.3-0.7,0.3-1.2,0c-0.3-0.1-1-0.5-1.5,0.2c-0.8,1-0.3,2.8,1.6,5.6
			C19.2,6.9,19.1,7,19,7c-0.7-0.8-1.9-1.5-3.7-1.4c-1.4,0.2-2.5-0.3-3.2-0.7c-0.3-0.2-0.7-0.1-0.9,0.2c-0.2,0.3-0.1,0.7,0.2,0.9
			c0.8,0.5,2.2,1.1,4,0.9c1.3-0.1,2.3,0.5,2.8,1.2c0,0,0,0.1,0,0.1c-0.5,0-1.2,0.1-2,0.2c-1.9,0.4-3.4,1.3-4.1,2.6
			c-0.2,0.3-0.1,0.7,0.2,0.8c0.3,0.2,0.7,0.1,0.9-0.2c1.2-1.9,4-2.2,5.1-2.2c0,0,0,0,0,0c-4,3-6.8,6.3-8.3,9.9
			c-0.9,2.3-1.3,4.6-1.1,6.7C8.3,26,7.7,26,7.1,26v-0.4c0-1-0.8-1.8-1.8-1.8H2.3c-1,0-1.8,0.8-1.8,1.8v14.3c0,1,0.8,1.8,1.8,1.8h2.9
			c1,0,1.8-0.8,1.8-1.8v-0.2l6.4,2.3c0.9,0.3,1.7,0.5,2.7,0.5h9.5c1.4,0,2.9-0.4,4.1-1.1c12.6-7.8,11.9-7.3,11.9-7.3
			C42.6,33.1,42.8,31.6,42,30.6L42,30.6z M27,9.5c-2.3,0.6-4.6,0.6-6.9,0c-1-0.2-0.7-2,0.4-1.7c2.1,0.5,4.1,0.5,6.2,0
			C27.7,7.6,28,9.3,27,9.5z M18.7,2.1C18.7,2.1,18.7,2.1,18.7,2.1c0.9,0.4,1.6,0.4,2.5-0.1c1.1-0.7,1.2,0.4,2.6,0.4
			c0.7,0,1.1-0.2,1.3-0.4c0.5-0.3,0.8-0.3,1.3,0c0.9,0.6,1.6,0.5,2.5,0.1c0.1,0.5-0.2,1.8-2,4.5c-0.9,0-2.3,0.9-6.1,0
			C18.9,3.9,18.6,2.5,18.7,2.1L18.7,2.1z M40.8,33.1L29,40.3c-1,0.6-2.2,1-3.4,1h-9.5c-0.8,0-1.5-0.1-2.2-0.4l-6.8-2.5v-6.6
			c0-0.3-0.3-0.6-0.6-0.6c-0.4,0-0.6,0.3-0.6,0.6v8.1c0,0.3-0.3,0.6-0.6,0.6H2.3c-0.3,0-0.6-0.2-0.6-0.6V25.6C1.8,25.3,2,25,2.3,25
			h2.9c0.3,0,0.6,0.2,0.6,0.6v3.3c0,0.3,0.3,0.6,0.6,0.6c0.4,0,0.6-0.3,0.6-0.6v-1.7c5.2,0,6.4,2.7,10,3.2c0,0,0,0,0,0l7,0.8
			c1.2,0.2,2.2,1.1,2.3,2.3l0,1.2h-6.5c-0.4,0-0.6,0.3-0.6,0.6s0.3,0.6,0.6,0.6h7.2c0.1,0,0.2,0,0.3-0.1c0,0,11.5-4.9,11.5-4.9
			c0.8-0.4,1.6-0.4,2.1,0.3C41.4,31.8,41.3,32.6,40.8,33.1z"/>
		<path d="M23.7,28.4c0.4,0,0.6-0.3,0.6-0.6v-1c1.8-0.3,2.8-1.7,3-3c0.3-1.6-0.6-3-2.2-3.6c-0.3-0.1-0.6-0.2-0.8-0.3V16
			c0.8,0.1,1.2,0.5,1.2,0.5c0.3,0.2,0.7,0.2,0.9,0c0.2-0.2,0.2-0.6,0-0.9c0,0-0.8-0.7-2.1-0.9v-0.9c0-0.3-0.3-0.6-0.6-0.6
			c-0.4,0-0.6,0.3-0.6,0.6v0.9c-0.2,0-0.3,0.1-0.5,0.1c-1.1,0.3-1.9,1.2-2.1,2.3c-0.2,1,0.1,2,0.9,2.6c0.4,0.3,1,0.6,1.7,0.9v4.9
			c-0.7,0-1.2-0.2-2-0.7c-0.3-0.2-0.7-0.1-0.9,0.2c-0.2,0.3-0.1,0.7,0.2,0.9c1,0.7,1.7,0.8,2.7,0.9v1C23.1,28.1,23.4,28.4,23.7,28.4
			L23.7,28.4z M22.2,18.8c-0.4-0.3-0.5-0.8-0.4-1.4c0.1-0.5,0.5-1.2,1.2-1.4c0,0,0.1,0,0.1,0v3.3C22.7,19.2,22.4,19,22.2,18.8z
			 M24.7,21.3c1.6,0.5,1.5,1.9,1.4,2.2c-0.1,0.8-0.8,1.7-1.8,1.9v-4.3C24.5,21.3,24.6,21.3,24.7,21.3L24.7,21.3z"/>
	</g>
</g>
</svg>
