<?xml version="1.0" encoding="utf-8"?>
<!-- Generator: Adobe Illustrator 24.0.2, SVG Export Plug-In . SVG Version: 6.00 Build 0)  -->
<svg version="1.1" id="Layer_1" xmlns="http://www.w3.org/2000/svg" xmlns:xlink="http://www.w3.org/1999/xlink" x="0px" y="0px"
	 viewBox="0 0 65 65" style="enable-background:new 0 0 65 65;" xml:space="preserve">
<style type="text/css">
	.st0{fill:#FFFFFF;}
	.st1{fill:#0B80FF;}
</style>
<circle class="st0" cx="32.5" cy="32.5" r="32.5"/>
<g>
	<path class="st1" d="M28.9,20.7c1.4-1.4,3.3-2.3,5.5-2.3c2.8,0,5.3,1.6,6.6,3.9c1.1-0.5,2.4-0.8,3.7-0.8c5.1,0,9.3,4.2,9.3,9.4
		c0,5.2-4.2,9.4-9.3,9.4c-0.6,0-1.2-0.1-1.8-0.2c-1.2,2.1-3.4,3.5-5.9,3.5c-1.1,0-2.1-0.2-3-0.7c-1.2,2.8-3.9,4.7-7.1,4.7
		c-3.3,0-6.2-2.1-7.3-5.1c-0.5,0.1-1,0.2-1.5,0.2c-4,0-7.2-3.2-7.2-7.3c0-2.7,1.4-5,3.6-6.3c-0.4-1-0.7-2.1-0.7-3.3
		c0-4.6,3.7-8.3,8.4-8.3C25,17.5,27.4,18.7,28.9,20.7"/>
	<path class="st0" d="M17.2,33.1C17.2,33.1,17.2,33.1,17.2,33.1c0.1,0.2,0.2,0.2,0.3,0.2c0.4,0.2,0.9,0.3,1.3,0.3
		c0.9,0,1.4-0.5,1.4-1.2v0c0-0.7-0.6-1-1.2-1.1l-0.1,0c-0.4-0.1-0.8-0.3-0.8-0.6v0c0-0.2,0.2-0.4,0.6-0.4c0.4,0,0.8,0.1,1.1,0.3
		c0,0,0.1,0.1,0.1,0c0,0,0.2-0.4,0.2-0.5c0,0,0-0.1,0-0.1c-0.3-0.2-0.8-0.3-1.3-0.3l-0.1,0c-0.8,0-1.4,0.5-1.4,1.2v0
		c0,0.7,0.6,1,1.2,1.1l0.1,0c0.4,0.1,0.8,0.2,0.8,0.5v0c0,0.3-0.2,0.5-0.6,0.5c-0.1,0-0.6,0-1.1-0.3c-0.1,0-0.1-0.1-0.1-0.1
		c0,0-0.1,0-0.1,0L17.2,33.1L17.2,33.1z M30.1,33.1C30.1,33.1,30.2,33.1,30.1,33.1c0.1,0.2,0.2,0.2,0.3,0.2c0.4,0.2,0.9,0.3,1.3,0.3
		c0.9,0,1.4-0.5,1.4-1.2v0c0-0.7-0.6-1-1.2-1.1l-0.1,0c-0.4-0.1-0.8-0.3-0.8-0.6v0c0-0.2,0.2-0.4,0.6-0.4c0.4,0,0.8,0.1,1.1,0.3
		c0,0,0.1,0.1,0.1,0c0,0,0.2-0.4,0.2-0.5c0,0,0-0.1,0-0.1c-0.3-0.2-0.8-0.3-1.3-0.3l-0.1,0c-0.8,0-1.4,0.5-1.4,1.2v0
		c0,0.7,0.6,1,1.2,1.1l0.1,0c0.4,0.1,0.8,0.2,0.8,0.5v0c0,0.3-0.2,0.5-0.6,0.5c-0.1,0-0.6,0-1.1-0.3c-0.1,0-0.1-0.1-0.1-0.1
		c0,0-0.1,0-0.1,0L30.1,33.1L30.1,33.1z M39,31.6c0,0.4-0.1,0.8-0.2,1c-0.2,0.2-0.4,0.3-0.7,0.3c-0.3,0-0.6-0.1-0.7-0.3
		c-0.2-0.2-0.2-0.6-0.2-1c0-0.4,0.1-0.8,0.2-1c0.2-0.2,0.4-0.3,0.7-0.3c0.3,0,0.6,0.1,0.7,0.3C38.9,30.8,39,31.2,39,31.6 M39.7,30.8
		c-0.1-0.2-0.2-0.5-0.3-0.6c-0.2-0.2-0.3-0.3-0.6-0.4c-0.2-0.1-0.5-0.2-0.8-0.2c-0.3,0-0.6,0.1-0.8,0.2c-0.2,0.1-0.4,0.2-0.6,0.4
		c-0.1,0.2-0.3,0.4-0.3,0.6c-0.1,0.2-0.1,0.5-0.1,0.8c0,0.3,0,0.5,0.1,0.8c0.1,0.2,0.2,0.5,0.3,0.6c0.2,0.2,0.3,0.3,0.6,0.4
		c0.2,0.1,0.5,0.2,0.8,0.2c0.3,0,0.6-0.1,0.8-0.2c0.2-0.1,0.4-0.2,0.6-0.4c0.2-0.2,0.3-0.4,0.3-0.6c0.1-0.2,0.1-0.5,0.1-0.8
		S39.8,31,39.7,30.8 M45.7,32.8C45.7,32.7,45.6,32.8,45.7,32.8c-0.2,0-0.3,0-0.4,0.1c-0.1,0-0.3,0-0.4,0c-0.4,0-0.6-0.1-0.8-0.3
		c-0.2-0.2-0.3-0.5-0.3-1c0-0.4,0.1-0.7,0.3-1c0.2-0.2,0.5-0.4,0.8-0.4c0.3,0,0.5,0,0.8,0.1c0,0,0.1,0,0.1-0.1
		c0.1-0.2,0.1-0.3,0.2-0.5c0-0.1,0-0.1,0-0.1c-0.1,0-0.3-0.1-0.5-0.1c-0.2,0-0.3,0-0.6,0c-0.3,0-0.6,0.1-0.8,0.2
		c-0.2,0.1-0.4,0.2-0.6,0.4c-0.2,0.2-0.3,0.4-0.4,0.6c-0.1,0.2-0.1,0.5-0.1,0.8c0,0.6,0.2,1.1,0.5,1.5c0.3,0.4,0.8,0.5,1.5,0.5
		c0.4,0,0.8-0.1,1-0.2c0,0,0.1,0,0-0.1L45.7,32.8L45.7,32.8z M47,31.2c0-0.2,0.1-0.4,0.2-0.6c0.2-0.2,0.4-0.4,0.7-0.4
		c0.3,0,0.5,0.1,0.7,0.4c0.1,0.2,0.1,0.4,0.2,0.6H47L47,31.2z M49.5,30.6c-0.1-0.2-0.2-0.5-0.3-0.6c-0.2-0.2-0.3-0.3-0.5-0.4
		c-0.2-0.1-0.4-0.1-0.7-0.1c-0.3,0-0.6,0.1-0.8,0.2c-0.2,0.1-0.4,0.3-0.6,0.4c-0.2,0.2-0.3,0.4-0.3,0.6c-0.1,0.2-0.1,0.5-0.1,0.8
		c0,0.3,0,0.6,0.1,0.8c0.1,0.2,0.2,0.5,0.4,0.6c0.2,0.2,0.4,0.3,0.6,0.4c0.3,0.1,0.6,0.1,0.9,0.1c0.7,0,1.1-0.2,1.3-0.2
		c0,0,0.1,0,0-0.1l-0.2-0.5c0-0.1-0.1,0-0.1,0c-0.2,0.1-0.4,0.2-1,0.2c-0.4,0-0.7-0.1-0.9-0.3c-0.2-0.2-0.3-0.5-0.3-0.8l2.5,0
		c0,0,0.1,0,0.1-0.1C49.6,31.7,49.7,31.2,49.5,30.6 M27.1,31.2c0-0.2,0.1-0.4,0.2-0.6c0.2-0.2,0.4-0.4,0.7-0.4
		c0.3,0,0.5,0.1,0.7,0.4c0.1,0.2,0.1,0.4,0.2,0.6H27.1z M29.5,30.6c-0.1-0.2-0.2-0.5-0.3-0.6c-0.2-0.2-0.3-0.3-0.5-0.4
		c-0.2-0.1-0.4-0.1-0.7-0.1c-0.3,0-0.6,0.1-0.8,0.2c-0.2,0.1-0.4,0.3-0.6,0.4c-0.2,0.2-0.3,0.4-0.3,0.6c-0.1,0.2-0.1,0.5-0.1,0.8
		c0,0.3,0,0.6,0.1,0.8c0.1,0.2,0.2,0.5,0.4,0.6c0.2,0.2,0.4,0.3,0.6,0.4c0.3,0.1,0.6,0.1,0.9,0.1c0.7,0,1.1-0.2,1.3-0.2
		c0,0,0.1,0,0-0.1l-0.2-0.5c0-0.1-0.1,0-0.1,0c-0.2,0.1-0.4,0.2-1,0.2c-0.4,0-0.7-0.1-0.9-0.3c-0.2-0.2-0.3-0.5-0.3-0.8l2.5,0
		c0,0,0.1,0,0.1-0.1C29.6,31.7,29.7,31.2,29.5,30.6 M21.7,32.8c-0.1-0.1-0.1-0.1-0.1-0.1c0-0.1-0.1-0.2-0.1-0.3
		c0-0.2,0.1-0.4,0.2-0.5c0,0,0.2-0.2,0.7-0.2c0.4,0,0.7,0.1,0.7,0.1v1.1h0c0,0-0.3,0.1-0.7,0.1C21.9,33,21.7,32.8,21.7,32.8
		 M22.7,31.1c-0.1,0-0.2,0-0.4,0c-0.2,0-0.4,0-0.6,0.1c-0.2,0.1-0.4,0.1-0.5,0.2c-0.2,0.1-0.3,0.2-0.4,0.4c-0.1,0.2-0.1,0.4-0.1,0.6
		c0,0.2,0,0.4,0.1,0.6c0.1,0.2,0.2,0.3,0.3,0.4c0.1,0.1,0.3,0.2,0.5,0.2c0.2,0,0.4,0.1,0.7,0.1c0.3,0,0.5,0,0.8-0.1
		c0.2,0,0.5-0.1,0.6-0.1c0.1,0,0.1,0,0.2,0c0.1,0,0.1-0.1,0.1-0.1l0-2.3c0-0.5-0.1-0.9-0.4-1.1c-0.3-0.2-0.6-0.3-1.1-0.3
		c-0.2,0-0.5,0-0.7,0.1c0,0-0.5,0.1-0.8,0.3c0,0,0,0,0,0.1l0.2,0.5c0,0.1,0.1,0,0.1,0s0,0,0,0c0.5-0.3,1.1-0.3,1.1-0.3
		c0.3,0,0.5,0.1,0.6,0.2c0.1,0.1,0.2,0.3,0.2,0.6v0.1C22.9,31.1,22.7,31.1,22.7,31.1 M42.8,29.8C42.8,29.7,42.8,29.7,42.8,29.8
		c-0.1-0.1-0.3-0.2-0.5-0.2c-0.3,0-0.5,0-0.6,0.1c-0.2,0.1-0.3,0.2-0.4,0.3v-0.3c0,0,0-0.1-0.1-0.1h-0.6c0,0-0.1,0-0.1,0.1v3.7
		c0,0,0,0.1,0.1,0.1h0.7c0,0,0.1,0,0.1-0.1v-1.9c0-0.2,0-0.5,0.1-0.7c0.1-0.2,0.1-0.3,0.2-0.4c0.1-0.1,0.2-0.2,0.3-0.2
		c0.1,0,0.2,0,0.3,0c0.1,0,0.3,0,0.3,0c0,0,0.1,0,0.1-0.1C42.6,30.2,42.7,29.8,42.8,29.8"/>
	<path class="st0" d="M36.6,28c-0.1,0-0.2,0-0.2-0.1c-0.1,0-0.2,0-0.3,0c-0.5,0-0.8,0.1-1.1,0.4c-0.2,0.2-0.4,0.6-0.5,1.1l0,0.2
		h-0.6c0,0-0.1,0-0.1,0.1l-0.1,0.5c0,0,0,0.1,0.1,0.1h0.6l-0.6,3.1c0,0.3-0.1,0.5-0.1,0.6c-0.1,0.2-0.1,0.3-0.2,0.4
		c-0.1,0.1-0.1,0.1-0.2,0.2c-0.1,0-0.2,0-0.3,0c-0.1,0-0.1,0-0.2,0c-0.1,0-0.1,0-0.1,0c0,0-0.1,0-0.1,0c0,0.1-0.2,0.5-0.2,0.5
		c0,0,0,0.1,0,0.1c0.1,0,0.1,0,0.2,0.1c0.1,0,0.3,0,0.4,0c0.2,0,0.4,0,0.6-0.1c0.2-0.1,0.3-0.2,0.5-0.3c0.1-0.2,0.2-0.3,0.3-0.6
		c0.1-0.2,0.2-0.5,0.2-0.8l0.6-3.2H36c0,0,0.1,0,0.1-0.1l0.1-0.5c0,0,0-0.1-0.1-0.1h-0.8c0,0,0-0.3,0.1-0.6c0-0.1,0.1-0.2,0.2-0.3
		c0.1-0.1,0.1-0.1,0.2-0.1c0.1,0,0.2,0,0.3,0c0.1,0,0.1,0,0.2,0c0.1,0,0.1,0,0.1,0c0.1,0,0.1,0,0.1,0L36.6,28
		C36.7,28.1,36.6,28.1,36.6,28 M25.5,33.4C25.5,33.5,25.5,33.5,25.5,33.4l-0.7,0.1c0,0-0.1,0-0.1-0.1v-5.3c0,0,0-0.1,0.1-0.1h0.7
		c0,0,0.1,0,0.1,0.1V33.4z"/>
</g>
</svg>
