<?xml version="1.0" encoding="UTF-8"?>
<svg xmlns="http://www.w3.org/2000/svg" xmlns:xlink="http://www.w3.org/1999/xlink" width="16pt" height="16pt" viewBox="0 0 16 16" version="1.1">
<g id="surface1">
<path style=" stroke:none;fill-rule:nonzero;fill:rgb(10.196078%,11.372549%,16.078431%);fill-opacity:1;" d="M 14.328125 3.828125 L 8.539062 5.683594 C 8.4375 5.683594 8.4375 5.683594 8.4375 5.683594 L 8.339844 5.683594 C 7.066406 5.269531 11.480469 6.710938 2.550781 3.828125 L 2.550781 7.433594 C 2.550781 9.492188 14.421875 9.492188 14.421875 7.433594 Z M 12.167969 7.84375 C 11.972656 7.84375 11.773438 7.949219 11.480469 7.949219 C 11.382812 7.949219 11.382812 7.949219 11.382812 7.84375 C 11.382812 7.742188 11.382812 7.742188 11.480469 7.742188 C 11.773438 7.742188 11.972656 7.640625 12.167969 7.640625 C 12.265625 7.640625 12.265625 7.640625 12.265625 7.742188 C 12.363281 7.742188 12.265625 7.84375 12.167969 7.84375 Z M 13.542969 7.332031 C 13.34375 7.535156 13.148438 7.640625 12.757812 7.742188 C 12.65625 7.742188 12.65625 7.742188 12.65625 7.640625 C 12.65625 7.535156 12.65625 7.535156 12.757812 7.535156 C 13.148438 7.433594 13.246094 7.332031 13.34375 7.332031 L 13.34375 4.960938 C 13.34375 4.859375 13.441406 4.859375 13.441406 4.859375 C 13.542969 4.859375 13.542969 4.960938 13.542969 4.960938 Z M 13.542969 7.332031 "/>
<path style=" stroke:none;fill-rule:nonzero;fill:rgb(10.196078%,11.372549%,16.078431%);fill-opacity:1;" d="M 15.898438 2.796875 L 8.4375 0.324219 L 8.339844 0.324219 L 0.980469 2.796875 C 0.980469 2.796875 0.980469 2.796875 0.882812 2.796875 C 0.882812 2.796875 0.882812 2.796875 0.882812 2.898438 L 0.882812 8.464844 C 0.6875 8.464844 0.492188 8.667969 0.394531 8.875 C 0.394531 8.980469 0.394531 9.082031 0.394531 9.183594 C 0.394531 9.289062 0.492188 9.390625 0.585938 9.492188 L 0.195312 11.140625 C 0.195312 11.246094 0.292969 11.347656 0.292969 11.347656 L 1.570312 11.347656 C 1.667969 11.347656 1.765625 11.246094 1.667969 11.140625 L 1.371094 9.492188 C 1.472656 9.492188 1.570312 9.289062 1.570312 9.183594 L 1.570312 9.082031 C 1.570312 8.773438 1.371094 8.566406 1.078125 8.464844 L 1.078125 3.105469 C 10.988281 6.402344 7.554688 5.269531 8.339844 5.578125 C 9.125 5.371094 5.589844 6.507812 15.796875 3.105469 L 15.898438 3.003906 C 15.898438 2.796875 15.898438 2.796875 15.898438 2.796875 Z M 8.4375 3.3125 C 8.046875 3.3125 7.753906 3.105469 7.753906 2.898438 C 7.753906 2.695312 8.046875 2.488281 8.4375 2.488281 C 8.832031 2.488281 9.125 2.695312 9.125 2.898438 C 9.125 3.105469 8.730469 3.3125 8.4375 3.3125 Z M 8.4375 3.3125 "/>
<path style=" stroke:none;fill-rule:nonzero;fill:rgb(10.196078%,11.372549%,16.078431%);fill-opacity:1;" d="M 10.988281 13.511719 L 10.007812 13.613281 C 10.007812 12.894531 9.8125 12.070312 9.324219 11.65625 C 9.324219 11.65625 9.515625 11.65625 10.007812 11.554688 C 10.695312 11.65625 10.988281 12.789062 10.988281 13.511719 Z M 9.714844 14.644531 C 9.910156 14.335938 10.007812 14.027344 10.007812 13.925781 L 10.988281 13.820312 C 10.792969 14.644531 10.300781 14.542969 9.714844 14.644531 Z M 8.539062 10.628906 C 9.027344 10.832031 8.832031 11.246094 9.125 11.246094 C 9.324219 11.246094 9.222656 10.628906 9.617188 10.113281 C 10.5 9.082031 11.679688 10.523438 10.402344 11.347656 C 9.617188 11.453125 8.539062 11.65625 8.4375 11.65625 C 7.160156 11.246094 7.851562 10.316406 8.539062 10.628906 Z M 8.832031 11.761719 C 9.417969 11.863281 9.714844 12.894531 9.714844 13.613281 L 3.726562 14.4375 C 3.726562 14.4375 3.726562 14.335938 3.828125 14.335938 C 4.121094 13.71875 3.925781 12.894531 3.535156 12.378906 C 3.433594 12.378906 3.335938 12.378906 3.335938 12.277344 C 5.296875 12.277344 8.832031 11.863281 8.832031 11.761719 Z M 2.15625 12.789062 C 2.257812 12.480469 2.550781 12.277344 2.75 12.277344 C 2.847656 12.277344 3.140625 12.378906 3.335938 12.585938 C 3.726562 12.996094 3.828125 13.820312 3.632812 14.335938 C 3.535156 14.4375 3.433594 14.542969 3.335938 14.644531 C 3.238281 14.644531 3.140625 14.542969 3.042969 14.4375 C 2.847656 14.128906 2.75 13.71875 2.847656 13.410156 C 2.847656 13.304688 2.941406 13.203125 3.042969 13.203125 C 3.140625 13.203125 3.140625 13.203125 3.238281 13.304688 C 3.238281 13.410156 3.335938 13.410156 3.433594 13.304688 C 3.535156 13.304688 3.535156 13.203125 3.433594 13.101562 C 3.335938 12.996094 3.238281 12.894531 3.042969 12.894531 C 2.847656 12.894531 2.75 12.996094 2.648438 13.203125 C 2.453125 13.613281 2.550781 14.128906 2.847656 14.542969 C 2.941406 14.75 3.140625 14.851562 3.335938 14.851562 L 3.433594 14.851562 C 3.433594 14.851562 3.433594 14.851562 3.535156 14.851562 L 9.910156 14.027344 C 9.8125 14.4375 9.617188 14.75 9.417969 14.75 C 6.675781 15.160156 3.828125 15.574219 2.75 15.777344 C 1.964844 15.058594 1.765625 13.511719 2.15625 12.789062 Z M 15.207031 14.027344 C 14.421875 14.128906 12.757812 14.335938 10.894531 14.542969 C 11.085938 14.234375 11.1875 13.925781 11.1875 13.820312 L 15.113281 13.304688 Z M 15.503906 12.894531 L 15.207031 12.894531 L 11.285156 13.410156 C 11.285156 12.789062 11.085938 11.863281 10.5 11.453125 C 11.382812 11.246094 14.421875 10.730469 15.207031 10.523438 C 15.992188 11.246094 16.09375 11.964844 15.503906 12.894531 Z M 15.503906 12.894531 "/>
</g>
</svg>
