<?xml version="1.0" encoding="utf-8"?>
<!-- Generator: Adobe Illustrator 24.0.2, SVG Export Plug-In . SVG Version: 6.00 Build 0)  -->
<svg version="1.1" id="Layer_1" xmlns="http://www.w3.org/2000/svg" xmlns:xlink="http://www.w3.org/1999/xlink" x="0px" y="0px"
	 viewBox="0 0 16.5 15.5" style="enable-background:new 0 0 16.5 15.5;" xml:space="preserve">
<style type="text/css">
	.st0{fill:#1A1D29;}
</style>
<g>
	<path class="st0" d="M14.6,3.7L8.7,5.5c-0.1,0-0.1,0-0.1,0H8.5c-1.3-0.4,3.2,1-5.9-1.8v3.5c0,2,12.1,2,12.1,0L14.6,3.7L14.6,3.7z
		 M12.4,7.6c-0.2,0-0.4,0.1-0.7,0.1l0,0c-0.1,0-0.1,0-0.1-0.1s0-0.1,0.1-0.1c0.3,0,0.5-0.1,0.7-0.1c0.1,0,0.1,0,0.1,0.1
		C12.6,7.5,12.5,7.6,12.4,7.6z M13.8,7.1L13.8,7.1c-0.2,0.2-0.4,0.3-0.8,0.4l0,0c-0.1,0-0.1,0-0.1-0.1s0-0.1,0.1-0.1
		c0.4-0.1,0.5-0.2,0.6-0.2V4.8c0-0.1,0.1-0.1,0.1-0.1c0.1,0,0.1,0.1,0.1,0.1L13.8,7.1z"/>
	<path class="st0" d="M16.2,2.7L8.6,0.3H8.5L1,2.7l0,0c0,0,0,0-0.1,0l0,0c0,0,0,0,0,0.1v5.4c-0.2,0-0.4,0.2-0.5,0.4
		c0,0.1,0,0.2,0,0.3s0.1,0.2,0.2,0.3l-0.4,1.6c0,0.1,0.1,0.2,0.1,0.2h1.3c0.1,0,0.2-0.1,0.1-0.2L1.4,9.2c0.1,0,0.2-0.2,0.2-0.3V8.8
		c0-0.3-0.2-0.5-0.5-0.6V3c10.1,3.2,6.6,2.1,7.4,2.4l0,0l0,0C9.3,5.2,5.7,6.3,16.1,3l0.1-0.1C16.2,2.7,16.2,2.7,16.2,2.7z M8.6,3.2
		C8.2,3.2,7.9,3,7.9,2.8s0.3-0.4,0.7-0.4c0.4,0,0.7,0.2,0.7,0.4S8.9,3.2,8.6,3.2z"/>
	<path class="st0" d="M11.2,13.1l-1,0.1c0-0.7-0.2-1.5-0.7-1.9c0,0,0.2,0,0.7-0.1C10.9,11.3,11.2,12.4,11.2,13.1z M9.9,14.2
		c0.2-0.3,0.3-0.6,0.3-0.7l1-0.1C11,14.2,10.5,14.1,9.9,14.2z M8.7,10.3c0.5,0.2,0.3,0.6,0.6,0.6l0,0c0.2,0,0.1-0.6,0.5-1.1
		c0.9-1,2.1,0.4,0.8,1.2c-0.8,0.1-1.9,0.3-2,0.3C7.3,10.9,8,10,8.7,10.3z M9,11.4c0.6,0.1,0.9,1.1,0.9,1.8L3.8,14c0,0,0-0.1,0.1-0.1
		C4.2,13.3,4,12.5,3.6,12c-0.1,0-0.2,0-0.2-0.1C5.4,11.9,9,11.5,9,11.4z M2.2,12.4c0.1-0.3,0.4-0.5,0.6-0.5c0.1,0,0.4,0.1,0.6,0.3
		c0.4,0.4,0.5,1.2,0.3,1.7c-0.1,0.1-0.2,0.2-0.3,0.3l0,0l0,0c-0.1,0-0.2-0.1-0.3-0.2c-0.2-0.3-0.3-0.7-0.2-1c0-0.1,0.1-0.2,0.2-0.2
		l0,0c0.1,0,0.1,0,0.2,0.1c0,0.1,0.1,0.1,0.2,0c0.1,0,0.1-0.1,0-0.2c-0.1-0.1-0.2-0.2-0.4-0.2s-0.3,0.1-0.4,0.3
		c-0.2,0.4-0.1,0.9,0.2,1.3c0.1,0.2,0.3,0.3,0.5,0.3l0,0h0.1c0,0,0,0,0.1,0l0,0l6.5-0.8C10,14,9.8,14.3,9.6,14.3
		c-2.8,0.4-5.7,0.8-6.8,1C2,14.6,1.8,13.1,2.2,12.4z M15.5,13.6c-0.8,0.1-2.5,0.3-4.4,0.5c0.2-0.3,0.3-0.6,0.3-0.7l4-0.5L15.5,13.6z
		 M15.8,12.5h-0.3l0,0l0,0l-4,0.5c0-0.6-0.2-1.5-0.8-1.9c0.9-0.2,4-0.7,4.8-0.9C16.3,10.9,16.4,11.6,15.8,12.5z"/>
</g>
</svg>
