<?xml version="1.0" encoding="UTF-8"?>
<svg xmlns="http://www.w3.org/2000/svg" xmlns:xlink="http://www.w3.org/1999/xlink" width="60pt" height="59pt" viewBox="0 0 60 59" version="1.1">
<defs>
<linearGradient id="linear0" gradientUnits="userSpaceOnUse" x1="38.666" y1="48.0772" x2="38.666" y2="0.9603" gradientTransform="matrix(0.75,0,0,0.7375,0,0)">
<stop offset="0" style="stop-color:rgb(100%,3.137255%,26.666667%);stop-opacity:1;"/>
<stop offset="1" style="stop-color:rgb(6.666667%,9.803922%,15.294118%);stop-opacity:1;"/>
</linearGradient>
<linearGradient id="linear1" gradientUnits="userSpaceOnUse" x1="66.2758" y1="63.6796" x2="66.2758" y2="27.8842" gradientTransform="matrix(0.75,0,0,0.7375,0,0)">
<stop offset="0" style="stop-color:rgb(100%,3.137255%,26.666667%);stop-opacity:1;"/>
<stop offset="1" style="stop-color:rgb(6.666667%,9.803922%,15.294118%);stop-opacity:1;"/>
</linearGradient>
<linearGradient id="linear2" gradientUnits="userSpaceOnUse" x1="33.294" y1="76.3473" x2="33.294" y2="40" gradientTransform="matrix(0.75,0,0,0.7375,0,0)">
<stop offset="0" style="stop-color:rgb(100%,3.137255%,26.666667%);stop-opacity:1;"/>
<stop offset="1" style="stop-color:rgb(6.666667%,9.803922%,15.294118%);stop-opacity:1;"/>
</linearGradient>
<linearGradient id="linear3" gradientUnits="userSpaceOnUse" x1="49.8926" y1="63.7738" x2="49.8926" y2="38.6538" gradientTransform="matrix(0.75,0,0,0.7375,0,0)">
<stop offset="0" style="stop-color:rgb(100%,3.137255%,26.666667%);stop-opacity:1;"/>
<stop offset="1" style="stop-color:rgb(6.666667%,9.803922%,15.294118%);stop-opacity:1;"/>
</linearGradient>
<linearGradient id="linear4" gradientUnits="userSpaceOnUse" x1="54.747" y1="79.0397" x2="54.747" y2="33.1466" gradientTransform="matrix(0.75,0,0,0.7375,0,0)">
<stop offset="0" style="stop-color:rgb(100%,3.137255%,26.666667%);stop-opacity:1;"/>
<stop offset="1" style="stop-color:rgb(6.666667%,9.803922%,15.294118%);stop-opacity:1;"/>
</linearGradient>
</defs>
<g id="surface1">
<path style=" stroke:none;fill-rule:nonzero;fill:url(#linear0);" d="M 8.851562 35.472656 C 12.226562 35.472656 14.925781 32.820312 14.925781 29.5 C 14.925781 28.097656 14.398438 26.769531 13.574219 25.738281 L 18.898438 19.691406 C 19.875 20.28125 20.925781 20.578125 22.050781 20.578125 C 23.625 20.578125 25.199219 19.984375 26.324219 18.804688 L 30.75 21.902344 C 30.675781 22.050781 30.601562 22.125 30.601562 22.273438 C 30.375 22.789062 30.601562 23.378906 31.125 23.601562 C 31.273438 23.671875 31.351562 23.671875 31.5 23.671875 C 31.875 23.671875 32.25 23.453125 32.476562 23.082031 C 33.074219 21.609375 34.574219 20.578125 36.226562 20.578125 C 37.574219 20.648438 38.851562 21.3125 39.601562 22.347656 C 39.824219 22.863281 40.425781 23.082031 40.949219 22.863281 C 41.476562 22.640625 41.699219 22.050781 41.476562 21.535156 C 41.398438 21.460938 41.398438 21.386719 41.324219 21.238281 C 41.101562 20.945312 40.875 20.578125 40.574219 20.355469 L 46.5 12.019531 C 47.324219 12.464844 48.226562 12.683594 49.199219 12.609375 C 52.574219 12.609375 55.273438 9.957031 55.273438 6.636719 C 55.273438 3.320312 52.574219 0.738281 49.199219 0.738281 C 45.824219 0.738281 43.125 3.390625 43.125 6.636719 C 43.125 8.1875 43.726562 9.734375 44.851562 10.839844 L 38.773438 19.175781 C 36.449219 18.070312 33.675781 18.511719 31.875 20.28125 L 27.449219 17.183594 C 27.824219 16.371094 28.050781 15.488281 28.050781 14.601562 C 28.050781 11.285156 25.351562 8.628906 21.976562 8.628906 C 18.601562 8.628906 15.898438 11.285156 15.898438 14.601562 C 15.898438 16.003906 16.425781 17.332031 17.25 18.363281 L 11.925781 24.410156 C 9.074219 22.714844 5.324219 23.601562 3.601562 26.402344 C 1.875 29.203125 2.773438 32.890625 5.625 34.589844 C 6.601562 35.179688 7.726562 35.472656 8.851562 35.472656 Z M 49.199219 2.730469 C 51.449219 2.730469 53.25 4.5 53.25 6.710938 C 53.25 8.921875 51.449219 10.695312 49.199219 10.695312 C 46.949219 10.695312 45.148438 8.921875 45.148438 6.710938 C 45.148438 4.5 46.949219 2.730469 49.199219 2.730469 Z M 21.976562 10.621094 C 24.226562 10.621094 26.023438 12.390625 26.023438 14.601562 C 26.023438 16.816406 24.226562 18.585938 21.976562 18.585938 C 19.726562 18.585938 17.925781 16.816406 17.925781 14.601562 C 17.925781 12.390625 19.726562 10.621094 21.976562 10.621094 Z M 8.851562 25.515625 C 11.101562 25.515625 12.898438 27.289062 12.898438 29.5 C 12.898438 31.710938 11.101562 33.484375 8.851562 33.484375 C 6.601562 33.484375 4.800781 31.710938 4.800781 29.5 C 4.800781 27.289062 6.601562 25.515625 8.851562 25.515625 Z M 8.851562 25.515625 "/>
<path style=" stroke:none;fill-rule:nonzero;fill:url(#linear1);" d="M 54.226562 46.980469 C 54.75 46.980469 55.199219 46.535156 55.199219 46.019531 L 55.199219 21.535156 C 55.199219 21.019531 54.75 20.578125 54.226562 20.578125 L 45.148438 20.578125 C 44.625 20.578125 44.175781 21.019531 44.175781 21.535156 L 44.175781 23.453125 C 44.175781 23.96875 44.625 24.410156 45.148438 24.410156 C 45.675781 24.410156 46.125 23.96875 46.125 23.453125 L 46.125 22.492188 L 53.25 22.492188 L 53.25 45.945312 C 53.25 46.535156 53.699219 46.980469 54.226562 46.980469 Z M 54.226562 46.980469 "/>
<path style=" stroke:none;fill-rule:nonzero;fill:url(#linear2);" d="M 47.175781 54.355469 L 46.199219 54.355469 L 46.199219 51.992188 C 46.199219 51.476562 45.75 51.035156 45.226562 51.035156 C 44.699219 51.035156 44.25 51.476562 44.25 51.992188 L 44.25 54.355469 L 42.226562 54.355469 L 42.226562 53.394531 C 42.226562 52.878906 41.773438 52.4375 41.25 52.4375 C 40.726562 52.4375 40.273438 52.878906 40.273438 53.394531 L 40.273438 54.355469 L 33.226562 54.355469 L 33.226562 53.394531 C 33.226562 52.878906 32.773438 52.4375 32.25 52.4375 C 31.726562 52.4375 31.273438 52.878906 31.273438 53.394531 L 31.273438 54.355469 L 29.25 54.355469 L 29.25 51.035156 C 29.25 50.519531 28.800781 50.078125 28.273438 50.078125 C 27.75 50.078125 27.300781 50.519531 27.300781 51.035156 L 27.300781 54.355469 L 20.25 54.355469 L 20.25 31.492188 L 23.023438 31.492188 C 23.550781 31.492188 24 31.046875 24 30.53125 C 24 30.015625 23.550781 29.574219 23.023438 29.574219 L 19.273438 29.574219 C 18.75 29.574219 18.300781 30.015625 18.300781 30.53125 L 18.300781 54.355469 L 16.273438 54.355469 L 16.273438 38.421875 C 16.273438 37.90625 15.824219 37.464844 15.300781 37.464844 L 5.773438 37.464844 C 5.25 37.464844 4.800781 37.90625 4.800781 38.421875 L 4.800781 54.28125 L 2.773438 54.28125 C 2.25 54.28125 1.800781 54.722656 1.800781 55.238281 C 1.800781 55.753906 2.25 56.199219 2.773438 56.199219 L 47.175781 56.199219 C 47.699219 56.199219 48.148438 55.753906 48.148438 55.238281 C 48.226562 54.796875 47.773438 54.355469 47.175781 54.355469 Z M 6.824219 54.355469 L 6.824219 39.457031 L 13.875 39.457031 L 13.875 54.355469 Z M 6.824219 54.355469 "/>
<path style=" stroke:none;fill-rule:nonzero;fill:url(#linear3);" d="M 37.425781 28.542969 C 32.25 28.542969 27.976562 32.671875 27.976562 37.832031 C 27.976562 42.921875 32.175781 47.125 37.425781 47.125 C 42.601562 47.125 46.875 42.996094 46.875 37.832031 C 46.800781 32.671875 42.601562 28.542969 37.425781 28.542969 Z M 37.425781 45.0625 C 33.375 45.0625 30 41.816406 30 37.761719 C 30 33.703125 33.300781 30.457031 37.425781 30.457031 C 41.550781 30.457031 44.851562 33.703125 44.851562 37.761719 C 44.851562 41.816406 41.476562 45.0625 37.425781 45.0625 Z M 37.425781 45.0625 "/>
<path style=" stroke:none;fill-rule:nonzero;fill:url(#linear4);" d="M 57.375 53.246094 L 52.351562 48.304688 C 51.449219 47.421875 50.101562 47.199219 48.976562 47.714844 L 47.625 46.390625 L 47.550781 46.390625 C 52.425781 40.859375 51.824219 32.449219 46.199219 27.65625 C 40.574219 22.863281 32.023438 23.453125 27.148438 28.984375 C 22.273438 34.515625 22.875 42.921875 28.5 47.714844 C 33.601562 52.066406 41.101562 52.066406 46.125 47.714844 L 46.125 47.789062 L 47.476562 49.117188 C 46.949219 50.222656 47.175781 51.550781 48.074219 52.4375 L 53.101562 57.378906 C 53.625 57.96875 54.449219 58.261719 55.199219 58.261719 C 56.023438 58.261719 56.773438 57.96875 57.300781 57.378906 C 58.5 56.269531 58.574219 54.425781 57.375 53.246094 Z M 37.351562 48.96875 C 31.050781 48.96875 25.949219 43.953125 25.949219 37.761719 C 25.949219 31.566406 31.050781 26.550781 37.351562 26.550781 C 43.648438 26.550781 48.75 31.566406 48.75 37.761719 C 48.75 43.953125 43.648438 48.96875 37.351562 48.96875 Z M 55.949219 56.050781 C 55.574219 56.417969 54.976562 56.417969 54.601562 56.050781 L 49.574219 51.109375 C 49.199219 50.738281 49.199219 50.148438 49.574219 49.78125 C 49.726562 49.558594 49.949219 49.484375 50.25 49.414062 C 50.476562 49.414062 50.773438 49.484375 50.925781 49.707031 L 55.949219 54.648438 C 56.324219 54.945312 56.398438 55.609375 55.949219 56.050781 C 56.023438 55.976562 56.023438 56.050781 55.949219 56.050781 Z M 55.949219 56.050781 "/>
</g>
</svg>
