<?xml version="1.0" encoding="utf-8"?>
<!-- Generator: Adobe Illustrator 24.0.2, SVG Export Plug-In . SVG Version: 6.00 Build 0)  -->
<svg version="1.1" id="Layer_1" xmlns="http://www.w3.org/2000/svg" xmlns:xlink="http://www.w3.org/1999/xlink" x="0px" y="0px"
	 viewBox="0 0 62 62" style="enable-background:new 0 0 62 62;" xml:space="preserve">
<style type="text/css">
	.st0{fill:url(#SVGID_1_);}
	.st1{fill:url(#SVGID_2_);}
	.st2{fill:url(#SVGID_3_);}
	.st3{fill:url(#SVGID_4_);}
	.st4{fill:url(#SVGID_5_);}
	.st5{fill:url(#SVGID_6_);}
	.st6{fill:url(#SVGID_7_);}
	.st7{fill:url(#SVGID_8_);}
	.st8{fill:url(#SVGID_9_);}
	.st9{fill:url(#SVGID_10_);}
	.st10{fill:url(#SVGID_11_);}
	.st11{fill:url(#SVGID_12_);}
	.st12{fill:url(#SVGID_13_);}
	.st13{fill:url(#SVGID_14_);}
	.st14{fill:url(#SVGID_15_);}
	.st15{fill:url(#SVGID_16_);}
	.st16{fill:url(#SVGID_17_);}
	.st17{fill:url(#SVGID_18_);}
	.st18{fill:url(#SVGID_19_);}
	.st19{fill:url(#SVGID_20_);}
	.st20{fill:url(#SVGID_21_);}
	.st21{fill:url(#SVGID_22_);}
	.st22{fill:url(#SVGID_23_);}
</style>
<g>
	<linearGradient id="SVGID_1_" gradientUnits="userSpaceOnUse" x1="24" y1="56.5998" x2="26" y2="56.5998">
		<stop  offset="0" style="stop-color:#000046"/>
		<stop  offset="1" style="stop-color:#1CB5E0"/>
	</linearGradient>
	<rect x="24" y="55.6" class="st0" width="2" height="2"/>
	<linearGradient id="SVGID_2_" gradientUnits="userSpaceOnUse" x1="20" y1="56.5998" x2="22" y2="56.5998">
		<stop  offset="0" style="stop-color:#000046"/>
		<stop  offset="1" style="stop-color:#1CB5E0"/>
	</linearGradient>
	<rect x="20" y="55.6" class="st1" width="2" height="2"/>
	<linearGradient id="SVGID_3_" gradientUnits="userSpaceOnUse" x1="16" y1="56.5998" x2="18" y2="56.5998">
		<stop  offset="0" style="stop-color:#000046"/>
		<stop  offset="1" style="stop-color:#1CB5E0"/>
	</linearGradient>
	<rect x="16" y="55.6" class="st2" width="2" height="2"/>
	<linearGradient id="SVGID_4_" gradientUnits="userSpaceOnUse" x1="34" y1="13" x2="61" y2="13">
		<stop  offset="0" style="stop-color:#000046"/>
		<stop  offset="1" style="stop-color:#1CB5E0"/>
	</linearGradient>
	<path class="st3" d="M60,6.6h-3.7l-5.7-3.8c-0.2-0.1-0.4-0.2-0.6-0.2h-5c-0.3,0-0.5,0.1-0.7,0.3L43,4.2c-2.4-1.7-5-3-7.8-3.7
		c-0.3-0.1-0.6,0-0.9,0.2C34.1,0.8,34,1.1,34,1.4v23.2c0,0.6,0.4,1,1,1h17c0.6,0,1-0.4,1-1v-1c0-0.7,0-1.3-0.1-2H60c0.6,0,1-0.4,1-1
		v-13C61,7,60.6,6.6,60,6.6z M51,23.6H36V2.7c2.4,0.8,4.5,2,6.5,3.5c1.8,1.4,3.3,3,4.6,4.8c0.6,0.8,1.1,1.7,1.5,2.5H45
		c-1.1,0-2.1,0.4-2.8,1.2c-0.8,0.8-1.2,1.8-1.2,2.8c0,2.2,1.8,4,4,4h5.9C51,22.3,51,22.9,51,23.6z M59,19.6h-7.2H45
		c-1.1,0-2-0.9-2-2c0-0.5,0.2-1,0.6-1.4c0.4-0.4,0.9-0.6,1.4-0.6h5.2H52c0.4,0,0.8-0.2,0.9-0.6c0.2-0.4,0.1-0.8-0.2-1.1l-4.1-4.1
		c-1.2-1.7-2.5-3.1-4-4.4l0.8-0.8h4.3l5.7,3.8c0.2,0.1,0.4,0.2,0.6,0.2h3V19.6z"/>
	<linearGradient id="SVGID_5_" gradientUnits="userSpaceOnUse" x1="1" y1="32.5998" x2="53.9999" y2="32.5998">
		<stop  offset="0" style="stop-color:#000046"/>
		<stop  offset="1" style="stop-color:#1CB5E0"/>
	</linearGradient>
	<path class="st4" d="M7,60.6c0,0.6,0.4,1,1,1h23c0.6,0,1-0.4,1-1v-3h1h9c2.8,0,5-2.2,5-5v-8h6c0.3,0,0.6-0.2,0.8-0.4
		s0.2-0.6,0.1-0.9L49,30.4v-1.8c0-0.6-0.4-1-1-1H32V5.4c0-0.5-0.3-0.8-0.7-1c-2-0.6-4.2-0.8-6.3-0.8c-13.2,0-24,10.8-24,24v6.5
		C1,39.7,3.1,45,7,49V60.6z M3,34.1v-6.5c0-12.1,9.9-22,22-22c1.7,0,3.4,0.2,5,0.6v22.4c0,0.6,0.4,1,1,1h16v1c0,0.1,0,0.2,0.1,0.4
		l4.5,11.6H46c-0.6,0-1,0.4-1,1v4.9c-2.3-0.5-4-2.5-4-4.9h-2c0,3.5,2.6,6.4,6,6.9v2.1c0,1.7-1.3,3-3,3h-9h-2h-3v2h2v2H9v-11
		c0-0.3-0.1-0.5-0.3-0.7C5,44.2,3,39.3,3,34.1z"/>
	<linearGradient id="SVGID_6_" gradientUnits="userSpaceOnUse" x1="26" y1="28.5998" x2="28" y2="28.5998">
		<stop  offset="0" style="stop-color:#000046"/>
		<stop  offset="1" style="stop-color:#1CB5E0"/>
	</linearGradient>
	<rect x="26" y="27.6" class="st5" width="2" height="2"/>
	<linearGradient id="SVGID_7_" gradientUnits="userSpaceOnUse" x1="26" y1="24.5998" x2="28" y2="24.5998">
		<stop  offset="0" style="stop-color:#000046"/>
		<stop  offset="1" style="stop-color:#1CB5E0"/>
	</linearGradient>
	<rect x="26" y="23.6" class="st6" width="2" height="2"/>
	<linearGradient id="SVGID_8_" gradientUnits="userSpaceOnUse" x1="22" y1="24.5998" x2="24" y2="24.5998">
		<stop  offset="0" style="stop-color:#000046"/>
		<stop  offset="1" style="stop-color:#1CB5E0"/>
	</linearGradient>
	<rect x="22" y="23.6" class="st7" width="2" height="2"/>
	<linearGradient id="SVGID_9_" gradientUnits="userSpaceOnUse" x1="26" y1="20.5998" x2="28" y2="20.5998">
		<stop  offset="0" style="stop-color:#000046"/>
		<stop  offset="1" style="stop-color:#1CB5E0"/>
	</linearGradient>
	<rect x="26" y="19.6" class="st8" width="2" height="2"/>
	<linearGradient id="SVGID_10_" gradientUnits="userSpaceOnUse" x1="26" y1="16.5998" x2="28" y2="16.5998">
		<stop  offset="0" style="stop-color:#000046"/>
		<stop  offset="1" style="stop-color:#1CB5E0"/>
	</linearGradient>
	<rect x="26" y="15.6" class="st9" width="2" height="2"/>
	<linearGradient id="SVGID_11_" gradientUnits="userSpaceOnUse" x1="22" y1="16.5998" x2="24" y2="16.5998">
		<stop  offset="0" style="stop-color:#000046"/>
		<stop  offset="1" style="stop-color:#1CB5E0"/>
	</linearGradient>
	<rect x="22" y="15.6" class="st10" width="2" height="2"/>
	<linearGradient id="SVGID_12_" gradientUnits="userSpaceOnUse" x1="26" y1="12.5998" x2="28" y2="12.5998">
		<stop  offset="0" style="stop-color:#000046"/>
		<stop  offset="1" style="stop-color:#1CB5E0"/>
	</linearGradient>
	<rect x="26" y="11.6" class="st11" width="2" height="2"/>
	<linearGradient id="SVGID_13_" gradientUnits="userSpaceOnUse" x1="26" y1="8.5998" x2="28" y2="8.5998">
		<stop  offset="0" style="stop-color:#000046"/>
		<stop  offset="1" style="stop-color:#1CB5E0"/>
	</linearGradient>
	<rect x="26" y="7.6" class="st12" width="2" height="2"/>
	<linearGradient id="SVGID_14_" gradientUnits="userSpaceOnUse" x1="21" y1="8.5998" x2="23" y2="8.5998">
		<stop  offset="0" style="stop-color:#000046"/>
		<stop  offset="1" style="stop-color:#1CB5E0"/>
	</linearGradient>
	<rect x="21" y="7.6" class="st13" width="2" height="2"/>
	<linearGradient id="SVGID_15_" gradientUnits="userSpaceOnUse" x1="26" y1="32.5998" x2="28" y2="32.5998">
		<stop  offset="0" style="stop-color:#000046"/>
		<stop  offset="1" style="stop-color:#1CB5E0"/>
	</linearGradient>
	<rect x="26" y="31.6" class="st14" width="2" height="2"/>
	<linearGradient id="SVGID_16_" gradientUnits="userSpaceOnUse" x1="26" y1="36.5998" x2="28" y2="36.5998">
		<stop  offset="0" style="stop-color:#000046"/>
		<stop  offset="1" style="stop-color:#1CB5E0"/>
	</linearGradient>
	<rect x="26" y="35.6" class="st15" width="2" height="2"/>
	<linearGradient id="SVGID_17_" gradientUnits="userSpaceOnUse" x1="22" y1="32.5998" x2="24" y2="32.5998">
		<stop  offset="0" style="stop-color:#000046"/>
		<stop  offset="1" style="stop-color:#1CB5E0"/>
	</linearGradient>
	<rect x="22" y="31.6" class="st16" width="2" height="2"/>
	<linearGradient id="SVGID_18_" gradientUnits="userSpaceOnUse" x1="30" y1="32.5998" x2="32" y2="32.5998">
		<stop  offset="0" style="stop-color:#000046"/>
		<stop  offset="1" style="stop-color:#1CB5E0"/>
	</linearGradient>
	<rect x="30" y="31.6" class="st17" width="2" height="2"/>
	<linearGradient id="SVGID_19_" gradientUnits="userSpaceOnUse" x1="34" y1="32.5998" x2="36" y2="32.5998">
		<stop  offset="0" style="stop-color:#000046"/>
		<stop  offset="1" style="stop-color:#1CB5E0"/>
	</linearGradient>
	<rect x="34" y="31.6" class="st18" width="2" height="2"/>
	<linearGradient id="SVGID_20_" gradientUnits="userSpaceOnUse" x1="34" y1="36.5998" x2="36" y2="36.5998">
		<stop  offset="0" style="stop-color:#000046"/>
		<stop  offset="1" style="stop-color:#1CB5E0"/>
	</linearGradient>
	<rect x="34" y="35.6" class="st19" width="2" height="2"/>
	<linearGradient id="SVGID_21_" gradientUnits="userSpaceOnUse" x1="38" y1="32.5998" x2="40" y2="32.5998">
		<stop  offset="0" style="stop-color:#000046"/>
		<stop  offset="1" style="stop-color:#1CB5E0"/>
	</linearGradient>
	<rect x="38" y="31.6" class="st20" width="2" height="2"/>
	<linearGradient id="SVGID_22_" gradientUnits="userSpaceOnUse" x1="42" y1="32.5998" x2="44" y2="32.5998">
		<stop  offset="0" style="stop-color:#000046"/>
		<stop  offset="1" style="stop-color:#1CB5E0"/>
	</linearGradient>
	<rect x="42" y="31.6" class="st21" width="2" height="2"/>
	<linearGradient id="SVGID_23_" gradientUnits="userSpaceOnUse" x1="42" y1="36.5998" x2="44" y2="36.5998">
		<stop  offset="0" style="stop-color:#000046"/>
		<stop  offset="1" style="stop-color:#1CB5E0"/>
	</linearGradient>
	<rect x="42" y="35.6" class="st22" width="2" height="2"/>
</g>
</svg>
