<?xml version="1.0" encoding="utf-8"?>
<!-- Generator: Adobe Illustrator 24.0.2, SVG Export Plug-In . SVG Version: 6.00 Build 0)  -->
<svg version="1.1"
	 id="Layer_1" xmlns:cc="http://creativecommons.org/ns#" xmlns:dc="http://purl.org/dc/elements/1.1/" xmlns:inkscape="http://www.inkscape.org/namespaces/inkscape" xmlns:rdf="http://www.w3.org/1999/02/22-rdf-syntax-ns#" xmlns:sodipodi="http://sodipodi.sourceforge.net/DTD/sodipodi-0.dtd" xmlns:svg="http://www.w3.org/2000/svg"
	 xmlns="http://www.w3.org/2000/svg" xmlns:xlink="http://www.w3.org/1999/xlink" x="0px" y="0px" viewBox="0 0 13 15"
	 style="enable-background:new 0 0 13 15;" xml:space="preserve">
<style type="text/css">
	.st0{fill:url(#SVGID_1_);}
</style>
<g transform="translate(0,-952.36218)">
	
		<linearGradient id="SVGID_1_" gradientUnits="userSpaceOnUse" x1="0" y1="1091.85" x2="13" y2="1091.85" gradientTransform="matrix(1 0 0 1 0 -132)">
		<stop  offset="0" style="stop-color:#FFAB1D"/>
		<stop  offset="1" style="stop-color:#F8501C"/>
	</linearGradient>
	<path class="st0" d="M10.5,952.4c-1.4,0-2.5,1.1-2.5,2.5c0,0.3,0,0.5,0.1,0.8L4,957.9c-0.4-0.3-1-0.6-1.6-0.6
		c-1.4,0-2.5,1.1-2.5,2.5s1.1,2.5,2.5,2.5c0.6,0,1.1-0.2,1.6-0.6l4.1,2.3C8,964.2,8,964.5,8,964.8c0,1.4,1.1,2.5,2.5,2.5
		s2.5-1.1,2.5-2.5s-1.1-2.5-2.5-2.5c-0.7,0-1.3,0.3-1.8,0.7l-4-2.2c0.1-0.3,0.2-0.7,0.2-1c0-0.4-0.1-0.7-0.2-1l4-2.2
		c0.5,0.5,1.1,0.7,1.8,0.7c1.4,0,2.5-1.1,2.5-2.5S11.9,952.4,10.5,952.4L10.5,952.4z M10.5,953.5c0.7,0,1.3,0.6,1.3,1.3
		s-0.6,1.3-1.3,1.3s-1.3-0.6-1.3-1.3S9.8,953.5,10.5,953.5z M2.5,958.5c0.7,0,1.3,0.6,1.3,1.3s-0.6,1.3-1.3,1.3s-1.3-0.6-1.3-1.3
		S1.7,958.5,2.5,958.5z M10.5,963.5c0.7,0,1.3,0.6,1.3,1.3s-0.6,1.3-1.3,1.3s-1.3-0.6-1.3-1.3S9.8,963.5,10.5,963.5z"/>
</g>
</svg>
