<?xml version="1.0" encoding="utf-8"?>
<!-- Generator: Adobe Illustrator 24.0.2, SVG Export Plug-In . SVG Version: 6.00 Build 0)  -->
<svg version="1.1" id="Layer_1" xmlns="http://www.w3.org/2000/svg" xmlns:xlink="http://www.w3.org/1999/xlink" x="0px" y="0px"
	 viewBox="0 0 40 32" style="enable-background:new 0 0 40 32;" xml:space="preserve">
<style type="text/css">
	.st0{fill:#FFFFFF;}
</style>
<g>
	<path class="st0" d="M2.5,4.5c0,8.5,0,16.9,0,25.3c11.7,0,23.4,0,35.1,0c0-8.4,0-16.9,0-25.3c-0.1,0-0.3,0-0.4,0c-1,0-2,0-3.1,0
		c-0.6,0-1-0.4-1.1-0.9c0-0.5,0.5-1,1-1c1.5,0,3,0,4.5,0c0.5,0,0.8,0.4,0.9,0.9c0,0.1,0,0.2,0,0.4c0,8.9,0,17.9,0,26.8
		c0,0.9-0.4,1.2-1.2,1.2c-12.2,0-24.4,0-36.5,0c-0.9,0-1.2-0.4-1.2-1.2c0-8.9,0-17.8,0-26.8c0-0.9,0.4-1.2,1.2-1.2c1.5,0,3,0,4.5,0
		c0.5,0,0.9,0.3,1,0.8c0.1,0.6-0.3,1.1-1,1.1c-1.1,0-2.3,0-3.4,0C2.8,4.5,2.7,4.5,2.5,4.5z"/>
	<path class="st0" d="M16.1,17.2c0-1.4,0-2.8,0-4.3c0-0.4,0.1-0.7,0.4-0.9c0.3-0.2,0.6-0.1,0.9,0.1c2.3,1.4,4.5,2.9,6.8,4.3
		c0.6,0.4,0.6,1,0,1.5c-2.3,1.4-4.5,2.8-6.8,4.2c-0.3,0.2-0.6,0.3-0.9,0.1c-0.3-0.2-0.4-0.5-0.4-0.9C16.1,20,16.1,18.6,16.1,17.2z
		 M18,19.6c1.3-0.8,2.6-1.6,3.9-2.4c-1.3-0.8-2.6-1.6-3.9-2.4C18,16.4,18,17.9,18,19.6z"/>
	<path class="st0" d="M20.1,4.5c-2.3,0-4.5,0-6.8,0c-0.6,0-1-0.3-1.1-0.9c0-0.5,0.3-1,0.9-1c0,0,0.1,0,0.1,0c4.6,0,9.2,0,13.8,0
		c0.6,0,1,0.4,1,0.9c0,0.5-0.4,1-0.9,1c-0.4,0-0.8,0-1.2,0C24.1,4.5,22.1,4.5,20.1,4.5z"/>
	<path class="st0" d="M10.6,3.6c0,0.7,0,1.4,0,2.2c0,0.6-0.4,1.1-1,1.1c-0.6,0-1-0.4-1-1.1c0-1.5,0-2.9,0-4.4c0-0.6,0.4-1.1,0.9-1.1
		c0.6,0,1,0.4,1,1.1C10.6,2.1,10.6,2.8,10.6,3.6z"/>
	<path class="st0" d="M31.6,3.5c0,0.7,0,1.5,0,2.2c0,0.6-0.4,1-0.9,1c-0.5,0-0.9-0.4-1-1c0-1.5,0-3,0-4.5c0-0.6,0.4-1,1-1
		c0.5,0,0.9,0.4,0.9,1C31.6,2,31.6,2.8,31.6,3.5z"/>
</g>
</svg>
