<?xml version="1.0" encoding="utf-8"?>
<!-- Generator: Adobe Illustrator 24.0.2, SVG Export Plug-In . SVG Version: 6.00 Build 0)  -->
<svg version="1.1" id="Layer_1" xmlns="http://www.w3.org/2000/svg" xmlns:xlink="http://www.w3.org/1999/xlink" x="0px" y="0px"
	 viewBox="0 0 77 44" style="enable-background:new 0 0 77 44;" xml:space="preserve">
<style type="text/css">
	.st0{fill:#FFFFFF;}
	.st1{fill:#FB7360;}
</style>
<path class="st0" d="M66.9,25.4C66.9,25.4,66.9,25.4,66.9,25.4c-0.6,0.6-1.3,1.1-2,1.4c-0.5,0.2-1,0.3-1.5,0.3c-0.5,0-1-0.1-1.5-0.3
	c-0.7-0.3-1.4-0.8-2-1.4c0,0,0,0,0,0c0,0.8-0.6,1.2-1,1.4c0,0-0.1,0-0.1,0.1c-0.1,0-0.2,0.1-0.2,0.1c0,0,0,0,0,0
	c0,0.2,0.1,0.4,0.2,0.6c0.7,0.8,2.5,2,4.6,2c2.2,0,4-1.2,4.6-2c0.1-0.2,0.2-0.4,0.2-0.6c0,0,0,0,0,0C67.9,26.8,66.9,26.4,66.9,25.4z
	"/>
<path class="st1" d="M76.4,32.8c-1.5-5.1-4.3-5.3-4.9-5.5c-0.1,0-0.1,0-0.2,0c-1.8-1.7-0.6-8.6-0.6-8.6c0-2.7-0.5-4.7-1.2-6.1
	l-0.1-0.7l0.8-0.5l0.4-0.2l1.7-1c0.1-0.1,0.1-0.3,0-0.4l-8.9-3.7c-0.1-0.1-0.3-0.1-0.4,0l-8.9,3.7c-0.1,0.1-0.1,0.3,0,0.4l0.7,0.4
	l0,0.6c-0.2,0-0.4,0.2-0.4,0.5c0,0.2,0.1,0.4,0.3,0.5l-0.4,5.4l0.5,1.6l0.5-1.6l-0.4-5.4c0.2-0.1,0.3-0.2,0.3-0.5
	c0-0.2-0.2-0.4-0.4-0.5l0-0.5l0.9,0.5l0,0l0.7,0.4l-0.2,2.2c-0.4,1.3-0.7,2.8-0.7,4.8c0,0,1.2,7-0.6,8.6c-0.1,0-0.1,0-0.2,0
	c-0.4,0.1-1.7,0.2-3,1.8c1.6,0.9,3.4,2.8,4.7,7c0.1,0.4,0.2,0.9,0.2,1.3c2.1,0.3,4.3,0.4,6.4,0.4c5.2,0,11.7-0.7,12.9-3
	C76.5,34.2,76.6,33.5,76.4,32.8z M68.2,26.9c0,0.2-0.1,0.4-0.2,0.6c-0.6,0.8-2.5,2-4.6,2c-2.2,0-4-1.2-4.6-2
	c-0.1-0.2-0.2-0.4-0.2-0.6c0,0,0,0,0,0c0,0,0.1,0,0.2-0.1c0,0,0.1,0,0.1-0.1c0.4-0.2,1-0.6,1-1.4c0,0,0,0,0,0c0.6,0.6,1.3,1.1,2,1.4
	c0.5,0.2,1,0.3,1.5,0.3c0.5,0,1-0.1,1.5-0.3c0.7-0.3,1.4-0.8,2-1.4c0,0,0,0,0,0C66.9,26.4,67.9,26.8,68.2,26.9
	C68.2,26.9,68.2,26.9,68.2,26.9z M69.3,19.7c-0.1,0.5-0.3,1-0.5,1.2C68.7,21,68.6,21,68.5,21c-0.1,0-0.1,0-0.1-0.1
	c-0.5,1.6-1.5,3.1-2.7,4.1c-0.7,0.5-1.5,0.9-2.3,0.9c-0.8,0-1.6-0.3-2.4-0.9c-1.2-0.9-2.2-2.5-2.7-4.1c0,0-0.1,0.1-0.1,0.1
	c-0.1,0-0.2,0-0.3-0.1c-0.2-0.2-0.4-0.6-0.5-1.2c-0.1-0.7,0-1.3,0.2-1.4c0,0,0.1,0,0.1,0c0.1,0,0.2,0,0.3,0.1c0,0,0,0,0,0
	c0-0.2,0.3-2.2,1.5-3l2.7,1c1,0.4,1.2,0.5,1.9,0.2l4.5,2.3l0.6-0.6c0,0,0,0,0.1,0C69.3,18.4,69.5,19,69.3,19.7z"/>
<path class="st1" d="M24.9,29.1c-1.3-1.6-2.6-1.7-3-1.8c-0.1,0-0.1,0-0.2,0c-1.8-1.7-0.6-8.6-0.6-8.6c0-2.7-0.5-4.7-1.2-6.1
	l-0.1-0.7l0.8-0.5l0.4-0.2l1.7-1c0.1-0.1,0.1-0.3,0-0.4l-8.9-3.7c-0.1-0.1-0.3-0.1-0.4,0L4.6,9.9c-0.1,0.1-0.1,0.3,0,0.4l0.7,0.4
	l0,0.6c-0.2,0-0.4,0.2-0.4,0.5c0,0.2,0.1,0.4,0.3,0.5l-0.4,5.4l0.5,1.6l0.5-1.6l-0.4-5.4c0.2-0.1,0.3-0.2,0.3-0.5
	c0-0.2-0.2-0.4-0.4-0.5l0-0.5l0.9,0.5l0,0l0.7,0.4l-0.2,2.2c-0.4,1.3-0.7,2.8-0.7,4.8c0,0,1.2,7-0.6,8.6c-0.1,0-0.1,0-0.2,0
	c-0.6,0.1-3.4,0.3-4.9,5.5c-0.2,0.7-0.1,1.5,0.2,2.1c1.2,2.3,7.7,3,12.9,3c2.1,0,4.3-0.1,6.4-0.4c0-0.5,0-0.9,0.2-1.4
	C21.5,31.9,23.4,30,24.9,29.1z M18.6,26.9c0,0.2-0.1,0.4-0.2,0.6c-0.6,0.8-2.5,2-4.6,2s-4-1.2-4.6-2c-0.1-0.2-0.2-0.4-0.2-0.6
	c0,0,0,0,0,0c0,0,0.1,0,0.2-0.1c0,0,0.1,0,0.1-0.1c0.4-0.2,1-0.6,1-1.4l0,0c0.6,0.6,1.3,1.1,2,1.4c0.5,0.2,1,0.3,1.5,0.3
	c0.5,0,1-0.1,1.5-0.3c0.7-0.3,1.4-0.8,2-1.4c0,0,0,0,0,0C17.3,26.4,18.3,26.8,18.6,26.9C18.6,26.9,18.6,26.9,18.6,26.9z M19.7,19.7
	c-0.1,0.5-0.3,1-0.5,1.2C19.1,21,19,21,18.9,21c-0.1,0-0.1,0-0.1-0.1c-0.5,1.6-1.5,3.1-2.7,4.1c-0.7,0.5-1.5,0.9-2.3,0.9
	c-0.8,0-1.6-0.3-2.4-0.9c-1.2-0.9-2.2-2.5-2.7-4.1c0,0-0.1,0.1-0.1,0.1c-0.1,0-0.2,0-0.3-0.1c-0.2-0.2-0.4-0.6-0.5-1.2
	c-0.1-0.7,0-1.3,0.2-1.4c0,0,0.1,0,0.1,0c0.1,0,0.2,0,0.3,0.1c0,0,0,0,0,0c0-0.2,0.3-2.2,1.5-3l2.7,1c1,0.4,1.2,0.5,1.9,0.2l4.5,2.3
	l0.6-0.6c0,0,0,0,0.1,0C19.7,18.4,19.8,19,19.7,19.7z"/>
<path class="st1" d="M49.5,29.1c-0.1,0-0.2,0-0.3-0.1c-2.4-2.2-0.8-11.5-0.8-11.5c0-3.6-0.6-6.2-1.6-8.1l-0.1-0.9l1-0.6l0.5-0.3
	l2.2-1.3c0.1-0.1,0.1-0.4,0-0.5L38.7,0.9c-0.1-0.1-0.2-0.1-0.3-0.1c-0.1,0-0.2,0-0.3,0.1L26.4,5.8c-0.1,0.1-0.1,0.4,0,0.5l0.9,0.5
	l-0.1,0.8c-0.3,0.1-0.5,0.3-0.5,0.6c0,0.3,0.2,0.5,0.4,0.6l-0.5,7.2l0.7,2.1l0.7-2.1l-0.5-7.2C27.8,8.8,28,8.5,28,8.2
	c0-0.3-0.2-0.6-0.5-0.6l-0.1-0.7l1.2,0.7l0.1,0l1,0.6l-0.2,2.9c-0.5,1.7-0.9,3.8-0.9,6.4c0,0,1.6,9.3-0.8,11.5c-0.1,0-0.2,0-0.3,0.1
	c-0.8,0.2-4.5,0.4-6.5,7.3c-0.3,0.9-0.2,1.9,0.3,2.8c1.6,3.1,10.2,4,17.2,4c0,0,0,0,0,0c0,0,0,0,0,0c6.9,0,15.5-1,17.1-4
	c0.4-0.8,0.5-1.8,0.3-2.8C53.9,29.5,50.3,29.3,49.5,29.1z M45,28.6c0,0.3-0.1,0.5-0.3,0.7c-0.9,1.1-3.3,2.7-6.2,2.7
	c-2.9,0-5.3-1.6-6.2-2.7c-0.2-0.2-0.3-0.5-0.3-0.7c0,0,0,0,0,0c0,0,0.1,0,0.3-0.1c0.1,0,0.1-0.1,0.2-0.1c0.5-0.3,1.3-0.8,1.3-1.9
	c0,0,0,0,0,0c0.8,0.8,1.7,1.5,2.7,1.9c0.7,0.3,1.4,0.4,2.1,0.4c0.7,0,1.4-0.1,2.1-0.4c1-0.4,1.9-1,2.7-1.8c0,0,0,0,0,0
	C43.3,27.9,44.6,28.4,45,28.6C45,28.6,45,28.6,45,28.6z M46.5,18.9c-0.1,0.7-0.4,1.3-0.7,1.6c-0.1,0.1-0.2,0.1-0.3,0.1
	c0,0,0,0-0.1,0c-0.1,0-0.1,0-0.2-0.1c-0.7,2.1-2,4.2-3.6,5.4c-0.9,0.7-2,1.2-3.1,1.2c-1.1,0-2.2-0.5-3.1-1.2
	c-1.6-1.3-2.9-3.3-3.6-5.4c-0.1,0.1-0.1,0.1-0.2,0.1c0,0,0,0-0.1,0c-0.1,0-0.2-0.1-0.4-0.2c-0.3-0.3-0.5-0.9-0.7-1.5
	c-0.2-0.9,0-1.7,0.3-1.9c0,0,0.1-0.1,0.1-0.1c0,0,0,0,0.1,0c0.1,0,0.2,0,0.3,0.1c0,0,0,0,0,0c0-0.3,0.3-2.9,1.9-4l3.6,1.3
	c0.8,0.3,1.3,0.5,1.7,0.5c0.2,0,0.5-0.1,0.8-0.2l6,3.1l0.8-0.8c0,0,0.1,0,0.1,0C46.5,17.1,46.7,18,46.5,18.9z"/>
</svg>
