<?xml version="1.0" encoding="utf-8"?>
<!-- Generator: Adobe Illustrator 24.0.2, SVG Export Plug-In . SVG Version: 6.00 Build 0)  -->
<svg version="1.1" id="Layer_1" xmlns="http://www.w3.org/2000/svg" xmlns:xlink="http://www.w3.org/1999/xlink" x="0px" y="0px"
	 viewBox="0 0 65 65" style="enable-background:new 0 0 65 65;" xml:space="preserve">
<style type="text/css">
	.st0{fill:#FFFFFF;}
	.st1{fill:url(#SVGID_1_);}
	.st2{fill:url(#SVGID_2_);}
	.st3{fill:url(#SVGID_3_);}
	.st4{fill:url(#SVGID_4_);}
	.st5{fill:url(#SVGID_5_);}
	.st6{fill:url(#SVGID_6_);}
	.st7{fill-rule:evenodd;clip-rule:evenodd;fill:url(#SVGID_7_);}
	.st8{fill:url(#SVGID_8_);}
</style>
<path class="st0" d="M32.5,0C14.6,0,0,14.6,0,32.5C0,50.4,14.6,65,32.5,65S65,50.4,65,32.5C65,14.6,50.4,0,32.5,0z"/>
<g>
	<linearGradient id="SVGID_1_" gradientUnits="userSpaceOnUse" x1="25.686" y1="32.3962" x2="39.3832" y2="32.3962">
		<stop  offset="0" style="stop-color:#FC1A1A"/>
		<stop  offset="1" style="stop-color:#FFB600"/>
	</linearGradient>
	<path class="st1" d="M31.4,39.7h2.3v-6.2h5.7v-2.2h-5.7v-6.2h-2.3v6.2h-5.7v2.2h5.7V39.7z"/>
	<linearGradient id="SVGID_2_" gradientUnits="userSpaceOnUse" x1="15.6552" y1="42.2887" x2="27.8305" y2="42.2887">
		<stop  offset="0" style="stop-color:#FC1A1A"/>
		<stop  offset="1" style="stop-color:#FFB600"/>
	</linearGradient>
	<path class="st2" d="M20.8,48.7h1.9v-5.5h5.1v-1.7h-5.1v-5.6h-1.9v5.6h-5.1v1.7h5.1V48.7z"/>
	<linearGradient id="SVGID_3_" gradientUnits="userSpaceOnUse" x1="37.1695" y1="22.3308" x2="49.414" y2="22.3308">
		<stop  offset="0" style="stop-color:#FC1A1A"/>
		<stop  offset="1" style="stop-color:#FFB600"/>
	</linearGradient>
	<path class="st3" d="M42.3,28.7h1.9v-5.5h5.2v-1.7h-5.2v-5.6h-1.9v5.6h-5.1v1.7h5.1V28.7z"/>
	<linearGradient id="SVGID_4_" gradientUnits="userSpaceOnUse" x1="28.2456" y1="48.4109" x2="36.8928" y2="48.4109">
		<stop  offset="0" style="stop-color:#FC1A1A"/>
		<stop  offset="1" style="stop-color:#FFB600"/>
	</linearGradient>
	<path class="st4" d="M31.7,53.1h1.7v-3.9h3.5v-1.5h-3.5v-3.9h-1.7v3.9h-3.5v1.5h3.5V53.1z"/>
	<linearGradient id="SVGID_5_" gradientUnits="userSpaceOnUse" x1="15.6552" y1="22.3308" x2="27.8305" y2="22.3308">
		<stop  offset="0" style="stop-color:#FC1A1A"/>
		<stop  offset="1" style="stop-color:#FFB600"/>
	</linearGradient>
	<path class="st5" d="M20.8,28.7h1.8v-5.6h5.2v-1.6h-5.2v-5.6h-1.8v5.6h-5.2v1.6h5.2V28.7z"/>
	<linearGradient id="SVGID_6_" gradientUnits="userSpaceOnUse" x1="44.7099" y1="32.3962" x2="53.3571" y2="32.3962">
		<stop  offset="0" style="stop-color:#FC1A1A"/>
		<stop  offset="1" style="stop-color:#FFB600"/>
	</linearGradient>
	<path class="st6" d="M48.2,37h1.7v-3.9h3.5v-1.5h-3.5v-3.9h-1.7v3.9h-3.5v1.5h3.5V37z"/>
	<linearGradient id="SVGID_7_" gradientUnits="userSpaceOnUse" x1="37.1695" y1="42.2887" x2="49.414" y2="42.2887">
		<stop  offset="0" style="stop-color:#FC1A1A"/>
		<stop  offset="1" style="stop-color:#FFB600"/>
	</linearGradient>
	<path class="st7" d="M42.3,48.7h1.9v-5.5h5.2v-1.7h-5.2v-5.6h-1.9v5.6h-5.1v1.7h5.1V48.7z"/>
	<linearGradient id="SVGID_8_" gradientUnits="userSpaceOnUse" x1="11.6429" y1="24.337" x2="36.6161" y2="24.337">
		<stop  offset="0" style="stop-color:#FC1A1A"/>
		<stop  offset="1" style="stop-color:#FFB600"/>
	</linearGradient>
	<path class="st8" d="M36.6,16.9v-1.2h-3.5v-3.8h-1.2v3.8h-3.5v1.2h3.5v3.8h1.2v-3.8H36.6z M15.1,36.8h1.2v-3.8h3.5v-1.2h-3.5V28
		h-1.2v3.7h-3.5V33l3.5-0.1V36.8z"/>
</g>
</svg>
