<?xml version="1.0" encoding="utf-8"?>
<!-- Generator: Adobe Illustrator 24.0.2, SVG Export Plug-In . SVG Version: 6.00 Build 0)  -->
<svg version="1.1" id="Layer_1" xmlns="http://www.w3.org/2000/svg" xmlns:xlink="http://www.w3.org/1999/xlink" x="0px" y="0px"
	 viewBox="0 0 68 54" style="enable-background:new 0 0 68 54;" xml:space="preserve">
<style type="text/css">
	.st0{fill:url(#SVGID_1_);}
	.st1{fill:url(#SVGID_2_);}
	.st2{fill:url(#SVGID_3_);}
	.st3{fill:url(#SVGID_4_);}
	.st4{fill:url(#SVGID_5_);}
	.st5{fill:url(#SVGID_6_);}
</style>
<g>
	<linearGradient id="SVGID_1_" gradientUnits="userSpaceOnUse" x1="23.9571" y1="18.654" x2="67" y2="18.654">
		<stop  offset="0" style="stop-color:#00B09B"/>
		<stop  offset="1" style="stop-color:#96C93D"/>
	</linearGradient>
	<path class="st0" d="M62.5,1H28.4C26,1,24,3,24,5.5v8.8c0.5,0.2,1.1,0.4,1.7,0.5c0,0,0.2,0.1,0.9-0.1V10h26.8c0.8,0,0.8,0,0.8-0.8
		v-2c0-0.5,0.1-0.7,0.6-0.7h6.9c0.5,0,0.7,0.2,0.6,0.7v2.2c0,0.4,0.2,0.6,0.5,0.5h1.7v20.9c-0.2,1.7-1.2,2.8-3,2.8H29.8
		c-2.1,0-3.3-1.1-3.3-3.3v-5.3c-0.1,0-0.2,0-0.3,0.1c-0.2,0-0.5,0.1-0.7,0.1c-0.5,0-1-0.1-1.5-0.2v6.7c0,2.2,1.6,4.1,3.8,4.4
		c0.7,0.1,15.4,0.1,22,0.2h7c2,0,3.9,0.1,5.7,0c2.5-0.2,4.4-2.1,4.4-4.5C67,22.2,67,15.2,67,5.6C67,3.1,65,1.1,62.5,1z M28.7,7.7
		c-0.9,0-1.8-0.8-1.8-1.7s0.8-1.7,1.8-1.7c0.9,0,1.8,0.9,1.8,1.7C30.5,6.8,29.6,7.7,28.7,7.7z M34.2,7.7c-0.9,0-1.8-0.8-1.7-1.9
		c0-0.9,0.8-1.7,1.7-1.7c1,0,1.8,0.8,1.8,1.7C35.9,7,35.1,7.7,34.2,7.7z M39.6,7.7c-0.9,0-1.8-0.8-1.8-1.7s0.8-1.7,1.8-1.7
		c0.9,0,1.8,0.9,1.8,1.7C41.5,6.8,40.6,7.7,39.6,7.7z"/>
	<linearGradient id="SVGID_2_" gradientUnits="userSpaceOnUse" x1="1" y1="33.7246" x2="36.3938" y2="33.7246">
		<stop  offset="0" style="stop-color:#00B09B"/>
		<stop  offset="1" style="stop-color:#96C93D"/>
	</linearGradient>
	<path class="st1" d="M25.9,22.8c2.8-0.3,5.6-1,8.8-2.2c1.2-0.4,2-1.8,1.6-3c-0.3-1.3-1.4-2.2-2.7-2.2c-0.3,0-0.7,0.1-0.9,0.2
		c-2.1,0.7-3.9,1.1-5.5,1.5c-0.8,0.2-1.4,0.2-1.9,0.2c-1.9-0.3-3.5-1.1-4.9-1.9c-0.3-0.2-0.9-0.4-1.4-0.5c-0.8-0.1-1.6-0.2-2.4-0.2
		c-0.5-0.1-1-0.1-1.6-0.1c-0.2,0-0.3,0-0.4,0c-0.1,0-0.1,0-0.2,0h-0.1c-0.2,0.1-0.4,0.2-0.5,0.4c0,0.1-0.1,0.1-0.1,0.2
		c0,0.1-0.3,0.8-0.5,1.8c-0.4,1.2-0.9,2.7-1.1,3.7l-0.3-2c-0.1-0.2-0.1-0.4-0.1-0.6v-0.1c0-0.1,0-0.1,0-0.1l-0.1-0.3
		c0-0.2-0.1-0.3-0.1-0.3c0.1-0.1,0.1-0.3,0.2-0.4c0.1-0.1,0.1-0.2,0.1-0.2l0.1-0.1c0.1-0.1,0.1-0.3,0.1-0.4c0-0.1-0.2-0.6-0.2-0.7
		c-0.1-0.1-0.2-0.2-0.3-0.2h-0.1c-0.1,0-0.1,0-0.1,0c-0.1,0-0.4,0-0.8,0c-0.4,0-0.7,0-0.8,0c-0.1,0-0.1,0-0.1,0H9.6
		c-0.1,0.1-0.2,0.1-0.3,0.2c-0.1,0.1-0.1,0.1-0.1,0.3c-0.1,0.3-0.1,0.3-0.1,0.4c0,0.2,0.1,0.3,0.1,0.4l0.1,0.1
		c0.1,0.1,0.1,0.2,0.1,0.3c0.1,0.1,0.1,0.2,0.2,0.4c0,0.1,0,0.2-0.1,0.3l0,0.3c0,0.1,0,0.1,0,0.1c-0.1,0.5-0.2,1.1-0.2,1.7l-0.1,1
		C8.9,19.6,8.4,18.1,8,17c-0.3-1.1-0.5-1.8-0.6-1.9c-0.1-0.2-0.1-0.3-0.2-0.4c-0.1-0.1-0.2-0.2-0.3-0.2H6.7c-0.2,0-0.5,0.1-1.1,0.3
		L5.3,15C5.1,15,5,15.1,5,15.1c-0.8,0.3-1.6,0.5-2.5,0.8L2.4,16c-0.7,0.2-1.1,0.7-1.1,1.4c0,0.2-0.1,0.5-0.1,1
		C1.1,18.9,1,19.4,1,19.6c-0.1,3-0.1,6.3,0,10c0,0.7,0.2,1.4,0.4,2.1c0.3,0.7,0.7,1.4,1.3,2.1l0.1,0.1C3,33.9,3,34.1,3.1,34.2
		c0,0.3,0,0.5,0.1,0.8v0.3c0.1,1.8,0.2,3.6,0.2,5.4c0,0.2,0,0.3,0.1,0.4v6.2c0,1.9,0.7,3.4,2,4.5c1,0.8,2.3,1.3,3.8,1.3h1.4H12
		c3,0,5.3-1.9,5.7-4.7c0.1-0.3,0.1-0.7,0.1-1v-1.6l0.6-18.1c0.1-2.1,0.1-4.1,0.2-6.2c0-0.2,0.1-0.4,0.1-0.6c0,0,0,0,0-0.1
		c0.4,0.2,0.8,0.3,1.1,0.4l0.2,0.1c1,0.4,1.9,0.7,2.7,1l0.3,0.1c0.8,0.3,1.7,0.5,2.6,0.5C25.7,22.8,25.8,22.8,25.9,22.8z"/>
	<linearGradient id="SVGID_3_" gradientUnits="userSpaceOnUse" x1="4.8687" y1="6.7449" x2="16.3557" y2="6.7449">
		<stop  offset="0" style="stop-color:#00B09B"/>
		<stop  offset="1" style="stop-color:#96C93D"/>
	</linearGradient>
	<path class="st2" d="M10.6,12.4c3,0.1,5.8-2.7,5.8-5.7c0.1-3.1-2.6-5.7-5.7-5.7S4.9,3.6,4.9,6.7C4.8,9.6,7.5,12.4,10.6,12.4z"/>
	<linearGradient id="SVGID_4_" gradientUnits="userSpaceOnUse" x1="52.5612" y1="27.5173" x2="55.0224" y2="27.5173">
		<stop  offset="0" style="stop-color:#00B09B"/>
		<stop  offset="1" style="stop-color:#96C93D"/>
	</linearGradient>
	<path class="st3" d="M55,27.5c0-0.5-0.4-0.9-0.9-0.9h-1.5v1.9h1.5C54.6,28.4,55,28,55,27.5z"/>
	<linearGradient id="SVGID_5_" gradientUnits="userSpaceOnUse" x1="35.716" y1="27.49" x2="50.9204" y2="27.49">
		<stop  offset="0" style="stop-color:#00B09B"/>
		<stop  offset="1" style="stop-color:#96C93D"/>
	</linearGradient>
	<path class="st4" d="M35.7,27.5c0,0.5,0.4,0.9,0.9,0.9h12.4v0.4c0,0.5,0.4,0.9,0.9,0.9c0.5,0,0.9-0.4,0.9-0.9v-2.7
		c0-0.5-0.4-0.9-0.9-0.9c-0.5,0-0.9,0.4-0.9,0.9v0.4H36.6C36.2,26.5,35.7,27,35.7,27.5z"/>
	<linearGradient id="SVGID_6_" gradientUnits="userSpaceOnUse" x1="41.0758" y1="18.7401" x2="49.6625" y2="18.7401">
		<stop  offset="0" style="stop-color:#00B09B"/>
		<stop  offset="1" style="stop-color:#96C93D"/>
	</linearGradient>
	<path class="st5" d="M41.9,23.5c0.1,0,0.3-0.1,0.4-0.1l6.9-4c0.3-0.1,0.4-0.4,0.4-0.7c0-0.3-0.2-0.5-0.4-0.7l-7.1-4
		c-0.2-0.1-0.5-0.1-0.8,0.1c-0.2,0.2-0.4,0.4-0.4,0.7v8c0,0.3,0.2,0.5,0.4,0.7C41.6,23.5,41.7,23.5,41.9,23.5z"/>
</g>
</svg>
