<?xml version="1.0" encoding="UTF-8"?>
<svg xmlns="http://www.w3.org/2000/svg" xmlns:xlink="http://www.w3.org/1999/xlink" width="59pt" height="59pt" viewBox="0 0 59 59" version="1.1">
<defs>
<linearGradient id="linear0" gradientUnits="userSpaceOnUse" x1="0.5" y1="30.3571" x2="59.5" y2="30.3571" gradientTransform="matrix(0.983333,0,0,0.983333,0,0)">
<stop offset="0" style="stop-color:rgb(41.176471%,100%,59.215686%);stop-opacity:1;"/>
<stop offset="1" style="stop-color:rgb(0%,89.411765%,100%);stop-opacity:1;"/>
</linearGradient>
<linearGradient id="linear1" gradientUnits="userSpaceOnUse" x1="30.0362" y1="43.2554" x2="55.8131" y2="43.2554" gradientTransform="matrix(0.983333,0,0,0.983333,0,0)">
<stop offset="0" style="stop-color:rgb(41.176471%,100%,59.215686%);stop-opacity:1;"/>
<stop offset="1" style="stop-color:rgb(0%,89.411765%,100%);stop-opacity:1;"/>
</linearGradient>
<linearGradient id="linear2" gradientUnits="userSpaceOnUse" x1="41.9843" y1="40.4761" x2="46.5937" y2="40.4761" gradientTransform="matrix(0.983333,0,0,0.983333,0,0)">
<stop offset="0" style="stop-color:rgb(41.176471%,100%,59.215686%);stop-opacity:1;"/>
<stop offset="1" style="stop-color:rgb(0%,89.411765%,100%);stop-opacity:1;"/>
</linearGradient>
<linearGradient id="linear3" gradientUnits="userSpaceOnUse" x1="6.01" y1="16.0469" x2="48.4375" y2="16.0469" gradientTransform="matrix(0.983333,0,0,0.983333,0,0)">
<stop offset="0" style="stop-color:rgb(41.176471%,100%,59.215686%);stop-opacity:1;"/>
<stop offset="1" style="stop-color:rgb(0%,89.411765%,100%);stop-opacity:1;"/>
</linearGradient>
<linearGradient id="linear4" gradientUnits="userSpaceOnUse" x1="6.0312" y1="31.7183" x2="7.875" y2="31.7183" gradientTransform="matrix(0.983333,0,0,0.983333,0,0)">
<stop offset="0" style="stop-color:rgb(41.176471%,100%,59.215686%);stop-opacity:1;"/>
<stop offset="1" style="stop-color:rgb(0%,89.411765%,100%);stop-opacity:1;"/>
</linearGradient>
<linearGradient id="linear5" gradientUnits="userSpaceOnUse" x1="10.6406" y1="30.3354" x2="12.4844" y2="30.3354" gradientTransform="matrix(0.983333,0,0,0.983333,0,0)">
<stop offset="0" style="stop-color:rgb(41.176471%,100%,59.215686%);stop-opacity:1;"/>
<stop offset="1" style="stop-color:rgb(0%,89.411765%,100%);stop-opacity:1;"/>
</linearGradient>
<linearGradient id="linear6" gradientUnits="userSpaceOnUse" x1="15.25" y1="28.4917" x2="17.0937" y2="28.4917" gradientTransform="matrix(0.983333,0,0,0.983333,0,0)">
<stop offset="0" style="stop-color:rgb(41.176471%,100%,59.215686%);stop-opacity:1;"/>
<stop offset="1" style="stop-color:rgb(0%,89.411765%,100%);stop-opacity:1;"/>
</linearGradient>
<linearGradient id="linear7" gradientUnits="userSpaceOnUse" x1="19.8594" y1="30.3354" x2="21.7031" y2="30.3354" gradientTransform="matrix(0.983333,0,0,0.983333,0,0)">
<stop offset="0" style="stop-color:rgb(41.176471%,100%,59.215686%);stop-opacity:1;"/>
<stop offset="1" style="stop-color:rgb(0%,89.411765%,100%);stop-opacity:1;"/>
</linearGradient>
<linearGradient id="linear8" gradientUnits="userSpaceOnUse" x1="24.4687" y1="28.4917" x2="26.3125" y2="28.4917" gradientTransform="matrix(0.983333,0,0,0.983333,0,0)">
<stop offset="0" style="stop-color:rgb(41.176471%,100%,59.215686%);stop-opacity:1;"/>
<stop offset="1" style="stop-color:rgb(0%,89.411765%,100%);stop-opacity:1;"/>
</linearGradient>
<linearGradient id="linear9" gradientUnits="userSpaceOnUse" x1="29.0781" y1="25.7261" x2="30.9219" y2="25.7261" gradientTransform="matrix(0.983333,0,0,0.983333,0,0)">
<stop offset="0" style="stop-color:rgb(41.176471%,100%,59.215686%);stop-opacity:1;"/>
<stop offset="1" style="stop-color:rgb(0%,89.411765%,100%);stop-opacity:1;"/>
</linearGradient>
<linearGradient id="linear10" gradientUnits="userSpaceOnUse" x1="33.6875" y1="23.4214" x2="35.5312" y2="23.4214" gradientTransform="matrix(0.983333,0,0,0.983333,0,0)">
<stop offset="0" style="stop-color:rgb(41.176471%,100%,59.215686%);stop-opacity:1;"/>
<stop offset="1" style="stop-color:rgb(0%,89.411765%,100%);stop-opacity:1;"/>
</linearGradient>
<linearGradient id="linear11" gradientUnits="userSpaceOnUse" x1="38.2968" y1="22.9605" x2="40.1406" y2="22.9605" gradientTransform="matrix(0.983333,0,0,0.983333,0,0)">
<stop offset="0" style="stop-color:rgb(41.176471%,100%,59.215686%);stop-opacity:1;"/>
<stop offset="1" style="stop-color:rgb(0%,89.411765%,100%);stop-opacity:1;"/>
</linearGradient>
<linearGradient id="linear12" gradientUnits="userSpaceOnUse" x1="42.9062" y1="21.1167" x2="44.75" y2="21.1167" gradientTransform="matrix(0.983333,0,0,0.983333,0,0)">
<stop offset="0" style="stop-color:rgb(41.176471%,100%,59.215686%);stop-opacity:1;"/>
<stop offset="1" style="stop-color:rgb(0%,89.411765%,100%);stop-opacity:1;"/>
</linearGradient>
<linearGradient id="linear13" gradientUnits="userSpaceOnUse" x1="47.5156" y1="20.6558" x2="49.3593" y2="20.6558" gradientTransform="matrix(0.983333,0,0,0.983333,0,0)">
<stop offset="0" style="stop-color:rgb(41.176471%,100%,59.215686%);stop-opacity:1;"/>
<stop offset="1" style="stop-color:rgb(0%,89.411765%,100%);stop-opacity:1;"/>
</linearGradient>
</defs>
<g id="surface1">
<path style=" stroke:none;fill-rule:nonzero;fill:url(#linear0);" d="M 53.101562 30.386719 L 53.101562 3.539062 C 53.101562 2.066406 51.921875 0.785156 50.347656 0.785156 L 3.246094 0.785156 C 1.769531 0.785156 0.492188 1.964844 0.492188 3.539062 L 0.492188 36.1875 C 0.492188 37.660156 1.671875 38.941406 3.246094 38.941406 L 26.351562 38.941406 C 24.289062 47.691406 29.796875 56.441406 38.546875 58.507812 C 47.296875 60.476562 56.050781 54.96875 58.113281 46.214844 C 58.410156 45.035156 58.507812 43.757812 58.507812 42.480469 C 58.507812 37.859375 56.542969 33.433594 53.101562 30.386719 Z M 3.246094 37.070312 C 2.753906 37.070312 2.359375 36.679688 2.359375 36.1875 L 2.359375 3.539062 C 2.359375 3.046875 2.753906 2.65625 3.246094 2.65625 L 50.347656 2.65625 C 50.839844 2.65625 51.230469 3.046875 51.230469 3.539062 L 51.230469 28.910156 C 43.757812 23.894531 33.628906 25.960938 28.613281 33.433594 C 27.828125 34.515625 27.238281 35.792969 26.84375 37.070312 Z M 42.183594 57.035156 C 34.21875 57.035156 27.730469 50.542969 27.730469 42.578125 C 27.730469 34.613281 34.21875 28.125 42.183594 28.125 C 50.148438 28.125 56.640625 34.613281 56.640625 42.578125 C 56.640625 50.542969 50.25 57.035156 42.183594 57.035156 Z M 42.183594 57.035156 "/>
<path style=" stroke:none;fill-rule:nonzero;fill:url(#linear1);" d="M 53.199219 48.773438 C 55.460938 44.839844 55.460938 40.121094 53.199219 36.1875 C 53.199219 36.1875 53.199219 36.1875 53.199219 36.089844 C 53.199219 35.988281 53.199219 36.089844 53.101562 35.988281 C 52.019531 34.121094 50.445312 32.546875 48.578125 31.464844 C 48.578125 31.464844 48.578125 31.464844 48.476562 31.367188 C 48.378906 31.269531 48.476562 31.367188 48.378906 31.367188 C 44.445312 29.105469 39.726562 29.105469 35.792969 31.367188 C 35.792969 31.367188 35.792969 31.367188 35.695312 31.367188 C 35.597656 31.367188 35.695312 31.367188 35.597656 31.464844 C 33.726562 32.546875 32.15625 34.121094 31.074219 35.988281 C 31.074219 35.988281 31.074219 35.988281 30.976562 36.089844 C 30.875 36.1875 30.976562 36.089844 30.976562 36.1875 C 28.714844 40.121094 28.714844 44.839844 30.976562 48.773438 C 30.976562 48.773438 30.976562 48.773438 30.976562 48.871094 C 30.976562 48.871094 30.976562 48.96875 31.074219 48.96875 C 32.15625 50.839844 33.726562 52.410156 35.597656 53.492188 C 35.597656 53.492188 35.597656 53.492188 35.695312 53.589844 L 35.792969 53.589844 C 39.628906 55.753906 44.445312 55.753906 48.28125 53.589844 L 48.378906 53.589844 C 48.378906 53.589844 48.378906 53.589844 48.476562 53.492188 C 50.347656 52.410156 51.921875 50.839844 53 48.96875 C 53.199219 48.96875 53.199219 48.871094 53.199219 48.773438 C 53.199219 48.871094 53.199219 48.871094 53.199219 48.773438 Z M 48.378906 51.429688 L 47.988281 50.640625 C 47.691406 50.25 47.199219 50.050781 46.707031 50.347656 C 46.214844 50.640625 46.117188 51.132812 46.414062 51.625 L 46.808594 52.3125 C 45.625 52.902344 44.347656 53.296875 43.070312 53.394531 L 43.070312 52.511719 C 43.070312 52.019531 42.675781 51.625 42.183594 51.625 C 41.691406 51.625 41.300781 52.019531 41.300781 52.511719 L 41.300781 53.394531 C 40.023438 53.296875 38.742188 52.902344 37.5625 52.410156 L 37.957031 51.722656 C 38.25 51.328125 38.054688 50.738281 37.660156 50.445312 C 37.269531 50.148438 36.679688 50.347656 36.382812 50.738281 L 35.988281 51.527344 C 34.910156 50.738281 34.023438 49.855469 33.238281 48.773438 L 34.023438 48.378906 C 34.417969 48.085938 34.613281 47.59375 34.316406 47.101562 C 34.023438 46.707031 33.53125 46.511719 33.039062 46.808594 L 32.351562 47.199219 C 31.761719 46.019531 31.464844 44.742188 31.367188 43.464844 L 32.253906 43.464844 C 32.746094 43.464844 33.136719 43.070312 33.136719 42.578125 C 33.136719 42.085938 32.746094 41.691406 32.253906 41.691406 L 31.367188 41.691406 C 31.464844 40.414062 31.859375 39.136719 32.351562 37.957031 L 33.039062 38.351562 C 33.433594 38.644531 34.023438 38.449219 34.316406 38.054688 C 34.613281 37.660156 34.417969 37.070312 34.023438 36.777344 L 33.238281 36.382812 C 34.023438 35.300781 34.910156 34.417969 35.988281 33.628906 L 36.382812 34.417969 C 36.679688 34.808594 37.171875 35.007812 37.660156 34.710938 C 38.054688 34.417969 38.25 33.925781 37.957031 33.433594 L 37.5625 32.746094 C 38.742188 32.15625 40.023438 31.859375 41.300781 31.761719 L 41.300781 32.648438 C 41.300781 33.136719 41.691406 33.53125 42.183594 33.53125 C 42.675781 33.53125 43.070312 33.136719 43.070312 32.648438 L 43.070312 31.761719 C 44.347656 31.859375 45.625 32.253906 46.808594 32.746094 L 46.414062 33.433594 C 46.117188 33.828125 46.316406 34.417969 46.707031 34.710938 C 47.101562 35.007812 47.691406 34.808594 47.988281 34.417969 L 48.378906 33.628906 C 49.460938 34.417969 50.347656 35.300781 51.132812 36.382812 L 50.347656 36.777344 C 49.953125 37.070312 49.757812 37.5625 50.050781 38.054688 C 50.347656 38.449219 50.839844 38.644531 51.328125 38.351562 L 52.019531 37.957031 C 52.609375 39.136719 53 40.414062 53.101562 41.691406 L 52.117188 41.691406 C 51.625 41.691406 51.230469 42.085938 51.230469 42.578125 C 51.230469 43.070312 51.625 43.464844 52.117188 43.464844 L 53.101562 43.464844 C 53 44.742188 52.609375 46.019531 52.117188 47.199219 L 51.328125 46.808594 C 50.9375 46.511719 50.347656 46.707031 50.050781 47.101562 C 49.757812 47.496094 49.953125 48.085938 50.347656 48.378906 L 51.132812 48.773438 C 50.347656 49.757812 49.460938 50.738281 48.378906 51.429688 Z M 48.378906 51.429688 "/>
<path style=" stroke:none;fill-rule:nonzero;fill:url(#linear2);" d="M 44.9375 41.59375 L 43.167969 41.59375 L 43.167969 37.070312 C 43.167969 36.578125 42.773438 36.1875 42.285156 36.1875 C 41.792969 36.1875 41.300781 36.578125 41.300781 37.070312 L 41.300781 42.480469 C 41.300781 42.972656 41.691406 43.363281 42.183594 43.363281 L 44.9375 43.363281 C 45.429688 43.363281 45.824219 42.972656 45.824219 42.480469 C 45.824219 41.988281 45.429688 41.59375 44.9375 41.59375 Z M 44.9375 41.59375 "/>
<path style=" stroke:none;fill-rule:nonzero;fill:url(#linear3);" d="M 36.1875 16.914062 C 36.480469 17.207031 36.972656 17.207031 37.367188 16.914062 L 45.824219 9.242188 L 45.824219 10.816406 C 45.824219 11.308594 46.214844 11.703125 46.707031 11.703125 C 47.199219 11.703125 47.59375 11.308594 47.59375 10.816406 L 47.59375 7.179688 C 47.59375 6.6875 47.199219 6.292969 46.707031 6.292969 L 43.070312 6.292969 C 42.578125 6.292969 42.183594 6.6875 42.183594 7.179688 C 42.183594 7.671875 42.578125 8.0625 43.070312 8.0625 L 44.445312 8.0625 L 36.777344 15.046875 L 32.84375 11.898438 C 32.546875 11.601562 32.058594 11.601562 31.761719 11.898438 L 21.339844 19.667969 L 17.308594 16.519531 C 17.011719 16.226562 16.519531 16.226562 16.226562 16.519531 L 6.292969 23.699219 C 5.898438 23.992188 5.800781 24.582031 6.097656 24.976562 C 6.292969 25.171875 6.589844 25.371094 6.882812 25.371094 C 7.078125 25.371094 7.277344 25.273438 7.375 25.171875 L 16.816406 18.289062 L 20.847656 21.4375 C 21.140625 21.730469 21.632812 21.730469 21.929688 21.4375 L 32.253906 13.765625 Z M 36.1875 16.914062 "/>
<path style=" stroke:none;fill-rule:nonzero;fill:url(#linear4);" d="M 6.882812 28.910156 C 6.390625 28.910156 6 29.304688 6 29.796875 L 6 32.546875 C 5.898438 33.039062 6.292969 33.433594 6.882812 33.433594 C 7.472656 33.433594 7.769531 33.039062 7.769531 32.546875 L 7.769531 29.796875 C 7.769531 29.304688 7.375 28.910156 6.882812 28.910156 Z M 6.882812 28.910156 "/>
<path style=" stroke:none;fill-rule:nonzero;fill:url(#linear5);" d="M 11.40625 26.15625 C 10.914062 26.15625 10.523438 26.550781 10.523438 27.042969 L 10.523438 32.449219 C 10.523438 32.941406 10.914062 33.335938 11.40625 33.335938 C 11.898438 33.335938 12.292969 32.941406 12.292969 32.449219 L 12.292969 27.042969 C 12.292969 26.648438 11.898438 26.15625 11.40625 26.15625 Z M 11.40625 26.15625 "/>
<path style=" stroke:none;fill-rule:nonzero;fill:url(#linear6);" d="M 15.929688 22.617188 C 15.4375 22.617188 15.046875 23.011719 15.046875 23.5 L 15.046875 32.546875 C 15.046875 33.039062 15.4375 33.433594 15.929688 33.433594 C 16.421875 33.433594 16.816406 33.039062 16.816406 32.546875 L 16.816406 23.5 C 16.816406 23.011719 16.421875 22.617188 15.929688 22.617188 Z M 15.929688 22.617188 "/>
<path style=" stroke:none;fill-rule:nonzero;fill:url(#linear7);" d="M 20.453125 26.15625 C 19.960938 26.15625 19.566406 26.550781 19.566406 27.042969 L 19.566406 32.449219 C 19.566406 32.941406 19.960938 33.335938 20.453125 33.335938 C 20.945312 33.335938 21.339844 32.941406 21.339844 32.449219 L 21.339844 27.042969 C 21.339844 26.648438 20.945312 26.15625 20.453125 26.15625 Z M 20.453125 26.15625 "/>
<path style=" stroke:none;fill-rule:nonzero;fill:url(#linear8);" d="M 24.976562 22.617188 C 24.484375 22.617188 24.089844 23.011719 24.089844 23.5 L 24.089844 32.546875 C 24.089844 33.039062 24.484375 33.433594 24.976562 33.433594 C 25.46875 33.433594 25.863281 33.039062 25.863281 32.546875 L 25.863281 23.5 C 25.863281 23.011719 25.46875 22.617188 24.976562 22.617188 Z M 24.976562 22.617188 "/>
<path style=" stroke:none;fill-rule:nonzero;fill:url(#linear9);" d="M 29.5 20.75 C 29.007812 20.75 28.613281 21.140625 28.613281 21.632812 L 28.613281 28.910156 C 28.613281 29.402344 29.007812 29.796875 29.5 29.796875 C 29.992188 29.796875 30.386719 29.402344 30.386719 28.910156 L 30.386719 21.632812 C 30.386719 21.140625 29.992188 20.75 29.5 20.75 Z M 29.5 20.75 "/>
<path style=" stroke:none;fill-rule:nonzero;fill:url(#linear10);" d="M 34.023438 19.863281 C 33.53125 19.863281 33.136719 20.257812 33.136719 20.75 L 33.136719 25.273438 C 33.136719 25.761719 33.53125 26.15625 34.023438 26.15625 C 34.515625 26.15625 34.910156 25.761719 34.910156 25.273438 L 34.910156 20.75 C 34.910156 20.257812 34.515625 19.863281 34.023438 19.863281 Z M 34.023438 19.863281 "/>
<path style=" stroke:none;fill-rule:nonzero;fill:url(#linear11);" d="M 38.546875 20.75 C 38.054688 20.75 37.660156 21.140625 37.660156 21.632812 L 37.660156 23.402344 C 37.660156 23.894531 38.054688 24.289062 38.546875 24.289062 C 39.039062 24.289062 39.433594 23.894531 39.433594 23.402344 L 39.433594 21.632812 C 39.433594 21.140625 39.039062 20.75 38.546875 20.75 Z M 38.546875 20.75 "/>
<path style=" stroke:none;fill-rule:nonzero;fill:url(#linear12);" d="M 43.070312 17.109375 C 42.578125 17.109375 42.183594 17.503906 42.183594 17.996094 L 42.183594 23.402344 C 42.183594 23.894531 42.578125 24.289062 43.070312 24.289062 C 43.5625 24.289062 43.953125 23.894531 43.953125 23.402344 L 43.953125 17.996094 C 43.953125 17.503906 43.5625 17.109375 43.070312 17.109375 Z M 43.070312 17.109375 "/>
<path style=" stroke:none;fill-rule:nonzero;fill:url(#linear13);" d="M 46.707031 16.226562 L 46.707031 24.386719 C 46.707031 24.878906 47.101562 25.273438 47.59375 25.273438 C 48.085938 25.273438 48.476562 24.878906 48.476562 24.386719 L 48.476562 16.226562 C 48.476562 15.734375 48.085938 15.339844 47.59375 15.339844 C 47.101562 15.339844 46.707031 15.734375 46.707031 16.226562 Z M 46.707031 16.226562 "/>
</g>
</svg>
