<?xml version="1.0" encoding="utf-8"?>
<!-- Generator: Adobe Illustrator 24.0.2, SVG Export Plug-In . SVG Version: 6.00 Build 0)  -->
<svg version="1.1" id="Layer_1" xmlns="http://www.w3.org/2000/svg" xmlns:xlink="http://www.w3.org/1999/xlink" x="0px" y="0px"
	 viewBox="0 0 44 44" style="enable-background:new 0 0 44 44;" xml:space="preserve">
<style type="text/css">
	.st0{fill-rule:evenodd;clip-rule:evenodd;fill:#FFFFFF;}
</style>
<g>
	<path class="st0" d="M22,5.3c1,0,1.8,0.8,1.8,1.8S23,8.9,22,8.9c-1,0-1.8-0.8-1.8-1.8S21,5.3,22,5.3z M22,0c12.2,0,22,9.8,22,22
		s-9.8,22-22,22S0,34.2,0,22S9.8,0,22,0z M23.1,18.6c1.3,0.5,2.2,1.7,2.2,3.1c0,1-0.4,1.8-1.1,2.4l3.1,7.5c0.6,1.3-1.5,2.2-2,0.8
		l-3.1-7.5c-1.4,0.1-2.7-0.7-3.2-2l-5.1-0.1c-1.4,0-1.4-2.2,0-2.2l5,0.1c0.3-1,1.1-1.7,2-2.1V12c0-1.4,2.2-1.4,2.2,0L23.1,18.6
		L23.1,18.6z M22,3.3C11.7,3.3,3.3,11.7,3.3,22S11.7,40.7,22,40.7S40.7,32.3,40.7,22S32.3,3.3,22,3.3L22,3.3z M33.8,10.2
		c0.7,0.7,0.7,1.8,0,2.5c-0.7,0.7-1.8,0.7-2.5,0c-0.7-0.7-0.7-1.8,0-2.5C32,9.5,33.1,9.5,33.8,10.2z M38.7,22c0,1-0.8,1.8-1.8,1.8
		c-1,0-1.8-0.8-1.8-1.8s0.8-1.8,1.8-1.8C37.9,20.2,38.7,21,38.7,22z M33.8,33.8c-0.7,0.7-1.8,0.7-2.5,0c-0.7-0.7-0.7-1.8,0-2.5
		c0.7-0.7,1.8-0.7,2.5,0C34.5,32,34.5,33.1,33.8,33.8z M22,38.7c-1,0-1.8-0.8-1.8-1.8c0-1,0.8-1.8,1.8-1.8c1,0,1.8,0.8,1.8,1.8
		C23.8,37.9,23,38.7,22,38.7z M10.2,33.8c-0.7-0.7-0.7-1.8,0-2.5c0.7-0.7,1.8-0.7,2.5,0c0.7,0.7,0.7,1.8,0,2.5
		C12,34.5,10.9,34.5,10.2,33.8z M5.3,22c0-1,0.8-1.8,1.8-1.8c1,0,1.8,0.8,1.8,1.8s-0.8,1.8-1.8,1.8C6.1,23.8,5.3,23,5.3,22z
		 M10.2,10.2c0.7-0.7,1.8-0.7,2.5,0c0.7,0.7,0.7,1.8,0,2.5c-0.7,0.7-1.8,0.7-2.5,0C9.5,12,9.5,10.9,10.2,10.2z"/>
</g>
</svg>
