<?xml version="1.0" encoding="utf-8"?>
<!-- Generator: Adobe Illustrator 24.0.2, SVG Export Plug-In . SVG Version: 6.00 Build 0)  -->
<svg version="1.1" id="Layer_1" xmlns="http://www.w3.org/2000/svg" xmlns:xlink="http://www.w3.org/1999/xlink" x="0px" y="0px"
	 viewBox="0 0 55 57" style="enable-background:new 0 0 55 57;" xml:space="preserve">
<style type="text/css">
	.st0{fill:url(#SVGID_1_);}
	.st1{fill:url(#SVGID_2_);}
	.st2{fill:url(#SVGID_3_);}
	.st3{fill:url(#SVGID_4_);}
	.st4{fill:url(#SVGID_5_);}
</style>
<g>
	<linearGradient id="SVGID_1_" gradientUnits="userSpaceOnUse" x1="5.9967" y1="55.3589" x2="5.9967" y2="45.1586">
		<stop  offset="0" style="stop-color:#DE4313"/>
		<stop  offset="1" style="stop-color:#FEC163"/>
	</linearGradient>
	<path class="st0" d="M2.1,45.2c-0.6,0-1.1,0.5-1.1,1.1v8c0,0.6,0.5,1.1,1.1,1.1h7.8c0.6,0,1.1-0.5,1.1-1.1v-8
		c0-0.6-0.5-1.1-1.1-1.1H2.1z"/>
	<linearGradient id="SVGID_2_" gradientUnits="userSpaceOnUse" x1="19.9187" y1="55.3589" x2="19.9187" y2="39.8517">
		<stop  offset="0" style="stop-color:#DE4313"/>
		<stop  offset="1" style="stop-color:#FEC163"/>
	</linearGradient>
	<path class="st1" d="M16,39.9c-0.6,0-1.1,0.5-1.1,1.1v13.3c0,0.6,0.5,1.1,1.1,1.1h7.8c0.6,0,1.1-0.5,1.1-1.1V41
		c0-0.6-0.5-1.1-1.1-1.1C23.8,39.9,16,39.9,16,39.9z"/>
	<linearGradient id="SVGID_3_" gradientUnits="userSpaceOnUse" x1="34.1853" y1="55.29" x2="34.1853" y2="33.1664">
		<stop  offset="0" style="stop-color:#DE4313"/>
		<stop  offset="1" style="stop-color:#FEC163"/>
	</linearGradient>
	<path class="st2" d="M30.3,33.2c-0.6,0-1.1,0.5-1.1,1.1v19.9c0,0.6,0.5,1.1,1.1,1.1h7.8c0.6,0,1.1-0.5,1.1-1.1V34.3
		c0-0.6-0.5-1.1-1.1-1.1H30.3z"/>
	<linearGradient id="SVGID_4_" gradientUnits="userSpaceOnUse" x1="49.0033" y1="55.3589" x2="49.0033" y2="24.2757">
		<stop  offset="0" style="stop-color:#DE4313"/>
		<stop  offset="1" style="stop-color:#FEC163"/>
	</linearGradient>
	<path class="st3" d="M52.9,24.3h-7.8c-0.6,0-1.1,0.5-1.1,1.1v28.9c0,0.6,0.5,1.1,1.1,1.1h7.8c0.6,0,1.1-0.5,1.1-1.1V25.4
		C54,24.8,53.5,24.3,52.9,24.3z"/>
	<linearGradient id="SVGID_5_" gradientUnits="userSpaceOnUse" x1="27.4334" y1="38.8179" x2="27.4334" y2="1.6411">
		<stop  offset="0" style="stop-color:#DE4313"/>
		<stop  offset="1" style="stop-color:#FEC163"/>
	</linearGradient>
	<path class="st4" d="M53.4,17.2l-3.8-15c-0.1-0.2-0.2-0.3-0.3-0.5c-0.2-0.1-0.4-0.1-0.6-0.1L33.4,7c-0.3,0.1-0.5,0.3-0.5,0.6
		s0.1,0.6,0.4,0.7l4.3,2.2C34.2,15.9,22.8,30.5,2,37.4c-0.3,0.1-0.6,0.5-0.5,0.9c0.1,0.3,0.4,0.6,0.7,0.6c0.1,0,0.1,0,0.1,0
		c0.3-0.1,31-5.9,44.8-23.4l5.2,2.6c0.3,0.1,0.6,0.1,0.8-0.1C53.3,17.7,53.4,17.5,53.4,17.2z"/>
</g>
</svg>
