<?xml version="1.0" encoding="utf-8"?>
<!-- Generator: Adobe Illustrator 24.0.2, SVG Export Plug-In . SVG Version: 6.00 Build 0)  -->
<svg version="1.1" id="Layer_1" xmlns="http://www.w3.org/2000/svg" xmlns:xlink="http://www.w3.org/1999/xlink" x="0px" y="0px"
	 viewBox="0 0 54 38" style="enable-background:new 0 0 54 38;" xml:space="preserve">
<style type="text/css">
	.st0{fill:url(#SVGID_1_);}
	.st1{fill:url(#SVGID_2_);}
	.st2{fill:url(#SVGID_3_);}
	.st3{fill:url(#SVGID_4_);}
	.st4{fill:url(#SVGID_5_);}
	.st5{fill:url(#SVGID_6_);}
	.st6{fill:url(#SVGID_7_);}
</style>
<g>
	<linearGradient id="SVGID_1_" gradientUnits="userSpaceOnUse" x1="0.5" y1="19" x2="53.5" y2="19">
		<stop  offset="5.586592e-03" style="stop-color:#000046"/>
		<stop  offset="1" style="stop-color:#1CB5E0"/>
	</linearGradient>
	<path class="st0" d="M27,0.4c8.4,0,16.7,0,25.1,0c0.2,0,0.4,0,0.6,0.1c0.5,0.1,0.8,0.5,0.8,0.9c0,0.2,0,0.3,0,0.5
		c0,11.4,0,22.9,0,34.3c0,1.1-0.3,1.5-1.5,1.5c-16.7,0-33.4,0-50,0c-0.2,0-0.5,0-0.7,0c-0.5-0.1-0.8-0.5-0.8-0.9c0-0.1,0-0.3,0-0.5
		c0-11.4,0-22.9,0-34.3c0-1.2,0.3-1.5,1.5-1.5C10.3,0.4,18.7,0.4,27,0.4z M51.4,35.5c0-11,0-22,0-32.9c-16.3,0-32.5,0-48.7,0
		c0,11,0,22,0,32.9C18.9,35.5,35.1,35.5,51.4,35.5z"/>
	<linearGradient id="SVGID_2_" gradientUnits="userSpaceOnUse" x1="5.3617" y1="19.0003" x2="48.638" y2="19.0003">
		<stop  offset="5.586592e-03" style="stop-color:#000046"/>
		<stop  offset="1" style="stop-color:#1CB5E0"/>
	</linearGradient>
	<path class="st1" d="M27,32.8c-5.3,0-10.6,0-15.9,0c-1,0-1.3-0.3-1.4-1.2c-0.2-1.6-1.4-2.7-3.1-2.8c-0.9-0.1-1.3-0.4-1.3-1.3
		c0-5.6,0-11.2,0-16.8c0-0.9,0.3-1.3,1.3-1.3c1.7-0.1,3.1-1.3,3.2-3c0-0.6,0.5-1,1.1-1c0.1,0,0.2,0,0.4,0c10.5,0,21,0,31.5,0
		c1.1,0,1.3,0.2,1.5,1.3c0.2,1.5,1.5,2.6,3.1,2.7c0.9,0.1,1.3,0.4,1.3,1.3c0,5.6,0,11.2,0,16.8c0,0.9-0.3,1.3-1.2,1.3
		c-1.7,0.1-3.1,1.3-3.2,3c0,0.6-0.4,1-1,1c-0.1,0-0.3,0-0.4,0C37.5,32.8,32.3,32.8,27,32.8z M42.2,30.6c0-0.1,0.1-0.2,0.1-0.2
		c0.6-1.9,1.9-3.1,3.8-3.6c0.4-0.1,0.4-0.2,0.4-0.6c0-4.8,0-9.6,0-14.5c0-0.4-0.1-0.5-0.5-0.6c-1.8-0.5-3.1-1.6-3.7-3.4
		c-0.1-0.4-0.3-0.5-0.7-0.5c-8.8,0-17.7,0-26.5,0c-1,0-2,0-3.1,0c-0.3,0-0.4,0.1-0.5,0.3C11.1,9.4,10,10.4,8.4,11
		c-0.3,0.1-0.6,0.2-0.9,0.3c0,0.2,0,0.3,0,0.5c0,4.8,0,9.6,0,14.4c0,0.4,0.1,0.5,0.5,0.6c1.8,0.5,3.1,1.6,3.7,3.3
		c0.1,0.4,0.3,0.5,0.7,0.5c9.8,0,19.6,0,29.4,0C41.9,30.6,42,30.6,42.2,30.6z"/>
	<linearGradient id="SVGID_3_" gradientUnits="userSpaceOnUse" x1="11.5072" y1="15.5343" x2="21.1326" y2="15.5343">
		<stop  offset="5.586592e-03" style="stop-color:#000046"/>
		<stop  offset="1" style="stop-color:#1CB5E0"/>
	</linearGradient>
	<path class="st2" d="M12.9,19c0.1-0.6,0.2-1.1,0.2-1.7c0-0.2-0.1-0.5-0.2-0.6c-0.3-0.4-0.7-0.8-1.1-1.2c-0.6-0.7-0.3-1.6,0.6-1.8
		c0.5-0.1,1.1-0.2,1.6-0.3c0.2,0,0.4-0.2,0.5-0.4c0.3-0.4,0.5-0.9,0.7-1.3c0.2-0.4,0.5-0.7,1-0.7c0.5,0,0.8,0.3,1,0.7
		c0.2,0.4,0.5,0.9,0.7,1.3c0.1,0.2,0.3,0.3,0.5,0.4c0.5,0.1,1,0.2,1.5,0.3c0.5,0.1,0.9,0.3,1,0.8c0.2,0.5,0,0.8-0.4,1.2
		c-0.2,0.2-0.4,0.5-0.7,0.7c-0.5,0.4-0.6,0.9-0.5,1.6c0.1,0.3,0.1,0.7,0.1,1c0.1,1-0.7,1.5-1.6,1.2c-0.5-0.2-1-0.4-1.4-0.7
		c-0.3-0.2-0.5-0.1-0.8,0c-0.5,0.2-1,0.5-1.5,0.7C13.7,20.4,12.9,19.9,12.9,19z M15.3,17.4c0.7-0.5,1.4-0.5,2.1,0
		c-0.3-0.9-0.1-1.5,0.7-2c-0.9,0-1.4-0.4-1.7-1.3c-0.2,0.9-0.8,1.2-1.7,1.3C15.3,15.9,15.5,16.5,15.3,17.4z"/>
	<linearGradient id="SVGID_4_" gradientUnits="userSpaceOnUse" x1="33.1522" y1="15.45" x2="42.8476" y2="15.45">
		<stop  offset="5.586592e-03" style="stop-color:#000046"/>
		<stop  offset="1" style="stop-color:#1CB5E0"/>
	</linearGradient>
	<path class="st3" d="M42.8,14.6c-0.1,0.3-0.2,0.5-0.4,0.8c-0.3,0.4-0.6,0.7-0.9,1c-0.4,0.3-0.4,0.7-0.4,1.1
		c0.1,0.5,0.1,0.9,0.2,1.4c0,0.9-0.7,1.4-1.5,1c-0.5-0.2-0.9-0.4-1.4-0.6c-0.3-0.2-0.6-0.2-0.9,0c-0.4,0.2-0.9,0.4-1.3,0.6
		c-0.4,0.2-0.8,0.2-1.2-0.1c-0.3-0.3-0.5-0.6-0.4-1.1c0.1-0.5,0.2-1.1,0.2-1.6c0-0.2-0.1-0.4-0.2-0.5c-0.4-0.4-0.8-0.8-1.1-1.2
		c-0.6-0.7-0.4-1.6,0.6-1.8c0.6-0.1,1.1-0.2,1.7-0.3c0.2,0,0.3-0.2,0.4-0.3c0.3-0.5,0.5-1,0.8-1.4c0.5-0.9,1.5-0.9,2,0
		c0.3,0.5,0.5,0.9,0.8,1.4c0.1,0.2,0.3,0.3,0.5,0.4c0.6,0.1,1.1,0.2,1.7,0.4C42.5,13.7,42.8,14.1,42.8,14.6z M39,17.2
		c-0.3-0.8,0-1.4,0.6-1.9c-0.9,0-1.3-0.5-1.6-1.3c-0.3,0.9-0.8,1.2-1.7,1.3c0.7,0.5,0.9,1.2,0.7,2C37.6,16.8,38.3,16.8,39,17.2z"/>
	<linearGradient id="SVGID_5_" gradientUnits="userSpaceOnUse" x1="22.3766" y1="13.2614" x2="31.9897" y2="13.2614">
		<stop  offset="5.586592e-03" style="stop-color:#000046"/>
		<stop  offset="1" style="stop-color:#1CB5E0"/>
	</linearGradient>
	<path class="st4" d="M23.8,16.6c0-0.3,0-0.7,0.1-1.1c0.2-0.6,0-1.1-0.5-1.5c-0.3-0.2-0.5-0.6-0.8-0.8c-0.6-0.7-0.3-1.6,0.6-1.8
		c0.5-0.1,1.1-0.2,1.6-0.3c0.2,0,0.4-0.2,0.5-0.3c0.3-0.4,0.5-0.9,0.8-1.4c0.2-0.4,0.5-0.7,1-0.7c0.5,0,0.8,0.3,1,0.7
		c0.2,0.3,0.4,0.6,0.5,0.9c0.2,0.5,0.6,0.8,1.2,0.9c0.4,0,0.7,0.1,1.1,0.2c0.4,0.1,0.8,0.3,0.9,0.7c0.1,0.4,0,0.8-0.3,1.2
		c-0.4,0.4-0.7,0.7-1.1,1.2c-0.1,0.2-0.2,0.4-0.2,0.6c0,0.5,0.1,1.1,0.2,1.6c0.1,0.9-0.7,1.5-1.5,1.1c-0.5-0.2-1-0.5-1.5-0.7
		c-0.2-0.1-0.4-0.1-0.6,0c-0.5,0.2-1,0.5-1.5,0.7C24.5,18.1,23.8,17.6,23.8,16.6z M25.6,13.1c0.6,0.5,0.8,1.1,0.5,2
		c0.7-0.6,1.4-0.5,2.1,0c-0.3-0.9,0-1.5,0.6-2c-0.9,0-1.4-0.4-1.7-1.2C26.9,12.7,26.4,13.1,25.6,13.1z"/>
	<linearGradient id="SVGID_6_" gradientUnits="userSpaceOnUse" x1="16.578" y1="26.8313" x2="36.3858" y2="26.8313">
		<stop  offset="5.586592e-03" style="stop-color:#000046"/>
		<stop  offset="1" style="stop-color:#1CB5E0"/>
	</linearGradient>
	<path class="st5" d="M26.5,25.8c2.9,0,5.7,0,8.6,0c0.2,0,0.4,0,0.6,0.1c0.5,0.1,0.7,0.6,0.7,1c0,0.5-0.3,0.8-0.7,1
		c-0.2,0.1-0.4,0.1-0.6,0.1c-5.7,0-11.4,0-17.1,0c0,0-0.1,0-0.1,0c-0.8,0-1.2-0.4-1.2-1.1c0-0.6,0.5-1.1,1.2-1.1
		C20.7,25.8,23.6,25.8,26.5,25.8z"/>
	<linearGradient id="SVGID_7_" gradientUnits="userSpaceOnUse" x1="20.4571" y1="22.5638" x2="32.9816" y2="22.5638">
		<stop  offset="5.586592e-03" style="stop-color:#000046"/>
		<stop  offset="1" style="stop-color:#1CB5E0"/>
	</linearGradient>
	<path class="st6" d="M26.7,21.5c1.7,0,3.5,0,5.2,0c0.5,0,0.9,0.3,1,0.7c0.1,0.4,0,0.9-0.4,1.2c-0.2,0.1-0.4,0.2-0.6,0.2
		c-3.5,0-6.9,0-10.4,0c-0.6,0-1.1-0.5-1.1-1.1c0-0.6,0.5-1,1.1-1C23.3,21.5,25,21.5,26.7,21.5z"/>
</g>
</svg>
