<?xml version="1.0" encoding="utf-8"?>
<!-- Generator: Adobe Illustrator 24.0.2, SVG Export Plug-In . SVG Version: 6.00 Build 0)  -->
<svg version="1.1" id="Layer_1" xmlns="http://www.w3.org/2000/svg" xmlns:xlink="http://www.w3.org/1999/xlink" x="0px" y="0px"
	 viewBox="0 0 65 65" style="enable-background:new 0 0 65 65;" xml:space="preserve">
<style type="text/css">
	.st0{fill:#FFFFFF;}
	.st1{enable-background:new    ;}
	.st2{fill:#FF2A00;}
</style>
<circle class="st0" cx="32.5" cy="32.5" r="32.5"/>
<g class="st1">
	<path class="st2" d="M22.7,23.2v13c0,1.5,0.3,2.6,1,3.4s1.6,1.2,2.9,1.2s2.2-0.4,2.9-1.2s1-1.9,1-3.4v-13H36v13
		c0,2.1-0.4,3.9-1.2,5.4c-0.8,1.5-2,2.6-3.4,3.3c-1.4,0.7-3.1,1.1-4.9,1.1c-1.8,0-3.4-0.4-4.8-1.1c-1.4-0.7-2.5-1.8-3.3-3.3
		c-0.8-1.5-1.2-3.3-1.2-5.4v-13H22.7z"/>
	<path class="st2" d="M40,20.8c0.6-0.5,1.4-0.8,2.4-0.8c1,0,1.8,0.3,2.4,0.8s0.9,1.2,0.9,2.1c0,0.8-0.3,1.5-0.9,2s-1.4,0.8-2.4,0.8
		c-1,0-1.8-0.3-2.4-0.8s-0.9-1.2-0.9-2C39.1,22.1,39.4,21.4,40,20.8z M45,27.9v17.8h-5.5V27.9H45z"/>
</g>
</svg>
