<?xml version="1.0" encoding="utf-8"?>
<!-- Generator: Adobe Illustrator 24.0.2, SVG Export Plug-In . SVG Version: 6.00 Build 0)  -->
<svg version="1.1" id="Layer_1" xmlns="http://www.w3.org/2000/svg" xmlns:xlink="http://www.w3.org/1999/xlink" x="0px" y="0px"
	 viewBox="0 0 90 44" style="enable-background:new 0 0 90 44;" xml:space="preserve">
<style type="text/css">
	.st0{fill:url(#SVGID_1_);}
</style>
<linearGradient id="SVGID_1_" gradientUnits="userSpaceOnUse" x1="0.7857" y1="22" x2="89.2143" y2="22">
	<stop  offset="0" style="stop-color:#852D91"/>
	<stop  offset="1" style="stop-color:#312A6C"/>
</linearGradient>
<path class="st0" d="M68.3,1C58.7,1.1,50.7,7.3,45,14.4l-4.8,7.7c-2.3,3.8-5.5,7.3-9.3,9.7C21.8,37.5,9.8,33.4,9.3,22
	c0.4-11.5,12.2-15.5,21.4-9.6c3.1,2,5.7,4.5,8,7.5l0,0l4.8-7.4C38.9,7.2,32.9,2.8,25.8,1.5C12.6-0.9,1.8,8.7,0.8,21.1
	c-0.1,0.3-0.1,0.6-0.1,0.9c0.4,11.2,9,20.9,20.9,21C31.3,43,39.4,37,45,29.9l4.8-7.8c2.4-3.8,5.7-7.3,9.5-9.7
	c9.1-5.8,20.9-1.9,21.4,9.6c-0.4,11.4-12.4,15.5-21.6,9.7c-2.8-1.8-5.6-4.6-7.6-7.3L47,31.6c4.8,6.1,9.2,9.6,17.2,11
	c13.1,2.2,24-7.2,25-19.6c0.1-0.3,0.1-0.6,0.1-0.9C88.8,10.9,80.3,0.9,68.3,1z"/>
</svg>
