<?xml version="1.0" encoding="utf-8"?>
<!-- Generator: Adobe Illustrator 24.0.2, SVG Export Plug-In . SVG Version: 6.00 Build 0)  -->
<svg version="1.1" id="Layer_1" xmlns="http://www.w3.org/2000/svg" xmlns:xlink="http://www.w3.org/1999/xlink" x="0px" y="0px"
	 viewBox="0 0 32 32" style="enable-background:new 0 0 32 32;" xml:space="preserve">
<style type="text/css">
	.st0{fill:#FA872A;}
</style>
<g transform="scale(0.03125 0.03125)">
	<path class="st0" d="M512,192C229.2,192,0,512,0,512s229.2,320,512,320s512-320,512-320S794.8,192,512,192z M512,704
		c-106,0-192-86-192-192s86-192,192-192s192,86,192,192S618,704,512,704z M512,384c-70.7,0-128,57.3-128,128s57.3,128,128,128
		s128-57.3,128-128S582.7,384,512,384z"/>
</g>
</svg>
