<?xml version="1.0" encoding="utf-8"?>
<!-- Generator: Adobe Illustrator 24.0.2, SVG Export Plug-In . SVG Version: 6.00 Build 0)  -->
<svg version="1.1" id="Layer_1" xmlns="http://www.w3.org/2000/svg" xmlns:xlink="http://www.w3.org/1999/xlink" x="0px" y="0px"
	 viewBox="0 0 1173.7 187.6" style="enable-background:new 0 0 1173.7 187.6;" xml:space="preserve">
<style type="text/css">
	.st0{fill:#FB8F29;}
	.st1{fill:url(#SVGID_55_);}
	.st2{fill:url(#SVGID_56_);}
	.st3{fill:url(#SVGID_57_);}
	.st4{fill:none;}
	.st5{fill:url(#SVGID_58_);}
	.st6{fill:url(#SVGID_59_);}
	.st7{fill:url(#SVGID_60_);}
	.st8{fill:url(#SVGID_61_);}
	.st9{fill:url(#SVGID_62_);}
	.st10{fill:url(#SVGID_63_);}
	.st11{fill:url(#SVGID_64_);}
	.st12{fill:url(#SVGID_65_);}
	.st13{fill:url(#SVGID_66_);}
	.st14{fill:url(#SVGID_67_);}
	.st15{fill:url(#SVGID_68_);}
	.st16{fill:url(#SVGID_69_);}
	.st17{fill:url(#SVGID_70_);}
	.st18{fill:url(#SVGID_71_);}
	.st19{fill:url(#SVGID_72_);}
	.st20{fill:url(#SVGID_73_);}
	.st21{fill:url(#SVGID_74_);}
	.st22{fill:url(#SVGID_75_);}
	.st23{fill:url(#SVGID_76_);}
</style>
<g>
	<g>
		<path class="st0" d="M1125,29.6c-3.7,0-7.3,0-11,0c0,0.5,0,1,0,1.6c0,0.5-0.3,0.8-0.7,1c-0.4,0.1-0.9,0-1.2-0.3
			c-0.1-0.2-0.3-0.5-0.3-0.7c0-0.9,0-1.8,0-2.6c0-0.6,0.5-1.1,1.1-1.1c0.2,0,0.4,0,0.6,0c0.5,0.1,0.9-0.1,1.2-0.4
			c1-0.7,1.4-1.8,1.7-3c0.1-0.4,0-0.5-0.3-0.7c-1.4-0.8-2.6-1.9-3.5-3.3c-1.5-2.2-2.5-4.6-3.1-7.2c-0.2-0.9-0.4-1.9-0.6-2.8
			c0-0.1-0.1-0.2-0.2-0.2c-0.8,0-1.7,0-2.5,0c0.1,0.9,0.3,1.8,0.6,2.7c0.7,1.7,1.7,3.2,2.9,4.5c0.5,0.5,0.5,1.2,0,1.6
			c-0.5,0.4-1.1,0.4-1.6-0.2c-1.4-1.5-2.6-3.2-3.4-5.2c-0.6-1.4-0.9-2.9-0.9-4.5c0-0.8,0.4-1.2,1.2-1.2c1.1,0,2.1,0,3.2,0
			c0.1,0,0.2,0,0.3,0c0-0.1,0-0.3,0.1-0.4c0.1-0.5,0.6-0.8,1.1-0.8c0.5,0,0.9,0.4,1,0.9c0.1,0.7,0.1,1.4,0.2,2.2
			c0.4,3,1.2,5.9,2.8,8.5c0.6,1.1,1.4,2,2.3,2.8c2.1,1.7,4.5,1.7,6.7,0c1.4-1.2,2.4-2.7,3.1-4.3c1.1-2.2,1.7-4.6,2-7
			c0.1-0.7,0.1-1.4,0.2-2.2c0.1-0.5,0.5-0.9,1-0.9c0.5,0,1,0.3,1.1,0.8c0,0.1,0,0.3,0.1,0.5c0.1,0,0.2,0,0.3,0c1.1,0,2.1,0,3.2,0
			c0.8,0,1.2,0.4,1.2,1.2c0,2.9-1,5.4-2.7,7.7c-0.5,0.7-1.1,1.3-1.6,1.9c-0.4,0.5-1.1,0.5-1.6,0.1c-0.5-0.4-0.5-1.1,0-1.6
			c1.2-1.3,2.2-2.6,2.9-4.3c0.4-0.9,0.6-1.9,0.7-2.9c-0.3,0-0.6,0-0.8,0c-0.5,0-1.1,0-1.6,0c-0.2,0-0.3,0-0.3,0.3
			c-0.4,2.9-1.2,5.6-2.5,8.2c-0.9,1.7-2,3.2-3.6,4.4c-0.4,0.3-0.8,0.5-1.2,0.8c-0.1,0.1-0.2,0.2-0.2,0.2c0.2,1.5,0.8,2.7,2.1,3.5
			c0.2,0.1,0.4,0.1,0.6,0.2c0.3,0,0.6,0,0.9,0c0.6,0,1,0.4,1.1,1c0,0.9,0,1.8,0,2.8c0,0.6-0.5,1-1.1,1c-0.6,0-1.1-0.5-1.1-1.1
			C1125,30.7,1125,30.2,1125,29.6z M1117.3,27.4c1.5,0,2.9,0,4.4,0c-0.7-1-1.1-2-1.3-3.1c-0.6,0-1.2,0-1.8,0
			C1118.4,25.4,1118,26.4,1117.3,27.4z"/>
		<path class="st0" d="M1119.5,5.4c-3.3,0-6.5,0-9.8,0c-0.8,0-1.3-0.6-1.1-1.3c0.1-0.5,0.5-0.8,1-0.9c0.1,0,0.2,0,0.2,0
			c6.5,0,13,0,19.5,0c0.1,0,0.3,0,0.4,0c0.5,0.1,0.9,0.6,0.8,1.2c-0.1,0.6-0.5,1-1.1,1c-1.7,0-3.4,0-5.1,0
			C1122.7,5.4,1121.1,5.4,1119.5,5.4z"/>
		<path class="st0" d="M1122.1,16.6c-0.8-0.4-1.6-0.8-2.3-1.1c-0.2-0.1-0.4-0.1-0.6,0c-0.7,0.4-1.5,0.8-2.3,1.2
			c0.1-0.5,0.2-1,0.2-1.5c0.1-0.4,0.1-0.7,0.2-1.1c0-0.2,0-0.3-0.2-0.4c-0.5-0.5-1.1-1.1-1.6-1.6c-0.1-0.1-0.1-0.1-0.2-0.3
			c0.8-0.1,1.6-0.3,2.4-0.4c0.4,0,0.6-0.2,0.8-0.5c0.3-0.7,0.7-1.4,1.1-2.1c0.2,0.5,0.5,0.9,0.7,1.3c0.2,0.4,0.4,0.8,0.6,1.1
			c0.1,0.1,0.2,0.2,0.3,0.2c0.9,0.2,1.7,0.3,2.6,0.4c0,0,0.1,0.1,0.1,0.1c-0.1,0.1-0.3,0.2-0.4,0.3c-0.5,0.5-1,1-1.5,1.5
			c-0.1,0.1-0.1,0.2-0.1,0.4c0.1,0.8,0.2,1.6,0.3,2.3C1122.1,16.3,1122.1,16.4,1122.1,16.6z"/>
	</g>
</g>
<g>
	<defs>
		<polygon id="SVGID_1_" points="52,107.4 51,107.4 51,59.5 52,59.5 52,107.4 		"/>
	</defs>
	<clipPath id="SVGID_2_">
		<use xlink:href="#SVGID_1_"  style="overflow:visible;"/>
	</clipPath>
	<g style="clip-path:url(#SVGID_2_);">
		
			<image style="overflow:visible;" width="1203" height="223" xlink:href="2441F52C.jpg"  transform="matrix(1 0 0 1 -11.5967 -17.5722)">
		</image>
	</g>
</g>
<g>
	<defs>
		<polygon id="SVGID_3_" points="52,107.4 51,107.4 51,59.5 52,59.5 52,107.4 52,107.4 		"/>
	</defs>
	<clipPath id="SVGID_4_">
		<use xlink:href="#SVGID_3_"  style="overflow:visible;"/>
	</clipPath>
	<g style="clip-path:url(#SVGID_4_);">
		
			<image style="overflow:visible;" width="1203" height="223" xlink:href="2441F52D.jpg"  transform="matrix(1 0 0 1 -11.5967 -17.5722)">
		</image>
	</g>
</g>
<g>
	<defs>
		<path id="SVGID_5_" d="M27.4,41.1v3.1h3.3v0.9h-3.3v4h-1.1v-8.8h5v0.9H27.4L27.4,41.1z M33.8,40.6c-0.1,0.1-0.3,0.2-0.6,0.2
			c-0.2,0-0.4-0.1-0.6-0.2c-0.1-0.1-0.2-0.3-0.2-0.5c0-0.2,0.1-0.4,0.2-0.5c0.1-0.1,0.3-0.2,0.6-0.2c0.2,0,0.4,0.1,0.6,0.2
			c0.1,0.1,0.2,0.3,0.2,0.5C34,40.3,33.9,40.5,33.8,40.6L33.8,40.6z M33.8,49h-1.1v-6.9h1.1V49L33.8,49z M38.9,43.3
			c-0.6,0-1.2,0.2-1.6,0.5c-0.4,0.3-0.6,0.9-0.6,1.6V49h-1.1v-6.9h1.1v1.4c0.2-0.5,0.6-0.8,1-1.1c0.4-0.3,1-0.4,1.6-0.4v1.2H38.9
			L38.9,43.3z M43.7,43.3c-0.3-0.3-0.7-0.4-1.2-0.4c-0.4,0-0.7,0.1-1,0.3c-0.2,0.2-0.3,0.5-0.3,0.8c0,0.2,0.1,0.5,0.2,0.6
			c0.2,0.2,0.3,0.3,0.6,0.3c0.2,0.1,0.5,0.2,0.9,0.3c0.5,0.1,0.9,0.2,1.2,0.4c0.3,0.1,0.6,0.3,0.8,0.6c0.2,0.3,0.3,0.6,0.3,1.1
			c0,0.6-0.2,1-0.6,1.4c-0.4,0.4-1,0.5-1.7,0.5c-0.8,0-1.5-0.2-2-0.6c-0.5-0.4-0.8-0.9-0.9-1.6h1.1c0,0.4,0.2,0.8,0.5,1
			c0.3,0.3,0.7,0.4,1.3,0.4c0.4,0,0.7-0.1,0.9-0.3c0.2-0.2,0.3-0.5,0.3-0.8c0-0.3-0.1-0.5-0.2-0.6c-0.2-0.2-0.4-0.3-0.6-0.4
			c-0.2-0.1-0.6-0.2-1-0.3c-0.5-0.1-0.9-0.2-1.2-0.3c-0.3-0.1-0.6-0.3-0.8-0.6c-0.2-0.3-0.3-0.6-0.3-1c0-0.6,0.2-1,0.6-1.4
			c0.4-0.4,1-0.5,1.7-0.5c0.8,0,1.4,0.2,1.9,0.6c0.5,0.4,0.8,0.9,0.9,1.6h-1.1C44.2,43.9,44,43.5,43.7,43.3L43.7,43.3z M48.6,47.8
			c0.2,0.2,0.4,0.2,0.8,0.2h0.7v1h-0.9c-0.7,0-1.2-0.2-1.6-0.5c-0.3-0.3-0.5-0.9-0.5-1.7v-3.7h-1v-1h1v-1.7h1.2v1.7h1.8v1h-1.8v3.7
			C48.4,47.3,48.5,47.6,48.6,47.8L48.6,47.8z M58.3,41.4C58,41.1,57.6,41,57.1,41c-0.5,0-0.8,0.1-1.1,0.4c-0.3,0.2-0.4,0.6-0.4,1
			c0,0.3,0.1,0.6,0.3,0.8c0.2,0.2,0.4,0.4,0.7,0.5c0.3,0.1,0.6,0.3,1.1,0.4c0.6,0.2,1,0.4,1.4,0.5c0.3,0.2,0.6,0.4,0.9,0.8
			c0.2,0.3,0.4,0.8,0.4,1.3c0,0.4-0.1,0.8-0.3,1.2c-0.2,0.4-0.5,0.7-0.9,0.9c-0.4,0.2-0.9,0.3-1.5,0.3c-0.6,0-1.1-0.1-1.6-0.3
			c-0.5-0.2-0.8-0.5-1.1-0.9c-0.3-0.4-0.4-0.8-0.5-1.3h1.2c0,0.2,0.1,0.5,0.3,0.7c0.1,0.2,0.4,0.4,0.6,0.6c0.3,0.2,0.6,0.2,1,0.2
			c0.5,0,0.9-0.1,1.2-0.4c0.3-0.3,0.4-0.6,0.4-1c0-0.4-0.1-0.7-0.3-0.9c-0.2-0.2-0.4-0.4-0.7-0.5c-0.3-0.1-0.7-0.3-1.1-0.4
			c-0.6-0.2-1-0.4-1.3-0.5c-0.3-0.2-0.6-0.4-0.9-0.7c-0.2-0.3-0.4-0.8-0.4-1.3c0-0.5,0.1-0.9,0.3-1.2c0.2-0.4,0.5-0.6,1-0.8
			c0.4-0.2,0.9-0.3,1.5-0.3c0.9,0,1.6,0.2,2.1,0.6c0.5,0.4,0.8,1,0.9,1.6h-1.2C58.8,42,58.6,41.7,58.3,41.4L58.3,41.4z M63.5,47.8
			c0.2,0.2,0.4,0.2,0.8,0.2H65v1h-0.9c-0.7,0-1.2-0.2-1.6-0.5c-0.3-0.3-0.5-0.9-0.5-1.7v-3.7h-1v-1h1v-1.7h1.2v1.7H65v1h-1.8v3.7
			C63.3,47.3,63.3,47.6,63.5,47.8L63.5,47.8z M72.7,45.8h-5.5c0,0.8,0.2,1.4,0.7,1.8c0.4,0.4,0.9,0.6,1.5,0.6c0.6,0,1-0.1,1.4-0.4
			c0.4-0.3,0.6-0.7,0.7-1.1h1.2c-0.1,0.5-0.3,0.9-0.6,1.3c-0.3,0.4-0.7,0.7-1.1,0.9c-0.5,0.2-1,0.3-1.6,0.3c-0.7,0-1.2-0.1-1.8-0.4
			c-0.5-0.3-0.9-0.7-1.2-1.2c-0.3-0.5-0.4-1.2-0.4-1.9c0-0.7,0.1-1.3,0.4-1.9c0.3-0.5,0.7-0.9,1.2-1.2c0.5-0.3,1.1-0.4,1.8-0.4
			c0.7,0,1.2,0.1,1.7,0.4c0.5,0.3,0.9,0.7,1.1,1.1c0.3,0.5,0.4,1,0.4,1.6C72.8,45.4,72.7,45.6,72.7,45.8L72.7,45.8z M71.4,44
			c-0.2-0.3-0.5-0.6-0.8-0.8c-0.3-0.2-0.7-0.2-1.1-0.2c-0.6,0-1.2,0.2-1.6,0.6c-0.4,0.4-0.7,1-0.7,1.7h4.4
			C71.6,44.8,71.6,44.3,71.4,44L71.4,44z M80.8,47.5c-0.3,0.5-0.6,0.9-1.1,1.2c-0.5,0.3-1,0.4-1.6,0.4c-0.7,0-1.2-0.2-1.7-0.5
			c-0.5-0.3-0.8-0.8-1-1.3v5h-1.1V42.1h1.1v1.8c0.2-0.6,0.5-1,1-1.3c0.5-0.3,1-0.5,1.7-0.5c0.6,0,1.2,0.1,1.6,0.4
			c0.5,0.3,0.8,0.7,1.1,1.2c0.3,0.5,0.4,1.2,0.4,1.9C81.2,46.3,81.1,46.9,80.8,47.5L80.8,47.5z M79.4,43.7c-0.4-0.4-1-0.7-1.7-0.7
			c-0.4,0-0.8,0.1-1.2,0.3c-0.4,0.2-0.6,0.5-0.8,0.9c-0.2,0.4-0.3,0.8-0.3,1.3c0,0.5,0.1,0.9,0.3,1.3c0.2,0.4,0.5,0.7,0.8,0.9
			s0.8,0.3,1.2,0.3c0.7,0,1.3-0.2,1.7-0.7c0.4-0.4,0.6-1.1,0.6-1.8C80,44.8,79.8,44.2,79.4,43.7L79.4,43.7z"/>
	</defs>
	<clipPath id="SVGID_6_">
		<use xlink:href="#SVGID_5_"  style="overflow:visible;"/>
	</clipPath>
	<g style="clip-path:url(#SVGID_6_);">
		
			<image style="overflow:visible;" width="1203" height="223" xlink:href="2441F52B.jpg"  transform="matrix(1 0 0 1 -11.5967 -17.5722)">
		</image>
	</g>
</g>
<g>
	<defs>
		<path id="SVGID_7_" d="M92.7,58.5V32.3H14.4v26.2H92.7 M93.7,59.5H13.4V31.3h80.3V59.5L93.7,59.5L93.7,59.5z"/>
	</defs>
	<clipPath id="SVGID_8_">
		<use xlink:href="#SVGID_7_"  style="overflow:visible;"/>
	</clipPath>
	<g style="clip-path:url(#SVGID_8_);">
		
			<image style="overflow:visible;" width="1203" height="223" xlink:href="2441F534.jpg"  transform="matrix(1 0 0 1 -11.5967 -17.5722)">
		</image>
	</g>
</g>
<g>
	<defs>
		<path id="SVGID_9_" d="M47.8,110.5v-2h8v2H47.8 M59.8,110.5v-2h8v2H59.8 M71.8,110.5v-2h8v2H71.8 M83.8,110.5v-2h8v2H83.8
			 M95.8,110.5v-2h8v2H95.8 M107.8,110.5v-2h8v2H107.8 M119.8,110.5v-2h8v2H119.8 M131.8,110.5v-2h8v2H131.8 M143.8,110.5v-2h8v2
			H143.8 M155.8,110.5v-2h8v2H155.8 M167.8,110.5v-2h8v2H167.8"/>
	</defs>
	<clipPath id="SVGID_10_">
		<use xlink:href="#SVGID_9_"  style="overflow:visible;"/>
	</clipPath>
	<g style="clip-path:url(#SVGID_10_);">
		
			<image style="overflow:visible;" width="1203" height="223" xlink:href="2441F537.jpg"  transform="matrix(1 0 0 1 -11.5967 -17.5722)">
		</image>
	</g>
</g>
<g>
	<defs>
		<path id="SVGID_11_" d="M52,103.3c3.4,0,6.2,2.8,6.2,6.3c0,3.5-2.8,6.3-6.2,6.3s-6.2-2.8-6.2-6.3C45.8,106.1,48.6,103.3,52,103.3
			L52,103.3z"/>
	</defs>
	<clipPath id="SVGID_12_">
		<use xlink:href="#SVGID_11_"  style="overflow:visible;"/>
	</clipPath>
	<g style="clip-path:url(#SVGID_12_);">
		
			<image style="overflow:visible;" width="1203" height="223" xlink:href="2441F535.jpg"  transform="matrix(1 0 0 1 -11.5967 -17.5722)">
		</image>
	</g>
</g>
<g>
	<defs>
		<polygon id="SVGID_13_" points="1120.5,107.4 1121.5,107.4 1121.5,59.5 1120.5,59.5 1120.5,107.4 		"/>
	</defs>
	<clipPath id="SVGID_14_">
		<use xlink:href="#SVGID_13_"  style="overflow:visible;"/>
	</clipPath>
	<g style="clip-path:url(#SVGID_14_);">
		
			<image style="overflow:visible;" width="1203" height="223" xlink:href="2441F53B.jpg"  transform="matrix(1 0 0 1 -11.5967 -17.5722)">
		</image>
	</g>
</g>
<g>
	<defs>
		<polygon id="SVGID_15_" points="1121.5,107.4 1120.5,107.4 1120.5,59.5 1121.5,59.5 1121.5,107.4 1121.5,107.4 		"/>
	</defs>
	<clipPath id="SVGID_16_">
		<use xlink:href="#SVGID_15_"  style="overflow:visible;"/>
	</clipPath>
	<g style="clip-path:url(#SVGID_16_);">
		
			<image style="overflow:visible;" width="1203" height="223" xlink:href="2441F53C.jpg"  transform="matrix(1 0 0 1 -11.5967 -17.5722)">
		</image>
	</g>
</g>
<g>
	<defs>
		<path id="SVGID_17_" d="M1088.3,42.7c-0.3-0.2-0.8-0.3-1.2-0.3c-0.6,0-1.1,0.2-1.5,0.7c-0.4,0.5-0.6,1.1-0.6,1.8
			c0,0.8,0.2,1.4,0.6,1.8c0.4,0.5,0.9,0.7,1.5,0.7c0.5,0,0.9-0.1,1.2-0.3c0.3-0.2,0.6-0.5,0.8-0.9h2.3c-0.2,1-0.7,1.8-1.4,2.4
			c-0.7,0.6-1.7,0.9-2.8,0.9c-0.9,0-1.6-0.2-2.3-0.6c-0.7-0.4-1.2-0.9-1.5-1.6c-0.4-0.7-0.5-1.5-0.5-2.3c0-0.9,0.2-1.6,0.5-2.3
			c0.4-0.7,0.9-1.2,1.5-1.6c0.7-0.4,1.4-0.6,2.3-0.6c1.1,0,2.1,0.3,2.8,0.9c0.7,0.6,1.2,1.4,1.4,2.4h-2.3
			C1088.9,43.2,1088.6,42.9,1088.3,42.7L1088.3,42.7z M1099,47.6c-0.3,0.5-0.7,1-1.3,1.2c-0.5,0.3-1.2,0.4-1.9,0.4
			c-0.7,0-1.3-0.1-1.9-0.4c-0.6-0.3-1-0.7-1.3-1.2c-0.3-0.5-0.5-1.2-0.5-1.9c0-0.7,0.2-1.3,0.5-1.9c0.3-0.5,0.8-1,1.3-1.2
			s1.2-0.4,1.9-0.4c0.7,0,1.3,0.1,1.9,0.4c0.5,0.3,1,0.7,1.3,1.2c0.3,0.5,0.5,1.2,0.5,1.9C1099.4,46.5,1099.3,47.1,1099,47.6
			L1099,47.6z M1096.8,44.5c-0.3-0.3-0.6-0.4-1-0.4s-0.8,0.1-1,0.4c-0.3,0.3-0.4,0.7-0.4,1.3c0,0.6,0.1,1,0.4,1.3
			c0.3,0.3,0.6,0.4,1,0.4s0.8-0.1,1-0.4c0.3-0.3,0.4-0.7,0.4-1.3C1097.2,45.2,1097.1,44.8,1096.8,44.5L1096.8,44.5z M1110.3,49.2
			v-3.8c0-0.4-0.1-0.8-0.4-1c-0.2-0.2-0.6-0.4-1-0.4c-0.4,0-0.8,0.1-1,0.4c-0.2,0.3-0.4,0.6-0.4,1.1v3.7h-2.1v-3.8
			c0-0.4-0.1-0.8-0.4-1c-0.2-0.2-0.6-0.4-1-0.4c-0.4,0-0.8,0.1-1,0.4c-0.3,0.3-0.4,0.6-0.4,1.1v3.7h-2.1v-6.9h2.1v1.2
			c0.2-0.4,0.5-0.7,0.8-0.9c0.4-0.2,0.8-0.3,1.3-0.3c0.5,0,1,0.1,1.4,0.4c0.4,0.2,0.7,0.6,0.9,1.1c0.2-0.4,0.6-0.8,1-1
			c0.4-0.3,0.9-0.4,1.4-0.4c0.9,0,1.5,0.3,2,0.8c0.5,0.5,0.7,1.3,0.7,2.2v4H1110.3L1110.3,49.2z M1120.9,47.6
			c-0.3,0.5-0.6,1-1.1,1.2c-0.5,0.3-1,0.4-1.6,0.4c-0.5,0-1-0.1-1.4-0.4c-0.4-0.2-0.7-0.6-0.8-1v4.6h-2.1V42.3h2.1v1.3
			c0.2-0.4,0.5-0.7,0.8-1c0.4-0.2,0.8-0.4,1.4-0.4c0.6,0,1.1,0.1,1.6,0.4c0.5,0.3,0.8,0.7,1.1,1.2c0.3,0.5,0.4,1.2,0.4,1.9
			C1121.3,46.5,1121.1,47.1,1120.9,47.6L1120.9,47.6z M1118.7,44.5c-0.3-0.3-0.7-0.4-1.1-0.4c-0.5,0-0.8,0.2-1.1,0.5
			c-0.3,0.3-0.4,0.7-0.4,1.2c0,0.5,0.1,0.9,0.4,1.2c0.3,0.3,0.7,0.5,1.1,0.5c0.5,0,0.8-0.1,1.1-0.4c0.3-0.3,0.4-0.7,0.4-1.2
			C1119.1,45.2,1118.9,44.8,1118.7,44.5L1118.7,44.5z M1122.4,49.2V40h2.1v9.2H1122.4L1122.4,49.2z M1132.6,46.1h-4.9
			c0,0.5,0.2,0.9,0.4,1.1c0.2,0.2,0.6,0.3,0.9,0.3c0.3,0,0.6-0.1,0.8-0.2c0.2-0.2,0.3-0.4,0.4-0.6h2.3c-0.1,0.5-0.3,0.9-0.6,1.3
			c-0.3,0.4-0.7,0.7-1.2,0.9c-0.5,0.2-1,0.3-1.6,0.3c-0.7,0-1.3-0.1-1.8-0.4c-0.5-0.3-1-0.7-1.3-1.2c-0.3-0.5-0.5-1.2-0.5-1.9
			c0-0.7,0.2-1.4,0.4-1.9c0.3-0.5,0.7-0.9,1.3-1.2c0.5-0.3,1.1-0.4,1.8-0.4c0.7,0,1.3,0.1,1.8,0.4c0.5,0.3,0.9,0.7,1.2,1.2
			c0.3,0.5,0.4,1.1,0.4,1.8C1132.7,45.7,1132.7,45.9,1132.6,46.1L1132.6,46.1z M1130.1,44.2c-0.3-0.2-0.6-0.3-0.9-0.3
			c-0.4,0-0.7,0.1-1,0.3c-0.3,0.2-0.4,0.6-0.4,1h2.7C1130.5,44.8,1130.4,44.5,1130.1,44.2L1130.1,44.2z M1136.5,47.2
			c0.1,0.1,0.3,0.2,0.6,0.2h0.7v1.8h-1c-0.8,0-1.5-0.2-1.9-0.6c-0.5-0.4-0.7-1.1-0.7-2v-2.5h-0.9v-1.8h0.9v-1.7h2.2v1.7h1.4v1.8
			h-1.4v2.6C1136.4,46.9,1136.4,47.1,1136.5,47.2L1136.5,47.2z M1145.6,46.1h-4.9c0,0.5,0.2,0.9,0.4,1.1c0.2,0.2,0.6,0.3,0.9,0.3
			c0.3,0,0.6-0.1,0.8-0.2c0.2-0.2,0.3-0.4,0.4-0.6h2.3c-0.1,0.5-0.3,0.9-0.6,1.3s-0.7,0.7-1.2,0.9c-0.5,0.2-1,0.3-1.6,0.3
			c-0.7,0-1.3-0.1-1.8-0.4c-0.5-0.3-0.9-0.7-1.3-1.2c-0.3-0.5-0.5-1.2-0.5-1.9c0-0.7,0.1-1.4,0.4-1.9c0.3-0.5,0.7-0.9,1.2-1.2
			s1.2-0.4,1.8-0.4c0.7,0,1.3,0.1,1.8,0.4c0.5,0.3,0.9,0.7,1.2,1.2c0.3,0.5,0.4,1.1,0.4,1.8C1145.7,45.7,1145.6,45.9,1145.6,46.1
			L1145.6,46.1z M1143.1,44.2c-0.3-0.2-0.6-0.3-1-0.3c-0.4,0-0.7,0.1-1,0.3c-0.3,0.2-0.4,0.6-0.4,1h2.7
			C1143.5,44.8,1143.4,44.5,1143.1,44.2L1143.1,44.2z M1151.7,49.2V48c-0.2,0.4-0.5,0.7-0.8,1c-0.4,0.2-0.8,0.4-1.4,0.4
			c-0.6,0-1.1-0.1-1.6-0.4c-0.5-0.3-0.8-0.7-1.1-1.2c-0.3-0.5-0.4-1.2-0.4-1.9c0-0.7,0.1-1.4,0.4-1.9c0.3-0.5,0.6-0.9,1.1-1.2
			c0.5-0.3,1-0.4,1.6-0.4c0.5,0,1,0.1,1.4,0.4c0.4,0.2,0.7,0.6,0.8,1V40h2.1v9.2H1151.7L1151.7,49.2z M1151.2,44.5
			c-0.3-0.3-0.7-0.5-1.1-0.5c-0.5,0-0.8,0.1-1.1,0.4c-0.3,0.3-0.4,0.7-0.4,1.2c0,0.5,0.1,0.9,0.4,1.2s0.7,0.4,1.1,0.4
			c0.5,0,0.8-0.2,1.1-0.5c0.3-0.3,0.4-0.7,0.4-1.2C1151.7,45.2,1151.5,44.8,1151.2,44.5L1151.2,44.5z"/>
	</defs>
	<clipPath id="SVGID_18_">
		<use xlink:href="#SVGID_17_"  style="overflow:visible;"/>
	</clipPath>
	<g style="clip-path:url(#SVGID_18_);">
		
			<image style="overflow:visible;" width="1203" height="223" xlink:href="2441F53F.jpg"  transform="matrix(1 0 0 1 -11.5967 -17.5722)">
		</image>
	</g>
</g>
<g>
	<defs>
		<path id="SVGID_19_" d="M1165.4,58.5V32.3h-93v26.2H1165.4 M1166.4,59.5h-95V31.3h95V59.5L1166.4,59.5L1166.4,59.5z"/>
	</defs>
	<clipPath id="SVGID_20_">
		<use xlink:href="#SVGID_19_"  style="overflow:visible;"/>
	</clipPath>
	<g style="clip-path:url(#SVGID_20_);">
		
			<image style="overflow:visible;" width="1203" height="223" xlink:href="3D886FBB.jpg"  transform="matrix(1 0 0 1 -11.5967 -17.5722)">
		</image>
	</g>
</g>
<g>
	<defs>
		<path id="SVGID_21_" d="M1124.7,106.5v2h-8v-2H1124.7 M1112.7,106.5v2h-8v-2H1112.7 M1100.7,106.5v2h-8v-2H1100.7 M1088.7,106.5v2
			h-8v-2H1088.7 M1076.7,106.5v2h-8v-2H1076.7 M1064.7,106.5v2h-8v-2H1064.7 M1052.7,106.5v2h-8v-2H1052.7 M1040.7,106.5v2h-8v-2
			H1040.7 M1028.7,106.5v2h-8v-2H1028.7 M1016.7,106.5v2h-8v-2H1016.7 M1004.7,106.5v2h-8v-2H1004.7"/>
	</defs>
	<clipPath id="SVGID_22_">
		<use xlink:href="#SVGID_21_"  style="overflow:visible;"/>
	</clipPath>
	<g style="clip-path:url(#SVGID_22_);">
		
			<image style="overflow:visible;" width="1203" height="223" xlink:href="3D886FB9.jpg"  transform="matrix(1 0 0 1 -11.5967 -17.5722)">
		</image>
	</g>
</g>
<g>
	<defs>
		<path id="SVGID_23_" d="M1120.5,103.3c3.5,0,6.3,2.8,6.3,6.3c0,3.5-2.8,6.3-6.3,6.3s-6.3-2.8-6.3-6.3
			C1114.2,106.1,1117,103.3,1120.5,103.3L1120.5,103.3z"/>
	</defs>
	<clipPath id="SVGID_24_">
		<use xlink:href="#SVGID_23_"  style="overflow:visible;"/>
	</clipPath>
	<g style="clip-path:url(#SVGID_24_);">
		
			<image style="overflow:visible;" width="1203" height="223" xlink:href="3D886FBF.jpg"  transform="matrix(1 0 0 1 -11.5967 -17.5722)">
		</image>
	</g>
</g>
<g>
	<defs>
		<polygon id="SVGID_25_" points="406.8,107.4 405.7,107.4 405.7,59.5 406.8,59.5 406.8,107.4 		"/>
	</defs>
	<clipPath id="SVGID_26_">
		<use xlink:href="#SVGID_25_"  style="overflow:visible;"/>
	</clipPath>
	<g style="clip-path:url(#SVGID_26_);">
		
			<image style="overflow:visible;" width="1203" height="223" xlink:href="3D886FBA.jpg"  transform="matrix(1 0 0 1 -11.5967 -17.5722)">
		</image>
	</g>
</g>
<g>
	<defs>
		<polygon id="SVGID_27_" points="406.8,107.4 405.7,107.4 405.7,59.5 406.8,59.5 406.8,107.4 406.8,107.4 		"/>
	</defs>
	<clipPath id="SVGID_28_">
		<use xlink:href="#SVGID_27_"  style="overflow:visible;"/>
	</clipPath>
	<g style="clip-path:url(#SVGID_28_);">
		
			<image style="overflow:visible;" width="1203" height="223" xlink:href="3D886FA5.jpg"  transform="matrix(1 0 0 1 -11.5967 -17.5722)">
		</image>
	</g>
</g>
<g>
	<defs>
		<path id="SVGID_29_" d="M373.7,41.4c-0.3-0.3-0.7-0.4-1.2-0.4c-0.5,0-0.8,0.1-1.1,0.4c-0.3,0.2-0.4,0.6-0.4,1
			c0,0.3,0.1,0.6,0.3,0.8c0.2,0.2,0.4,0.4,0.7,0.5c0.3,0.1,0.6,0.3,1.1,0.4c0.6,0.2,1,0.4,1.4,0.5c0.3,0.2,0.6,0.4,0.9,0.8
			c0.2,0.3,0.4,0.8,0.4,1.3c0,0.4-0.1,0.8-0.3,1.2c-0.2,0.4-0.5,0.7-0.9,0.9c-0.4,0.2-0.9,0.3-1.5,0.3c-0.6,0-1.1-0.1-1.6-0.3
			c-0.5-0.2-0.8-0.5-1.1-0.9c-0.3-0.4-0.4-0.8-0.5-1.3h1.2c0,0.2,0.1,0.5,0.3,0.7c0.1,0.2,0.4,0.4,0.6,0.6c0.3,0.2,0.6,0.2,1,0.2
			c0.5,0,0.9-0.1,1.2-0.4c0.3-0.3,0.4-0.6,0.4-1c0-0.4-0.1-0.7-0.3-0.9c-0.2-0.2-0.4-0.4-0.7-0.5c-0.3-0.1-0.7-0.3-1.1-0.4
			c-0.6-0.2-1-0.4-1.3-0.5c-0.3-0.2-0.6-0.4-0.9-0.7c-0.2-0.3-0.4-0.8-0.4-1.3c0-0.5,0.1-0.9,0.3-1.2c0.2-0.4,0.5-0.6,1-0.8
			c0.4-0.2,0.9-0.3,1.5-0.3c0.9,0,1.6,0.2,2.1,0.6c0.5,0.4,0.8,1,0.9,1.6h-1.2C374.2,42,374,41.7,373.7,41.4L373.7,41.4z
			 M383.5,45.8H378c0,0.8,0.2,1.4,0.7,1.8c0.4,0.4,0.9,0.6,1.5,0.6c0.6,0,1-0.1,1.4-0.4c0.4-0.3,0.6-0.7,0.7-1.1h1.2
			c-0.1,0.5-0.3,0.9-0.6,1.3c-0.3,0.4-0.7,0.7-1.1,0.9c-0.5,0.2-1,0.3-1.6,0.3c-0.7,0-1.2-0.1-1.8-0.4c-0.5-0.3-0.9-0.7-1.2-1.2
			c-0.3-0.5-0.4-1.2-0.4-1.9c0-0.7,0.1-1.3,0.4-1.9c0.3-0.5,0.7-0.9,1.2-1.2c0.5-0.3,1.1-0.4,1.8-0.4c0.7,0,1.2,0.1,1.7,0.4
			c0.5,0.3,0.9,0.7,1.1,1.1c0.3,0.5,0.4,1,0.4,1.6C383.5,45.4,383.5,45.6,383.5,45.8L383.5,45.8z M382.1,44
			c-0.2-0.3-0.5-0.6-0.8-0.8c-0.3-0.2-0.7-0.2-1.1-0.2c-0.6,0-1.2,0.2-1.6,0.6c-0.4,0.4-0.7,1-0.7,1.7h4.4
			C382.4,44.8,382.3,44.3,382.1,44L382.1,44z M389.4,43.5c-0.4-0.3-0.8-0.4-1.4-0.4c-0.4,0-0.8,0.1-1.1,0.3
			c-0.3,0.2-0.6,0.5-0.8,0.8c-0.2,0.4-0.3,0.8-0.3,1.4c0,0.6,0.1,1,0.3,1.4c0.2,0.4,0.5,0.7,0.8,0.8c0.3,0.2,0.7,0.3,1.1,0.3
			c0.6,0,1-0.1,1.4-0.4c0.4-0.3,0.6-0.7,0.7-1.2h1.2c-0.1,0.8-0.5,1.4-1.1,1.9c-0.6,0.5-1.3,0.7-2.2,0.7c-0.7,0-1.2-0.1-1.8-0.4
			c-0.5-0.3-0.9-0.7-1.2-1.2c-0.3-0.5-0.4-1.2-0.4-1.9c0-0.7,0.1-1.3,0.4-1.9c0.3-0.5,0.7-0.9,1.2-1.2c0.5-0.3,1.1-0.4,1.8-0.4
			c0.9,0,1.6,0.2,2.2,0.7c0.6,0.5,0.9,1.1,1.1,1.9h-1.2C390,44.1,389.8,43.7,389.4,43.5L389.4,43.5z M398.9,47.5
			c-0.3,0.5-0.7,0.9-1.2,1.2c-0.5,0.3-1.1,0.4-1.8,0.4c-0.7,0-1.2-0.1-1.8-0.4c-0.5-0.3-0.9-0.7-1.2-1.2c-0.3-0.5-0.5-1.2-0.5-1.9
			c0-0.7,0.2-1.3,0.5-1.9c0.3-0.5,0.7-0.9,1.2-1.2c0.5-0.3,1.1-0.4,1.8-0.4c0.7,0,1.2,0.1,1.8,0.4c0.5,0.3,0.9,0.7,1.2,1.2
			c0.3,0.5,0.4,1.2,0.4,1.9C399.3,46.3,399.2,46.9,398.9,47.5L398.9,47.5z M397.9,44.2c-0.2-0.4-0.5-0.7-0.8-0.8
			c-0.3-0.2-0.7-0.3-1.1-0.3c-0.4,0-0.8,0.1-1.1,0.3c-0.3,0.2-0.6,0.5-0.8,0.8c-0.2,0.4-0.3,0.8-0.3,1.4c0,0.6,0.1,1,0.3,1.4
			c0.2,0.4,0.5,0.7,0.8,0.8c0.3,0.2,0.7,0.3,1.1,0.3c0.4,0,0.8-0.1,1.1-0.3c0.3-0.2,0.6-0.5,0.8-0.8c0.2-0.4,0.3-0.8,0.3-1.4
			C398.2,45,398.1,44.6,397.9,44.2L397.9,44.2z M406,49v-3.9c0-0.7-0.2-1.2-0.5-1.6c-0.3-0.4-0.8-0.6-1.4-0.6
			c-0.6,0-1.1,0.2-1.5,0.6c-0.4,0.4-0.6,1-0.6,1.8V49h-1.1v-6.9h1.1v1.6c0.2-0.6,0.5-1,0.9-1.3c0.4-0.3,1-0.5,1.5-0.5
			c0.8,0,1.4,0.3,1.9,0.8c0.5,0.5,0.7,1.3,0.7,2.2v4H406L406,49z M414.4,49v-1.8c-0.2,0.6-0.5,1-1,1.3c-0.5,0.3-1,0.5-1.7,0.5
			c-0.6,0-1.2-0.1-1.6-0.4c-0.5-0.3-0.8-0.7-1.1-1.2c-0.3-0.5-0.4-1.2-0.4-1.9c0-0.7,0.1-1.3,0.4-1.9c0.3-0.5,0.6-0.9,1.1-1.2
			c0.5-0.3,1-0.4,1.6-0.4c0.7,0,1.2,0.2,1.7,0.5c0.5,0.3,0.8,0.8,1,1.3v-4.1h1.1V49H414.4L414.4,49z M414.1,44.3
			c-0.2-0.4-0.5-0.7-0.8-0.9c-0.4-0.2-0.8-0.3-1.2-0.3c-0.7,0-1.3,0.2-1.7,0.7c-0.4,0.4-0.6,1.1-0.6,1.8c0,0.8,0.2,1.4,0.6,1.8
			c0.4,0.4,1,0.7,1.7,0.7c0.5,0,0.9-0.1,1.2-0.3s0.6-0.5,0.8-0.9c0.2-0.4,0.3-0.8,0.3-1.3C414.4,45.1,414.3,44.6,414.1,44.3
			L414.1,44.3z M424,41.4c-0.3-0.3-0.7-0.4-1.2-0.4c-0.5,0-0.8,0.1-1.1,0.4c-0.3,0.2-0.4,0.6-0.4,1c0,0.3,0.1,0.6,0.3,0.8
			c0.2,0.2,0.4,0.4,0.7,0.5c0.3,0.1,0.6,0.3,1.1,0.4c0.6,0.2,1,0.4,1.4,0.5c0.3,0.2,0.6,0.4,0.9,0.8c0.2,0.3,0.4,0.8,0.4,1.3
			c0,0.4-0.1,0.8-0.3,1.2c-0.2,0.4-0.5,0.7-0.9,0.9c-0.4,0.2-0.9,0.3-1.5,0.3c-0.6,0-1.1-0.1-1.6-0.3c-0.5-0.2-0.8-0.5-1.1-0.9
			c-0.3-0.4-0.4-0.8-0.5-1.3h1.2c0,0.2,0.1,0.5,0.3,0.7c0.1,0.2,0.4,0.4,0.6,0.6c0.3,0.2,0.6,0.2,1,0.2c0.5,0,0.9-0.1,1.2-0.4
			c0.3-0.3,0.4-0.6,0.4-1c0-0.4-0.1-0.7-0.3-0.9c-0.2-0.2-0.4-0.4-0.7-0.5c-0.3-0.1-0.7-0.3-1.1-0.4c-0.6-0.2-1-0.4-1.3-0.5
			c-0.3-0.2-0.6-0.4-0.9-0.7c-0.2-0.3-0.4-0.8-0.4-1.3c0-0.5,0.1-0.9,0.3-1.2c0.2-0.4,0.5-0.6,1-0.8c0.4-0.2,0.9-0.3,1.5-0.3
			c0.9,0,1.6,0.2,2.1,0.6c0.5,0.4,0.8,1,0.9,1.6h-1.2C424.5,42,424.3,41.7,424,41.4L424,41.4z M429.3,47.8c0.2,0.2,0.4,0.2,0.8,0.2
			h0.7v1H430c-0.7,0-1.2-0.2-1.6-0.5c-0.3-0.3-0.5-0.9-0.5-1.7v-3.7h-1v-1h1v-1.7h1.2v1.7h1.8v1H429v3.7
			C429,47.3,429.1,47.6,429.3,47.8L429.3,47.8z M438.5,45.8H433c0,0.8,0.2,1.4,0.7,1.8c0.4,0.4,0.9,0.6,1.5,0.6c0.6,0,1-0.1,1.4-0.4
			c0.4-0.3,0.6-0.7,0.7-1.1h1.2c-0.1,0.5-0.3,0.9-0.6,1.3c-0.3,0.4-0.7,0.7-1.1,0.9c-0.5,0.2-1,0.3-1.6,0.3c-0.7,0-1.2-0.1-1.8-0.4
			c-0.5-0.3-0.9-0.7-1.2-1.2c-0.3-0.5-0.4-1.2-0.4-1.9c0-0.7,0.1-1.3,0.4-1.9c0.3-0.5,0.7-0.9,1.2-1.2c0.5-0.3,1.1-0.4,1.8-0.4
			c0.7,0,1.2,0.1,1.7,0.4c0.5,0.3,0.9,0.7,1.1,1.1c0.3,0.5,0.4,1,0.4,1.6C438.5,45.4,438.5,45.6,438.5,45.8L438.5,45.8z M437.1,44
			c-0.2-0.3-0.5-0.6-0.8-0.8c-0.3-0.2-0.7-0.2-1.1-0.2c-0.6,0-1.2,0.2-1.6,0.6c-0.4,0.4-0.7,1-0.7,1.7h4.4
			C437.4,44.8,437.3,44.3,437.1,44L437.1,44z M446.5,47.5c-0.3,0.5-0.6,0.9-1.1,1.2c-0.5,0.3-1,0.4-1.6,0.4c-0.7,0-1.2-0.2-1.7-0.5
			c-0.5-0.3-0.8-0.8-1-1.3v5H440V42.1h1.1v1.8c0.2-0.6,0.5-1,1-1.3c0.5-0.3,1-0.5,1.7-0.5c0.6,0,1.2,0.1,1.6,0.4
			c0.5,0.3,0.8,0.7,1.1,1.2c0.3,0.5,0.4,1.2,0.4,1.9C447,46.3,446.8,46.9,446.5,47.5L446.5,47.5z M445.2,43.7
			c-0.4-0.4-1-0.7-1.7-0.7c-0.4,0-0.8,0.1-1.2,0.3c-0.4,0.2-0.6,0.5-0.8,0.9c-0.2,0.4-0.3,0.8-0.3,1.3c0,0.5,0.1,0.9,0.3,1.3
			c0.2,0.4,0.5,0.7,0.8,0.9c0.4,0.2,0.8,0.3,1.2,0.3c0.7,0,1.3-0.2,1.7-0.7c0.4-0.4,0.6-1.1,0.6-1.8
			C445.8,44.8,445.6,44.2,445.2,43.7L445.2,43.7z"/>
	</defs>
	<clipPath id="SVGID_30_">
		<use xlink:href="#SVGID_29_"  style="overflow:visible;"/>
	</clipPath>
	<g style="clip-path:url(#SVGID_30_);">
		
			<image style="overflow:visible;" width="1203" height="223" xlink:href="3D886FA6.jpg"  transform="matrix(1 0 0 1 -11.5967 -17.5722)">
		</image>
	</g>
</g>
<g>
	<defs>
		<path id="SVGID_31_" d="M459,58.5V32.3H357.7v26.2H459 M460,59.5H356.7V31.3H460V59.5L460,59.5L460,59.5z"/>
	</defs>
	<clipPath id="SVGID_32_">
		<use xlink:href="#SVGID_31_"  style="overflow:visible;"/>
	</clipPath>
	<g style="clip-path:url(#SVGID_32_);">
		
			<image style="overflow:visible;" width="1203" height="223" xlink:href="3D886FA7.jpg"  transform="matrix(1 0 0 1 -11.5967 -17.5722)">
		</image>
	</g>
</g>
<g>
	<defs>
		<path id="SVGID_33_" d="M301.4,110.5v-2h8v2H301.4 M313.4,110.5v-2h8v2H313.4 M325.4,110.5v-2h8v2H325.4 M337.4,110.5v-2h8v2
			H337.4 M349.4,110.5v-2h8v2H349.4 M361.4,110.5v-2h8v2H361.4 M373.4,110.5v-2h8v2H373.4 M385.4,110.5v-2h8v2H385.4 M397.4,110.5
			v-2h8v2H397.4 M409.4,110.5v-2h8v2H409.4 M421.4,110.5v-2h8v2H421.4 M433.4,110.5v-2h8v2H433.4 M445.4,110.5v-2h8v2H445.4
			 M457.4,110.5v-2h8v2H457.4 M469.4,110.5v-2h8v2H469.4 M481.4,110.5v-2h8v2H481.4 M493.4,110.5v-2h8v2H493.4 M505.4,110.5v-2h7.8
			v2H505.4"/>
	</defs>
	<clipPath id="SVGID_34_">
		<use xlink:href="#SVGID_33_"  style="overflow:visible;"/>
	</clipPath>
	<g style="clip-path:url(#SVGID_34_);">
		
			<image style="overflow:visible;" width="1203" height="223" xlink:href="3D886FA9.jpg"  transform="matrix(1 0 0 1 -11.5967 -17.5722)">
		</image>
	</g>
</g>
<g>
	<defs>
		<path id="SVGID_35_" d="M406.8,103.3c3.5,0,6.3,2.8,6.3,6.3c0,3.5-2.8,6.3-6.3,6.3c-3.5,0-6.3-2.8-6.3-6.3
			C400.5,106.1,403.3,103.3,406.8,103.3L406.8,103.3z"/>
	</defs>
	<clipPath id="SVGID_36_">
		<use xlink:href="#SVGID_35_"  style="overflow:visible;"/>
	</clipPath>
	<g style="clip-path:url(#SVGID_36_);">
		
			<image style="overflow:visible;" width="1203" height="223" xlink:href="3D886FAB.jpg"  transform="matrix(1 0 0 1 -11.5967 -17.5722)">
		</image>
	</g>
</g>
<g>
	<defs>
		<polygon id="SVGID_37_" points="782.4,107.4 781.4,107.4 781.4,59.5 782.4,59.5 782.4,107.4 		"/>
	</defs>
	<clipPath id="SVGID_38_">
		<use xlink:href="#SVGID_37_"  style="overflow:visible;"/>
	</clipPath>
	<g style="clip-path:url(#SVGID_38_);">
		
			<image style="overflow:visible;" width="1203" height="223" xlink:href="3D886FAE.jpg"  transform="matrix(1 0 0 1 -11.5967 -17.5722)">
		</image>
	</g>
</g>
<g>
	<defs>
		<polygon id="SVGID_39_" points="782.4,107.4 781.4,107.4 781.4,59.5 782.4,59.5 782.4,107.4 782.4,107.4 		"/>
	</defs>
	<clipPath id="SVGID_40_">
		<use xlink:href="#SVGID_39_"  style="overflow:visible;"/>
	</clipPath>
	<g style="clip-path:url(#SVGID_40_);">
		
			<image style="overflow:visible;" width="1203" height="223" xlink:href="3D886FC2.jpg"  transform="matrix(1 0 0 1 -11.5967 -17.5722)">
		</image>
	</g>
</g>
<g>
	<defs>
		<path id="SVGID_41_" d="M756.9,41.1V49h-1.1v-7.9h-2.5v-0.9h6.1v0.9H756.9L756.9,41.1z M765.6,49v-3.9c0-0.7-0.2-1.2-0.5-1.6
			c-0.3-0.4-0.8-0.6-1.4-0.6c-0.6,0-1.1,0.2-1.5,0.6c-0.4,0.4-0.6,1-0.6,1.8V49h-1.1v-9.3h1.1v4c0.2-0.6,0.5-1,0.9-1.3
			c0.4-0.3,1-0.5,1.5-0.5c0.8,0,1.4,0.3,1.9,0.8c0.5,0.5,0.7,1.3,0.7,2.2v4H765.6L765.6,49z M769.7,40.6c-0.1,0.1-0.3,0.2-0.6,0.2
			s-0.4-0.1-0.6-0.2c-0.1-0.1-0.2-0.3-0.2-0.5c0-0.2,0.1-0.4,0.2-0.5c0.1-0.1,0.3-0.2,0.6-0.2s0.4,0.1,0.6,0.2
			c0.1,0.1,0.2,0.3,0.2,0.5C769.9,40.3,769.8,40.5,769.7,40.6L769.7,40.6z M769.7,49h-1.1v-6.9h1.1V49L769.7,49z M774.8,43.3
			c-0.6,0-1.2,0.2-1.6,0.5c-0.4,0.3-0.6,0.9-0.6,1.6V49h-1.1v-6.9h1.1v1.4c0.2-0.5,0.6-0.8,1-1.1c0.4-0.3,1-0.4,1.6-0.4v1.2H774.8
			L774.8,43.3z M781.8,49v-1.8c-0.2,0.6-0.5,1-1,1.3c-0.5,0.3-1,0.5-1.7,0.5c-0.6,0-1.2-0.1-1.6-0.4c-0.5-0.3-0.8-0.7-1.1-1.2
			c-0.3-0.5-0.4-1.2-0.4-1.9c0-0.7,0.1-1.3,0.4-1.9c0.3-0.5,0.6-0.9,1.1-1.2c0.5-0.3,1-0.4,1.6-0.4c0.7,0,1.2,0.2,1.7,0.5
			c0.5,0.3,0.8,0.8,1,1.3v-4.1h1.1V49H781.8L781.8,49z M781.5,44.3c-0.2-0.4-0.5-0.7-0.8-0.9c-0.4-0.2-0.8-0.3-1.2-0.3
			c-0.7,0-1.3,0.2-1.7,0.7c-0.4,0.4-0.6,1.1-0.6,1.8c0,0.8,0.2,1.4,0.6,1.8c0.4,0.4,1,0.7,1.7,0.7c0.5,0,0.9-0.1,1.2-0.3
			c0.4-0.2,0.6-0.5,0.8-0.9c0.2-0.4,0.3-0.8,0.3-1.3C781.8,45.1,781.7,44.6,781.5,44.3L781.5,44.3z M791.5,41.4
			c-0.3-0.3-0.7-0.4-1.2-0.4c-0.5,0-0.8,0.1-1.1,0.4c-0.3,0.2-0.4,0.6-0.4,1c0,0.3,0.1,0.6,0.3,0.8c0.2,0.2,0.4,0.4,0.7,0.5
			c0.3,0.1,0.6,0.3,1.1,0.4c0.6,0.2,1,0.4,1.4,0.5c0.3,0.2,0.6,0.4,0.9,0.8c0.2,0.3,0.4,0.8,0.4,1.3c0,0.4-0.1,0.8-0.3,1.2
			c-0.2,0.4-0.5,0.7-0.9,0.9c-0.4,0.2-0.9,0.3-1.5,0.3c-0.6,0-1.1-0.1-1.6-0.3c-0.5-0.2-0.8-0.5-1.1-0.9c-0.3-0.4-0.4-0.8-0.5-1.3
			h1.2c0,0.2,0.1,0.5,0.3,0.7c0.1,0.2,0.4,0.4,0.6,0.6c0.3,0.2,0.6,0.2,1,0.2c0.5,0,0.9-0.1,1.2-0.4c0.3-0.3,0.4-0.6,0.4-1
			c0-0.4-0.1-0.7-0.3-0.9c-0.2-0.2-0.4-0.4-0.7-0.5c-0.3-0.1-0.7-0.3-1.1-0.4c-0.6-0.2-1-0.4-1.3-0.5c-0.3-0.2-0.6-0.4-0.9-0.7
			s-0.4-0.8-0.4-1.3c0-0.5,0.1-0.9,0.3-1.2c0.2-0.4,0.5-0.6,1-0.8c0.4-0.2,0.9-0.3,1.5-0.3c0.9,0,1.6,0.2,2.1,0.6
			c0.5,0.4,0.8,1,0.9,1.6H792C791.9,42,791.8,41.7,791.5,41.4L791.5,41.4z M796.7,47.8c0.2,0.2,0.4,0.2,0.8,0.2h0.7v1h-0.8
			c-0.7,0-1.2-0.2-1.6-0.5c-0.3-0.3-0.5-0.9-0.5-1.7v-3.7h-1v-1h1v-1.7h1.2v1.7h1.8v1h-1.8v3.7C796.4,47.3,796.5,47.6,796.7,47.8
			L796.7,47.8z M805.9,45.8h-5.5c0,0.8,0.2,1.4,0.7,1.8c0.4,0.4,0.9,0.6,1.5,0.6c0.6,0,1-0.1,1.4-0.4c0.4-0.3,0.6-0.7,0.7-1.1h1.2
			c-0.1,0.5-0.3,0.9-0.6,1.3c-0.3,0.4-0.7,0.7-1.1,0.9c-0.5,0.2-1,0.3-1.6,0.3c-0.7,0-1.2-0.1-1.8-0.4c-0.5-0.3-0.9-0.7-1.2-1.2
			c-0.3-0.5-0.4-1.2-0.4-1.9c0-0.7,0.1-1.3,0.4-1.9c0.3-0.5,0.7-0.9,1.2-1.2c0.5-0.3,1.1-0.4,1.8-0.4c0.7,0,1.2,0.1,1.7,0.4
			c0.5,0.3,0.9,0.7,1.1,1.1c0.3,0.5,0.4,1,0.4,1.6C805.9,45.4,805.9,45.6,805.9,45.8L805.9,45.8z M804.5,44
			c-0.2-0.3-0.5-0.6-0.8-0.8c-0.3-0.2-0.7-0.2-1.1-0.2c-0.6,0-1.2,0.2-1.6,0.6c-0.4,0.4-0.7,1-0.7,1.7h4.4
			C804.8,44.8,804.7,44.3,804.5,44L804.5,44z M814,47.5c-0.3,0.5-0.6,0.9-1.1,1.2c-0.5,0.3-1,0.4-1.6,0.4c-0.7,0-1.2-0.2-1.7-0.5
			c-0.5-0.3-0.8-0.8-1-1.3v5h-1.1V42.1h1.1v1.8c0.2-0.6,0.5-1,1-1.3c0.5-0.3,1-0.5,1.7-0.5c0.6,0,1.2,0.1,1.6,0.4
			c0.5,0.3,0.8,0.7,1.1,1.2c0.3,0.5,0.4,1.2,0.4,1.9C814.4,46.3,814.2,46.9,814,47.5L814,47.5z M812.6,43.7c-0.4-0.4-1-0.7-1.7-0.7
			c-0.4,0-0.8,0.1-1.2,0.3c-0.4,0.2-0.6,0.5-0.8,0.9c-0.2,0.4-0.3,0.8-0.3,1.3c0,0.5,0.1,0.9,0.3,1.3c0.2,0.4,0.5,0.7,0.8,0.9
			c0.4,0.2,0.8,0.3,1.2,0.3c0.7,0,1.3-0.2,1.7-0.7c0.4-0.4,0.6-1.1,0.6-1.8C813.2,44.8,813,44.2,812.6,43.7L812.6,43.7z"/>
	</defs>
	<clipPath id="SVGID_42_">
		<use xlink:href="#SVGID_41_"  style="overflow:visible;"/>
	</clipPath>
	<g style="clip-path:url(#SVGID_42_);">
		
			<image style="overflow:visible;" width="1203" height="223" xlink:href="3D886FC1.jpg"  transform="matrix(1 0 0 1 -11.5967 -17.5722)">
		</image>
	</g>
</g>
<g>
	<defs>
		<path id="SVGID_43_" d="M834.6,58.5V32.3H733.3v26.2H834.6 M835.6,59.5H732.3V31.3h103.3V59.5L835.6,59.5L835.6,59.5z"/>
	</defs>
	<clipPath id="SVGID_44_">
		<use xlink:href="#SVGID_43_"  style="overflow:visible;"/>
	</clipPath>
	<g style="clip-path:url(#SVGID_44_);">
		
			<image style="overflow:visible;" width="1203" height="223" xlink:href="3D886FCE.jpg"  transform="matrix(1 0 0 1 -11.5967 -17.5722)">
		</image>
	</g>
</g>
<g>
	<defs>
		<path id="SVGID_45_" d="M677,110.5v-2h8v2H677 M689,110.5v-2h8v2H689 M701,110.5v-2h8v2H701 M713,110.5v-2h8v2H713 M725,110.5v-2
			h8v2H725 M737,110.5v-2h8v2H737 M749,110.5v-2h8v2H749 M761,110.5v-2h8v2H761 M773,110.5v-2h8v2H773 M785,110.5v-2h8v2H785
			 M797,110.5v-2h8v2H797 M809,110.5v-2h8v2H809 M821,110.5v-2h8v2H821 M833,110.5v-2h8v2H833 M845,110.5v-2h8v2H845 M857,110.5v-2
			h8v2H857 M869,110.5v-2h8v2H869 M881,110.5v-2h7.8v2H881"/>
	</defs>
	<clipPath id="SVGID_46_">
		<use xlink:href="#SVGID_45_"  style="overflow:visible;"/>
	</clipPath>
	<g style="clip-path:url(#SVGID_46_);">
		
			<image style="overflow:visible;" width="1203" height="223" xlink:href="3D886FC0.jpg"  transform="matrix(1 0 0 1 -11.5967 -17.5722)">
		</image>
	</g>
</g>
<g>
	<defs>
		<path id="SVGID_47_" d="M782.4,103.3c3.5,0,6.3,2.8,6.3,6.3c0,3.5-2.8,6.3-6.3,6.3c-3.5,0-6.3-2.8-6.3-6.3
			C776.2,106.1,779,103.3,782.4,103.3L782.4,103.3z"/>
	</defs>
	<clipPath id="SVGID_48_">
		<use xlink:href="#SVGID_47_"  style="overflow:visible;"/>
	</clipPath>
	<g style="clip-path:url(#SVGID_48_);">
		
			<image style="overflow:visible;" width="1203" height="223" xlink:href="3D886FC3.jpg"  transform="matrix(1 0 0 1 -11.5967 -17.5722)">
		</image>
	</g>
</g>
<g>
	<defs>
		<path id="SVGID_49_" d="M150.3,167.9c-0.8-0.5-1.7-0.8-2.8-0.8c-0.9,0-1.7,0.2-2.3,0.6c-0.7,0.4-1.2,1-1.6,1.8
			c-0.4,0.8-0.6,1.7-0.6,2.8c0,1.1,0.2,2,0.6,2.8c0.4,0.8,0.9,1.4,1.6,1.8c0.7,0.4,1.5,0.6,2.3,0.6c1.1,0,2-0.3,2.8-0.8
			c0.8-0.5,1.3-1.2,1.7-2.1h2.5c-0.4,1.6-1.2,2.8-2.4,3.7s-2.7,1.4-4.5,1.4c-1.4,0-2.6-0.3-3.7-0.9c-1.1-0.6-1.9-1.5-2.5-2.6
			c-0.6-1.1-0.9-2.4-0.9-3.9c0-1.5,0.3-2.8,0.9-3.9c0.6-1.1,1.4-2,2.5-2.7c1.1-0.6,2.3-1,3.7-1c1.8,0,3.3,0.5,4.5,1.4
			c1.2,0.9,2,2.2,2.4,3.7h-2.5C151.6,169.1,151,168.4,150.3,167.9L150.3,167.9z M167.2,177.2c-0.5,0.9-1.2,1.6-2.1,2
			c-0.9,0.5-1.9,0.7-3,0.7c-1.1,0-2.1-0.2-3-0.7c-0.9-0.5-1.6-1.2-2.1-2.1c-0.5-0.9-0.8-1.9-0.8-3.1c0-1.2,0.3-2.2,0.8-3.1
			c0.5-0.9,1.2-1.6,2.1-2c0.9-0.5,1.9-0.7,3-0.7c1.1,0,2.1,0.2,3,0.7c0.9,0.5,1.6,1.2,2.1,2s0.8,1.9,0.8,3.1
			C167.9,175.2,167.7,176.3,167.2,177.2L167.2,177.2z M165,171.9c-0.3-0.6-0.7-1-1.2-1.3c-0.5-0.3-1.1-0.4-1.7-0.4
			c-0.6,0-1.2,0.1-1.7,0.4c-0.5,0.3-0.9,0.7-1.2,1.3c-0.3,0.6-0.5,1.3-0.5,2.1c0,0.8,0.2,1.6,0.5,2.1c0.3,0.6,0.7,1,1.2,1.3
			c0.5,0.3,1.1,0.4,1.7,0.4c0.6,0,1.2-0.1,1.7-0.4c0.5-0.3,0.9-0.7,1.2-1.3c0.3-0.6,0.5-1.3,0.5-2.1
			C165.5,173.2,165.3,172.5,165,171.9L165,171.9z M173.5,173.2v-2h8.6v2H173.5L173.5,173.2z M199.9,167.9c-0.8-0.5-1.7-0.8-2.8-0.8
			c-0.9,0-1.7,0.2-2.3,0.6c-0.7,0.4-1.2,1-1.6,1.8c-0.4,0.8-0.6,1.7-0.6,2.8c0,1.1,0.2,2,0.6,2.8c0.4,0.8,0.9,1.4,1.6,1.8
			c0.7,0.4,1.5,0.6,2.3,0.6c1.1,0,2-0.3,2.8-0.8c0.8-0.5,1.3-1.2,1.7-2.1h2.5c-0.4,1.6-1.2,2.8-2.4,3.7s-2.7,1.4-4.5,1.4
			c-1.4,0-2.6-0.3-3.7-0.9c-1.1-0.6-1.9-1.5-2.5-2.6c-0.6-1.1-0.9-2.4-0.9-3.9c0-1.5,0.3-2.8,0.9-3.9c0.6-1.1,1.4-2,2.5-2.7
			c1.1-0.6,2.3-1,3.7-1c1.8,0,3.3,0.5,4.5,1.4c1.2,0.9,2,2.2,2.4,3.7h-2.5C201.2,169.1,200.6,168.4,199.9,167.9L199.9,167.9z
			 M212.3,170.7c-1,0-1.9,0.3-2.5,0.8c-0.6,0.5-1,1.3-1,2.5v5.8h-2.4v-11.5h2.4v2.3c0.4-0.8,0.9-1.3,1.7-1.8
			c0.7-0.4,1.6-0.7,2.5-0.7v2.6H212.3L212.3,170.7z M225.4,174.5h-8.8c0,1.2,0.4,2.1,1,2.6c0.6,0.6,1.4,0.9,2.3,0.9
			c0.8,0,1.5-0.2,2-0.6c0.6-0.4,0.9-0.9,1-1.6h2.5c-0.2,0.8-0.5,1.5-1,2.1c-0.5,0.6-1.1,1.1-1.9,1.5c-0.8,0.4-1.7,0.5-2.6,0.5
			c-1.1,0-2.1-0.2-3-0.7c-0.9-0.5-1.5-1.2-2-2c-0.5-0.9-0.7-1.9-0.7-3.1c0-1.2,0.2-2.2,0.7-3.1c0.5-0.9,1.2-1.6,2-2
			c0.9-0.5,1.8-0.7,3-0.7c1.1,0,2.1,0.2,3,0.7c0.8,0.5,1.5,1.1,1.9,1.9c0.5,0.8,0.7,1.7,0.7,2.7
			C225.4,173.9,225.4,174.2,225.4,174.5L225.4,174.5z M222.7,171.5c-0.3-0.5-0.7-0.9-1.2-1.1c-0.5-0.2-1-0.4-1.6-0.4
			c-0.9,0-1.7,0.3-2.3,0.9c-0.6,0.6-1,1.4-1,2.5h6.5C223.1,172.7,222.9,172,222.7,171.5L222.7,171.5z M236.6,179.8v-2.7
			c-0.3,0.8-0.8,1.5-1.6,2c-0.7,0.5-1.6,0.8-2.7,0.8c-1,0-1.9-0.2-2.7-0.7c-0.8-0.5-1.4-1.2-1.8-2c-0.4-0.9-0.7-1.9-0.7-3.1
			c0-1.2,0.2-2.2,0.7-3.1c0.4-0.9,1.1-1.6,1.8-2c0.8-0.5,1.7-0.7,2.7-0.7c1,0,1.9,0.3,2.7,0.8c0.7,0.5,1.3,1.2,1.6,2v-2.7h2.4v11.5
			H236.6L236.6,179.8z M236.1,172c-0.3-0.6-0.7-1-1.3-1.3c-0.5-0.3-1.1-0.5-1.8-0.5c-1.1,0-1.9,0.3-2.5,1c-0.6,0.7-0.9,1.6-0.9,2.8
			c0,1.2,0.3,2.1,0.9,2.8c0.6,0.7,1.5,1,2.5,1c0.7,0,1.3-0.2,1.8-0.5c0.5-0.3,0.9-0.8,1.3-1.3c0.3-0.6,0.5-1.2,0.5-2
			C236.6,173.3,236.4,172.6,236.1,172L236.1,172z M245.2,177.4c0.2,0.2,0.7,0.4,1.3,0.4h1.1v2.1h-1.5c-1.2,0-2.2-0.3-2.8-0.9
			c-0.6-0.6-0.9-1.6-0.9-3v-5.6h-1.7v-2h1.7v-2.9h2.4v2.9h2.8v2h-2.8v5.7C244.8,176.6,244.9,177.1,245.2,177.4L245.2,177.4z
			 M260.1,167v12.8h-2.4V167h-4.1v-1.9h10.6v1.9H260.1L260.1,167z M271.8,170.7c-1,0-1.9,0.3-2.5,0.8c-0.6,0.5-0.9,1.3-0.9,2.5v5.8
			H266v-11.5h2.4v2.3c0.4-0.8,0.9-1.3,1.7-1.8c0.7-0.4,1.6-0.7,2.5-0.7v2.6H271.8L271.8,170.7z M283.1,179.8v-2.7
			c-0.3,0.8-0.8,1.5-1.6,2c-0.7,0.5-1.6,0.8-2.7,0.8c-1,0-1.9-0.2-2.7-0.7c-0.8-0.5-1.4-1.2-1.8-2c-0.4-0.9-0.7-1.9-0.7-3.1
			c0-1.2,0.2-2.2,0.7-3.1c0.4-0.9,1.1-1.6,1.8-2c0.8-0.5,1.7-0.7,2.7-0.7c1,0,1.9,0.3,2.7,0.8c0.7,0.5,1.3,1.2,1.6,2v-2.7h2.4v11.5
			H283.1L283.1,179.8z M282.7,172c-0.3-0.6-0.7-1-1.3-1.3c-0.5-0.3-1.1-0.5-1.8-0.5c-1.1,0-1.9,0.3-2.5,1c-0.6,0.7-0.9,1.6-0.9,2.8
			c0,1.2,0.3,2.1,0.9,2.8c0.6,0.7,1.5,1,2.5,1c0.7,0,1.3-0.2,1.8-0.5c0.5-0.3,0.9-0.8,1.3-1.3c0.3-0.6,0.5-1.2,0.5-2
			C283.1,173.3,283,172.6,282.7,172L282.7,172z M290.7,165.9c-0.3,0.2-0.7,0.4-1.1,0.4c-0.5,0-0.8-0.1-1.1-0.4
			c-0.3-0.2-0.4-0.6-0.4-1c0-0.4,0.1-0.7,0.4-1c0.3-0.3,0.6-0.4,1.1-0.4c0.5,0,0.8,0.1,1.1,0.4c0.3,0.3,0.4,0.6,0.4,1
			C291.1,165.4,291,165.7,290.7,165.9L290.7,165.9z M290.8,179.8h-2.4v-11.5h2.4V179.8L290.8,179.8z M302.1,179.8v-6.4
			c0-1-0.3-1.8-0.8-2.4c-0.5-0.6-1.3-0.8-2.2-0.8c-0.9,0-1.7,0.3-2.3,0.9c-0.6,0.6-0.9,1.5-0.9,2.7v6.1h-2.4v-11.5h2.4v2.5
			c0.3-0.9,0.8-1.5,1.5-2c0.7-0.5,1.6-0.7,2.5-0.7c1.3,0,2.4,0.4,3.2,1.3c0.8,0.9,1.2,2.1,1.2,3.7v6.7H302.1L302.1,179.8z
			 M309.6,165.9c-0.3,0.2-0.7,0.4-1.1,0.4s-0.8-0.1-1.1-0.4c-0.3-0.2-0.4-0.6-0.4-1c0-0.4,0.1-0.7,0.4-1c0.3-0.3,0.6-0.4,1.1-0.4
			s0.8,0.1,1.1,0.4c0.3,0.3,0.4,0.6,0.4,1C310,165.4,309.9,165.7,309.6,165.9L309.6,165.9z M309.6,179.8h-2.4v-11.5h2.4V179.8
			L309.6,179.8z M321,179.8v-6.4c0-1-0.3-1.8-0.8-2.4c-0.5-0.6-1.3-0.8-2.2-0.8c-0.9,0-1.7,0.3-2.3,0.9c-0.6,0.6-0.9,1.5-0.9,2.7
			v6.1h-2.4v-11.5h2.4v2.5c0.3-0.9,0.8-1.5,1.5-2c0.7-0.5,1.6-0.7,2.5-0.7c1.3,0,2.4,0.4,3.2,1.3c0.8,0.9,1.2,2.1,1.2,3.7v6.7H321
			L321,179.8z M336.7,182.8c-0.4,0.8-1.1,1.5-1.9,1.9c-0.8,0.5-1.8,0.7-2.9,0.7c-1.6,0-2.9-0.4-3.9-1.1c-1-0.8-1.6-1.8-1.9-3.1h2.4
			c0.2,0.7,0.6,1.2,1.1,1.6c0.6,0.4,1.3,0.6,2.1,0.6c0.9,0,1.7-0.3,2.3-0.9c0.6-0.6,0.9-1.4,0.9-2.5v-2.8c-0.3,0.8-0.8,1.5-1.6,2
			c-0.7,0.5-1.6,0.8-2.7,0.8c-1,0-1.9-0.2-2.7-0.7c-0.8-0.5-1.4-1.2-1.8-2c-0.4-0.9-0.7-1.9-0.7-3.1c0-1.2,0.2-2.2,0.7-3.1
			c0.4-0.9,1.1-1.6,1.8-2c0.8-0.5,1.7-0.7,2.7-0.7c1,0,1.9,0.3,2.7,0.8c0.7,0.5,1.3,1.2,1.6,2v-2.7h2.4v11.6
			C337.4,181,337.2,181.9,336.7,182.8L336.7,182.8z M334.5,172c-0.3-0.6-0.7-1-1.3-1.3c-0.5-0.3-1.1-0.5-1.8-0.5
			c-1.1,0-1.9,0.3-2.5,1c-0.6,0.7-0.9,1.6-0.9,2.8c0,1.2,0.3,2.1,0.9,2.8c0.6,0.7,1.5,1,2.5,1c0.7,0,1.3-0.2,1.8-0.5
			c0.5-0.3,0.9-0.8,1.3-1.3c0.3-0.6,0.5-1.2,0.5-2C335,173.3,334.8,172.6,334.5,172L334.5,172z"/>
	</defs>
	<clipPath id="SVGID_50_">
		<use xlink:href="#SVGID_49_"  style="overflow:visible;"/>
	</clipPath>
	<g style="clip-path:url(#SVGID_50_);">
		
			<image style="overflow:visible;" width="1203" height="223" xlink:href="3D886FC7.jpg"  transform="matrix(1 0 0 1 -11.5967 -17.5722)">
		</image>
	</g>
</g>
<g>
	<defs>
		<path id="SVGID_51_" d="M513.5,173.8l3.9,6h-2.7l-3.7-5.9h-1.7v5.9H507v-14.7h5.2c1.7,0,3,0.4,3.8,1.2c0.9,0.8,1.3,1.9,1.3,3.3
			c0,1.2-0.3,2.1-1,2.8C515.7,173.1,514.7,173.6,513.5,173.8L513.5,173.8z M514.2,167.8c-0.5-0.5-1.2-0.7-2.2-0.7h-2.6v5.1h2.6
			c1.9,0,2.9-0.8,2.9-2.5C514.9,168.9,514.6,168.2,514.2,167.8L514.2,167.8z M530,174.5h-8.8c0,1.2,0.4,2.1,1,2.6
			c0.6,0.6,1.4,0.9,2.3,0.9c0.8,0,1.5-0.2,2-0.6c0.6-0.4,0.9-0.9,1-1.6h2.5c-0.2,0.8-0.5,1.5-1,2.1c-0.5,0.6-1.1,1.1-1.9,1.5
			c-0.8,0.4-1.6,0.5-2.6,0.5c-1.1,0-2.1-0.2-3-0.7c-0.9-0.5-1.5-1.2-2-2c-0.5-0.9-0.7-1.9-0.7-3.1c0-1.2,0.2-2.2,0.7-3.1
			c0.5-0.9,1.2-1.6,2-2c0.9-0.5,1.8-0.7,3-0.7c1.1,0,2.1,0.2,3,0.7c0.8,0.5,1.5,1.1,1.9,1.9c0.5,0.8,0.7,1.7,0.7,2.7
			C530.1,173.9,530.1,174.2,530,174.5L530,174.5z M527.3,171.5c-0.3-0.5-0.7-0.9-1.2-1.1c-0.5-0.2-1-0.4-1.6-0.4
			c-0.9,0-1.7,0.3-2.3,0.9c-0.6,0.6-1,1.4-1,2.5h6.5C527.8,172.7,527.6,172,527.3,171.5L527.3,171.5z M541.3,179.8v-2.7
			c-0.3,0.8-0.8,1.5-1.6,2c-0.7,0.5-1.6,0.8-2.7,0.8c-1,0-1.9-0.2-2.7-0.7c-0.8-0.5-1.4-1.2-1.8-2c-0.4-0.9-0.7-1.9-0.7-3.1
			c0-1.2,0.2-2.2,0.7-3.1c0.4-0.9,1.1-1.6,1.8-2c0.8-0.5,1.7-0.7,2.7-0.7c1,0,1.9,0.3,2.7,0.8c0.7,0.5,1.3,1.2,1.6,2v-2.7h2.4v11.5
			H541.3L541.3,179.8z M540.8,172c-0.3-0.6-0.7-1-1.3-1.3c-0.5-0.3-1.1-0.5-1.8-0.5c-1.1,0-1.9,0.3-2.5,1c-0.6,0.7-0.9,1.6-0.9,2.8
			c0,1.2,0.3,2.1,0.9,2.8c0.6,0.7,1.5,1,2.5,1c0.7,0,1.3-0.2,1.8-0.5c0.5-0.3,0.9-0.8,1.3-1.3c0.3-0.6,0.5-1.2,0.5-2
			C541.3,173.3,541.1,172.6,540.8,172L540.8,172z M546.5,179.8v-15.4h2.4v15.4H546.5L546.5,179.8z M562,167v12.8h-2.4V167h-4.1v-1.9
			h10.6v1.9H562L562,167z M570.2,165.9c-0.3,0.2-0.7,0.4-1.1,0.4c-0.5,0-0.8-0.1-1.1-0.4c-0.3-0.2-0.4-0.6-0.4-1
			c0-0.4,0.1-0.7,0.4-1s0.6-0.4,1.1-0.4c0.5,0,0.8,0.1,1.1,0.4c0.3,0.3,0.4,0.6,0.4,1C570.6,165.4,570.5,165.7,570.2,165.9
			L570.2,165.9z M570.3,179.8h-2.4v-11.5h2.4V179.8L570.3,179.8z M589.6,179.8v-6.4c0-1-0.2-1.8-0.7-2.3c-0.5-0.5-1.2-0.8-2.1-0.8
			c-0.9,0-1.7,0.3-2.2,0.9c-0.5,0.6-0.8,1.5-0.8,2.6v6.1h-2.4v-6.4c0-1-0.2-1.8-0.7-2.3c-0.5-0.5-1.2-0.8-2.1-0.8
			c-0.9,0-1.7,0.3-2.2,0.9c-0.5,0.6-0.8,1.5-0.8,2.6v6.1h-2.4v-11.5h2.4v2.4c0.3-0.8,0.8-1.5,1.5-1.9c0.7-0.4,1.5-0.7,2.4-0.7
			c1,0,1.8,0.2,2.5,0.7c0.7,0.5,1.2,1.2,1.5,2c0.3-0.9,0.9-1.5,1.6-2c0.7-0.5,1.6-0.7,2.5-0.7c1.4,0,2.5,0.4,3.3,1.3
			c0.8,0.9,1.2,2.1,1.2,3.7v6.7H589.6L589.6,179.8z M605.4,174.5h-8.8c0,1.2,0.4,2.1,1,2.6c0.6,0.6,1.4,0.9,2.3,0.9
			c0.8,0,1.5-0.2,2-0.6c0.5-0.4,0.9-0.9,1-1.6h2.5c-0.2,0.8-0.5,1.5-1,2.1c-0.5,0.6-1.1,1.1-1.9,1.5c-0.8,0.4-1.6,0.5-2.6,0.5
			c-1.1,0-2.1-0.2-3-0.7c-0.9-0.5-1.5-1.2-2-2c-0.5-0.9-0.7-1.9-0.7-3.1c0-1.2,0.2-2.2,0.7-3.1c0.5-0.9,1.2-1.6,2-2
			c0.9-0.5,1.8-0.7,3-0.7c1.1,0,2.1,0.2,3,0.7c0.8,0.5,1.5,1.1,1.9,1.9c0.5,0.8,0.7,1.7,0.7,2.7
			C605.5,173.9,605.5,174.2,605.4,174.5L605.4,174.5z M602.7,171.5c-0.3-0.5-0.7-0.9-1.2-1.1c-0.5-0.2-1-0.4-1.6-0.4
			c-0.9,0-1.7,0.3-2.3,0.9c-0.6,0.6-1,1.4-1,2.5h6.5C603.1,172.7,603,172,602.7,171.5L602.7,171.5z M621.5,172.9
			c-0.9,0.8-2.1,1.2-3.8,1.2H615v5.7h-2.4v-14.7h5c1.7,0,3,0.4,3.8,1.2c0.9,0.8,1.3,1.9,1.3,3.3C622.8,171,622.3,172.1,621.5,172.9
			L621.5,172.9z M619.7,167.7c-0.5-0.4-1.2-0.7-2.2-0.7H615v5.1h2.4c2,0,2.9-0.8,2.9-2.5C620.4,168.8,620.1,168.1,619.7,167.7
			L619.7,167.7z M630.7,170.7c-1,0-1.9,0.3-2.5,0.8c-0.6,0.5-0.9,1.3-0.9,2.5v5.8h-2.4v-11.5h2.4v2.3c0.4-0.8,0.9-1.3,1.7-1.8
			c0.7-0.4,1.6-0.7,2.5-0.7v2.6H630.7L630.7,170.7z M643.5,177.2c-0.5,0.9-1.2,1.6-2.1,2c-0.9,0.5-1.9,0.7-3,0.7
			c-1.1,0-2.1-0.2-3-0.7c-0.9-0.5-1.6-1.2-2.1-2.1c-0.5-0.9-0.8-1.9-0.8-3.1c0-1.2,0.3-2.2,0.8-3.1s1.2-1.6,2.1-2
			c0.9-0.5,1.9-0.7,3-0.7c1.1,0,2.1,0.2,3,0.7c0.9,0.5,1.6,1.2,2.1,2c0.5,0.9,0.7,1.9,0.7,3.1C644.3,175.2,644,176.3,643.5,177.2
			L643.5,177.2z M641.4,171.9c-0.3-0.6-0.7-1-1.2-1.3c-0.5-0.3-1.1-0.4-1.7-0.4c-0.6,0-1.2,0.1-1.7,0.4c-0.5,0.3-0.9,0.7-1.2,1.3
			c-0.3,0.6-0.5,1.3-0.5,2.1c0,0.8,0.2,1.6,0.5,2.1c0.3,0.6,0.7,1,1.2,1.3s1.1,0.4,1.7,0.4c0.6,0,1.2-0.1,1.7-0.4
			c0.5-0.3,0.9-0.7,1.2-1.3c0.3-0.6,0.5-1.3,0.5-2.1C641.9,173.2,641.7,172.5,641.4,171.9L641.4,171.9z M649,165.9
			c-0.3,0.2-0.6,0.4-1.1,0.4c-0.5,0-0.8-0.1-1.1-0.4c-0.3-0.2-0.4-0.6-0.4-1c0-0.4,0.1-0.7,0.4-1c0.3-0.3,0.7-0.4,1.1-0.4
			c0.5,0,0.8,0.1,1.1,0.4c0.3,0.3,0.4,0.6,0.4,1C649.4,165.4,649.3,165.7,649,165.9L649,165.9z M646.7,181.8v-13.5h2.4v13.6
			c0,2.3-1.1,3.4-3.4,3.4h-1.1v-2.1h0.8c0.5,0,0.8-0.1,1-0.3C646.6,182.7,646.7,182.3,646.7,181.8L646.7,181.8z M662.5,174.5h-8.8
			c0,1.2,0.4,2.1,1,2.6c0.6,0.6,1.4,0.9,2.3,0.9c0.8,0,1.5-0.2,2-0.6c0.5-0.4,0.9-0.9,1-1.6h2.5c-0.2,0.8-0.5,1.5-1,2.1
			c-0.5,0.6-1.1,1.1-1.9,1.5c-0.8,0.4-1.7,0.5-2.6,0.5c-1.1,0-2.1-0.2-3-0.7c-0.9-0.5-1.5-1.2-2-2c-0.5-0.9-0.7-1.9-0.7-3.1
			c0-1.2,0.2-2.2,0.7-3.1c0.5-0.9,1.2-1.6,2-2c0.9-0.5,1.8-0.7,3-0.7c1.1,0,2.1,0.2,3,0.7c0.8,0.5,1.5,1.1,1.9,1.9
			c0.5,0.8,0.7,1.7,0.7,2.7C662.6,173.9,662.6,174.2,662.5,174.5L662.5,174.5z M659.8,171.5c-0.3-0.5-0.7-0.9-1.2-1.1
			c-0.5-0.2-1-0.4-1.6-0.4c-0.9,0-1.7,0.3-2.3,0.9c-0.6,0.6-1,1.4-1,2.5h6.5C660.3,172.7,660.1,172,659.8,171.5L659.8,171.5z
			 M672,170.8c-0.5-0.4-1.2-0.6-2-0.6c-0.9,0-1.7,0.3-2.3,1c-0.6,0.6-0.9,1.6-0.9,2.8s0.3,2.2,0.9,2.9c0.6,0.7,1.4,1,2.3,1
			c0.8,0,1.5-0.2,2-0.6c0.5-0.4,0.9-1,1-1.7h2.5c-0.2,1.3-0.8,2.4-1.8,3.2c-1,0.8-2.2,1.2-3.7,1.2c-1.1,0-2.1-0.2-3-0.7
			c-0.9-0.5-1.5-1.2-2-2c-0.5-0.9-0.7-1.9-0.7-3.1c0-1.2,0.2-2.2,0.7-3.1c0.5-0.9,1.2-1.6,2-2c0.9-0.5,1.8-0.7,3-0.7
			c1.5,0,2.7,0.4,3.7,1.2c1,0.8,1.6,1.9,1.8,3.2H673C672.9,171.8,672.5,171.2,672,170.8L672,170.8z M681.2,177.4
			c0.2,0.2,0.7,0.4,1.3,0.4h1.1v2.1h-1.5c-1.2,0-2.2-0.3-2.8-0.9c-0.6-0.6-1-1.6-1-3v-5.6h-1.6v-2h1.6v-2.9h2.4v2.9h2.8v2h-2.8v5.7
			C680.8,176.6,680.9,177.1,681.2,177.4L681.2,177.4z"/>
	</defs>
	<clipPath id="SVGID_52_">
		<use xlink:href="#SVGID_51_"  style="overflow:visible;"/>
	</clipPath>
	<g style="clip-path:url(#SVGID_52_);">
		
			<image style="overflow:visible;" width="1203" height="223" xlink:href="3D886FC6.jpg"  transform="matrix(1 0 0 1 -11.5967 -17.5722)">
		</image>
	</g>
</g>
<g>
	<defs>
		<path id="SVGID_53_" d="M848.3,179.8v-10.9l-4.2,10.9H842l-4.2-10.9v10.9h-2.4v-14.5h2.9l4.8,11.6l4.7-11.6h2.9v14.5H848.3
			L848.3,179.8z M864.1,174.5h-8.8c0,1.2,0.4,2.1,1,2.6c0.6,0.6,1.4,0.9,2.3,0.9c0.8,0,1.5-0.2,2-0.6c0.5-0.4,0.9-0.9,1-1.6h2.5
			c-0.2,0.8-0.5,1.5-1,2.1c-0.5,0.6-1.1,1.1-1.9,1.5c-0.8,0.4-1.7,0.5-2.6,0.5c-1.1,0-2.1-0.2-3-0.7c-0.9-0.5-1.5-1.2-2-2
			c-0.5-0.9-0.7-1.9-0.7-3.1c0-1.2,0.2-2.2,0.7-3.1c0.5-0.9,1.2-1.6,2-2c0.9-0.5,1.8-0.7,3-0.7c1.1,0,2.1,0.2,3,0.7
			c0.8,0.5,1.5,1.1,1.9,1.9c0.5,0.8,0.7,1.7,0.7,2.7C864.2,173.9,864.2,174.2,864.1,174.5L864.1,174.5z M861.4,171.5
			c-0.3-0.5-0.7-0.9-1.2-1.1c-0.5-0.2-1-0.4-1.6-0.4c-0.9,0-1.7,0.3-2.3,0.9c-0.6,0.6-1,1.4-1,2.5h6.5
			C861.8,172.7,861.7,172,861.4,171.5L861.4,171.5z M875.4,179.8v-2.7c-0.3,0.8-0.8,1.5-1.6,2c-0.7,0.5-1.6,0.8-2.7,0.8
			c-1,0-1.9-0.2-2.7-0.7c-0.8-0.5-1.4-1.2-1.8-2c-0.4-0.9-0.7-1.9-0.7-3.1c0-1.2,0.2-2.2,0.7-3.1c0.4-0.9,1.1-1.6,1.8-2
			c0.8-0.5,1.7-0.7,2.7-0.7c1,0,1.9,0.3,2.7,0.8c0.7,0.5,1.3,1.2,1.6,2v-2.7h2.4v11.5H875.4L875.4,179.8z M874.9,172
			c-0.3-0.6-0.7-1-1.3-1.3c-0.5-0.3-1.1-0.5-1.8-0.5c-1.1,0-1.9,0.3-2.5,1c-0.6,0.7-1,1.6-1,2.8c0,1.2,0.3,2.1,1,2.8
			c0.6,0.7,1.5,1,2.5,1c0.7,0,1.3-0.2,1.8-0.5c0.5-0.3,0.9-0.8,1.3-1.3c0.3-0.6,0.5-1.2,0.5-2C875.4,173.3,875.2,172.6,874.9,172
			L874.9,172z M886.1,170.4c-0.4-0.4-1-0.6-1.7-0.6c-0.6,0-1.1,0.1-1.4,0.4c-0.3,0.3-0.5,0.7-0.5,1.2c0,0.4,0.1,0.7,0.4,0.9
			c0.2,0.2,0.5,0.4,0.9,0.5c0.4,0.1,0.9,0.3,1.5,0.4c0.9,0.2,1.6,0.4,2.1,0.6c0.5,0.2,1,0.5,1.4,1c0.4,0.5,0.6,1.1,0.6,1.8
			c0,1-0.4,1.7-1.1,2.3c-0.7,0.6-1.7,0.9-3,0.9c-1.4,0-2.6-0.3-3.5-1c-0.9-0.7-1.4-1.6-1.6-2.8h2.3c0.1,0.6,0.3,1.1,0.8,1.5
			c0.5,0.4,1.1,0.6,1.9,0.6c0.6,0,1-0.1,1.3-0.4c0.3-0.3,0.5-0.7,0.5-1.1c0-0.4-0.1-0.7-0.4-1c-0.3-0.2-0.6-0.4-0.9-0.6
			c-0.4-0.1-0.9-0.3-1.5-0.4c-0.8-0.2-1.5-0.4-2-0.6c-0.5-0.2-1-0.5-1.3-0.9c-0.4-0.4-0.6-1-0.6-1.8c0-1,0.4-1.8,1.1-2.4
			c0.7-0.6,1.7-0.9,3-0.9c1.3,0,2.4,0.3,3.2,1c0.8,0.7,1.3,1.6,1.5,2.8h-2.3C886.8,171.3,886.5,170.8,886.1,170.4L886.1,170.4z
			 M899.8,179.8v-2.5c-0.3,0.8-0.8,1.5-1.5,2c-0.7,0.5-1.6,0.7-2.5,0.7c-1.3,0-2.4-0.4-3.2-1.3c-0.8-0.9-1.2-2.1-1.2-3.7v-6.7h2.4
			v6.4c0,1,0.3,1.8,0.8,2.4c0.5,0.6,1.3,0.8,2.2,0.8c0.9,0,1.7-0.3,2.3-0.9c0.6-0.6,0.9-1.5,0.9-2.7v-6.1h2.4v11.5H899.8
			L899.8,179.8z M910.9,170.7c-1,0-1.9,0.3-2.5,0.8c-0.6,0.5-0.9,1.3-0.9,2.5v5.8h-2.4v-11.5h2.4v2.3c0.4-0.8,0.9-1.3,1.7-1.8
			c0.7-0.4,1.6-0.7,2.5-0.7v2.6H910.9L910.9,170.7z M924,174.5h-8.8c0,1.2,0.4,2.1,1,2.6c0.6,0.6,1.4,0.9,2.3,0.9
			c0.8,0,1.5-0.2,2-0.6c0.5-0.4,0.9-0.9,1-1.6h2.5c-0.2,0.8-0.5,1.5-1,2.1c-0.5,0.6-1.1,1.1-1.9,1.5c-0.8,0.4-1.7,0.5-2.6,0.5
			c-1.1,0-2.1-0.2-3-0.7c-0.9-0.5-1.5-1.2-2-2c-0.5-0.9-0.7-1.9-0.7-3.1c0-1.2,0.2-2.2,0.7-3.1c0.5-0.9,1.2-1.6,2-2
			c0.9-0.5,1.8-0.7,3-0.7c1.1,0,2.1,0.2,3,0.7c0.8,0.5,1.5,1.1,1.9,1.9c0.5,0.8,0.7,1.7,0.7,2.7C924.1,173.9,924.1,174.2,924,174.5
			L924,174.5z M921.3,171.5c-0.3-0.5-0.7-0.9-1.2-1.1c-0.5-0.2-1-0.4-1.6-0.4c-0.9,0-1.7,0.3-2.3,0.9c-0.6,0.6-1,1.4-1,2.5h6.5
			C921.7,172.7,921.6,172,921.3,171.5L921.3,171.5z M940.1,172.9c-0.9,0.8-2.1,1.2-3.8,1.2h-2.6v5.7h-2.4v-14.7h5
			c1.7,0,3,0.4,3.8,1.2c0.9,0.8,1.3,1.9,1.3,3.3C941.4,171,940.9,172.1,940.1,172.9L940.1,172.9z M938.3,167.7
			c-0.5-0.4-1.2-0.7-2.2-0.7h-2.4v5.1h2.4c2,0,2.9-0.8,2.9-2.5C939,168.8,938.7,168.1,938.3,167.7L938.3,167.7z M954.1,174.5h-8.8
			c0,1.2,0.4,2.1,1,2.6c0.6,0.6,1.4,0.9,2.3,0.9c0.8,0,1.5-0.2,2-0.6c0.6-0.4,0.9-0.9,1-1.6h2.5c-0.2,0.8-0.5,1.5-1,2.1
			c-0.5,0.6-1.1,1.1-1.9,1.5c-0.8,0.4-1.7,0.5-2.6,0.5c-1.1,0-2.1-0.2-3-0.7c-0.9-0.5-1.5-1.2-2-2c-0.5-0.9-0.7-1.9-0.7-3.1
			c0-1.2,0.2-2.2,0.7-3.1c0.5-0.9,1.2-1.6,2-2c0.9-0.5,1.8-0.7,3-0.7c1.1,0,2.1,0.2,3,0.7c0.8,0.5,1.5,1.1,1.9,1.9
			c0.5,0.8,0.7,1.7,0.7,2.7C954.2,173.9,954.1,174.2,954.1,174.5L954.1,174.5z M951.4,171.5c-0.3-0.5-0.7-0.9-1.2-1.1
			c-0.5-0.2-1-0.4-1.6-0.4c-0.9,0-1.7,0.3-2.3,0.9c-0.6,0.6-1,1.4-1,2.5h6.5C951.8,172.7,951.7,172,951.4,171.5L951.4,171.5z
			 M962.3,170.7c-1,0-1.9,0.3-2.5,0.8c-0.6,0.5-1,1.3-1,2.5v5.8h-2.4v-11.5h2.4v2.3c0.4-0.8,0.9-1.3,1.7-1.8
			c0.7-0.4,1.6-0.7,2.5-0.7v2.6H962.3L962.3,170.7z M970.1,168.3v2h-2.5v9.4h-2.4v-9.4h-1.6v-2h1.6v-0.4c0-1.4,0.4-2.5,1.2-3.2
			c0.8-0.7,2.1-1,3.7-0.9v2.1c-0.9,0-1.6,0.1-2,0.4c-0.4,0.3-0.6,0.9-0.6,1.7v0.2H970.1L970.1,168.3z M982.4,177.2
			c-0.5,0.9-1.2,1.6-2.1,2c-0.9,0.5-1.9,0.7-3,0.7c-1.1,0-2.1-0.2-3-0.7c-0.9-0.5-1.6-1.2-2.1-2.1c-0.5-0.9-0.8-1.9-0.8-3.1
			c0-1.2,0.3-2.2,0.8-3.1c0.5-0.9,1.2-1.6,2.1-2c0.9-0.5,1.9-0.7,3-0.7c1.1,0,2.1,0.2,3,0.7c0.9,0.5,1.6,1.2,2.1,2
			c0.5,0.9,0.8,1.9,0.8,3.1C983.2,175.2,982.9,176.3,982.4,177.2L982.4,177.2z M980.3,171.9c-0.3-0.6-0.7-1-1.2-1.3
			c-0.5-0.3-1.1-0.4-1.7-0.4c-0.6,0-1.2,0.1-1.7,0.4c-0.5,0.3-0.9,0.7-1.2,1.3c-0.3,0.6-0.5,1.3-0.5,2.1c0,0.8,0.2,1.6,0.5,2.1
			c0.3,0.6,0.7,1,1.2,1.3c0.5,0.3,1.1,0.4,1.7,0.4c0.6,0,1.2-0.1,1.7-0.4c0.5-0.3,0.9-0.7,1.2-1.3c0.3-0.6,0.5-1.3,0.5-2.1
			C980.7,173.2,980.6,172.5,980.3,171.9L980.3,171.9z M991.3,170.7c-1,0-1.9,0.3-2.5,0.8c-0.6,0.5-0.9,1.3-0.9,2.5v5.8h-2.4v-11.5
			h2.4v2.3c0.4-0.8,0.9-1.3,1.7-1.8c0.7-0.4,1.6-0.7,2.5-0.7v2.6H991.3L991.3,170.7z M1010.3,179.8v-6.4c0-1-0.2-1.8-0.8-2.3
			c-0.5-0.5-1.2-0.8-2.1-0.8c-0.9,0-1.7,0.3-2.2,0.9c-0.6,0.6-0.8,1.5-0.8,2.6v6.1h-2.4v-6.4c0-1-0.3-1.8-0.8-2.3
			c-0.5-0.5-1.2-0.8-2.1-0.8c-0.9,0-1.7,0.3-2.2,0.9c-0.6,0.6-0.8,1.5-0.8,2.6v6.1h-2.4v-11.5h2.4v2.4c0.3-0.8,0.8-1.5,1.5-1.9
			c0.7-0.4,1.5-0.7,2.4-0.7c1,0,1.8,0.2,2.5,0.7c0.7,0.5,1.2,1.2,1.5,2c0.3-0.9,0.9-1.5,1.6-2c0.7-0.5,1.6-0.7,2.5-0.7
			c1.4,0,2.5,0.4,3.3,1.3c0.8,0.9,1.2,2.1,1.2,3.7v6.7H1010.3L1010.3,179.8z M1024.3,179.8v-2.7c-0.3,0.8-0.8,1.5-1.6,2
			c-0.7,0.5-1.6,0.8-2.7,0.8c-1,0-1.9-0.2-2.7-0.7c-0.8-0.5-1.4-1.2-1.8-2c-0.4-0.9-0.7-1.9-0.7-3.1c0-1.2,0.2-2.2,0.7-3.1
			c0.4-0.9,1.1-1.6,1.8-2c0.8-0.5,1.7-0.7,2.7-0.7c1,0,1.9,0.3,2.7,0.8c0.7,0.5,1.3,1.2,1.6,2v-2.7h2.4v11.5H1024.3L1024.3,179.8z
			 M1023.8,172c-0.3-0.6-0.7-1-1.3-1.3s-1.1-0.5-1.8-0.5c-1.1,0-1.9,0.3-2.5,1c-0.6,0.7-1,1.6-1,2.8c0,1.2,0.3,2.1,1,2.8
			c0.6,0.7,1.5,1,2.5,1c0.7,0,1.3-0.2,1.8-0.5s0.9-0.8,1.3-1.3c0.3-0.6,0.5-1.2,0.5-2C1024.3,173.3,1024.1,172.6,1023.8,172
			L1023.8,172z M1038,179.8v-6.4c0-1-0.3-1.8-0.8-2.4c-0.5-0.6-1.3-0.8-2.2-0.8c-0.9,0-1.7,0.3-2.3,0.9c-0.6,0.6-0.9,1.5-0.9,2.7
			v6.1h-2.4v-11.5h2.4v2.5c0.3-0.9,0.8-1.5,1.5-2c0.7-0.5,1.6-0.7,2.5-0.7c1.3,0,2.4,0.4,3.2,1.3c0.8,0.9,1.2,2.1,1.2,3.7v6.7H1038
			L1038,179.8z M1050.2,170.8c-0.5-0.4-1.2-0.6-2-0.6c-0.9,0-1.7,0.3-2.3,1c-0.6,0.6-0.9,1.6-0.9,2.8s0.3,2.2,0.9,2.9
			c0.6,0.7,1.4,1,2.3,1c0.8,0,1.5-0.2,2-0.6c0.5-0.4,0.9-1,1-1.7h2.5c-0.2,1.3-0.8,2.4-1.8,3.2c-1,0.8-2.2,1.2-3.7,1.2
			c-1.1,0-2.1-0.2-3-0.7c-0.9-0.5-1.5-1.2-2-2c-0.5-0.9-0.7-1.9-0.7-3.1c0-1.2,0.2-2.2,0.7-3.1s1.2-1.6,2-2c0.9-0.5,1.8-0.7,3-0.7
			c1.5,0,2.7,0.4,3.7,1.2c1,0.8,1.6,1.9,1.8,3.2h-2.5C1051.1,171.8,1050.8,171.2,1050.2,170.8L1050.2,170.8z M1066.7,174.5h-8.8
			c0,1.2,0.4,2.1,1,2.6c0.6,0.6,1.4,0.9,2.3,0.9c0.8,0,1.5-0.2,2-0.6c0.6-0.4,0.9-0.9,1-1.6h2.5c-0.2,0.8-0.5,1.5-1,2.1
			c-0.5,0.6-1.1,1.1-1.9,1.5c-0.8,0.4-1.7,0.5-2.6,0.5c-1.1,0-2.1-0.2-3-0.7c-0.9-0.5-1.5-1.2-2-2c-0.5-0.9-0.7-1.9-0.7-3.1
			c0-1.2,0.2-2.2,0.7-3.1c0.5-0.9,1.2-1.6,2-2c0.9-0.5,1.8-0.7,3-0.7c1.1,0,2.1,0.2,3,0.7c0.8,0.5,1.5,1.1,1.9,1.9
			c0.5,0.8,0.7,1.7,0.7,2.7C1066.7,173.9,1066.7,174.2,1066.7,174.5L1066.7,174.5z M1064,171.5c-0.3-0.5-0.7-0.9-1.2-1.1
			c-0.5-0.2-1-0.4-1.6-0.4c-0.9,0-1.7,0.3-2.3,0.9c-0.6,0.6-1,1.4-1,2.5h6.5C1064.4,172.7,1064.2,172,1064,171.5L1064,171.5z"/>
	</defs>
	<clipPath id="SVGID_54_">
		<use xlink:href="#SVGID_53_"  style="overflow:visible;"/>
	</clipPath>
	<g style="clip-path:url(#SVGID_54_);">
		
			<image style="overflow:visible;" width="1203" height="223" xlink:href="3D886FFD.jpg"  transform="matrix(1 0 0 1 -11.5967 -17.5722)">
		</image>
	</g>
</g>
<g>
	<linearGradient id="SVGID_55_" gradientUnits="userSpaceOnUse" x1="908.2073" y1="108.2486" x2="987.6176" y2="108.2486">
		<stop  offset="0" style="stop-color:#16BFFD"/>
		<stop  offset="1" style="stop-color:#CB3066"/>
	</linearGradient>
	<path class="st1" d="M947.9,141.1c-9.6,0-19.1,0-28.7,0c-0.9,0-1.5-0.3-2.1-1c-6.5-8.2-9.6-17.6-8.8-28.1c1.4-18,14.4-32.5,32.1-36
		c20.8-4.1,41.8,9.6,46.2,30.3c2.7,12.4-0.1,23.7-7.9,33.7c-0.6,0.7-1.2,1-2.2,1C967,141.1,957.5,141.1,947.9,141.1z M915.5,98.2
		c-2.5,4.8-3.8,9.8-4.1,15.3c0.3,0,0.6,0,0.9,0c1.6,0,3.1,0,4.7,0c1,0,1.6,0.7,1.7,1.6c0,0.9-0.7,1.6-1.6,1.6c-0.9,0-1.7,0-2.6,0
		c-1,0-1.9,0-3,0c0.3,5.4,1.6,10.5,4.1,15.2c0.4-0.2,0.7-0.4,0.9-0.5c1.3-0.8,2.6-1.5,3.9-2.3c0.8-0.5,1.8-0.2,2.2,0.6
		c0.4,0.8,0.2,1.6-0.6,2.1c-0.9,0.5-1.8,1-2.7,1.6c-0.7,0.4-1.4,0.8-2.2,1.3c0.6,0.9,1.2,1.7,1.8,2.6c0.4,0.5,0.8,0.7,1.4,0.7
		c18.4,0,36.8,0,55.2,0c0.2,0,0.4,0,0.6,0c0.2,0,0.4-0.1,0.5-0.2c0.7-1,1.4-2,2.2-3c-0.4-0.2-0.6-0.4-0.8-0.5
		c-1.3-0.8-2.7-1.5-4-2.3c-0.6-0.4-0.9-0.9-0.8-1.6c0.1-0.7,0.5-1.2,1.2-1.3c0.5-0.1,1,0.1,1.4,0.3c1.6,0.8,3.1,1.7,4.6,2.7
		c2.5-4.8,3.8-9.8,4.1-15.3c-0.3,0-0.5,0-0.7,0c-1.6,0-3.2,0-4.8,0c-1.1,0-1.8-0.7-1.8-1.6c0-0.9,0.7-1.5,1.8-1.6c0.6,0,1.3,0,1.9,0
		c1.2,0,2.4,0,3.6,0c-0.3-5.5-1.6-10.5-4.1-15.3c-0.5,0.3-0.8,0.5-1.2,0.7c-1.2,0.7-2.5,1.4-3.7,2.1c-0.8,0.4-1.7,0.2-2.1-0.6
		c-0.4-0.8-0.2-1.6,0.6-2.1c0.3-0.2,0.5-0.3,0.8-0.5c1.3-0.8,2.7-1.6,4.1-2.4c-2.9-4.6-6.6-8.2-11.2-11.2c-0.2,0.3-0.3,0.5-0.4,0.7
		c-0.8,1.3-1.6,2.7-2.4,4c-0.6,1-1.8,1.2-2.5,0.4c-0.6-0.6-0.6-1.2-0.2-2c0.9-1.6,1.8-3.1,2.7-4.8c-4.8-2.5-9.9-3.9-15.3-4.1
		c0,1.9,0,3.7,0,5.5c0,1-0.7,1.7-1.6,1.8c-0.9,0-1.6-0.7-1.6-1.8c0-0.9,0-1.9,0-2.8c0-0.9,0-1.8,0-2.7c-5.4,0.3-10.5,1.6-15.3,4.1
		c0.2,0.3,0.3,0.5,0.4,0.7c0.8,1.4,1.6,2.7,2.4,4.1c0.6,1.1,0,2.3-1.2,2.4c-0.8,0.1-1.3-0.3-1.7-1c-0.9-1.6-1.8-3.1-2.7-4.6
		c-3.6,1.9-9.7,8-11.1,11.2c1.5,0.9,3,1.7,4.5,2.6c1.1,0.6,1.4,1.5,0.9,2.4c-0.5,0.8-1.4,1-2.4,0.4C918.6,100,917.1,99.1,915.5,98.2
		z"/>
	<linearGradient id="SVGID_56_" gradientUnits="userSpaceOnUse" x1="939.0222" y1="108.6951" x2="961.032" y2="108.6951">
		<stop  offset="0" style="stop-color:#16BFFD"/>
		<stop  offset="1" style="stop-color:#CB3066"/>
	</linearGradient>
	<path class="st2" d="M939,114.8c0.1-1.9,0.7-4,2.3-5.5c3.2-3.1,6.4-6.1,9.6-9.1c2.3-2.1,4.8-4.1,7.2-6.1c0.7-0.6,1.3-0.9,2.2-0.4
		c0.7,0.4,0.9,1,0.7,2.1c-1.1,6.7-2.3,13.3-4,19.9c-0.2,0.8-0.5,1.7-0.8,2.5c-1.5,4.1-5.6,6.5-9.9,5.7
		C942.1,123.1,939,119.3,939,114.8z M957.2,99.1c-0.3,0.2-0.4,0.2-0.5,0.3c-3.7,3.3-7.4,6.6-11.1,9.9c-0.9,0.8-1.6,1.7-2.4,2.6
		c-1.4,1.8-1.4,4.2-0.2,6.2c1.2,1.9,3.4,3,5.6,2.7c2.5-0.4,4.2-1.9,4.8-4.3c1-4.2,2-8.4,2.9-12.7
		C956.6,102.3,956.9,100.7,957.2,99.1z"/>
</g>
<linearGradient id="SVGID_57_" gradientUnits="userSpaceOnUse" x1="201.2268" y1="101.6469" x2="277.9445" y2="101.6469">
	<stop  offset="0" style="stop-color:#16BFFD"/>
	<stop  offset="1" style="stop-color:#CB3066"/>
</linearGradient>
<path class="st3" d="M277.9,141.3c-1.2,0-2.2,0-3.3,0c0-0.3,0-0.6,0-0.8c0-7.7,0-15.3,0-23c0-0.4-0.1-0.9-0.3-1.2
	c-6.4-11-12.8-21.9-19.2-32.9c-0.1-0.2-0.3-0.4-0.3-0.5c-1.3,0-2.4,0-3.7,0c0,0.1-0.2,0.3-0.3,0.5c-6.4,11-12.8,22-19.2,32.9
	c-0.2,0.3-0.3,0.8-0.3,1.2c0,2.4,0,4.8,0,7.2c-1.1,0-2.2,0-3.3,0c0,1.7,0,3.3,0,4.9c0,0.6-0.2,1-0.6,1.4c-3.5,3.5-7,7-10.5,10.5
	c-0.2,0.2-0.4,0.3-0.6,0.5c-0.2-0.2-0.3-0.3-0.5-0.4c-3.6-3.6-7.2-7.2-10.8-10.8c-0.3-0.3-0.4-0.7-0.4-1.1c0-1.6,0-3.3,0-5
	c-1.1,0-2.2,0-3.3,0c0-3.4,0-6.7,0-10c1.1,0,2.1,0,3.3,0c0-17.8,0-35.6,0-53.4c7.8,0,15.6,0,23.4,0c0,17.8,0,35.5,0,53.6
	c0.4-0.3,0.8-0.4,0.9-0.6c6.5-11,12.9-22.1,19.3-33.1c0,0,0,0,0-0.1c-1.7-1.8-2.4-4-1.7-6.4c0.7-2.5,2.3-4,4.8-4.8
	c0-1.4,0-2.8,0-4.2c0-1.4,0-2.8,0-4.3c1.1,0,2.2,0,3.3,0c0,2.8,0,5.7,0,8.5c2.4,0.8,4.1,2.3,4.8,4.7c0.7,2.5,0,4.6-1.7,6.5
	c0.5,0.9,1.1,1.8,1.6,2.8c6.1,10.5,12.2,21,18.3,31.4c0.2,0.4,0.4,0.9,0.4,1.4c0,8,0,15.9,0,23.9C277.9,140.8,277.9,141,277.9,141.3
	z M207.9,81.3c0,11.1,0,22.2,0,33.3c5.6,0,11.1,0,16.6,0c0-11.1,0-22.2,0-33.3C219,81.3,213.5,81.3,207.9,81.3z M224.5,64.6
	c-5.6,0-11.1,0-16.6,0c0,2.2,0,4.4,0,6.6c5.6,0,11.1,0,16.6,0C224.5,69,224.5,66.9,224.5,64.6z M204.5,121.3c7.8,0,15.5,0,23.3,0
	c0-1.1,0-2.2,0-3.3c-7.8,0-15.5,0-23.3,0C204.5,119.1,204.5,120.2,204.5,121.3z M207.9,77.9c5.6,0,11.1,0,16.6,0c0-1.1,0-2.2,0-3.3
	c-5.6,0-11.1,0-16.6,0C207.9,75.7,207.9,76.8,207.9,77.9z M207.9,128c5.6,0,11.1,0,16.6,0c0-1.1,0-2.2,0-3.3c-5.6,0-11.1,0-16.6,0
	C207.9,125.8,207.9,126.8,207.9,128z M210.6,131.4c1.9,1.9,3.8,3.8,5.6,5.7c1.9-1.9,3.8-3.8,5.7-5.7
	C218.1,131.4,214.3,131.4,210.6,131.4z M256.2,76.2c0-1.8-1.5-3.3-3.3-3.3c-1.8,0-3.4,1.5-3.3,3.4c0,1.8,1.5,3.3,3.3,3.3
	C254.8,79.6,256.3,78.1,256.2,76.2z"/>
<g>
	<path class="st4" d="M613.9,79.4c-1.5,0-2.8,1.3-2.8,2.8c0,1.5,1.3,2.8,2.8,2.8c1.5,0,2.8-1.3,2.8-2.8
		C616.7,80.7,615.5,79.4,613.9,79.4z"/>
	<path class="st4" d="M556.7,122.8c0,0.8,0,1.5,0,2.2c0,2.3,1,3.4,3.4,3.4c20.1,0,40.2,0,60.4,0c0.3,0,0.7,0,1-0.1
		c1.2-0.2,2.1-1.1,2.2-2.3c0.1-1.1,0-2.1,0-3.2C601.4,122.8,579.1,122.8,556.7,122.8z"/>
	<path class="st4" d="M614,72.5c-5.4-0.1-9.8,4.3-9.9,9.7c-0.1,5.4,4.3,9.9,9.7,9.9c5.4,0,9.8-4.3,9.9-9.8
		C623.8,76.9,619.4,72.5,614,72.5z M613.9,87.8c-3.1,0-5.6-2.5-5.6-5.6c0-3.1,2.5-5.6,5.6-5.6c3.1,0,5.6,2.5,5.6,5.6
		C619.5,85.3,617,87.8,613.9,87.8z"/>
	<path class="st4" d="M594.4,131.2c-2.8,0-5.6,0-8.4,0c-0.2,0-0.5,0.2-0.5,0.3c-1,2.6-2,5.2-3,8c5.2,0,10.3,0,15.5,0
		c-1-2.7-2-5.4-3-8C594.9,131.3,594.6,131.2,594.4,131.2z"/>
	<path class="st4" d="M631.8,79.4c-0.9,0-1.3-0.4-1.6-1.2c-0.6-1.5-1.2-3-1.9-4.5c-0.4-0.9-0.5-1.4,0.3-2.1c0.7-0.7,1.4-1.4,2.1-2
		c-1.4-1.4-2.7-2.7-4-4c-0.6,0.6-1.3,1.4-2,2.1c-0.7,0.7-1.2,0.7-2.1,0.3c-1.5-0.7-3-1.3-4.6-1.9c-0.9-0.3-1.2-0.7-1.2-1.6
		c0-0.8,0-1.7,0-2.5c0-0.2-0.2-0.5-0.4-0.5c-1.7,0-3.4,0-5.2,0c0,1.1,0,2.1,0,3c0,1-0.4,1.3-1.3,1.7c-1.5,0.6-3,1.2-4.5,1.9
		c-0.9,0.4-1.4,0.5-2.1-0.3c-0.7-0.7-1.4-1.4-2-2.1c-1.4,1.4-2.7,2.7-4,4c0.6,0.6,1.3,1.3,2,2c0.8,0.8,0.7,1.2,0.3,2.2
		c-0.7,1.4-1.3,2.8-1.8,4.3c-0.4,1.1-0.7,1.4-1.8,1.4c-1,0-1.9,0-2.9,0c0,1.9,0,3.8,0,5.6c1.1,0,2,0,3,0c0.9,0,1.3,0.4,1.6,1.2
		c0.6,1.5,1.2,3.1,1.9,4.6c0.4,0.9,0.4,1.4-0.3,2.1c-0.7,0.7-1.4,1.4-2.1,2.1c1.4,1.4,2.7,2.7,4,4c0.6-0.7,1.3-1.3,2-2
		c0.8-0.8,1.2-0.8,2.2-0.3c1.4,0.7,2.8,1.3,4.3,1.8c1.1,0.4,1.4,0.7,1.4,1.8c0,1,0,1.9,0,2.9c1.9,0,3.7,0,5.6,0c0-1.1,0-2.1,0-3.1
		c0-0.9,0.4-1.3,1.2-1.6c1.5-0.6,3-1.2,4.5-1.9c0.9-0.4,1.4-0.5,2.1,0.3c0.7,0.7,1.4,1.4,2,2.1c1.4-1.4,2.7-2.7,4-4c0,0,0,0,0-0.1
		c-0.6-0.7-1.3-1.3-1.9-2c-0.8-0.8-0.8-1.2-0.3-2.2c0.7-1.5,1.3-2.9,1.9-4.4c0.4-1,0.7-1.3,1.7-1.3c1,0,2,0,3,0c0-1.9,0-3.7,0-5.6
		C633.8,79.4,632.8,79.4,631.8,79.4z M613.9,94.8c-6.9,0-12.5-5.6-12.6-12.6c0-7,5.6-12.5,12.6-12.6c7.2-0.1,12.7,6.3,12.5,12.2
		C626.8,88.9,621,94.8,613.9,94.8z"/>
	<linearGradient id="SVGID_58_" gradientUnits="userSpaceOnUse" x1="553.8673" y1="108.7585" x2="626.5207" y2="108.7585">
		<stop  offset="0" style="stop-color:#16BFFD"/>
		<stop  offset="1" style="stop-color:#CB3066"/>
	</linearGradient>
	<path class="st5" d="M623.7,119.9c-22.4,0-44.7,0-67.1,0c0-0.3,0-0.6,0-0.8c0-12.6,0-25.2,0-37.9c0-2.1,1.1-3.2,3.2-3.2
		c8.9,0,17.7,0,26.6,0c0.3,0,0.6,0,0.9,0c0-1,0-1.8,0-2.8c-0.2,0-0.4,0-0.6,0c-9,0-18.1,0-27.1,0c-3.4,0-5.7,2.4-5.7,5.9
		c0,14.7,0,29.5,0,44.2c0,0.4,0,0.9,0.1,1.3c0.6,2.7,2.8,4.5,5.6,4.5c7.3,0,14.7,0,22,0c0.3,0,0.6,0,0.9,0c0,0.1,0,0.2,0,0.3
		c-1,2.6-1.9,5.2-2.9,7.7c-0.1,0.2-0.4,0.4-0.7,0.4c-0.9,0-1.7,0-2.6,0c0,1,0,1.8,0,2.7c9.3,0,18.6,0,27.8,0c0-0.9,0-1.8,0-2.7
		c-0.9,0-1.7,0-2.5,0c-0.5,0-0.7-0.2-0.9-0.6c-0.9-2.4-1.8-4.7-2.6-7c-0.1-0.2-0.1-0.4-0.2-0.7c0.4,0,0.7,0,1,0c7.3,0,14.5,0,21.8,0
		c3.6,0,5.9-2.3,5.9-5.9c0-6.6,0-13.2,0-19.8c0-0.3,0-0.5,0-0.8c-1,0-1.8,0-2.8,0C623.7,109.8,623.7,114.8,623.7,119.9z
		 M597.9,139.5c-5.2,0-10.3,0-15.5,0c1-2.7,2-5.4,3-8c0.1-0.2,0.4-0.3,0.5-0.3c2.8,0,5.6,0,8.4,0c0.2,0,0.4,0.2,0.5,0.3
		C595.9,134.1,596.9,136.7,597.9,139.5z M623.7,126c-0.1,1.2-1.1,2.1-2.2,2.3c-0.3,0-0.7,0.1-1,0.1c-20.1,0-40.2,0-60.4,0
		c-2.3,0-3.4-1-3.4-3.4c0-0.7,0-1.4,0-2.2c22.4,0,44.7,0,67,0C623.7,123.9,623.8,125,623.7,126z"/>
	<linearGradient id="SVGID_59_" gradientUnits="userSpaceOnUse" x1="590.188" y1="82.2488" x2="637.7042" y2="82.2488">
		<stop  offset="0" style="stop-color:#16BFFD"/>
		<stop  offset="1" style="stop-color:#CB3066"/>
	</linearGradient>
	<path class="st6" d="M637.7,78.2c0-1-0.5-1.5-1.5-1.5c-1,0-1.9,0-2.9,0c-0.5,0-0.6-0.2-0.8-0.6c-0.3-0.9-0.7-1.8-1.1-2.6
		c-0.2-0.4-0.1-0.7,0.2-1c0.7-0.6,1.3-1.3,2-1.9c0.8-0.8,0.8-1.5,0-2.3c-1.9-1.9-3.8-3.8-5.6-5.6c-0.8-0.8-1.5-0.8-2.3,0
		c-0.7,0.7-1.4,1.4-2.1,2c-0.2,0.1-0.5,0.2-0.7,0.1c-1-0.3-1.9-0.7-2.8-1.2c-0.2-0.1-0.5-0.4-0.5-0.7c-0.1-0.9,0-1.9,0-2.8
		c0-1.2-0.5-1.6-1.6-1.6c-2.6,0-5.3,0-7.9,0c-1.1,0-1.6,0.5-1.7,1.6c0,0.9,0,1.9,0,2.8c0,0.4-0.1,0.6-0.5,0.7
		c-1,0.3-1.9,0.8-2.8,1.1c-0.2,0.1-0.6,0-0.7-0.1c-0.7-0.7-1.4-1.4-2.1-2.1c-0.7-0.7-1.5-0.7-2.2,0c-1.9,1.9-3.8,3.8-5.6,5.6
		c-0.8,0.8-0.8,1.5,0,2.3c0.7,0.7,1.3,1.3,2,2c0.3,0.3,0.3,0.5,0.1,0.8c-0.4,0.9-0.8,1.8-1.1,2.7c-0.1,0.4-0.3,0.5-0.7,0.5
		c-0.9,0-1.9,0-2.8,0c-1.1,0-1.6,0.5-1.6,1.6c0,2.7,0,5.3,0,8c0,1.1,0.5,1.6,1.6,1.6c0.9,0,1.8,0,2.8,0c0.5,0,0.7,0.1,0.9,0.6
		c0.3,0.9,0.6,1.7,1.1,2.5c0.2,0.5,0.2,0.7-0.2,1.1c-0.7,0.6-1.3,1.3-2,1.9c-0.7,0.7-0.7,1.5,0,2.2c1.9,1.9,3.8,3.8,5.7,5.7
		c0.7,0.7,1.5,0.7,2.2,0c0.7-0.7,1.4-1.4,2.1-2.1c0.3-0.3,0.5-0.3,0.8-0.2c0.9,0.4,1.8,0.8,2.7,1.1c0.4,0.1,0.5,0.4,0.5,0.8
		c0,1,0,1.9,0,2.9c0,1,0.5,1.5,1.5,1.5c2.7,0,5.4,0,8.1,0c1,0,1.5-0.5,1.5-1.5c0-1,0-2,0-3c0-0.2,0.2-0.5,0.4-0.6
		c0.9-0.4,1.9-0.8,2.8-1.2c0.4-0.2,0.6-0.1,0.8,0.2c0.7,0.7,1.3,1.3,2,2c0.8,0.8,1.6,0.8,2.3,0c1.9-1.9,3.7-3.7,5.6-5.6
		c0.8-0.8,0.8-1.5,0-2.3c-0.8-0.8-1.6-1.6-2.3-2.3c0.5-1.1,0.9-2.2,1.3-3.3c0.1-0.4,0.3-0.5,0.7-0.5c1,0,1.9,0,2.9,0
		c1,0,1.5-0.5,1.5-1.6C637.7,83.6,637.7,80.9,637.7,78.2z M634.9,85c-1,0-2,0-3,0c-1,0-1.3,0.3-1.7,1.3c-0.6,1.5-1.2,3-1.9,4.4
		c-0.5,1-0.5,1.4,0.3,2.2c0.6,0.7,1.3,1.3,1.9,2c0,0,0,0.1,0,0.1c-1.3,1.3-2.6,2.6-4,4c-0.6-0.7-1.3-1.4-2-2.1
		c-0.7-0.7-1.2-0.7-2.1-0.3c-1.5,0.7-3,1.3-4.5,1.9c-0.9,0.3-1.2,0.7-1.2,1.6c0,1,0,2,0,3.1c-1.9,0-3.7,0-5.6,0c0-1,0-1.9,0-2.9
		c0-1.2-0.3-1.5-1.4-1.8c-1.5-0.5-2.9-1.1-4.3-1.8c-1-0.5-1.4-0.5-2.2,0.3c-0.7,0.7-1.4,1.4-2,2c-1.3-1.3-2.6-2.6-4-4
		c0.7-0.7,1.4-1.4,2.1-2.1c0.7-0.7,0.7-1.2,0.3-2.1c-0.7-1.5-1.3-3-1.9-4.6c-0.3-0.9-0.7-1.2-1.6-1.2c-1,0-2,0-3,0
		c0-1.9,0-3.7,0-5.6c1,0,1.9,0,2.9,0c1.2,0,1.4-0.3,1.8-1.4c0.5-1.5,1.1-2.9,1.8-4.3c0.5-1,0.5-1.4-0.3-2.2c-0.7-0.7-1.4-1.4-2-2
		c1.3-1.3,2.6-2.6,4-4c0.6,0.6,1.3,1.4,2,2.1c0.7,0.7,1.2,0.7,2.1,0.3c1.5-0.7,3-1.3,4.5-1.9c0.9-0.3,1.2-0.7,1.3-1.7c0-1,0-2,0-3
		c1.8,0,3.5,0,5.2,0c0.1,0,0.4,0.3,0.4,0.5c0,0.8,0,1.7,0,2.5c0,0.9,0.4,1.3,1.2,1.6c1.5,0.6,3.1,1.2,4.6,1.9
		c0.9,0.4,1.4,0.4,2.1-0.3c0.7-0.7,1.4-1.4,2-2.1c1.3,1.3,2.6,2.6,4,4c-0.7,0.6-1.4,1.3-2.1,2c-0.7,0.7-0.7,1.2-0.3,2.1
		c0.7,1.5,1.3,3,1.9,4.5c0.3,0.9,0.7,1.2,1.6,1.2c1,0,2,0,3.1,0C634.9,81.3,634.9,83.1,634.9,85z"/>
	<linearGradient id="SVGID_60_" gradientUnits="userSpaceOnUse" x1="559.4763" y1="87.8267" x2="587.3699" y2="87.8267">
		<stop  offset="0" style="stop-color:#16BFFD"/>
		<stop  offset="1" style="stop-color:#CB3066"/>
	</linearGradient>
	<path class="st7" d="M559.5,89.2c9.3,0,18.6,0,27.9,0c0-0.9,0-1.8,0-2.7c-9.3,0-18.6,0-27.9,0C559.5,87.4,559.5,88.3,559.5,89.2z"
		/>
	<linearGradient id="SVGID_61_" gradientUnits="userSpaceOnUse" x1="570.6598" y1="104.6087" x2="573.3824" y2="104.6087">
		<stop  offset="0" style="stop-color:#16BFFD"/>
		<stop  offset="1" style="stop-color:#CB3066"/>
	</linearGradient>
	<path class="st8" d="M573.4,117.1c0-8.4,0-16.7,0-25.1c-0.9,0-1.8,0-2.7,0c0,8.4,0,16.7,0,25.1
		C571.6,117.1,572.5,117.1,573.4,117.1z"/>
	<linearGradient id="SVGID_62_" gradientUnits="userSpaceOnUse" x1="597.2214" y1="110.1833" x2="609.7341" y2="110.1833">
		<stop  offset="0" style="stop-color:#16BFFD"/>
		<stop  offset="1" style="stop-color:#CB3066"/>
	</linearGradient>
	<path class="st9" d="M597.2,108.8c0,0.9,0,1.8,0,2.7c4.2,0,8.4,0,12.5,0c0-0.9,0-1.8,0-2.7C605.5,108.8,601.4,108.8,597.2,108.8z"
		/>
	<linearGradient id="SVGID_63_" gradientUnits="userSpaceOnUse" x1="559.4739" y1="99.0026" x2="567.78" y2="99.0026">
		<stop  offset="0" style="stop-color:#16BFFD"/>
		<stop  offset="1" style="stop-color:#CB3066"/>
	</linearGradient>
	<path class="st10" d="M559.5,100.4c2.8,0,5.5,0,8.3,0c0-0.9,0-1.8,0-2.7c-2.8,0-5.5,0-8.3,0C559.5,98.6,559.5,99.5,559.5,100.4z"/>
	<linearGradient id="SVGID_64_" gradientUnits="userSpaceOnUse" x1="559.475" y1="110.1928" x2="567.7782" y2="110.1928">
		<stop  offset="0" style="stop-color:#16BFFD"/>
		<stop  offset="1" style="stop-color:#CB3066"/>
	</linearGradient>
	<path class="st11" d="M567.8,108.8c-2.8,0-5.5,0-8.3,0c0,0.9,0,1.8,0,2.7c2.8,0,5.5,0,8.3,0C567.8,110.6,567.8,109.7,567.8,108.8z"
		/>
	<linearGradient id="SVGID_65_" gradientUnits="userSpaceOnUse" x1="559.4667" y1="93.4287" x2="567.7723" y2="93.4287">
		<stop  offset="0" style="stop-color:#16BFFD"/>
		<stop  offset="1" style="stop-color:#CB3066"/>
	</linearGradient>
	<path class="st12" d="M559.5,94.8c2.8,0,5.5,0,8.3,0c0-0.9,0-1.8,0-2.7c-2.8,0-5.5,0-8.3,0C559.5,93,559.5,93.9,559.5,94.8z"/>
	<linearGradient id="SVGID_66_" gradientUnits="userSpaceOnUse" x1="559.459" y1="104.6087" x2="567.7918" y2="104.6087">
		<stop  offset="0" style="stop-color:#16BFFD"/>
		<stop  offset="1" style="stop-color:#CB3066"/>
	</linearGradient>
	<path class="st13" d="M559.5,105.9c2.8,0,5.6,0,8.3,0c0-0.9,0-1.8,0-2.7c-2.8,0-5.6,0-8.3,0C559.5,104.2,559.5,105,559.5,105.9z"/>
	<linearGradient id="SVGID_67_" gradientUnits="userSpaceOnUse" x1="559.4893" y1="115.789" x2="567.7941" y2="115.789">
		<stop  offset="0" style="stop-color:#16BFFD"/>
		<stop  offset="1" style="stop-color:#CB3066"/>
	</linearGradient>
	<path class="st14" d="M567.8,114.4c-2.8,0-5.5,0-8.3,0c0,0.9,0,1.8,0,2.7c2.8,0,5.5,0,8.3,0C567.8,116.2,567.8,115.4,567.8,114.4z"
		/>
	<linearGradient id="SVGID_68_" gradientUnits="userSpaceOnUse" x1="609.8194" y1="115.7901" x2="618.1154" y2="115.7901">
		<stop  offset="0" style="stop-color:#16BFFD"/>
		<stop  offset="1" style="stop-color:#CB3066"/>
	</linearGradient>
	<path class="st15" d="M609.8,114.4c0,0.9,0,1.8,0,2.7c2.8,0,5.5,0,8.3,0c0-0.9,0-1.8,0-2.7C615.3,114.4,612.6,114.4,609.8,114.4z"
		/>
	<linearGradient id="SVGID_69_" gradientUnits="userSpaceOnUse" x1="576.2605" y1="93.4261" x2="583.1515" y2="93.4261">
		<stop  offset="0" style="stop-color:#16BFFD"/>
		<stop  offset="1" style="stop-color:#CB3066"/>
	</linearGradient>
	<path class="st16" d="M583.2,94.8c0-0.9,0-1.8,0-2.7c-2.3,0-4.6,0-6.9,0c0,0.9,0,1.8,0,2.7C578.6,94.8,580.9,94.8,583.2,94.8z"/>
	<linearGradient id="SVGID_70_" gradientUnits="userSpaceOnUse" x1="583.2586" y1="99.0027" x2="590.1443" y2="99.0027">
		<stop  offset="0" style="stop-color:#16BFFD"/>
		<stop  offset="1" style="stop-color:#CB3066"/>
	</linearGradient>
	<path class="st17" d="M583.3,100.4c2.3,0,4.6,0,6.9,0c0-0.9,0-1.8,0-2.7c-2.3,0-4.6,0-6.9,0C583.3,98.6,583.3,99.4,583.3,100.4z"/>
	<linearGradient id="SVGID_71_" gradientUnits="userSpaceOnUse" x1="590.2391" y1="104.6072" x2="597.1258" y2="104.6072">
		<stop  offset="0" style="stop-color:#16BFFD"/>
		<stop  offset="1" style="stop-color:#CB3066"/>
	</linearGradient>
	<path class="st18" d="M590.2,103.3c0,0.9,0,1.8,0,2.7c2.3,0,4.6,0,6.9,0c0-0.9,0-1.8,0-2.7C594.8,103.3,592.5,103.3,590.2,103.3z"
		/>
	<linearGradient id="SVGID_72_" gradientUnits="userSpaceOnUse" x1="559.4895" y1="82.2486" x2="562.193" y2="82.2486">
		<stop  offset="0" style="stop-color:#16BFFD"/>
		<stop  offset="1" style="stop-color:#CB3066"/>
	</linearGradient>
	<path class="st19" d="M559.5,80.9c0,0.9,0,1.8,0,2.7c0.9,0,1.8,0,2.7,0c0-0.9,0-1.8,0-2.7C561.3,80.9,560.4,80.9,559.5,80.9z"/>
	<linearGradient id="SVGID_73_" gradientUnits="userSpaceOnUse" x1="570.6472" y1="82.2337" x2="573.3679" y2="82.2337">
		<stop  offset="0" style="stop-color:#16BFFD"/>
		<stop  offset="1" style="stop-color:#CB3066"/>
	</linearGradient>
	<path class="st20" d="M570.6,80.9c0,0.9,0,1.8,0,2.7c0.9,0,1.8,0,2.7,0c0-0.9,0-1.8,0-2.7C572.5,80.9,571.6,80.9,570.6,80.9z"/>
	<linearGradient id="SVGID_74_" gradientUnits="userSpaceOnUse" x1="565.085" y1="82.2516" x2="567.7779" y2="82.2516">
		<stop  offset="0" style="stop-color:#16BFFD"/>
		<stop  offset="1" style="stop-color:#CB3066"/>
	</linearGradient>
	<path class="st21" d="M565.1,80.9c0,0.9,0,1.8,0,2.7c0.9,0,1.8,0,2.7,0c0-0.9,0-1.8,0-2.7C566.8,80.9,566,80.9,565.1,80.9z"/>
	<linearGradient id="SVGID_75_" gradientUnits="userSpaceOnUse" x1="601.3804" y1="82.2382" x2="626.5268" y2="82.2382">
		<stop  offset="0" style="stop-color:#16BFFD"/>
		<stop  offset="1" style="stop-color:#CB3066"/>
	</linearGradient>
	<path class="st22" d="M614,69.7c-7,0-12.6,5.6-12.6,12.6c0,6.9,5.6,12.5,12.6,12.6c7.1,0,12.8-5.9,12.6-13
		C626.7,76,621.1,69.6,614,69.7z M613.9,92c-5.4,0-9.8-4.5-9.7-9.9c0.1-5.4,4.5-9.7,9.9-9.7c5.4,0.1,9.7,4.4,9.7,9.8
		C623.7,87.7,619.3,92.1,613.9,92z"/>
	<linearGradient id="SVGID_76_" gradientUnits="userSpaceOnUse" x1="608.3553" y1="82.2517" x2="619.5284" y2="82.2517">
		<stop  offset="0" style="stop-color:#16BFFD"/>
		<stop  offset="1" style="stop-color:#CB3066"/>
	</linearGradient>
	<path class="st23" d="M614,76.7c-3.1,0-5.6,2.5-5.6,5.6c0,3.1,2.5,5.6,5.6,5.6c3.1,0,5.6-2.5,5.6-5.6
		C619.5,79.1,617.1,76.7,614,76.7z M614,85c-1.5,0-2.8-1.3-2.8-2.8c0-1.5,1.3-2.8,2.8-2.8c1.5,0,2.8,1.3,2.8,2.8
		C616.8,83.8,615.5,85,614,85z"/>
</g>
</svg>
