<?xml version="1.0" encoding="utf-8"?>
<!-- Generator: Adobe Illustrator 24.0.2, SVG Export Plug-In . SVG Version: 6.00 Build 0)  -->
<svg version="1.1" id="Layer_1" xmlns="http://www.w3.org/2000/svg" xmlns:xlink="http://www.w3.org/1999/xlink" x="0px" y="0px"
	 viewBox="0 0 65 65" style="enable-background:new 0 0 65 65;" xml:space="preserve">
<style type="text/css">
	.st0{fill:#FFFFFF;}
	.st1{fill:url(#SVGID_1_);}
	.st2{fill:url(#SVGID_2_);}
</style>
<circle class="st0" cx="32.5" cy="32.5" r="32.5"/>
<g>
	<linearGradient id="SVGID_1_" gradientUnits="userSpaceOnUse" x1="9.9286" y1="32.5" x2="55.0714" y2="32.5">
		<stop  offset="0" style="stop-color:#0058F4"/>
		<stop  offset="1" style="stop-color:#05CC8A"/>
	</linearGradient>
	<path class="st1" d="M42.5,19.9v-3.5c0-0.8-1-1.3-1.6-0.7l-6.2,6.2c-0.4,0.4-0.4,1,0,1.3l6.2,6.2c0.6,0.6,1.6,0.2,1.6-0.7v-3.5
		c3.9,0,7.1,3.3,7.1,7.2c0,4-3.2,7.2-7.2,7.2c-4,0-7.2-3.2-7.2-7.2c0-7-5.7-12.6-12.6-12.6c-7,0-12.6,5.7-12.6,12.6
		c0,6.9,5.6,12.6,12.5,12.6v3.5c0,0.8,1,1.3,1.6,0.7l6.2-6.2c0.4-0.4,0.4-1,0-1.3L24,35.5c-0.6-0.6-1.6-0.2-1.6,0.7v3.5
		c-3.9-0.1-7.1-3.3-7.1-7.2c0-4,3.2-7.2,7.2-7.2c4,0,7.2,3.2,7.2,7.2c0,7,5.7,12.6,12.6,12.6c7,0,12.6-5.7,12.6-12.6
		C55.1,25.6,49.4,19.9,42.5,19.9z"/>
	<linearGradient id="SVGID_2_" gradientUnits="userSpaceOnUse" x1="9.9286" y1="32.5" x2="55.0714" y2="32.5">
		<stop  offset="0" style="stop-color:#0058F4"/>
		<stop  offset="1" style="stop-color:#05CC8A"/>
	</linearGradient>
	<path class="st2" d="M42.5,19.9v-3.5c0-0.8-1-1.3-1.6-0.7l-6.2,6.2c-0.4,0.4-0.4,1,0,1.3l6.2,6.2c0.6,0.6,1.6,0.2,1.6-0.7v-3.5
		c3.9,0,7.1,3.3,7.1,7.2c0,4-3.2,7.2-7.2,7.2c-4,0-7.2-3.2-7.2-7.2c0-7-5.7-12.6-12.6-12.6c-7,0-12.6,5.7-12.6,12.6
		c0,6.9,5.6,12.6,12.5,12.6v3.5c0,0.8,1,1.3,1.6,0.7l6.2-6.2c0.4-0.4,0.4-1,0-1.3L24,35.5c-0.6-0.6-1.6-0.2-1.6,0.7v3.5
		c-3.9-0.1-7.1-3.3-7.1-7.2c0-4,3.2-7.2,7.2-7.2c4,0,7.2,3.2,7.2,7.2c0,7,5.7,12.6,12.6,12.6c7,0,12.6-5.7,12.6-12.6
		C55.1,25.6,49.4,19.9,42.5,19.9z"/>
</g>
</svg>
