<?xml version="1.0" encoding="UTF-8"?>
<svg xmlns="http://www.w3.org/2000/svg" xmlns:xlink="http://www.w3.org/1999/xlink" width="17pt" height="16pt" viewBox="0 0 17 16" version="1.1">
<g id="surface1">
<path style=" stroke:none;fill-rule:nonzero;fill:rgb(10.196078%,11.372549%,16.078431%);fill-opacity:1;" d="M 16.839844 2.285156 C 16.839844 1.144531 16.191406 0.230469 15.382812 0.230469 L 7.285156 0.230469 C 6.476562 0.230469 5.828125 1.144531 5.828125 2.285156 L 5.828125 10.855469 C 5.828125 12 6.476562 12.914062 7.285156 12.914062 L 8.824219 12.914062 L 8.824219 15.3125 C 8.824219 15.65625 9.148438 15.886719 9.308594 15.65625 L 11.253906 13.027344 L 15.300781 13.027344 C 16.109375 13.027344 16.757812 12.113281 16.757812 10.972656 Z M 10.929688 3.085938 L 11.738281 3.085938 C 11.820312 3.085938 11.898438 3.199219 11.898438 3.3125 L 11.820312 7.886719 C 11.820312 8 11.738281 8.113281 11.65625 8.113281 L 11.007812 8.113281 C 10.929688 8.113281 10.847656 8 10.847656 7.886719 L 10.765625 3.3125 C 10.765625 3.199219 10.847656 3.085938 10.929688 3.085938 Z M 11.898438 9.714844 C 11.898438 9.941406 11.820312 10.058594 11.65625 10.058594 L 11.007812 10.058594 C 10.847656 10.058594 10.765625 9.941406 10.765625 9.714844 L 10.765625 9.144531 C 10.765625 8.914062 10.847656 8.800781 11.007812 8.800781 L 11.65625 8.800781 C 11.820312 8.800781 11.898438 8.914062 11.898438 9.144531 Z M 0.160156 2.742188 C 0.160156 2.171875 0.484375 1.828125 0.808594 1.828125 L 3.804688 1.828125 C 4.210938 1.828125 4.453125 2.285156 4.453125 2.742188 C 4.453125 3.3125 4.128906 3.65625 3.804688 3.65625 L 0.890625 3.65625 C 0.484375 3.65625 0.160156 3.3125 0.160156 2.742188 Z M 4.535156 6.628906 C 4.535156 7.199219 4.210938 7.542969 3.886719 7.542969 L 1.617188 7.542969 C 1.214844 7.542969 0.972656 7.085938 0.972656 6.628906 C 0.972656 6.171875 1.296875 5.601562 1.617188 5.601562 L 3.804688 5.601562 C 4.289062 5.601562 4.535156 6.058594 4.535156 6.628906 Z M 4.535156 10.398438 C 4.535156 10.972656 4.210938 11.3125 3.886719 11.3125 L 2.507812 11.3125 C 2.105469 11.3125 1.863281 10.855469 1.863281 10.398438 C 1.863281 9.828125 2.1875 9.484375 2.507812 9.484375 L 3.886719 9.484375 C 4.289062 9.484375 4.535156 9.828125 4.535156 10.398438 Z M 4.535156 10.398438 "/>
</g>
</svg>
