<svg xmlns="http://www.w3.org/2000/svg" width="290" height="196" viewBox="0 0 290 196"><defs><style>.a{fill:#1d82c5;}.b{fill:#faa230;}.c{fill:#2d366d;}.d{fill:#ef3748;}</style></defs><title>Ai_1</title><rect class="a" width="290" height="196"/><path class="b" d="M140.51,44.14V151.86a11.22,11.22,0,1,1-22.44,0c0-.15,0-.31,0-.49a12.3,12.3,0,0,1-15.26-15.24l-.49,0a13.44,13.44,0,0,1-9.74-22.73,15.71,15.71,0,0,1,0-30.84,13.44,13.44,0,0,1,9.74-22.73l.49,0a12.31,12.31,0,0,1,15.26-15.24c0-.18,0-.34,0-.49a11.22,11.22,0,1,1,22.44,0Z"/><path class="b" d="M197.38,82.58a15.71,15.71,0,0,1,0,30.84,13.44,13.44,0,0,1-9.74,22.73l-.49,0a12.31,12.31,0,0,1-15.26,15.24c0,.18,0,.34,0,.49a11.22,11.22,0,1,1-22.44,0V44.14a11.22,11.22,0,1,1,22.44,0c0,.15,0,.31,0,.49a12.3,12.3,0,0,1,15.26,15.24l.49,0a13.44,13.44,0,0,1,9.74,22.73Z"/><path class="c" d="M174.18,75.56H149.49V71.07h20.2V59.85h4.49Z"/><path class="c" d="M149.49,86.78h33.66v4.49H149.49Z"/><path class="c" d="M149.49,102.49V107h11.22v29.17h4.49V107h18v13.46h4.49v-18Z"/><path class="c" d="M109.09,107H104.6V86.78h35.91v4.49H109.09Z"/><path class="c" d="M122.56,124.93h-4.49V102.49h22.44V107H122.56Z"/><path class="c" d="M127.05,71.07V59.85h-4.49V71.07H106.85v4.49h33.66V71.07Z"/><path class="c" d="M140.51,142.89H118.07V129.42h4.49v9h17.95Z"/><path class="c" d="M178.66,71.07h4.49v4.49h-4.49Z"/><path class="c" d="M86.65,95.76h4.49v4.48H86.65Z"/><path class="c" d="M100.11,122.69h4.49v4.49h-4.49Z"/><path class="c" d="M196.62,95.76h4.49v4.48h-4.49Z"/><circle class="d" cx="171.93" cy="57.6" r="4.49"/><circle class="d" cx="185.4" cy="89.02" r="4.49"/><circle class="d" cx="162.95" cy="138.4" r="4.49"/><circle class="d" cx="185.4" cy="122.69" r="4.49"/><circle class="d" cx="124.8" cy="57.6" r="4.49"/><circle class="d" cx="106.85" cy="109.22" r="4.49"/><circle class="d" cx="120.31" cy="127.18" r="4.49"/><circle class="d" cx="104.6" cy="73.31" r="4.49"/></svg>