<?xml version="1.0" encoding="utf-8"?>
<!-- Generator: Adobe Illustrator 24.0.2, SVG Export Plug-In . SVG Version: 6.00 Build 0)  -->
<svg version="1.1" id="Layer_1" xmlns="http://www.w3.org/2000/svg" xmlns:xlink="http://www.w3.org/1999/xlink" x="0px" y="0px"
	 width="55px" height="55px" viewBox="0 0 55 55" style="enable-background:new 0 0 55 55;" xml:space="preserve">
<style type="text/css">
	.st0{fill:#FFFFFF;}
	.st1{fill:url(#SVGID_1_);}
</style>
<circle class="st0" cx="27.5" cy="27.5" r="27"/>
<linearGradient id="SVGID_1_" gradientUnits="userSpaceOnUse" x1="8.1989" y1="28.5772" x2="47.363" y2="28.5772" gradientTransform="matrix(1 0 0 -1 0 56)">
	<stop  offset="0" style="stop-color:#F04D25"/>
	<stop  offset="1" style="stop-color:#F6B62F"/>
</linearGradient>
<path class="st1" d="M18.8,24.2c0,1.1,0.2,1.6,0.6,2.5c-1.1,1.6-2,1.3-2.7-0.5c-8.4,7.1-11.1-8.5-0.2-5c0.7-4.3-3.2-4.2-6.1-2.9
	c-0.3,0-0.5,0-0.5-0.4c-0.1-3,6.3-2.7,7.8-1.2C19.3,18,18.7,22.3,18.8,24.2L18.8,24.2z M13.5,26.3c2.1,0.1,3.6-1.4,3.2-3.6
	c-1.3-0.3-3.3-0.5-4.4,0.2C11.1,23.9,11.6,26.5,13.5,26.3z M24.1,27.7c-1.2,0.4-3.6-10.7-4-11.3c-0.1-0.6,1.3-0.2,1.6-0.3
	c0.6,0,0.6,0.2,0.8,0.6c0,0,2.2,8.8,2.2,8.8c0.4-0.5,1.7-10,2.9-9.4c0.7,0.1,1.7-0.3,1.9,0.6c0,0,2.1,8.9,2.1,8.9l2.3-8.9
	c0.2-0.9,1.4-0.5,2-0.6c1.1-0.4-3.2,10.7-3,11c-0.2,0.9-1.8,0.6-2.4,0.5c-0.4,0.2-2.2-8.8-2.3-9L26,27c-0.1,0.9-1.3,0.5-1.9,0.6
	V27.7z M41.1,28c-1.6,0.1-5.3-0.6-3.8-2.6c1.5,0.5,4,1.3,5.5,0.4c1.3-1,0.6-2.6-1-2.9c-7.5-1.1-5.1-8.8,1.6-7.1
	c1,0.2,2.2,0.4,1.9,1.7c0,1.1-5.6-2.1-5.7,1.3c0,1.6,2.6,1.7,3.8,2.2C48.4,22.5,45.3,28.6,41.1,28L41.1,28z M43.6,34.5
	c-9.5,7.6-30.3,5.9-35.4-3.2c10,5.9,23.5,7,34.7,2.1C43.7,33.1,44.3,33.9,43.6,34.5z M45.4,32.4c0-1-6.6,0.5-5.2-0.8
	c2.5-1.7,6.6-1.2,7-0.7c0.5,0.6-0.1,4.7-2.5,6.6C43.1,38.5,46.4,32.8,45.4,32.4z"/>
</svg>
