<?xml version="1.0" encoding="utf-8"?>
<!-- Generator: Adobe Illustrator 24.0.2, SVG Export Plug-In . SVG Version: 6.00 Build 0)  -->
<svg version="1.1" id="Layer_1" xmlns="http://www.w3.org/2000/svg" xmlns:xlink="http://www.w3.org/1999/xlink" x="0px" y="0px"
	 width="55px" height="55px" viewBox="0 0 55 55" style="enable-background:new 0 0 55 55;" xml:space="preserve">
<style type="text/css">
	.st0{fill:#FFFFFF;}
	.st1{fill:url(#SVGID_1_);}
</style>
<circle class="st0" cx="27.5" cy="27.5" r="27"/>
<linearGradient id="SVGID_1_" gradientUnits="userSpaceOnUse" x1="9.2038" y1="25.5" x2="45.7962" y2="25.5">
	<stop  offset="0" style="stop-color:#0090D4"/>
	<stop  offset="1" style="stop-color:#0200E2"/>
</linearGradient>
<path class="st1" d="M22.7,33.6h9.6v-1.5h-9.6V33.6z M30.7,20.3l4.8,7.1l1.6-0.8l-4.8-7.1L30.7,20.3z M17.8,26.6l1.7,0.8l4.8-7.1
	l-1.6-0.8L17.8,26.6z M28,14.3v6.4l5.8-2.8v-6.4L28,14.3z M21.2,17.8l5.8,2.8v-6.4l-5.8-2.8V17.8z M21.8,10.7l5.7,2.7l5.7-2.7
	L27.5,8L21.8,10.7z M16,32.8v6.4l5.8-2.8V30L16,32.8z M9.2,36.3l5.8,2.8v-6.4L9.2,30V36.3z M9.8,29.2l5.7,2.7l5.7-2.7l-5.7-2.7
	L9.8,29.2z M40,32.8v6.4l5.8-2.8V30L40,32.8z M33.2,36.3l5.8,2.8v-6.4L33.2,30L33.2,36.3L33.2,36.3z M33.8,29.2l5.7,2.7l5.7-2.7
	l-5.7-2.7L33.8,29.2z M42.3,20.3v1.8l1.7-0.8v-1.8L42.3,20.3z M39.7,21.3l1.7,0.8v-1.8l-1.7-0.8V21.3z M40.3,18.8l1.5,0.7l1.5-0.7
	L41.8,18L40.3,18.8z M13.7,20.3v1.8l1.7-0.8v-1.8L13.7,20.3z M11,21.3l1.7,0.8v-1.8L11,19.5C11,19.5,11,21.3,11,21.3z M11.6,18.8
	l1.5,0.7l1.5-0.7L13.2,18L11.6,18.8z M28.1,41.1V43l1.7-0.8v-1.8L28.1,41.1z M25.4,42.2l1.7,0.8v-1.8l-1.7-0.8L25.4,42.2L25.4,42.2z
	 M26,39.6l1.5,0.7l1.5-0.7l-1.5-0.7L26,39.6z"/>
</svg>
