<svg xmlns="http://www.w3.org/2000/svg" width="49" height="49" viewBox="0 0 2.97 2.97" shape-rendering="geometricPrecision" image-rendering="optimizeQuality" fill-rule="evenodd" xmlns:v="https://vecta.io/nano"><defs><linearGradient id="A" gradientUnits="userSpaceOnUse" x1=".73" y1="2.02" x2="2.23" y2=".94"><stop offset="0" stop-color="#ed3237"/><stop offset="1" stop-color="#3e4095"/></linearGradient></defs><circle cx="1.48" cy="1.48" r="1.48" fill="#fefefe"/><path d="M1.41 1.56h.32v.16l-.32.01v-.17h0zm-.2-.48c0-.06.03-.13.06-.17.03-.05.07-.1.13-.13.01 0 .02-.01.03-.01a.32.32 0 0 1 .14-.03.35.35 0 0 1 .3.17c.01 0 .02.01.02.02l.02.06c.01.01.01.01.01.02.02.06.01.15-.01.21-.02.04-.07.09-.11.12l-.01.02c-.02.02-.04.05-.05.08H1.4c0-.01-.01-.02-.01-.03-.01-.01-.03-.04-.04-.05-.09-.1-.14-.13-.14-.28h0zm.12 1.45h.01c.01-.01.05-.02.06-.02.01-.01.02-.01.03-.01l.23-.07c.01 0 .02-.01.03-.01l.32-.1.2-.06.05-.01c0-.03-.01-.06-.02-.08l-.03-.1c0-.02 0-.03-.01-.04l-.07-.24c-.01-.02 0-.02.01-.03l.02-.02c.03-.03.02-.03.04-.05.04-.05.08-.12.1-.18.02-.05.02-.05.03-.1.01-.03.01-.05.01-.08.01-.03.02-.13.01-.17 0-.03-.01-.05-.01-.08l-.02-.07-.04-.1c0-.02 0-.02-.01-.03 0-.01-.01-.02-.02-.03 0-.01-.01-.02-.01-.03C2.23.81 2.23.8 2.22.79L2.18.74C2.17.72 2.13.68 2.11.66L2.07.62C2.04.6 1.99.56 1.96.55L1.82.49C1.8.47 1.78.47 1.77.47a.69.69 0 0 0-.13-.02L1.62.44h-.1c-.01.01-.02.01-.03.01a.9.9 0 0 0-.16.03L1.27.5l-.1.05L1.1.6a1.79 1.79 0 0 0-.14.13C.93.77.9.82.87.87L.85.92C.84.94.83.96.83.98.82.99.82.99.82 1c0 .02-.01.02-.01.03-.01.06-.03.15-.02.21 0 .04.01.07-.01.09-.01.01-.01.02-.01.03l-.14.28c-.03.05 0 .11.04.13.03.02.1.01.14.01V2v.04c.01.06.02.12.07.15.05.02.08.02.14.02h.22c0 .01.01.02.01.04l.05.16c0 .01.01.02.01.04.01.02.02.05.02.08h0z" fill="url(#A)"/><path d="M1.58.87c0 .03.01.08 0 .11.06 0 .1.04.11.09.01.03 0 .02.07.02h.06c0-.04-.01-.07-.02-.1-.01-.01-.01-.01-.01-.02L1.74.91c-.03-.02-.07-.05-.1-.05C1.62.85 1.6.85 1.58.85v.02h0z" fill="#fbe91f"/></svg>