<?xml version="1.0" encoding="utf-8"?>
<!-- Generator: Adobe Illustrator 24.0.2, SVG Export Plug-In . SVG Version: 6.00 Build 0)  -->
<svg version="1.1" id="Layer_1" xmlns="http://www.w3.org/2000/svg" xmlns:xlink="http://www.w3.org/1999/xlink" x="0px" y="0px"
	 width="55px" height="55px" viewBox="0 0 55 55" style="enable-background:new 0 0 55 55;" xml:space="preserve">
<style type="text/css">
	.st0{fill:#FFFFFF;}
	.st1{fill:url(#SVGID_1_);}
</style>
<circle class="st0" cx="27.5" cy="27.5" r="27"/>
<linearGradient id="SVGID_1_" gradientUnits="userSpaceOnUse" x1="11.7143" y1="27.5" x2="43.2857" y2="27.5">
	<stop  offset="0" style="stop-color:#FF416C"/>
	<stop  offset="1" style="stop-color:#FF4B2B"/>
</linearGradient>
<path class="st1" d="M37.6,20.4v-7.8c0-0.3-0.3-0.6-0.6-0.6h-4.4c-0.3,0-0.6,0.3-0.6,0.6v3l-4.1-3.5c-0.2-0.2-0.6-0.2-0.8,0L11.9,25
	c-0.3,0.2-0.3,0.6-0.1,0.9c0.2,0.3,0.6,0.3,0.9,0.1l14.7-12.6L42.2,26c0.1,0.1,0.3,0.2,0.4,0.2c0.2,0,0.4-0.1,0.5-0.2
	c0.2-0.3,0.2-0.7-0.1-0.9L37.6,20.4z M27.5,35.2c2.8,0,4.6-1.1,4.6-1.9v-1.5C31,32.6,29.4,33,27.5,33c-1.9,0-3.5-0.4-4.6-1.1v1.5
	C22.9,34.2,24.7,35.2,27.5,35.2z M27.5,31.8c2.8,0,4.6-1.1,4.6-1.9v-1.5c-1.1,0.7-2.7,1.1-4.6,1.1c-1.9,0-3.5-0.4-4.6-1.1v1.5
	C22.9,30.7,24.7,31.8,27.5,31.8z M27.5,28.3c2.8,0,4.6-1.1,4.6-1.9s-1.7-1.9-4.6-1.9c-2.8,0-4.6,1.1-4.6,1.9S24.7,28.3,27.5,28.3z
	 M40.2,43.1c0.3,0,0.6-0.3,0.6-0.6v-16L27.5,15L14.2,26.4v16c0,0.4,0.3,0.6,0.6,0.6H40.2z M21.7,26.5c0-1.8,2.5-3.1,5.8-3.1
	c3.3,0,5.8,1.3,5.8,3.1v10.4c0,1.8-2.5,3.1-5.8,3.1c-3.3,0-5.8-1.3-5.8-3.1V26.5z"/>
</svg>
