<?xml version="1.0" encoding="utf-8"?>
<!-- Generator: Adobe Illustrator 24.0.2, SVG Export Plug-In . SVG Version: 6.00 Build 0)  -->
<svg version="1.1" id="Layer_1" xmlns="http://www.w3.org/2000/svg" xmlns:xlink="http://www.w3.org/1999/xlink" x="0px" y="0px"
	 width="290px" height="196px" viewBox="0 0 290 196" style="enable-background:new 0 0 290 196;" xml:space="preserve">
<style type="text/css">
	.st0{fill:#DDDDDD;}
	.st1{fill:#3F5C6C;}
	.st2{fill:#35495E;}
	.st3{fill:#FF5364;}
	.st4{fill:#2C3E50;}
	.st5{fill:#F0C419;}
	.st6{fill:#547580;}
</style>
<rect class="st0" width="290" height="196"/>
<g id="Page-1">
	<g id="_x30_38---Cloud-Data">
		<path id="Shape" class="st1" d="M167.3,47.3V94l-18.7,12.8l-41.8,28.6c-12.3-1.4-20.6-4-20.6-7.1V47.3H167.3z"/>
		<path id="Shape_1_" class="st2" d="M167.3,73.6V94l-18.7,12.8c-7.3,0.9-14.6,1.3-21.9,1.3c-22.4,0-40.6-3.6-40.6-8.1V73.6
			c0,4.5,18.2,8.1,40.6,8.1S167.3,78.1,167.3,73.6z"/>
		<path id="Shape_2_" class="st2" d="M142.9,74.1c-1.1,0-2.1-0.8-2.1-1.9c0-1.1,0.8-2.1,1.9-2.1c5.4-0.4,10.7-1.2,16-2.4
			c1.1-0.3,2.2,0.4,2.5,1.5s-0.4,2.2-1.5,2.5c-5.5,1.3-11,2.1-16.6,2.6L142.9,74.1z"/>
		<circle id="Oval" class="st3" cx="94.2" cy="59.4" r="2"/>
		<path id="Shape_3_" class="st2" d="M94.2,73.6c-1.1,0-2-0.9-2-2v-4.1c0-1.1,0.9-2,2-2s2,0.9,2,2v4.1
			C96.2,72.7,95.3,73.6,94.2,73.6z"/>
		<circle id="Oval_1_" class="st3" cx="94.2" cy="85.8" r="2"/>
		<path id="Shape_4_" class="st4" d="M94.2,100c-1.1,0-2-0.9-2-2v-4.1c0-1.1,0.9-2,2-2s2,0.9,2,2V98C96.2,99.1,95.3,100,94.2,100z"
			/>
		<circle id="Oval_2_" class="st3" cx="94.2" cy="112.2" r="2"/>
		<path id="Shape_5_" class="st2" d="M94.2,126.4c-1.1,0-2-0.9-2-2v-4.1c0-1.1,0.9-2,2-2s2,0.9,2,2v4.1
			C96.2,125.5,95.3,126.4,94.2,126.4z"/>
		<path id="Shape_6_" class="st5" d="M165.1,93.9c11.4,0,20.9,9.1,22.5,21c9.2,1.6,16.3,10.3,16.3,20.8c0,11.6-8.7,21.1-19.4,21.1
			h-61.8c-9,0-16.3-7.9-16.3-17.7c0-9.8,7.3-17.7,16.3-17.7h0.3c1.3-9.6,8.9-16.9,18.1-16.9c1.6,0,3.3,0.2,4.9,0.7
			C149.9,98.4,157.2,94,165.1,93.9L165.1,93.9z"/>
		<ellipse id="Oval_3_" class="st6" cx="126.7" cy="47.3" rx="40.6" ry="8.1"/>
	</g>
</g>
</svg>
