<?xml version="1.0" encoding="utf-8"?>
<!-- Generator: Adobe Illustrator 24.0.2, SVG Export Plug-In . SVG Version: 6.00 Build 0)  -->
<svg version="1.1" id="Layer_1" xmlns="http://www.w3.org/2000/svg" xmlns:xlink="http://www.w3.org/1999/xlink" x="0px" y="0px"
	 width="290px" height="196px" viewBox="0 0 290 196" style="enable-background:new 0 0 290 196;" xml:space="preserve">
<style type="text/css">
	.st0{fill:#FF9700;}
	.st1{fill:#FFFFFF;}
	.st2{font-family:'Montserrat-Bold';}
	.st3{font-size:22.6452px;}
</style>
<path class="st0" d="M0,196h290V0H0V196z"/>
<g>
	<g>
		<g>
			<g>
				<path class="st1" d="M71.2,121.6c-0.2-0.2-0.6-0.4-0.9-0.4c-0.4,0-0.7,0.1-0.9,0.4c-0.2,0.2-0.4,0.6-0.4,0.9
					c0,0.4,0.1,0.7,0.4,0.9c0.2,0.2,0.6,0.4,0.9,0.4c0.4,0,0.7-0.1,0.9-0.4c0.2-0.2,0.4-0.6,0.4-0.9
					C71.6,122.2,71.4,121.9,71.2,121.6z"/>
			</g>
		</g>
		<g>
			<g>
				<path class="st1" d="M77.5,109.3v-9.8c0-0.4-0.2-0.9-0.6-1.1c-0.4-0.2-0.8-0.3-1.2-0.1l-23,9.3h-7.4c-4.2,0-7.7,3.4-7.7,7.7
					c0,4.2,3.4,7.7,7.7,7.7h0.9v8c0,0.7,0.6,1.3,1.3,1.3h5.5c0.7,0,1.3-0.6,1.3-1.3v-7.4l21.4,8.6c0.2,0.1,0.3,0.1,0.5,0.1
					c0.3,0,0.5-0.1,0.7-0.2c0.4-0.2,0.6-0.7,0.6-1.1V121c2.7-0.6,4.7-3,4.7-5.9C82.2,112.3,80.2,109.9,77.5,109.3z M51.6,129.5h-2.8
					v-6.7h2.8L51.6,129.5L51.6,129.5z M51.6,120.2h-6.3c-2.8,0-5-2.2-5-5c0-2.8,2.2-5,5-5h6.3L51.6,120.2z M74.8,128.9L74.8,128.9
					l-20.6-8.3v-10.9l14.6-5.9v13.3c0,0.7,0.6,1.3,1.3,1.3s1.3-0.6,1.3-1.3v-14.3l3.3-1.3V128.9z M77.5,118.2v-6.1
					c1.2,0.5,2,1.7,2,3.1S78.7,117.7,77.5,118.2z"/>
			</g>
		</g>
		<g>
			<g>
				<path class="st1" d="M94.9,113.9h-7.6c-0.7,0-1.3,0.6-1.3,1.3s0.6,1.3,1.3,1.3h7.6c0.7,0,1.3-0.6,1.3-1.3S95.7,113.9,94.9,113.9
					z"/>
			</g>
		</g>
		<g>
			<g>
				<path class="st1" d="M88.7,104.1c-0.5-0.5-1.4-0.5-1.9,0l-2.6,2.6c-0.5,0.5-0.5,1.4,0,1.9c0.3,0.3,0.6,0.4,0.9,0.4
					c0.3,0,0.7-0.1,0.9-0.4l2.6-2.6C89.3,105.4,89.3,104.6,88.7,104.1z"/>
			</g>
		</g>
		<g>
			<g>
				<path class="st1" d="M88.8,124.3l-2.7-2.7c-0.5-0.5-1.4-0.5-1.9,0c-0.5,0.5-0.5,1.4,0,1.9l2.7,2.7c0.3,0.3,0.6,0.4,0.9,0.4
					s0.7-0.1,0.9-0.4C89.4,125.7,89.4,124.8,88.8,124.3z"/>
			</g>
		</g>
		<g>
			<g>
				<path class="st1" d="M100.6,63.8H75.8c-2.9,0-5.3,2.4-5.3,5.3v0.5H48c-1.8,0-3.2,1.4-3.2,3.2V94c0,1.8,1.4,3.2,3.2,3.2h1.4v4.1
					c0,0.5,0.3,1,0.8,1.2c0.2,0.1,0.3,0.1,0.5,0.1c0.3,0,0.7-0.1,0.9-0.4l5-5h26.5c1.8,0,3.2-1.4,3.2-3.2v-4h14.2
					c2.9,0,5.3-2.4,5.3-5.3V69.2C106,66.2,103.6,63.8,100.6,63.8z M83.8,94c0,0.3-0.2,0.5-0.5,0.5H56.2c-0.4,0-0.7,0.1-0.9,0.4
					l-3.2,3.2v-2.2c0-0.7-0.6-1.3-1.3-1.3H48c-0.3,0-0.5-0.2-0.5-0.5V72.9c0-0.3,0.2-0.5,0.5-0.5h22.4v12.3c0,2.9,2.4,5.3,5.3,5.3h8
					V94z M103.3,84.6c0,1.5-1.2,2.7-2.7,2.7H75.8c-1.5,0-2.7-1.2-2.7-2.7V69.2c0-1.5,1.2-2.7,2.7-2.7h24.8c1.5,0,2.7,1.2,2.7,2.7
					V84.6z"/>
			</g>
		</g>
		<g>
			<g>
				<path class="st1" d="M93.6,75.7l-9.1-5.3c-0.4-0.2-0.9-0.2-1.3,0c-0.4,0.2-0.7,0.7-0.7,1.2v10.6c0,0.5,0.3,0.9,0.7,1.2
					c0.2,0.1,0.4,0.2,0.7,0.2s0.5-0.1,0.7-0.2l9.1-5.3c0.4-0.2,0.7-0.7,0.7-1.2S94,76,93.6,75.7z M85.1,79.9v-5.9l5.1,3L85.1,79.9z"
					/>
			</g>
		</g>
		<g>
			<g>
				<path class="st1" d="M66.2,77.8H52.9c-0.7,0-1.3,0.6-1.3,1.3c0,0.7,0.6,1.3,1.3,1.3h13.4c0.7,0,1.3-0.6,1.3-1.3
					C67.6,78.4,67,77.8,66.2,77.8z"/>
			</g>
		</g>
		<g>
			<g>
				<path class="st1" d="M67.2,85.7c-0.2-0.2-0.6-0.4-0.9-0.4c-0.4,0-0.7,0.1-0.9,0.4c-0.2,0.2-0.4,0.6-0.4,0.9
					c0,0.4,0.1,0.7,0.4,0.9c0.2,0.2,0.6,0.4,0.9,0.4c0.4,0,0.7-0.1,0.9-0.4c0.2-0.2,0.4-0.6,0.4-0.9C67.6,86.3,67.4,86,67.2,85.7z"
					/>
			</g>
		</g>
		<g>
			<g>
				<path class="st1" d="M61.2,85.3h-8.3c-0.7,0-1.3,0.6-1.3,1.3c0,0.7,0.6,1.3,1.3,1.3h8.3c0.7,0,1.3-0.6,1.3-1.3
					C62.6,85.9,62,85.3,61.2,85.3z"/>
			</g>
		</g>
	</g>
	<text transform="matrix(1 0 0 1 130.1276 91.025)"><tspan x="0" y="0" class="st1 st2 st3">Digital </tspan><tspan x="0" y="27.2" class="st1 st2 st3">Marketing</tspan></text>
</g>
</svg>
