<?xml version="1.0" encoding="utf-8"?>
<!-- Generator: Adobe Illustrator 24.0.2, SVG Export Plug-In . SVG Version: 6.00 Build 0)  -->
<svg version="1.1" id="Layer_1" xmlns="http://www.w3.org/2000/svg" xmlns:xlink="http://www.w3.org/1999/xlink" x="0px" y="0px"
	 width="55px" height="55px" viewBox="0 0 55 55" style="enable-background:new 0 0 55 55;" xml:space="preserve">
<style type="text/css">
	.st0{fill:#FFFFFF;}
	.st1{fill:url(#SVGID_1_);}
</style>
<circle class="st0" cx="27.5" cy="27.5" r="27"/>
<linearGradient id="SVGID_1_" gradientUnits="userSpaceOnUse" x1="12.7353" y1="27.5" x2="42.2647" y2="27.5">
	<stop  offset="0" style="stop-color:#0575E6"/>
	<stop  offset="1" style="stop-color:#021B79"/>
</linearGradient>
<path class="st1" d="M39.7,12.7H15.3c-1.4,0-2.6,1.2-2.6,2.6v24.3c0,1.4,1.2,2.6,2.6,2.6h24.3c1.4,0,2.6-1.2,2.6-2.6V15.3
	C42.3,13.9,41.1,12.7,39.7,12.7z M39.7,39.7H15.3V22.3h24.3V39.7z M39.7,20.6H15.3v-5.2h24.3V20.6z M29.2,17.1H31v1.7h-1.7V17.1z
	 M32.7,17.1h1.7v1.7h-1.7V17.1z M36.2,17.1h1.7v1.7h-1.7V17.1z M33.3,35.1l4.1-4.1l-4.1-4.1l-1.2,1.2L35,31l-2.9,2.9L33.3,35.1z
	 M28.4,23.8l1.7,0.4l-3.5,13.9l-1.7-0.4L28.4,23.8z M22.9,33.8L20,31l2.9-2.9l-1.2-1.2L17.6,31l4.1,4.1L22.9,33.8z"/>
</svg>
