<?xml version="1.0" encoding="utf-8"?>
<!-- Generator: Adobe Illustrator 24.0.2, SVG Export Plug-In . SVG Version: 6.00 Build 0)  -->
<svg version="1.1" id="Layer_1" xmlns="http://www.w3.org/2000/svg" xmlns:xlink="http://www.w3.org/1999/xlink" x="0px" y="0px"
	 width="290px" height="196px" viewBox="0 0 290 196" style="enable-background:new 0 0 290 196;" xml:space="preserve">
<style type="text/css">
	.st0{fill:#0058D8;}
	.st1{fill:#FFD91D;}
</style>
<rect class="st0" width="290" height="196"/>
<g>
	<path class="st1" d="M118.9,49.2c-4.8,0.1-8.8,2-12.1,5.4c-0.3,0.3-0.9,0.4-1.4,0.4c-3.5,0-7,0-10.5,0c-0.5,0-0.9,0-1.4,0.1
		c0,21.4,0,42.8,0,64.2c34.3,0,68.5,0,102.8,0c0-21.4,0-42.7,0-64.2c-0.5,0-0.9-0.1-1.4-0.1c-3.6,0-7.2,0-10.8,0
		c-0.4,0-0.9-0.1-1.1-0.3c-3.3-3.5-7.4-5.3-12.3-5.4c0.4-1.2,0.6-2.2,2.1-2.3c1-0.1,2-0.5,2.8-1c1-0.7,2.1-0.9,3.3-0.8
		c7.2,0,14.5,0,21.7,0c3.8,0,5.8,2,5.8,5.7c0,26.7,0,53.5,0,80.2c0,3.6-2.5,5.9-5.9,5.9c-37-0.1-74-0.1-111.1,0
		c-1.7,0-3.3-0.2-4.3-1.5c-0.7-0.9-1.1-2-1.4-3.1c-0.2-0.5-0.1-1.1-0.1-1.6c0-26.5,0-53,0-79.6c0-4.1,1.8-6,6-6c7.4,0,14.8,0,22.2,0
		c0.5,0,1,0.1,1.4,0.3c1.5,0.5,3.1,1,4.5,1.8c0.6,0.3,1,1.2,1.5,1.8C119.1,49,119,49.1,118.9,49.2z M144.9,131.8
		c2.1,0,3.8-1.6,3.8-3.7c0-2-1.6-3.7-3.6-3.8c-2.2-0.1-3.9,1.6-3.9,3.7C141.2,130.1,142.9,131.8,144.9,131.8z"/>
	<path class="st1" d="M167.3,41.2c-1.7-2.7-1.6-5.2,0.3-7c1.7-1.7,4.4-1.9,6.4-0.5c2,1.4,2.7,4,1.7,6.2c-1.1,2.4-3.4,3.3-6.7,2.6
		c-1.6,3.6-3.3,7.2-5,11c2.3,0,4.3,0,6.4,0c2.9,0,5.6,0.8,7.9,2.6c3.4,2.7,5.2,6.1,5.2,10.4c0,4,0,8,0,12c0,0.4,0,0.8,0.3,1.3
		c1.3-1.6,2.7-3.1,3.8-4.8c1.1-1.8,2.6-2.1,4.6-1.6c0,6,0,12.1,0,18.2c-1.9,0.4-3.4,0.3-4.6-1.6c-1.1-1.7-2.5-3.2-4-5.1
		c0,3.1,0,5.9,0,8.7c-25.7,0-51.3,0-77,0c0-2.8,0-5.5,0-8.3c-0.1,0-0.2-0.1-0.3-0.1c-1.3,1.6-2.7,3.1-3.8,4.8
		c-1.1,1.8-2.6,2.1-4.6,1.6c0-6,0-12.1,0-18.2c1.8-0.3,3.4-0.3,4.5,1.6c1.1,1.7,2.5,3.2,4,5.1c0-0.7,0.1-1,0.1-1.4
		c0-4.1,0-8.2,0-12.2c0-7.1,5.4-12.7,12.5-12.9c1.8-0.1,3.7,0,5.5,0c0.4,0,0.8,0,1.4,0c-1.7-3.8-3.3-7.4-5-10.9
		c-3.8,0.5-6-0.4-6.9-3c-0.8-2.2,0-4.7,2-6c1.9-1.2,4.5-0.9,6.2,0.6c1.9,1.8,2,4.3,0.3,7c0.2,0.2,0.4,0.5,0.6,0.7
		c3.9,3.6,7.8,7.2,11.8,10.8c0.5,0.4,1.2,0.7,1.9,0.7c5.4,0.1,10.8,0,16.3,0c0.5,0,1.2-0.1,1.6-0.5c4.2-3.8,8.3-7.6,12.5-11.4
		C167.2,41.5,167.2,41.4,167.3,41.2z M160.9,83.1c3.5,0,6.4-2.9,6.4-6.4c0-3.6-2.9-6.5-6.5-6.5c-3.5,0-6.4,2.9-6.4,6.5
		C154.5,80.3,157.4,83.1,160.9,83.1z M128.9,83.1c3.6,0,6.4-2.9,6.4-6.5c0-3.5-3-6.4-6.5-6.3c-3.5,0.1-6.3,2.9-6.3,6.5
		C122.4,80.3,125.3,83.1,128.9,83.1z"/>
	<path class="st1" d="M183.5,98c-0.1,2.4,0,4.6-0.4,6.7c-1.1,5.9-6.3,10.3-12.3,10.3c-17.3,0-34.5,0.1-51.8,0
		c-6.8,0-12.5-5.8-12.5-12.6c0-1.4,0-2.8,0-4.3c0.5,0,0.9-0.1,1.3-0.1c6.6,0,13.3,0,19.9,0c0.8,0,1.4,0.2,1.9,0.9
		c8.1,9.8,22.5,9.8,30.7,0.1c0.6-0.7,1.1-1,2-0.9c6.6,0,13.1,0,19.7,0C182.4,98,182.8,98,183.5,98z"/>
	<path class="st1" d="M152,142.2c0.2,6.9,5.1,9.6,10.6,11.5c5.1,1.8,10.4,2.3,15.7,2.8c0.3,0,0.7,0.1,1.1,0.1c0,2.2,0,4.4,0,6.6
		c-23,0-45.9,0-68.9,0c0-2.2,0-4.4,0-6.6c2.6-0.3,5.1-0.5,7.6-0.8c4.7-0.7,9.4-1.6,13.6-4c3.7-2.1,6.2-5,6.1-9.6
		C142.6,142.2,147.2,142.2,152,142.2z"/>
	<path class="st1" d="M156.9,45.1c-1.5,1.4-2.7,2.6-4,3.7c-0.3,0.2-0.8,0.4-1.1,0.4c-4.5,0-9.1,0-13.6,0c-0.4,0-0.9-0.1-1.1-0.4
		c-1.3-1.2-2.6-2.4-4-3.7C141,45.1,148.8,45.1,156.9,45.1z"/>
</g>
</svg>
