<?xml version="1.0" encoding="utf-8"?>
<!-- Generator: Adobe Illustrator 24.0.2, SVG Export Plug-In . SVG Version: 6.00 Build 0)  -->
<svg version="1.1" id="Layer_1" xmlns="http://www.w3.org/2000/svg" xmlns:xlink="http://www.w3.org/1999/xlink" x="0px" y="0px"
	 width="290px" height="196px" viewBox="0 0 290 196" style="enable-background:new 0 0 290 196;" xml:space="preserve">
<style type="text/css">
	.st0{fill:#225256;}
	.st1{fill:#FFFFFF;}
	.st2{fill:#E11C24;}
	.st3{fill:#E11B23;}
	.st4{fill:#E2222A;}
	.st5{fill:#FDF6F6;}
	.st6{fill:#E32D34;}
	.st7{fill:#FBE5E6;}
</style>
<rect class="st0" width="290" height="196"/>
<g>
	<path class="st1" d="M28.4,105.3c2.2-5,4.2,2.7,9.6,2c6.4,0.8,9.2-5.8,1.7-6.9c-19.4-1.9-8.6-21.3,5.7-13.4c2.4,1,3.5,5.1,0.2,5.5
		c-2.7-2.9-6.7-4.7-10.7-2.8c-6.8,6.8,8.5,5.8,11.5,9.1C55.9,110,30.9,116.2,28.4,105.3z"/>
	<path class="st2" d="M210.1,85.1c3.6,2.5,1.1,10.1,1.7,14.1c-0.3,2.7-4.9,2.6-5-0.3C207.7,95.1,204.1,84.7,210.1,85.1z"/>
	<path class="st2" d="M239.3,96.1c-2.4,4.2-2.1,13.1-6.8,14.7c-1.5,0-3.7,0.2-4.1-1.7c-2-7-3.9-14-5.9-21c-0.3-1.4,1.9-1.9,3-2.1
		c5.4,0.6,4.5,13.1,6.6,17.4c2.3-4.3,1.7-11.8,6.1-14.2c7.2-1.2,5.9,9.6,8.5,14.1c2-4.1,1.3-18,7-17.2c0.9,0.3,2.4,0.8,2.4,1.9
		c-1.7,6.3-3.4,12.6-5.1,18.8c-0.3,3.2-2.4,4.6-5.5,3.9C241.2,107.9,241.6,100.6,239.3,96.1z"/>
	<path class="st3" d="M177.6,89.1c4.9-6.1,16-3.7,16.8,4.4c-0.5,4.1,3.1,18.5-3.4,17.3c-6.7-3.1,3.3-19.6-7.4-19.9
		c-2.5,0.1-5.1,1.5-5.7,4.1c0,4.4,0,8.7,0,13.1c0.3,3.8-6.4,3.7-5.9-0.1c0.6-7-1.1-15.2,0.6-21.6C174.9,85.3,177,86.7,177.6,89.1z"
		/>
	<path class="st1" d="M54.1,99.5c0.7,8.8,12.4,9.7,16.7,3.5c7,3.6-5.6,8.9-9.3,7.8c-15.2-0.2-15.2-24.7-0.2-25.5
		c7.3-1,12.9,5.7,12.4,12.7C73.2,101.4,57.7,98.7,54.1,99.5z M69.3,95.8c-0.3-9.2-14-8.6-15,0C59.3,95.8,64.3,95.8,69.3,95.8z"/>
	<path class="st1" d="M150,99.5c0.7,8.9,12.4,9.7,16.8,3.5c6.9,3.7-5.7,8.9-9.5,7.8c-15.1-0.3-15-24.8-0.1-25.5
		c7.3-1,13,5.7,12.4,12.8C168.9,101.4,153.7,98.7,150,99.5z M150.2,95.8c5.1,0,10.1,0,15.1,0C164.8,86.6,151.3,87.3,150.2,95.8z"/>
	<path class="st2" d="M196.6,97.9c0-3.3,1.4-10.1,5.9-8.6c0.9,0.5,2.5,1.6,1.6,2.7c-8.3,9.5,7.8,21.5,12.3,7.9
		c0.7-2.8-0.1-5.5-1.8-7.8c-1.2-2,2.6-4,4.1-2.7c14.9,18.8-20.7,32.6-22.2,8.4C196.5,97.9,196.6,97.9,196.6,97.9z"/>
	<path class="st1" d="M133.7,110.9c-12.6,0.5-17.8-17.9-6.2-24c5.4-3,13.6-2,16.5,4c1.3,1.8-1.4,4.7-3,2.9c-3.2-7.6-15.4-5-15.6,3.3
		c-1.8,9.2,11.7,14.4,15.6,5.5c0.3-0.6,0.6-0.8,1.2-0.7C149,105.2,137.8,111.8,133.7,110.9z"/>
	<path class="st1" d="M102.2,105.5c2.4-6.2,4.7-12.3,7.2-18.5c0.7-1.7,3.1-1.9,4-0.3c-0.8,4.4-3.4,8.7-4.8,13
		c-1.7,4.9-5.9,17.9-10.2,6.9c-2.5-6.4-5-12.7-7.5-19.1c-0.3-0.7-0.2-1,0.4-1.5C96.6,83,99.7,102,102.2,105.5z"/>
	<path class="st1" d="M79.7,88.7c1.7-4.7,12.7-4.1,8.9,1.7c-7.9-3.2-8.9,4.5-8.7,10.8c-0.6,2.8,1.4,7.6-1.2,9.4
		c-1.2,0.2-2.8,0.3-2.9-1.3c-0.1-7.3,0-14.7,0-22.1C76.2,84.3,80,86.5,79.7,88.7z"/>
	<path class="st1" d="M115.1,98.2c0.8-3.3-2-11.5,1.9-12.5c1.4-0.2,2.3,0.8,2.2,2.2c-0.1,7.2,0.2,14.4-0.1,21.6
		C113,114.3,115.7,101.2,115.1,98.2z"/>
	<path class="st4" d="M261.6,88.3c0.1,2.8-4.2,2.8-4.1,0C257.4,85.7,261.8,85.6,261.6,88.3z M258.6,89.4
		C258.6,89.4,258.6,89.4,258.6,89.4c1.7,2.1,3.7-2.2,1.2-2.7C258.4,86.3,257.3,88.7,258.6,89.4z"/>
	<path class="st5" d="M258.6,89.4c-1.3-0.7-0.2-3.1,1.2-2.7C262.3,87.2,260.3,91.5,258.6,89.4c0.2,0,0.4,0,0.7,0c0-0.4,0-0.6,0-1
		c0.5,0.2,0.4,1,1.1,1c-0.2-0.3-0.3-0.6-0.5-0.9c1.3-1.1-0.2-1.5-1.3-1.3C258.6,88,258.6,88.7,258.6,89.4z"/>
	<path class="st6" d="M258.6,89.4c0-0.7,0-1.4,0-2.2c1.1-0.2,2.6,0.2,1.3,1.3c0.2,0.3,0.3,0.6,0.5,0.9c-0.7,0.1-0.6-0.7-1.1-1
		c0,0.3,0,0.6,0,1C259,89.4,258.8,89.4,258.6,89.4C258.6,89.4,258.6,89.4,258.6,89.4z M259.3,88.1c0.9-0.1,0.8-0.4,0-0.7
		C259.3,87.6,259.3,87.8,259.3,88.1z"/>
	<path class="st7" d="M259.3,88.1c0-0.2,0-0.4,0-0.7C260.1,87.6,260.2,88,259.3,88.1z"/>
</g>
</svg>
