<?xml version="1.0" encoding="utf-8"?>
<!-- Generator: Adobe Illustrator 24.0.2, SVG Export Plug-In . SVG Version: 6.00 Build 0)  -->
<svg version="1.1" id="Layer_1" xmlns="http://www.w3.org/2000/svg" xmlns:xlink="http://www.w3.org/1999/xlink" x="0px" y="0px"
	 width="55px" height="55px" viewBox="0 0 55 55" style="enable-background:new 0 0 55 55;" xml:space="preserve">
<style type="text/css">
	.st0{fill:#FFFFFF;}
	.st1{fill:url(#SVGID_1_);}
</style>
<circle class="st0" cx="27.5" cy="27.5" r="27"/>
<linearGradient id="SVGID_1_" gradientUnits="userSpaceOnUse" x1="11.9276" y1="27.4689" x2="43.0714" y2="27.4689">
	<stop  offset="0" style="stop-color:#59C173"/>
	<stop  offset="1" style="stop-color:#5D26C1"/>
</linearGradient>
<path class="st1" d="M17.6,38.2c0.3-0.5-0.7-7.8,0.6-7.5c0.6,0.2,4-0.6,3.9,0.6c-0.3,0.5,0.7,7.8-0.6,7.5
	C21,38.6,17.5,39.4,17.6,38.2z M34.2,29.8c-0.3,0.5,0.7,9.4-0.6,9c-0.6-0.2-4,0.6-3.9-0.6c0,0,0-8.4,0-8.4c-0.1-1.2,3.4-0.4,3.9-0.6
	C33.9,29.2,34.2,29.4,34.2,29.8z M18,24.7c-0.3-0.5,0.6-1.5,0.7-1.9c0.2-0.5,1.2-0.3,1.7-0.3l4.6-6.4c-0.2-0.4-0.7-1-0.4-1.4
	c0.3-0.3,0.7-1.6,1.3-1.6c0.4,0.1,1.7-0.2,2,0.3c0.7,1,1.1,1.7,0.2,2.8l3.6,6.2h0.7l4.1-7.7c-0.9-1.1-0.5-1.7,0.2-2.8
	c0.4-0.5,2.1-0.5,2.5,0c0.2,0.4,1.1,1.4,0.7,1.9c-0.6,1.1-0.9,1.8-2.3,1.6L33.4,23c0.9,1.2,0.6,1.7-0.1,2.8c-0.2,0.6-1.5,0.3-2,0.3
	c-0.6,0.1-1-1.2-1.3-1.6c-0.3-0.4,0.4-1.2,0.5-1.5l-3.6-6.2H26l-4.6,6.3c0.2,0.4,0.8,1.1,0.5,1.5c-0.3,0.3-0.7,1.6-1.3,1.6
	C19,26.4,18.7,26.2,18,24.7z M43.1,40.4c0,0.4-0.3,0.6-0.6,0.6H16c-0.1,0.6,0.4,2.4-0.6,2.3c-1,0-0.5-1.8-0.6-2.3
	c-0.6-0.1-2.9,0.5-2.8-0.6c-0.1-1.1,2.3-0.5,2.8-0.6V15.9c0-0.3,0.3-0.6,0.6-0.6s0.6,0.3,0.6,0.6v23.8h26.4
	C42.8,39.7,43.1,40,43.1,40.4z M27.5,24.7c1.4-0.6,0.3,13.1,0.6,13.4c0,0.3-0.3,0.6-0.6,0.6c-0.6-0.2-4,0.6-3.9-0.6
	c0,0,0-12.8,0-12.8C23.5,24.2,27,25,27.5,24.7z M39.6,20.3c0.3,0,0.6,0.3,0.6,0.6v17.2c0.1,1.2-3.4,0.4-3.9,0.6
	c-0.3,0-0.6-0.3-0.6-0.6V21C35.5,19.8,39,20.5,39.6,20.3z"/>
</svg>
