<?xml version="1.0" encoding="utf-8"?>
<!-- Generator: Adobe Illustrator 24.0.2, SVG Export Plug-In . SVG Version: 6.00 Build 0)  -->
<svg version="1.1" id="Layer_1" xmlns="http://www.w3.org/2000/svg" xmlns:xlink="http://www.w3.org/1999/xlink" x="0px" y="0px"
	 width="55px" height="55px" viewBox="0 0 55 55" style="enable-background:new 0 0 55 55;" xml:space="preserve">
<style type="text/css">
	.st0{fill:#FFFFFF;}
	.st1{fill:url(#SVGID_1_);}
</style>
<circle class="st0" cx="27.5" cy="27.5" r="27"/>
<linearGradient id="SVGID_1_" gradientUnits="userSpaceOnUse" x1="13.7303" y1="27.4574" x2="41.1741" y2="27.4574">
	<stop  offset="0" style="stop-color:#0071BF"/>
	<stop  offset="1" style="stop-color:#ED3237"/>
</linearGradient>
<path class="st1" d="M39.8,32.2v3.6C41.6,35.4,41.6,32.6,39.8,32.2z M27.7,34c0-0.5,0.1-1,0.3-1.4H14.7c-0.1,1.1-0.1,2.8,1.4,2.8
	c0,0,11.9,0,11.9,0C27.8,35,27.7,34.5,27.7,34z M16.1,34.5c-0.6,0-0.6-0.9,0-0.9C16.7,33.5,16.7,34.5,16.1,34.5z M18,34.5
	c-0.6,0-0.6-0.9,0-0.9C18.6,33.5,18.6,34.5,18,34.5z M19.8,34.5c-0.6,0-0.6-0.9,0-0.9C20.4,33.5,20.4,34.5,19.8,34.5z M22.2,36.3
	v1.9h-2.8v0.9h10.7c0-0.5,0-1.5,0-2c-0.5-0.2-1-0.4-1.3-0.8H22.2z M30.5,14.5c-0.2-1.1-15.6-0.2-16.3-0.5c-1-0.4-0.3,8.1-0.5,8.4
	h16.7V14.5z M18.9,21.5V15l6.5,3.3L18.9,21.5z M30.5,27.5v-4.2H13.8c0.2,0.4-0.5,4.8,0.5,4.6C15,27.7,30.3,28.6,30.5,27.5z
	 M29.6,26.1H19.3c-0.4,1.2-2.2,1.2-2.6,0h-1.9v-0.9h1.9c0.4-1.2,2.2-1.2,2.6,0h10.3V26.1z M31,36.3h1.4v-4.6
	C28.6,30.8,27,35.7,31,36.3z M36.1,21.9c0.1-2.1-3.5-1.2-4.6-1.4c-0.4,1.3,1.2,8.5-1.4,8.4c0,0-15.3,0-15.3,0v2.8h14
	c1.9-1.8,5.2-0.2,7.4-1.7V21.9z M34.7,29.4h-1.9v-2.8h1.9V29.4z M34.7,24.7h-1.9v-2.8h1.9V24.7z M33.3,31.7v4.7
	c2.1,0.1,4.1,1,5.6,2.6v-9.8C37.4,30.7,35.4,31.6,33.3,31.7z M32.2,40.1c-0.6-0.4-0.3-2.2-0.3-2.8H31c0.1,0.1-0.2,3.9,0.2,3.7
	C31.9,40.9,33.8,41.3,32.2,40.1z"/>
</svg>
