<?xml version="1.0" encoding="utf-8"?>
<!-- Generator: Adobe Illustrator 24.0.2, SVG Export Plug-In . SVG Version: 6.00 Build 0)  -->
<svg version="1.1" id="Layer_1" xmlns="http://www.w3.org/2000/svg" xmlns:xlink="http://www.w3.org/1999/xlink" x="0px" y="0px"
	 width="55px" height="55px" viewBox="0 0 55 55" style="enable-background:new 0 0 55 55;" xml:space="preserve">
<style type="text/css">
	.st0{fill:#FFFFFF;}
	.st1{fill:url(#SVGID_1_);}
	.st2{fill:url(#SVGID_2_);}
</style>
<circle class="st0" cx="27.5" cy="27.5" r="27"/>
<g>
	<linearGradient id="SVGID_1_" gradientUnits="userSpaceOnUse" x1="19.2225" y1="28.6184" x2="35.7702" y2="28.6184">
		<stop  offset="0" style="stop-color:#0090D4"/>
		<stop  offset="1" style="stop-color:#0200E2"/>
	</linearGradient>
	<path class="st1" d="M32.1,23.1c-3.2,0.5-12.9-2-12.8,3.7c-0.2,2.8-0.3,7.4,3.7,7.3c3.2-0.5,12.9,2,12.8-3.7
		C35.9,27.7,36,23.1,32.1,23.1z M22.7,26.8c0-1.5,2.3-1.5,2.3,0C25,28.3,22.7,28.3,22.7,26.8z M30.5,30.9c-1.1,2.2-7.3,1.6-5.9-1.3
		c1.1-0.8,1.7,1,2.9,0.8c0.6,0,1.2-0.2,1.6-0.6C29.8,28.8,31.2,30,30.5,30.9z M31.1,27.9c-1.5,0-1.5-2.3,0-2.3
		C32.6,25.6,32.6,28,31.1,27.9z"/>
	<linearGradient id="SVGID_2_" gradientUnits="userSpaceOnUse" x1="10.7444" y1="27.4992" x2="44.3214" y2="27.4992">
		<stop  offset="0" style="stop-color:#ff33be"/>
		<stop  offset="1" style="stop-color:#ED3237"/>
	</linearGradient>
	<path class="st2" d="M42.1,25.2c-0.5-0.3-1.2-0.3-1.8-0.3c0.6-7.1-6.6-7.8-11.9-7.3v-3.8c2.2-0.9,1.5-4.5-0.9-4.4
		c-2.4-0.1-3.1,3.5-0.9,4.4v3.8c-5.3-0.5-12.5,0.2-11.9,7.3c-5.3-0.5-5.3,7.8,0,7.3c0,2.9,1.9,5.3,4.5,6.1c-0.5,2-4.2,6.6-0.3,7.2
		c0,0,17.3,0,17.3,0c3.9-0.6,0.2-5.2-0.3-7.2c2.6-0.8,4.5-3.2,4.5-6.1C44.4,32.8,46,26.7,42.1,25.2z M37.5,30.4
		c0.1,7.3-10.1,5.2-14.6,5.5c-5,0.1-5.9-5.2-5.5-9.1c-0.1-7.3,10.1-5.2,14.6-5.5C37,21.3,38,26.5,37.5,30.4z"/>
</g>
</svg>
